G04 DipTrace 3.3.0.0*
G04 monsooon_panel.GBL*
%MOIN*%
G04 #@! TF.FileFunction,Copper,L2,Bot*
G04 #@! TF.Part,Single*
G04 #@! TA.AperFunction,Conductor*
%ADD14C,0.007*%
G04 #@! TA.AperFunction,CopperBalancing*
%ADD16C,0.009*%
G04 #@! TA.AperFunction,ComponentPad*
%ADD28C,0.32*%
%ADD29O,0.299213X0.177165*%
%ADD30C,0.334646*%
%FSLAX26Y26*%
G04*
G70*
G90*
G75*
G01*
G04 Bottom*
%LPD*%
X482751Y2937749D2*
D14*
Y2806500D1*
X507751Y2781500D1*
X415408Y5420631D2*
D16*
X575697D1*
X802303D2*
X2375697D1*
X2602303D2*
X2762538D1*
X415408Y5411762D2*
X562794D1*
X815206D2*
X2362794D1*
X2615206D2*
X2762521D1*
X415408Y5402894D2*
X553126D1*
X824874D2*
X2353126D1*
X2624874D2*
X2762504D1*
X415408Y5394025D2*
X545550D1*
X832450D2*
X2345550D1*
X2632450D2*
X2762486D1*
X415408Y5385156D2*
X539504D1*
X838496D2*
X2339504D1*
X2638496D2*
X2762469D1*
X415408Y5376287D2*
X534705D1*
X843295D2*
X2334705D1*
X2643295D2*
X2762450D1*
X415408Y5367419D2*
X530942D1*
X847058D2*
X2330942D1*
X2647058D2*
X2762433D1*
X415408Y5358550D2*
X528130D1*
X849870D2*
X2328130D1*
X2649870D2*
X2762416D1*
X415408Y5349681D2*
X526178D1*
X851822D2*
X2326178D1*
X2651822D2*
X2762398D1*
X415408Y5340812D2*
X525018D1*
X852982D2*
X2325018D1*
X2652982D2*
X2762381D1*
X415408Y5331944D2*
X524633D1*
X853367D2*
X2324633D1*
X2653367D2*
X2762362D1*
X415408Y5323075D2*
X525018D1*
X852982D2*
X2325018D1*
X2652982D2*
X2762345D1*
X415408Y5314206D2*
X526197D1*
X851803D2*
X2326197D1*
X2651803D2*
X2762328D1*
X415408Y5305337D2*
X528165D1*
X849835D2*
X2328165D1*
X2649835D2*
X2762310D1*
X415408Y5296469D2*
X530996D1*
X847004D2*
X2330996D1*
X2647004D2*
X2762293D1*
X415408Y5287600D2*
X534757D1*
X843243D2*
X2334757D1*
X2643243D2*
X2762274D1*
X415408Y5278731D2*
X539573D1*
X838427D2*
X2339573D1*
X2638427D2*
X2762257D1*
X415408Y5269862D2*
X545638D1*
X832362D2*
X2345638D1*
X2632362D2*
X2762240D1*
X415408Y5260993D2*
X553232D1*
X824768D2*
X2353232D1*
X2624768D2*
X2762222D1*
X415408Y5252125D2*
X562934D1*
X815066D2*
X2362934D1*
X2615066D2*
X2762205D1*
X415408Y5243256D2*
X575908D1*
X802092D2*
X2375908D1*
X2602092D2*
X2762186D1*
X415408Y5234387D2*
X596000D1*
X782000D2*
X2396000D1*
X2582000D2*
X2762169D1*
X415408Y5225518D2*
X2762152D1*
X415408Y5216650D2*
X2762134D1*
X415408Y5207781D2*
X2762117D1*
X415408Y5198912D2*
X2762098D1*
X415408Y5190043D2*
X2762081D1*
X415408Y5181175D2*
X2762064D1*
X415408Y5172306D2*
X2762046D1*
X415408Y5163437D2*
X2762029D1*
X415408Y5154568D2*
X2762010D1*
X415408Y5145699D2*
X2761993D1*
X415408Y5136831D2*
X2761976D1*
X415408Y5127962D2*
X2761958D1*
X415408Y5119093D2*
X2761941D1*
X415408Y5110224D2*
X2761923D1*
X415408Y5101356D2*
X2761906D1*
X415408Y5092487D2*
X2761888D1*
X415408Y5083618D2*
X2761870D1*
X415408Y5074749D2*
X2761853D1*
X415408Y5065881D2*
X743954D1*
X834050D2*
X2343950D1*
X2434046D2*
X2761836D1*
X415408Y5057012D2*
X724601D1*
X853403D2*
X2324597D1*
X2453399D2*
X2761818D1*
X415408Y5048143D2*
X710908D1*
X867096D2*
X2310904D1*
X2467092D2*
X2761801D1*
X415408Y5039274D2*
X700202D1*
X877802D2*
X2300198D1*
X2477798D2*
X2761782D1*
X415408Y5030406D2*
X691466D1*
X886538D2*
X2291462D1*
X2486534D2*
X2761765D1*
X415408Y5021537D2*
X684206D1*
X893780D2*
X2284220D1*
X2493794D2*
X2761748D1*
X415408Y5012668D2*
X678142D1*
X899844D2*
X1110793D1*
X1167207D2*
X1410798D1*
X1467214D2*
X1710786D1*
X1767202D2*
X2010793D1*
X2067207D2*
X2278156D1*
X2499858D2*
X2761730D1*
X415408Y5003799D2*
X673080D1*
X904907D2*
X1094673D1*
X1183327D2*
X1394678D1*
X1483315D2*
X1694685D1*
X1783322D2*
X1994673D1*
X2083327D2*
X2273093D1*
X2504920D2*
X2761713D1*
X415408Y4994930D2*
X668896D1*
X909108D2*
X1084549D1*
X1193451D2*
X1384554D1*
X1493440D2*
X1684560D1*
X1793446D2*
X1984549D1*
X2093451D2*
X2268892D1*
X2509104D2*
X2761694D1*
X415408Y4986062D2*
X665486D1*
X912518D2*
X1077341D1*
X1200659D2*
X1377346D1*
X1500664D2*
X1677336D1*
X1800654D2*
X1977341D1*
X2100659D2*
X2265482D1*
X2512514D2*
X2761677D1*
X415408Y4977193D2*
X662797D1*
X915207D2*
X1072068D1*
X1205932D2*
X1372073D1*
X1505920D2*
X1672080D1*
X1805927D2*
X1972068D1*
X2105932D2*
X2262793D1*
X2515203D2*
X2761660D1*
X415408Y4968324D2*
X660774D1*
X917230D2*
X1068324D1*
X1209676D2*
X1368312D1*
X1509682D2*
X1668318D1*
X1809688D2*
X1968324D1*
X2109676D2*
X2260770D1*
X2517226D2*
X2761642D1*
X415408Y4959455D2*
X659386D1*
X918600D2*
X1065828D1*
X1212172D2*
X1365833D1*
X1512160D2*
X1665840D1*
X1812167D2*
X1965828D1*
X2112172D2*
X2259400D1*
X2518614D2*
X2761625D1*
X415408Y4950587D2*
X658630D1*
X919356D2*
X1064492D1*
X1213508D2*
X1364497D1*
X1513496D2*
X1664504D1*
X1813503D2*
X1964492D1*
X2113508D2*
X2258644D1*
X2519370D2*
X2761606D1*
X415408Y4941718D2*
X658490D1*
X919514D2*
X1064228D1*
X1213772D2*
X1364234D1*
X1513760D2*
X1664240D1*
X1813766D2*
X1964228D1*
X2113772D2*
X2258486D1*
X2519510D2*
X2761589D1*
X415408Y4932849D2*
X658946D1*
X919058D2*
X1065054D1*
X1212946D2*
X1365042D1*
X1512951D2*
X1665049D1*
X1812958D2*
X1965054D1*
X2112946D2*
X2258942D1*
X2519054D2*
X2761572D1*
X415408Y4923980D2*
X660018D1*
X917967D2*
X1066970D1*
X1211030D2*
X1366958D1*
X1511035D2*
X1666965D1*
X1811042D2*
X1966970D1*
X2111030D2*
X2260033D1*
X2517982D2*
X2761554D1*
X415408Y4915112D2*
X661724D1*
X916280D2*
X1070081D1*
X1207919D2*
X1370088D1*
X1507924D2*
X1670076D1*
X1807912D2*
X1970081D1*
X2107919D2*
X2261720D1*
X2516276D2*
X2761537D1*
X415408Y4906243D2*
X664097D1*
X913907D2*
X1074581D1*
X1203419D2*
X1374570D1*
X1503424D2*
X1674576D1*
X1803430D2*
X1974581D1*
X2103419D2*
X2264093D1*
X2513903D2*
X2761518D1*
X415408Y4897374D2*
X667138D1*
X910848D2*
X1080769D1*
X1197231D2*
X1380774D1*
X1497238D2*
X1680762D1*
X1797226D2*
X1980769D1*
X2097231D2*
X2267152D1*
X2510862D2*
X2761501D1*
X415408Y4888505D2*
X670953D1*
X907051D2*
X1089294D1*
X1188706D2*
X1389301D1*
X1488694D2*
X1689306D1*
X1788699D2*
X1989294D1*
X2088706D2*
X2270949D1*
X2507047D2*
X2761484D1*
X415408Y4879636D2*
X675576D1*
X902428D2*
X1101793D1*
X1176207D2*
X1401798D1*
X1476214D2*
X1701786D1*
X1776219D2*
X2001793D1*
X2076207D2*
X2275572D1*
X2502424D2*
X2761466D1*
X415408Y4870768D2*
X681130D1*
X896856D2*
X1128194D1*
X1149806D2*
X1428201D1*
X1449811D2*
X1728189D1*
X1749799D2*
X2028194D1*
X2049806D2*
X2281144D1*
X2496870D2*
X2761449D1*
X415408Y4861899D2*
X687774D1*
X890211D2*
X2287789D1*
X2490226D2*
X2761430D1*
X415408Y4853030D2*
X695756D1*
X882248D2*
X2295752D1*
X2482244D2*
X2761413D1*
X415408Y4844161D2*
X705423D1*
X872580D2*
X2305420D1*
X2472576D2*
X2761396D1*
X415408Y4835293D2*
X717482D1*
X860522D2*
X2317478D1*
X2460518D2*
X2761378D1*
X415408Y4826424D2*
X733513D1*
X844491D2*
X2333509D1*
X2444487D2*
X2761361D1*
X415408Y4817555D2*
X759529D1*
X818458D2*
X2359542D1*
X2418471D2*
X2761343D1*
X415408Y4808686D2*
X2761325D1*
X415408Y4799818D2*
X2761308D1*
X415408Y4790949D2*
X2761290D1*
X415408Y4782080D2*
X2761273D1*
X415408Y4773211D2*
X2761256D1*
X415408Y4764343D2*
X2761238D1*
X415408Y4755474D2*
X1371617D1*
X1418908D2*
X2534093D1*
X2581386D2*
X2761220D1*
X415408Y4746605D2*
X1358416D1*
X1432110D2*
X2520892D1*
X2594587D2*
X2761202D1*
X415408Y4737736D2*
X1350664D1*
X1439862D2*
X2513140D1*
X2602339D2*
X2761185D1*
X415408Y4728867D2*
X1345672D1*
X1444854D2*
X2508148D1*
X2607331D2*
X2761168D1*
X415408Y4719999D2*
X1342648D1*
X1447860D2*
X2505142D1*
X2610336D2*
X2761150D1*
X415408Y4711130D2*
X1341259D1*
X1449248D2*
X2503753D1*
X2611743D2*
X2761133D1*
X415408Y4702261D2*
X1341365D1*
X1449143D2*
X2503858D1*
X2611619D2*
X2761114D1*
X415408Y4693392D2*
X1343000D1*
X1447526D2*
X2505476D1*
X2610003D2*
X2761097D1*
X415408Y4684524D2*
X1346269D1*
X1444256D2*
X2508745D1*
X2606734D2*
X2761080D1*
X415408Y4675655D2*
X1351594D1*
X1438930D2*
X2514072D1*
X2601407D2*
X2761062D1*
X415408Y4666786D2*
X1332434D1*
X1458248D2*
X1719786D1*
X1844406D2*
X2107437D1*
X2233251D2*
X2494929D1*
X2620743D2*
X2761045D1*
X415408Y4657917D2*
X1326054D1*
X1464630D2*
X1712984D1*
X1851207D2*
X2101056D1*
X2239631D2*
X2488566D1*
X2627123D2*
X2761026D1*
X415408Y4649049D2*
X1324946D1*
X1465738D2*
X1711701D1*
X1852491D2*
X2099949D1*
X2240739D2*
X2487441D1*
X2628231D2*
X2761009D1*
X415408Y4640180D2*
X1324946D1*
X1465738D2*
X1711701D1*
X1852491D2*
X2099949D1*
X2240739D2*
X2487441D1*
X2628231D2*
X2760992D1*
X415408Y4631311D2*
X1324946D1*
X1465738D2*
X1711701D1*
X1852491D2*
X2099949D1*
X2240739D2*
X2487441D1*
X2628231D2*
X2760974D1*
X415408Y4622442D2*
X1324946D1*
X1465738D2*
X1711701D1*
X1852491D2*
X2099949D1*
X2240739D2*
X2487441D1*
X2628231D2*
X2760957D1*
X415408Y4613573D2*
X1324946D1*
X1465738D2*
X1711701D1*
X1852491D2*
X2099949D1*
X2240739D2*
X2487441D1*
X2628231D2*
X2760938D1*
X415408Y4604705D2*
X1324946D1*
X1465738D2*
X1711701D1*
X1852491D2*
X2099949D1*
X2240739D2*
X2487441D1*
X2628231D2*
X2760921D1*
X415408Y4595836D2*
X1324946D1*
X1465738D2*
X1711701D1*
X1852491D2*
X2099949D1*
X2240739D2*
X2487441D1*
X2628231D2*
X2760904D1*
X415408Y4586967D2*
X1324946D1*
X1465738D2*
X1711701D1*
X1852491D2*
X2099949D1*
X2240739D2*
X2487441D1*
X2628231D2*
X2760886D1*
X415408Y4578098D2*
X1324946D1*
X1465738D2*
X1711701D1*
X1852491D2*
X2099949D1*
X2240739D2*
X2487441D1*
X2628231D2*
X2760869D1*
X415408Y4569230D2*
X1324946D1*
X1465738D2*
X1711701D1*
X1852491D2*
X2099949D1*
X2240739D2*
X2487441D1*
X2628231D2*
X2760850D1*
X415408Y4560361D2*
X1324946D1*
X1465738D2*
X1711701D1*
X1852491D2*
X2099949D1*
X2240739D2*
X2487441D1*
X2628231D2*
X2760833D1*
X415408Y4551492D2*
X1324946D1*
X1465738D2*
X1711701D1*
X1852491D2*
X2099949D1*
X2240739D2*
X2487441D1*
X2628231D2*
X2760816D1*
X415408Y4542623D2*
X739929D1*
X835807D2*
X1324946D1*
X1465738D2*
X1711701D1*
X1852491D2*
X2099949D1*
X2240739D2*
X2487441D1*
X2628231D2*
X2760798D1*
X415408Y4533755D2*
X715530D1*
X860206D2*
X1324946D1*
X1465738D2*
X1711701D1*
X1852491D2*
X2099949D1*
X2240739D2*
X2487441D1*
X2628231D2*
X2760781D1*
X415408Y4524886D2*
X698445D1*
X877291D2*
X1324946D1*
X1465738D2*
X1711701D1*
X1852491D2*
X2099949D1*
X2240739D2*
X2487441D1*
X2628231D2*
X2760762D1*
X415408Y4516017D2*
X684927D1*
X890810D2*
X1324946D1*
X1465738D2*
X1711701D1*
X1852491D2*
X2099949D1*
X2240739D2*
X2487441D1*
X2628231D2*
X2760745D1*
X415408Y4507148D2*
X673694D1*
X902042D2*
X1324946D1*
X1465738D2*
X1711701D1*
X1852491D2*
X2099949D1*
X2240739D2*
X2487441D1*
X2628231D2*
X2760728D1*
X415408Y4498280D2*
X664114D1*
X911604D2*
X1324946D1*
X1465738D2*
X1711701D1*
X1852491D2*
X2099949D1*
X2240739D2*
X2487441D1*
X2628231D2*
X2760710D1*
X415408Y4489411D2*
X655836D1*
X919902D2*
X1324946D1*
X1465738D2*
X1711701D1*
X1852491D2*
X2099949D1*
X2240739D2*
X2487441D1*
X2628231D2*
X2760693D1*
X415408Y4480542D2*
X648610D1*
X927108D2*
X1324946D1*
X1465738D2*
X1711701D1*
X1852491D2*
X2099949D1*
X2240739D2*
X2487441D1*
X2628231D2*
X2760675D1*
X415408Y4471673D2*
X642301D1*
X933436D2*
X1324946D1*
X1465738D2*
X1711701D1*
X1852491D2*
X2099949D1*
X2240739D2*
X2487441D1*
X2628231D2*
X2760657D1*
X415408Y4462804D2*
X636762D1*
X938974D2*
X1324946D1*
X1465738D2*
X1711701D1*
X1852491D2*
X2099949D1*
X2240739D2*
X2487441D1*
X2628231D2*
X2760640D1*
X415408Y4453936D2*
X631929D1*
X943807D2*
X1324946D1*
X1465738D2*
X1711701D1*
X1852491D2*
X2099949D1*
X2240739D2*
X2487441D1*
X2628231D2*
X2760622D1*
X415408Y4445067D2*
X627745D1*
X947991D2*
X1324946D1*
X1465738D2*
X1711701D1*
X1852491D2*
X2099949D1*
X2240739D2*
X2487441D1*
X2628231D2*
X2760605D1*
X415408Y4436198D2*
X624142D1*
X951594D2*
X1324946D1*
X1465738D2*
X1711701D1*
X1852491D2*
X2099949D1*
X2240739D2*
X2487441D1*
X2628231D2*
X2760588D1*
X415408Y4427329D2*
X621084D1*
X954635D2*
X1324946D1*
X1465738D2*
X1711701D1*
X1852491D2*
X2099949D1*
X2240739D2*
X2487441D1*
X2628231D2*
X2760570D1*
X415408Y4418461D2*
X618570D1*
X957167D2*
X1324946D1*
X1465738D2*
X1711701D1*
X1852491D2*
X2099949D1*
X2240739D2*
X2487441D1*
X2628231D2*
X2760552D1*
X415408Y4409592D2*
X616530D1*
X959206D2*
X1324946D1*
X1465738D2*
X1711701D1*
X1852491D2*
X2099949D1*
X2240739D2*
X2487441D1*
X2628231D2*
X2760534D1*
X415408Y4400723D2*
X614984D1*
X960752D2*
X1324946D1*
X1465738D2*
X1711701D1*
X1852491D2*
X2099949D1*
X2240739D2*
X2487441D1*
X2628231D2*
X2760517D1*
X415408Y4391854D2*
X613894D1*
X961824D2*
X1324946D1*
X1465738D2*
X1711701D1*
X1852491D2*
X2099949D1*
X2240739D2*
X2487441D1*
X2628231D2*
X2760500D1*
X415408Y4382986D2*
X613278D1*
X962458D2*
X1324946D1*
X1465738D2*
X1711701D1*
X1852491D2*
X2099949D1*
X2240739D2*
X2487441D1*
X2628231D2*
X2760482D1*
X415408Y4374117D2*
X613102D1*
X962615D2*
X1324946D1*
X1465738D2*
X1711701D1*
X1852491D2*
X2099949D1*
X2240739D2*
X2487441D1*
X2628231D2*
X2760465D1*
X415408Y4365248D2*
X613402D1*
X962335D2*
X1324946D1*
X1465738D2*
X1711701D1*
X1852491D2*
X2099949D1*
X2240739D2*
X2487441D1*
X2628231D2*
X2760446D1*
X415408Y4356379D2*
X614140D1*
X961596D2*
X1324946D1*
X1465738D2*
X1711701D1*
X1852491D2*
X2099949D1*
X2240739D2*
X2487441D1*
X2628231D2*
X2760429D1*
X415408Y4347510D2*
X615336D1*
X960402D2*
X1324946D1*
X1465738D2*
X1711701D1*
X1852491D2*
X2099949D1*
X2240739D2*
X2487441D1*
X2628231D2*
X2760412D1*
X415408Y4338642D2*
X617005D1*
X958731D2*
X1324946D1*
X1465738D2*
X1711701D1*
X1852491D2*
X2099949D1*
X2240739D2*
X2487441D1*
X2628231D2*
X2760394D1*
X415408Y4329773D2*
X619168D1*
X956570D2*
X1324946D1*
X1465738D2*
X1711701D1*
X1852491D2*
X2099949D1*
X2240739D2*
X2487441D1*
X2628231D2*
X2760377D1*
X415408Y4320904D2*
X621822D1*
X953915D2*
X1324946D1*
X1465738D2*
X1711701D1*
X1852491D2*
X2099949D1*
X2240739D2*
X2487441D1*
X2628231D2*
X2760358D1*
X415408Y4312035D2*
X625004D1*
X950734D2*
X1324946D1*
X1465738D2*
X1711701D1*
X1852491D2*
X2099949D1*
X2240739D2*
X2487441D1*
X2628231D2*
X2760341D1*
X415408Y4303167D2*
X628748D1*
X946971D2*
X1324946D1*
X1465738D2*
X1711701D1*
X1852491D2*
X2099949D1*
X2240739D2*
X2487441D1*
X2628231D2*
X2760324D1*
X415408Y4294298D2*
X633106D1*
X942630D2*
X1324946D1*
X1465738D2*
X1711701D1*
X1852491D2*
X2099949D1*
X2240739D2*
X2487441D1*
X2628231D2*
X2760306D1*
X415408Y4285429D2*
X638098D1*
X937619D2*
X1324946D1*
X1465738D2*
X1711701D1*
X1852491D2*
X2099949D1*
X2240739D2*
X2487441D1*
X2628231D2*
X2760289D1*
X415408Y4276560D2*
X643829D1*
X931907D2*
X1324946D1*
X1465738D2*
X1711701D1*
X1852491D2*
X2099949D1*
X2240739D2*
X2487441D1*
X2628231D2*
X2760270D1*
X415408Y4267692D2*
X650369D1*
X925367D2*
X1324946D1*
X1465738D2*
X1711701D1*
X1852491D2*
X2099949D1*
X2240739D2*
X2487441D1*
X2628231D2*
X2760253D1*
X415408Y4258823D2*
X657840D1*
X917879D2*
X1324946D1*
X1465738D2*
X1711701D1*
X1852491D2*
X2099949D1*
X2240739D2*
X2487441D1*
X2628231D2*
X2760236D1*
X415408Y4249954D2*
X666434D1*
X909302D2*
X1324946D1*
X1465738D2*
X1711701D1*
X1852491D2*
X2099949D1*
X2240739D2*
X2487441D1*
X2628231D2*
X2760218D1*
X415408Y4241085D2*
X676385D1*
X899335D2*
X1324946D1*
X1465738D2*
X1711701D1*
X1852491D2*
X2099949D1*
X2240739D2*
X2487441D1*
X2628231D2*
X2760201D1*
X415408Y4232217D2*
X688126D1*
X887610D2*
X1324946D1*
X1465738D2*
X1711701D1*
X1852491D2*
X2099949D1*
X2240739D2*
X2487441D1*
X2628231D2*
X2760182D1*
X415408Y4223348D2*
X702382D1*
X873336D2*
X1324946D1*
X1465738D2*
X1711701D1*
X1852491D2*
X2099949D1*
X2240739D2*
X2487441D1*
X2628231D2*
X2760165D1*
X415408Y4214479D2*
X720786D1*
X854950D2*
X1324946D1*
X1465738D2*
X1711701D1*
X1852491D2*
X2099949D1*
X2240739D2*
X2487441D1*
X2628231D2*
X2760148D1*
X415408Y4205610D2*
X748894D1*
X826843D2*
X1324946D1*
X1465738D2*
X1711701D1*
X1852491D2*
X2099949D1*
X2240739D2*
X2487441D1*
X2628231D2*
X2760130D1*
X415408Y4196741D2*
X1324946D1*
X1465738D2*
X1711701D1*
X1852491D2*
X2099949D1*
X2240739D2*
X2487441D1*
X2628231D2*
X2760113D1*
X415408Y4187873D2*
X1324946D1*
X1465738D2*
X1711701D1*
X1852491D2*
X2099949D1*
X2240739D2*
X2487441D1*
X2628231D2*
X2760094D1*
X415408Y4179004D2*
X1324946D1*
X1465738D2*
X1711701D1*
X1852491D2*
X2099949D1*
X2240739D2*
X2487441D1*
X2628231D2*
X2760077D1*
X415408Y4170135D2*
X1324946D1*
X1465738D2*
X1711701D1*
X1852491D2*
X2099949D1*
X2240739D2*
X2487441D1*
X2628231D2*
X2760060D1*
X415408Y4161266D2*
X1324946D1*
X1465738D2*
X1711701D1*
X1852491D2*
X2099949D1*
X2240739D2*
X2487441D1*
X2628231D2*
X2760042D1*
X415408Y4152398D2*
X1324946D1*
X1465738D2*
X1711701D1*
X1852491D2*
X2099949D1*
X2240739D2*
X2487441D1*
X2628231D2*
X2760025D1*
X415408Y4143529D2*
X1324946D1*
X1465738D2*
X1711701D1*
X1852491D2*
X2099949D1*
X2240739D2*
X2487441D1*
X2628231D2*
X2760007D1*
X415408Y4134660D2*
X1324946D1*
X1465738D2*
X1711701D1*
X1852491D2*
X2099949D1*
X2240739D2*
X2487441D1*
X2628231D2*
X2759990D1*
X415408Y4125791D2*
X1324946D1*
X1465738D2*
X1711701D1*
X1852491D2*
X2099949D1*
X2240739D2*
X2487441D1*
X2628231D2*
X2759972D1*
X415408Y4116923D2*
X1324946D1*
X1465738D2*
X1711701D1*
X1852491D2*
X2099949D1*
X2240739D2*
X2487441D1*
X2628231D2*
X2759972D1*
X415408Y4108054D2*
X1324946D1*
X1465738D2*
X1711701D1*
X1852491D2*
X2099949D1*
X2240739D2*
X2487441D1*
X2628231D2*
X2759954D1*
X415408Y4099185D2*
X1324946D1*
X1465738D2*
X1711701D1*
X1852491D2*
X2099949D1*
X2240739D2*
X2487441D1*
X2628231D2*
X2759937D1*
X415408Y4090316D2*
X1324946D1*
X1465738D2*
X1711701D1*
X1852491D2*
X2099949D1*
X2240739D2*
X2487441D1*
X2628231D2*
X2759920D1*
X415408Y4081448D2*
X1324946D1*
X1465738D2*
X1711701D1*
X1852491D2*
X2099949D1*
X2240739D2*
X2487441D1*
X2628231D2*
X2759902D1*
X415408Y4072579D2*
X1324946D1*
X1465738D2*
X1711701D1*
X1852491D2*
X2099949D1*
X2240739D2*
X2487441D1*
X2628231D2*
X2759885D1*
X415408Y4063710D2*
X1324946D1*
X1465738D2*
X1711701D1*
X1852491D2*
X2099949D1*
X2240739D2*
X2487441D1*
X2628231D2*
X2759866D1*
X415408Y4054841D2*
X1324946D1*
X1465738D2*
X1711701D1*
X1852491D2*
X2099949D1*
X2240739D2*
X2487441D1*
X2628231D2*
X2759849D1*
X415408Y4045972D2*
X1324946D1*
X1465738D2*
X1711701D1*
X1852491D2*
X2099949D1*
X2240739D2*
X2487441D1*
X2628231D2*
X2759832D1*
X415408Y4037104D2*
X1324946D1*
X1465738D2*
X1711701D1*
X1852491D2*
X2099949D1*
X2240739D2*
X2487441D1*
X2628231D2*
X2759814D1*
X415408Y4028235D2*
X1324946D1*
X1465738D2*
X1711701D1*
X1852491D2*
X2099949D1*
X2240739D2*
X2487441D1*
X2628231D2*
X2759797D1*
X415408Y4019366D2*
X1324946D1*
X1465738D2*
X1711701D1*
X1852491D2*
X2099949D1*
X2240739D2*
X2487441D1*
X2628231D2*
X2759778D1*
X415408Y4010497D2*
X1324946D1*
X1465738D2*
X1711701D1*
X1852491D2*
X2099949D1*
X2240739D2*
X2487441D1*
X2628231D2*
X2759761D1*
X415408Y4001629D2*
X1324946D1*
X1465738D2*
X1711701D1*
X1852491D2*
X2099949D1*
X2240739D2*
X2487441D1*
X2628231D2*
X2759744D1*
X415408Y3992760D2*
X1324946D1*
X1465738D2*
X1711701D1*
X1852491D2*
X2099949D1*
X2240739D2*
X2487441D1*
X2628231D2*
X2759726D1*
X415408Y3983891D2*
X1324946D1*
X1465738D2*
X1711701D1*
X1852491D2*
X2099949D1*
X2240739D2*
X2487441D1*
X2628231D2*
X2759709D1*
X415408Y3975022D2*
X1324946D1*
X1465738D2*
X1711701D1*
X1852491D2*
X2099949D1*
X2240739D2*
X2487441D1*
X2628231D2*
X2759690D1*
X415408Y3966154D2*
X1324946D1*
X1465738D2*
X1711701D1*
X1852491D2*
X2099949D1*
X2240739D2*
X2487441D1*
X2628231D2*
X2759673D1*
X415408Y3957285D2*
X1324946D1*
X1465738D2*
X1711701D1*
X1852491D2*
X2099949D1*
X2240739D2*
X2487441D1*
X2628231D2*
X2759656D1*
X415408Y3948416D2*
X1324946D1*
X1465738D2*
X1711701D1*
X1852491D2*
X2099949D1*
X2240739D2*
X2487441D1*
X2628231D2*
X2759638D1*
X415408Y3939547D2*
X1324946D1*
X1465738D2*
X1711701D1*
X1852491D2*
X2099949D1*
X2240739D2*
X2487441D1*
X2628231D2*
X2759621D1*
X415408Y3930678D2*
X1324946D1*
X1465738D2*
X1711701D1*
X1852491D2*
X2099949D1*
X2240739D2*
X2487441D1*
X2628231D2*
X2759602D1*
X415408Y3921810D2*
X1324946D1*
X1465738D2*
X1711701D1*
X1852491D2*
X2099949D1*
X2240739D2*
X2487441D1*
X2628231D2*
X2759585D1*
X415408Y3912941D2*
X1324946D1*
X1465738D2*
X1711701D1*
X1852491D2*
X2099949D1*
X2240739D2*
X2487441D1*
X2628231D2*
X2759568D1*
X415408Y3904072D2*
X1324946D1*
X1465738D2*
X1711701D1*
X1852491D2*
X2099949D1*
X2240739D2*
X2487441D1*
X2628231D2*
X2759550D1*
X415408Y3895203D2*
X1324946D1*
X1465738D2*
X1711701D1*
X1852491D2*
X2099949D1*
X2240739D2*
X2487441D1*
X2628231D2*
X2759533D1*
X415408Y3886335D2*
X1324946D1*
X1465738D2*
X1711701D1*
X1852491D2*
X2099949D1*
X2240739D2*
X2487441D1*
X2628231D2*
X2759514D1*
X415408Y3877466D2*
X1324946D1*
X1465738D2*
X1711701D1*
X1852491D2*
X2099949D1*
X2240739D2*
X2487441D1*
X2628231D2*
X2759497D1*
X415408Y3868597D2*
X1324946D1*
X1465738D2*
X1711701D1*
X1852491D2*
X2099949D1*
X2240739D2*
X2487441D1*
X2628231D2*
X2759480D1*
X415408Y3859728D2*
X1324946D1*
X1465738D2*
X1711701D1*
X1852491D2*
X2099949D1*
X2240739D2*
X2487441D1*
X2628231D2*
X2759462D1*
X415408Y3850860D2*
X1324946D1*
X1465738D2*
X1711701D1*
X1852491D2*
X2099949D1*
X2240739D2*
X2487441D1*
X2628231D2*
X2759445D1*
X415408Y3841991D2*
X1324946D1*
X1465738D2*
X1711701D1*
X1852491D2*
X2099949D1*
X2240739D2*
X2487441D1*
X2628231D2*
X2759427D1*
X415408Y3833122D2*
X1324946D1*
X1465738D2*
X1711701D1*
X1852491D2*
X2099949D1*
X2240739D2*
X2487441D1*
X2628231D2*
X2759409D1*
X415408Y3824253D2*
X1324946D1*
X1465738D2*
X1711701D1*
X1852491D2*
X2099949D1*
X2240739D2*
X2487441D1*
X2628231D2*
X2759392D1*
X415408Y3815385D2*
X1324946D1*
X1465738D2*
X1711701D1*
X1852491D2*
X2099949D1*
X2240739D2*
X2487441D1*
X2628231D2*
X2759374D1*
X415408Y3806516D2*
X1324946D1*
X1465738D2*
X1711701D1*
X1852491D2*
X2099949D1*
X2240739D2*
X2487441D1*
X2628231D2*
X2759357D1*
X415408Y3797647D2*
X1324946D1*
X1465738D2*
X1711701D1*
X1852491D2*
X2099949D1*
X2240739D2*
X2487441D1*
X2628231D2*
X2759340D1*
X415408Y3788778D2*
X1324946D1*
X1465738D2*
X1711701D1*
X1852491D2*
X2099949D1*
X2240739D2*
X2487441D1*
X2628231D2*
X2759322D1*
X415408Y3779909D2*
X1324946D1*
X1465738D2*
X1711701D1*
X1852491D2*
X2099949D1*
X2240739D2*
X2487441D1*
X2628231D2*
X2759304D1*
X415408Y3771041D2*
X1324946D1*
X1465738D2*
X1711701D1*
X1852491D2*
X2099949D1*
X2240739D2*
X2487441D1*
X2628231D2*
X2759286D1*
X415408Y3762172D2*
X743990D1*
X834014D2*
X1324946D1*
X1465738D2*
X1711701D1*
X1852491D2*
X2099949D1*
X2240739D2*
X2487441D1*
X2628231D2*
X2759269D1*
X415408Y3753303D2*
X718466D1*
X859538D2*
X1324946D1*
X1465738D2*
X1711701D1*
X1852491D2*
X2099949D1*
X2240739D2*
X2487441D1*
X2628231D2*
X2759252D1*
X415408Y3744434D2*
X700941D1*
X877063D2*
X1324946D1*
X1465738D2*
X1711701D1*
X1852491D2*
X2099949D1*
X2240739D2*
X2487441D1*
X2628231D2*
X2759234D1*
X415408Y3735566D2*
X687177D1*
X890827D2*
X1324946D1*
X1465738D2*
X1711701D1*
X1852491D2*
X2099949D1*
X2240739D2*
X2487441D1*
X2628231D2*
X2759217D1*
X415408Y3726697D2*
X675769D1*
X902235D2*
X1324946D1*
X1465738D2*
X1711701D1*
X1852491D2*
X2099949D1*
X2240739D2*
X2487441D1*
X2628231D2*
X2759198D1*
X415408Y3717828D2*
X666066D1*
X911938D2*
X1324946D1*
X1465738D2*
X1711701D1*
X1852491D2*
X2099949D1*
X2240739D2*
X2487441D1*
X2628231D2*
X2759181D1*
X415408Y3708959D2*
X657664D1*
X920323D2*
X1324946D1*
X1465738D2*
X1711701D1*
X1852491D2*
X2099949D1*
X2240739D2*
X2487441D1*
X2628231D2*
X2759164D1*
X415408Y3700091D2*
X650369D1*
X927635D2*
X1324946D1*
X1465738D2*
X1711701D1*
X1852491D2*
X2099949D1*
X2240739D2*
X2487441D1*
X2628231D2*
X2759146D1*
X415408Y3691222D2*
X643970D1*
X934034D2*
X1324946D1*
X1465738D2*
X1711701D1*
X1852491D2*
X2099949D1*
X2240739D2*
X2487441D1*
X2628231D2*
X2759129D1*
X415408Y3682353D2*
X638362D1*
X939642D2*
X1324946D1*
X1465738D2*
X1711701D1*
X1852491D2*
X2099949D1*
X2240739D2*
X2487441D1*
X2628231D2*
X2759110D1*
X415408Y3673484D2*
X633476D1*
X944528D2*
X1324946D1*
X1465738D2*
X1711701D1*
X1852491D2*
X2099949D1*
X2240739D2*
X2487441D1*
X2628231D2*
X2759093D1*
X415408Y3664615D2*
X629222D1*
X948782D2*
X1324946D1*
X1465738D2*
X1711701D1*
X1852491D2*
X2099949D1*
X2240739D2*
X2487441D1*
X2628231D2*
X2759076D1*
X415408Y3655747D2*
X625566D1*
X952420D2*
X1324946D1*
X1465738D2*
X1711701D1*
X1852491D2*
X2099949D1*
X2240739D2*
X2487441D1*
X2628231D2*
X2759058D1*
X415408Y3646878D2*
X622472D1*
X955531D2*
X1324946D1*
X1465738D2*
X1711701D1*
X1852491D2*
X2099949D1*
X2240739D2*
X2487441D1*
X2628231D2*
X2759041D1*
X415408Y3638009D2*
X619906D1*
X958098D2*
X1324946D1*
X1465738D2*
X1711701D1*
X1852491D2*
X2099949D1*
X2240739D2*
X2487441D1*
X2628231D2*
X2759022D1*
X415408Y3629140D2*
X617832D1*
X960172D2*
X1324946D1*
X1465738D2*
X1711701D1*
X1852491D2*
X2099949D1*
X2240739D2*
X2487441D1*
X2628231D2*
X2759005D1*
X415408Y3620272D2*
X616232D1*
X961772D2*
X1324946D1*
X1465738D2*
X1711701D1*
X1852491D2*
X2099949D1*
X2240739D2*
X2487441D1*
X2628231D2*
X2758988D1*
X415408Y3611403D2*
X615106D1*
X962879D2*
X1324946D1*
X1465738D2*
X1711701D1*
X1852491D2*
X2099949D1*
X2240739D2*
X2487441D1*
X2628231D2*
X2758970D1*
X415408Y3602534D2*
X614457D1*
X963547D2*
X1324946D1*
X1465738D2*
X1711701D1*
X1852491D2*
X2099949D1*
X2240739D2*
X2487441D1*
X2628231D2*
X2758953D1*
X415408Y3593665D2*
X614245D1*
X963759D2*
X1324946D1*
X1465738D2*
X1711701D1*
X1852491D2*
X2099949D1*
X2240739D2*
X2487441D1*
X2628231D2*
X2758934D1*
X415408Y3584797D2*
X614492D1*
X963512D2*
X1324946D1*
X1465738D2*
X1711701D1*
X1852491D2*
X2099949D1*
X2240739D2*
X2487441D1*
X2628231D2*
X2758917D1*
X415408Y3575928D2*
X615177D1*
X962827D2*
X1324946D1*
X1465738D2*
X1711701D1*
X1852491D2*
X2099949D1*
X2240739D2*
X2487441D1*
X2628231D2*
X2758900D1*
X415408Y3567059D2*
X616337D1*
X961667D2*
X1324946D1*
X1465738D2*
X1711701D1*
X1852491D2*
X2099949D1*
X2240739D2*
X2487441D1*
X2628231D2*
X2758882D1*
X415408Y3558190D2*
X617972D1*
X960031D2*
X1324946D1*
X1465738D2*
X1711701D1*
X1852491D2*
X2099949D1*
X2240739D2*
X2487441D1*
X2628231D2*
X2758865D1*
X415408Y3549322D2*
X620081D1*
X957923D2*
X1324946D1*
X1465738D2*
X1711701D1*
X1852491D2*
X2099949D1*
X2240739D2*
X2487441D1*
X2628231D2*
X2758846D1*
X415408Y3540453D2*
X622682D1*
X955303D2*
X1324946D1*
X1465738D2*
X1711701D1*
X1852491D2*
X2099949D1*
X2240739D2*
X2487441D1*
X2628231D2*
X2758829D1*
X415408Y3531584D2*
X625829D1*
X952175D2*
X1324946D1*
X1465738D2*
X1711701D1*
X1852491D2*
X2099949D1*
X2240739D2*
X2487441D1*
X2628231D2*
X2758812D1*
X415408Y3522715D2*
X629521D1*
X948483D2*
X1324946D1*
X1465738D2*
X1711701D1*
X1852491D2*
X2099949D1*
X2240739D2*
X2487441D1*
X2628231D2*
X2758794D1*
X415408Y3513846D2*
X633810D1*
X944176D2*
X1324946D1*
X1465738D2*
X1711701D1*
X1852491D2*
X2099949D1*
X2240739D2*
X2487441D1*
X2628231D2*
X2758777D1*
X415408Y3504978D2*
X638766D1*
X939238D2*
X1324946D1*
X1465738D2*
X1711701D1*
X1852491D2*
X2099949D1*
X2240739D2*
X2487441D1*
X2628231D2*
X2758759D1*
X415408Y3496109D2*
X644409D1*
X933576D2*
X1324946D1*
X1465738D2*
X1711701D1*
X1852491D2*
X2099949D1*
X2240739D2*
X2487441D1*
X2628231D2*
X2758741D1*
X415408Y3487240D2*
X650878D1*
X927126D2*
X1324946D1*
X1465738D2*
X1711701D1*
X1852491D2*
X2099949D1*
X2240739D2*
X2487441D1*
X2628231D2*
X2758724D1*
X415408Y3478371D2*
X658261D1*
X919743D2*
X1324946D1*
X1465738D2*
X1711701D1*
X1852491D2*
X2099949D1*
X2240739D2*
X2487441D1*
X2628231D2*
X2758706D1*
X415408Y3469503D2*
X666734D1*
X911252D2*
X1324946D1*
X1465738D2*
X1711701D1*
X1852491D2*
X2099949D1*
X2240739D2*
X2487441D1*
X2628231D2*
X2758689D1*
X415408Y3460634D2*
X676560D1*
X901444D2*
X1324946D1*
X1465738D2*
X1711701D1*
X1852491D2*
X2099949D1*
X2240739D2*
X2487441D1*
X2628231D2*
X2758672D1*
X415408Y3451765D2*
X688109D1*
X889878D2*
X1324946D1*
X1465738D2*
X1711701D1*
X1852491D2*
X2099949D1*
X2240739D2*
X2487441D1*
X2628231D2*
X2758654D1*
X415408Y3442896D2*
X702101D1*
X875886D2*
X1324946D1*
X1465738D2*
X1711701D1*
X1852491D2*
X2099949D1*
X2240739D2*
X2487441D1*
X2628231D2*
X2758636D1*
X415408Y3434028D2*
X720013D1*
X857991D2*
X1324946D1*
X1465738D2*
X1711701D1*
X1852491D2*
X2099949D1*
X2240739D2*
X2487441D1*
X2628231D2*
X2758618D1*
X415408Y3425159D2*
X746626D1*
X831378D2*
X1324946D1*
X1465738D2*
X1711701D1*
X1852491D2*
X2099949D1*
X2240739D2*
X2487441D1*
X2628231D2*
X2758601D1*
X415408Y3416290D2*
X1324946D1*
X1465738D2*
X1711701D1*
X1852491D2*
X2099949D1*
X2240739D2*
X2487441D1*
X2628231D2*
X2758584D1*
X415408Y3407421D2*
X1324946D1*
X1465738D2*
X1711701D1*
X1852491D2*
X2099949D1*
X2240739D2*
X2487441D1*
X2628231D2*
X2758566D1*
X415408Y3398552D2*
X1324946D1*
X1465738D2*
X1711701D1*
X1852491D2*
X2099949D1*
X2240739D2*
X2487441D1*
X2628231D2*
X2758549D1*
X415408Y3389684D2*
X1324946D1*
X1465738D2*
X1711701D1*
X1852491D2*
X2099949D1*
X2240739D2*
X2487441D1*
X2628231D2*
X2758530D1*
X415408Y3380815D2*
X1324946D1*
X1465738D2*
X1711701D1*
X1852491D2*
X2099949D1*
X2240739D2*
X2487441D1*
X2628231D2*
X2758513D1*
X415408Y3371946D2*
X1324946D1*
X1465738D2*
X1711701D1*
X1852491D2*
X2099949D1*
X2240739D2*
X2487441D1*
X2628231D2*
X2758496D1*
X415408Y3363077D2*
X1324946D1*
X1465738D2*
X1711701D1*
X1852491D2*
X2099949D1*
X2240739D2*
X2487441D1*
X2628231D2*
X2758478D1*
X415408Y3354209D2*
X1324946D1*
X1465738D2*
X1711701D1*
X1852491D2*
X2099949D1*
X2240739D2*
X2487441D1*
X2628231D2*
X2758461D1*
X415408Y3345340D2*
X1324946D1*
X1465738D2*
X1711701D1*
X1852491D2*
X2099949D1*
X2240739D2*
X2487441D1*
X2628231D2*
X2758442D1*
X415408Y3336471D2*
X1324946D1*
X1465738D2*
X1711701D1*
X1852491D2*
X2099949D1*
X2240739D2*
X2487441D1*
X2628231D2*
X2758425D1*
X415408Y3327602D2*
X1324946D1*
X1465738D2*
X1711701D1*
X1852491D2*
X2099949D1*
X2240739D2*
X2487441D1*
X2628231D2*
X2758408D1*
X415408Y3318734D2*
X1324946D1*
X1465738D2*
X1711701D1*
X1852491D2*
X2099949D1*
X2240739D2*
X2487441D1*
X2628231D2*
X2758390D1*
X415408Y3309865D2*
X1324946D1*
X1465738D2*
X1711701D1*
X1852491D2*
X2099949D1*
X2240739D2*
X2487441D1*
X2628231D2*
X2758373D1*
X415408Y3300996D2*
X1324946D1*
X1465738D2*
X1711701D1*
X1852491D2*
X2099949D1*
X2240739D2*
X2487441D1*
X2628231D2*
X2758354D1*
X415408Y3292127D2*
X1324946D1*
X1465738D2*
X1711701D1*
X1852491D2*
X2099949D1*
X2240739D2*
X2487441D1*
X2628231D2*
X2758337D1*
X415408Y3283259D2*
X1324946D1*
X1465738D2*
X1711701D1*
X1852491D2*
X2099949D1*
X2240739D2*
X2487441D1*
X2628231D2*
X2758320D1*
X415408Y3274390D2*
X1324946D1*
X1465738D2*
X1711701D1*
X1852491D2*
X2099949D1*
X2240739D2*
X2487441D1*
X2628231D2*
X2758302D1*
X415408Y3265521D2*
X1324946D1*
X1465738D2*
X1711701D1*
X1852491D2*
X2099949D1*
X2240739D2*
X2487441D1*
X2628231D2*
X2758285D1*
X415408Y3256652D2*
X1324946D1*
X1465738D2*
X1711701D1*
X1852491D2*
X2099949D1*
X2240739D2*
X2487441D1*
X2628231D2*
X2758266D1*
X415408Y3247783D2*
X1324946D1*
X1465738D2*
X1711701D1*
X1852491D2*
X2099949D1*
X2240739D2*
X2487441D1*
X2628231D2*
X2758249D1*
X415408Y3238915D2*
X1324946D1*
X1465738D2*
X1711701D1*
X1852491D2*
X2099949D1*
X2240739D2*
X2487441D1*
X2628231D2*
X2758232D1*
X415408Y3230046D2*
X1324946D1*
X1465738D2*
X1711701D1*
X1852491D2*
X2099949D1*
X2240739D2*
X2487441D1*
X2628231D2*
X2758214D1*
X415408Y3221177D2*
X1324946D1*
X1465738D2*
X1711701D1*
X1852491D2*
X2099949D1*
X2240739D2*
X2487441D1*
X2628231D2*
X2758197D1*
X415408Y3212308D2*
X1324946D1*
X1465738D2*
X1711701D1*
X1852491D2*
X2099949D1*
X2240739D2*
X2487441D1*
X2628231D2*
X2758178D1*
X415408Y3203440D2*
X1324946D1*
X1465738D2*
X1711701D1*
X1852491D2*
X2099949D1*
X2240739D2*
X2487441D1*
X2628231D2*
X2758161D1*
X415408Y3194571D2*
X1324946D1*
X1465738D2*
X1711701D1*
X1852491D2*
X2099949D1*
X2240739D2*
X2487441D1*
X2628231D2*
X2758144D1*
X415408Y3185702D2*
X1324946D1*
X1465738D2*
X1711701D1*
X1852491D2*
X2099949D1*
X2240739D2*
X2487441D1*
X2628231D2*
X2758126D1*
X415408Y3176833D2*
X1324946D1*
X1465738D2*
X1711701D1*
X1852491D2*
X2099949D1*
X2240739D2*
X2487441D1*
X2628231D2*
X2758109D1*
X415408Y3167965D2*
X1324946D1*
X1465738D2*
X1711701D1*
X1852491D2*
X2099949D1*
X2240739D2*
X2487441D1*
X2628231D2*
X2758091D1*
X415408Y3159096D2*
X1324946D1*
X1465738D2*
X1711701D1*
X1852491D2*
X2099949D1*
X2240739D2*
X2487441D1*
X2628231D2*
X2758073D1*
X415408Y3150227D2*
X1325000D1*
X1465684D2*
X1711718D1*
X1852474D2*
X2100001D1*
X2240686D2*
X2487493D1*
X2628196D2*
X2758056D1*
X415408Y3141358D2*
X1327846D1*
X1462836D2*
X1714320D1*
X1849871D2*
X2102849D1*
X2237839D2*
X2490341D1*
X2625348D2*
X2758038D1*
X415408Y3132490D2*
X1340486D1*
X1450215D2*
X1725482D1*
X1838710D2*
X2115470D1*
X2225199D2*
X2502980D1*
X2612710D2*
X2758021D1*
X415408Y3123621D2*
X2758004D1*
X415408Y3114752D2*
X2757986D1*
X415408Y3105883D2*
X2757969D1*
X415408Y3097014D2*
X2757950D1*
X415408Y3088146D2*
X2757933D1*
X415408Y3079277D2*
X2757916D1*
X415408Y3070408D2*
X2757898D1*
X415408Y3061539D2*
X2757881D1*
X415408Y3052671D2*
X2757862D1*
X415408Y3043802D2*
X2757845D1*
X415408Y3034933D2*
X2757828D1*
X415408Y3026064D2*
X2757810D1*
X415408Y3017196D2*
X2757793D1*
X415408Y3008327D2*
X2757774D1*
X415408Y2999458D2*
X2757757D1*
X415408Y2990589D2*
X2757740D1*
X415408Y2981720D2*
X2757722D1*
X415408Y2972852D2*
X2757705D1*
X415408Y2963983D2*
X2757686D1*
X415408Y2955114D2*
X2757669D1*
X415408Y2946245D2*
X466713D1*
X498782D2*
X2757652D1*
X415408Y2937377D2*
X464497D1*
X501014D2*
X2757634D1*
X415408Y2928508D2*
X464497D1*
X501014D2*
X2757617D1*
X415408Y2919639D2*
X464497D1*
X501014D2*
X2757598D1*
X415408Y2910770D2*
X464497D1*
X501014D2*
X2757581D1*
X415408Y2901902D2*
X464497D1*
X501014D2*
X2757564D1*
X415408Y2893033D2*
X464497D1*
X501014D2*
X2757546D1*
X415408Y2884164D2*
X464497D1*
X501014D2*
X2757529D1*
X415408Y2875295D2*
X464497D1*
X501014D2*
X2757510D1*
X415408Y2866427D2*
X464497D1*
X501014D2*
X2757493D1*
X415408Y2857558D2*
X464497D1*
X501014D2*
X2757476D1*
X415408Y2848689D2*
X464497D1*
X501014D2*
X2757458D1*
X415408Y2839820D2*
X464497D1*
X501014D2*
X2757441D1*
X415408Y2830951D2*
X464497D1*
X501014D2*
X2757423D1*
X415408Y2822083D2*
X464497D1*
X501014D2*
X2757406D1*
X415408Y2813214D2*
X464497D1*
X501490D2*
X2757388D1*
X415408Y2804345D2*
X464621D1*
X510348D2*
X2757370D1*
X415408Y2795476D2*
X468434D1*
X519226D2*
X2757353D1*
X415408Y2786608D2*
X477189D1*
X525238D2*
X2757336D1*
X415408Y2777739D2*
X486066D1*
X525606D2*
X2757318D1*
X415408Y2768870D2*
X494942D1*
X520562D2*
X2757301D1*
X415408Y2760001D2*
X711417D1*
X816576D2*
X1261420D1*
X1366579D2*
X1811421D1*
X1916580D2*
X2361423D1*
X2466583D2*
X2757282D1*
X415408Y2751133D2*
X688689D1*
X839306D2*
X1238690D1*
X1389307D2*
X1788693D1*
X1939310D2*
X2338694D1*
X2489311D2*
X2757265D1*
X415408Y2742264D2*
X672289D1*
X855706D2*
X1222290D1*
X1405707D2*
X1772293D1*
X1955710D2*
X2322294D1*
X2505711D2*
X2757248D1*
X415408Y2733395D2*
X659193D1*
X868802D2*
X1209194D1*
X1418803D2*
X1759197D1*
X1968806D2*
X2309198D1*
X2518807D2*
X2757230D1*
X415408Y2724526D2*
X648259D1*
X879752D2*
X1198244D1*
X1429755D2*
X1748245D1*
X1979756D2*
X2298248D1*
X2529740D2*
X2757213D1*
X415408Y2715657D2*
X638890D1*
X889104D2*
X1188892D1*
X1439106D2*
X1738894D1*
X1989108D2*
X2288896D1*
X2539110D2*
X2757194D1*
X415408Y2706789D2*
X630786D1*
X897207D2*
X1180789D1*
X1447210D2*
X1730790D1*
X1997211D2*
X2280793D1*
X2547214D2*
X2757177D1*
X415408Y2697920D2*
X623720D1*
X904291D2*
X1173722D1*
X1454276D2*
X1723724D1*
X2004278D2*
X2273709D1*
X2554280D2*
X2757160D1*
X415408Y2689051D2*
X617514D1*
X910479D2*
X1167517D1*
X1460482D2*
X1717518D1*
X2010483D2*
X2267521D1*
X2560486D2*
X2757142D1*
X415408Y2680182D2*
X612101D1*
X915894D2*
X1162102D1*
X1465895D2*
X1712105D1*
X2015898D2*
X2262106D1*
X2565899D2*
X2757125D1*
X415408Y2671314D2*
X607373D1*
X920622D2*
X1157374D1*
X1470623D2*
X1707377D1*
X2020626D2*
X2257378D1*
X2570627D2*
X2757106D1*
X415408Y2662445D2*
X603277D1*
X924718D2*
X1153278D1*
X1474719D2*
X1703281D1*
X2024722D2*
X2253282D1*
X2574723D2*
X2757089D1*
X415408Y2653576D2*
X599761D1*
X928234D2*
X1149762D1*
X1478235D2*
X1699765D1*
X2028238D2*
X2249766D1*
X2578239D2*
X2757072D1*
X415408Y2644707D2*
X596790D1*
X931203D2*
X1146793D1*
X1481206D2*
X1696794D1*
X2031207D2*
X2246797D1*
X2581210D2*
X2757054D1*
X415408Y2635839D2*
X594346D1*
X933647D2*
X1144349D1*
X1483650D2*
X1694350D1*
X2033651D2*
X2244353D1*
X2583654D2*
X2757037D1*
X415408Y2626970D2*
X592396D1*
X935598D2*
X1142398D1*
X1485600D2*
X1692400D1*
X2035602D2*
X2242402D1*
X2585604D2*
X2757018D1*
X415408Y2618101D2*
X590920D1*
X937075D2*
X1140921D1*
X1487076D2*
X1690923D1*
X2037079D2*
X2240925D1*
X2587080D2*
X2757001D1*
X415408Y2609232D2*
X589900D1*
X938094D2*
X1139902D1*
X1488096D2*
X1689904D1*
X2038098D2*
X2239906D1*
X2588100D2*
X2756984D1*
X415408Y2600364D2*
X589354D1*
X938639D2*
X1139357D1*
X1488642D2*
X1689358D1*
X2038643D2*
X2239361D1*
X2588646D2*
X2756966D1*
X415408Y2591495D2*
X589249D1*
X938744D2*
X1139252D1*
X1488747D2*
X1689253D1*
X2038748D2*
X2239256D1*
X2588751D2*
X2756949D1*
X415408Y2582626D2*
X589618D1*
X938394D2*
X1139621D1*
X1488395D2*
X1689605D1*
X2038379D2*
X2239606D1*
X2588382D2*
X2756930D1*
X415408Y2573757D2*
X590427D1*
X937584D2*
X1140429D1*
X1487570D2*
X1690430D1*
X2037571D2*
X2240416D1*
X2587573D2*
X2756913D1*
X415408Y2564888D2*
X591693D1*
X936302D2*
X1141694D1*
X1486303D2*
X1691697D1*
X2036306D2*
X2241698D1*
X2586307D2*
X2756896D1*
X415408Y2556020D2*
X593433D1*
X934562D2*
X1143434D1*
X1484563D2*
X1693437D1*
X2034566D2*
X2243438D1*
X2584567D2*
X2756878D1*
X415408Y2547151D2*
X595665D1*
X932328D2*
X1145668D1*
X1482331D2*
X1695669D1*
X2032332D2*
X2245672D1*
X2582335D2*
X2756861D1*
X415408Y2538282D2*
X598408D1*
X929587D2*
X1148409D1*
X1479588D2*
X1698412D1*
X2029591D2*
X2248413D1*
X2579592D2*
X2756843D1*
X415408Y2529413D2*
X601677D1*
X926318D2*
X1151678D1*
X1476319D2*
X1701681D1*
X2026322D2*
X2251682D1*
X2576323D2*
X2756825D1*
X415408Y2520545D2*
X605526D1*
X922486D2*
X1155510D1*
X1472487D2*
X1705513D1*
X2022490D2*
X2255514D1*
X2572474D2*
X2756808D1*
X415408Y2511676D2*
X609974D1*
X918038D2*
X1159958D1*
X1468039D2*
X1709961D1*
X2018042D2*
X2259962D1*
X2568026D2*
X2756790D1*
X415408Y2502807D2*
X615072D1*
X912923D2*
X1165073D1*
X1462924D2*
X1715076D1*
X2012927D2*
X2265077D1*
X2562928D2*
X2756773D1*
X415408Y2493938D2*
X620925D1*
X907087D2*
X1170927D1*
X1457071D2*
X1720929D1*
X2007073D2*
X2270913D1*
X2557075D2*
X2756756D1*
X415408Y2485070D2*
X627588D1*
X900407D2*
X1177589D1*
X1450408D2*
X1727591D1*
X2000411D2*
X2277593D1*
X2550412D2*
X2756738D1*
X415408Y2476201D2*
X635234D1*
X892778D2*
X1185236D1*
X1442762D2*
X1735238D1*
X1992764D2*
X2285222D1*
X2542766D2*
X2756720D1*
X415408Y2467332D2*
X644005D1*
X883990D2*
X1194007D1*
X1433991D2*
X1744009D1*
X1983992D2*
X2294010D1*
X2533995D2*
X2756702D1*
X415408Y2458463D2*
X654218D1*
X873794D2*
X1204202D1*
X1423795D2*
X1754205D1*
X1973798D2*
X2304206D1*
X2523782D2*
X2756685D1*
X415408Y2449594D2*
X666277D1*
X861718D2*
X1216278D1*
X1411719D2*
X1766281D1*
X1961722D2*
X2316282D1*
X2511723D2*
X2756668D1*
X415408Y2440726D2*
X681042D1*
X846970D2*
X1231045D1*
X1396971D2*
X1781029D1*
X1946955D2*
X2331030D1*
X2496958D2*
X2756650D1*
X415408Y2431857D2*
X700361D1*
X827651D2*
X1250362D1*
X1377654D2*
X1800346D1*
X1927638D2*
X2350349D1*
X2477639D2*
X2756633D1*
X415408Y2422988D2*
X731756D1*
X796239D2*
X1281757D1*
X1346240D2*
X1831759D1*
X1896243D2*
X2381761D1*
X2446244D2*
X2756614D1*
X415408Y2414119D2*
X2756597D1*
X415408Y2405251D2*
X2756580D1*
X415408Y2396382D2*
X2756562D1*
X415408Y2387513D2*
X2756545D1*
X415408Y2378644D2*
X2756526D1*
X415408Y2369776D2*
X2756509D1*
X415408Y2360907D2*
X2756492D1*
X415408Y2352038D2*
X2756474D1*
X415408Y2343169D2*
X2756457D1*
X415408Y2334301D2*
X2756438D1*
X415408Y2325432D2*
X2756421D1*
X415408Y2316563D2*
X2756404D1*
X415408Y2307694D2*
X2756386D1*
X415408Y2298825D2*
X2756369D1*
X415408Y2289957D2*
X2756350D1*
X415408Y2281088D2*
X2756333D1*
X415408Y2272219D2*
X2756316D1*
X415408Y2263350D2*
X2756298D1*
X415408Y2254482D2*
X2756281D1*
X415408Y2245613D2*
X2756262D1*
X415408Y2236744D2*
X2756245D1*
X415408Y2227875D2*
X2756228D1*
X415408Y2219007D2*
X2756210D1*
X415408Y2210138D2*
X2756193D1*
X415408Y2201269D2*
X2756175D1*
X415408Y2192400D2*
X2756157D1*
X415408Y2183531D2*
X2756140D1*
X415408Y2174663D2*
X2756122D1*
X415408Y2165794D2*
X2756105D1*
X415408Y2156925D2*
X2756088D1*
X415408Y2148056D2*
X2756070D1*
X415408Y2139188D2*
X2756052D1*
X415408Y2130319D2*
X2756034D1*
X415408Y2121450D2*
X2756017D1*
X415408Y2112581D2*
X720576D1*
X807419D2*
X1270577D1*
X1357420D2*
X1820580D1*
X1907423D2*
X2370581D1*
X2457424D2*
X2756000D1*
X415408Y2103713D2*
X694402D1*
X833592D2*
X1244404D1*
X1383594D2*
X1794406D1*
X1933596D2*
X2344408D1*
X2483598D2*
X2755982D1*
X415408Y2094844D2*
X676648D1*
X851346D2*
X1226650D1*
X1401348D2*
X1776652D1*
X1951350D2*
X2326654D1*
X2501352D2*
X2755965D1*
X415408Y2085975D2*
X662744D1*
X865251D2*
X1212745D1*
X1415252D2*
X1762748D1*
X1965255D2*
X2312749D1*
X2515256D2*
X2755946D1*
X415408Y2077106D2*
X651248D1*
X876747D2*
X1201249D1*
X1426748D2*
X1751252D1*
X1976751D2*
X2301253D1*
X2526752D2*
X2755929D1*
X415408Y2068238D2*
X641474D1*
X886520D2*
X1191476D1*
X1436522D2*
X1741478D1*
X1986524D2*
X2291480D1*
X2536526D2*
X2755912D1*
X415408Y2059369D2*
X633037D1*
X894975D2*
X1183038D1*
X1444959D2*
X1733041D1*
X1994962D2*
X2283025D1*
X2544963D2*
X2755894D1*
X415408Y2050500D2*
X625672D1*
X902323D2*
X1175673D1*
X1452324D2*
X1725675D1*
X2002327D2*
X2275677D1*
X2552328D2*
X2755877D1*
X415408Y2041631D2*
X619238D1*
X908756D2*
X1169240D1*
X1458759D2*
X1719241D1*
X2008760D2*
X2269244D1*
X2558762D2*
X2755858D1*
X415408Y2032762D2*
X613613D1*
X914399D2*
X1163597D1*
X1464402D2*
X1713598D1*
X2014403D2*
X2263601D1*
X2564387D2*
X2755841D1*
X415408Y2023894D2*
X608690D1*
X919322D2*
X1158693D1*
X1469323D2*
X1708677D1*
X2019307D2*
X2258678D1*
X2569310D2*
X2755824D1*
X415408Y2015025D2*
X604402D1*
X923592D2*
X1154404D1*
X1473594D2*
X1704406D1*
X2023596D2*
X2254408D1*
X2573598D2*
X2755806D1*
X415408Y2006156D2*
X600728D1*
X927266D2*
X1150730D1*
X1477268D2*
X1700732D1*
X2027270D2*
X2250734D1*
X2577272D2*
X2755789D1*
X415408Y1997287D2*
X597598D1*
X930395D2*
X1147601D1*
X1480398D2*
X1697602D1*
X2030399D2*
X2247605D1*
X2580402D2*
X2755770D1*
X415408Y1988419D2*
X595014D1*
X932996D2*
X1145017D1*
X1482999D2*
X1695001D1*
X2032983D2*
X2245004D1*
X2582986D2*
X2755753D1*
X415408Y1979550D2*
X592906D1*
X935088D2*
X1142908D1*
X1485091D2*
X1692909D1*
X2035092D2*
X2242912D1*
X2585094D2*
X2755736D1*
X415408Y1970681D2*
X591306D1*
X936706D2*
X1141308D1*
X1486707D2*
X1691293D1*
X2036692D2*
X2241294D1*
X2586694D2*
X2755718D1*
X415408Y1961812D2*
X590164D1*
X937848D2*
X1140148D1*
X1487850D2*
X1690150D1*
X2037852D2*
X2240152D1*
X2587836D2*
X2755701D1*
X415408Y1952944D2*
X589478D1*
X938534D2*
X1139462D1*
X1488535D2*
X1689465D1*
X2038538D2*
X2239466D1*
X2588522D2*
X2755682D1*
X415408Y1944075D2*
X589232D1*
X938762D2*
X1139234D1*
X1488764D2*
X1689236D1*
X2038766D2*
X2239238D1*
X2588768D2*
X2755665D1*
X415408Y1935206D2*
X589461D1*
X938534D2*
X1139462D1*
X1488535D2*
X1689465D1*
X2038538D2*
X2239466D1*
X2588539D2*
X2755648D1*
X415408Y1926337D2*
X590146D1*
X937866D2*
X1140148D1*
X1487867D2*
X1690133D1*
X2037852D2*
X2240134D1*
X2587854D2*
X2755630D1*
X415408Y1917469D2*
X591270D1*
X936723D2*
X1141273D1*
X1486726D2*
X1691274D1*
X2036727D2*
X2241277D1*
X2586730D2*
X2755613D1*
X415408Y1908600D2*
X592888D1*
X935123D2*
X1142890D1*
X1485126D2*
X1692874D1*
X2035110D2*
X2242877D1*
X2585112D2*
X2755594D1*
X415408Y1899731D2*
X594962D1*
X933031D2*
X1144965D1*
X1483034D2*
X1694966D1*
X2033035D2*
X2244969D1*
X2583038D2*
X2755577D1*
X415408Y1890862D2*
X597564D1*
X930448D2*
X1147566D1*
X1480432D2*
X1697568D1*
X2030434D2*
X2247552D1*
X2580436D2*
X2755560D1*
X415408Y1881993D2*
X600675D1*
X927319D2*
X1150677D1*
X1477322D2*
X1700678D1*
X2027323D2*
X2250681D1*
X2577324D2*
X2755542D1*
X415408Y1873125D2*
X604349D1*
X923663D2*
X1154350D1*
X1473664D2*
X1704336D1*
X2023650D2*
X2254337D1*
X2573651D2*
X2755525D1*
X415408Y1864256D2*
X608602D1*
X919391D2*
X1158605D1*
X1469394D2*
X1708606D1*
X2019395D2*
X2258609D1*
X2569398D2*
X2755507D1*
X415408Y1855387D2*
X613525D1*
X914487D2*
X1163509D1*
X1464490D2*
X1713510D1*
X2014491D2*
X2263513D1*
X2564475D2*
X2755490D1*
X415408Y1846518D2*
X619133D1*
X908862D2*
X1169134D1*
X1458864D2*
X1719136D1*
X2008866D2*
X2269138D1*
X2558867D2*
X2755472D1*
X415408Y1837650D2*
X625566D1*
X902446D2*
X1175568D1*
X1452430D2*
X1725570D1*
X2002432D2*
X2275554D1*
X2552434D2*
X2755454D1*
X415408Y1828781D2*
X632896D1*
X895098D2*
X1182898D1*
X1445100D2*
X1732900D1*
X1995102D2*
X2282902D1*
X2545104D2*
X2755437D1*
X415408Y1819912D2*
X641316D1*
X886678D2*
X1191318D1*
X1436680D2*
X1741320D1*
X1986682D2*
X2291322D1*
X2536684D2*
X2755420D1*
X415408Y1811043D2*
X651072D1*
X876923D2*
X1201073D1*
X1426924D2*
X1751076D1*
X1976927D2*
X2301077D1*
X2526928D2*
X2755402D1*
X415408Y1802175D2*
X662533D1*
X865462D2*
X1212534D1*
X1415463D2*
X1762537D1*
X1965466D2*
X2312538D1*
X2515467D2*
X2755385D1*
X415408Y1793306D2*
X676385D1*
X851610D2*
X1226386D1*
X1401612D2*
X1776388D1*
X1951614D2*
X2326390D1*
X2501615D2*
X2755366D1*
X415408Y1784437D2*
X694050D1*
X833944D2*
X1244052D1*
X1383946D2*
X1794054D1*
X1933948D2*
X2344056D1*
X2483950D2*
X2755349D1*
X415408Y1775568D2*
X719996D1*
X807999D2*
X1269997D1*
X1358000D2*
X1820000D1*
X1908003D2*
X2370001D1*
X2458004D2*
X2755332D1*
X415408Y1766699D2*
X2755314D1*
X415408Y1757831D2*
X2755297D1*
X415408Y1748962D2*
X2755278D1*
X415408Y1740093D2*
X2755261D1*
X415408Y1731224D2*
X2755244D1*
X415408Y1722356D2*
X2755226D1*
X415408Y1713487D2*
X2755209D1*
X415408Y1704618D2*
X2755190D1*
X415408Y1695749D2*
X2755173D1*
X415408Y1686881D2*
X545954D1*
X644030D2*
X942904D1*
X1035108D2*
X1342894D1*
X1435098D2*
X1742902D1*
X1835106D2*
X2142892D1*
X2235096D2*
X2536888D1*
X2629110D2*
X2755156D1*
X415408Y1678012D2*
X521978D1*
X668024D2*
X917802D1*
X1060210D2*
X1317793D1*
X1460199D2*
X1717801D1*
X1860207D2*
X2117790D1*
X2260198D2*
X2511804D1*
X2654211D2*
X2755138D1*
X415408Y1669143D2*
X505050D1*
X684951D2*
X900434D1*
X1077559D2*
X1300442D1*
X1477567D2*
X1700433D1*
X1877558D2*
X2100441D1*
X2277566D2*
X2494437D1*
X2671562D2*
X2755121D1*
X415408Y1660274D2*
X491638D1*
X698364D2*
X886759D1*
X1091235D2*
X1286766D1*
X1491243D2*
X1686757D1*
X1891234D2*
X2086765D1*
X2291240D2*
X2480761D1*
X2685238D2*
X2755102D1*
X415408Y1651406D2*
X480476D1*
X709526D2*
X875421D1*
X1102573D2*
X1275429D1*
X1502580D2*
X1675420D1*
X1902571D2*
X2075427D1*
X2302579D2*
X2469423D1*
X2696575D2*
X2755085D1*
X415408Y1642537D2*
X470949D1*
X719054D2*
X865770D1*
X1112240D2*
X1265761D1*
X1512231D2*
X1665769D1*
X1912239D2*
X2065759D1*
X2312230D2*
X2459773D1*
X2706243D2*
X2755068D1*
X415408Y1633668D2*
X462705D1*
X727298D2*
X857421D1*
X1120591D2*
X1257412D1*
X1520580D2*
X1657420D1*
X1920588D2*
X2057409D1*
X2320579D2*
X2451423D1*
X2714592D2*
X2755050D1*
X415408Y1624799D2*
X455514D1*
X734487D2*
X850144D1*
X1127867D2*
X1250134D1*
X1527858D2*
X1650142D1*
X1927866D2*
X2050133D1*
X2327856D2*
X2444129D1*
X2721870D2*
X2755033D1*
X415408Y1615930D2*
X449222D1*
X740780D2*
X843762D1*
X1134231D2*
X1243770D1*
X1534239D2*
X1643761D1*
X1934230D2*
X2043769D1*
X2334238D2*
X2437765D1*
X2728234D2*
X2755014D1*
X415408Y1607062D2*
X443720D1*
X746282D2*
X838190D1*
X1139803D2*
X1238198D1*
X1539811D2*
X1638189D1*
X1939802D2*
X2038197D1*
X2339810D2*
X2432193D1*
X2733806D2*
X2754997D1*
X415408Y1598193D2*
X438904D1*
X751098D2*
X833322D1*
X1144672D2*
X1233329D1*
X1544680D2*
X1633320D1*
X1944671D2*
X2033328D1*
X2344678D2*
X2427324D1*
X2738675D2*
X2754980D1*
X415408Y1589324D2*
X434738D1*
X755264D2*
X829102D1*
X1148908D2*
X1229093D1*
X1548899D2*
X1629101D1*
X1948907D2*
X2029091D1*
X2348898D2*
X2423105D1*
X2742911D2*
X2754962D1*
X415408Y1580455D2*
X431152D1*
X758850D2*
X825465D1*
X1152530D2*
X1225472D1*
X1552538D2*
X1625462D1*
X1952528D2*
X2025470D1*
X2352535D2*
X2419466D1*
X2746531D2*
X2754945D1*
X415408Y1571587D2*
X428129D1*
X761874D2*
X822388D1*
X1155623D2*
X1222378D1*
X1555614D2*
X1622386D1*
X1955622D2*
X2022377D1*
X2355612D2*
X2416390D1*
X2749608D2*
X2754927D1*
X415408Y1562718D2*
X425614D1*
X764387D2*
X819822D1*
X1158172D2*
X1219829D1*
X1558180D2*
X1619820D1*
X1958171D2*
X2019828D1*
X2358178D2*
X2413824D1*
X2752175D2*
X2754916D1*
X415408Y1553849D2*
X423610D1*
X766391D2*
X817765D1*
X1160230D2*
X1217773D1*
X1560238D2*
X1617762D1*
X1960227D2*
X2017770D1*
X2360235D2*
X2411766D1*
X415408Y1544980D2*
X422055D1*
X767938D2*
X816201D1*
X1161811D2*
X1216190D1*
X1561802D2*
X1616198D1*
X1961810D2*
X2016189D1*
X2361799D2*
X2410185D1*
X415408Y1536112D2*
X421001D1*
X768992D2*
X815076D1*
X1162919D2*
X1215084D1*
X1562908D2*
X1615091D1*
X1962916D2*
X2015081D1*
X2362924D2*
X2409077D1*
X415408Y1527243D2*
X420406D1*
X769608D2*
X814442D1*
X1163570D2*
X1214433D1*
X1563559D2*
X1614441D1*
X1963567D2*
X2014430D1*
X2363558D2*
X2408427D1*
X415408Y1518374D2*
X420230D1*
X769748D2*
X814249D1*
X1163762D2*
X1214240D1*
X1563752D2*
X1614248D1*
X1963760D2*
X2014238D1*
X2363751D2*
X2408234D1*
X415408Y1509505D2*
X420546D1*
X769450D2*
X814496D1*
X1163499D2*
X1214504D1*
X1563507D2*
X1614493D1*
X1963496D2*
X2014501D1*
X2363504D2*
X2408497D1*
X415408Y1500636D2*
X421318D1*
X768694D2*
X815217D1*
X1162795D2*
X1215206D1*
X1562786D2*
X1615214D1*
X1962794D2*
X2015205D1*
X2362783D2*
X2409218D1*
X415408Y1491768D2*
X422512D1*
X767482D2*
X816394D1*
X1161618D2*
X1216385D1*
X1561608D2*
X1616392D1*
X1961615D2*
X2016382D1*
X2361606D2*
X2410378D1*
X415408Y1482899D2*
X424209D1*
X765794D2*
X818029D1*
X1159966D2*
X1218037D1*
X1559974D2*
X1618026D1*
X1959963D2*
X2018034D1*
X2359971D2*
X2412030D1*
X415408Y1474030D2*
X426370D1*
X763614D2*
X820156D1*
X1157839D2*
X1220164D1*
X1557846D2*
X1620154D1*
X1957836D2*
X2020161D1*
X2357844D2*
X2414157D1*
X2751840D2*
X2754747D1*
X415408Y1465161D2*
X429060D1*
X760942D2*
X822793D1*
X1155219D2*
X1222782D1*
X1555210D2*
X1622790D1*
X1955218D2*
X2022781D1*
X2355207D2*
X2416794D1*
X2749222D2*
X2754717D1*
X415408Y1456293D2*
X432259D1*
X757743D2*
X825938D1*
X1152055D2*
X1225946D1*
X1552063D2*
X1625937D1*
X1952054D2*
X2025945D1*
X2352062D2*
X2419941D1*
X2746058D2*
X2754698D1*
X415408Y1447424D2*
X436021D1*
X753963D2*
X829665D1*
X1148346D2*
X1229656D1*
X1548336D2*
X1629664D1*
X1948344D2*
X2029654D1*
X2348335D2*
X2423650D1*
X2742348D2*
X2754681D1*
X415408Y1438555D2*
X440398D1*
X749604D2*
X833972D1*
X1144022D2*
X1233962D1*
X1544030D2*
X1633970D1*
X1944038D2*
X2033978D1*
X2344028D2*
X2427974D1*
X2738024D2*
X2754664D1*
X415408Y1429686D2*
X445425D1*
X744576D2*
X838929D1*
X1139066D2*
X1238937D1*
X1539073D2*
X1638927D1*
X1939063D2*
X2038934D1*
X2339071D2*
X2432930D1*
X2733067D2*
X2754646D1*
X415408Y1420818D2*
X451173D1*
X738828D2*
X844625D1*
X1133387D2*
X1244614D1*
X1533378D2*
X1644622D1*
X1933386D2*
X2044613D1*
X2333375D2*
X2438609D1*
X2727390D2*
X2754629D1*
X415408Y1411949D2*
X457748D1*
X732255D2*
X851110D1*
X1126902D2*
X1251101D1*
X1526891D2*
X1651109D1*
X1926899D2*
X2051098D1*
X2326890D2*
X2445113D1*
X2720886D2*
X2754610D1*
X415408Y1403080D2*
X465253D1*
X724731D2*
X858529D1*
X1119483D2*
X1258518D1*
X1519474D2*
X1658526D1*
X1919482D2*
X2058517D1*
X2319471D2*
X2452530D1*
X2713467D2*
X2754593D1*
X415408Y1394211D2*
X473885D1*
X716118D2*
X867037D1*
X1110958D2*
X1267045D1*
X1510966D2*
X1667034D1*
X1910955D2*
X2067042D1*
X2310963D2*
X2461038D1*
X2704959D2*
X2754576D1*
X415408Y1385343D2*
X483904D1*
X706098D2*
X876916D1*
X1101096D2*
X1276906D1*
X1501087D2*
X1676913D1*
X1901094D2*
X2076904D1*
X2301084D2*
X2470917D1*
X2695080D2*
X2754558D1*
X415408Y1376474D2*
X495717D1*
X694286D2*
X888534D1*
X1089459D2*
X1288525D1*
X1489467D2*
X1688533D1*
X1889475D2*
X2088541D1*
X2289466D2*
X2482537D1*
X2683462D2*
X2754541D1*
X415408Y1367605D2*
X510077D1*
X679924D2*
X902614D1*
X1075379D2*
X1302622D1*
X1475387D2*
X1702613D1*
X1875378D2*
X2102621D1*
X2275386D2*
X2496617D1*
X2669382D2*
X2754522D1*
X415408Y1358736D2*
X528675D1*
X661327D2*
X920702D1*
X1057310D2*
X1320693D1*
X1457299D2*
X1720701D1*
X1857307D2*
X2120690D1*
X2257298D2*
X2514705D1*
X2651294D2*
X2754505D1*
X415408Y1349867D2*
X557433D1*
X632570D2*
X947825D1*
X1030168D2*
X1347833D1*
X1430176D2*
X1747824D1*
X1830167D2*
X2147832D1*
X2230175D2*
X2541828D1*
X2624171D2*
X2754488D1*
X415408Y1340999D2*
X2754470D1*
X415408Y1332130D2*
X2754453D1*
X415408Y1323261D2*
X2754434D1*
X415408Y1314392D2*
X2754417D1*
X415408Y1305524D2*
X2754400D1*
X415408Y1296655D2*
X2754382D1*
X415408Y1287786D2*
X2754365D1*
X415408Y1278917D2*
X2754346D1*
X415408Y1270049D2*
X2754329D1*
X415408Y1261180D2*
X2754312D1*
X415408Y1252311D2*
X2754294D1*
X415408Y1243442D2*
X2754277D1*
X415408Y1234573D2*
X2754259D1*
X415408Y1225705D2*
X2754241D1*
X415408Y1216836D2*
X575257D1*
X614744D2*
X969253D1*
X1008740D2*
X1769252D1*
X1808739D2*
X2169259D1*
X2208747D2*
X2563009D1*
X2602496D2*
X2754224D1*
X415408Y1207967D2*
X536286D1*
X653715D2*
X930282D1*
X1047711D2*
X1347938D1*
X1436066D2*
X1730298D1*
X1847710D2*
X2130289D1*
X2247718D2*
X2524038D1*
X2641467D2*
X2754206D1*
X415408Y1199098D2*
X515545D1*
X674458D2*
X909541D1*
X1068454D2*
X1321062D1*
X1462942D2*
X1709538D1*
X1868470D2*
X2109546D1*
X2268459D2*
X2503297D1*
X2662210D2*
X2754189D1*
X415408Y1190230D2*
X500058D1*
X689944D2*
X894054D1*
X1083940D2*
X1302833D1*
X1481171D2*
X1694052D1*
X1883938D2*
X2094060D1*
X2283946D2*
X2487810D1*
X2677696D2*
X2754172D1*
X415408Y1181361D2*
X487525D1*
X702478D2*
X881521D1*
X1096474D2*
X1288542D1*
X1495462D2*
X1681518D1*
X1896471D2*
X2081526D1*
X2296479D2*
X2475277D1*
X2690230D2*
X2754154D1*
X415408Y1172492D2*
X476978D1*
X713024D2*
X870974D1*
X1107020D2*
X1276694D1*
X1507310D2*
X1670972D1*
X1907018D2*
X2070980D1*
X2307026D2*
X2464730D1*
X2700776D2*
X2754136D1*
X415408Y1163623D2*
X467942D1*
X722059D2*
X861938D1*
X1116073D2*
X1266588D1*
X1517416D2*
X1661937D1*
X1916071D2*
X2061927D1*
X2316062D2*
X2455677D1*
X2709811D2*
X2754118D1*
X415408Y1154755D2*
X460085D1*
X729916D2*
X854081D1*
X1123912D2*
X1257833D1*
X1526154D2*
X1654080D1*
X1923911D2*
X2054088D1*
X2323919D2*
X2447837D1*
X2717668D2*
X2754101D1*
X415408Y1145886D2*
X453230D1*
X736772D2*
X847226D1*
X1130786D2*
X1250186D1*
X1533818D2*
X1647224D1*
X1930783D2*
X2047214D1*
X2330774D2*
X2440965D1*
X2724524D2*
X2754084D1*
X415408Y1137017D2*
X447218D1*
X742783D2*
X841214D1*
X1136780D2*
X1243454D1*
X1540550D2*
X1641213D1*
X1936778D2*
X2041220D1*
X2336786D2*
X2434970D1*
X2730535D2*
X2754066D1*
X415408Y1128148D2*
X441962D1*
X748039D2*
X835958D1*
X1142035D2*
X1237530D1*
X1546474D2*
X1635957D1*
X1942034D2*
X2035965D1*
X2342042D2*
X2429714D1*
X2735791D2*
X2754049D1*
X415408Y1119280D2*
X437374D1*
X752610D2*
X831388D1*
X1146623D2*
X1232328D1*
X1551676D2*
X1631386D1*
X1946622D2*
X2031377D1*
X2346612D2*
X2425126D1*
X2740362D2*
X2754030D1*
X415408Y1110411D2*
X433420D1*
X756583D2*
X827416D1*
X1150579D2*
X1227757D1*
X1556230D2*
X1627430D1*
X1950576D2*
X2027421D1*
X2350584D2*
X2421172D1*
X2744335D2*
X2754013D1*
X415408Y1101542D2*
X430045D1*
X759958D2*
X824041D1*
X1153954D2*
X1223802D1*
X1560202D2*
X1624038D1*
X1953970D2*
X2024046D1*
X2353959D2*
X2417797D1*
X2747710D2*
X2753996D1*
X415408Y1092673D2*
X427197D1*
X762806D2*
X821193D1*
X1156802D2*
X1220374D1*
X1563630D2*
X1621190D1*
X1956799D2*
X2021198D1*
X2356807D2*
X2414949D1*
X2750558D2*
X2753978D1*
X415408Y1083804D2*
X424858D1*
X765143D2*
X818854D1*
X1159139D2*
X1217474D1*
X1566512D2*
X1618853D1*
X1959138D2*
X2018861D1*
X2359146D2*
X2412610D1*
X415408Y1074936D2*
X423013D1*
X766990D2*
X817009D1*
X1160986D2*
X1215084D1*
X1568920D2*
X1617007D1*
X1960983D2*
X2017014D1*
X2360991D2*
X2410765D1*
X415408Y1066067D2*
X421634D1*
X768360D2*
X815638D1*
X1162356D2*
X1213150D1*
X1570854D2*
X1615654D1*
X1962354D2*
X2015644D1*
X2362362D2*
X2409394D1*
X415408Y1057198D2*
X420756D1*
X769256D2*
X814741D1*
X1163252D2*
X1211673D1*
X1572331D2*
X1614740D1*
X1963251D2*
X2014748D1*
X2363259D2*
X2408497D1*
X415408Y1048329D2*
X420299D1*
X769714D2*
X814302D1*
X1163710D2*
X1210654D1*
X1573350D2*
X1614301D1*
X1963707D2*
X2014290D1*
X2363698D2*
X2408041D1*
X415408Y1039461D2*
X420299D1*
X769696D2*
X814302D1*
X1163692D2*
X1210073D1*
X1573930D2*
X1614301D1*
X1963707D2*
X2014308D1*
X2363698D2*
X2408058D1*
X415408Y1030592D2*
X420756D1*
X769239D2*
X814759D1*
X1163235D2*
X1209916D1*
X1574071D2*
X1614757D1*
X1963251D2*
X2014765D1*
X2363240D2*
X2408514D1*
X415408Y1021723D2*
X421669D1*
X768324D2*
X815673D1*
X1162322D2*
X1210214D1*
X1573790D2*
X1615672D1*
X1962319D2*
X2015678D1*
X2362327D2*
X2409429D1*
X415408Y1012854D2*
X423049D1*
X766954D2*
X817045D1*
X1160950D2*
X1210934D1*
X1573070D2*
X1617060D1*
X1960948D2*
X2017050D1*
X2360955D2*
X2410801D1*
X415408Y1003986D2*
X424912D1*
X765091D2*
X818908D1*
X1159087D2*
X1212094D1*
X1571908D2*
X1618906D1*
X1959084D2*
X2018913D1*
X2359092D2*
X2412664D1*
X415408Y995117D2*
X427249D1*
X762752D2*
X821245D1*
X1156748D2*
X1213713D1*
X1570291D2*
X1621261D1*
X1956747D2*
X2021252D1*
X2356755D2*
X2415001D1*
X2750504D2*
X2753785D1*
X415408Y986248D2*
X430114D1*
X759887D2*
X824110D1*
X1153883D2*
X1215786D1*
X1568218D2*
X1624109D1*
X1953882D2*
X2024117D1*
X2353890D2*
X2417866D1*
X2747639D2*
X2753766D1*
X415408Y977379D2*
X433507D1*
X756495D2*
X827504D1*
X1150491D2*
X1218353D1*
X1565651D2*
X1627518D1*
X1950490D2*
X2027509D1*
X2350496D2*
X2421259D1*
X2744247D2*
X2753749D1*
X415408Y968510D2*
X437480D1*
X752522D2*
X831476D1*
X1146518D2*
X1221412D1*
X1562592D2*
X1631492D1*
X1946516D2*
X2031482D1*
X2346524D2*
X2425232D1*
X2740274D2*
X2753732D1*
X415408Y959642D2*
X442085D1*
X747916D2*
X836081D1*
X1141930D2*
X1224997D1*
X1559007D2*
X1636080D1*
X1941928D2*
X2036070D1*
X2341919D2*
X2429820D1*
X2735668D2*
X2753714D1*
X415408Y950773D2*
X447341D1*
X742643D2*
X841354D1*
X1136656D2*
X1229146D1*
X1554858D2*
X1641353D1*
X1936655D2*
X2041343D1*
X2336646D2*
X2435093D1*
X2730395D2*
X2753697D1*
X415408Y941904D2*
X453370D1*
X736631D2*
X847366D1*
X1130627D2*
X1233909D1*
X1550094D2*
X1647382D1*
X1930626D2*
X2047373D1*
X2330634D2*
X2441122D1*
X2724383D2*
X2753678D1*
X415408Y933035D2*
X460261D1*
X729740D2*
X854257D1*
X1123738D2*
X1239341D1*
X1544663D2*
X1654256D1*
X1923752D2*
X2054262D1*
X2323743D2*
X2448013D1*
X2717492D2*
X2753661D1*
X415408Y924167D2*
X468136D1*
X721866D2*
X862133D1*
X1115862D2*
X1245493D1*
X1538492D2*
X1662130D1*
X1915860D2*
X2062138D1*
X2315867D2*
X2455888D1*
X2709618D2*
X2753644D1*
X415408Y915298D2*
X477206D1*
X712795D2*
X871202D1*
X1106791D2*
X1252507D1*
X1531496D2*
X1671218D1*
X1906790D2*
X2071209D1*
X2306798D2*
X2464958D1*
X2700547D2*
X2753626D1*
X415408Y906429D2*
X487789D1*
X702214D2*
X881785D1*
X1096210D2*
X1260488D1*
X1523516D2*
X1681782D1*
X1896207D2*
X2081790D1*
X2296215D2*
X2475541D1*
X2689966D2*
X2753609D1*
X415408Y897560D2*
X500392D1*
X689610D2*
X894388D1*
X1083623D2*
X1269646D1*
X1514358D2*
X1694386D1*
X1883622D2*
X2094377D1*
X2283612D2*
X2488126D1*
X2677362D2*
X2753591D1*
X415408Y888692D2*
X515949D1*
X674054D2*
X909962D1*
X1068050D2*
X1280245D1*
X1503759D2*
X1709961D1*
X1868047D2*
X2109950D1*
X2268038D2*
X2503701D1*
X2661787D2*
X2753573D1*
X415408Y879823D2*
X536885D1*
X653118D2*
X930881D1*
X1047114D2*
X1292761D1*
X1491226D2*
X1730896D1*
X1847112D2*
X2130886D1*
X2247119D2*
X2524636D1*
X2640870D2*
X2753556D1*
X415408Y870954D2*
X577297D1*
X612706D2*
X971293D1*
X1006702D2*
X1308089D1*
X1475915D2*
X1771290D1*
X1806699D2*
X2171298D1*
X2206707D2*
X2565049D1*
X2600458D2*
X2753538D1*
X415408Y862085D2*
X1328198D1*
X1455806D2*
X2753521D1*
X415408Y853217D2*
X1361702D1*
X1422283D2*
X2753504D1*
X415408Y844348D2*
X2753486D1*
X415408Y835479D2*
X2753469D1*
X415408Y826610D2*
X2753450D1*
X415408Y817741D2*
X2753433D1*
X415408Y808873D2*
X2753416D1*
X415408Y800004D2*
X2753398D1*
X415408Y791135D2*
X2753381D1*
X415408Y782266D2*
X2753362D1*
X415408Y773398D2*
X2753345D1*
X415408Y764529D2*
X2753328D1*
X415408Y755660D2*
X2753310D1*
X415408Y746791D2*
X2753293D1*
X415408Y737923D2*
X2753274D1*
X415408Y729054D2*
X2753257D1*
X415408Y720185D2*
X2753240D1*
X415408Y711316D2*
X2753222D1*
X415408Y702448D2*
X2753205D1*
X415408Y693579D2*
X2753186D1*
X415408Y684710D2*
X2753169D1*
X415408Y675841D2*
X2753152D1*
X415408Y666972D2*
X2753134D1*
X415408Y658104D2*
X2753117D1*
X415408Y649235D2*
X2753098D1*
X415408Y640366D2*
X2753081D1*
X415408Y631497D2*
X2753064D1*
X415408Y622629D2*
X2753046D1*
X415408Y613760D2*
X614052D1*
X763948D2*
X2414052D1*
X2563948D2*
X2753029D1*
X415408Y604891D2*
X583554D1*
X794446D2*
X2383554D1*
X2594446D2*
X2753010D1*
X415408Y596022D2*
X568261D1*
X809739D2*
X2368261D1*
X2609739D2*
X2752993D1*
X415408Y587154D2*
X557293D1*
X820707D2*
X2357293D1*
X2620707D2*
X2752976D1*
X415408Y578285D2*
X548837D1*
X829163D2*
X2348837D1*
X2629163D2*
X2752958D1*
X415408Y569416D2*
X542140D1*
X835860D2*
X2342140D1*
X2635860D2*
X2752941D1*
X415408Y560547D2*
X536778D1*
X841222D2*
X2336778D1*
X2641222D2*
X2752923D1*
X415408Y551678D2*
X532560D1*
X845440D2*
X2332560D1*
X2645440D2*
X2752906D1*
X415408Y542810D2*
X529325D1*
X848675D2*
X2329325D1*
X2648675D2*
X2752888D1*
X415408Y533941D2*
X526970D1*
X851030D2*
X2326970D1*
X2651030D2*
X2752870D1*
X415408Y525072D2*
X525458D1*
X852542D2*
X2325458D1*
X2652542D2*
X2752853D1*
X415408Y516203D2*
X524720D1*
X853280D2*
X2324720D1*
X2653280D2*
X2752836D1*
X415408Y507335D2*
X524756D1*
X853244D2*
X2324756D1*
X2653244D2*
X2752818D1*
X415408Y498466D2*
X525546D1*
X852454D2*
X2325546D1*
X2652454D2*
X2752801D1*
X415408Y489597D2*
X527146D1*
X850854D2*
X2327146D1*
X2650854D2*
X2752782D1*
X415408Y480728D2*
X529572D1*
X848428D2*
X2329572D1*
X2648428D2*
X2752765D1*
X415408Y471860D2*
X532894D1*
X845106D2*
X2332894D1*
X2645106D2*
X2752748D1*
X415408Y462991D2*
X537201D1*
X840799D2*
X2337201D1*
X2640799D2*
X2752730D1*
X415408Y454122D2*
X542650D1*
X835350D2*
X2342650D1*
X2635350D2*
X2752713D1*
X415408Y445253D2*
X549488D1*
X828512D2*
X2349488D1*
X2628512D2*
X2752694D1*
X415408Y436385D2*
X558118D1*
X819882D2*
X2358118D1*
X2619882D2*
X2752677D1*
X415408Y427516D2*
X569350D1*
X808650D2*
X2369350D1*
X2608650D2*
X2752660D1*
X415408Y418647D2*
X585224D1*
X792776D2*
X2385224D1*
X2592776D2*
X2752642D1*
X1812762Y4939503D2*
X1812352Y4935022D1*
X1811669Y4930575D1*
X1810718Y4926177D1*
X1809500Y4921846D1*
X1808021Y4917597D1*
X1806287Y4913445D1*
X1804303Y4909407D1*
X1802076Y4905497D1*
X1799617Y4901730D1*
X1796932Y4898119D1*
X1794033Y4894678D1*
X1790929Y4891421D1*
X1787633Y4888358D1*
X1784156Y4885503D1*
X1780513Y4882862D1*
X1776715Y4880450D1*
X1772778Y4878272D1*
X1768715Y4876339D1*
X1764543Y4874655D1*
X1760276Y4873230D1*
X1755929Y4872066D1*
X1751520Y4871169D1*
X1747064Y4870542D1*
X1742580Y4870188D1*
X1738081Y4870106D1*
X1733585Y4870299D1*
X1729110Y4870765D1*
X1724672Y4871503D1*
X1720287Y4872509D1*
X1715971Y4873781D1*
X1711740Y4875312D1*
X1707610Y4877098D1*
X1703597Y4879133D1*
X1699715Y4881407D1*
X1695979Y4883913D1*
X1692403Y4886643D1*
X1688999Y4889585D1*
X1685780Y4892730D1*
X1682759Y4896063D1*
X1679945Y4899575D1*
X1677350Y4903251D1*
X1674986Y4907077D1*
X1672857Y4911042D1*
X1670974Y4915129D1*
X1669343Y4919322D1*
X1667970Y4923606D1*
X1666861Y4927967D1*
X1666018Y4932387D1*
X1665448Y4936849D1*
X1665148Y4941339D1*
X1665123Y4945839D1*
X1665373Y4950331D1*
X1665894Y4954799D1*
X1666686Y4959228D1*
X1667748Y4963601D1*
X1669072Y4967900D1*
X1670656Y4972112D1*
X1672493Y4976219D1*
X1674577Y4980206D1*
X1676900Y4984060D1*
X1679454Y4987765D1*
X1682227Y4991307D1*
X1685211Y4994675D1*
X1688395Y4997854D1*
X1691766Y5000833D1*
X1695312Y5003602D1*
X1699021Y5006151D1*
X1702877Y5008469D1*
X1706867Y5010547D1*
X1710976Y5012379D1*
X1715190Y5013958D1*
X1719491Y5015278D1*
X1723865Y5016333D1*
X1728295Y5017119D1*
X1732765Y5017636D1*
X1737257Y5017879D1*
X1741757Y5017848D1*
X1746245Y5017543D1*
X1750707Y5016966D1*
X1755126Y5016118D1*
X1759486Y5015003D1*
X1763769Y5013625D1*
X1767959Y5011988D1*
X1772043Y5010100D1*
X1776005Y5007967D1*
X1779829Y5005596D1*
X1783501Y5002997D1*
X1787009Y5000180D1*
X1790340Y4997154D1*
X1793479Y4993932D1*
X1796417Y4990524D1*
X1799142Y4986942D1*
X1801643Y4983203D1*
X1803913Y4979319D1*
X1805942Y4975303D1*
X1807723Y4971171D1*
X1809249Y4966938D1*
X1810514Y4962621D1*
X1811516Y4958234D1*
X1812248Y4953794D1*
X1812707Y4949319D1*
X1812899Y4944000D1*
X1812762Y4939503D1*
X1512762D2*
X1512352Y4935022D1*
X1511669Y4930575D1*
X1510718Y4926177D1*
X1509500Y4921846D1*
X1508021Y4917597D1*
X1506287Y4913445D1*
X1504303Y4909407D1*
X1502076Y4905497D1*
X1499617Y4901730D1*
X1496932Y4898119D1*
X1494033Y4894678D1*
X1490929Y4891421D1*
X1487633Y4888358D1*
X1484156Y4885503D1*
X1480513Y4882862D1*
X1476715Y4880450D1*
X1472778Y4878272D1*
X1468715Y4876339D1*
X1464543Y4874655D1*
X1460276Y4873230D1*
X1455929Y4872066D1*
X1451520Y4871169D1*
X1447064Y4870542D1*
X1442580Y4870188D1*
X1438081Y4870106D1*
X1433585Y4870299D1*
X1429110Y4870765D1*
X1424672Y4871503D1*
X1420287Y4872509D1*
X1415971Y4873781D1*
X1411740Y4875312D1*
X1407610Y4877098D1*
X1403597Y4879133D1*
X1399715Y4881407D1*
X1395979Y4883913D1*
X1392403Y4886643D1*
X1388999Y4889585D1*
X1385780Y4892730D1*
X1382759Y4896063D1*
X1379945Y4899575D1*
X1377350Y4903251D1*
X1374986Y4907077D1*
X1372857Y4911042D1*
X1370974Y4915129D1*
X1369343Y4919322D1*
X1367970Y4923606D1*
X1366861Y4927967D1*
X1366018Y4932387D1*
X1365448Y4936849D1*
X1365148Y4941339D1*
X1365123Y4945839D1*
X1365373Y4950331D1*
X1365894Y4954799D1*
X1366686Y4959228D1*
X1367748Y4963601D1*
X1369072Y4967900D1*
X1370656Y4972112D1*
X1372493Y4976219D1*
X1374577Y4980206D1*
X1376900Y4984060D1*
X1379454Y4987765D1*
X1382227Y4991307D1*
X1385211Y4994675D1*
X1388395Y4997854D1*
X1391766Y5000833D1*
X1395312Y5003602D1*
X1399021Y5006151D1*
X1402877Y5008469D1*
X1406867Y5010547D1*
X1410976Y5012379D1*
X1415190Y5013958D1*
X1419491Y5015278D1*
X1423865Y5016333D1*
X1428295Y5017119D1*
X1432765Y5017636D1*
X1437257Y5017879D1*
X1441757Y5017848D1*
X1446245Y5017543D1*
X1450707Y5016966D1*
X1455126Y5016118D1*
X1459486Y5015003D1*
X1463769Y5013625D1*
X1467959Y5011988D1*
X1472043Y5010100D1*
X1476005Y5007967D1*
X1479829Y5005596D1*
X1483501Y5002997D1*
X1487009Y5000180D1*
X1490340Y4997154D1*
X1493479Y4993932D1*
X1496417Y4990524D1*
X1499142Y4986942D1*
X1501643Y4983203D1*
X1503913Y4979319D1*
X1505942Y4975303D1*
X1507723Y4971171D1*
X1509249Y4966938D1*
X1510514Y4962621D1*
X1511516Y4958234D1*
X1512248Y4953794D1*
X1512707Y4949319D1*
X1512899Y4944000D1*
X1512762Y4939503D1*
X1212762D2*
X1212352Y4935022D1*
X1211669Y4930575D1*
X1210718Y4926177D1*
X1209500Y4921846D1*
X1208021Y4917597D1*
X1206287Y4913445D1*
X1204303Y4909407D1*
X1202076Y4905497D1*
X1199617Y4901730D1*
X1196932Y4898119D1*
X1194033Y4894678D1*
X1190929Y4891421D1*
X1187633Y4888358D1*
X1184156Y4885503D1*
X1180513Y4882862D1*
X1176715Y4880450D1*
X1172778Y4878272D1*
X1168715Y4876339D1*
X1164543Y4874655D1*
X1160276Y4873230D1*
X1155929Y4872066D1*
X1151520Y4871169D1*
X1147064Y4870542D1*
X1142580Y4870188D1*
X1138081Y4870106D1*
X1133585Y4870299D1*
X1129110Y4870765D1*
X1124672Y4871503D1*
X1120287Y4872509D1*
X1115971Y4873781D1*
X1111740Y4875312D1*
X1107610Y4877098D1*
X1103597Y4879133D1*
X1099715Y4881407D1*
X1095979Y4883913D1*
X1092403Y4886643D1*
X1088999Y4889585D1*
X1085780Y4892730D1*
X1082759Y4896063D1*
X1079945Y4899575D1*
X1077350Y4903251D1*
X1074986Y4907077D1*
X1072857Y4911042D1*
X1070974Y4915129D1*
X1069343Y4919322D1*
X1067970Y4923606D1*
X1066861Y4927967D1*
X1066018Y4932387D1*
X1065448Y4936849D1*
X1065148Y4941339D1*
X1065123Y4945839D1*
X1065373Y4950331D1*
X1065894Y4954799D1*
X1066686Y4959228D1*
X1067748Y4963601D1*
X1069072Y4967900D1*
X1070656Y4972112D1*
X1072493Y4976219D1*
X1074577Y4980206D1*
X1076900Y4984060D1*
X1079454Y4987765D1*
X1082227Y4991307D1*
X1085211Y4994675D1*
X1088395Y4997854D1*
X1091766Y5000833D1*
X1095312Y5003602D1*
X1099021Y5006151D1*
X1102877Y5008469D1*
X1106867Y5010547D1*
X1110976Y5012379D1*
X1115190Y5013958D1*
X1119491Y5015278D1*
X1123865Y5016333D1*
X1128295Y5017119D1*
X1132765Y5017636D1*
X1137257Y5017879D1*
X1141757Y5017848D1*
X1146245Y5017543D1*
X1150707Y5016966D1*
X1155126Y5016118D1*
X1159486Y5015003D1*
X1163769Y5013625D1*
X1167959Y5011988D1*
X1172043Y5010100D1*
X1176005Y5007967D1*
X1179829Y5005596D1*
X1183501Y5002997D1*
X1187009Y5000180D1*
X1190340Y4997154D1*
X1193479Y4993932D1*
X1196417Y4990524D1*
X1199142Y4986942D1*
X1201643Y4983203D1*
X1203913Y4979319D1*
X1205942Y4975303D1*
X1207723Y4971171D1*
X1209249Y4966938D1*
X1210514Y4962621D1*
X1211516Y4958234D1*
X1212248Y4953794D1*
X1212707Y4949319D1*
X1212899Y4944000D1*
X1212762Y4939503D1*
X918552Y4939501D2*
X917929Y4930525D1*
X916684Y4921613D1*
X914823Y4912810D1*
X912356Y4904156D1*
X909295Y4895694D1*
X905654Y4887466D1*
X901451Y4879509D1*
X896706Y4871864D1*
X891442Y4864566D1*
X885685Y4857651D1*
X879462Y4851151D1*
X872803Y4845100D1*
X865740Y4839524D1*
X858307Y4834453D1*
X850541Y4829908D1*
X842478Y4825913D1*
X834157Y4822488D1*
X825619Y4819648D1*
X816904Y4817408D1*
X808055Y4815777D1*
X799114Y4814764D1*
X790125Y4814374D1*
X781129Y4814608D1*
X772172Y4815466D1*
X763295Y4816942D1*
X754543Y4819031D1*
X745957Y4821723D1*
X737579Y4825004D1*
X729448Y4828858D1*
X721604Y4833266D1*
X714084Y4838209D1*
X706925Y4843660D1*
X700163Y4849596D1*
X693827Y4855987D1*
X687951Y4862801D1*
X682562Y4870007D1*
X677685Y4877568D1*
X673344Y4885450D1*
X669562Y4893615D1*
X666354Y4902022D1*
X663738Y4910631D1*
X661724Y4919402D1*
X660324Y4928290D1*
X659545Y4937255D1*
X659388Y4946252D1*
X659857Y4955238D1*
X660948Y4964169D1*
X662655Y4973004D1*
X664971Y4981698D1*
X667886Y4990213D1*
X671383Y4998503D1*
X675448Y5006530D1*
X680059Y5014257D1*
X685196Y5021646D1*
X690832Y5028660D1*
X696941Y5035266D1*
X703495Y5041432D1*
X710459Y5047129D1*
X717803Y5052329D1*
X725490Y5057008D1*
X733482Y5061140D1*
X741741Y5064710D1*
X750230Y5067698D1*
X758904Y5070089D1*
X767724Y5071873D1*
X776646Y5073041D1*
X785627Y5073588D1*
X794626Y5073509D1*
X803596Y5072807D1*
X812496Y5071484D1*
X821283Y5069547D1*
X829916Y5067005D1*
X838350Y5063870D1*
X846547Y5060157D1*
X854466Y5055886D1*
X862070Y5051075D1*
X869322Y5045748D1*
X876188Y5039930D1*
X882633Y5033651D1*
X888626Y5026940D1*
X894139Y5019828D1*
X899147Y5012352D1*
X903623Y5004546D1*
X907547Y4996449D1*
X910900Y4988098D1*
X913665Y4979537D1*
X915831Y4970802D1*
X917385Y4961940D1*
X918319Y4952990D1*
X918631Y4944000D1*
X918552Y4939501D1*
X1448325Y4703171D2*
X1447835Y4699020D1*
X1447020Y4694920D1*
X1445885Y4690898D1*
X1444438Y4686976D1*
X1442688Y4683181D1*
X1440646Y4679534D1*
X1438324Y4676059D1*
X1435736Y4672777D1*
X1434018Y4670919D1*
X1446867Y4670864D1*
X1449890Y4670386D1*
X1452799Y4669440D1*
X1455526Y4668050D1*
X1458001Y4666252D1*
X1460165Y4664088D1*
X1461963Y4661613D1*
X1463353Y4658886D1*
X1464299Y4655976D1*
X1464777Y4652954D1*
X1464837Y4633424D1*
X1464777Y3150051D1*
X1464299Y3147029D1*
X1463353Y3144119D1*
X1461963Y3141392D1*
X1460165Y3138917D1*
X1458001Y3136753D1*
X1455526Y3134955D1*
X1452799Y3133566D1*
X1449890Y3132619D1*
X1446867Y3132142D1*
X1427337Y3132081D1*
X1343818Y3132142D1*
X1340795Y3132619D1*
X1337886Y3133566D1*
X1335159Y3134955D1*
X1332684Y3136753D1*
X1330520Y3138917D1*
X1328722Y3141392D1*
X1327332Y3144119D1*
X1326386Y3147029D1*
X1325908Y3150051D1*
X1325848Y3169581D1*
X1325908Y4652954D1*
X1326386Y4655976D1*
X1327332Y4658886D1*
X1328722Y4661613D1*
X1330520Y4664088D1*
X1332684Y4666252D1*
X1335159Y4668050D1*
X1337886Y4669440D1*
X1340795Y4670386D1*
X1343818Y4670864D1*
X1356440Y4670924D1*
X1352196Y4676059D1*
X1349874Y4679534D1*
X1347832Y4683181D1*
X1346081Y4686976D1*
X1344635Y4690898D1*
X1343500Y4694920D1*
X1342685Y4699020D1*
X1342194Y4703171D1*
X1342030Y4707346D1*
X1342194Y4711522D1*
X1342685Y4715673D1*
X1343500Y4719773D1*
X1344635Y4723795D1*
X1346081Y4727717D1*
X1347832Y4731512D1*
X1349874Y4735159D1*
X1352196Y4738634D1*
X1354783Y4741916D1*
X1357621Y4744986D1*
X1360690Y4747823D1*
X1363972Y4750411D1*
X1367448Y4752732D1*
X1371094Y4754774D1*
X1374890Y4756525D1*
X1378811Y4757971D1*
X1382833Y4759106D1*
X1386933Y4759921D1*
X1391084Y4760412D1*
X1395260Y4760576D1*
X1399436Y4760412D1*
X1403587Y4759921D1*
X1407686Y4759106D1*
X1411709Y4757971D1*
X1415630Y4756525D1*
X1419425Y4754774D1*
X1423072Y4752732D1*
X1426547Y4750411D1*
X1429829Y4747823D1*
X1432899Y4744986D1*
X1435736Y4741916D1*
X1438324Y4738634D1*
X1440646Y4735159D1*
X1442688Y4731512D1*
X1444438Y4727717D1*
X1445885Y4723795D1*
X1447020Y4719773D1*
X1447835Y4715673D1*
X1448325Y4711522D1*
X1448490Y4707346D1*
X1448325Y4703171D1*
X2610806D2*
X2610315Y4699020D1*
X2609500Y4694920D1*
X2608365Y4690898D1*
X2606919Y4686976D1*
X2605168Y4683181D1*
X2603126Y4679534D1*
X2600804Y4676059D1*
X2598217Y4672777D1*
X2596499Y4670919D1*
X2609367Y4670864D1*
X2612390Y4670385D1*
X2615299Y4669440D1*
X2618026Y4668050D1*
X2620501Y4666252D1*
X2622665Y4664088D1*
X2624463Y4661613D1*
X2625853Y4658886D1*
X2626798Y4655976D1*
X2627277Y4652954D1*
X2627337Y4633424D1*
X2627277Y3150051D1*
X2626798Y3147029D1*
X2625853Y3144119D1*
X2624463Y3141392D1*
X2622665Y3138917D1*
X2620501Y3136753D1*
X2618026Y3134955D1*
X2615299Y3133566D1*
X2612390Y3132621D1*
X2609367Y3132142D1*
X2589837Y3132081D1*
X2506318Y3132142D1*
X2503295Y3132621D1*
X2500386Y3133566D1*
X2497659Y3134955D1*
X2495184Y3136753D1*
X2493020Y3138917D1*
X2491222Y3141392D1*
X2489832Y3144119D1*
X2488887Y3147029D1*
X2488408Y3150051D1*
X2488348Y3169581D1*
X2488408Y4652954D1*
X2488887Y4655976D1*
X2489832Y4658886D1*
X2491222Y4661613D1*
X2493020Y4664088D1*
X2495184Y4666252D1*
X2497659Y4668050D1*
X2500386Y4669440D1*
X2503295Y4670385D1*
X2506318Y4670864D1*
X2518940Y4670924D1*
X2514676Y4676059D1*
X2512354Y4679534D1*
X2510312Y4683181D1*
X2508562Y4686976D1*
X2507115Y4690898D1*
X2505980Y4694920D1*
X2505165Y4699020D1*
X2504675Y4703171D1*
X2504510Y4707346D1*
X2504675Y4711522D1*
X2505165Y4715673D1*
X2505980Y4719773D1*
X2507115Y4723795D1*
X2508562Y4727717D1*
X2510312Y4731512D1*
X2512354Y4735159D1*
X2514676Y4738634D1*
X2517264Y4741916D1*
X2520101Y4744986D1*
X2523171Y4747823D1*
X2526453Y4750411D1*
X2529928Y4752732D1*
X2533575Y4754774D1*
X2537370Y4756525D1*
X2541291Y4757971D1*
X2545314Y4759106D1*
X2549413Y4759921D1*
X2553564Y4760412D1*
X2557740Y4760576D1*
X2561916Y4760412D1*
X2566067Y4759921D1*
X2570167Y4759106D1*
X2574189Y4757971D1*
X2578110Y4756525D1*
X2581906Y4754774D1*
X2585552Y4752732D1*
X2589028Y4750411D1*
X2592310Y4747823D1*
X2595379Y4744986D1*
X2598217Y4741916D1*
X2600804Y4738634D1*
X2603126Y4735159D1*
X2605168Y4731512D1*
X2606919Y4727717D1*
X2608365Y4723795D1*
X2609500Y4719773D1*
X2610315Y4715673D1*
X2610806Y4711522D1*
X2610970Y4707346D1*
X2610806Y4703171D1*
X2112762Y4939503D2*
X2112352Y4935022D1*
X2111669Y4930575D1*
X2110718Y4926177D1*
X2109500Y4921846D1*
X2108021Y4917597D1*
X2106287Y4913445D1*
X2104303Y4909407D1*
X2102076Y4905497D1*
X2099617Y4901730D1*
X2096932Y4898119D1*
X2094033Y4894678D1*
X2090929Y4891421D1*
X2087633Y4888358D1*
X2084156Y4885503D1*
X2080513Y4882862D1*
X2076715Y4880450D1*
X2072778Y4878272D1*
X2068715Y4876339D1*
X2064543Y4874655D1*
X2060276Y4873230D1*
X2055929Y4872066D1*
X2051520Y4871169D1*
X2047064Y4870542D1*
X2042580Y4870188D1*
X2038081Y4870106D1*
X2033585Y4870299D1*
X2029110Y4870765D1*
X2024672Y4871503D1*
X2020287Y4872509D1*
X2015971Y4873781D1*
X2011740Y4875312D1*
X2007610Y4877098D1*
X2003597Y4879133D1*
X1999715Y4881407D1*
X1995979Y4883913D1*
X1992403Y4886643D1*
X1988999Y4889585D1*
X1985780Y4892730D1*
X1982759Y4896063D1*
X1979945Y4899575D1*
X1977350Y4903251D1*
X1974986Y4907077D1*
X1972857Y4911042D1*
X1970974Y4915129D1*
X1969343Y4919322D1*
X1967970Y4923606D1*
X1966861Y4927967D1*
X1966018Y4932387D1*
X1965448Y4936849D1*
X1965148Y4941339D1*
X1965123Y4945839D1*
X1965373Y4950331D1*
X1965894Y4954799D1*
X1966686Y4959228D1*
X1967748Y4963601D1*
X1969072Y4967900D1*
X1970656Y4972112D1*
X1972493Y4976219D1*
X1974577Y4980206D1*
X1976900Y4984060D1*
X1979454Y4987765D1*
X1982227Y4991307D1*
X1985211Y4994675D1*
X1988395Y4997854D1*
X1991766Y5000833D1*
X1995312Y5003602D1*
X1999021Y5006151D1*
X2002877Y5008469D1*
X2006867Y5010547D1*
X2010976Y5012379D1*
X2015190Y5013958D1*
X2019491Y5015278D1*
X2023865Y5016333D1*
X2028295Y5017119D1*
X2032765Y5017636D1*
X2037257Y5017879D1*
X2041757Y5017848D1*
X2046245Y5017543D1*
X2050707Y5016966D1*
X2055126Y5016118D1*
X2059486Y5015003D1*
X2063769Y5013625D1*
X2067959Y5011988D1*
X2072043Y5010100D1*
X2076005Y5007967D1*
X2079829Y5005596D1*
X2083501Y5002997D1*
X2087009Y5000180D1*
X2090340Y4997154D1*
X2093479Y4993932D1*
X2096417Y4990524D1*
X2099142Y4986942D1*
X2101643Y4983203D1*
X2103913Y4979319D1*
X2105942Y4975303D1*
X2107723Y4971171D1*
X2109249Y4966938D1*
X2110514Y4962621D1*
X2111516Y4958234D1*
X2112248Y4953794D1*
X2112707Y4949319D1*
X2112899Y4944000D1*
X2112762Y4939503D1*
X2518552Y4939501D2*
X2517929Y4930525D1*
X2516684Y4921613D1*
X2514823Y4912810D1*
X2512356Y4904156D1*
X2509295Y4895694D1*
X2505654Y4887466D1*
X2501451Y4879509D1*
X2496706Y4871864D1*
X2491442Y4864566D1*
X2485685Y4857651D1*
X2479462Y4851151D1*
X2472803Y4845100D1*
X2465740Y4839524D1*
X2458307Y4834453D1*
X2450541Y4829908D1*
X2442478Y4825913D1*
X2434157Y4822488D1*
X2425619Y4819648D1*
X2416904Y4817408D1*
X2408055Y4815777D1*
X2399114Y4814764D1*
X2390125Y4814374D1*
X2381129Y4814608D1*
X2372172Y4815466D1*
X2363295Y4816942D1*
X2354543Y4819031D1*
X2345957Y4821723D1*
X2337579Y4825004D1*
X2329448Y4828858D1*
X2321604Y4833266D1*
X2314084Y4838209D1*
X2306925Y4843660D1*
X2300163Y4849596D1*
X2293827Y4855987D1*
X2287951Y4862801D1*
X2282562Y4870007D1*
X2277685Y4877568D1*
X2273344Y4885450D1*
X2269562Y4893615D1*
X2266354Y4902022D1*
X2263738Y4910631D1*
X2261724Y4919402D1*
X2260324Y4928290D1*
X2259545Y4937255D1*
X2259388Y4946252D1*
X2259857Y4955238D1*
X2260948Y4964169D1*
X2262655Y4973004D1*
X2264971Y4981698D1*
X2267886Y4990213D1*
X2271383Y4998503D1*
X2275448Y5006530D1*
X2280059Y5014257D1*
X2285196Y5021646D1*
X2290832Y5028660D1*
X2296941Y5035266D1*
X2303495Y5041432D1*
X2310459Y5047129D1*
X2317803Y5052329D1*
X2325490Y5057008D1*
X2333482Y5061140D1*
X2341741Y5064710D1*
X2350230Y5067698D1*
X2358904Y5070089D1*
X2367724Y5071873D1*
X2376646Y5073041D1*
X2385627Y5073588D1*
X2394626Y5073509D1*
X2403596Y5072807D1*
X2412496Y5071484D1*
X2421283Y5069547D1*
X2429916Y5067005D1*
X2438350Y5063870D1*
X2446547Y5060157D1*
X2454466Y5055886D1*
X2462070Y5051075D1*
X2469322Y5045748D1*
X2476188Y5039930D1*
X2482633Y5033651D1*
X2488626Y5026940D1*
X2494139Y5019828D1*
X2499147Y5012352D1*
X2503623Y5004546D1*
X2507547Y4996449D1*
X2510900Y4988098D1*
X2513665Y4979537D1*
X2515831Y4970802D1*
X2517385Y4961940D1*
X2518319Y4952990D1*
X2518631Y4944000D1*
X2518552Y4939501D1*
X2362802Y1039500D2*
X2362336Y1030513D1*
X2361406Y1021563D1*
X2360014Y1012672D1*
X2358164Y1003865D1*
X2355861Y995167D1*
X2353110Y986597D1*
X2349920Y978182D1*
X2346299Y969945D1*
X2342257Y961904D1*
X2337803Y954085D1*
X2332951Y946505D1*
X2327715Y939188D1*
X2322105Y932151D1*
X2316140Y925413D1*
X2309833Y918993D1*
X2303203Y912909D1*
X2296268Y907176D1*
X2289045Y901808D1*
X2281552Y896823D1*
X2273814Y892231D1*
X2265846Y888046D1*
X2257675Y884278D1*
X2249318Y880938D1*
X2240801Y878035D1*
X2232143Y875577D1*
X2223371Y873571D1*
X2214507Y872021D1*
X2205573Y870932D1*
X2196596Y870306D1*
X2187598Y870146D1*
X2178605Y870451D1*
X2169639Y871222D1*
X2160724Y872454D1*
X2151886Y874147D1*
X2143147Y876295D1*
X2134531Y878892D1*
X2126062Y881932D1*
X2117760Y885406D1*
X2109650Y889304D1*
X2101751Y893617D1*
X2094087Y898333D1*
X2086677Y903440D1*
X2079541Y908923D1*
X2072698Y914766D1*
X2066167Y920958D1*
X2059965Y927479D1*
X2054109Y934311D1*
X2048614Y941437D1*
X2043495Y948839D1*
X2038766Y956495D1*
X2034440Y964386D1*
X2030528Y972490D1*
X2027039Y980786D1*
X2023986Y989251D1*
X2021374Y997862D1*
X2019211Y1006597D1*
X2017503Y1015433D1*
X2016255Y1024345D1*
X2015469Y1033310D1*
X2015148Y1042303D1*
X2015294Y1051301D1*
X2015904Y1060278D1*
X2016978Y1069214D1*
X2018513Y1078080D1*
X2020505Y1086857D1*
X2022948Y1095517D1*
X2025836Y1104041D1*
X2029161Y1112403D1*
X2032915Y1120581D1*
X2037087Y1128555D1*
X2041665Y1136302D1*
X2046638Y1143802D1*
X2051993Y1151034D1*
X2057715Y1157980D1*
X2063789Y1164621D1*
X2070197Y1170938D1*
X2076924Y1176915D1*
X2083951Y1182535D1*
X2091261Y1187786D1*
X2098832Y1192651D1*
X2106644Y1197117D1*
X2114677Y1201173D1*
X2122909Y1204808D1*
X2131319Y1208013D1*
X2139882Y1210777D1*
X2148577Y1213096D1*
X2157381Y1214961D1*
X2166269Y1216367D1*
X2175219Y1217312D1*
X2184205Y1217794D1*
X2193203Y1217810D1*
X2202192Y1217358D1*
X2211144Y1216444D1*
X2220037Y1215067D1*
X2228846Y1213232D1*
X2237550Y1210944D1*
X2246123Y1208209D1*
X2254543Y1205033D1*
X2262787Y1201425D1*
X2270835Y1197396D1*
X2278661Y1192957D1*
X2286249Y1188118D1*
X2293576Y1182892D1*
X2300622Y1177295D1*
X2307370Y1171341D1*
X2313801Y1165046D1*
X2319896Y1158427D1*
X2325642Y1151500D1*
X2331021Y1144286D1*
X2336020Y1136803D1*
X2340625Y1129072D1*
X2344824Y1121113D1*
X2348605Y1112946D1*
X2351958Y1104596D1*
X2354875Y1096083D1*
X2357348Y1087429D1*
X2359370Y1078661D1*
X2360936Y1069799D1*
X2362039Y1060867D1*
X2362681Y1051892D1*
X2362860Y1044000D1*
X2362802Y1039500D1*
X1162802D2*
X1162336Y1030513D1*
X1161406Y1021563D1*
X1160014Y1012672D1*
X1158164Y1003865D1*
X1155861Y995167D1*
X1153110Y986597D1*
X1149920Y978182D1*
X1146299Y969945D1*
X1142257Y961904D1*
X1137803Y954085D1*
X1132951Y946505D1*
X1127715Y939188D1*
X1122105Y932151D1*
X1116140Y925413D1*
X1109833Y918993D1*
X1103203Y912909D1*
X1096268Y907176D1*
X1089045Y901808D1*
X1081552Y896823D1*
X1073814Y892231D1*
X1065846Y888046D1*
X1057675Y884278D1*
X1049318Y880938D1*
X1040801Y878035D1*
X1032143Y875577D1*
X1023371Y873571D1*
X1014507Y872021D1*
X1005573Y870932D1*
X996596Y870306D1*
X987598Y870146D1*
X978605Y870451D1*
X969639Y871222D1*
X960724Y872454D1*
X951886Y874147D1*
X943147Y876295D1*
X934531Y878892D1*
X926062Y881932D1*
X917760Y885406D1*
X909650Y889304D1*
X901751Y893617D1*
X894087Y898333D1*
X886677Y903440D1*
X879541Y908923D1*
X872698Y914766D1*
X866167Y920958D1*
X859965Y927479D1*
X854109Y934311D1*
X848614Y941437D1*
X843495Y948839D1*
X838766Y956495D1*
X834440Y964386D1*
X830528Y972490D1*
X827039Y980786D1*
X823986Y989251D1*
X821374Y997862D1*
X819211Y1006597D1*
X817503Y1015433D1*
X816255Y1024345D1*
X815469Y1033310D1*
X815148Y1042303D1*
X815294Y1051301D1*
X815904Y1060278D1*
X816978Y1069214D1*
X818513Y1078080D1*
X820505Y1086857D1*
X822948Y1095517D1*
X825836Y1104041D1*
X829161Y1112403D1*
X832915Y1120581D1*
X837087Y1128555D1*
X841665Y1136302D1*
X846638Y1143802D1*
X851993Y1151034D1*
X857715Y1157980D1*
X863789Y1164621D1*
X870197Y1170938D1*
X876924Y1176915D1*
X883951Y1182535D1*
X891261Y1187786D1*
X898832Y1192651D1*
X906644Y1197117D1*
X914677Y1201173D1*
X922909Y1204808D1*
X931319Y1208013D1*
X939882Y1210777D1*
X948577Y1213096D1*
X957381Y1214961D1*
X966269Y1216367D1*
X975219Y1217312D1*
X984205Y1217794D1*
X993203Y1217810D1*
X1002192Y1217358D1*
X1011144Y1216444D1*
X1020037Y1215067D1*
X1028846Y1213232D1*
X1037550Y1210944D1*
X1046123Y1208209D1*
X1054543Y1205033D1*
X1062787Y1201425D1*
X1070835Y1197396D1*
X1078661Y1192957D1*
X1086249Y1188118D1*
X1093576Y1182892D1*
X1100622Y1177295D1*
X1107370Y1171341D1*
X1113801Y1165046D1*
X1119896Y1158427D1*
X1125642Y1151500D1*
X1131021Y1144286D1*
X1136020Y1136803D1*
X1140625Y1129072D1*
X1144824Y1121113D1*
X1148605Y1112946D1*
X1151958Y1104596D1*
X1154875Y1096083D1*
X1157348Y1087429D1*
X1159370Y1078661D1*
X1160936Y1069799D1*
X1162039Y1060867D1*
X1162681Y1051892D1*
X1162860Y1044000D1*
X1162802Y1039500D1*
X768802D2*
X768336Y1030513D1*
X767406Y1021563D1*
X766014Y1012672D1*
X764164Y1003865D1*
X761861Y995167D1*
X759110Y986597D1*
X755920Y978182D1*
X752299Y969945D1*
X748257Y961904D1*
X743803Y954085D1*
X738951Y946505D1*
X733715Y939188D1*
X728105Y932151D1*
X722140Y925413D1*
X715833Y918993D1*
X709203Y912909D1*
X702268Y907176D1*
X695045Y901808D1*
X687552Y896823D1*
X679814Y892231D1*
X671846Y888046D1*
X663675Y884278D1*
X655318Y880938D1*
X646801Y878035D1*
X638143Y875577D1*
X629371Y873571D1*
X620507Y872021D1*
X611573Y870932D1*
X602596Y870306D1*
X593598Y870146D1*
X584605Y870451D1*
X575639Y871222D1*
X566724Y872454D1*
X557886Y874147D1*
X549147Y876295D1*
X540531Y878892D1*
X532062Y881932D1*
X523760Y885406D1*
X515650Y889304D1*
X507751Y893617D1*
X500087Y898333D1*
X492677Y903440D1*
X485541Y908923D1*
X478698Y914766D1*
X472167Y920958D1*
X465965Y927479D1*
X460109Y934311D1*
X454614Y941437D1*
X449495Y948839D1*
X444766Y956495D1*
X440440Y964386D1*
X436528Y972490D1*
X433039Y980786D1*
X429986Y989251D1*
X427374Y997862D1*
X425211Y1006597D1*
X423503Y1015433D1*
X422255Y1024345D1*
X421469Y1033310D1*
X421148Y1042303D1*
X421294Y1051301D1*
X421904Y1060278D1*
X422978Y1069214D1*
X424513Y1078080D1*
X426505Y1086857D1*
X428948Y1095517D1*
X431836Y1104041D1*
X435161Y1112403D1*
X438915Y1120581D1*
X443087Y1128555D1*
X447665Y1136302D1*
X452638Y1143802D1*
X457993Y1151034D1*
X463715Y1157980D1*
X469789Y1164621D1*
X476197Y1170938D1*
X482924Y1176915D1*
X489951Y1182535D1*
X497261Y1187786D1*
X504832Y1192651D1*
X512644Y1197117D1*
X520677Y1201173D1*
X528909Y1204808D1*
X537319Y1208013D1*
X545882Y1210777D1*
X554577Y1213096D1*
X563381Y1214961D1*
X572269Y1216367D1*
X581219Y1217312D1*
X590205Y1217794D1*
X599203Y1217810D1*
X608192Y1217358D1*
X617144Y1216444D1*
X626037Y1215067D1*
X634846Y1213232D1*
X643550Y1210944D1*
X652123Y1208209D1*
X660543Y1205033D1*
X668787Y1201425D1*
X676835Y1197396D1*
X684661Y1192957D1*
X692249Y1188118D1*
X699576Y1182892D1*
X706622Y1177295D1*
X713370Y1171341D1*
X719801Y1165046D1*
X725896Y1158427D1*
X731642Y1151500D1*
X737021Y1144286D1*
X742020Y1136803D1*
X746625Y1129072D1*
X750824Y1121113D1*
X754605Y1112946D1*
X757958Y1104596D1*
X760875Y1096083D1*
X763348Y1087429D1*
X765370Y1078661D1*
X766936Y1069799D1*
X768039Y1060867D1*
X768681Y1051892D1*
X768860Y1044000D1*
X768802Y1039500D1*
Y1515318D2*
X768336Y1506331D1*
X767406Y1497381D1*
X766014Y1488490D1*
X764164Y1479682D1*
X761861Y1470984D1*
X759110Y1462415D1*
X755920Y1454000D1*
X752299Y1445762D1*
X748257Y1437722D1*
X743803Y1429903D1*
X738951Y1422323D1*
X733715Y1415005D1*
X728105Y1407969D1*
X722140Y1401231D1*
X715833Y1394811D1*
X709203Y1388727D1*
X702268Y1382993D1*
X695045Y1377626D1*
X687552Y1372640D1*
X679814Y1368049D1*
X671846Y1363864D1*
X663675Y1360096D1*
X655318Y1356756D1*
X646801Y1353853D1*
X638143Y1351395D1*
X629371Y1349388D1*
X620507Y1347839D1*
X611573Y1346749D1*
X602596Y1346123D1*
X593598Y1345963D1*
X584605Y1346269D1*
X575639Y1347039D1*
X566724Y1348272D1*
X557886Y1349965D1*
X549147Y1352113D1*
X540531Y1354710D1*
X532062Y1357749D1*
X523760Y1361223D1*
X515650Y1365122D1*
X507751Y1369434D1*
X500087Y1374151D1*
X492677Y1379257D1*
X485541Y1384740D1*
X478698Y1390584D1*
X472167Y1396776D1*
X465965Y1403297D1*
X460109Y1410129D1*
X454614Y1417255D1*
X449495Y1424656D1*
X444766Y1432312D1*
X440440Y1440203D1*
X436528Y1448307D1*
X433039Y1456604D1*
X429986Y1465068D1*
X427374Y1473680D1*
X425211Y1482415D1*
X423503Y1491251D1*
X422255Y1500163D1*
X421469Y1509127D1*
X421148Y1518121D1*
X421294Y1527118D1*
X421904Y1536096D1*
X422978Y1545031D1*
X424513Y1553898D1*
X426505Y1562675D1*
X428948Y1571335D1*
X431836Y1579858D1*
X435161Y1588220D1*
X438915Y1596399D1*
X443087Y1604373D1*
X447665Y1612119D1*
X452638Y1619619D1*
X457993Y1626852D1*
X463715Y1633798D1*
X469789Y1640438D1*
X476197Y1646756D1*
X482924Y1652732D1*
X489951Y1658353D1*
X497261Y1663604D1*
X504832Y1668469D1*
X512644Y1672934D1*
X520677Y1676991D1*
X528909Y1680626D1*
X537319Y1683831D1*
X545882Y1686594D1*
X554577Y1688913D1*
X563381Y1690778D1*
X572269Y1692185D1*
X581219Y1693130D1*
X590205Y1693612D1*
X599203Y1693627D1*
X608192Y1693176D1*
X617144Y1692261D1*
X626037Y1690885D1*
X634846Y1689050D1*
X643550Y1686761D1*
X652123Y1684026D1*
X660543Y1680850D1*
X668787Y1677243D1*
X676835Y1673214D1*
X684661Y1668774D1*
X692249Y1663936D1*
X699576Y1658710D1*
X706622Y1653113D1*
X713370Y1647159D1*
X719801Y1640864D1*
X725896Y1634244D1*
X731642Y1627318D1*
X737021Y1620104D1*
X742020Y1612621D1*
X746625Y1604890D1*
X750824Y1596930D1*
X754605Y1588764D1*
X757958Y1580413D1*
X760875Y1571900D1*
X763348Y1563247D1*
X765370Y1554479D1*
X766936Y1545617D1*
X768039Y1536685D1*
X768681Y1527710D1*
X768860Y1519818D1*
X768802Y1515318D1*
X1162802Y1514500D2*
X1162336Y1505513D1*
X1161406Y1496563D1*
X1160014Y1487672D1*
X1158164Y1478865D1*
X1155861Y1470167D1*
X1153110Y1461597D1*
X1149920Y1453182D1*
X1146299Y1444945D1*
X1142257Y1436904D1*
X1137803Y1429085D1*
X1132951Y1421505D1*
X1127715Y1414188D1*
X1122105Y1407151D1*
X1116140Y1400413D1*
X1109833Y1393993D1*
X1103203Y1387909D1*
X1096268Y1382176D1*
X1089045Y1376808D1*
X1081552Y1371823D1*
X1073814Y1367231D1*
X1065846Y1363046D1*
X1057675Y1359278D1*
X1049318Y1355938D1*
X1040801Y1353035D1*
X1032143Y1350577D1*
X1023371Y1348571D1*
X1014507Y1347021D1*
X1005573Y1345932D1*
X996596Y1345306D1*
X987598Y1345146D1*
X978605Y1345451D1*
X969639Y1346222D1*
X960724Y1347454D1*
X951886Y1349147D1*
X943147Y1351295D1*
X934531Y1353892D1*
X926062Y1356932D1*
X917760Y1360406D1*
X909650Y1364304D1*
X901751Y1368617D1*
X894087Y1373333D1*
X886677Y1378440D1*
X879541Y1383923D1*
X872698Y1389766D1*
X866167Y1395958D1*
X859965Y1402479D1*
X854109Y1409311D1*
X848614Y1416437D1*
X843495Y1423839D1*
X838766Y1431495D1*
X834440Y1439386D1*
X830528Y1447490D1*
X827039Y1455786D1*
X823986Y1464251D1*
X821374Y1472862D1*
X819211Y1481597D1*
X817503Y1490433D1*
X816255Y1499345D1*
X815469Y1508310D1*
X815148Y1517303D1*
X815294Y1526301D1*
X815904Y1535278D1*
X816978Y1544214D1*
X818513Y1553080D1*
X820505Y1561857D1*
X822948Y1570517D1*
X825836Y1579041D1*
X829161Y1587403D1*
X832915Y1595581D1*
X837087Y1603555D1*
X841665Y1611302D1*
X846638Y1618802D1*
X851993Y1626034D1*
X857715Y1632980D1*
X863789Y1639621D1*
X870197Y1645938D1*
X876924Y1651915D1*
X883951Y1657535D1*
X891261Y1662786D1*
X898832Y1667651D1*
X906644Y1672117D1*
X914677Y1676173D1*
X922909Y1679808D1*
X931319Y1683013D1*
X939882Y1685777D1*
X948577Y1688096D1*
X957381Y1689961D1*
X966269Y1691367D1*
X975219Y1692312D1*
X984205Y1692794D1*
X993203Y1692810D1*
X1002192Y1692358D1*
X1011144Y1691444D1*
X1020037Y1690067D1*
X1028846Y1688232D1*
X1037550Y1685944D1*
X1046123Y1683209D1*
X1054543Y1680033D1*
X1062787Y1676425D1*
X1070835Y1672396D1*
X1078661Y1667957D1*
X1086249Y1663118D1*
X1093576Y1657892D1*
X1100622Y1652295D1*
X1107370Y1646341D1*
X1113801Y1640046D1*
X1119896Y1633427D1*
X1125642Y1626500D1*
X1131021Y1619286D1*
X1136020Y1611803D1*
X1140625Y1604072D1*
X1144824Y1596113D1*
X1148605Y1587946D1*
X1151958Y1579596D1*
X1154875Y1571083D1*
X1157348Y1562429D1*
X1159370Y1553661D1*
X1160936Y1544799D1*
X1162039Y1535867D1*
X1162681Y1526892D1*
X1162860Y1519000D1*
X1162802Y1514500D1*
X1962802Y1039500D2*
X1962336Y1030513D1*
X1961406Y1021563D1*
X1960014Y1012672D1*
X1958164Y1003865D1*
X1955861Y995167D1*
X1953110Y986597D1*
X1949920Y978182D1*
X1946299Y969945D1*
X1942257Y961904D1*
X1937803Y954085D1*
X1932951Y946505D1*
X1927715Y939188D1*
X1922105Y932151D1*
X1916140Y925413D1*
X1909833Y918993D1*
X1903203Y912909D1*
X1896268Y907176D1*
X1889045Y901808D1*
X1881552Y896823D1*
X1873814Y892231D1*
X1865846Y888046D1*
X1857675Y884278D1*
X1849318Y880938D1*
X1840801Y878035D1*
X1832143Y875577D1*
X1823371Y873571D1*
X1814507Y872021D1*
X1805573Y870932D1*
X1796596Y870306D1*
X1787598Y870146D1*
X1778605Y870451D1*
X1769639Y871222D1*
X1760724Y872454D1*
X1751886Y874147D1*
X1743147Y876295D1*
X1734531Y878892D1*
X1726062Y881932D1*
X1717760Y885406D1*
X1709650Y889304D1*
X1701751Y893617D1*
X1694087Y898333D1*
X1686677Y903440D1*
X1679541Y908923D1*
X1672698Y914766D1*
X1666167Y920958D1*
X1659965Y927479D1*
X1654109Y934311D1*
X1648614Y941437D1*
X1643495Y948839D1*
X1638766Y956495D1*
X1634440Y964386D1*
X1630528Y972490D1*
X1627039Y980786D1*
X1623986Y989251D1*
X1621374Y997862D1*
X1619211Y1006597D1*
X1617503Y1015433D1*
X1616255Y1024345D1*
X1615469Y1033310D1*
X1615148Y1042303D1*
X1615294Y1051301D1*
X1615904Y1060278D1*
X1616978Y1069214D1*
X1618513Y1078080D1*
X1620505Y1086857D1*
X1622948Y1095517D1*
X1625836Y1104041D1*
X1629161Y1112403D1*
X1632915Y1120581D1*
X1637087Y1128555D1*
X1641665Y1136302D1*
X1646638Y1143802D1*
X1651993Y1151034D1*
X1657715Y1157980D1*
X1663789Y1164621D1*
X1670197Y1170938D1*
X1676924Y1176915D1*
X1683951Y1182535D1*
X1691261Y1187786D1*
X1698832Y1192651D1*
X1706644Y1197117D1*
X1714677Y1201173D1*
X1722909Y1204808D1*
X1731319Y1208013D1*
X1739882Y1210777D1*
X1748577Y1213096D1*
X1757381Y1214961D1*
X1766269Y1216367D1*
X1775219Y1217312D1*
X1784205Y1217794D1*
X1793203Y1217810D1*
X1802192Y1217358D1*
X1811144Y1216444D1*
X1820037Y1215067D1*
X1828846Y1213232D1*
X1837550Y1210944D1*
X1846123Y1208209D1*
X1854543Y1205033D1*
X1862787Y1201425D1*
X1870835Y1197396D1*
X1878661Y1192957D1*
X1886249Y1188118D1*
X1893576Y1182892D1*
X1900622Y1177295D1*
X1907370Y1171341D1*
X1913801Y1165046D1*
X1919896Y1158427D1*
X1925642Y1151500D1*
X1931021Y1144286D1*
X1936020Y1136803D1*
X1940625Y1129072D1*
X1944824Y1121113D1*
X1948605Y1112946D1*
X1951958Y1104596D1*
X1954875Y1096083D1*
X1957348Y1087429D1*
X1959370Y1078661D1*
X1960936Y1069799D1*
X1962039Y1060867D1*
X1962681Y1051892D1*
X1962860Y1044000D1*
X1962802Y1039500D1*
X1562802Y1514500D2*
X1562336Y1505513D1*
X1561406Y1496563D1*
X1560014Y1487672D1*
X1558164Y1478865D1*
X1555861Y1470167D1*
X1553110Y1461597D1*
X1549920Y1453182D1*
X1546299Y1444945D1*
X1542257Y1436904D1*
X1537803Y1429085D1*
X1532951Y1421505D1*
X1527715Y1414188D1*
X1522105Y1407151D1*
X1516140Y1400413D1*
X1509833Y1393993D1*
X1503203Y1387909D1*
X1496268Y1382176D1*
X1489045Y1376808D1*
X1481552Y1371823D1*
X1473814Y1367231D1*
X1465846Y1363046D1*
X1457675Y1359278D1*
X1449318Y1355938D1*
X1440801Y1353035D1*
X1432143Y1350577D1*
X1423371Y1348571D1*
X1414507Y1347021D1*
X1405573Y1345932D1*
X1396596Y1345306D1*
X1387598Y1345146D1*
X1378605Y1345451D1*
X1369639Y1346222D1*
X1360724Y1347454D1*
X1351886Y1349147D1*
X1343147Y1351295D1*
X1334531Y1353892D1*
X1326062Y1356932D1*
X1317760Y1360406D1*
X1309650Y1364304D1*
X1301751Y1368617D1*
X1294087Y1373333D1*
X1286677Y1378440D1*
X1279541Y1383923D1*
X1272698Y1389766D1*
X1266167Y1395958D1*
X1259965Y1402479D1*
X1254109Y1409311D1*
X1248614Y1416437D1*
X1243495Y1423839D1*
X1238766Y1431495D1*
X1234440Y1439386D1*
X1230528Y1447490D1*
X1227039Y1455786D1*
X1223986Y1464251D1*
X1221374Y1472862D1*
X1219211Y1481597D1*
X1217503Y1490433D1*
X1216255Y1499345D1*
X1215469Y1508310D1*
X1215148Y1517303D1*
X1215294Y1526301D1*
X1215904Y1535278D1*
X1216978Y1544214D1*
X1218513Y1553080D1*
X1220505Y1561857D1*
X1222948Y1570517D1*
X1225836Y1579041D1*
X1229161Y1587403D1*
X1232915Y1595581D1*
X1237087Y1603555D1*
X1241665Y1611302D1*
X1246638Y1618802D1*
X1251993Y1626034D1*
X1257715Y1632980D1*
X1263789Y1639621D1*
X1270197Y1645938D1*
X1276924Y1651915D1*
X1283951Y1657535D1*
X1291261Y1662786D1*
X1298832Y1667651D1*
X1306644Y1672117D1*
X1314677Y1676173D1*
X1322909Y1679808D1*
X1331319Y1683013D1*
X1339882Y1685777D1*
X1348577Y1688096D1*
X1357381Y1689961D1*
X1366269Y1691367D1*
X1375219Y1692312D1*
X1384205Y1692794D1*
X1393203Y1692810D1*
X1402192Y1692358D1*
X1411144Y1691444D1*
X1420037Y1690067D1*
X1428846Y1688232D1*
X1437550Y1685944D1*
X1446123Y1683209D1*
X1454543Y1680033D1*
X1462787Y1676425D1*
X1470835Y1672396D1*
X1478661Y1667957D1*
X1486249Y1663118D1*
X1493576Y1657892D1*
X1500622Y1652295D1*
X1507370Y1646341D1*
X1513801Y1640046D1*
X1519896Y1633427D1*
X1525642Y1626500D1*
X1531021Y1619286D1*
X1536020Y1611803D1*
X1540625Y1604072D1*
X1544824Y1596113D1*
X1548605Y1587946D1*
X1551958Y1579596D1*
X1554875Y1571083D1*
X1557348Y1562429D1*
X1559370Y1553661D1*
X1560936Y1544799D1*
X1562039Y1535867D1*
X1562681Y1526892D1*
X1562860Y1519000D1*
X1562802Y1514500D1*
X1962802D2*
X1962336Y1505513D1*
X1961406Y1496563D1*
X1960014Y1487672D1*
X1958164Y1478865D1*
X1955861Y1470167D1*
X1953110Y1461597D1*
X1949920Y1453182D1*
X1946299Y1444945D1*
X1942257Y1436904D1*
X1937803Y1429085D1*
X1932951Y1421505D1*
X1927715Y1414188D1*
X1922105Y1407151D1*
X1916140Y1400413D1*
X1909833Y1393993D1*
X1903203Y1387909D1*
X1896268Y1382176D1*
X1889045Y1376808D1*
X1881552Y1371823D1*
X1873814Y1367231D1*
X1865846Y1363046D1*
X1857675Y1359278D1*
X1849318Y1355938D1*
X1840801Y1353035D1*
X1832143Y1350577D1*
X1823371Y1348571D1*
X1814507Y1347021D1*
X1805573Y1345932D1*
X1796596Y1345306D1*
X1787598Y1345146D1*
X1778605Y1345451D1*
X1769639Y1346222D1*
X1760724Y1347454D1*
X1751886Y1349147D1*
X1743147Y1351295D1*
X1734531Y1353892D1*
X1726062Y1356932D1*
X1717760Y1360406D1*
X1709650Y1364304D1*
X1701751Y1368617D1*
X1694087Y1373333D1*
X1686677Y1378440D1*
X1679541Y1383923D1*
X1672698Y1389766D1*
X1666167Y1395958D1*
X1659965Y1402479D1*
X1654109Y1409311D1*
X1648614Y1416437D1*
X1643495Y1423839D1*
X1638766Y1431495D1*
X1634440Y1439386D1*
X1630528Y1447490D1*
X1627039Y1455786D1*
X1623986Y1464251D1*
X1621374Y1472862D1*
X1619211Y1481597D1*
X1617503Y1490433D1*
X1616255Y1499345D1*
X1615469Y1508310D1*
X1615148Y1517303D1*
X1615294Y1526301D1*
X1615904Y1535278D1*
X1616978Y1544214D1*
X1618513Y1553080D1*
X1620505Y1561857D1*
X1622948Y1570517D1*
X1625836Y1579041D1*
X1629161Y1587403D1*
X1632915Y1595581D1*
X1637087Y1603555D1*
X1641665Y1611302D1*
X1646638Y1618802D1*
X1651993Y1626034D1*
X1657715Y1632980D1*
X1663789Y1639621D1*
X1670197Y1645938D1*
X1676924Y1651915D1*
X1683951Y1657535D1*
X1691261Y1662786D1*
X1698832Y1667651D1*
X1706644Y1672117D1*
X1714677Y1676173D1*
X1722909Y1679808D1*
X1731319Y1683013D1*
X1739882Y1685777D1*
X1748577Y1688096D1*
X1757381Y1689961D1*
X1766269Y1691367D1*
X1775219Y1692312D1*
X1784205Y1692794D1*
X1793203Y1692810D1*
X1802192Y1692358D1*
X1811144Y1691444D1*
X1820037Y1690067D1*
X1828846Y1688232D1*
X1837550Y1685944D1*
X1846123Y1683209D1*
X1854543Y1680033D1*
X1862787Y1676425D1*
X1870835Y1672396D1*
X1878661Y1667957D1*
X1886249Y1663118D1*
X1893576Y1657892D1*
X1900622Y1652295D1*
X1907370Y1646341D1*
X1913801Y1640046D1*
X1919896Y1633427D1*
X1925642Y1626500D1*
X1931021Y1619286D1*
X1936020Y1611803D1*
X1940625Y1604072D1*
X1944824Y1596113D1*
X1948605Y1587946D1*
X1951958Y1579596D1*
X1954875Y1571083D1*
X1957348Y1562429D1*
X1959370Y1553661D1*
X1960936Y1544799D1*
X1962039Y1535867D1*
X1962681Y1526892D1*
X1962860Y1519000D1*
X1962802Y1514500D1*
X2362802D2*
X2362336Y1505513D1*
X2361406Y1496563D1*
X2360014Y1487672D1*
X2358164Y1478865D1*
X2355861Y1470167D1*
X2353110Y1461597D1*
X2349920Y1453182D1*
X2346299Y1444945D1*
X2342257Y1436904D1*
X2337803Y1429085D1*
X2332951Y1421505D1*
X2327715Y1414188D1*
X2322105Y1407151D1*
X2316140Y1400413D1*
X2309833Y1393993D1*
X2303203Y1387909D1*
X2296268Y1382176D1*
X2289045Y1376808D1*
X2281552Y1371823D1*
X2273814Y1367231D1*
X2265846Y1363046D1*
X2257675Y1359278D1*
X2249318Y1355938D1*
X2240801Y1353035D1*
X2232143Y1350577D1*
X2223371Y1348571D1*
X2214507Y1347021D1*
X2205573Y1345932D1*
X2196596Y1345306D1*
X2187598Y1345146D1*
X2178605Y1345451D1*
X2169639Y1346222D1*
X2160724Y1347454D1*
X2151886Y1349147D1*
X2143147Y1351295D1*
X2134531Y1353892D1*
X2126062Y1356932D1*
X2117760Y1360406D1*
X2109650Y1364304D1*
X2101751Y1368617D1*
X2094087Y1373333D1*
X2086677Y1378440D1*
X2079541Y1383923D1*
X2072698Y1389766D1*
X2066167Y1395958D1*
X2059965Y1402479D1*
X2054109Y1409311D1*
X2048614Y1416437D1*
X2043495Y1423839D1*
X2038766Y1431495D1*
X2034440Y1439386D1*
X2030528Y1447490D1*
X2027039Y1455786D1*
X2023986Y1464251D1*
X2021374Y1472862D1*
X2019211Y1481597D1*
X2017503Y1490433D1*
X2016255Y1499345D1*
X2015469Y1508310D1*
X2015148Y1517303D1*
X2015294Y1526301D1*
X2015904Y1535278D1*
X2016978Y1544214D1*
X2018513Y1553080D1*
X2020505Y1561857D1*
X2022948Y1570517D1*
X2025836Y1579041D1*
X2029161Y1587403D1*
X2032915Y1595581D1*
X2037087Y1603555D1*
X2041665Y1611302D1*
X2046638Y1618802D1*
X2051993Y1626034D1*
X2057715Y1632980D1*
X2063789Y1639621D1*
X2070197Y1645938D1*
X2076924Y1651915D1*
X2083951Y1657535D1*
X2091261Y1662786D1*
X2098832Y1667651D1*
X2106644Y1672117D1*
X2114677Y1676173D1*
X2122909Y1679808D1*
X2131319Y1683013D1*
X2139882Y1685777D1*
X2148577Y1688096D1*
X2157381Y1689961D1*
X2166269Y1691367D1*
X2175219Y1692312D1*
X2184205Y1692794D1*
X2193203Y1692810D1*
X2202192Y1692358D1*
X2211144Y1691444D1*
X2220037Y1690067D1*
X2228846Y1688232D1*
X2237550Y1685944D1*
X2246123Y1683209D1*
X2254543Y1680033D1*
X2262787Y1676425D1*
X2270835Y1672396D1*
X2278661Y1667957D1*
X2286249Y1663118D1*
X2293576Y1657892D1*
X2300622Y1652295D1*
X2307370Y1646341D1*
X2313801Y1640046D1*
X2319896Y1633427D1*
X2325642Y1626500D1*
X2331021Y1619286D1*
X2336020Y1611803D1*
X2340625Y1604072D1*
X2344824Y1596113D1*
X2348605Y1587946D1*
X2351958Y1579596D1*
X2354875Y1571083D1*
X2357348Y1562429D1*
X2359370Y1553661D1*
X2360936Y1544799D1*
X2362039Y1535867D1*
X2362681Y1526892D1*
X2362860Y1519000D1*
X2362802Y1514500D1*
X2397066Y414501D2*
X2391698Y416346D1*
X2383432Y419899D1*
X2375509Y424163D1*
X2367991Y429105D1*
X2360937Y434689D1*
X2354399Y440870D1*
X2348428Y447601D1*
X2343071Y454829D1*
X2338369Y462500D1*
X2334358Y470554D1*
X2331070Y478928D1*
X2328529Y487559D1*
X2326755Y496379D1*
X2325761Y505322D1*
X2325556Y514316D1*
X2326142Y523294D1*
X2327512Y532186D1*
X2329657Y540924D1*
X2332562Y549440D1*
X2336202Y557668D1*
X2340550Y565545D1*
X2345571Y573009D1*
X2351230Y580005D1*
X2357479Y586478D1*
X2364272Y592377D1*
X2371558Y597656D1*
X2379277Y602277D1*
X2387373Y606202D1*
X2395782Y609402D1*
X2404438Y611852D1*
X2413277Y613533D1*
X2422230Y614430D1*
X2432476Y614592D1*
X2553273Y614541D1*
X2562244Y613861D1*
X2571122Y612396D1*
X2579836Y610159D1*
X2588320Y607164D1*
X2596509Y603438D1*
X2604340Y599007D1*
X2611752Y593907D1*
X2618686Y588175D1*
X2625093Y581857D1*
X2630920Y575001D1*
X2636122Y567661D1*
X2640660Y559892D1*
X2644500Y551756D1*
X2647612Y543314D1*
X2649969Y534631D1*
X2651556Y525776D1*
X2652360Y516815D1*
X2652367Y507651D1*
X2651577Y498689D1*
X2650005Y489831D1*
X2647661Y481143D1*
X2644564Y472697D1*
X2640738Y464554D1*
X2636213Y456778D1*
X2631021Y449429D1*
X2625206Y442564D1*
X2618810Y436236D1*
X2611885Y430493D1*
X2604482Y425381D1*
X2596657Y420937D1*
X2588475Y417197D1*
X2580946Y414504D1*
X2753541Y414509D1*
X2754735Y1018545D1*
X2752896Y1008257D1*
X2750819Y999501D1*
X2748291Y990864D1*
X2745320Y982370D1*
X2741913Y974041D1*
X2738081Y965899D1*
X2733832Y957966D1*
X2729177Y950264D1*
X2724131Y942812D1*
X2718706Y935633D1*
X2712917Y928744D1*
X2706780Y922163D1*
X2700308Y915908D1*
X2693524Y909997D1*
X2686441Y904445D1*
X2679081Y899266D1*
X2671463Y894476D1*
X2663608Y890087D1*
X2655535Y886109D1*
X2647269Y882554D1*
X2638828Y879432D1*
X2630238Y876751D1*
X2621521Y874518D1*
X2612699Y872739D1*
X2603798Y871419D1*
X2594840Y870560D1*
X2585849Y870168D1*
X2576850Y870240D1*
X2567867Y870778D1*
X2558924Y871781D1*
X2550046Y873244D1*
X2541253Y875165D1*
X2532573Y877538D1*
X2524028Y880357D1*
X2515639Y883615D1*
X2507430Y887303D1*
X2499423Y891409D1*
X2491639Y895925D1*
X2484100Y900839D1*
X2476824Y906135D1*
X2469832Y911801D1*
X2463143Y917820D1*
X2456774Y924178D1*
X2450743Y930857D1*
X2445066Y937839D1*
X2439757Y945105D1*
X2434832Y952636D1*
X2430302Y960412D1*
X2426181Y968412D1*
X2422480Y976615D1*
X2419209Y984999D1*
X2416374Y993539D1*
X2413987Y1002215D1*
X2412050Y1011004D1*
X2410572Y1019881D1*
X2409554Y1028822D1*
X2409001Y1037804D1*
X2408913Y1046803D1*
X2409291Y1055794D1*
X2410134Y1064753D1*
X2411438Y1073657D1*
X2413203Y1082482D1*
X2415421Y1091202D1*
X2418088Y1099798D1*
X2421196Y1108243D1*
X2424736Y1116516D1*
X2428699Y1124594D1*
X2433076Y1132458D1*
X2437854Y1140084D1*
X2443020Y1147453D1*
X2448559Y1154545D1*
X2454459Y1161340D1*
X2460702Y1167820D1*
X2467273Y1173970D1*
X2474152Y1179770D1*
X2481323Y1185209D1*
X2488765Y1190268D1*
X2496459Y1194934D1*
X2504385Y1199197D1*
X2512520Y1203045D1*
X2520844Y1206465D1*
X2529333Y1209450D1*
X2537966Y1211993D1*
X2546718Y1214085D1*
X2555567Y1215722D1*
X2564488Y1216898D1*
X2573459Y1217612D1*
X2582454Y1217860D1*
X2591451Y1217642D1*
X2600424Y1216959D1*
X2609350Y1215814D1*
X2618205Y1214207D1*
X2626963Y1212144D1*
X2635605Y1209631D1*
X2644104Y1206675D1*
X2652440Y1203282D1*
X2660588Y1199463D1*
X2668528Y1195227D1*
X2676238Y1190587D1*
X2683697Y1185552D1*
X2690886Y1180140D1*
X2697785Y1174362D1*
X2704377Y1168235D1*
X2710642Y1161776D1*
X2716564Y1155000D1*
X2722129Y1147928D1*
X2727320Y1140577D1*
X2732123Y1132967D1*
X2736526Y1125119D1*
X2740518Y1117054D1*
X2744087Y1108793D1*
X2747223Y1100358D1*
X2749919Y1091772D1*
X2752167Y1083058D1*
X2753961Y1074240D1*
X2754836Y1068702D1*
X2755685Y1498814D1*
X2754768Y1492109D1*
X2753146Y1483257D1*
X2751068Y1474501D1*
X2748541Y1465864D1*
X2745570Y1457370D1*
X2742163Y1449041D1*
X2738331Y1440899D1*
X2734081Y1432966D1*
X2729427Y1425264D1*
X2724381Y1417812D1*
X2718955Y1410633D1*
X2713167Y1403744D1*
X2707029Y1397163D1*
X2700558Y1390908D1*
X2693773Y1384997D1*
X2686690Y1379445D1*
X2679331Y1374266D1*
X2671713Y1369476D1*
X2663857Y1365087D1*
X2655785Y1361109D1*
X2647518Y1357554D1*
X2639077Y1354432D1*
X2630487Y1351751D1*
X2621770Y1349518D1*
X2612949Y1347739D1*
X2604047Y1346419D1*
X2595089Y1345560D1*
X2586098Y1345168D1*
X2577100Y1345240D1*
X2568117Y1345778D1*
X2559173Y1346781D1*
X2550295Y1348244D1*
X2541503Y1350165D1*
X2532823Y1352538D1*
X2524277Y1355357D1*
X2515888Y1358615D1*
X2507680Y1362303D1*
X2499672Y1366409D1*
X2491888Y1370925D1*
X2484349Y1375839D1*
X2477073Y1381135D1*
X2470081Y1386801D1*
X2463392Y1392820D1*
X2457024Y1399178D1*
X2450992Y1405857D1*
X2445315Y1412839D1*
X2440007Y1420105D1*
X2435081Y1427636D1*
X2430551Y1435412D1*
X2426430Y1443412D1*
X2422730Y1451615D1*
X2419458Y1459999D1*
X2416623Y1468539D1*
X2414236Y1477215D1*
X2412299Y1486004D1*
X2410822Y1494881D1*
X2409803Y1503822D1*
X2409251Y1512804D1*
X2409163Y1521803D1*
X2409541Y1530794D1*
X2410383Y1539753D1*
X2411688Y1548657D1*
X2413453Y1557482D1*
X2415671Y1566202D1*
X2418337Y1574798D1*
X2421445Y1583243D1*
X2424986Y1591516D1*
X2428949Y1599594D1*
X2433325Y1607458D1*
X2438104Y1615084D1*
X2443269Y1622453D1*
X2448808Y1629545D1*
X2454709Y1636340D1*
X2460951Y1642820D1*
X2467522Y1648970D1*
X2474402Y1654770D1*
X2481572Y1660209D1*
X2489014Y1665268D1*
X2496709Y1669934D1*
X2504634Y1674197D1*
X2512769Y1678045D1*
X2521093Y1681465D1*
X2529583Y1684450D1*
X2538215Y1686993D1*
X2546967Y1689085D1*
X2555816Y1690722D1*
X2564738Y1691898D1*
X2573709Y1692612D1*
X2582703Y1692860D1*
X2591701Y1692642D1*
X2600673Y1691959D1*
X2609600Y1690814D1*
X2618454Y1689207D1*
X2627213Y1687144D1*
X2635854Y1684631D1*
X2644353Y1681675D1*
X2652689Y1678282D1*
X2660837Y1674463D1*
X2668777Y1670227D1*
X2676487Y1665587D1*
X2683946Y1660552D1*
X2691135Y1655140D1*
X2698034Y1649362D1*
X2704626Y1643235D1*
X2710891Y1636776D1*
X2716814Y1630000D1*
X2722378Y1622928D1*
X2727570Y1615577D1*
X2732373Y1607967D1*
X2736776Y1600119D1*
X2740768Y1592054D1*
X2744336Y1583793D1*
X2747472Y1575358D1*
X2750168Y1566772D1*
X2752416Y1558058D1*
X2754210Y1549240D1*
X2755546Y1540341D1*
X2755764Y1538366D1*
X2763459Y5429486D1*
X2581448Y5429500D1*
X2588320Y5427014D1*
X2596509Y5423289D1*
X2604340Y5418857D1*
X2611752Y5413757D1*
X2618686Y5408025D1*
X2625093Y5401707D1*
X2630920Y5394852D1*
X2636122Y5387512D1*
X2640660Y5379743D1*
X2644500Y5371606D1*
X2647612Y5363164D1*
X2649969Y5354482D1*
X2651556Y5345626D1*
X2652360Y5336665D1*
X2652367Y5327501D1*
X2651577Y5318539D1*
X2650005Y5309681D1*
X2647661Y5300993D1*
X2644564Y5292547D1*
X2640738Y5284404D1*
X2636213Y5276629D1*
X2631021Y5269280D1*
X2625206Y5262415D1*
X2618810Y5256087D1*
X2611885Y5250344D1*
X2604482Y5245231D1*
X2596657Y5240787D1*
X2588475Y5237047D1*
X2579995Y5234039D1*
X2571285Y5231787D1*
X2562409Y5230308D1*
X2553440Y5229614D1*
X2527524Y5229558D1*
X2426892Y5229563D1*
X2417909Y5230054D1*
X2409003Y5231329D1*
X2400243Y5233383D1*
X2391698Y5236197D1*
X2383432Y5239749D1*
X2375509Y5244013D1*
X2367991Y5248955D1*
X2360937Y5254539D1*
X2354399Y5260720D1*
X2348428Y5267451D1*
X2343071Y5274680D1*
X2338369Y5282350D1*
X2334358Y5290404D1*
X2331070Y5298778D1*
X2328529Y5307409D1*
X2326755Y5316230D1*
X2325761Y5325172D1*
X2325556Y5334167D1*
X2326142Y5343144D1*
X2327512Y5352037D1*
X2329657Y5360774D1*
X2332562Y5369290D1*
X2336202Y5377518D1*
X2340550Y5385395D1*
X2345571Y5392860D1*
X2351230Y5399856D1*
X2357479Y5406328D1*
X2364272Y5412227D1*
X2371558Y5417507D1*
X2379277Y5422127D1*
X2387373Y5426052D1*
X2395782Y5429252D1*
X2396605Y5429505D1*
X781448Y5429500D1*
X788320Y5427014D1*
X796509Y5423289D1*
X804340Y5418857D1*
X811752Y5413757D1*
X818686Y5408025D1*
X825093Y5401707D1*
X830920Y5394852D1*
X836122Y5387512D1*
X840660Y5379743D1*
X844500Y5371606D1*
X847612Y5363164D1*
X849969Y5354482D1*
X851556Y5345626D1*
X852360Y5336665D1*
X852367Y5327501D1*
X851577Y5318539D1*
X850005Y5309681D1*
X847661Y5300993D1*
X844564Y5292547D1*
X840738Y5284404D1*
X836213Y5276629D1*
X831021Y5269280D1*
X825206Y5262415D1*
X818810Y5256087D1*
X811885Y5250344D1*
X804482Y5245231D1*
X796657Y5240787D1*
X788475Y5237047D1*
X779995Y5234039D1*
X771285Y5231787D1*
X762409Y5230308D1*
X753440Y5229614D1*
X727524Y5229558D1*
X626892Y5229563D1*
X617909Y5230054D1*
X609003Y5231329D1*
X600243Y5233383D1*
X591698Y5236197D1*
X583432Y5239749D1*
X575509Y5244013D1*
X567991Y5248955D1*
X560937Y5254539D1*
X554399Y5260720D1*
X548428Y5267451D1*
X543071Y5274680D1*
X538369Y5282350D1*
X534358Y5290404D1*
X531070Y5298778D1*
X528529Y5307409D1*
X526755Y5316230D1*
X525761Y5325172D1*
X525556Y5334167D1*
X526142Y5343144D1*
X527512Y5352037D1*
X529657Y5360774D1*
X532562Y5369290D1*
X536202Y5377518D1*
X540550Y5385395D1*
X545571Y5392860D1*
X551230Y5399856D1*
X557479Y5406328D1*
X564272Y5412227D1*
X571558Y5417507D1*
X579277Y5422127D1*
X587373Y5426052D1*
X595782Y5429252D1*
X596605Y5429505D1*
X414486Y5429500D1*
X414500Y414513D1*
X597013Y414500D1*
X591698Y416346D1*
X583432Y419899D1*
X575509Y424163D1*
X567991Y429105D1*
X560937Y434689D1*
X554399Y440870D1*
X548428Y447601D1*
X543071Y454829D1*
X538369Y462500D1*
X534358Y470554D1*
X531070Y478928D1*
X528529Y487559D1*
X526755Y496379D1*
X525761Y505322D1*
X525556Y514316D1*
X526142Y523294D1*
X527512Y532186D1*
X529657Y540924D1*
X532562Y549440D1*
X536202Y557668D1*
X540550Y565545D1*
X545571Y573009D1*
X551230Y580005D1*
X557479Y586478D1*
X564272Y592377D1*
X571558Y597656D1*
X579277Y602277D1*
X587373Y606202D1*
X595782Y609402D1*
X604438Y611852D1*
X613277Y613533D1*
X622230Y614430D1*
X632476Y614592D1*
X753273Y614541D1*
X762244Y613861D1*
X771122Y612396D1*
X779836Y610159D1*
X788320Y607164D1*
X796509Y603438D1*
X804340Y599007D1*
X811752Y593907D1*
X818686Y588175D1*
X825093Y581857D1*
X830920Y575001D1*
X836122Y567661D1*
X840660Y559892D1*
X844500Y551756D1*
X847612Y543314D1*
X849969Y534631D1*
X851556Y525776D1*
X852360Y516815D1*
X852367Y507651D1*
X851577Y498689D1*
X850005Y489831D1*
X847661Y481143D1*
X844564Y472697D1*
X840738Y464554D1*
X836213Y456778D1*
X831021Y449429D1*
X825206Y442564D1*
X818810Y436236D1*
X811885Y430493D1*
X804482Y425381D1*
X796657Y420937D1*
X788475Y417197D1*
X780946Y414504D1*
X2397013Y414500D1*
X1573127Y1027500D2*
X1572680Y1018513D1*
X1571787Y1009558D1*
X1570451Y1000659D1*
X1568675Y991836D1*
X1566463Y983113D1*
X1563820Y974512D1*
X1560755Y966051D1*
X1557272Y957753D1*
X1553381Y949638D1*
X1549092Y941727D1*
X1544416Y934038D1*
X1539364Y926591D1*
X1533949Y919404D1*
X1528182Y912495D1*
X1522080Y905881D1*
X1515657Y899576D1*
X1508930Y893600D1*
X1501913Y887965D1*
X1494626Y882685D1*
X1487085Y877773D1*
X1479311Y873243D1*
X1471320Y869102D1*
X1463134Y865365D1*
X1454773Y862038D1*
X1446256Y859131D1*
X1437605Y856651D1*
X1428843Y854602D1*
X1419988Y852992D1*
X1411066Y851823D1*
X1402096Y851098D1*
X1393101Y850820D1*
X1384104Y850990D1*
X1375126Y851605D1*
X1366189Y852665D1*
X1357316Y854168D1*
X1348530Y856109D1*
X1339849Y858484D1*
X1331298Y861289D1*
X1322896Y864513D1*
X1314665Y868151D1*
X1306626Y872193D1*
X1298797Y876629D1*
X1291197Y881449D1*
X1283845Y886639D1*
X1276761Y892189D1*
X1269961Y898083D1*
X1263462Y904308D1*
X1257281Y910848D1*
X1251430Y917686D1*
X1245928Y924807D1*
X1240786Y932193D1*
X1236017Y939824D1*
X1231633Y947682D1*
X1227643Y955749D1*
X1224060Y964004D1*
X1220891Y972427D1*
X1218144Y980996D1*
X1215827Y989692D1*
X1213942Y998491D1*
X1212499Y1007374D1*
X1211497Y1016318D1*
X1210941Y1025299D1*
X1210832Y1034298D1*
X1211169Y1043290D1*
X1211953Y1052255D1*
X1213181Y1061169D1*
X1214849Y1070013D1*
X1216955Y1078762D1*
X1219493Y1087396D1*
X1222457Y1095892D1*
X1225839Y1104232D1*
X1229630Y1112394D1*
X1233822Y1120357D1*
X1238404Y1128102D1*
X1243366Y1135610D1*
X1248693Y1142862D1*
X1254375Y1149841D1*
X1260396Y1156529D1*
X1266741Y1162911D1*
X1273396Y1168969D1*
X1280344Y1174689D1*
X1287566Y1180056D1*
X1295046Y1185059D1*
X1302765Y1189685D1*
X1310705Y1193921D1*
X1318845Y1197757D1*
X1327167Y1201185D1*
X1335647Y1204196D1*
X1344266Y1206782D1*
X1353004Y1208937D1*
X1361837Y1210655D1*
X1370745Y1211932D1*
X1379706Y1212765D1*
X1388696Y1213152D1*
X1397696Y1213093D1*
X1406680Y1212587D1*
X1415629Y1211635D1*
X1424518Y1210240D1*
X1433329Y1208407D1*
X1442037Y1206136D1*
X1450622Y1203437D1*
X1459062Y1200315D1*
X1467336Y1196777D1*
X1475425Y1192833D1*
X1483308Y1188493D1*
X1490966Y1183766D1*
X1498379Y1178665D1*
X1505530Y1173202D1*
X1512402Y1167391D1*
X1518976Y1161245D1*
X1525236Y1154781D1*
X1531169Y1148014D1*
X1536757Y1140961D1*
X1541990Y1133639D1*
X1546850Y1126066D1*
X1551331Y1118261D1*
X1555417Y1110243D1*
X1559101Y1102033D1*
X1562371Y1093650D1*
X1565223Y1085114D1*
X1567647Y1076448D1*
X1569636Y1067671D1*
X1571189Y1058807D1*
X1572299Y1049877D1*
X1572965Y1040902D1*
X1573182Y1032000D1*
X1573127Y1027500D1*
X937802Y1939500D2*
X937336Y1930513D1*
X936406Y1921563D1*
X935014Y1912672D1*
X933164Y1903865D1*
X930861Y1895167D1*
X928110Y1886597D1*
X924920Y1878182D1*
X921299Y1869945D1*
X917257Y1861904D1*
X912803Y1854085D1*
X907951Y1846505D1*
X902715Y1839188D1*
X897105Y1832151D1*
X891140Y1825413D1*
X884833Y1818993D1*
X878203Y1812909D1*
X871268Y1807176D1*
X864045Y1801808D1*
X856552Y1796823D1*
X848814Y1792231D1*
X840846Y1788046D1*
X832675Y1784278D1*
X824318Y1780938D1*
X815801Y1778035D1*
X807143Y1775577D1*
X798371Y1773571D1*
X789507Y1772021D1*
X780573Y1770932D1*
X771596Y1770306D1*
X762598Y1770146D1*
X753605Y1770451D1*
X744639Y1771222D1*
X735724Y1772454D1*
X726886Y1774147D1*
X718147Y1776295D1*
X709531Y1778892D1*
X701062Y1781932D1*
X692760Y1785406D1*
X684650Y1789304D1*
X676751Y1793617D1*
X669087Y1798333D1*
X661677Y1803440D1*
X654541Y1808923D1*
X647698Y1814766D1*
X641167Y1820958D1*
X634965Y1827479D1*
X629109Y1834311D1*
X623614Y1841437D1*
X618495Y1848839D1*
X613766Y1856495D1*
X609440Y1864386D1*
X605528Y1872490D1*
X602039Y1880786D1*
X598986Y1889251D1*
X596374Y1897862D1*
X594211Y1906597D1*
X592503Y1915433D1*
X591255Y1924345D1*
X590469Y1933310D1*
X590148Y1942303D1*
X590294Y1951301D1*
X590904Y1960278D1*
X591978Y1969214D1*
X593513Y1978080D1*
X595505Y1986857D1*
X597948Y1995517D1*
X600836Y2004041D1*
X604161Y2012403D1*
X607915Y2020581D1*
X612087Y2028555D1*
X616665Y2036302D1*
X621638Y2043802D1*
X626993Y2051034D1*
X632715Y2057980D1*
X638789Y2064621D1*
X645197Y2070938D1*
X651924Y2076915D1*
X658951Y2082535D1*
X666261Y2087786D1*
X673832Y2092651D1*
X681644Y2097117D1*
X689677Y2101173D1*
X697909Y2104808D1*
X706319Y2108013D1*
X714882Y2110777D1*
X723577Y2113096D1*
X732381Y2114961D1*
X741269Y2116367D1*
X750219Y2117312D1*
X759205Y2117794D1*
X768203Y2117810D1*
X777192Y2117358D1*
X786144Y2116444D1*
X795037Y2115067D1*
X803846Y2113232D1*
X812550Y2110944D1*
X821123Y2108209D1*
X829543Y2105033D1*
X837787Y2101425D1*
X845835Y2097396D1*
X853661Y2092957D1*
X861249Y2088118D1*
X868576Y2082892D1*
X875622Y2077295D1*
X882370Y2071341D1*
X888801Y2065046D1*
X894896Y2058427D1*
X900642Y2051500D1*
X906021Y2044286D1*
X911020Y2036803D1*
X915625Y2029072D1*
X919824Y2021113D1*
X923605Y2012946D1*
X926958Y2004596D1*
X929875Y1996083D1*
X932348Y1987429D1*
X934370Y1978661D1*
X935936Y1969799D1*
X937039Y1960867D1*
X937681Y1951892D1*
X937860Y1944000D1*
X937802Y1939500D1*
X1487802D2*
X1487336Y1930513D1*
X1486406Y1921563D1*
X1485014Y1912672D1*
X1483164Y1903865D1*
X1480861Y1895167D1*
X1478110Y1886597D1*
X1474920Y1878182D1*
X1471299Y1869945D1*
X1467257Y1861904D1*
X1462803Y1854085D1*
X1457951Y1846505D1*
X1452715Y1839188D1*
X1447105Y1832151D1*
X1441140Y1825413D1*
X1434833Y1818993D1*
X1428203Y1812909D1*
X1421268Y1807176D1*
X1414045Y1801808D1*
X1406552Y1796823D1*
X1398814Y1792231D1*
X1390846Y1788046D1*
X1382675Y1784278D1*
X1374318Y1780938D1*
X1365801Y1778035D1*
X1357143Y1775577D1*
X1348371Y1773571D1*
X1339507Y1772021D1*
X1330573Y1770932D1*
X1321596Y1770306D1*
X1312598Y1770146D1*
X1303605Y1770451D1*
X1294639Y1771222D1*
X1285724Y1772454D1*
X1276886Y1774147D1*
X1268147Y1776295D1*
X1259531Y1778892D1*
X1251062Y1781932D1*
X1242760Y1785406D1*
X1234650Y1789304D1*
X1226751Y1793617D1*
X1219087Y1798333D1*
X1211677Y1803440D1*
X1204541Y1808923D1*
X1197698Y1814766D1*
X1191167Y1820958D1*
X1184965Y1827479D1*
X1179109Y1834311D1*
X1173614Y1841437D1*
X1168495Y1848839D1*
X1163766Y1856495D1*
X1159440Y1864386D1*
X1155528Y1872490D1*
X1152039Y1880786D1*
X1148986Y1889251D1*
X1146374Y1897862D1*
X1144211Y1906597D1*
X1142503Y1915433D1*
X1141255Y1924345D1*
X1140469Y1933310D1*
X1140148Y1942303D1*
X1140294Y1951301D1*
X1140904Y1960278D1*
X1141978Y1969214D1*
X1143513Y1978080D1*
X1145505Y1986857D1*
X1147948Y1995517D1*
X1150836Y2004041D1*
X1154161Y2012403D1*
X1157915Y2020581D1*
X1162087Y2028555D1*
X1166665Y2036302D1*
X1171638Y2043802D1*
X1176993Y2051034D1*
X1182715Y2057980D1*
X1188789Y2064621D1*
X1195197Y2070938D1*
X1201924Y2076915D1*
X1208951Y2082535D1*
X1216261Y2087786D1*
X1223832Y2092651D1*
X1231644Y2097117D1*
X1239677Y2101173D1*
X1247909Y2104808D1*
X1256319Y2108013D1*
X1264882Y2110777D1*
X1273577Y2113096D1*
X1282381Y2114961D1*
X1291269Y2116367D1*
X1300219Y2117312D1*
X1309205Y2117794D1*
X1318203Y2117810D1*
X1327192Y2117358D1*
X1336144Y2116444D1*
X1345037Y2115067D1*
X1353846Y2113232D1*
X1362550Y2110944D1*
X1371123Y2108209D1*
X1379543Y2105033D1*
X1387787Y2101425D1*
X1395835Y2097396D1*
X1403661Y2092957D1*
X1411249Y2088118D1*
X1418576Y2082892D1*
X1425622Y2077295D1*
X1432370Y2071341D1*
X1438801Y2065046D1*
X1444896Y2058427D1*
X1450642Y2051500D1*
X1456021Y2044286D1*
X1461020Y2036803D1*
X1465625Y2029072D1*
X1469824Y2021113D1*
X1473605Y2012946D1*
X1476958Y2004596D1*
X1479875Y1996083D1*
X1482348Y1987429D1*
X1484370Y1978661D1*
X1485936Y1969799D1*
X1487039Y1960867D1*
X1487681Y1951892D1*
X1487860Y1944000D1*
X1487802Y1939500D1*
X2037802D2*
X2037336Y1930513D1*
X2036406Y1921563D1*
X2035014Y1912672D1*
X2033164Y1903865D1*
X2030861Y1895167D1*
X2028110Y1886597D1*
X2024920Y1878182D1*
X2021299Y1869945D1*
X2017257Y1861904D1*
X2012803Y1854085D1*
X2007951Y1846505D1*
X2002715Y1839188D1*
X1997105Y1832151D1*
X1991140Y1825413D1*
X1984833Y1818993D1*
X1978203Y1812909D1*
X1971268Y1807176D1*
X1964045Y1801808D1*
X1956552Y1796823D1*
X1948814Y1792231D1*
X1940846Y1788046D1*
X1932675Y1784278D1*
X1924318Y1780938D1*
X1915801Y1778035D1*
X1907143Y1775577D1*
X1898371Y1773571D1*
X1889507Y1772021D1*
X1880573Y1770932D1*
X1871596Y1770306D1*
X1862598Y1770146D1*
X1853605Y1770451D1*
X1844639Y1771222D1*
X1835724Y1772454D1*
X1826886Y1774147D1*
X1818147Y1776295D1*
X1809531Y1778892D1*
X1801062Y1781932D1*
X1792760Y1785406D1*
X1784650Y1789304D1*
X1776751Y1793617D1*
X1769087Y1798333D1*
X1761677Y1803440D1*
X1754541Y1808923D1*
X1747698Y1814766D1*
X1741167Y1820958D1*
X1734965Y1827479D1*
X1729109Y1834311D1*
X1723614Y1841437D1*
X1718495Y1848839D1*
X1713766Y1856495D1*
X1709440Y1864386D1*
X1705528Y1872490D1*
X1702039Y1880786D1*
X1698986Y1889251D1*
X1696374Y1897862D1*
X1694211Y1906597D1*
X1692503Y1915433D1*
X1691255Y1924345D1*
X1690469Y1933310D1*
X1690148Y1942303D1*
X1690294Y1951301D1*
X1690904Y1960278D1*
X1691978Y1969214D1*
X1693513Y1978080D1*
X1695505Y1986857D1*
X1697948Y1995517D1*
X1700836Y2004041D1*
X1704161Y2012403D1*
X1707915Y2020581D1*
X1712087Y2028555D1*
X1716665Y2036302D1*
X1721638Y2043802D1*
X1726993Y2051034D1*
X1732715Y2057980D1*
X1738789Y2064621D1*
X1745197Y2070938D1*
X1751924Y2076915D1*
X1758951Y2082535D1*
X1766261Y2087786D1*
X1773832Y2092651D1*
X1781644Y2097117D1*
X1789677Y2101173D1*
X1797909Y2104808D1*
X1806319Y2108013D1*
X1814882Y2110777D1*
X1823577Y2113096D1*
X1832381Y2114961D1*
X1841269Y2116367D1*
X1850219Y2117312D1*
X1859205Y2117794D1*
X1868203Y2117810D1*
X1877192Y2117358D1*
X1886144Y2116444D1*
X1895037Y2115067D1*
X1903846Y2113232D1*
X1912550Y2110944D1*
X1921123Y2108209D1*
X1929543Y2105033D1*
X1937787Y2101425D1*
X1945835Y2097396D1*
X1953661Y2092957D1*
X1961249Y2088118D1*
X1968576Y2082892D1*
X1975622Y2077295D1*
X1982370Y2071341D1*
X1988801Y2065046D1*
X1994896Y2058427D1*
X2000642Y2051500D1*
X2006021Y2044286D1*
X2011020Y2036803D1*
X2015625Y2029072D1*
X2019824Y2021113D1*
X2023605Y2012946D1*
X2026958Y2004596D1*
X2029875Y1996083D1*
X2032348Y1987429D1*
X2034370Y1978661D1*
X2035936Y1969799D1*
X2037039Y1960867D1*
X2037681Y1951892D1*
X2037860Y1944000D1*
X2037802Y1939500D1*
X2587802D2*
X2587336Y1930513D1*
X2586406Y1921563D1*
X2585014Y1912672D1*
X2583164Y1903865D1*
X2580861Y1895167D1*
X2578110Y1886597D1*
X2574920Y1878182D1*
X2571299Y1869945D1*
X2567257Y1861904D1*
X2562803Y1854085D1*
X2557951Y1846505D1*
X2552715Y1839188D1*
X2547105Y1832151D1*
X2541140Y1825413D1*
X2534833Y1818993D1*
X2528203Y1812909D1*
X2521268Y1807176D1*
X2514045Y1801808D1*
X2506552Y1796823D1*
X2498814Y1792231D1*
X2490846Y1788046D1*
X2482675Y1784278D1*
X2474318Y1780938D1*
X2465801Y1778035D1*
X2457143Y1775577D1*
X2448371Y1773571D1*
X2439507Y1772021D1*
X2430573Y1770932D1*
X2421596Y1770306D1*
X2412598Y1770146D1*
X2403605Y1770451D1*
X2394639Y1771222D1*
X2385724Y1772454D1*
X2376886Y1774147D1*
X2368147Y1776295D1*
X2359531Y1778892D1*
X2351062Y1781932D1*
X2342760Y1785406D1*
X2334650Y1789304D1*
X2326751Y1793617D1*
X2319087Y1798333D1*
X2311677Y1803440D1*
X2304541Y1808923D1*
X2297698Y1814766D1*
X2291167Y1820958D1*
X2284965Y1827479D1*
X2279109Y1834311D1*
X2273614Y1841437D1*
X2268495Y1848839D1*
X2263766Y1856495D1*
X2259440Y1864386D1*
X2255528Y1872490D1*
X2252039Y1880786D1*
X2248986Y1889251D1*
X2246374Y1897862D1*
X2244211Y1906597D1*
X2242503Y1915433D1*
X2241255Y1924345D1*
X2240469Y1933310D1*
X2240148Y1942303D1*
X2240294Y1951301D1*
X2240904Y1960278D1*
X2241978Y1969214D1*
X2243513Y1978080D1*
X2245505Y1986857D1*
X2247948Y1995517D1*
X2250836Y2004041D1*
X2254161Y2012403D1*
X2257915Y2020581D1*
X2262087Y2028555D1*
X2266665Y2036302D1*
X2271638Y2043802D1*
X2276993Y2051034D1*
X2282715Y2057980D1*
X2288789Y2064621D1*
X2295197Y2070938D1*
X2301924Y2076915D1*
X2308951Y2082535D1*
X2316261Y2087786D1*
X2323832Y2092651D1*
X2331644Y2097117D1*
X2339677Y2101173D1*
X2347909Y2104808D1*
X2356319Y2108013D1*
X2364882Y2110777D1*
X2373577Y2113096D1*
X2382381Y2114961D1*
X2391269Y2116367D1*
X2400219Y2117312D1*
X2409205Y2117794D1*
X2418203Y2117810D1*
X2427192Y2117358D1*
X2436144Y2116444D1*
X2445037Y2115067D1*
X2453846Y2113232D1*
X2462550Y2110944D1*
X2471123Y2108209D1*
X2479543Y2105033D1*
X2487787Y2101425D1*
X2495835Y2097396D1*
X2503661Y2092957D1*
X2511249Y2088118D1*
X2518576Y2082892D1*
X2525622Y2077295D1*
X2532370Y2071341D1*
X2538801Y2065046D1*
X2544896Y2058427D1*
X2550642Y2051500D1*
X2556021Y2044286D1*
X2561020Y2036803D1*
X2565625Y2029072D1*
X2569824Y2021113D1*
X2573605Y2012946D1*
X2576958Y2004596D1*
X2579875Y1996083D1*
X2582348Y1987429D1*
X2584370Y1978661D1*
X2585936Y1969799D1*
X2587039Y1960867D1*
X2587681Y1951892D1*
X2587860Y1944000D1*
X2587802Y1939500D1*
X937802Y2589500D2*
X937336Y2580513D1*
X936406Y2571563D1*
X935014Y2562672D1*
X933164Y2553865D1*
X930861Y2545167D1*
X928110Y2536597D1*
X924920Y2528182D1*
X921299Y2519945D1*
X917257Y2511904D1*
X912803Y2504085D1*
X907951Y2496505D1*
X902715Y2489188D1*
X897105Y2482151D1*
X891140Y2475413D1*
X884833Y2468993D1*
X878203Y2462909D1*
X871268Y2457176D1*
X864045Y2451808D1*
X856552Y2446823D1*
X848814Y2442231D1*
X840846Y2438046D1*
X832675Y2434278D1*
X824318Y2430938D1*
X815801Y2428035D1*
X807143Y2425577D1*
X798371Y2423571D1*
X789507Y2422021D1*
X780573Y2420932D1*
X771596Y2420306D1*
X762598Y2420146D1*
X753605Y2420451D1*
X744639Y2421222D1*
X735724Y2422454D1*
X726886Y2424147D1*
X718147Y2426295D1*
X709531Y2428892D1*
X701062Y2431932D1*
X692760Y2435406D1*
X684650Y2439304D1*
X676751Y2443617D1*
X669087Y2448333D1*
X661677Y2453440D1*
X654541Y2458923D1*
X647698Y2464766D1*
X641167Y2470958D1*
X634965Y2477479D1*
X629109Y2484311D1*
X623614Y2491437D1*
X618495Y2498839D1*
X613766Y2506495D1*
X609440Y2514386D1*
X605528Y2522490D1*
X602039Y2530786D1*
X598986Y2539251D1*
X596374Y2547862D1*
X594211Y2556597D1*
X592503Y2565433D1*
X591255Y2574345D1*
X590469Y2583310D1*
X590148Y2592303D1*
X590294Y2601301D1*
X590904Y2610278D1*
X591978Y2619214D1*
X593513Y2628080D1*
X595505Y2636857D1*
X597948Y2645517D1*
X600836Y2654041D1*
X604161Y2662403D1*
X607915Y2670581D1*
X612087Y2678555D1*
X616665Y2686302D1*
X621638Y2693802D1*
X626993Y2701034D1*
X632715Y2707980D1*
X638789Y2714621D1*
X645197Y2720938D1*
X651924Y2726915D1*
X658951Y2732535D1*
X666261Y2737786D1*
X673832Y2742651D1*
X681644Y2747117D1*
X689677Y2751173D1*
X697909Y2754808D1*
X706319Y2758013D1*
X714882Y2760777D1*
X723577Y2763096D1*
X732381Y2764961D1*
X741269Y2766367D1*
X750219Y2767312D1*
X759205Y2767794D1*
X768203Y2767810D1*
X777192Y2767358D1*
X786144Y2766444D1*
X795037Y2765067D1*
X803846Y2763232D1*
X812550Y2760944D1*
X821123Y2758209D1*
X829543Y2755033D1*
X837787Y2751425D1*
X845835Y2747396D1*
X853661Y2742957D1*
X861249Y2738118D1*
X868576Y2732892D1*
X875622Y2727295D1*
X882370Y2721341D1*
X888801Y2715046D1*
X894896Y2708427D1*
X900642Y2701500D1*
X906021Y2694286D1*
X911020Y2686803D1*
X915625Y2679072D1*
X919824Y2671113D1*
X923605Y2662946D1*
X926958Y2654596D1*
X929875Y2646083D1*
X932348Y2637429D1*
X934370Y2628661D1*
X935936Y2619799D1*
X937039Y2610867D1*
X937681Y2601892D1*
X937860Y2594000D1*
X937802Y2589500D1*
X1487802D2*
X1487336Y2580513D1*
X1486406Y2571563D1*
X1485014Y2562672D1*
X1483164Y2553865D1*
X1480861Y2545167D1*
X1478110Y2536597D1*
X1474920Y2528182D1*
X1471299Y2519945D1*
X1467257Y2511904D1*
X1462803Y2504085D1*
X1457951Y2496505D1*
X1452715Y2489188D1*
X1447105Y2482151D1*
X1441140Y2475413D1*
X1434833Y2468993D1*
X1428203Y2462909D1*
X1421268Y2457176D1*
X1414045Y2451808D1*
X1406552Y2446823D1*
X1398814Y2442231D1*
X1390846Y2438046D1*
X1382675Y2434278D1*
X1374318Y2430938D1*
X1365801Y2428035D1*
X1357143Y2425577D1*
X1348371Y2423571D1*
X1339507Y2422021D1*
X1330573Y2420932D1*
X1321596Y2420306D1*
X1312598Y2420146D1*
X1303605Y2420451D1*
X1294639Y2421222D1*
X1285724Y2422454D1*
X1276886Y2424147D1*
X1268147Y2426295D1*
X1259531Y2428892D1*
X1251062Y2431932D1*
X1242760Y2435406D1*
X1234650Y2439304D1*
X1226751Y2443617D1*
X1219087Y2448333D1*
X1211677Y2453440D1*
X1204541Y2458923D1*
X1197698Y2464766D1*
X1191167Y2470958D1*
X1184965Y2477479D1*
X1179109Y2484311D1*
X1173614Y2491437D1*
X1168495Y2498839D1*
X1163766Y2506495D1*
X1159440Y2514386D1*
X1155528Y2522490D1*
X1152039Y2530786D1*
X1148986Y2539251D1*
X1146374Y2547862D1*
X1144211Y2556597D1*
X1142503Y2565433D1*
X1141255Y2574345D1*
X1140469Y2583310D1*
X1140148Y2592303D1*
X1140294Y2601301D1*
X1140904Y2610278D1*
X1141978Y2619214D1*
X1143513Y2628080D1*
X1145505Y2636857D1*
X1147948Y2645517D1*
X1150836Y2654041D1*
X1154161Y2662403D1*
X1157915Y2670581D1*
X1162087Y2678555D1*
X1166665Y2686302D1*
X1171638Y2693802D1*
X1176993Y2701034D1*
X1182715Y2707980D1*
X1188789Y2714621D1*
X1195197Y2720938D1*
X1201924Y2726915D1*
X1208951Y2732535D1*
X1216261Y2737786D1*
X1223832Y2742651D1*
X1231644Y2747117D1*
X1239677Y2751173D1*
X1247909Y2754808D1*
X1256319Y2758013D1*
X1264882Y2760777D1*
X1273577Y2763096D1*
X1282381Y2764961D1*
X1291269Y2766367D1*
X1300219Y2767312D1*
X1309205Y2767794D1*
X1318203Y2767810D1*
X1327192Y2767358D1*
X1336144Y2766444D1*
X1345037Y2765067D1*
X1353846Y2763232D1*
X1362550Y2760944D1*
X1371123Y2758209D1*
X1379543Y2755033D1*
X1387787Y2751425D1*
X1395835Y2747396D1*
X1403661Y2742957D1*
X1411249Y2738118D1*
X1418576Y2732892D1*
X1425622Y2727295D1*
X1432370Y2721341D1*
X1438801Y2715046D1*
X1444896Y2708427D1*
X1450642Y2701500D1*
X1456021Y2694286D1*
X1461020Y2686803D1*
X1465625Y2679072D1*
X1469824Y2671113D1*
X1473605Y2662946D1*
X1476958Y2654596D1*
X1479875Y2646083D1*
X1482348Y2637429D1*
X1484370Y2628661D1*
X1485936Y2619799D1*
X1487039Y2610867D1*
X1487681Y2601892D1*
X1487860Y2594000D1*
X1487802Y2589500D1*
X2037802D2*
X2037336Y2580513D1*
X2036406Y2571563D1*
X2035014Y2562672D1*
X2033164Y2553865D1*
X2030861Y2545167D1*
X2028110Y2536597D1*
X2024920Y2528182D1*
X2021299Y2519945D1*
X2017257Y2511904D1*
X2012803Y2504085D1*
X2007951Y2496505D1*
X2002715Y2489188D1*
X1997105Y2482151D1*
X1991140Y2475413D1*
X1984833Y2468993D1*
X1978203Y2462909D1*
X1971268Y2457176D1*
X1964045Y2451808D1*
X1956552Y2446823D1*
X1948814Y2442231D1*
X1940846Y2438046D1*
X1932675Y2434278D1*
X1924318Y2430938D1*
X1915801Y2428035D1*
X1907143Y2425577D1*
X1898371Y2423571D1*
X1889507Y2422021D1*
X1880573Y2420932D1*
X1871596Y2420306D1*
X1862598Y2420146D1*
X1853605Y2420451D1*
X1844639Y2421222D1*
X1835724Y2422454D1*
X1826886Y2424147D1*
X1818147Y2426295D1*
X1809531Y2428892D1*
X1801062Y2431932D1*
X1792760Y2435406D1*
X1784650Y2439304D1*
X1776751Y2443617D1*
X1769087Y2448333D1*
X1761677Y2453440D1*
X1754541Y2458923D1*
X1747698Y2464766D1*
X1741167Y2470958D1*
X1734965Y2477479D1*
X1729109Y2484311D1*
X1723614Y2491437D1*
X1718495Y2498839D1*
X1713766Y2506495D1*
X1709440Y2514386D1*
X1705528Y2522490D1*
X1702039Y2530786D1*
X1698986Y2539251D1*
X1696374Y2547862D1*
X1694211Y2556597D1*
X1692503Y2565433D1*
X1691255Y2574345D1*
X1690469Y2583310D1*
X1690148Y2592303D1*
X1690294Y2601301D1*
X1690904Y2610278D1*
X1691978Y2619214D1*
X1693513Y2628080D1*
X1695505Y2636857D1*
X1697948Y2645517D1*
X1700836Y2654041D1*
X1704161Y2662403D1*
X1707915Y2670581D1*
X1712087Y2678555D1*
X1716665Y2686302D1*
X1721638Y2693802D1*
X1726993Y2701034D1*
X1732715Y2707980D1*
X1738789Y2714621D1*
X1745197Y2720938D1*
X1751924Y2726915D1*
X1758951Y2732535D1*
X1766261Y2737786D1*
X1773832Y2742651D1*
X1781644Y2747117D1*
X1789677Y2751173D1*
X1797909Y2754808D1*
X1806319Y2758013D1*
X1814882Y2760777D1*
X1823577Y2763096D1*
X1832381Y2764961D1*
X1841269Y2766367D1*
X1850219Y2767312D1*
X1859205Y2767794D1*
X1868203Y2767810D1*
X1877192Y2767358D1*
X1886144Y2766444D1*
X1895037Y2765067D1*
X1903846Y2763232D1*
X1912550Y2760944D1*
X1921123Y2758209D1*
X1929543Y2755033D1*
X1937787Y2751425D1*
X1945835Y2747396D1*
X1953661Y2742957D1*
X1961249Y2738118D1*
X1968576Y2732892D1*
X1975622Y2727295D1*
X1982370Y2721341D1*
X1988801Y2715046D1*
X1994896Y2708427D1*
X2000642Y2701500D1*
X2006021Y2694286D1*
X2011020Y2686803D1*
X2015625Y2679072D1*
X2019824Y2671113D1*
X2023605Y2662946D1*
X2026958Y2654596D1*
X2029875Y2646083D1*
X2032348Y2637429D1*
X2034370Y2628661D1*
X2035936Y2619799D1*
X2037039Y2610867D1*
X2037681Y2601892D1*
X2037860Y2594000D1*
X2037802Y2589500D1*
X2587802D2*
X2587336Y2580513D1*
X2586406Y2571563D1*
X2585014Y2562672D1*
X2583164Y2553865D1*
X2580861Y2545167D1*
X2578110Y2536597D1*
X2574920Y2528182D1*
X2571299Y2519945D1*
X2567257Y2511904D1*
X2562803Y2504085D1*
X2557951Y2496505D1*
X2552715Y2489188D1*
X2547105Y2482151D1*
X2541140Y2475413D1*
X2534833Y2468993D1*
X2528203Y2462909D1*
X2521268Y2457176D1*
X2514045Y2451808D1*
X2506552Y2446823D1*
X2498814Y2442231D1*
X2490846Y2438046D1*
X2482675Y2434278D1*
X2474318Y2430938D1*
X2465801Y2428035D1*
X2457143Y2425577D1*
X2448371Y2423571D1*
X2439507Y2422021D1*
X2430573Y2420932D1*
X2421596Y2420306D1*
X2412598Y2420146D1*
X2403605Y2420451D1*
X2394639Y2421222D1*
X2385724Y2422454D1*
X2376886Y2424147D1*
X2368147Y2426295D1*
X2359531Y2428892D1*
X2351062Y2431932D1*
X2342760Y2435406D1*
X2334650Y2439304D1*
X2326751Y2443617D1*
X2319087Y2448333D1*
X2311677Y2453440D1*
X2304541Y2458923D1*
X2297698Y2464766D1*
X2291167Y2470958D1*
X2284965Y2477479D1*
X2279109Y2484311D1*
X2273614Y2491437D1*
X2268495Y2498839D1*
X2263766Y2506495D1*
X2259440Y2514386D1*
X2255528Y2522490D1*
X2252039Y2530786D1*
X2248986Y2539251D1*
X2246374Y2547862D1*
X2244211Y2556597D1*
X2242503Y2565433D1*
X2241255Y2574345D1*
X2240469Y2583310D1*
X2240148Y2592303D1*
X2240294Y2601301D1*
X2240904Y2610278D1*
X2241978Y2619214D1*
X2243513Y2628080D1*
X2245505Y2636857D1*
X2247948Y2645517D1*
X2250836Y2654041D1*
X2254161Y2662403D1*
X2257915Y2670581D1*
X2262087Y2678555D1*
X2266665Y2686302D1*
X2271638Y2693802D1*
X2276993Y2701034D1*
X2282715Y2707980D1*
X2288789Y2714621D1*
X2295197Y2720938D1*
X2301924Y2726915D1*
X2308951Y2732535D1*
X2316261Y2737786D1*
X2323832Y2742651D1*
X2331644Y2747117D1*
X2339677Y2751173D1*
X2347909Y2754808D1*
X2356319Y2758013D1*
X2364882Y2760777D1*
X2373577Y2763096D1*
X2382381Y2764961D1*
X2391269Y2766367D1*
X2400219Y2767312D1*
X2409205Y2767794D1*
X2418203Y2767810D1*
X2427192Y2767358D1*
X2436144Y2766444D1*
X2445037Y2765067D1*
X2453846Y2763232D1*
X2462550Y2760944D1*
X2471123Y2758209D1*
X2479543Y2755033D1*
X2487787Y2751425D1*
X2495835Y2747396D1*
X2503661Y2742957D1*
X2511249Y2738118D1*
X2518576Y2732892D1*
X2525622Y2727295D1*
X2532370Y2721341D1*
X2538801Y2715046D1*
X2544896Y2708427D1*
X2550642Y2701500D1*
X2556021Y2694286D1*
X2561020Y2686803D1*
X2565625Y2679072D1*
X2569824Y2671113D1*
X2573605Y2662946D1*
X2576958Y2654596D1*
X2579875Y2646083D1*
X2582348Y2637429D1*
X2584370Y2628661D1*
X2585936Y2619799D1*
X2587039Y2610867D1*
X2587681Y2601892D1*
X2587860Y2594000D1*
X2587802Y2589500D1*
X961668Y4370749D2*
X961202Y4361762D1*
X960272Y4352812D1*
X958881Y4343921D1*
X957030Y4335114D1*
X954727Y4326416D1*
X951976Y4317846D1*
X948786Y4309432D1*
X945165Y4301194D1*
X941123Y4293154D1*
X936669Y4285335D1*
X931818Y4277755D1*
X926581Y4270437D1*
X920971Y4263400D1*
X915007Y4256663D1*
X908699Y4250243D1*
X902070Y4244159D1*
X895134Y4238425D1*
X887911Y4233058D1*
X880419Y4228072D1*
X872680Y4223480D1*
X864713Y4219295D1*
X856541Y4215528D1*
X848184Y4212188D1*
X839667Y4209285D1*
X831009Y4206827D1*
X822238Y4204820D1*
X813373Y4203270D1*
X804440Y4202181D1*
X795462Y4201555D1*
X786465Y4201395D1*
X777471Y4201701D1*
X768505Y4202471D1*
X759591Y4203703D1*
X750752Y4205396D1*
X742013Y4207545D1*
X733398Y4210142D1*
X724928Y4213181D1*
X716626Y4216655D1*
X708516Y4220554D1*
X700617Y4224866D1*
X692953Y4229583D1*
X685543Y4234689D1*
X678407Y4240172D1*
X671564Y4246016D1*
X665033Y4252207D1*
X658831Y4258728D1*
X652975Y4265560D1*
X647480Y4272686D1*
X642361Y4280088D1*
X637633Y4287744D1*
X633306Y4295635D1*
X629394Y4303739D1*
X625906Y4312035D1*
X622852Y4320500D1*
X620240Y4329112D1*
X618077Y4337846D1*
X616369Y4346682D1*
X615121Y4355594D1*
X614335Y4364559D1*
X614014Y4373552D1*
X614160Y4382550D1*
X614770Y4391528D1*
X615844Y4400463D1*
X617379Y4409329D1*
X619371Y4418106D1*
X621814Y4426766D1*
X624702Y4435290D1*
X628028Y4443652D1*
X631781Y4451831D1*
X635953Y4459804D1*
X640531Y4467551D1*
X645504Y4475051D1*
X650860Y4482283D1*
X656581Y4489230D1*
X662655Y4495870D1*
X669063Y4502188D1*
X675790Y4508164D1*
X682818Y4513785D1*
X690127Y4519035D1*
X697698Y4523900D1*
X705510Y4528366D1*
X713543Y4532423D1*
X721776Y4536058D1*
X730185Y4539262D1*
X738748Y4542026D1*
X747444Y4544345D1*
X756247Y4546210D1*
X765135Y4547617D1*
X774085Y4548562D1*
X783071Y4549043D1*
X792070Y4549059D1*
X801058Y4548608D1*
X810010Y4547693D1*
X818903Y4546316D1*
X827713Y4544482D1*
X836416Y4542193D1*
X844990Y4539458D1*
X853409Y4536282D1*
X861654Y4532675D1*
X869701Y4528646D1*
X877528Y4524206D1*
X885115Y4519367D1*
X892442Y4514142D1*
X899488Y4508545D1*
X906236Y4502591D1*
X912667Y4496295D1*
X918762Y4489676D1*
X924508Y4482749D1*
X929887Y4475535D1*
X934886Y4468052D1*
X939491Y4460322D1*
X943690Y4452362D1*
X947471Y4444196D1*
X950824Y4435845D1*
X953741Y4427332D1*
X956214Y4418678D1*
X958236Y4409911D1*
X959802Y4401049D1*
X960906Y4392117D1*
X961547Y4383142D1*
X961726Y4375249D1*
X961668Y4370749D1*
X962802Y3589500D2*
X962336Y3580513D1*
X961406Y3571563D1*
X960014Y3562672D1*
X958164Y3553865D1*
X955861Y3545167D1*
X953110Y3536597D1*
X949920Y3528182D1*
X946299Y3519945D1*
X942257Y3511904D1*
X937803Y3504085D1*
X932951Y3496505D1*
X927715Y3489188D1*
X922105Y3482151D1*
X916140Y3475413D1*
X909833Y3468993D1*
X903203Y3462909D1*
X896268Y3457176D1*
X889045Y3451808D1*
X881552Y3446823D1*
X873814Y3442231D1*
X865846Y3438046D1*
X857675Y3434278D1*
X849318Y3430938D1*
X840801Y3428035D1*
X832143Y3425577D1*
X823371Y3423571D1*
X814507Y3422021D1*
X805573Y3420932D1*
X796596Y3420306D1*
X787598Y3420146D1*
X778605Y3420451D1*
X769639Y3421222D1*
X760724Y3422454D1*
X751886Y3424147D1*
X743147Y3426295D1*
X734531Y3428892D1*
X726062Y3431932D1*
X717760Y3435406D1*
X709650Y3439304D1*
X701751Y3443617D1*
X694087Y3448333D1*
X686677Y3453440D1*
X679541Y3458923D1*
X672698Y3464766D1*
X666167Y3470958D1*
X659965Y3477479D1*
X654109Y3484311D1*
X648614Y3491437D1*
X643495Y3498839D1*
X638766Y3506495D1*
X634440Y3514386D1*
X630528Y3522490D1*
X627039Y3530786D1*
X623986Y3539251D1*
X621374Y3547862D1*
X619211Y3556597D1*
X617503Y3565433D1*
X616255Y3574345D1*
X615469Y3583310D1*
X615148Y3592303D1*
X615294Y3601301D1*
X615904Y3610278D1*
X616978Y3619214D1*
X618513Y3628080D1*
X620505Y3636857D1*
X622948Y3645517D1*
X625836Y3654041D1*
X629161Y3662403D1*
X632915Y3670581D1*
X637087Y3678555D1*
X641665Y3686302D1*
X646638Y3693802D1*
X651993Y3701034D1*
X657715Y3707980D1*
X663789Y3714621D1*
X670197Y3720938D1*
X676924Y3726915D1*
X683951Y3732535D1*
X691261Y3737786D1*
X698832Y3742651D1*
X706644Y3747117D1*
X714677Y3751173D1*
X722909Y3754808D1*
X731319Y3758013D1*
X739882Y3760777D1*
X748577Y3763096D1*
X757381Y3764961D1*
X766269Y3766367D1*
X775219Y3767312D1*
X784205Y3767794D1*
X793203Y3767810D1*
X802192Y3767358D1*
X811144Y3766444D1*
X820037Y3765067D1*
X828846Y3763232D1*
X837550Y3760944D1*
X846123Y3758209D1*
X854543Y3755033D1*
X862787Y3751425D1*
X870835Y3747396D1*
X878661Y3742957D1*
X886249Y3738118D1*
X893576Y3732892D1*
X900622Y3727295D1*
X907370Y3721341D1*
X913801Y3715046D1*
X919896Y3708427D1*
X925642Y3701500D1*
X931021Y3694286D1*
X936020Y3686803D1*
X940625Y3679072D1*
X944824Y3671113D1*
X948605Y3662946D1*
X951958Y3654596D1*
X954875Y3646083D1*
X957348Y3637429D1*
X959370Y3628661D1*
X960936Y3619799D1*
X962039Y3610867D1*
X962681Y3601892D1*
X962860Y3594000D1*
X962802Y3589500D1*
X1732119Y4670472D2*
X1833622Y4670412D1*
X1836644Y4669934D1*
X1839554Y4668988D1*
X1842281Y4667598D1*
X1844756Y4665801D1*
X1846920Y4663636D1*
X1848718Y4661161D1*
X1850108Y4658434D1*
X1851054Y4655525D1*
X1851531Y4652503D1*
X1851592Y4632972D1*
X1851531Y3149600D1*
X1851054Y3146577D1*
X1850108Y3143668D1*
X1848718Y3140941D1*
X1846920Y3138466D1*
X1844756Y3136302D1*
X1842281Y3134504D1*
X1839554Y3133114D1*
X1836644Y3132168D1*
X1833622Y3131690D1*
X1814092Y3131630D1*
X1730572Y3131690D1*
X1727550Y3132168D1*
X1724640Y3133114D1*
X1721913Y3134504D1*
X1719438Y3136302D1*
X1717274Y3138466D1*
X1715476Y3140941D1*
X1714087Y3143668D1*
X1713140Y3146577D1*
X1712663Y3149600D1*
X1712602Y3169130D1*
X1712663Y4652503D1*
X1713140Y4655525D1*
X1714087Y4658434D1*
X1715476Y4661161D1*
X1717274Y4663636D1*
X1719438Y4665801D1*
X1721913Y4667598D1*
X1724640Y4668988D1*
X1727550Y4669934D1*
X1730572Y4670412D1*
X1732109Y4670472D1*
X2120365Y4670924D2*
X2221867Y4670864D1*
X2224890Y4670385D1*
X2227799Y4669440D1*
X2230526Y4668050D1*
X2233001Y4666252D1*
X2235165Y4664088D1*
X2236963Y4661613D1*
X2238353Y4658886D1*
X2239298Y4655976D1*
X2239777Y4652954D1*
X2239837Y4633424D1*
X2239777Y3150051D1*
X2239298Y3147029D1*
X2238353Y3144119D1*
X2236963Y3141392D1*
X2235165Y3138917D1*
X2233001Y3136753D1*
X2230526Y3134955D1*
X2227799Y3133566D1*
X2224890Y3132621D1*
X2221867Y3132142D1*
X2202337Y3132081D1*
X2118818Y3132142D1*
X2115795Y3132621D1*
X2112886Y3133566D1*
X2110159Y3134955D1*
X2107684Y3136753D1*
X2105520Y3138917D1*
X2103722Y3141392D1*
X2102332Y3144119D1*
X2101387Y3147029D1*
X2100908Y3150051D1*
X2100848Y3169581D1*
X2100908Y4652954D1*
X2101387Y4655976D1*
X2102332Y4658886D1*
X2103722Y4661613D1*
X2105520Y4664088D1*
X2107684Y4666252D1*
X2110159Y4668050D1*
X2112886Y4669440D1*
X2115795Y4670385D1*
X2118818Y4670864D1*
X2120354Y4670924D1*
X500110Y2933249D2*
Y2813701D1*
X520951Y2792774D1*
X522552Y2790571D1*
X523789Y2788143D1*
X524631Y2785552D1*
X525058Y2782862D1*
Y2780138D1*
X524631Y2777448D1*
X523789Y2774857D1*
X522552Y2772429D1*
X520951Y2770226D1*
X519025Y2768299D1*
X516822Y2766698D1*
X514394Y2765462D1*
X511803Y2764619D1*
X509113Y2764193D1*
X506388D1*
X503698Y2764619D1*
X501108Y2765462D1*
X498680Y2766698D1*
X496476Y2768299D1*
X476383Y2788316D1*
X469550Y2795226D1*
X467949Y2797429D1*
X466713Y2799857D1*
X465870Y2802448D1*
X465444Y2805138D1*
X465391Y2833500D1*
X465444Y2939112D1*
X465870Y2941802D1*
X466713Y2944392D1*
X467949Y2946820D1*
X469550Y2949024D1*
X471476Y2950950D1*
X473680Y2952551D1*
X476108Y2953787D1*
X478698Y2954630D1*
X481388Y2955056D1*
X484113D1*
X486803Y2954630D1*
X489394Y2953787D1*
X491822Y2952551D1*
X494025Y2950950D1*
X495951Y2949024D1*
X497552Y2946820D1*
X498789Y2944392D1*
X499631Y2941802D1*
X500058Y2939112D1*
X500110Y2933249D1*
D28*
X2189000Y1044000D3*
X989000D3*
X595000D3*
Y1519818D3*
X989000Y1519000D3*
X1789000Y1044000D3*
X1389000Y1519000D3*
X1789000D3*
X2189000D3*
D29*
X2489000Y512150D3*
X689000D3*
D30*
X1392000Y1032000D3*
D29*
X689000Y5332000D3*
X2489000D3*
D28*
X2583000Y1519000D3*
X2582751Y1044000D3*
X764000Y1944000D3*
X1314000D3*
X1864000D3*
X2414000D3*
X764000Y2594000D3*
X1314000D3*
X1864000D3*
X2414000D3*
X787866Y4375249D3*
X789000Y3594000D3*
M02*
