M48
INCH
T01C0.0787
T02C0.1201
T03C0.126
T04C0.212
T05C0.2362
T06C0.2677
T07C0.315
%
T02
X+017390Y+049440
X+014390Y+049440
X+011390Y+049440
T04
X+007890Y+049440
T01
X+013953Y+047073
X+025577Y+047073
T02
X+020390Y+049440
T04
X+023890Y+049440
T05
X+021890Y+010440
X+009890Y+010440
X+005950Y+010440
X+005950Y+015198
X+009890Y+015190
X+017890Y+010440
X+013890Y+015190
X+017890Y+015190
X+021890Y+015190
T03
X+025382Y+005121G85X+024398Y+005121
X+007382Y+005121G85X+006398Y+005121
T07
X+013920Y+010320
T03
X+007382Y+053320G85X+006398Y+053320
X+025382Y+053320G85X+024398Y+053320
T05
X+025830Y+015190
X+025828Y+010440
X+007640Y+019440
X+013140Y+019440
X+018640Y+019440
X+024140Y+019440
T06
X+007640Y+025940
X+013140Y+025940
X+018640Y+025940
X+024140Y+025940
X+007879Y+043752
X+007890Y+035940
T00
M30
