G04 DipTrace 3.3.0.0*
G04 monsooon_panel.GTO*
%MOIN*%
G04 #@! TF.FileFunction,Legend,Top*
G04 #@! TF.Part,Single*
%ADD12C,0.001*%
%ADD18C,0.006*%
%ADD46C,0.00772*%
%FSLAX26Y26*%
G04*
G70*
G90*
G75*
G01*
G04 TopSilk*
%LPD*%
X1492871Y3901178D2*
D18*
X1681117D1*
X1881726Y3899504D2*
X2067748D1*
X2270332Y3900385D2*
X2445776D1*
X1645251Y1656500D2*
X1670251Y1631500D1*
X1526500Y1656500D2*
X1501500Y1631500D1*
X1526500Y1656500D2*
Y2675249D1*
X1395251Y2806500D1*
Y2956500D1*
X1782751D2*
Y2806500D1*
X1645251Y2669000D1*
Y1656500D2*
Y2669000D1*
X2164000Y1675249D2*
X2139000Y1700249D1*
Y2725249D1*
X2176500Y2762749D1*
Y2956500D1*
X2564000D2*
Y2800249D1*
X2645251Y2719000D1*
Y1700249D1*
X2626500Y1675249D1*
X1307751Y2412749D2*
Y2306500D1*
Y2212749D2*
Y2125249D1*
X1857751Y2306500D2*
Y2412749D1*
Y2212749D2*
Y2125249D1*
X757751Y2206500D2*
Y2119000D1*
Y2312749D2*
Y2412749D1*
X2407751Y2312749D2*
Y2419000D1*
Y2212749D2*
Y2125249D1*
G36*
X2489000Y5081500D2*
Y5106500D1*
X2514000Y5087749D1*
D1*
X2489000Y5081500D1*
G37*
G36*
X2495251Y5112749D2*
X2520251Y5094000D1*
X2557751Y5156500D1*
X2539000Y5169000D1*
D1*
X2495251Y5112749D1*
G37*
X558567Y1331854D2*
D12*
X564567D1*
X558067Y1330854D2*
X564067D1*
X557652Y1329854D2*
X563652D1*
X557263Y1328854D2*
X563263D1*
X590567D2*
X603567D1*
X645567D2*
X662567D1*
X477567Y1327854D2*
X483567D1*
X522567D2*
X528567D1*
X556907D2*
X562907D1*
X587224D2*
X606910D1*
X643147D2*
X666824D1*
X680567D2*
X724567D1*
X477721Y1326854D2*
X483913D1*
X521951D2*
X528067D1*
X556579D2*
X562579D1*
X584530D2*
X609604D1*
X641031D2*
X670219D1*
X680567D2*
X724567D1*
X477973Y1325854D2*
X484245D1*
X521412D2*
X527652D1*
X556233D2*
X562233D1*
X582500D2*
X611634D1*
X639327D2*
X671646D1*
X680567D2*
X724567D1*
X478267Y1324854D2*
X484562D1*
X520972D2*
X527263D1*
X555895D2*
X561895D1*
X580973D2*
X613165D1*
X638053D2*
X672143D1*
X680567D2*
X724567D1*
X478570Y1323854D2*
X484904D1*
X520605D2*
X526907D1*
X555575D2*
X561575D1*
X579767D2*
X614402D1*
X637107D2*
X672406D1*
X680567D2*
X724567D1*
X478906Y1322854D2*
X485240D1*
X520243D2*
X526579D1*
X555231D2*
X561231D1*
X578798D2*
X615467D1*
X636318D2*
X649002D1*
X658567D2*
X672567D1*
X680567D2*
X724567D1*
X479240Y1321854D2*
X485559D1*
X519899D2*
X526233D1*
X554895D2*
X560895D1*
X578034D2*
X587609D1*
X606174D2*
X616375D1*
X635592D2*
X646000D1*
X699567D2*
X705567D1*
X479560Y1320854D2*
X485903D1*
X519576D2*
X525895D1*
X554575D2*
X560575D1*
X577407D2*
X585780D1*
X608340D2*
X617110D1*
X634952D2*
X643740D1*
X699567D2*
X705567D1*
X479903Y1319854D2*
X486239D1*
X519232D2*
X525571D1*
X554231D2*
X560231D1*
X576851D2*
X584221D1*
X609974D2*
X617696D1*
X634409D2*
X642113D1*
X699567D2*
X705567D1*
X480239Y1318854D2*
X486559D1*
X518895D2*
X525196D1*
X553895D2*
X559895D1*
X576330D2*
X583015D1*
X611168D2*
X618153D1*
X633970D2*
X640940D1*
X699567D2*
X705567D1*
X480559Y1317854D2*
X486902D1*
X518571D2*
X524767D1*
X553575D2*
X559575D1*
X575825D2*
X582127D1*
X612034D2*
X618526D1*
X633604D2*
X640092D1*
X699567D2*
X705567D1*
X480902Y1316854D2*
X487239D1*
X518196D2*
X524331D1*
X553231D2*
X559231D1*
X575354D2*
X581444D1*
X612702D2*
X618886D1*
X633246D2*
X639462D1*
X699567D2*
X705567D1*
X481239Y1315854D2*
X487559D1*
X517767D2*
X523940D1*
X552895D2*
X558895D1*
X574948D2*
X580869D1*
X613270D2*
X619199D1*
X632934D2*
X638990D1*
X699567D2*
X705567D1*
X481559Y1314854D2*
X487902D1*
X517331D2*
X523593D1*
X552575D2*
X558575D1*
X574596D2*
X580374D1*
X613762D2*
X619430D1*
X632703D2*
X638611D1*
X699567D2*
X705567D1*
X481902Y1313854D2*
X488239D1*
X516940D2*
X523238D1*
X552231D2*
X558231D1*
X574243D2*
X579993D1*
X614141D2*
X619659D1*
X632475D2*
X638249D1*
X699567D2*
X705567D1*
X482239Y1312854D2*
X488559D1*
X516593D2*
X522897D1*
X551895D2*
X557895D1*
X573937D2*
X579761D1*
X614374D2*
X619943D1*
X632190D2*
X637935D1*
X699567D2*
X705567D1*
X482563Y1311854D2*
X488902D1*
X516238D2*
X522572D1*
X551575D2*
X557575D1*
X573742D2*
X579611D1*
X614523D2*
X620218D1*
X631916D2*
X637704D1*
X699567D2*
X705567D1*
X482938Y1310854D2*
X489239D1*
X515897D2*
X522197D1*
X551231D2*
X557231D1*
X573638D2*
X579433D1*
X614701D2*
X620400D1*
X631734D2*
X637475D1*
X699567D2*
X705567D1*
X483366Y1309854D2*
X489559D1*
X515575D2*
X521768D1*
X550895D2*
X556895D1*
X573557D2*
X579173D1*
X614961D2*
X620499D1*
X631635D2*
X637190D1*
X699567D2*
X705567D1*
X483803Y1308854D2*
X489902D1*
X515232D2*
X521331D1*
X550575D2*
X556575D1*
X573411D2*
X578909D1*
X615225D2*
X620578D1*
X631556D2*
X636916D1*
X699567D2*
X705567D1*
X484194Y1307854D2*
X490239D1*
X514895D2*
X520940D1*
X550231D2*
X556231D1*
X573165D2*
X578732D1*
X615402D2*
X620723D1*
X631411D2*
X636734D1*
X699567D2*
X705567D1*
X484541Y1306854D2*
X490563D1*
X514571D2*
X520593D1*
X549895D2*
X555895D1*
X572906D2*
X578638D1*
X615496D2*
X620969D1*
X631165D2*
X636639D1*
X699567D2*
X705567D1*
X484895Y1305854D2*
X490938D1*
X514196D2*
X520238D1*
X549575D2*
X555575D1*
X572731D2*
X578595D1*
X615539D2*
X621228D1*
X630906D2*
X636595D1*
X699567D2*
X705567D1*
X485236Y1304854D2*
X491366D1*
X513767D2*
X519897D1*
X549231D2*
X555231D1*
X572638D2*
X578577D1*
X615556D2*
X621403D1*
X630731D2*
X636578D1*
X699567D2*
X705567D1*
X485558Y1303854D2*
X491803D1*
X513331D2*
X519575D1*
X548895D2*
X554895D1*
X572595D2*
X578571D1*
X615563D2*
X621496D1*
X630638D2*
X636571D1*
X699567D2*
X705567D1*
X485902Y1302854D2*
X492194D1*
X512940D2*
X519232D1*
X548575D2*
X554575D1*
X572577D2*
X578568D1*
X615566D2*
X621539D1*
X630595D2*
X636568D1*
X699567D2*
X705567D1*
X486239Y1301854D2*
X492541D1*
X512593D2*
X518895D1*
X548231D2*
X554231D1*
X572571D2*
X578567D1*
X615566D2*
X621556D1*
X630577D2*
X636567D1*
X699567D2*
X705567D1*
X486559Y1300854D2*
X492895D1*
X512238D2*
X518571D1*
X547895D2*
X553895D1*
X572568D2*
X578567D1*
X615567D2*
X621563D1*
X630571D2*
X636567D1*
X699567D2*
X705567D1*
X486902Y1299854D2*
X493236D1*
X511897D2*
X518196D1*
X547575D2*
X553575D1*
X572567D2*
X578567D1*
X615567D2*
X621566D1*
X630568D2*
X636567D1*
X699567D2*
X705567D1*
X487239Y1298854D2*
X493558D1*
X511575D2*
X517767D1*
X547231D2*
X553231D1*
X572567D2*
X578567D1*
X615567D2*
X621566D1*
X630567D2*
X636567D1*
X699567D2*
X705567D1*
X487559Y1297854D2*
X493902D1*
X511232D2*
X517331D1*
X546895D2*
X552895D1*
X572567D2*
X578567D1*
X615567D2*
X621567D1*
X630567D2*
X636567D1*
X699567D2*
X705567D1*
X487902Y1296854D2*
X494239D1*
X510895D2*
X516940D1*
X546575D2*
X552575D1*
X572567D2*
X578567D1*
X615567D2*
X621567D1*
X630567D2*
X636567D1*
X699567D2*
X705567D1*
X488239Y1295854D2*
X494559D1*
X510571D2*
X516593D1*
X546231D2*
X552231D1*
X572567D2*
X578567D1*
X615567D2*
X621567D1*
X630567D2*
X636567D1*
X699567D2*
X705567D1*
X488563Y1294854D2*
X494902D1*
X510196D2*
X516238D1*
X545895D2*
X551895D1*
X572567D2*
X578567D1*
X615567D2*
X621567D1*
X630567D2*
X636567D1*
X699567D2*
X705567D1*
X488938Y1293854D2*
X495239D1*
X509767D2*
X515897D1*
X545575D2*
X551575D1*
X572567D2*
X578567D1*
X615567D2*
X621567D1*
X630567D2*
X636567D1*
X699567D2*
X705567D1*
X489366Y1292854D2*
X495559D1*
X509331D2*
X515575D1*
X545231D2*
X551231D1*
X572567D2*
X578567D1*
X615567D2*
X621567D1*
X630567D2*
X636567D1*
X699567D2*
X705567D1*
X489803Y1291854D2*
X495902D1*
X508940D2*
X515232D1*
X544895D2*
X550895D1*
X572567D2*
X578567D1*
X615567D2*
X621567D1*
X630571D2*
X636567D1*
X699567D2*
X705567D1*
X490194Y1290854D2*
X496239D1*
X508593D2*
X514895D1*
X544575D2*
X550575D1*
X572567D2*
X578567D1*
X615567D2*
X621567D1*
X630606D2*
X636567D1*
X699567D2*
X705567D1*
X490541Y1289854D2*
X496559D1*
X508238D2*
X514571D1*
X544231D2*
X550231D1*
X572567D2*
X578567D1*
X615567D2*
X621563D1*
X630733D2*
X636571D1*
X699567D2*
X705567D1*
X490895Y1288854D2*
X496902D1*
X507897D2*
X514196D1*
X543895D2*
X549895D1*
X572571D2*
X578567D1*
X615567D2*
X621528D1*
X630973D2*
X636606D1*
X699567D2*
X705567D1*
X491236Y1287854D2*
X497239D1*
X507572D2*
X513767D1*
X543575D2*
X549575D1*
X572606D2*
X578567D1*
X615563D2*
X621400D1*
X631229D2*
X636733D1*
X699567D2*
X705567D1*
X491558Y1286854D2*
X497563D1*
X507197D2*
X513331D1*
X543231D2*
X549231D1*
X572733D2*
X578567D1*
X615528D2*
X621161D1*
X631404D2*
X636973D1*
X699567D2*
X705567D1*
X491902Y1285854D2*
X497938D1*
X506768D2*
X512940D1*
X542895D2*
X548895D1*
X572973D2*
X578571D1*
X615400D2*
X620905D1*
X631500D2*
X637229D1*
X699567D2*
X705567D1*
X492239Y1284854D2*
X498366D1*
X506331D2*
X512593D1*
X542575D2*
X548575D1*
X573229D2*
X578606D1*
X615161D2*
X620730D1*
X631578D2*
X637408D1*
X699567D2*
X705567D1*
X492559Y1283854D2*
X498803D1*
X505940D2*
X512238D1*
X542231D2*
X548231D1*
X573404D2*
X578733D1*
X614905D2*
X620633D1*
X631723D2*
X637536D1*
X699567D2*
X705567D1*
X492902Y1282854D2*
X499194D1*
X505593D2*
X511897D1*
X541895D2*
X547895D1*
X573500D2*
X578973D1*
X614726D2*
X620556D1*
X631969D2*
X637709D1*
X699567D2*
X705567D1*
X493239Y1281854D2*
X499541D1*
X505238D2*
X511572D1*
X541575D2*
X547575D1*
X573578D2*
X579233D1*
X614598D2*
X620411D1*
X632232D2*
X638001D1*
X699567D2*
X705567D1*
X493559Y1280854D2*
X499895D1*
X504897D2*
X511197D1*
X541231D2*
X547231D1*
X573723D2*
X579443D1*
X614425D2*
X620165D1*
X632442D2*
X638396D1*
X699567D2*
X705567D1*
X493902Y1279854D2*
X500236D1*
X504575D2*
X510768D1*
X540895D2*
X546895D1*
X573969D2*
X579667D1*
X614132D2*
X619902D1*
X632663D2*
X638848D1*
X699567D2*
X705567D1*
X494239Y1278854D2*
X500562D1*
X504232D2*
X510331D1*
X540575D2*
X546575D1*
X574232D2*
X579988D1*
X613738D2*
X619691D1*
X632949D2*
X639329D1*
X699567D2*
X705567D1*
X494559Y1277854D2*
X500940D1*
X503892D2*
X509940D1*
X540231D2*
X546231D1*
X574442D2*
X580428D1*
X613282D2*
X619467D1*
X633258D2*
X639825D1*
X699567D2*
X705567D1*
X494902Y1276854D2*
X501399D1*
X503544D2*
X509593D1*
X539895D2*
X545895D1*
X574667D2*
X581015D1*
X612766D2*
X619150D1*
X633570D2*
X640358D1*
X699567D2*
X705567D1*
X495239Y1275854D2*
X501950D1*
X503097D2*
X509238D1*
X539575D2*
X545575D1*
X574984D2*
X581777D1*
X612139D2*
X618745D1*
X633944D2*
X640987D1*
X699567D2*
X705567D1*
X495563Y1274854D2*
X508897D1*
X539231D2*
X545231D1*
X575389D2*
X582704D1*
X611319D2*
X618289D1*
X634406D2*
X641770D1*
X699567D2*
X705567D1*
X495938Y1273854D2*
X508575D1*
X538895D2*
X544895D1*
X575849D2*
X583896D1*
X610189D2*
X617806D1*
X634970D2*
X642735D1*
X699567D2*
X705567D1*
X496366Y1272854D2*
X508232D1*
X538575D2*
X544575D1*
X576367D2*
X585613D1*
X608501D2*
X617310D1*
X635604D2*
X644018D1*
X699567D2*
X705567D1*
X496803Y1271854D2*
X507895D1*
X538231D2*
X544231D1*
X576991D2*
X588071D1*
X606055D2*
X616776D1*
X636246D2*
X645802D1*
X699567D2*
X705567D1*
X497194Y1270854D2*
X507571D1*
X537895D2*
X543895D1*
X577764D2*
X591177D1*
X602955D2*
X616143D1*
X636942D2*
X648073D1*
X670567D2*
X672567D1*
X699567D2*
X705567D1*
X497541Y1269854D2*
X507196D1*
X537575D2*
X543575D1*
X578654D2*
X615328D1*
X637781D2*
X672567D1*
X699567D2*
X705567D1*
X497895Y1268854D2*
X506767D1*
X537231D2*
X543231D1*
X579650D2*
X614271D1*
X638816D2*
X672567D1*
X699567D2*
X705567D1*
X498239Y1267854D2*
X506335D1*
X536895D2*
X542895D1*
X580872D2*
X612877D1*
X640096D2*
X672567D1*
X699567D2*
X705567D1*
X498589Y1266854D2*
X505976D1*
X536575D2*
X542575D1*
X582576D2*
X611082D1*
X641743D2*
X672567D1*
X699567D2*
X705567D1*
X499037Y1265854D2*
X505740D1*
X536231D2*
X542231D1*
X584896D2*
X608919D1*
X644025D2*
X672567D1*
X699567D2*
X705567D1*
X499567Y1264854D2*
X505567D1*
X535895D2*
X541895D1*
X587567D2*
X606567D1*
X647083D2*
X667567D1*
X699567D2*
X705567D1*
X535575Y1263854D2*
X541575D1*
X650567D2*
X654567D1*
X535231Y1262854D2*
X541231D1*
X534892Y1261854D2*
X540892D1*
X534544Y1260854D2*
X540544D1*
X534097Y1259854D2*
X540097D1*
X533567Y1258854D2*
X539567D1*
X1480615Y849337D2*
X1503615D1*
X1523615D2*
X1555615D1*
X1582615D2*
X1605615D1*
X1632615D2*
X1655615D1*
X1672615D2*
X1715615D1*
X1732615D2*
X1755615D1*
X1479192Y848337D2*
X1512615D1*
X1523615D2*
X1557194D1*
X1581192D2*
X1614615D1*
X1631192D2*
X1664615D1*
X1672615D2*
X1715615D1*
X1731192D2*
X1764615D1*
X1478037Y847337D2*
X1512615D1*
X1523615D2*
X1558601D1*
X1580037D2*
X1614615D1*
X1630037D2*
X1664615D1*
X1672615D2*
X1715615D1*
X1730037D2*
X1764615D1*
X1477170Y846337D2*
X1512615D1*
X1523615D2*
X1559761D1*
X1579170D2*
X1614615D1*
X1629170D2*
X1664615D1*
X1672615D2*
X1715612D1*
X1729170D2*
X1764615D1*
X1476525Y845337D2*
X1512615D1*
X1523615D2*
X1560705D1*
X1578525D2*
X1614615D1*
X1628525D2*
X1664615D1*
X1672615D2*
X1715573D1*
X1728525D2*
X1764615D1*
X1476044Y844337D2*
X1512615D1*
X1523615D2*
X1561487D1*
X1578044D2*
X1614615D1*
X1628044D2*
X1664615D1*
X1672615D2*
X1715410D1*
X1728044D2*
X1764615D1*
X1475662Y843337D2*
X1482657D1*
X1523615D2*
X1528615D1*
X1552219D2*
X1562076D1*
X1577662D2*
X1584657D1*
X1627662D2*
X1634657D1*
X1707770D2*
X1715039D1*
X1727662D2*
X1734657D1*
X1475298Y842337D2*
X1481825D1*
X1523615D2*
X1528615D1*
X1554349D2*
X1562520D1*
X1577298D2*
X1583825D1*
X1627298D2*
X1633825D1*
X1707022D2*
X1714504D1*
X1727298D2*
X1733825D1*
X1474987Y841337D2*
X1481231D1*
X1523615D2*
X1528615D1*
X1555856D2*
X1562917D1*
X1576987D2*
X1583231D1*
X1626987D2*
X1633231D1*
X1706316D2*
X1713911D1*
X1726987D2*
X1733231D1*
X1474791Y840337D2*
X1480893D1*
X1523615D2*
X1528615D1*
X1556956D2*
X1563275D1*
X1576791D2*
X1582893D1*
X1626791D2*
X1632893D1*
X1705619D2*
X1713273D1*
X1726791D2*
X1732893D1*
X1474690Y839337D2*
X1480730D1*
X1523615D2*
X1528615D1*
X1557452D2*
X1563603D1*
X1576690D2*
X1582730D1*
X1626690D2*
X1632730D1*
X1704951D2*
X1712603D1*
X1726690D2*
X1732730D1*
X1474645Y838337D2*
X1480660D1*
X1523615D2*
X1528615D1*
X1557884D2*
X1563946D1*
X1576645D2*
X1582660D1*
X1626645D2*
X1632660D1*
X1704254D2*
X1711949D1*
X1726645D2*
X1732660D1*
X1474626Y837337D2*
X1480632D1*
X1523615D2*
X1528615D1*
X1558225D2*
X1564248D1*
X1576626D2*
X1582632D1*
X1626626D2*
X1632632D1*
X1703481D2*
X1711287D1*
X1726626D2*
X1732632D1*
X1474619Y836337D2*
X1480621D1*
X1523615D2*
X1528615D1*
X1558433D2*
X1564441D1*
X1576619D2*
X1582621D1*
X1626619D2*
X1632621D1*
X1702708D2*
X1710608D1*
X1726619D2*
X1732621D1*
X1474617Y835337D2*
X1480617D1*
X1523615D2*
X1528615D1*
X1558538D2*
X1564541D1*
X1576617D2*
X1582617D1*
X1626617D2*
X1632617D1*
X1701996D2*
X1709947D1*
X1726617D2*
X1732617D1*
X1474616Y834337D2*
X1480616D1*
X1523615D2*
X1528615D1*
X1558585D2*
X1564586D1*
X1576616D2*
X1582616D1*
X1626616D2*
X1632616D1*
X1701306D2*
X1709252D1*
X1726616D2*
X1732616D1*
X1474616Y833337D2*
X1480616D1*
X1523615D2*
X1528615D1*
X1558604D2*
X1564605D1*
X1576616D2*
X1582616D1*
X1626616D2*
X1632616D1*
X1700615D2*
X1708480D1*
X1726616D2*
X1732616D1*
X1474616Y832337D2*
X1480616D1*
X1523615D2*
X1528615D1*
X1558611D2*
X1564612D1*
X1576616D2*
X1582616D1*
X1626616D2*
X1632616D1*
X1699954D2*
X1707708D1*
X1726616D2*
X1732616D1*
X1474615Y831337D2*
X1480616D1*
X1523615D2*
X1528615D1*
X1558614D2*
X1564614D1*
X1576615D2*
X1582616D1*
X1626615D2*
X1632616D1*
X1699288D2*
X1706996D1*
X1726615D2*
X1732616D1*
X1474615Y830337D2*
X1480615D1*
X1523615D2*
X1528615D1*
X1558615D2*
X1564615D1*
X1576615D2*
X1582615D1*
X1626615D2*
X1632615D1*
X1698608D2*
X1706306D1*
X1726615D2*
X1732615D1*
X1474615Y829337D2*
X1480615D1*
X1523615D2*
X1528615D1*
X1558615D2*
X1564615D1*
X1576615D2*
X1582615D1*
X1626615D2*
X1632615D1*
X1697951D2*
X1705615D1*
X1726615D2*
X1732615D1*
X1474615Y828337D2*
X1480615D1*
X1523615D2*
X1528615D1*
X1558615D2*
X1564615D1*
X1576615D2*
X1582615D1*
X1626615D2*
X1632615D1*
X1697288D2*
X1704954D1*
X1726615D2*
X1732615D1*
X1474615Y827337D2*
X1480615D1*
X1523615D2*
X1528615D1*
X1558612D2*
X1564612D1*
X1576615D2*
X1582615D1*
X1626615D2*
X1632615D1*
X1696608D2*
X1704288D1*
X1726615D2*
X1732615D1*
X1474615Y826337D2*
X1480615D1*
X1523615D2*
X1528615D1*
X1558576D2*
X1564576D1*
X1576615D2*
X1582615D1*
X1626615D2*
X1632615D1*
X1695951D2*
X1703608D1*
X1726615D2*
X1732615D1*
X1474615Y825337D2*
X1480615D1*
X1523615D2*
X1528615D1*
X1558445D2*
X1564449D1*
X1576615D2*
X1582615D1*
X1626615D2*
X1632615D1*
X1695288D2*
X1702951D1*
X1726615D2*
X1732615D1*
X1474615Y824337D2*
X1480615D1*
X1523615D2*
X1528615D1*
X1558167D2*
X1564206D1*
X1576615D2*
X1582615D1*
X1626615D2*
X1632615D1*
X1694608D2*
X1702288D1*
X1726615D2*
X1732615D1*
X1474615Y823337D2*
X1480615D1*
X1523615D2*
X1528619D1*
X1557740D2*
X1563914D1*
X1576615D2*
X1582615D1*
X1626615D2*
X1632615D1*
X1693951D2*
X1701608D1*
X1726615D2*
X1732615D1*
X1474615Y822337D2*
X1480615D1*
X1523615D2*
X1528658D1*
X1557120D2*
X1563612D1*
X1576615D2*
X1582615D1*
X1626615D2*
X1632615D1*
X1693288D2*
X1700951D1*
X1726615D2*
X1732615D1*
X1474615Y821337D2*
X1480615D1*
X1523615D2*
X1528825D1*
X1556199D2*
X1563276D1*
X1576615D2*
X1582615D1*
X1626615D2*
X1632615D1*
X1692608D2*
X1700288D1*
X1726615D2*
X1732615D1*
X1474615Y820337D2*
X1509615D1*
X1523615D2*
X1529227D1*
X1554917D2*
X1562938D1*
X1576615D2*
X1611615D1*
X1626615D2*
X1661615D1*
X1691951D2*
X1699608D1*
X1726615D2*
X1761615D1*
X1474615Y819337D2*
X1509615D1*
X1523615D2*
X1529867D1*
X1553333D2*
X1562580D1*
X1576615D2*
X1611615D1*
X1626615D2*
X1661615D1*
X1691288D2*
X1698951D1*
X1726615D2*
X1761615D1*
X1474615Y818337D2*
X1509615D1*
X1523615D2*
X1562074D1*
X1576615D2*
X1611615D1*
X1626615D2*
X1661615D1*
X1690608D2*
X1698288D1*
X1726615D2*
X1761615D1*
X1474615Y817337D2*
X1509615D1*
X1523615D2*
X1561363D1*
X1576615D2*
X1611615D1*
X1626615D2*
X1661615D1*
X1689951D2*
X1697608D1*
X1726615D2*
X1761615D1*
X1474615Y816337D2*
X1509615D1*
X1523615D2*
X1560465D1*
X1576615D2*
X1611615D1*
X1626615D2*
X1661615D1*
X1689288D2*
X1696951D1*
X1726615D2*
X1761615D1*
X1474615Y815337D2*
X1509615D1*
X1523615D2*
X1559334D1*
X1576615D2*
X1611615D1*
X1626615D2*
X1661615D1*
X1688608D2*
X1696288D1*
X1726615D2*
X1761615D1*
X1474615Y814337D2*
X1484205D1*
X1523615D2*
X1557902D1*
X1576615D2*
X1586205D1*
X1626615D2*
X1636205D1*
X1687951D2*
X1695608D1*
X1726615D2*
X1736205D1*
X1474615Y813337D2*
X1482177D1*
X1523615D2*
X1556311D1*
X1576615D2*
X1584177D1*
X1626615D2*
X1634177D1*
X1687288D2*
X1694951D1*
X1726615D2*
X1734177D1*
X1474615Y812337D2*
X1481243D1*
X1523615D2*
X1528615D1*
X1544184D2*
X1554872D1*
X1576615D2*
X1583243D1*
X1626615D2*
X1633243D1*
X1686608D2*
X1694288D1*
X1726615D2*
X1733243D1*
X1474615Y811337D2*
X1480908D1*
X1523615D2*
X1528615D1*
X1546222D2*
X1553615D1*
X1576615D2*
X1582908D1*
X1626615D2*
X1632908D1*
X1685947D2*
X1693608D1*
X1726615D2*
X1732908D1*
X1474615Y810337D2*
X1480735D1*
X1523615D2*
X1528615D1*
X1547617D2*
X1554236D1*
X1576615D2*
X1582735D1*
X1626615D2*
X1632735D1*
X1685252D2*
X1692951D1*
X1726615D2*
X1732735D1*
X1474615Y809337D2*
X1480661D1*
X1523615D2*
X1528615D1*
X1548554D2*
X1554806D1*
X1576615D2*
X1582661D1*
X1626615D2*
X1632661D1*
X1684480D2*
X1692288D1*
X1726615D2*
X1732661D1*
X1474615Y808337D2*
X1480632D1*
X1523615D2*
X1528615D1*
X1549245D2*
X1555341D1*
X1576615D2*
X1582632D1*
X1626615D2*
X1632632D1*
X1683708D2*
X1691608D1*
X1726615D2*
X1732632D1*
X1474615Y807337D2*
X1480621D1*
X1523615D2*
X1528615D1*
X1549821D2*
X1555856D1*
X1576615D2*
X1582621D1*
X1626615D2*
X1632621D1*
X1682996D2*
X1690947D1*
X1726615D2*
X1732621D1*
X1474615Y806337D2*
X1480617D1*
X1523615D2*
X1528615D1*
X1550350D2*
X1556362D1*
X1576615D2*
X1582617D1*
X1626615D2*
X1632617D1*
X1682306D2*
X1690252D1*
X1726615D2*
X1732617D1*
X1474615Y805337D2*
X1480616D1*
X1523615D2*
X1528615D1*
X1550860D2*
X1556868D1*
X1576615D2*
X1582616D1*
X1626615D2*
X1632616D1*
X1681615D2*
X1689480D1*
X1726615D2*
X1732616D1*
X1474615Y804337D2*
X1480616D1*
X1523615D2*
X1528615D1*
X1551364D2*
X1557401D1*
X1576615D2*
X1582616D1*
X1626615D2*
X1632616D1*
X1680954D2*
X1688708D1*
X1726615D2*
X1732616D1*
X1474615Y803337D2*
X1480616D1*
X1523615D2*
X1528615D1*
X1551865D2*
X1557996D1*
X1576615D2*
X1582616D1*
X1626615D2*
X1632616D1*
X1680288D2*
X1687996D1*
X1726615D2*
X1732616D1*
X1474615Y802337D2*
X1480616D1*
X1523615D2*
X1528615D1*
X1552366D2*
X1558641D1*
X1576615D2*
X1582616D1*
X1626615D2*
X1632616D1*
X1679608D2*
X1687306D1*
X1726615D2*
X1732616D1*
X1474615Y801337D2*
X1480615D1*
X1523615D2*
X1528615D1*
X1552865D2*
X1559253D1*
X1576615D2*
X1582615D1*
X1626615D2*
X1632615D1*
X1678951D2*
X1686615D1*
X1726615D2*
X1732615D1*
X1474615Y800337D2*
X1480615D1*
X1523615D2*
X1528615D1*
X1553366D2*
X1559815D1*
X1576615D2*
X1582615D1*
X1626615D2*
X1632615D1*
X1678288D2*
X1685954D1*
X1726615D2*
X1732615D1*
X1474615Y799337D2*
X1480615D1*
X1523615D2*
X1528615D1*
X1553865D2*
X1560346D1*
X1576615D2*
X1582615D1*
X1626615D2*
X1632615D1*
X1677608D2*
X1685288D1*
X1726615D2*
X1732615D1*
X1474615Y798337D2*
X1480615D1*
X1523615D2*
X1528615D1*
X1554366D2*
X1560857D1*
X1576615D2*
X1582615D1*
X1626615D2*
X1632615D1*
X1676951D2*
X1684608D1*
X1726615D2*
X1732615D1*
X1474615Y797337D2*
X1480615D1*
X1523615D2*
X1528615D1*
X1554865D2*
X1561363D1*
X1576619D2*
X1582619D1*
X1626619D2*
X1632619D1*
X1676288D2*
X1683951D1*
X1726619D2*
X1732619D1*
X1474615Y796337D2*
X1480615D1*
X1523615D2*
X1528615D1*
X1555366D2*
X1561864D1*
X1576655D2*
X1582662D1*
X1626655D2*
X1632662D1*
X1675608D2*
X1683292D1*
X1726655D2*
X1732662D1*
X1474615Y795337D2*
X1480615D1*
X1523615D2*
X1528615D1*
X1555865D2*
X1562366D1*
X1576782D2*
X1582768D1*
X1626782D2*
X1632768D1*
X1674951D2*
X1682651D1*
X1726782D2*
X1732768D1*
X1474615Y794337D2*
X1480615D1*
X1523615D2*
X1528615D1*
X1556366D2*
X1562865D1*
X1577025D2*
X1583274D1*
X1627025D2*
X1633274D1*
X1674291D2*
X1682153D1*
X1727025D2*
X1733274D1*
X1474615Y793337D2*
X1480615D1*
X1523615D2*
X1528615D1*
X1556865D2*
X1563366D1*
X1577317D2*
X1584462D1*
X1627317D2*
X1634462D1*
X1673651D2*
X1681839D1*
X1727317D2*
X1734462D1*
X1474615Y792337D2*
X1480615D1*
X1523615D2*
X1528615D1*
X1557366D2*
X1563865D1*
X1577623D2*
X1585962D1*
X1627623D2*
X1635962D1*
X1673157D2*
X1715615D1*
X1727623D2*
X1735962D1*
X1474615Y791337D2*
X1480615D1*
X1523615D2*
X1528615D1*
X1557865D2*
X1564366D1*
X1577994D2*
X1614615D1*
X1627994D2*
X1664615D1*
X1672864D2*
X1715615D1*
X1727994D2*
X1764615D1*
X1474615Y790337D2*
X1480615D1*
X1523615D2*
X1528615D1*
X1558366D2*
X1564865D1*
X1578463D2*
X1614615D1*
X1628463D2*
X1664615D1*
X1672719D2*
X1715615D1*
X1728463D2*
X1764615D1*
X1474615Y789337D2*
X1480615D1*
X1523615D2*
X1528615D1*
X1558868D2*
X1565363D1*
X1579099D2*
X1614615D1*
X1629099D2*
X1664615D1*
X1672656D2*
X1715615D1*
X1729099D2*
X1764615D1*
X1474615Y788337D2*
X1480615D1*
X1523615D2*
X1528615D1*
X1559395D2*
X1565836D1*
X1580015D2*
X1614615D1*
X1630015D2*
X1664615D1*
X1672630D2*
X1715615D1*
X1730015D2*
X1764615D1*
X1474615Y787337D2*
X1480615D1*
X1523615D2*
X1528615D1*
X1559978D2*
X1566253D1*
X1581232D2*
X1614615D1*
X1631232D2*
X1664615D1*
X1672620D2*
X1715615D1*
X1731232D2*
X1764615D1*
X1474615Y786337D2*
X1480615D1*
X1523615D2*
X1528615D1*
X1560615D2*
X1566615D1*
X1582615D2*
X1601615D1*
X1632615D2*
X1651615D1*
X1672615D2*
X1715615D1*
X1732615D2*
X1751615D1*
X1043038Y1330168D2*
X1057038D1*
X905038Y1329168D2*
X949038D1*
X958038D2*
X990038D1*
X1011038D2*
X1017038D1*
X1040618D2*
X1063694D1*
X905038Y1328168D2*
X949038D1*
X958038D2*
X991616D1*
X1011038D2*
X1017038D1*
X1038502D2*
X1070038D1*
X905038Y1327168D2*
X949038D1*
X958038D2*
X993023D1*
X1011038D2*
X1017038D1*
X1036798D2*
X1070038D1*
X905038Y1326168D2*
X949038D1*
X958038D2*
X994184D1*
X1011038D2*
X1017038D1*
X1035524D2*
X1070038D1*
X905038Y1325168D2*
X949038D1*
X958038D2*
X995128D1*
X1011038D2*
X1017038D1*
X1034578D2*
X1070038D1*
X905038Y1324168D2*
X949038D1*
X958038D2*
X995910D1*
X1011038D2*
X1017038D1*
X1033789D2*
X1046473D1*
X1054038D2*
X1070038D1*
X924038Y1323168D2*
X930038D1*
X958038D2*
X963038D1*
X986641D2*
X996499D1*
X1011038D2*
X1017038D1*
X1033063D2*
X1043471D1*
X924038Y1322168D2*
X930038D1*
X958038D2*
X963038D1*
X988772D2*
X996942D1*
X1011038D2*
X1017038D1*
X1032423D2*
X1041211D1*
X924038Y1321168D2*
X930038D1*
X958038D2*
X963038D1*
X990279D2*
X997339D1*
X1011038D2*
X1017038D1*
X1031880D2*
X1039584D1*
X924038Y1320168D2*
X930038D1*
X958038D2*
X963038D1*
X991378D2*
X997698D1*
X1011038D2*
X1017038D1*
X1031441D2*
X1038411D1*
X924038Y1319168D2*
X930038D1*
X958038D2*
X963038D1*
X991875D2*
X998026D1*
X1011038D2*
X1017038D1*
X1031075D2*
X1037564D1*
X924038Y1318168D2*
X930038D1*
X958038D2*
X963038D1*
X992306D2*
X998368D1*
X1011038D2*
X1017038D1*
X1030717D2*
X1036934D1*
X924038Y1317168D2*
X930038D1*
X958038D2*
X963038D1*
X992647D2*
X998671D1*
X1011038D2*
X1017038D1*
X1030405D2*
X1036461D1*
X924038Y1316168D2*
X930038D1*
X958038D2*
X963038D1*
X992855D2*
X998864D1*
X1011038D2*
X1017038D1*
X1030174D2*
X1036082D1*
X924038Y1315168D2*
X930038D1*
X958038D2*
X963038D1*
X992961D2*
X998964D1*
X1011038D2*
X1017038D1*
X1029946D2*
X1035720D1*
X924038Y1314168D2*
X930038D1*
X958038D2*
X963038D1*
X993008D2*
X999009D1*
X1011038D2*
X1017038D1*
X1029662D2*
X1035406D1*
X924038Y1313168D2*
X930038D1*
X958038D2*
X963038D1*
X993027D2*
X999027D1*
X1011038D2*
X1017038D1*
X1029387D2*
X1035175D1*
X924038Y1312168D2*
X930038D1*
X958038D2*
X963038D1*
X993034D2*
X999034D1*
X1011038D2*
X1017038D1*
X1029205D2*
X1034946D1*
X924038Y1311168D2*
X930038D1*
X958038D2*
X963038D1*
X993037D2*
X999037D1*
X1011038D2*
X1017038D1*
X1029106D2*
X1034662D1*
X924038Y1310168D2*
X930038D1*
X958038D2*
X963038D1*
X993038D2*
X999038D1*
X1011038D2*
X1017038D1*
X1029027D2*
X1034387D1*
X924038Y1309168D2*
X930038D1*
X958038D2*
X963038D1*
X993038D2*
X999038D1*
X1011038D2*
X1017038D1*
X1028882D2*
X1034205D1*
X924038Y1308168D2*
X930038D1*
X958038D2*
X963038D1*
X993038D2*
X999038D1*
X1011038D2*
X1017038D1*
X1028636D2*
X1034110D1*
X924038Y1307168D2*
X930038D1*
X958038D2*
X963038D1*
X993034D2*
X999034D1*
X1011038D2*
X1017038D1*
X1028377D2*
X1034067D1*
X924038Y1306168D2*
X930038D1*
X958038D2*
X963038D1*
X992999D2*
X998999D1*
X1011038D2*
X1017038D1*
X1028202D2*
X1034049D1*
X924038Y1305168D2*
X930038D1*
X958038D2*
X963038D1*
X992868D2*
X998872D1*
X1011038D2*
X1017038D1*
X1028109D2*
X1034042D1*
X924038Y1304168D2*
X930038D1*
X958038D2*
X963038D1*
X992589D2*
X998628D1*
X1011038D2*
X1017038D1*
X1028066D2*
X1034039D1*
X924038Y1303168D2*
X930038D1*
X958038D2*
X963042D1*
X992162D2*
X998337D1*
X1011038D2*
X1017038D1*
X1028049D2*
X1034038D1*
X924038Y1302168D2*
X930038D1*
X958038D2*
X963081D1*
X991543D2*
X998035D1*
X1011038D2*
X1017038D1*
X1028042D2*
X1034038D1*
X924038Y1301168D2*
X930038D1*
X958038D2*
X963247D1*
X990621D2*
X997699D1*
X1011038D2*
X1017038D1*
X1028039D2*
X1034038D1*
X924038Y1300168D2*
X930038D1*
X958038D2*
X963650D1*
X989340D2*
X997361D1*
X1011038D2*
X1017038D1*
X1028038D2*
X1034038D1*
X924038Y1299168D2*
X930038D1*
X958038D2*
X964289D1*
X987755D2*
X997002D1*
X1011038D2*
X1017038D1*
X1028038D2*
X1034038D1*
X1058038D2*
X1072038D1*
X924038Y1298168D2*
X930038D1*
X958038D2*
X996497D1*
X1011038D2*
X1017038D1*
X1028038D2*
X1034038D1*
X1055046D2*
X1072038D1*
X924038Y1297168D2*
X930038D1*
X958038D2*
X995786D1*
X1011038D2*
X1017038D1*
X1028038D2*
X1034038D1*
X1052669D2*
X1072038D1*
X924038Y1296168D2*
X930038D1*
X958038D2*
X994887D1*
X1011038D2*
X1017038D1*
X1028038D2*
X1034038D1*
X1051676D2*
X1072038D1*
X924038Y1295168D2*
X930038D1*
X958038D2*
X993757D1*
X1011038D2*
X1017038D1*
X1028038D2*
X1034038D1*
X1051308D2*
X1072038D1*
X924038Y1294168D2*
X930038D1*
X958038D2*
X992325D1*
X1011038D2*
X1017038D1*
X1028038D2*
X1034038D1*
X1051038D2*
X1072038D1*
X924038Y1293168D2*
X930038D1*
X958038D2*
X990734D1*
X1011038D2*
X1017038D1*
X1028038D2*
X1034038D1*
X1066038D2*
X1072038D1*
X924038Y1292168D2*
X930038D1*
X958038D2*
X963038D1*
X978607D2*
X989294D1*
X1011038D2*
X1017038D1*
X1028038D2*
X1034038D1*
X1066038D2*
X1072038D1*
X924038Y1291168D2*
X930038D1*
X958038D2*
X963038D1*
X980645D2*
X988038D1*
X1011038D2*
X1017038D1*
X1028042D2*
X1034038D1*
X1066038D2*
X1072038D1*
X924038Y1290168D2*
X930038D1*
X958038D2*
X963038D1*
X982039D2*
X988658D1*
X1011038D2*
X1017038D1*
X1028077D2*
X1034038D1*
X1066038D2*
X1072038D1*
X924038Y1289168D2*
X930038D1*
X958038D2*
X963038D1*
X982977D2*
X989228D1*
X1011038D2*
X1017038D1*
X1028205D2*
X1034042D1*
X1066038D2*
X1072038D1*
X924038Y1288168D2*
X930038D1*
X958038D2*
X963038D1*
X983668D2*
X989764D1*
X1011038D2*
X1017038D1*
X1028444D2*
X1034077D1*
X1066038D2*
X1072038D1*
X924038Y1287168D2*
X930038D1*
X958038D2*
X963038D1*
X984243D2*
X990278D1*
X1011038D2*
X1017038D1*
X1028700D2*
X1034205D1*
X1066038D2*
X1072038D1*
X924038Y1286168D2*
X930038D1*
X958038D2*
X963038D1*
X984773D2*
X990785D1*
X1011038D2*
X1017038D1*
X1028875D2*
X1034444D1*
X1066038D2*
X1072038D1*
X924038Y1285168D2*
X930038D1*
X958038D2*
X963038D1*
X985282D2*
X991290D1*
X1011038D2*
X1017038D1*
X1028972D2*
X1034704D1*
X1066038D2*
X1072038D1*
X924038Y1284168D2*
X930038D1*
X958038D2*
X963038D1*
X985787D2*
X991823D1*
X1011038D2*
X1017038D1*
X1029049D2*
X1034914D1*
X1066038D2*
X1072038D1*
X924038Y1283168D2*
X930038D1*
X958038D2*
X963038D1*
X986287D2*
X992419D1*
X1011038D2*
X1017038D1*
X1029194D2*
X1035134D1*
X1066038D2*
X1072038D1*
X924038Y1282168D2*
X930038D1*
X958038D2*
X963038D1*
X986788D2*
X993063D1*
X1011038D2*
X1017038D1*
X1029440D2*
X1035420D1*
X1066038D2*
X1072038D1*
X924038Y1281168D2*
X930038D1*
X958038D2*
X963038D1*
X987288D2*
X993675D1*
X1011038D2*
X1017038D1*
X1029703D2*
X1035729D1*
X1066038D2*
X1072038D1*
X924038Y1280168D2*
X930038D1*
X958038D2*
X963038D1*
X987788D2*
X994238D1*
X1011038D2*
X1017038D1*
X1029913D2*
X1036042D1*
X1066038D2*
X1072038D1*
X924038Y1279168D2*
X930038D1*
X958038D2*
X963038D1*
X988288D2*
X994768D1*
X1011038D2*
X1017038D1*
X1030134D2*
X1036415D1*
X1066034D2*
X1072038D1*
X924038Y1278168D2*
X930038D1*
X958038D2*
X963038D1*
X988788D2*
X995280D1*
X1011038D2*
X1017038D1*
X1030420D2*
X1036881D1*
X1065987D2*
X1072038D1*
X924038Y1277168D2*
X930038D1*
X958038D2*
X963038D1*
X989288D2*
X995786D1*
X1011038D2*
X1017038D1*
X1030729D2*
X1037480D1*
X1065870D2*
X1072038D1*
X924038Y1276168D2*
X930038D1*
X958038D2*
X963038D1*
X989788D2*
X996287D1*
X1011038D2*
X1017038D1*
X1031042D2*
X1038249D1*
X1065228D2*
X1072038D1*
X924038Y1275168D2*
X930038D1*
X958038D2*
X963038D1*
X990288D2*
X996788D1*
X1011038D2*
X1017038D1*
X1031415D2*
X1039244D1*
X1063351D2*
X1072038D1*
X924038Y1274168D2*
X930038D1*
X958038D2*
X963038D1*
X990788D2*
X997288D1*
X1011038D2*
X1017038D1*
X1031881D2*
X1040473D1*
X1060391D2*
X1072038D1*
X924038Y1273168D2*
X930038D1*
X958038D2*
X963038D1*
X991288D2*
X997788D1*
X1011038D2*
X1017038D1*
X1032480D2*
X1043944D1*
X1055724D2*
X1072038D1*
X924038Y1272168D2*
X930038D1*
X958038D2*
X963038D1*
X991788D2*
X998288D1*
X1011038D2*
X1017038D1*
X1033242D2*
X1049365D1*
X1048990D2*
X1072038D1*
X924038Y1271168D2*
X930038D1*
X958038D2*
X963038D1*
X992288D2*
X998788D1*
X1011038D2*
X1017038D1*
X1034127D2*
X1072038D1*
X924038Y1270168D2*
X930038D1*
X958038D2*
X963038D1*
X992788D2*
X999288D1*
X1011038D2*
X1017038D1*
X1035118D2*
X1072038D1*
X924038Y1269168D2*
X930038D1*
X958038D2*
X963038D1*
X993291D2*
X999785D1*
X1011038D2*
X1017038D1*
X1036302D2*
X1063842D1*
X1065842D2*
X1072038D1*
X924038Y1268168D2*
X930038D1*
X958038D2*
X963038D1*
X993818D2*
X1000259D1*
X1011038D2*
X1017038D1*
X1037851D2*
X1061430D1*
X1066430D2*
X1072038D1*
X924038Y1267168D2*
X930038D1*
X958038D2*
X963038D1*
X994401D2*
X1000675D1*
X1011038D2*
X1017038D1*
X1039829D2*
X1058788D1*
X1066788D2*
X1072038D1*
X924038Y1266168D2*
X930038D1*
X958038D2*
X963038D1*
X995038D2*
X1001038D1*
X1011038D2*
X1017038D1*
X1042038D2*
X1056038D1*
X1067038D2*
X1072038D1*
X558567Y1331854D2*
X558067Y1330854D1*
X557652Y1329854D1*
X557263Y1328854D1*
X556907Y1327854D1*
X556579Y1326854D1*
X556233Y1325854D1*
X555895Y1324854D1*
X555575Y1323854D1*
X555231Y1322854D1*
X554895Y1321854D1*
X554575Y1320854D1*
X554231Y1319854D1*
X553895Y1318854D1*
X553575Y1317854D1*
X553231Y1316854D1*
X552895Y1315854D1*
X552575Y1314854D1*
X552231Y1313854D1*
X551895Y1312854D1*
X551575Y1311854D1*
X551231Y1310854D1*
X550895Y1309854D1*
X550575Y1308854D1*
X550231Y1307854D1*
X549895Y1306854D1*
X549575Y1305854D1*
X549231Y1304854D1*
X548895Y1303854D1*
X548575Y1302854D1*
X548231Y1301854D1*
X547895Y1300854D1*
X547575Y1299854D1*
X547231Y1298854D1*
X546895Y1297854D1*
X546575Y1296854D1*
X546231Y1295854D1*
X545895Y1294854D1*
X545575Y1293854D1*
X545231Y1292854D1*
X544895Y1291854D1*
X544575Y1290854D1*
X544231Y1289854D1*
X543895Y1288854D1*
X543575Y1287854D1*
X543231Y1286854D1*
X542895Y1285854D1*
X542575Y1284854D1*
X542231Y1283854D1*
X541895Y1282854D1*
X541575Y1281854D1*
X541231Y1280854D1*
X540895Y1279854D1*
X540575Y1278854D1*
X540231Y1277854D1*
X539895Y1276854D1*
X539575Y1275854D1*
X539231Y1274854D1*
X538895Y1273854D1*
X538575Y1272854D1*
X538231Y1271854D1*
X537895Y1270854D1*
X537575Y1269854D1*
X537231Y1268854D1*
X536895Y1267854D1*
X536575Y1266854D1*
X536231Y1265854D1*
X535895Y1264854D1*
X535575Y1263854D1*
X535231Y1262854D1*
X534892Y1261854D1*
X534544Y1260854D1*
X534097Y1259854D1*
X533567Y1258854D1*
X564567Y1331854D2*
X564067Y1330854D1*
X563652Y1329854D1*
X563263Y1328854D1*
X562907Y1327854D1*
X562579Y1326854D1*
X562233Y1325854D1*
X561895Y1324854D1*
X561575Y1323854D1*
X561231Y1322854D1*
X560895Y1321854D1*
X560575Y1320854D1*
X560231Y1319854D1*
X559895Y1318854D1*
X559575Y1317854D1*
X559231Y1316854D1*
X558895Y1315854D1*
X558575Y1314854D1*
X558231Y1313854D1*
X557895Y1312854D1*
X557575Y1311854D1*
X557231Y1310854D1*
X556895Y1309854D1*
X556575Y1308854D1*
X556231Y1307854D1*
X555895Y1306854D1*
X555575Y1305854D1*
X555231Y1304854D1*
X554895Y1303854D1*
X554575Y1302854D1*
X554231Y1301854D1*
X553895Y1300854D1*
X553575Y1299854D1*
X553231Y1298854D1*
X552895Y1297854D1*
X552575Y1296854D1*
X552231Y1295854D1*
X551895Y1294854D1*
X551575Y1293854D1*
X551231Y1292854D1*
X550895Y1291854D1*
X550575Y1290854D1*
X550231Y1289854D1*
X549895Y1288854D1*
X549575Y1287854D1*
X549231Y1286854D1*
X548895Y1285854D1*
X548575Y1284854D1*
X548231Y1283854D1*
X547895Y1282854D1*
X547575Y1281854D1*
X547231Y1280854D1*
X546895Y1279854D1*
X546575Y1278854D1*
X546231Y1277854D1*
X545895Y1276854D1*
X545575Y1275854D1*
X545231Y1274854D1*
X544895Y1273854D1*
X544575Y1272854D1*
X544231Y1271854D1*
X543895Y1270854D1*
X543575Y1269854D1*
X543231Y1268854D1*
X542895Y1267854D1*
X542575Y1266854D1*
X542231Y1265854D1*
X541895Y1264854D1*
X541575Y1263854D1*
X541231Y1262854D1*
X540892Y1261854D1*
X540544Y1260854D1*
X540097Y1259854D1*
X539567Y1258854D1*
X590567Y1328854D2*
X587224Y1327854D1*
X584530Y1326854D1*
X582500Y1325854D1*
X580973Y1324854D1*
X579767Y1323854D1*
X578798Y1322854D1*
X578034Y1321854D1*
X577407Y1320854D1*
X576851Y1319854D1*
X576330Y1318854D1*
X575825Y1317854D1*
X575354Y1316854D1*
X574948Y1315854D1*
X574596Y1314854D1*
X574243Y1313854D1*
X573937Y1312854D1*
X573742Y1311854D1*
X573638Y1310854D1*
X573557Y1309854D1*
X573411Y1308854D1*
X573165Y1307854D1*
X572906Y1306854D1*
X572731Y1305854D1*
X572638Y1304854D1*
X572595Y1303854D1*
X572577Y1302854D1*
X572571Y1301854D1*
X572568Y1300854D1*
X572567Y1299854D1*
Y1298854D1*
Y1297854D1*
Y1296854D1*
Y1295854D1*
Y1294854D1*
Y1293854D1*
Y1292854D1*
Y1291854D1*
Y1290854D1*
Y1289854D1*
X572571Y1288854D1*
X572606Y1287854D1*
X572733Y1286854D1*
X572973Y1285854D1*
X573229Y1284854D1*
X573404Y1283854D1*
X573500Y1282854D1*
X573578Y1281854D1*
X573723Y1280854D1*
X573969Y1279854D1*
X574232Y1278854D1*
X574442Y1277854D1*
X574667Y1276854D1*
X574984Y1275854D1*
X575389Y1274854D1*
X575849Y1273854D1*
X576367Y1272854D1*
X576991Y1271854D1*
X577764Y1270854D1*
X578654Y1269854D1*
X579650Y1268854D1*
X580872Y1267854D1*
X582576Y1266854D1*
X584896Y1265854D1*
X587567Y1264854D1*
X603567Y1328854D2*
X606910Y1327854D1*
X609604Y1326854D1*
X611634Y1325854D1*
X613165Y1324854D1*
X614402Y1323854D1*
X615467Y1322854D1*
X616375Y1321854D1*
X617110Y1320854D1*
X617696Y1319854D1*
X618153Y1318854D1*
X618526Y1317854D1*
X618886Y1316854D1*
X619199Y1315854D1*
X619430Y1314854D1*
X619659Y1313854D1*
X619943Y1312854D1*
X620218Y1311854D1*
X620400Y1310854D1*
X620499Y1309854D1*
X620578Y1308854D1*
X620723Y1307854D1*
X620969Y1306854D1*
X621228Y1305854D1*
X621403Y1304854D1*
X621496Y1303854D1*
X621539Y1302854D1*
X621556Y1301854D1*
X621563Y1300854D1*
X621566Y1299854D1*
Y1298854D1*
X621567Y1297854D1*
Y1296854D1*
Y1295854D1*
Y1294854D1*
Y1293854D1*
Y1292854D1*
Y1291854D1*
Y1290854D1*
X621563Y1289854D1*
X621528Y1288854D1*
X621400Y1287854D1*
X621161Y1286854D1*
X620905Y1285854D1*
X620730Y1284854D1*
X620633Y1283854D1*
X620556Y1282854D1*
X620411Y1281854D1*
X620165Y1280854D1*
X619902Y1279854D1*
X619691Y1278854D1*
X619467Y1277854D1*
X619150Y1276854D1*
X618745Y1275854D1*
X618289Y1274854D1*
X617806Y1273854D1*
X617310Y1272854D1*
X616776Y1271854D1*
X616143Y1270854D1*
X615328Y1269854D1*
X614271Y1268854D1*
X612877Y1267854D1*
X611082Y1266854D1*
X608919Y1265854D1*
X606567Y1264854D1*
X645567Y1328854D2*
X643147Y1327854D1*
X641031Y1326854D1*
X639327Y1325854D1*
X638053Y1324854D1*
X637107Y1323854D1*
X636318Y1322854D1*
X635592Y1321854D1*
X634952Y1320854D1*
X634409Y1319854D1*
X633970Y1318854D1*
X633604Y1317854D1*
X633246Y1316854D1*
X632934Y1315854D1*
X632703Y1314854D1*
X632475Y1313854D1*
X632190Y1312854D1*
X631916Y1311854D1*
X631734Y1310854D1*
X631635Y1309854D1*
X631556Y1308854D1*
X631411Y1307854D1*
X631165Y1306854D1*
X630906Y1305854D1*
X630731Y1304854D1*
X630638Y1303854D1*
X630595Y1302854D1*
X630577Y1301854D1*
X630571Y1300854D1*
X630568Y1299854D1*
X630567Y1298854D1*
Y1297854D1*
Y1296854D1*
Y1295854D1*
Y1294854D1*
Y1293854D1*
Y1292854D1*
X630571Y1291854D1*
X630606Y1290854D1*
X630733Y1289854D1*
X630973Y1288854D1*
X631229Y1287854D1*
X631404Y1286854D1*
X631500Y1285854D1*
X631578Y1284854D1*
X631723Y1283854D1*
X631969Y1282854D1*
X632232Y1281854D1*
X632442Y1280854D1*
X632663Y1279854D1*
X632949Y1278854D1*
X633258Y1277854D1*
X633570Y1276854D1*
X633944Y1275854D1*
X634406Y1274854D1*
X634970Y1273854D1*
X635604Y1272854D1*
X636246Y1271854D1*
X636942Y1270854D1*
X637781Y1269854D1*
X638816Y1268854D1*
X640096Y1267854D1*
X641743Y1266854D1*
X644025Y1265854D1*
X647083Y1264854D1*
X650567Y1263854D1*
X662567Y1328854D2*
X666824Y1327854D1*
X670219Y1326854D1*
X671646Y1325854D1*
X672143Y1324854D1*
X672406Y1323854D1*
X672567Y1322854D1*
X477567Y1327854D2*
X477721Y1326854D1*
X477973Y1325854D1*
X478267Y1324854D1*
X478570Y1323854D1*
X478906Y1322854D1*
X479240Y1321854D1*
X479560Y1320854D1*
X479903Y1319854D1*
X480239Y1318854D1*
X480559Y1317854D1*
X480902Y1316854D1*
X481239Y1315854D1*
X481559Y1314854D1*
X481902Y1313854D1*
X482239Y1312854D1*
X482563Y1311854D1*
X482938Y1310854D1*
X483366Y1309854D1*
X483803Y1308854D1*
X484194Y1307854D1*
X484541Y1306854D1*
X484895Y1305854D1*
X485236Y1304854D1*
X485558Y1303854D1*
X485902Y1302854D1*
X486239Y1301854D1*
X486559Y1300854D1*
X486902Y1299854D1*
X487239Y1298854D1*
X487559Y1297854D1*
X487902Y1296854D1*
X488239Y1295854D1*
X488563Y1294854D1*
X488938Y1293854D1*
X489366Y1292854D1*
X489803Y1291854D1*
X490194Y1290854D1*
X490541Y1289854D1*
X490895Y1288854D1*
X491236Y1287854D1*
X491558Y1286854D1*
X491902Y1285854D1*
X492239Y1284854D1*
X492559Y1283854D1*
X492902Y1282854D1*
X493239Y1281854D1*
X493559Y1280854D1*
X493902Y1279854D1*
X494239Y1278854D1*
X494559Y1277854D1*
X494902Y1276854D1*
X495239Y1275854D1*
X495563Y1274854D1*
X495938Y1273854D1*
X496366Y1272854D1*
X496803Y1271854D1*
X497194Y1270854D1*
X497541Y1269854D1*
X497895Y1268854D1*
X498239Y1267854D1*
X498589Y1266854D1*
X499037Y1265854D1*
X499567Y1264854D1*
X483567Y1327854D2*
X483913Y1326854D1*
X484245Y1325854D1*
X484562Y1324854D1*
X484904Y1323854D1*
X485240Y1322854D1*
X485559Y1321854D1*
X485903Y1320854D1*
X486239Y1319854D1*
X486559Y1318854D1*
X486902Y1317854D1*
X487239Y1316854D1*
X487559Y1315854D1*
X487902Y1314854D1*
X488239Y1313854D1*
X488559Y1312854D1*
X488902Y1311854D1*
X489239Y1310854D1*
X489559Y1309854D1*
X489902Y1308854D1*
X490239Y1307854D1*
X490563Y1306854D1*
X490938Y1305854D1*
X491366Y1304854D1*
X491803Y1303854D1*
X492194Y1302854D1*
X492541Y1301854D1*
X492895Y1300854D1*
X493236Y1299854D1*
X493558Y1298854D1*
X493902Y1297854D1*
X494239Y1296854D1*
X494559Y1295854D1*
X494902Y1294854D1*
X495239Y1293854D1*
X495559Y1292854D1*
X495902Y1291854D1*
X496239Y1290854D1*
X496559Y1289854D1*
X496902Y1288854D1*
X497239Y1287854D1*
X497563Y1286854D1*
X497938Y1285854D1*
X498366Y1284854D1*
X498803Y1283854D1*
X499194Y1282854D1*
X499541Y1281854D1*
X499895Y1280854D1*
X500236Y1279854D1*
X500562Y1278854D1*
X500940Y1277854D1*
X501399Y1276854D1*
X501950Y1275854D1*
X502567Y1274854D1*
X522567Y1327854D2*
X521951Y1326854D1*
X521412Y1325854D1*
X520972Y1324854D1*
X520605Y1323854D1*
X520243Y1322854D1*
X519899Y1321854D1*
X519576Y1320854D1*
X519232Y1319854D1*
X518895Y1318854D1*
X518571Y1317854D1*
X518196Y1316854D1*
X517767Y1315854D1*
X517331Y1314854D1*
X516940Y1313854D1*
X516593Y1312854D1*
X516238Y1311854D1*
X515897Y1310854D1*
X515575Y1309854D1*
X515232Y1308854D1*
X514895Y1307854D1*
X514571Y1306854D1*
X514196Y1305854D1*
X513767Y1304854D1*
X513331Y1303854D1*
X512940Y1302854D1*
X512593Y1301854D1*
X512238Y1300854D1*
X511897Y1299854D1*
X511575Y1298854D1*
X511232Y1297854D1*
X510895Y1296854D1*
X510571Y1295854D1*
X510196Y1294854D1*
X509767Y1293854D1*
X509331Y1292854D1*
X508940Y1291854D1*
X508593Y1290854D1*
X508238Y1289854D1*
X507897Y1288854D1*
X507572Y1287854D1*
X507197Y1286854D1*
X506768Y1285854D1*
X506331Y1284854D1*
X505940Y1283854D1*
X505593Y1282854D1*
X505238Y1281854D1*
X504897Y1280854D1*
X504575Y1279854D1*
X504232Y1278854D1*
X503892Y1277854D1*
X503544Y1276854D1*
X503097Y1275854D1*
X502567Y1274854D1*
X528567Y1327854D2*
X528067Y1326854D1*
X527652Y1325854D1*
X527263Y1324854D1*
X526907Y1323854D1*
X526579Y1322854D1*
X526233Y1321854D1*
X525895Y1320854D1*
X525571Y1319854D1*
X525196Y1318854D1*
X524767Y1317854D1*
X524331Y1316854D1*
X523940Y1315854D1*
X523593Y1314854D1*
X523238Y1313854D1*
X522897Y1312854D1*
X522572Y1311854D1*
X522197Y1310854D1*
X521768Y1309854D1*
X521331Y1308854D1*
X520940Y1307854D1*
X520593Y1306854D1*
X520238Y1305854D1*
X519897Y1304854D1*
X519575Y1303854D1*
X519232Y1302854D1*
X518895Y1301854D1*
X518571Y1300854D1*
X518196Y1299854D1*
X517767Y1298854D1*
X517331Y1297854D1*
X516940Y1296854D1*
X516593Y1295854D1*
X516238Y1294854D1*
X515897Y1293854D1*
X515575Y1292854D1*
X515232Y1291854D1*
X514895Y1290854D1*
X514571Y1289854D1*
X514196Y1288854D1*
X513767Y1287854D1*
X513331Y1286854D1*
X512940Y1285854D1*
X512593Y1284854D1*
X512238Y1283854D1*
X511897Y1282854D1*
X511572Y1281854D1*
X511197Y1280854D1*
X510768Y1279854D1*
X510331Y1278854D1*
X509940Y1277854D1*
X509593Y1276854D1*
X509238Y1275854D1*
X508897Y1274854D1*
X508575Y1273854D1*
X508232Y1272854D1*
X507895Y1271854D1*
X507571Y1270854D1*
X507196Y1269854D1*
X506767Y1268854D1*
X506335Y1267854D1*
X505976Y1266854D1*
X505740Y1265854D1*
X505567Y1264854D1*
X680567Y1327854D2*
Y1326854D1*
Y1325854D1*
Y1324854D1*
Y1323854D1*
Y1322854D1*
X724567Y1327854D2*
Y1326854D1*
Y1325854D1*
Y1324854D1*
Y1323854D1*
Y1322854D1*
X652567Y1323854D2*
X649002Y1322854D1*
X646000Y1321854D1*
X643740Y1320854D1*
X642113Y1319854D1*
X640940Y1318854D1*
X640092Y1317854D1*
X639462Y1316854D1*
X638990Y1315854D1*
X638611Y1314854D1*
X638249Y1313854D1*
X637935Y1312854D1*
X637704Y1311854D1*
X637475Y1310854D1*
X637190Y1309854D1*
X636916Y1308854D1*
X636734Y1307854D1*
X636639Y1306854D1*
X636595Y1305854D1*
X636578Y1304854D1*
X636571Y1303854D1*
X636568Y1302854D1*
X636567Y1301854D1*
Y1300854D1*
Y1299854D1*
Y1298854D1*
Y1297854D1*
Y1296854D1*
Y1295854D1*
Y1294854D1*
Y1293854D1*
Y1292854D1*
Y1291854D1*
Y1290854D1*
X636571Y1289854D1*
X636606Y1288854D1*
X636733Y1287854D1*
X636973Y1286854D1*
X637229Y1285854D1*
X637408Y1284854D1*
X637536Y1283854D1*
X637709Y1282854D1*
X638001Y1281854D1*
X638396Y1280854D1*
X638848Y1279854D1*
X639329Y1278854D1*
X639825Y1277854D1*
X640358Y1276854D1*
X640987Y1275854D1*
X641770Y1274854D1*
X642735Y1273854D1*
X644018Y1272854D1*
X645802Y1271854D1*
X648073Y1270854D1*
X650567Y1269854D1*
X657567Y1323854D2*
X658567Y1322854D1*
X589567D2*
X587609Y1321854D1*
X585780Y1320854D1*
X584221Y1319854D1*
X583015Y1318854D1*
X582127Y1317854D1*
X581444Y1316854D1*
X580869Y1315854D1*
X580374Y1314854D1*
X579993Y1313854D1*
X579761Y1312854D1*
X579611Y1311854D1*
X579433Y1310854D1*
X579173Y1309854D1*
X578909Y1308854D1*
X578732Y1307854D1*
X578638Y1306854D1*
X578595Y1305854D1*
X578577Y1304854D1*
X578571Y1303854D1*
X578568Y1302854D1*
X578567Y1301854D1*
Y1300854D1*
Y1299854D1*
Y1298854D1*
Y1297854D1*
Y1296854D1*
Y1295854D1*
Y1294854D1*
Y1293854D1*
Y1292854D1*
Y1291854D1*
Y1290854D1*
Y1289854D1*
Y1288854D1*
Y1287854D1*
Y1286854D1*
X578571Y1285854D1*
X578606Y1284854D1*
X578733Y1283854D1*
X578973Y1282854D1*
X579233Y1281854D1*
X579443Y1280854D1*
X579667Y1279854D1*
X579988Y1278854D1*
X580428Y1277854D1*
X581015Y1276854D1*
X581777Y1275854D1*
X582704Y1274854D1*
X583896Y1273854D1*
X585613Y1272854D1*
X588071Y1271854D1*
X591177Y1270854D1*
X594567Y1269854D1*
X603567Y1322854D2*
X606174Y1321854D1*
X608340Y1320854D1*
X609974Y1319854D1*
X611168Y1318854D1*
X612034Y1317854D1*
X612702Y1316854D1*
X613270Y1315854D1*
X613762Y1314854D1*
X614141Y1313854D1*
X614374Y1312854D1*
X614523Y1311854D1*
X614701Y1310854D1*
X614961Y1309854D1*
X615225Y1308854D1*
X615402Y1307854D1*
X615496Y1306854D1*
X615539Y1305854D1*
X615556Y1304854D1*
X615563Y1303854D1*
X615566Y1302854D1*
Y1301854D1*
X615567Y1300854D1*
Y1299854D1*
Y1298854D1*
Y1297854D1*
Y1296854D1*
Y1295854D1*
Y1294854D1*
Y1293854D1*
Y1292854D1*
Y1291854D1*
Y1290854D1*
Y1289854D1*
Y1288854D1*
X615563Y1287854D1*
X615528Y1286854D1*
X615400Y1285854D1*
X615161Y1284854D1*
X614905Y1283854D1*
X614726Y1282854D1*
X614598Y1281854D1*
X614425Y1280854D1*
X614132Y1279854D1*
X613738Y1278854D1*
X613282Y1277854D1*
X612766Y1276854D1*
X612139Y1275854D1*
X611319Y1274854D1*
X610189Y1273854D1*
X608501Y1272854D1*
X606055Y1271854D1*
X602955Y1270854D1*
X599567Y1269854D1*
X699567Y1322854D2*
Y1321854D1*
Y1320854D1*
Y1319854D1*
Y1318854D1*
Y1317854D1*
Y1316854D1*
Y1315854D1*
Y1314854D1*
Y1313854D1*
Y1312854D1*
Y1311854D1*
Y1310854D1*
Y1309854D1*
Y1308854D1*
Y1307854D1*
Y1306854D1*
Y1305854D1*
Y1304854D1*
Y1303854D1*
Y1302854D1*
Y1301854D1*
Y1300854D1*
Y1299854D1*
Y1298854D1*
Y1297854D1*
Y1296854D1*
Y1295854D1*
Y1294854D1*
Y1293854D1*
Y1292854D1*
Y1291854D1*
Y1290854D1*
Y1289854D1*
Y1288854D1*
Y1287854D1*
Y1286854D1*
Y1285854D1*
Y1284854D1*
Y1283854D1*
Y1282854D1*
Y1281854D1*
Y1280854D1*
Y1279854D1*
Y1278854D1*
Y1277854D1*
Y1276854D1*
Y1275854D1*
Y1274854D1*
Y1273854D1*
Y1272854D1*
Y1271854D1*
Y1270854D1*
Y1269854D1*
Y1268854D1*
Y1267854D1*
Y1266854D1*
Y1265854D1*
Y1264854D1*
X705567Y1322854D2*
Y1321854D1*
Y1320854D1*
Y1319854D1*
Y1318854D1*
Y1317854D1*
Y1316854D1*
Y1315854D1*
Y1314854D1*
Y1313854D1*
Y1312854D1*
Y1311854D1*
Y1310854D1*
Y1309854D1*
Y1308854D1*
Y1307854D1*
Y1306854D1*
Y1305854D1*
Y1304854D1*
Y1303854D1*
Y1302854D1*
Y1301854D1*
Y1300854D1*
Y1299854D1*
Y1298854D1*
Y1297854D1*
Y1296854D1*
Y1295854D1*
Y1294854D1*
Y1293854D1*
Y1292854D1*
Y1291854D1*
Y1290854D1*
Y1289854D1*
Y1288854D1*
Y1287854D1*
Y1286854D1*
Y1285854D1*
Y1284854D1*
Y1283854D1*
Y1282854D1*
Y1281854D1*
Y1280854D1*
Y1279854D1*
Y1278854D1*
Y1277854D1*
Y1276854D1*
Y1275854D1*
Y1274854D1*
Y1273854D1*
Y1272854D1*
Y1271854D1*
Y1270854D1*
Y1269854D1*
Y1268854D1*
Y1267854D1*
Y1266854D1*
Y1265854D1*
Y1264854D1*
X670567Y1270854D2*
Y1269854D1*
X672567Y1270854D2*
Y1269854D1*
Y1268854D1*
Y1267854D1*
Y1266854D1*
Y1265854D1*
X667567Y1264854D1*
X655567D2*
X654567Y1263854D1*
X1480615Y849337D2*
X1479192Y848337D1*
X1478037Y847337D1*
X1477170Y846337D1*
X1476525Y845337D1*
X1476044Y844337D1*
X1475662Y843337D1*
X1475298Y842337D1*
X1474987Y841337D1*
X1474791Y840337D1*
X1474690Y839337D1*
X1474645Y838337D1*
X1474626Y837337D1*
X1474619Y836337D1*
X1474617Y835337D1*
X1474616Y834337D1*
Y833337D1*
Y832337D1*
X1474615Y831337D1*
Y830337D1*
Y829337D1*
Y828337D1*
Y827337D1*
Y826337D1*
Y825337D1*
Y824337D1*
Y823337D1*
Y822337D1*
Y821337D1*
Y820337D1*
Y819337D1*
Y818337D1*
Y817337D1*
Y816337D1*
Y815337D1*
Y814337D1*
Y813337D1*
Y812337D1*
Y811337D1*
Y810337D1*
Y809337D1*
Y808337D1*
Y807337D1*
Y806337D1*
Y805337D1*
Y804337D1*
Y803337D1*
Y802337D1*
Y801337D1*
Y800337D1*
Y799337D1*
Y798337D1*
Y797337D1*
Y796337D1*
Y795337D1*
Y794337D1*
Y793337D1*
Y792337D1*
Y791337D1*
Y790337D1*
Y789337D1*
Y788337D1*
Y787337D1*
Y786337D1*
X1503615Y849337D2*
X1512615Y848337D1*
Y847337D1*
Y846337D1*
Y845337D1*
Y844337D1*
X1523615Y849337D2*
Y848337D1*
Y847337D1*
Y846337D1*
Y845337D1*
Y844337D1*
Y843337D1*
Y842337D1*
Y841337D1*
Y840337D1*
Y839337D1*
Y838337D1*
Y837337D1*
Y836337D1*
Y835337D1*
Y834337D1*
Y833337D1*
Y832337D1*
Y831337D1*
Y830337D1*
Y829337D1*
Y828337D1*
Y827337D1*
Y826337D1*
Y825337D1*
Y824337D1*
Y823337D1*
Y822337D1*
Y821337D1*
Y820337D1*
Y819337D1*
Y818337D1*
Y817337D1*
Y816337D1*
Y815337D1*
Y814337D1*
Y813337D1*
Y812337D1*
Y811337D1*
Y810337D1*
Y809337D1*
Y808337D1*
Y807337D1*
Y806337D1*
Y805337D1*
Y804337D1*
Y803337D1*
Y802337D1*
Y801337D1*
Y800337D1*
Y799337D1*
Y798337D1*
Y797337D1*
Y796337D1*
Y795337D1*
Y794337D1*
Y793337D1*
Y792337D1*
Y791337D1*
Y790337D1*
Y789337D1*
Y788337D1*
Y787337D1*
Y786337D1*
X1555615Y849337D2*
X1557194Y848337D1*
X1558601Y847337D1*
X1559761Y846337D1*
X1560705Y845337D1*
X1561487Y844337D1*
X1562076Y843337D1*
X1562520Y842337D1*
X1562917Y841337D1*
X1563275Y840337D1*
X1563603Y839337D1*
X1563946Y838337D1*
X1564248Y837337D1*
X1564441Y836337D1*
X1564541Y835337D1*
X1564586Y834337D1*
X1564605Y833337D1*
X1564612Y832337D1*
X1564614Y831337D1*
X1564615Y830337D1*
Y829337D1*
Y828337D1*
X1564612Y827337D1*
X1564576Y826337D1*
X1564449Y825337D1*
X1564206Y824337D1*
X1563914Y823337D1*
X1563612Y822337D1*
X1563276Y821337D1*
X1562938Y820337D1*
X1562580Y819337D1*
X1562074Y818337D1*
X1561363Y817337D1*
X1560465Y816337D1*
X1559334Y815337D1*
X1557902Y814337D1*
X1556311Y813337D1*
X1554872Y812337D1*
X1553615Y811337D1*
X1554236Y810337D1*
X1554806Y809337D1*
X1555341Y808337D1*
X1555856Y807337D1*
X1556362Y806337D1*
X1556868Y805337D1*
X1557401Y804337D1*
X1557996Y803337D1*
X1558641Y802337D1*
X1559253Y801337D1*
X1559815Y800337D1*
X1560346Y799337D1*
X1560857Y798337D1*
X1561363Y797337D1*
X1561864Y796337D1*
X1562366Y795337D1*
X1562865Y794337D1*
X1563366Y793337D1*
X1563865Y792337D1*
X1564366Y791337D1*
X1564865Y790337D1*
X1565363Y789337D1*
X1565836Y788337D1*
X1566253Y787337D1*
X1566615Y786337D1*
X1582615Y849337D2*
X1581192Y848337D1*
X1580037Y847337D1*
X1579170Y846337D1*
X1578525Y845337D1*
X1578044Y844337D1*
X1577662Y843337D1*
X1577298Y842337D1*
X1576987Y841337D1*
X1576791Y840337D1*
X1576690Y839337D1*
X1576645Y838337D1*
X1576626Y837337D1*
X1576619Y836337D1*
X1576617Y835337D1*
X1576616Y834337D1*
Y833337D1*
Y832337D1*
X1576615Y831337D1*
Y830337D1*
Y829337D1*
Y828337D1*
Y827337D1*
Y826337D1*
Y825337D1*
Y824337D1*
Y823337D1*
Y822337D1*
Y821337D1*
Y820337D1*
Y819337D1*
Y818337D1*
Y817337D1*
Y816337D1*
Y815337D1*
Y814337D1*
Y813337D1*
Y812337D1*
Y811337D1*
Y810337D1*
Y809337D1*
Y808337D1*
Y807337D1*
Y806337D1*
Y805337D1*
Y804337D1*
Y803337D1*
Y802337D1*
Y801337D1*
Y800337D1*
Y799337D1*
Y798337D1*
X1576619Y797337D1*
X1576655Y796337D1*
X1576782Y795337D1*
X1577025Y794337D1*
X1577317Y793337D1*
X1577623Y792337D1*
X1577994Y791337D1*
X1578463Y790337D1*
X1579099Y789337D1*
X1580015Y788337D1*
X1581232Y787337D1*
X1582615Y786337D1*
X1605615Y849337D2*
X1614615Y848337D1*
Y847337D1*
Y846337D1*
Y845337D1*
Y844337D1*
X1632615Y849337D2*
X1631192Y848337D1*
X1630037Y847337D1*
X1629170Y846337D1*
X1628525Y845337D1*
X1628044Y844337D1*
X1627662Y843337D1*
X1627298Y842337D1*
X1626987Y841337D1*
X1626791Y840337D1*
X1626690Y839337D1*
X1626645Y838337D1*
X1626626Y837337D1*
X1626619Y836337D1*
X1626617Y835337D1*
X1626616Y834337D1*
Y833337D1*
Y832337D1*
X1626615Y831337D1*
Y830337D1*
Y829337D1*
Y828337D1*
Y827337D1*
Y826337D1*
Y825337D1*
Y824337D1*
Y823337D1*
Y822337D1*
Y821337D1*
Y820337D1*
Y819337D1*
Y818337D1*
Y817337D1*
Y816337D1*
Y815337D1*
Y814337D1*
Y813337D1*
Y812337D1*
Y811337D1*
Y810337D1*
Y809337D1*
Y808337D1*
Y807337D1*
Y806337D1*
Y805337D1*
Y804337D1*
Y803337D1*
Y802337D1*
Y801337D1*
Y800337D1*
Y799337D1*
Y798337D1*
X1626619Y797337D1*
X1626655Y796337D1*
X1626782Y795337D1*
X1627025Y794337D1*
X1627317Y793337D1*
X1627623Y792337D1*
X1627994Y791337D1*
X1628463Y790337D1*
X1629099Y789337D1*
X1630015Y788337D1*
X1631232Y787337D1*
X1632615Y786337D1*
X1655615Y849337D2*
X1664615Y848337D1*
Y847337D1*
Y846337D1*
Y845337D1*
Y844337D1*
X1672615Y849337D2*
Y848337D1*
Y847337D1*
Y846337D1*
Y845337D1*
Y844337D1*
X1715615Y849337D2*
Y848337D1*
Y847337D1*
X1715612Y846337D1*
X1715573Y845337D1*
X1715410Y844337D1*
X1715039Y843337D1*
X1714504Y842337D1*
X1713911Y841337D1*
X1713273Y840337D1*
X1712603Y839337D1*
X1711949Y838337D1*
X1711287Y837337D1*
X1710608Y836337D1*
X1709947Y835337D1*
X1709252Y834337D1*
X1708480Y833337D1*
X1707708Y832337D1*
X1706996Y831337D1*
X1706306Y830337D1*
X1705615Y829337D1*
X1704954Y828337D1*
X1704288Y827337D1*
X1703608Y826337D1*
X1702951Y825337D1*
X1702288Y824337D1*
X1701608Y823337D1*
X1700951Y822337D1*
X1700288Y821337D1*
X1699608Y820337D1*
X1698951Y819337D1*
X1698288Y818337D1*
X1697608Y817337D1*
X1696951Y816337D1*
X1696288Y815337D1*
X1695608Y814337D1*
X1694951Y813337D1*
X1694288Y812337D1*
X1693608Y811337D1*
X1692951Y810337D1*
X1692288Y809337D1*
X1691608Y808337D1*
X1690947Y807337D1*
X1690252Y806337D1*
X1689480Y805337D1*
X1688708Y804337D1*
X1687996Y803337D1*
X1687306Y802337D1*
X1686615Y801337D1*
X1685954Y800337D1*
X1685288Y799337D1*
X1684608Y798337D1*
X1683951Y797337D1*
X1683292Y796337D1*
X1682651Y795337D1*
X1682153Y794337D1*
X1681839Y793337D1*
X1681615Y792337D1*
X1732615Y849337D2*
X1731192Y848337D1*
X1730037Y847337D1*
X1729170Y846337D1*
X1728525Y845337D1*
X1728044Y844337D1*
X1727662Y843337D1*
X1727298Y842337D1*
X1726987Y841337D1*
X1726791Y840337D1*
X1726690Y839337D1*
X1726645Y838337D1*
X1726626Y837337D1*
X1726619Y836337D1*
X1726617Y835337D1*
X1726616Y834337D1*
Y833337D1*
Y832337D1*
X1726615Y831337D1*
Y830337D1*
Y829337D1*
Y828337D1*
Y827337D1*
Y826337D1*
Y825337D1*
Y824337D1*
Y823337D1*
Y822337D1*
Y821337D1*
Y820337D1*
Y819337D1*
Y818337D1*
Y817337D1*
Y816337D1*
Y815337D1*
Y814337D1*
Y813337D1*
Y812337D1*
Y811337D1*
Y810337D1*
Y809337D1*
Y808337D1*
Y807337D1*
Y806337D1*
Y805337D1*
Y804337D1*
Y803337D1*
Y802337D1*
Y801337D1*
Y800337D1*
Y799337D1*
Y798337D1*
X1726619Y797337D1*
X1726655Y796337D1*
X1726782Y795337D1*
X1727025Y794337D1*
X1727317Y793337D1*
X1727623Y792337D1*
X1727994Y791337D1*
X1728463Y790337D1*
X1729099Y789337D1*
X1730015Y788337D1*
X1731232Y787337D1*
X1732615Y786337D1*
X1755615Y849337D2*
X1764615Y848337D1*
Y847337D1*
Y846337D1*
Y845337D1*
Y844337D1*
X1483615D2*
X1482657Y843337D1*
X1481825Y842337D1*
X1481231Y841337D1*
X1480893Y840337D1*
X1480730Y839337D1*
X1480660Y838337D1*
X1480632Y837337D1*
X1480621Y836337D1*
X1480617Y835337D1*
X1480616Y834337D1*
Y833337D1*
Y832337D1*
Y831337D1*
X1480615Y830337D1*
Y829337D1*
Y828337D1*
Y827337D1*
Y826337D1*
Y825337D1*
Y824337D1*
Y823337D1*
Y822337D1*
Y821337D1*
Y820337D1*
X1528615Y844337D2*
Y843337D1*
Y842337D1*
Y841337D1*
Y840337D1*
Y839337D1*
Y838337D1*
Y837337D1*
Y836337D1*
Y835337D1*
Y834337D1*
Y833337D1*
Y832337D1*
Y831337D1*
Y830337D1*
Y829337D1*
Y828337D1*
Y827337D1*
Y826337D1*
Y825337D1*
Y824337D1*
X1528619Y823337D1*
X1528658Y822337D1*
X1528825Y821337D1*
X1529227Y820337D1*
X1529867Y819337D1*
X1530615Y818337D1*
X1549615Y844337D2*
X1552219Y843337D1*
X1554349Y842337D1*
X1555856Y841337D1*
X1556956Y840337D1*
X1557452Y839337D1*
X1557884Y838337D1*
X1558225Y837337D1*
X1558433Y836337D1*
X1558538Y835337D1*
X1558585Y834337D1*
X1558604Y833337D1*
X1558611Y832337D1*
X1558614Y831337D1*
X1558615Y830337D1*
Y829337D1*
Y828337D1*
X1558612Y827337D1*
X1558576Y826337D1*
X1558445Y825337D1*
X1558167Y824337D1*
X1557740Y823337D1*
X1557120Y822337D1*
X1556199Y821337D1*
X1554917Y820337D1*
X1553333Y819337D1*
X1551615Y818337D1*
X1585615Y844337D2*
X1584657Y843337D1*
X1583825Y842337D1*
X1583231Y841337D1*
X1582893Y840337D1*
X1582730Y839337D1*
X1582660Y838337D1*
X1582632Y837337D1*
X1582621Y836337D1*
X1582617Y835337D1*
X1582616Y834337D1*
Y833337D1*
Y832337D1*
Y831337D1*
X1582615Y830337D1*
Y829337D1*
Y828337D1*
Y827337D1*
Y826337D1*
Y825337D1*
Y824337D1*
Y823337D1*
Y822337D1*
Y821337D1*
Y820337D1*
X1635615Y844337D2*
X1634657Y843337D1*
X1633825Y842337D1*
X1633231Y841337D1*
X1632893Y840337D1*
X1632730Y839337D1*
X1632660Y838337D1*
X1632632Y837337D1*
X1632621Y836337D1*
X1632617Y835337D1*
X1632616Y834337D1*
Y833337D1*
Y832337D1*
Y831337D1*
X1632615Y830337D1*
Y829337D1*
Y828337D1*
Y827337D1*
Y826337D1*
Y825337D1*
Y824337D1*
Y823337D1*
Y822337D1*
Y821337D1*
Y820337D1*
X1708615Y844337D2*
X1707770Y843337D1*
X1707022Y842337D1*
X1706316Y841337D1*
X1705619Y840337D1*
X1704951Y839337D1*
X1704254Y838337D1*
X1703481Y837337D1*
X1702708Y836337D1*
X1701996Y835337D1*
X1701306Y834337D1*
X1700615Y833337D1*
X1699954Y832337D1*
X1699288Y831337D1*
X1698608Y830337D1*
X1697951Y829337D1*
X1697288Y828337D1*
X1696608Y827337D1*
X1695951Y826337D1*
X1695288Y825337D1*
X1694608Y824337D1*
X1693951Y823337D1*
X1693288Y822337D1*
X1692608Y821337D1*
X1691951Y820337D1*
X1691288Y819337D1*
X1690608Y818337D1*
X1689951Y817337D1*
X1689288Y816337D1*
X1688608Y815337D1*
X1687951Y814337D1*
X1687288Y813337D1*
X1686608Y812337D1*
X1685947Y811337D1*
X1685252Y810337D1*
X1684480Y809337D1*
X1683708Y808337D1*
X1682996Y807337D1*
X1682306Y806337D1*
X1681615Y805337D1*
X1680954Y804337D1*
X1680288Y803337D1*
X1679608Y802337D1*
X1678951Y801337D1*
X1678288Y800337D1*
X1677608Y799337D1*
X1676951Y798337D1*
X1676288Y797337D1*
X1675608Y796337D1*
X1674951Y795337D1*
X1674291Y794337D1*
X1673651Y793337D1*
X1673157Y792337D1*
X1672864Y791337D1*
X1672719Y790337D1*
X1672656Y789337D1*
X1672630Y788337D1*
X1672620Y787337D1*
X1672615Y786337D1*
X1735615Y844337D2*
X1734657Y843337D1*
X1733825Y842337D1*
X1733231Y841337D1*
X1732893Y840337D1*
X1732730Y839337D1*
X1732660Y838337D1*
X1732632Y837337D1*
X1732621Y836337D1*
X1732617Y835337D1*
X1732616Y834337D1*
Y833337D1*
Y832337D1*
Y831337D1*
X1732615Y830337D1*
Y829337D1*
Y828337D1*
Y827337D1*
Y826337D1*
Y825337D1*
Y824337D1*
Y823337D1*
Y822337D1*
Y821337D1*
Y820337D1*
X1509615D2*
Y819337D1*
Y818337D1*
Y817337D1*
Y816337D1*
Y815337D1*
X1611615Y820337D2*
Y819337D1*
Y818337D1*
Y817337D1*
Y816337D1*
Y815337D1*
X1661615Y820337D2*
Y819337D1*
Y818337D1*
Y817337D1*
Y816337D1*
Y815337D1*
X1761615Y820337D2*
Y819337D1*
Y818337D1*
Y817337D1*
Y816337D1*
Y815337D1*
X1486615D2*
X1484205Y814337D1*
X1482177Y813337D1*
X1481243Y812337D1*
X1480908Y811337D1*
X1480735Y810337D1*
X1480661Y809337D1*
X1480632Y808337D1*
X1480621Y807337D1*
X1480617Y806337D1*
X1480616Y805337D1*
Y804337D1*
Y803337D1*
Y802337D1*
X1480615Y801337D1*
Y800337D1*
Y799337D1*
Y798337D1*
Y797337D1*
Y796337D1*
Y795337D1*
Y794337D1*
Y793337D1*
Y792337D1*
Y791337D1*
Y790337D1*
Y789337D1*
Y788337D1*
Y787337D1*
Y786337D1*
X1588615Y815337D2*
X1586205Y814337D1*
X1584177Y813337D1*
X1583243Y812337D1*
X1582908Y811337D1*
X1582735Y810337D1*
X1582661Y809337D1*
X1582632Y808337D1*
X1582621Y807337D1*
X1582617Y806337D1*
X1582616Y805337D1*
Y804337D1*
Y803337D1*
Y802337D1*
X1582615Y801337D1*
Y800337D1*
Y799337D1*
Y798337D1*
X1582619Y797337D1*
X1582662Y796337D1*
X1582768Y795337D1*
X1583274Y794337D1*
X1584462Y793337D1*
X1585962Y792337D1*
X1587615Y791337D1*
X1638615Y815337D2*
X1636205Y814337D1*
X1634177Y813337D1*
X1633243Y812337D1*
X1632908Y811337D1*
X1632735Y810337D1*
X1632661Y809337D1*
X1632632Y808337D1*
X1632621Y807337D1*
X1632617Y806337D1*
X1632616Y805337D1*
Y804337D1*
Y803337D1*
Y802337D1*
X1632615Y801337D1*
Y800337D1*
Y799337D1*
Y798337D1*
X1632619Y797337D1*
X1632662Y796337D1*
X1632768Y795337D1*
X1633274Y794337D1*
X1634462Y793337D1*
X1635962Y792337D1*
X1637615Y791337D1*
X1738615Y815337D2*
X1736205Y814337D1*
X1734177Y813337D1*
X1733243Y812337D1*
X1732908Y811337D1*
X1732735Y810337D1*
X1732661Y809337D1*
X1732632Y808337D1*
X1732621Y807337D1*
X1732617Y806337D1*
X1732616Y805337D1*
Y804337D1*
Y803337D1*
Y802337D1*
X1732615Y801337D1*
Y800337D1*
Y799337D1*
Y798337D1*
X1732619Y797337D1*
X1732662Y796337D1*
X1732768Y795337D1*
X1733274Y794337D1*
X1734462Y793337D1*
X1735962Y792337D1*
X1737615Y791337D1*
X1528615Y813337D2*
Y812337D1*
Y811337D1*
Y810337D1*
Y809337D1*
Y808337D1*
Y807337D1*
Y806337D1*
Y805337D1*
Y804337D1*
Y803337D1*
Y802337D1*
Y801337D1*
Y800337D1*
Y799337D1*
Y798337D1*
Y797337D1*
Y796337D1*
Y795337D1*
Y794337D1*
Y793337D1*
Y792337D1*
Y791337D1*
Y790337D1*
Y789337D1*
Y788337D1*
Y787337D1*
Y786337D1*
X1541615Y813337D2*
X1544184Y812337D1*
X1546222Y811337D1*
X1547617Y810337D1*
X1548554Y809337D1*
X1549245Y808337D1*
X1549821Y807337D1*
X1550350Y806337D1*
X1550860Y805337D1*
X1551364Y804337D1*
X1551865Y803337D1*
X1552366Y802337D1*
X1552865Y801337D1*
X1553366Y800337D1*
X1553865Y799337D1*
X1554366Y798337D1*
X1554865Y797337D1*
X1555366Y796337D1*
X1555865Y795337D1*
X1556366Y794337D1*
X1556865Y793337D1*
X1557366Y792337D1*
X1557865Y791337D1*
X1558366Y790337D1*
X1558868Y789337D1*
X1559395Y788337D1*
X1559978Y787337D1*
X1560615Y786337D1*
X1715615Y792337D2*
Y791337D1*
Y790337D1*
Y789337D1*
Y788337D1*
Y787337D1*
Y786337D1*
X1614615Y791337D2*
Y790337D1*
Y789337D1*
Y788337D1*
Y787337D1*
X1664615Y791337D2*
Y790337D1*
Y789337D1*
Y788337D1*
Y787337D1*
X1764615Y791337D2*
Y790337D1*
Y789337D1*
Y788337D1*
Y787337D1*
X1602615D2*
X1601615Y786337D1*
X1652615Y787337D2*
X1651615Y786337D1*
X1752615Y787337D2*
X1751615Y786337D1*
X1043038Y1330168D2*
X1040618Y1329168D1*
X1038502Y1328168D1*
X1036798Y1327168D1*
X1035524Y1326168D1*
X1034578Y1325168D1*
X1033789Y1324168D1*
X1033063Y1323168D1*
X1032423Y1322168D1*
X1031880Y1321168D1*
X1031441Y1320168D1*
X1031075Y1319168D1*
X1030717Y1318168D1*
X1030405Y1317168D1*
X1030174Y1316168D1*
X1029946Y1315168D1*
X1029662Y1314168D1*
X1029387Y1313168D1*
X1029205Y1312168D1*
X1029106Y1311168D1*
X1029027Y1310168D1*
X1028882Y1309168D1*
X1028636Y1308168D1*
X1028377Y1307168D1*
X1028202Y1306168D1*
X1028109Y1305168D1*
X1028066Y1304168D1*
X1028049Y1303168D1*
X1028042Y1302168D1*
X1028039Y1301168D1*
X1028038Y1300168D1*
Y1299168D1*
Y1298168D1*
Y1297168D1*
Y1296168D1*
Y1295168D1*
Y1294168D1*
Y1293168D1*
Y1292168D1*
X1028042Y1291168D1*
X1028077Y1290168D1*
X1028205Y1289168D1*
X1028444Y1288168D1*
X1028700Y1287168D1*
X1028875Y1286168D1*
X1028972Y1285168D1*
X1029049Y1284168D1*
X1029194Y1283168D1*
X1029440Y1282168D1*
X1029703Y1281168D1*
X1029913Y1280168D1*
X1030134Y1279168D1*
X1030420Y1278168D1*
X1030729Y1277168D1*
X1031042Y1276168D1*
X1031415Y1275168D1*
X1031881Y1274168D1*
X1032480Y1273168D1*
X1033242Y1272168D1*
X1034127Y1271168D1*
X1035118Y1270168D1*
X1036302Y1269168D1*
X1037851Y1268168D1*
X1039829Y1267168D1*
X1042038Y1266168D1*
X1057038Y1330168D2*
X1063694Y1329168D1*
X1070038Y1328168D1*
Y1327168D1*
Y1326168D1*
Y1325168D1*
Y1324168D1*
X905038Y1329168D2*
Y1328168D1*
Y1327168D1*
Y1326168D1*
Y1325168D1*
Y1324168D1*
X949038Y1329168D2*
Y1328168D1*
Y1327168D1*
Y1326168D1*
Y1325168D1*
Y1324168D1*
X958038Y1329168D2*
Y1328168D1*
Y1327168D1*
Y1326168D1*
Y1325168D1*
Y1324168D1*
Y1323168D1*
Y1322168D1*
Y1321168D1*
Y1320168D1*
Y1319168D1*
Y1318168D1*
Y1317168D1*
Y1316168D1*
Y1315168D1*
Y1314168D1*
Y1313168D1*
Y1312168D1*
Y1311168D1*
Y1310168D1*
Y1309168D1*
Y1308168D1*
Y1307168D1*
Y1306168D1*
Y1305168D1*
Y1304168D1*
Y1303168D1*
Y1302168D1*
Y1301168D1*
Y1300168D1*
Y1299168D1*
Y1298168D1*
Y1297168D1*
Y1296168D1*
Y1295168D1*
Y1294168D1*
Y1293168D1*
Y1292168D1*
Y1291168D1*
Y1290168D1*
Y1289168D1*
Y1288168D1*
Y1287168D1*
Y1286168D1*
Y1285168D1*
Y1284168D1*
Y1283168D1*
Y1282168D1*
Y1281168D1*
Y1280168D1*
Y1279168D1*
Y1278168D1*
Y1277168D1*
Y1276168D1*
Y1275168D1*
Y1274168D1*
Y1273168D1*
Y1272168D1*
Y1271168D1*
Y1270168D1*
Y1269168D1*
Y1268168D1*
Y1267168D1*
Y1266168D1*
X990038Y1329168D2*
X991616Y1328168D1*
X993023Y1327168D1*
X994184Y1326168D1*
X995128Y1325168D1*
X995910Y1324168D1*
X996499Y1323168D1*
X996942Y1322168D1*
X997339Y1321168D1*
X997698Y1320168D1*
X998026Y1319168D1*
X998368Y1318168D1*
X998671Y1317168D1*
X998864Y1316168D1*
X998964Y1315168D1*
X999009Y1314168D1*
X999027Y1313168D1*
X999034Y1312168D1*
X999037Y1311168D1*
X999038Y1310168D1*
Y1309168D1*
Y1308168D1*
X999034Y1307168D1*
X998999Y1306168D1*
X998872Y1305168D1*
X998628Y1304168D1*
X998337Y1303168D1*
X998035Y1302168D1*
X997699Y1301168D1*
X997361Y1300168D1*
X997002Y1299168D1*
X996497Y1298168D1*
X995786Y1297168D1*
X994887Y1296168D1*
X993757Y1295168D1*
X992325Y1294168D1*
X990734Y1293168D1*
X989294Y1292168D1*
X988038Y1291168D1*
X988658Y1290168D1*
X989228Y1289168D1*
X989764Y1288168D1*
X990278Y1287168D1*
X990785Y1286168D1*
X991290Y1285168D1*
X991823Y1284168D1*
X992419Y1283168D1*
X993063Y1282168D1*
X993675Y1281168D1*
X994238Y1280168D1*
X994768Y1279168D1*
X995280Y1278168D1*
X995786Y1277168D1*
X996287Y1276168D1*
X996788Y1275168D1*
X997288Y1274168D1*
X997788Y1273168D1*
X998288Y1272168D1*
X998788Y1271168D1*
X999288Y1270168D1*
X999785Y1269168D1*
X1000259Y1268168D1*
X1000675Y1267168D1*
X1001038Y1266168D1*
X1011038Y1329168D2*
Y1328168D1*
Y1327168D1*
Y1326168D1*
Y1325168D1*
Y1324168D1*
Y1323168D1*
Y1322168D1*
Y1321168D1*
Y1320168D1*
Y1319168D1*
Y1318168D1*
Y1317168D1*
Y1316168D1*
Y1315168D1*
Y1314168D1*
Y1313168D1*
Y1312168D1*
Y1311168D1*
Y1310168D1*
Y1309168D1*
Y1308168D1*
Y1307168D1*
Y1306168D1*
Y1305168D1*
Y1304168D1*
Y1303168D1*
Y1302168D1*
Y1301168D1*
Y1300168D1*
Y1299168D1*
Y1298168D1*
Y1297168D1*
Y1296168D1*
Y1295168D1*
Y1294168D1*
Y1293168D1*
Y1292168D1*
Y1291168D1*
Y1290168D1*
Y1289168D1*
Y1288168D1*
Y1287168D1*
Y1286168D1*
Y1285168D1*
Y1284168D1*
Y1283168D1*
Y1282168D1*
Y1281168D1*
Y1280168D1*
Y1279168D1*
Y1278168D1*
Y1277168D1*
Y1276168D1*
Y1275168D1*
Y1274168D1*
Y1273168D1*
Y1272168D1*
Y1271168D1*
Y1270168D1*
Y1269168D1*
Y1268168D1*
Y1267168D1*
Y1266168D1*
X1017038Y1329168D2*
Y1328168D1*
Y1327168D1*
Y1326168D1*
Y1325168D1*
Y1324168D1*
Y1323168D1*
Y1322168D1*
Y1321168D1*
Y1320168D1*
Y1319168D1*
Y1318168D1*
Y1317168D1*
Y1316168D1*
Y1315168D1*
Y1314168D1*
Y1313168D1*
Y1312168D1*
Y1311168D1*
Y1310168D1*
Y1309168D1*
Y1308168D1*
Y1307168D1*
Y1306168D1*
Y1305168D1*
Y1304168D1*
Y1303168D1*
Y1302168D1*
Y1301168D1*
Y1300168D1*
Y1299168D1*
Y1298168D1*
Y1297168D1*
Y1296168D1*
Y1295168D1*
Y1294168D1*
Y1293168D1*
Y1292168D1*
Y1291168D1*
Y1290168D1*
Y1289168D1*
Y1288168D1*
Y1287168D1*
Y1286168D1*
Y1285168D1*
Y1284168D1*
Y1283168D1*
Y1282168D1*
Y1281168D1*
Y1280168D1*
Y1279168D1*
Y1278168D1*
Y1277168D1*
Y1276168D1*
Y1275168D1*
Y1274168D1*
Y1273168D1*
Y1272168D1*
Y1271168D1*
Y1270168D1*
Y1269168D1*
Y1268168D1*
Y1267168D1*
Y1266168D1*
X1050038Y1325168D2*
X1046473Y1324168D1*
X1043471Y1323168D1*
X1041211Y1322168D1*
X1039584Y1321168D1*
X1038411Y1320168D1*
X1037564Y1319168D1*
X1036934Y1318168D1*
X1036461Y1317168D1*
X1036082Y1316168D1*
X1035720Y1315168D1*
X1035406Y1314168D1*
X1035175Y1313168D1*
X1034946Y1312168D1*
X1034662Y1311168D1*
X1034387Y1310168D1*
X1034205Y1309168D1*
X1034110Y1308168D1*
X1034067Y1307168D1*
X1034049Y1306168D1*
X1034042Y1305168D1*
X1034039Y1304168D1*
X1034038Y1303168D1*
Y1302168D1*
Y1301168D1*
Y1300168D1*
Y1299168D1*
Y1298168D1*
Y1297168D1*
Y1296168D1*
Y1295168D1*
Y1294168D1*
Y1293168D1*
Y1292168D1*
Y1291168D1*
Y1290168D1*
X1034042Y1289168D1*
X1034077Y1288168D1*
X1034205Y1287168D1*
X1034444Y1286168D1*
X1034704Y1285168D1*
X1034914Y1284168D1*
X1035134Y1283168D1*
X1035420Y1282168D1*
X1035729Y1281168D1*
X1036042Y1280168D1*
X1036415Y1279168D1*
X1036881Y1278168D1*
X1037480Y1277168D1*
X1038249Y1276168D1*
X1039244Y1275168D1*
X1040473Y1274168D1*
X1043944Y1273168D1*
X1049365Y1272168D1*
X1056038Y1271168D1*
X1053038Y1325168D2*
X1054038Y1324168D1*
X924038D2*
Y1323168D1*
Y1322168D1*
Y1321168D1*
Y1320168D1*
Y1319168D1*
Y1318168D1*
Y1317168D1*
Y1316168D1*
Y1315168D1*
Y1314168D1*
Y1313168D1*
Y1312168D1*
Y1311168D1*
Y1310168D1*
Y1309168D1*
Y1308168D1*
Y1307168D1*
Y1306168D1*
Y1305168D1*
Y1304168D1*
Y1303168D1*
Y1302168D1*
Y1301168D1*
Y1300168D1*
Y1299168D1*
Y1298168D1*
Y1297168D1*
Y1296168D1*
Y1295168D1*
Y1294168D1*
Y1293168D1*
Y1292168D1*
Y1291168D1*
Y1290168D1*
Y1289168D1*
Y1288168D1*
Y1287168D1*
Y1286168D1*
Y1285168D1*
Y1284168D1*
Y1283168D1*
Y1282168D1*
Y1281168D1*
Y1280168D1*
Y1279168D1*
Y1278168D1*
Y1277168D1*
Y1276168D1*
Y1275168D1*
Y1274168D1*
Y1273168D1*
Y1272168D1*
Y1271168D1*
Y1270168D1*
Y1269168D1*
Y1268168D1*
Y1267168D1*
Y1266168D1*
X930038Y1324168D2*
Y1323168D1*
Y1322168D1*
Y1321168D1*
Y1320168D1*
Y1319168D1*
Y1318168D1*
Y1317168D1*
Y1316168D1*
Y1315168D1*
Y1314168D1*
Y1313168D1*
Y1312168D1*
Y1311168D1*
Y1310168D1*
Y1309168D1*
Y1308168D1*
Y1307168D1*
Y1306168D1*
Y1305168D1*
Y1304168D1*
Y1303168D1*
Y1302168D1*
Y1301168D1*
Y1300168D1*
Y1299168D1*
Y1298168D1*
Y1297168D1*
Y1296168D1*
Y1295168D1*
Y1294168D1*
Y1293168D1*
Y1292168D1*
Y1291168D1*
Y1290168D1*
Y1289168D1*
Y1288168D1*
Y1287168D1*
Y1286168D1*
Y1285168D1*
Y1284168D1*
Y1283168D1*
Y1282168D1*
Y1281168D1*
Y1280168D1*
Y1279168D1*
Y1278168D1*
Y1277168D1*
Y1276168D1*
Y1275168D1*
Y1274168D1*
Y1273168D1*
Y1272168D1*
Y1271168D1*
Y1270168D1*
Y1269168D1*
Y1268168D1*
Y1267168D1*
Y1266168D1*
X963038Y1324168D2*
Y1323168D1*
Y1322168D1*
Y1321168D1*
Y1320168D1*
Y1319168D1*
Y1318168D1*
Y1317168D1*
Y1316168D1*
Y1315168D1*
Y1314168D1*
Y1313168D1*
Y1312168D1*
Y1311168D1*
Y1310168D1*
Y1309168D1*
Y1308168D1*
Y1307168D1*
Y1306168D1*
Y1305168D1*
Y1304168D1*
X963042Y1303168D1*
X963081Y1302168D1*
X963247Y1301168D1*
X963650Y1300168D1*
X964289Y1299168D1*
X965038Y1298168D1*
X984038Y1324168D2*
X986641Y1323168D1*
X988772Y1322168D1*
X990279Y1321168D1*
X991378Y1320168D1*
X991875Y1319168D1*
X992306Y1318168D1*
X992647Y1317168D1*
X992855Y1316168D1*
X992961Y1315168D1*
X993008Y1314168D1*
X993027Y1313168D1*
X993034Y1312168D1*
X993037Y1311168D1*
X993038Y1310168D1*
Y1309168D1*
Y1308168D1*
X993034Y1307168D1*
X992999Y1306168D1*
X992868Y1305168D1*
X992589Y1304168D1*
X992162Y1303168D1*
X991543Y1302168D1*
X990621Y1301168D1*
X989340Y1300168D1*
X987755Y1299168D1*
X986038Y1298168D1*
X1058038Y1299168D2*
X1055046Y1298168D1*
X1052669Y1297168D1*
X1051676Y1296168D1*
X1051308Y1295168D1*
X1051038Y1294168D1*
X1072038Y1299168D2*
Y1298168D1*
Y1297168D1*
Y1296168D1*
Y1295168D1*
Y1294168D1*
Y1293168D1*
Y1292168D1*
Y1291168D1*
Y1290168D1*
Y1289168D1*
Y1288168D1*
Y1287168D1*
Y1286168D1*
Y1285168D1*
Y1284168D1*
Y1283168D1*
Y1282168D1*
Y1281168D1*
Y1280168D1*
Y1279168D1*
Y1278168D1*
Y1277168D1*
Y1276168D1*
Y1275168D1*
Y1274168D1*
Y1273168D1*
Y1272168D1*
Y1271168D1*
Y1270168D1*
Y1269168D1*
Y1268168D1*
Y1267168D1*
Y1266168D1*
X1066038Y1294168D2*
Y1293168D1*
Y1292168D1*
Y1291168D1*
Y1290168D1*
Y1289168D1*
Y1288168D1*
Y1287168D1*
Y1286168D1*
Y1285168D1*
Y1284168D1*
Y1283168D1*
Y1282168D1*
Y1281168D1*
Y1280168D1*
X1066034Y1279168D1*
X1065987Y1278168D1*
X1065870Y1277168D1*
X1065228Y1276168D1*
X1063351Y1275168D1*
X1060391Y1274168D1*
X1055724Y1273168D1*
X1048990Y1272168D1*
X1041038Y1271168D1*
X963038Y1293168D2*
Y1292168D1*
Y1291168D1*
Y1290168D1*
Y1289168D1*
Y1288168D1*
Y1287168D1*
Y1286168D1*
Y1285168D1*
Y1284168D1*
Y1283168D1*
Y1282168D1*
Y1281168D1*
Y1280168D1*
Y1279168D1*
Y1278168D1*
Y1277168D1*
Y1276168D1*
Y1275168D1*
Y1274168D1*
Y1273168D1*
Y1272168D1*
Y1271168D1*
Y1270168D1*
Y1269168D1*
Y1268168D1*
Y1267168D1*
Y1266168D1*
X976038Y1293168D2*
X978607Y1292168D1*
X980645Y1291168D1*
X982039Y1290168D1*
X982977Y1289168D1*
X983668Y1288168D1*
X984243Y1287168D1*
X984773Y1286168D1*
X985282Y1285168D1*
X985787Y1284168D1*
X986287Y1283168D1*
X986788Y1282168D1*
X987288Y1281168D1*
X987788Y1280168D1*
X988288Y1279168D1*
X988788Y1278168D1*
X989288Y1277168D1*
X989788Y1276168D1*
X990288Y1275168D1*
X990788Y1274168D1*
X991288Y1273168D1*
X991788Y1272168D1*
X992288Y1271168D1*
X992788Y1270168D1*
X993291Y1269168D1*
X993818Y1268168D1*
X994401Y1267168D1*
X995038Y1266168D1*
X1066038Y1270168D2*
X1063842Y1269168D1*
X1061430Y1268168D1*
X1058788Y1267168D1*
X1056038Y1266168D1*
X1065038Y1270168D2*
X1065842Y1269168D1*
X1066430Y1268168D1*
X1066788Y1267168D1*
X1067038Y1266168D1*
X614000Y3287152D2*
D46*
Y3236912D1*
X662933Y3287152D2*
Y3236912D1*
X629439Y3287152D1*
Y3236912D1*
X726973Y3287152D2*
Y3236912D1*
X755658D1*
X802159Y3287152D2*
X771097D1*
Y3236912D1*
X802159D1*
X771097Y3263220D2*
X790220D1*
X817598Y3287152D2*
X836721Y3236912D1*
X855844Y3287152D1*
X902345D2*
X871284D1*
Y3236912D1*
X902345D1*
X871284Y3263220D2*
X890407D1*
X917784Y3287152D2*
Y3236912D1*
X946469D1*
X711996Y4080902D2*
Y4030662D1*
X695250Y4080902D2*
X728743D1*
X744182D2*
Y4045032D1*
X746559Y4037847D1*
X751367Y4033094D1*
X758552Y4030662D1*
X763305D1*
X770490Y4033094D1*
X775299Y4037847D1*
X777675Y4045032D1*
Y4080902D1*
X826608D2*
Y4030662D1*
X793115Y4080902D1*
Y4030662D1*
X873109Y4080902D2*
X842047D1*
Y4030662D1*
X873109D1*
X842047Y4056970D2*
X861171D1*
X2400134Y3062150D2*
Y3011910D1*
X2383387Y3062150D2*
X2416881D1*
X2463381D2*
X2432320D1*
Y3011910D1*
X2463381D1*
X2432320Y3038219D2*
X2451443D1*
X2478821Y3062150D2*
X2512314Y3011910D1*
Y3062150D2*
X2478821Y3011910D1*
X2544500Y3062150D2*
Y3011910D1*
X2527753Y3062150D2*
X2561247D1*
X2576686D2*
Y3026280D1*
X2579062Y3019095D1*
X2583871Y3014342D1*
X2591056Y3011910D1*
X2595809D1*
X2602994Y3014342D1*
X2607803Y3019095D1*
X2610179Y3026280D1*
Y3062150D1*
X2625618Y3038219D2*
X2647118D1*
X2654303Y3040650D1*
X2656735Y3043027D1*
X2659112Y3047780D1*
Y3052589D1*
X2656735Y3057342D1*
X2654303Y3059774D1*
X2647118Y3062150D1*
X2625618D1*
Y3011910D1*
X2642365Y3038219D2*
X2659112Y3011910D1*
X2705612Y3062150D2*
X2674551D1*
Y3011910D1*
X2705612D1*
X2674551Y3038219D2*
X2693674D1*
X2134994Y1317467D2*
X2130240Y1322275D1*
X2123055Y1324652D1*
X2113494D1*
X2106309Y1322275D1*
X2101500Y1317467D1*
Y1312713D1*
X2103932Y1307905D1*
X2106309Y1305528D1*
X2111062Y1303152D1*
X2125432Y1298343D1*
X2130240Y1295967D1*
X2132617Y1293535D1*
X2134994Y1288782D1*
Y1281597D1*
X2130240Y1276843D1*
X2123055Y1274412D1*
X2113494D1*
X2106309Y1276843D1*
X2101500Y1281597D1*
X2150433Y1324652D2*
Y1274412D1*
X2165872Y1324652D2*
X2199365D1*
X2165872Y1274412D1*
X2199365D1*
X2245866Y1324652D2*
X2214805D1*
Y1274412D1*
X2245866D1*
X2214805Y1300720D2*
X2233928D1*
X2436996Y1318402D2*
Y1268162D1*
X2420250Y1318402D2*
X2453743D1*
X2500244D2*
X2469182D1*
Y1268162D1*
X2500244D1*
X2469182Y1294470D2*
X2488305D1*
X2515683Y1318402D2*
X2549176Y1268162D1*
Y1318402D2*
X2515683Y1268162D1*
X2581362Y1318402D2*
Y1268162D1*
X2564615Y1318402D2*
X2598109D1*
X2613548D2*
Y1282532D1*
X2615925Y1275347D1*
X2620733Y1270594D1*
X2627918Y1268162D1*
X2632671D1*
X2639856Y1270594D1*
X2644665Y1275347D1*
X2647041Y1282532D1*
Y1318402D1*
X2662481Y1294470D2*
X2683980D1*
X2691166Y1296902D1*
X2693597Y1299279D1*
X2695974Y1304032D1*
Y1308841D1*
X2693597Y1313594D1*
X2691166Y1316026D1*
X2683980Y1318402D1*
X2662481D1*
Y1268162D1*
X2679227Y1294470D2*
X2695974Y1268162D1*
X2742475Y1318402D2*
X2711413D1*
Y1268162D1*
X2742475D1*
X2711413Y1294470D2*
X2730536D1*
X2134994Y3054967D2*
X2130240Y3059775D1*
X2123055Y3062152D1*
X2113494D1*
X2106309Y3059775D1*
X2101500Y3054967D1*
Y3050213D1*
X2103932Y3045405D1*
X2106309Y3043028D1*
X2111062Y3040652D1*
X2125432Y3035843D1*
X2130240Y3033467D1*
X2132617Y3031035D1*
X2134994Y3026282D1*
Y3019097D1*
X2130240Y3014343D1*
X2123055Y3011912D1*
X2113494D1*
X2106309Y3014343D1*
X2101500Y3019097D1*
X2150433Y3062152D2*
Y3011912D1*
X2165872Y3062152D2*
X2199365D1*
X2165872Y3011912D1*
X2199365D1*
X2245866Y3062152D2*
X2214805D1*
Y3011912D1*
X2245866D1*
X2214805Y3038220D2*
X2233928D1*
X2162826Y837152D2*
Y786912D1*
X2191511D1*
X2318522Y837152D2*
X2313713Y834775D1*
X2308960Y829967D1*
X2306528Y825213D1*
X2304152Y818028D1*
Y806035D1*
X2306528Y798905D1*
X2308960Y794097D1*
X2313713Y789343D1*
X2318522Y786912D1*
X2328083D1*
X2332837Y789343D1*
X2337645Y794097D1*
X2340022Y798905D1*
X2342398Y806035D1*
Y818028D1*
X2340022Y825213D1*
X2337645Y829967D1*
X2332837Y834775D1*
X2328083Y837152D1*
X2318522D1*
X2357838D2*
Y801282D1*
X2360214Y794097D1*
X2365023Y789343D1*
X2372208Y786912D1*
X2376961D1*
X2384146Y789343D1*
X2388954Y794097D1*
X2391331Y801282D1*
Y837152D1*
X2423517D2*
Y786912D1*
X2406770Y837152D2*
X2440263D1*
X2552905Y813220D2*
X2574404D1*
X2581590Y815652D1*
X2584021Y818028D1*
X2586398Y822781D1*
Y827590D1*
X2584021Y832343D1*
X2581590Y834775D1*
X2574404Y837152D1*
X2552905D1*
Y786912D1*
X2569651Y813220D2*
X2586398Y786912D1*
X620251Y843402D2*
Y793162D1*
X648936D1*
X761577Y843402D2*
Y793162D1*
X810510Y843402D2*
Y793162D1*
X777016Y843402D1*
Y793162D1*
X923151Y819470D2*
X944651D1*
X951836Y821902D1*
X954267Y824279D1*
X956644Y829032D1*
Y833841D1*
X954267Y838594D1*
X951836Y841026D1*
X944651Y843402D1*
X923151D1*
Y793162D1*
X939897Y819470D2*
X956644Y793162D1*
X1239000Y3035843D2*
X1260555D1*
X1267685Y3038220D1*
X1270117Y3040652D1*
X1272494Y3045405D1*
Y3052590D1*
X1270117Y3057343D1*
X1267685Y3059775D1*
X1260555Y3062152D1*
X1239000D1*
Y3011912D1*
X1302303Y3062152D2*
X1297494Y3059775D1*
X1292741Y3054967D1*
X1290309Y3050213D1*
X1287933Y3043028D1*
Y3031035D1*
X1290309Y3023905D1*
X1292741Y3019097D1*
X1297494Y3014343D1*
X1302303Y3011912D1*
X1311865D1*
X1316618Y3014343D1*
X1321426Y3019097D1*
X1323803Y3023905D1*
X1326179Y3031035D1*
Y3043028D1*
X1323803Y3050213D1*
X1321426Y3054967D1*
X1316618Y3059775D1*
X1311865Y3062152D1*
X1302303D1*
X1375112Y3054967D2*
X1370359Y3059775D1*
X1363174Y3062152D1*
X1353612D1*
X1346427Y3059775D1*
X1341619Y3054967D1*
Y3050213D1*
X1344050Y3045405D1*
X1346427Y3043028D1*
X1351180Y3040652D1*
X1365550Y3035843D1*
X1370359Y3033467D1*
X1372735Y3031035D1*
X1375112Y3026282D1*
Y3019097D1*
X1370359Y3014343D1*
X1363174Y3011912D1*
X1353612D1*
X1346427Y3014343D1*
X1341619Y3019097D1*
X1390551Y3062152D2*
Y3011912D1*
X1422737Y3062152D2*
Y3011912D1*
X1405990Y3062152D2*
X1439484D1*
X1454923D2*
Y3011912D1*
X1484732Y3062152D2*
X1479924Y3059775D1*
X1475171Y3054967D1*
X1472739Y3050213D1*
X1470362Y3043028D1*
Y3031035D1*
X1472739Y3023905D1*
X1475171Y3019097D1*
X1479924Y3014343D1*
X1484732Y3011912D1*
X1494294D1*
X1499047Y3014343D1*
X1503856Y3019097D1*
X1506232Y3023905D1*
X1508609Y3031035D1*
Y3043028D1*
X1506232Y3050213D1*
X1503856Y3054967D1*
X1499047Y3059775D1*
X1494294Y3062152D1*
X1484732D1*
X1557541D2*
Y3011912D1*
X1524048Y3062152D1*
Y3011912D1*
X1657751Y3062152D2*
Y3011912D1*
X1674498D1*
X1681683Y3014343D1*
X1686491Y3019097D1*
X1688868Y3023905D1*
X1691244Y3031035D1*
Y3043028D1*
X1688868Y3050213D1*
X1686491Y3054967D1*
X1681683Y3059775D1*
X1674498Y3062152D1*
X1657751D1*
X1737745D2*
X1706683D1*
Y3011912D1*
X1737745D1*
X1706683Y3038220D2*
X1725807D1*
X1786678Y3062152D2*
Y3011912D1*
X1753184Y3062152D1*
Y3011912D1*
X1835610Y3054967D2*
X1830857Y3059775D1*
X1823672Y3062152D1*
X1814110D1*
X1806925Y3059775D1*
X1802117Y3054967D1*
Y3050213D1*
X1804549Y3045405D1*
X1806925Y3043028D1*
X1811678Y3040652D1*
X1826048Y3035843D1*
X1830857Y3033467D1*
X1833234Y3031035D1*
X1835610Y3026282D1*
Y3019097D1*
X1830857Y3014343D1*
X1823672Y3011912D1*
X1814110D1*
X1806925Y3014343D1*
X1802117Y3019097D1*
X1851049Y3062152D2*
Y3011912D1*
X1883235Y3062152D2*
Y3011912D1*
X1866489Y3062152D2*
X1899982D1*
X1915421D2*
X1934544Y3038220D1*
Y3011912D1*
X1953668Y3062152D2*
X1934544Y3038220D1*
X1226500Y1298343D2*
X1248055D1*
X1255185Y1300720D1*
X1257617Y1303152D1*
X1259994Y1307905D1*
Y1315090D1*
X1257617Y1319843D1*
X1255185Y1322275D1*
X1248055Y1324652D1*
X1226500D1*
Y1274412D1*
X1289803Y1324652D2*
X1284994Y1322275D1*
X1280241Y1317467D1*
X1277809Y1312713D1*
X1275433Y1305528D1*
Y1293535D1*
X1277809Y1286405D1*
X1280241Y1281597D1*
X1284994Y1276843D1*
X1289803Y1274412D1*
X1299365D1*
X1304118Y1276843D1*
X1308926Y1281597D1*
X1311303Y1286405D1*
X1313679Y1293535D1*
Y1305528D1*
X1311303Y1312713D1*
X1308926Y1317467D1*
X1304118Y1322275D1*
X1299365Y1324652D1*
X1289803D1*
X1362612Y1317467D2*
X1357859Y1322275D1*
X1350674Y1324652D1*
X1341112D1*
X1333927Y1322275D1*
X1329119Y1317467D1*
Y1312713D1*
X1331550Y1307905D1*
X1333927Y1305528D1*
X1338680Y1303152D1*
X1353050Y1298343D1*
X1357859Y1295967D1*
X1360235Y1293535D1*
X1362612Y1288782D1*
Y1281597D1*
X1357859Y1276843D1*
X1350674Y1274412D1*
X1341112D1*
X1333927Y1276843D1*
X1329119Y1281597D1*
X1378051Y1324652D2*
Y1274412D1*
X1410237Y1324652D2*
Y1274412D1*
X1393490Y1324652D2*
X1426984D1*
X1442423D2*
Y1274412D1*
X1472232Y1324652D2*
X1467424Y1322275D1*
X1462671Y1317467D1*
X1460239Y1312713D1*
X1457862Y1305528D1*
Y1293535D1*
X1460239Y1286405D1*
X1462671Y1281597D1*
X1467424Y1276843D1*
X1472232Y1274412D1*
X1481794D1*
X1486547Y1276843D1*
X1491356Y1281597D1*
X1493732Y1286405D1*
X1496109Y1293535D1*
Y1305528D1*
X1493732Y1312713D1*
X1491356Y1317467D1*
X1486547Y1322275D1*
X1481794Y1324652D1*
X1472232D1*
X1545041D2*
Y1274412D1*
X1511548Y1324652D1*
Y1274412D1*
X1639000Y1324652D2*
Y1274412D1*
X1655747D1*
X1662932Y1276843D1*
X1667740Y1281597D1*
X1670117Y1286405D1*
X1672494Y1293535D1*
Y1305528D1*
X1670117Y1312713D1*
X1667740Y1317467D1*
X1662932Y1322275D1*
X1655747Y1324652D1*
X1639000D1*
X1718994D2*
X1687933D1*
Y1274412D1*
X1718994D1*
X1687933Y1300720D2*
X1707056D1*
X1767927Y1324652D2*
Y1274412D1*
X1734434Y1324652D1*
Y1274412D1*
X1816859Y1317467D2*
X1812106Y1322275D1*
X1804921Y1324652D1*
X1795360D1*
X1788175Y1322275D1*
X1783366Y1317467D1*
Y1312713D1*
X1785798Y1307905D1*
X1788175Y1305528D1*
X1792928Y1303152D1*
X1807298Y1298343D1*
X1812106Y1295967D1*
X1814483Y1293535D1*
X1816859Y1288782D1*
Y1281597D1*
X1812106Y1276843D1*
X1804921Y1274412D1*
X1795360D1*
X1788175Y1276843D1*
X1783366Y1281597D1*
X1832299Y1324652D2*
Y1274412D1*
X1864485Y1324652D2*
Y1274412D1*
X1847738Y1324652D2*
X1881231D1*
X1896671D2*
X1915794Y1300720D1*
Y1274412D1*
X1934917Y1324652D2*
X1915794Y1300720D1*
X688996Y2287152D2*
X700990Y2236912D1*
X712928Y2287152D1*
X724866Y2236912D1*
X736860Y2287152D1*
X783360D2*
X752299D1*
Y2236912D1*
X783360D1*
X752299Y2263220D2*
X771422D1*
X815546Y2287152D2*
Y2236912D1*
X798800Y2287152D2*
X832293D1*
X1253744Y2279967D2*
X1248991Y2284775D1*
X1241806Y2287152D1*
X1232244D1*
X1225059Y2284775D1*
X1220251Y2279967D1*
Y2275213D1*
X1222683Y2270405D1*
X1225059Y2268028D1*
X1229813Y2265652D1*
X1244183Y2260843D1*
X1248991Y2258467D1*
X1251368Y2256035D1*
X1253744Y2251282D1*
Y2244097D1*
X1248991Y2239343D1*
X1241806Y2236912D1*
X1232244D1*
X1225059Y2239343D1*
X1220251Y2244097D1*
X1285930Y2287152D2*
Y2236912D1*
X1269183Y2287152D2*
X1302677D1*
X1349178D2*
X1318116D1*
Y2236912D1*
X1349178D1*
X1318116Y2263220D2*
X1337239D1*
X1364617D2*
X1386117D1*
X1393302Y2265652D1*
X1395734Y2268028D1*
X1398110Y2272781D1*
Y2277590D1*
X1395734Y2282343D1*
X1393302Y2284775D1*
X1386117Y2287152D1*
X1364617D1*
Y2236912D1*
X1381363Y2263220D2*
X1398110Y2236912D1*
X1826366Y2287152D2*
X1795250D1*
Y2236912D1*
Y2263220D2*
X1814373D1*
X1841806Y2287152D2*
Y2236912D1*
X1863361D1*
X1870546Y2239343D1*
X1872922Y2241720D1*
X1875299Y2246473D1*
Y2253658D1*
X1872922Y2258467D1*
X1870546Y2260843D1*
X1863361Y2263220D1*
X1870546Y2265652D1*
X1872922Y2268028D1*
X1875299Y2272781D1*
Y2277590D1*
X1872922Y2282343D1*
X1870546Y2284775D1*
X1863361Y2287152D1*
X1841806D1*
Y2263220D2*
X1863361D1*
X1890738Y2287152D2*
Y2236912D1*
X1924231Y2287152D2*
X1890738Y2253658D1*
X1902676Y2265652D2*
X1924231Y2236912D1*
X2345250Y2263220D2*
X2366749D1*
X2373934Y2265652D1*
X2376366Y2268028D1*
X2378743Y2272781D1*
Y2277590D1*
X2376366Y2282343D1*
X2373934Y2284775D1*
X2366749Y2287152D1*
X2345250D1*
Y2236912D1*
X2361996Y2263220D2*
X2378743Y2236912D1*
X2394182Y2287152D2*
X2413305Y2236912D1*
X2432429Y2287152D1*
X2447868D2*
Y2236912D1*
X2469423D1*
X2476608Y2239343D1*
X2478985Y2241720D1*
X2481361Y2246473D1*
Y2253658D1*
X2478985Y2258467D1*
X2476608Y2260843D1*
X2469423Y2263220D1*
X2476608Y2265652D1*
X2478985Y2268028D1*
X2481361Y2272781D1*
Y2277590D1*
X2478985Y2282343D1*
X2476608Y2284775D1*
X2469423Y2287152D1*
X2447868D1*
Y2263220D2*
X2469423D1*
X520247Y5143401D2*
Y5093161D1*
X536994D1*
X544179Y5095593D1*
X548987Y5100346D1*
X551364Y5105154D1*
X553740Y5112284D1*
Y5124278D1*
X551364Y5131463D1*
X548987Y5136216D1*
X544179Y5141024D1*
X536994Y5143401D1*
X520247D1*
X569180D2*
Y5093161D1*
X618112Y5136216D2*
X613359Y5141024D1*
X606174Y5143401D1*
X596612D1*
X589427Y5141024D1*
X584619Y5136216D1*
Y5131463D1*
X587051Y5126654D1*
X589427Y5124278D1*
X594180Y5121901D1*
X608550Y5117093D1*
X613359Y5114716D1*
X615736Y5112284D1*
X618112Y5107531D1*
Y5100346D1*
X613359Y5095593D1*
X606174Y5093161D1*
X596612D1*
X589427Y5095593D1*
X584619Y5100346D1*
X633551Y5117093D2*
X655106D1*
X662236Y5119469D1*
X664668Y5121901D1*
X667045Y5126654D1*
Y5133839D1*
X664668Y5138592D1*
X662236Y5141024D1*
X655106Y5143401D1*
X633551D1*
Y5093161D1*
M02*
