G04 DipTrace 3.3.0.0*
G04 monsooon_panel.GTL*
%MOIN*%
G04 #@! TF.FileFunction,Copper,L1,Top*
G04 #@! TF.Part,Single*
G04 #@! TA.AperFunction,Conductor*
%ADD15C,0.02*%
G04 #@! TA.AperFunction,CopperBalancing*
%ADD17C,0.01*%
G04 #@! TA.AperFunction,Nonconductor*
%ADD20C,0.12*%
%ADD21O,0.15625X0.1625*%
%ADD22C,0.1625*%
%ADD23O,0.0875X0.09375*%
%ADD24O,0.087501X0.093751*%
%ADD25O,0.087501X0.125*%
%ADD26O,0.087503X0.093751*%
%ADD27O,0.087503X0.093752*%
%ADD28C,0.11875*%
G04 #@! TA.AperFunction,ComponentPad*
%ADD29C,0.32*%
%ADD30O,0.299213X0.177165*%
%ADD31C,0.334646*%
%FSLAX26Y26*%
G04*
G70*
G90*
G75*
G01*
G04 Top*
%LPD*%
X1397567Y2954340D2*
D15*
Y2805496D1*
X1525774Y2677289D1*
Y1655774D1*
X1389000Y1519000D1*
X1780294Y2955218D2*
Y2808508D1*
X1645656Y2673870D1*
Y1657727D1*
X1784383Y1519000D1*
X1789000D1*
X2189000D2*
Y1649930D1*
X2138236Y1700693D1*
Y2725171D1*
X2179203Y2766138D1*
Y2955424D1*
X2583000Y1519000D2*
Y1629379D1*
X2647234Y1693613D1*
Y2717429D1*
X2561913Y2802751D1*
Y2953411D1*
X421412Y5209138D2*
D17*
X415707Y5203433D1*
X449697Y5209138D2*
X415700Y5175142D1*
X477981Y5209138D2*
X415707Y5146864D1*
X506265Y5209138D2*
X467891Y5170764D1*
X444131Y5147004D2*
X415707Y5118580D1*
X534549Y5209138D2*
X504268Y5178857D1*
X435913Y5110502D2*
X415700Y5090289D1*
X562834Y5209138D2*
X532552Y5178857D1*
X441838Y5088143D2*
X415707Y5062012D1*
X591118Y5209138D2*
X560837Y5178857D1*
X453301Y5071321D2*
X415707Y5033727D1*
X619402Y5209138D2*
X589121Y5178857D1*
X469556Y5059292D2*
X415707Y5005443D1*
X647686Y5209138D2*
X617405Y5178857D1*
X491446Y5052898D2*
X415707Y4977159D1*
X675971Y5209138D2*
X645689Y5178857D1*
X519731Y5052898D2*
X415700Y4948868D1*
X704255Y5209138D2*
X673974Y5178857D1*
X548015Y5052898D2*
X415707Y4920590D1*
X732539Y5209138D2*
X702258Y5178857D1*
X576299Y5052898D2*
X415707Y4892306D1*
X760824Y5209138D2*
X723002Y5171316D1*
X604583Y5052898D2*
X415700Y4864015D1*
X789108Y5209138D2*
X738746Y5158776D1*
X632868Y5052898D2*
X415707Y4835737D1*
X817392Y5209138D2*
X749684Y5141430D1*
X661152Y5052898D2*
X415707Y4807453D1*
X845676Y5209138D2*
X754987Y5118449D1*
X689436Y5052898D2*
X415700Y4779162D1*
X873961Y5209138D2*
X718361Y5053539D1*
X679465Y5014642D2*
X415707Y4750885D1*
X902245Y5209138D2*
X765718Y5072611D1*
X660392Y4967286D2*
X415707Y4722600D1*
X930529Y5209138D2*
X796074Y5074683D1*
X658321Y4936930D2*
X415707Y4694316D1*
X958813Y5209138D2*
X820754Y5071078D1*
X661925Y4912250D2*
X415707Y4666032D1*
X987098Y5209138D2*
X841884Y5063924D1*
X669079Y4891120D2*
X415707Y4637748D1*
X1015382Y5209138D2*
X860280Y5054036D1*
X678968Y4872724D2*
X415707Y4609463D1*
X1043666Y5209138D2*
X876342Y5041813D1*
X691190Y4856662D2*
X415707Y4581179D1*
X1071951Y5209138D2*
X890194Y5027381D1*
X705608Y4842796D2*
X415700Y4552888D1*
X1100235Y5209138D2*
X901836Y5010739D1*
X722264Y4831167D2*
X415700Y4524604D1*
X1128519Y5209138D2*
X911062Y4991681D1*
X741323Y4821942D2*
X415700Y4496319D1*
X1156803Y5209138D2*
X917401Y4969736D1*
X763254Y4815589D2*
X415700Y4468035D1*
X1185088Y5209138D2*
X919831Y4943882D1*
X789108Y4813158D2*
X415700Y4439751D1*
X1213372Y5209138D2*
X915453Y4911220D1*
X821784Y4817550D2*
X649777Y4645544D1*
X518902Y4514668D2*
X415700Y4411466D1*
X1241656Y5209138D2*
X702009Y4669491D1*
X494857Y4462339D2*
X415700Y4383182D1*
X1269940Y5209138D2*
X1086430Y5025627D1*
X1057656Y4996854D2*
X735790Y4674988D1*
X489333Y4428531D2*
X415700Y4354898D1*
X1298225Y5209138D2*
X1130002Y5040916D1*
X1043100Y4954013D2*
X769419Y4680333D1*
X484030Y4394943D2*
X415700Y4326614D1*
X1326509Y5209138D2*
X1158287Y5040916D1*
X1043998Y4926627D2*
X799361Y4681990D1*
X482193Y4364822D2*
X415700Y4298329D1*
X1354793Y5209138D2*
X1186571Y5040916D1*
X1050337Y4904682D2*
X823792Y4678137D1*
X486005Y4340350D2*
X415700Y4270045D1*
X1383078Y5209138D2*
X1214855Y5040916D1*
X1059908Y4885968D2*
X848195Y4674256D1*
X489858Y4315919D2*
X415700Y4241761D1*
X1411362Y5209138D2*
X1243139Y5040916D1*
X1073718Y4871495D2*
X872613Y4670389D1*
X493725Y4291501D2*
X415700Y4213477D1*
X1439646Y5209138D2*
X1271424Y5040916D1*
X1090153Y4859645D2*
X894157Y4663649D1*
X500299Y4269791D2*
X415700Y4185192D1*
X1467930Y5209138D2*
X1299708Y5040916D1*
X1109460Y4850668D2*
X912898Y4654106D1*
X509814Y4251022D2*
X415700Y4156908D1*
X1496215Y5209138D2*
X1327992Y5040916D1*
X1133298Y4846221D2*
X931612Y4644535D1*
X519344Y4232267D2*
X415700Y4128624D1*
X1524499Y5209138D2*
X1356277Y5040916D1*
X1161582Y4846221D2*
X950325Y4634965D1*
X528873Y4213512D2*
X415700Y4100339D1*
X1552783Y5209138D2*
X1384561Y5040916D1*
X1189866Y4846221D2*
X968555Y4624911D1*
X538844Y4195200D2*
X415700Y4072055D1*
X1581067Y5209138D2*
X1412845Y5040916D1*
X1218150Y4846221D2*
X983554Y4611625D1*
X552034Y4180104D2*
X415700Y4043771D1*
X1609352Y5209138D2*
X1441129Y5040916D1*
X1246435Y4846221D2*
X997668Y4597455D1*
X566162Y4165948D2*
X415700Y4015487D1*
X1637636Y5209138D2*
X1469414Y5040916D1*
X1274719Y4846221D2*
X1011797Y4583299D1*
X580277Y4151779D2*
X415700Y3987202D1*
X1665920Y5209138D2*
X1497698Y5040916D1*
X1303003Y4846221D2*
X1025911Y4569129D1*
X594405Y4137623D2*
X415700Y3958918D1*
X1694204Y5209138D2*
X1525982Y5040916D1*
X1331287Y4846221D2*
X1039114Y4554048D1*
X609389Y4124323D2*
X415700Y3930634D1*
X1722489Y5209138D2*
X1554266Y5040916D1*
X1359572Y4846221D2*
X1049099Y4535749D1*
X627606Y4114255D2*
X415700Y3902350D1*
X1750773Y5209138D2*
X1582551Y5040916D1*
X1387856Y4846221D2*
X1058629Y4516994D1*
X629139Y4087504D2*
X415700Y3874065D1*
X1779057Y5209138D2*
X1610835Y5040916D1*
X1416140Y4846221D2*
X1068158Y4498239D1*
X629139Y4059220D2*
X415700Y3845781D1*
X1807342Y5209138D2*
X1639119Y5040916D1*
X1444425Y4846221D2*
X1077674Y4479470D1*
X630989Y4032786D2*
X415700Y3817497D1*
X1835626Y5209138D2*
X1667403Y5040916D1*
X1472709Y4846221D2*
X1388842Y4762354D1*
X1340251Y4713763D2*
X1084261Y4457774D1*
X638903Y4012415D2*
X415700Y3789212D1*
X1863910Y5209138D2*
X1695688Y5040916D1*
X1500993Y4846221D2*
X1414406Y4759634D1*
X1342971Y4688199D2*
X1088128Y4433356D1*
X652037Y3997265D2*
X415700Y3760928D1*
X1892194Y5209138D2*
X1723972Y5040916D1*
X1529277Y4846221D2*
X1432194Y4749138D1*
X1324645Y4641588D2*
X1091982Y4408925D1*
X667201Y3984145D2*
X415700Y3732644D1*
X1920479Y5209138D2*
X1752256Y5040916D1*
X1557562Y4846221D2*
X1444596Y4733255D1*
X1324645Y4613304D2*
X1095793Y4384453D1*
X695485Y3984145D2*
X415700Y3704360D1*
X1948763Y5209138D2*
X1780541Y5040916D1*
X1585846Y4846221D2*
X1450659Y4711034D1*
X1324645Y4585020D2*
X1093984Y4354359D1*
X723769Y3984145D2*
X415700Y3676075D1*
X1977047Y5209138D2*
X1808825Y5040916D1*
X1614130Y4846221D2*
X1440038Y4672129D1*
X1324645Y4556735D2*
X1088681Y4320772D1*
X752054Y3984145D2*
X613331Y3845422D1*
X537574Y3769665D2*
X415700Y3647791D1*
X2005331Y5209138D2*
X1837109Y5040916D1*
X1642414Y4846221D2*
X1461279Y4665086D1*
X1324645Y4528451D2*
X1083170Y4286977D1*
X780338Y3984145D2*
X671778Y3875584D1*
X507411Y3711218D2*
X415700Y3619507D1*
X2033616Y5209138D2*
X1865393Y5040916D1*
X1670699Y4846221D2*
X1466044Y4641566D1*
X1324645Y4500167D2*
X1059195Y4234717D1*
X808622Y3984145D2*
X714936Y3890459D1*
X492551Y3668073D2*
X415700Y3591223D1*
X2061900Y5209138D2*
X1893678Y5040916D1*
X1698983Y4846221D2*
X1466044Y4613282D1*
X1324645Y4471883D2*
X948861Y4096100D1*
X836907Y3984145D2*
X748538Y3895776D1*
X487220Y3634458D2*
X415700Y3562938D1*
X2090184Y5209138D2*
X1921962Y5040916D1*
X1727267Y4846221D2*
X1466044Y4584998D1*
X1324645Y4443598D2*
X948861Y4067815D1*
X865191Y3984145D2*
X782015Y3900969D1*
X482041Y3600995D2*
X415700Y3534654D1*
X2118469Y5209138D2*
X1950246Y5040916D1*
X1755552Y4846221D2*
X1466044Y4556713D1*
X1324645Y4415314D2*
X948861Y4039531D1*
X893475Y3984145D2*
X808628Y3899297D1*
X483698Y3574368D2*
X415700Y3506370D1*
X2146753Y5209138D2*
X1978530Y5040916D1*
X1783836Y4846221D2*
X1466044Y4528429D1*
X1324645Y4387030D2*
X833045Y3895430D1*
X487565Y3549951D2*
X415700Y3478086D1*
X2175037Y5209138D2*
X2006815Y5040916D1*
X1812120Y4846221D2*
X1466044Y4500145D1*
X1324645Y4358746D2*
X857462Y3891563D1*
X491432Y3525533D2*
X415700Y3449801D1*
X2203321Y5209138D2*
X2035099Y5040916D1*
X1840404Y4846221D2*
X1466044Y4471861D1*
X1324645Y4330461D2*
X881438Y3887254D1*
X495741Y3501558D2*
X415700Y3421517D1*
X2231606Y5209138D2*
X2060690Y5038223D1*
X1868689Y4846221D2*
X1466044Y4443576D1*
X1324645Y4302177D2*
X901284Y3878816D1*
X504180Y3481712D2*
X415700Y3393233D1*
X2259890Y5209138D2*
X2081503Y5030751D1*
X1896973Y4846221D2*
X1466044Y4415292D1*
X1324645Y4273893D2*
X920025Y3869273D1*
X513723Y3462971D2*
X415700Y3364948D1*
X2288174Y5209138D2*
X2099360Y5020324D1*
X1925257Y4846221D2*
X1750710Y4671673D1*
X1711399Y4632363D2*
X1466044Y4387008D1*
X1324645Y4245608D2*
X938766Y3859730D1*
X523280Y3444244D2*
X415700Y3336664D1*
X2316458Y5209138D2*
X2113502Y5006182D1*
X1953541Y4846221D2*
X1778994Y4671673D1*
X1711399Y4604078D2*
X1466044Y4358723D1*
X1324645Y4217324D2*
X957493Y3850173D1*
X532823Y3425503D2*
X415700Y3308380D1*
X2344743Y5209138D2*
X2124523Y4988919D1*
X1981826Y4846221D2*
X1807278Y4671673D1*
X1711399Y4575794D2*
X1466044Y4330439D1*
X1324645Y4189040D2*
X974674Y3839069D1*
X543927Y3408322D2*
X415700Y3280096D1*
X2373027Y5209138D2*
X2132727Y4968838D1*
X2010110Y4846221D2*
X1835397Y4671508D1*
X1711399Y4547510D2*
X1466044Y4302155D1*
X1324645Y4160756D2*
X988968Y3825079D1*
X557917Y3394028D2*
X415700Y3251811D1*
X2401311Y5209138D2*
X2136345Y4944172D1*
X2038394Y4846221D2*
X1851348Y4659175D1*
X1711399Y4519226D2*
X1466044Y4273871D1*
X1324645Y4132471D2*
X1003110Y3810937D1*
X572059Y3379886D2*
X415700Y3223527D1*
X2429596Y5209138D2*
X2128252Y4907795D1*
X2075214Y4854756D2*
X1852798Y4632341D1*
X1711399Y4490941D2*
X1466044Y4245586D1*
X1324645Y4104187D2*
X1017252Y3796795D1*
X579144Y3358687D2*
X415700Y3195243D1*
X2457880Y5209138D2*
X1852798Y4604056D1*
X1711399Y4462657D2*
X1466044Y4217302D1*
X1324645Y4075903D2*
X1031380Y3782639D1*
X579144Y3330402D2*
X415700Y3166959D1*
X2486164Y5209138D2*
X2343312Y5066286D1*
X2266712Y4989686D2*
X1852798Y4575772D1*
X1711399Y4434373D2*
X1466044Y4189018D1*
X1324645Y4047619D2*
X1043257Y3766232D1*
X579144Y3302118D2*
X415700Y3138674D1*
X2514448Y5209138D2*
X2497909Y5192598D1*
X2452908Y5147598D2*
X2379772Y5074462D1*
X2258536Y4953226D2*
X1852798Y4547488D1*
X1711399Y4406089D2*
X1466044Y4160734D1*
X1324645Y4019334D2*
X1052814Y3747504D1*
X579144Y3273834D2*
X415700Y3110390D1*
X2542733Y5209138D2*
X2530391Y5196797D1*
X2448696Y5115101D2*
X2407242Y5073647D1*
X2259351Y4925757D2*
X1852798Y4519204D1*
X1711399Y4377804D2*
X1466044Y4132449D1*
X1324645Y3991050D2*
X1062371Y3728777D1*
X579144Y3245550D2*
X415700Y3082106D1*
X2571018Y5209139D2*
X2553056Y5191177D1*
X2526478Y5164600D2*
X2480909Y5119030D1*
X2454331Y5092453D2*
X2430237Y5068359D1*
X2264642Y4902763D2*
X1852799Y4490920D1*
X1711400Y4349521D2*
X1466045Y4104166D1*
X1324645Y3962767D2*
X1071916Y3710037D1*
X584200Y3222321D2*
X415701Y3053822D1*
X2599302Y5209139D2*
X2570899Y5180736D1*
X2547471Y5157308D2*
X2488187Y5098024D1*
X2464772Y5074609D2*
X2450125Y5059962D1*
X2273039Y4882876D2*
X1852799Y4462636D1*
X1711400Y4321237D2*
X1466045Y4075882D1*
X1324645Y3934482D2*
X1080920Y3690757D1*
X594958Y3204795D2*
X415701Y3025538D1*
X2627586Y5209139D2*
X2584848Y5166401D1*
X2560618Y5142171D2*
X2503323Y5084876D1*
X2479094Y5060647D2*
X2467485Y5049037D1*
X2283963Y4865516D2*
X1852799Y4434352D1*
X1711400Y4292952D2*
X1466045Y4047597D1*
X1324645Y3906198D2*
X1085795Y3667348D1*
X610523Y3192076D2*
X415701Y2997254D1*
X2655871Y5209139D2*
X2594474Y5147742D1*
X2566129Y5119397D2*
X2526097Y5079366D1*
X2497752Y5051021D2*
X2482580Y5035848D1*
X2297152Y4850421D2*
X2118724Y4671992D1*
X2099770Y4653038D2*
X1852799Y4406067D1*
X1711400Y4264668D2*
X1466045Y4019313D1*
X1324645Y3877914D2*
X1089662Y3642931D1*
X630880Y3184148D2*
X415701Y2968970D1*
X2684155Y5209139D2*
X2598824Y5123808D1*
X2521686Y5046670D2*
X2495493Y5020477D1*
X2312510Y4837494D2*
X2147146Y4672130D1*
X2099646Y4624630D2*
X1852799Y4377783D1*
X1711400Y4236384D2*
X1466045Y3991029D1*
X1324645Y3849630D2*
X1093529Y3618513D1*
X659164Y3184148D2*
X415701Y2940685D1*
X2712439Y5209139D2*
X2587500Y5084199D1*
X2561295Y5057995D2*
X2506141Y5002841D1*
X2330160Y4826859D2*
X2175430Y4672130D1*
X2099646Y4596345D2*
X1852799Y4349499D1*
X1711400Y4208100D2*
X1466045Y3962745D1*
X1324645Y3821345D2*
X1096333Y3593033D1*
X687448Y3184148D2*
X415701Y2912401D1*
X2740723Y5209139D2*
X2514192Y4982608D1*
X2350392Y4818808D2*
X2203715Y4672130D1*
X2099646Y4568061D2*
X1852799Y4321215D1*
X1711400Y4179815D2*
X1466045Y3934460D1*
X1324645Y3793061D2*
X1091844Y3560260D1*
X715733Y3184148D2*
X415701Y2884117D1*
X2761799Y5201930D2*
X2519026Y4959158D1*
X2373829Y4813960D2*
X2229927Y4670059D1*
X2099646Y4539777D2*
X1852799Y4292930D1*
X1711400Y4151531D2*
X1491166Y3931298D1*
X1324645Y3764777D2*
X1086513Y3526645D1*
X744017Y3184148D2*
X415701Y2855832D1*
X2761743Y5173590D2*
X2519109Y4930956D1*
X2402044Y4813891D2*
X2241031Y4652878D1*
X2099646Y4511493D2*
X1852799Y4264646D1*
X1711400Y4123247D2*
X1519451Y3931298D1*
X1324645Y3736493D2*
X1076459Y3488306D1*
X772301Y3184148D2*
X415701Y2827548D1*
X2761688Y5145251D2*
X2508889Y4892452D1*
X2440548Y4824111D2*
X2241045Y4624608D1*
X2099646Y4483208D2*
X1852799Y4236362D1*
X1711400Y4094963D2*
X1547735Y3931298D1*
X1485319Y3868882D2*
X1466045Y3849608D1*
X1324645Y3708208D2*
X1047070Y3430633D1*
X800585Y3184148D2*
X415701Y2799264D1*
X2761633Y5116911D2*
X2241045Y4596323D1*
X2099646Y4454924D2*
X1852799Y4208078D1*
X1711400Y4066678D2*
X1576019Y3931298D1*
X1513603Y3868882D2*
X1466045Y3821323D1*
X1324645Y3679924D2*
X986358Y3341637D1*
X828870Y3184148D2*
X415701Y2770980D1*
X2761578Y5088572D2*
X2241045Y4568039D1*
X2099646Y4426640D2*
X1852799Y4179793D1*
X1711400Y4038394D2*
X1604303Y3931298D1*
X1541887Y3868882D2*
X1466045Y3793039D1*
X1324645Y3651640D2*
X986358Y3313353D1*
X857154Y3184148D2*
X415701Y2742695D1*
X2761522Y5060232D2*
X2241045Y4539755D1*
X2099646Y4398356D2*
X1852799Y4151509D1*
X1711400Y4010110D2*
X1632588Y3931298D1*
X1570172Y3868882D2*
X1466045Y3764755D1*
X1324645Y3623355D2*
X986358Y3285068D1*
X885438Y3184148D2*
X415701Y2714411D1*
X2761467Y5031893D2*
X2241045Y4511471D1*
X2099646Y4370071D2*
X1852799Y4123225D1*
X1711400Y3981825D2*
X1660872Y3931298D1*
X1598456Y3868882D2*
X1466045Y3736470D1*
X1324645Y3595071D2*
X986358Y3256784D1*
X913723Y3184148D2*
X415701Y2686127D1*
X2761412Y5003553D2*
X2241045Y4483186D1*
X2099646Y4341787D2*
X1852799Y4094940D1*
X1711400Y3953541D2*
X1689156Y3931298D1*
X1626740Y3868882D2*
X1466045Y3708186D1*
X1324645Y3566787D2*
X981027Y3223169D1*
X942007Y3184148D2*
X415701Y2657843D1*
X2761357Y4975214D2*
X2547946Y4761803D1*
X2503276Y4717134D2*
X2241045Y4454902D1*
X2099646Y4313503D2*
X1852799Y4066656D1*
X1711400Y3925257D2*
X1706337Y3920194D1*
X1655025Y3868882D2*
X1466045Y3679902D1*
X1324645Y3538503D2*
X415701Y2629558D1*
X2761301Y4946874D2*
X2574766Y4760339D1*
X2504754Y4690327D2*
X2241045Y4426618D1*
X2099646Y4285218D2*
X1852799Y4038372D1*
X1711400Y3896973D2*
X1706337Y3891910D1*
X1683309Y3868882D2*
X1466045Y3651618D1*
X1324645Y3510218D2*
X415701Y2601274D1*
X2761246Y4918535D2*
X2593148Y4750437D1*
X2487146Y4644434D2*
X2241045Y4398333D1*
X2099646Y4256934D2*
X1852799Y4010088D1*
X1711400Y3868688D2*
X1466045Y3623333D1*
X1324645Y3481934D2*
X415701Y2572990D1*
X2761191Y4890195D2*
X2606075Y4735079D1*
X2487146Y4616150D2*
X2241045Y4370049D1*
X2099646Y4228650D2*
X1852799Y3981803D1*
X1711400Y3840404D2*
X1466045Y3595049D1*
X1324645Y3453650D2*
X415701Y2544706D1*
X2761136Y4861856D2*
X2612925Y4713645D1*
X2487146Y4587866D2*
X2241045Y4341765D1*
X2099646Y4200366D2*
X1852799Y3953519D1*
X1711400Y3812120D2*
X1466045Y3566765D1*
X1324645Y3425366D2*
X415701Y2516421D1*
X2761080Y4833516D2*
X2600357Y4672793D1*
X2487146Y4559581D2*
X2241045Y4313481D1*
X2099646Y4172081D2*
X1852799Y3925235D1*
X1711400Y3783836D2*
X1466045Y3538481D1*
X1324645Y3397081D2*
X669735Y2742171D1*
X615826Y2688262D2*
X415701Y2488137D1*
X2761025Y4805177D2*
X2622399Y4666551D1*
X2487146Y4531297D2*
X2241045Y4285196D1*
X2099646Y4143797D2*
X1886580Y3930731D1*
X1855376Y3899528D2*
X1852797Y3896949D1*
X1711400Y3755551D2*
X1466045Y3510196D1*
X1324645Y3368797D2*
X720227Y2764378D1*
X593632Y2637784D2*
X415701Y2459853D1*
X2760956Y4776823D2*
X2628545Y4644412D1*
X2487146Y4503013D2*
X2241045Y4256912D1*
X2099646Y4115513D2*
X1914864Y3930731D1*
X1855376Y3871243D2*
X1852797Y3868665D1*
X1711400Y3727267D2*
X1466045Y3481912D1*
X1324645Y3340513D2*
X753911Y2769778D1*
X588232Y2604100D2*
X415701Y2431568D1*
X2760901Y4748484D2*
X2628545Y4616128D1*
X2487146Y4474729D2*
X2241045Y4228628D1*
X2099646Y4087229D2*
X1943148Y3930731D1*
X1880732Y3868315D2*
X1852799Y3840382D1*
X1711400Y3698983D2*
X1466045Y3453628D1*
X1324645Y3312228D2*
X781698Y2769281D1*
X588716Y2576299D2*
X415701Y2403284D1*
X2760846Y4720144D2*
X2628545Y4587844D1*
X2487146Y4446444D2*
X2241045Y4200344D1*
X2099646Y4058944D2*
X1971433Y3930731D1*
X1909017Y3868315D2*
X1852799Y3812098D1*
X1711400Y3670698D2*
X1466045Y3425343D1*
X1324645Y3283944D2*
X805908Y2765207D1*
X592804Y2552103D2*
X415701Y2375000D1*
X2760790Y4691805D2*
X2628545Y4559559D1*
X2487146Y4418160D2*
X2241045Y4172059D1*
X2099646Y4030660D2*
X1999717Y3930731D1*
X1937301Y3868315D2*
X1852799Y3783813D1*
X1711400Y3642414D2*
X1466045Y3397059D1*
X1324645Y3255660D2*
X1178562Y3109576D1*
X1155548Y3086562D2*
X827480Y2758495D1*
X599516Y2530530D2*
X415701Y2346716D1*
X2760735Y4663465D2*
X2628545Y4531275D1*
X2487146Y4389876D2*
X2241045Y4143775D1*
X2099646Y4002376D2*
X2028001Y3930731D1*
X1965585Y3868315D2*
X1852799Y3755529D1*
X1711400Y3614130D2*
X1466045Y3368775D1*
X1324645Y3227376D2*
X1213378Y3116109D1*
X1142455Y3045185D2*
X846912Y2749642D1*
X608355Y2511085D2*
X415701Y2318431D1*
X2760680Y4635126D2*
X2628545Y4502991D1*
X2487146Y4361592D2*
X2241045Y4115491D1*
X2099646Y3974091D2*
X2056286Y3930731D1*
X1993870Y3868315D2*
X1852799Y3727245D1*
X1711400Y3585846D2*
X1466045Y3340491D1*
X1324645Y3199091D2*
X1241663Y3116109D1*
X1143643Y3018089D2*
X864507Y2738953D1*
X619044Y2493490D2*
X415701Y2290147D1*
X2760625Y4606786D2*
X2628545Y4474707D1*
X2487146Y4333307D2*
X2241045Y4087206D1*
X2099646Y3945807D2*
X2084570Y3930731D1*
X2022154Y3868315D2*
X1852799Y3698961D1*
X1711400Y3557561D2*
X1466045Y3312206D1*
X1324645Y3170807D2*
X1269947Y3116109D1*
X1150382Y2996544D2*
X880389Y2726551D1*
X631446Y2477608D2*
X415701Y2261863D1*
X2760569Y4578447D2*
X2628545Y4446422D1*
X2487146Y4305023D2*
X2241045Y4058922D1*
X2099646Y3917523D2*
X2094928Y3912805D1*
X2050438Y3868315D2*
X1852799Y3670676D1*
X1711400Y3529277D2*
X1466045Y3283922D1*
X1325930Y3143807D2*
X1298231Y3116109D1*
X1161348Y2979225D2*
X894642Y2712519D1*
X645478Y2463355D2*
X415701Y2233579D1*
X2760514Y4550107D2*
X2628545Y4418138D1*
X2487146Y4276739D2*
X2241045Y4030638D1*
X2099646Y3889239D2*
X2094928Y3884521D1*
X2078722Y3868315D2*
X1852799Y3642392D1*
X1711400Y3500993D2*
X1466045Y3255638D1*
X1341522Y3131115D2*
X1326515Y3116109D1*
X1176678Y2966271D2*
X907278Y2696872D1*
X661125Y2450718D2*
X415701Y2205294D1*
X2760459Y4521768D2*
X2628545Y4389854D1*
X2487146Y4248454D2*
X2241045Y4002354D1*
X2099646Y3860954D2*
X1852799Y3614108D1*
X1711400Y3472709D2*
X1466045Y3227354D1*
X1369572Y3130880D2*
X1354800Y3116109D1*
X1197891Y2959200D2*
X918230Y2679539D1*
X678458Y2439766D2*
X415701Y2177010D1*
X2760404Y4493428D2*
X2628545Y4361569D1*
X2487146Y4220170D2*
X2241045Y3974069D1*
X2099646Y3832670D2*
X1852799Y3585824D1*
X1711400Y3444424D2*
X1466045Y3199069D1*
X1397856Y3130880D2*
X1383084Y3116109D1*
X1225899Y2958924D2*
X927345Y2660370D1*
X697627Y2430651D2*
X415701Y2148726D1*
X2760348Y4465089D2*
X2628545Y4333285D1*
X2487146Y4191886D2*
X2241045Y3945785D1*
X2099646Y3804386D2*
X1852799Y3557539D1*
X1711400Y3416140D2*
X1466045Y3170785D1*
X1426140Y3130880D2*
X1411368Y3116109D1*
X1254183Y2958924D2*
X934389Y2639129D1*
X716644Y2421384D2*
X415701Y2120441D1*
X2760293Y4436749D2*
X2628545Y4305001D1*
X2487146Y4163602D2*
X2254137Y3930593D1*
X2099646Y3776102D2*
X1852799Y3529255D1*
X1711400Y3387856D2*
X1439653Y3116109D1*
X1282468Y2958924D2*
X938891Y2615347D1*
X716644Y2393100D2*
X415701Y2092157D1*
X2760238Y4408410D2*
X2628545Y4276717D1*
X2487146Y4135317D2*
X2282422Y3930593D1*
X2099646Y3747817D2*
X1852799Y3500971D1*
X1711400Y3359571D2*
X1467937Y3116109D1*
X1310752Y2958924D2*
X939982Y2588154D1*
X716644Y2364816D2*
X674430Y2322602D1*
X610399Y2258570D2*
X415701Y2063873D1*
X2760183Y4380070D2*
X2628545Y4248432D1*
X2487146Y4107033D2*
X2310706Y3930593D1*
X2248290Y3868177D2*
X2241045Y3860932D1*
X2099646Y3719533D2*
X1852799Y3472686D1*
X1711400Y3331287D2*
X1496221Y3116109D1*
X1339050Y2958937D2*
X935687Y2555575D1*
X716644Y2336532D2*
X702715Y2322602D1*
X615288Y2235175D2*
X415701Y2035589D1*
X2760127Y4351731D2*
X2628545Y4220148D1*
X2487146Y4078749D2*
X2338990Y3930593D1*
X2276574Y3868177D2*
X2241045Y3832648D1*
X2099646Y3691249D2*
X1852799Y3444402D1*
X1711400Y3303003D2*
X1524505Y3116109D1*
X1367334Y2958937D2*
X918175Y2509778D1*
X848218Y2439822D2*
X805107Y2396710D1*
X625963Y2217566D2*
X415701Y2007304D1*
X2760072Y4323391D2*
X2628545Y4191864D1*
X2487146Y4050465D2*
X2367274Y3930593D1*
X2304858Y3868177D2*
X2241045Y3804364D1*
X2099646Y3662964D2*
X1852799Y3416118D1*
X1711400Y3274719D2*
X1552790Y3116109D1*
X1371464Y2934783D2*
X805107Y2368426D1*
X641431Y2204750D2*
X415701Y1979020D1*
X2760003Y4295038D2*
X2628545Y4163580D1*
X2487146Y4022180D2*
X2395559Y3930593D1*
X2333143Y3868177D2*
X2241045Y3776079D1*
X2099646Y3634680D2*
X1852799Y3387834D1*
X1711400Y3246434D2*
X1581074Y3116109D1*
X1371464Y2906498D2*
X805107Y2340142D1*
X661609Y2196643D2*
X415701Y1950736D1*
X2759948Y4266698D2*
X2628545Y4135295D1*
X2487146Y3993896D2*
X2423843Y3930593D1*
X2361427Y3868177D2*
X2241045Y3747795D1*
X2099646Y3606396D2*
X1852799Y3359549D1*
X1711400Y3218150D2*
X1609358Y3116109D1*
X1452201Y2958951D2*
X1423674Y2930424D1*
X1371464Y2878214D2*
X1251620Y2758371D1*
X1149637Y2656387D2*
X815852Y2322602D1*
X689893Y2196643D2*
X415701Y1922452D1*
X2759893Y4238359D2*
X2628545Y4107011D1*
X2487146Y3965612D2*
X2452127Y3930593D1*
X2389711Y3868177D2*
X2241045Y3719511D1*
X2099646Y3578112D2*
X1852799Y3331265D1*
X1711400Y3189866D2*
X1637642Y3116109D1*
X1480485Y2958951D2*
X1423674Y2902140D1*
X1371464Y2849930D2*
X1289876Y2768342D1*
X1139665Y2618131D2*
X844136Y2322602D1*
X716644Y2195110D2*
X415701Y1894167D1*
X2759837Y4210019D2*
X2628545Y4078727D1*
X2487146Y3937327D2*
X2480412Y3930593D1*
X2417996Y3868177D2*
X2241045Y3691227D1*
X2099646Y3549827D2*
X1852799Y3302981D1*
X1711400Y3161582D2*
X1665927Y3116109D1*
X1508783Y2958965D2*
X1423674Y2873855D1*
X1371464Y2821646D2*
X1319845Y2770027D1*
X1137967Y2588148D2*
X870583Y2320765D1*
X716644Y2166826D2*
X415701Y1865883D1*
X2759782Y4181680D2*
X2628545Y4050442D1*
X2487146Y3909043D2*
X2480688Y3902585D1*
X2446280Y3868177D2*
X2241045Y3662942D1*
X2099646Y3521543D2*
X1852799Y3274697D1*
X1715888Y3137786D2*
X1694211Y3116109D1*
X1537068Y2958965D2*
X1423674Y2845571D1*
X1373328Y2795226D2*
X1345491Y2767389D1*
X1140618Y2562516D2*
X890471Y2312368D1*
X716644Y2138542D2*
X671213Y2093110D1*
X614887Y2036785D2*
X415701Y1837599D1*
X2759727Y4153340D2*
X2628545Y4022158D1*
X2487146Y3880759D2*
X2480688Y3874301D1*
X2474579Y3868193D2*
X2241045Y3634658D1*
X2099646Y3493259D2*
X1852799Y3246412D1*
X1736811Y3130425D2*
X1722495Y3116109D1*
X1565352Y2958965D2*
X1423674Y2817287D1*
X1386062Y2779675D2*
X1368155Y2761768D1*
X1146239Y2539852D2*
X904944Y2298558D1*
X593439Y1987052D2*
X415701Y1809314D1*
X2759672Y4125001D2*
X2628545Y3993874D1*
X2487146Y3852475D2*
X2241045Y3606374D1*
X2099646Y3464975D2*
X1852799Y3218128D1*
X1765096Y3130425D2*
X1750780Y3116109D1*
X1593636Y2958965D2*
X1437539Y2802869D1*
X1400204Y2765533D2*
X1388498Y2753827D1*
X1154166Y2519495D2*
X914598Y2279927D1*
X831314Y2196643D2*
X805107Y2170436D1*
X588191Y1953520D2*
X415701Y1781030D1*
X2759616Y4096661D2*
X2628545Y3965590D1*
X2487146Y3824190D2*
X2241045Y3578090D1*
X2099646Y3436690D2*
X1852799Y3189844D1*
X1793380Y3130425D2*
X1779064Y3116109D1*
X1621934Y2958979D2*
X1451682Y2788726D1*
X1414346Y2751391D2*
X1406894Y2743938D1*
X1164069Y2501113D2*
X916822Y2253866D1*
X859598Y2196643D2*
X805107Y2142152D1*
X588771Y1925816D2*
X415701Y1752746D1*
X2759561Y4068322D2*
X2628545Y3937305D1*
X2487146Y3795906D2*
X2241045Y3549805D1*
X2099646Y3408406D2*
X1852799Y3161559D1*
X1821664Y3130425D2*
X1807348Y3116109D1*
X1650218Y2958979D2*
X1465824Y2774584D1*
X1428488Y2737248D2*
X1423522Y2732282D1*
X1175725Y2484485D2*
X806336Y2115097D1*
X592900Y1901661D2*
X415701Y1724462D1*
X2759506Y4039982D2*
X2628545Y3909021D1*
X2487146Y3767622D2*
X2241045Y3521521D1*
X2099646Y3380122D2*
X1835632Y3116109D1*
X1678503Y2958979D2*
X1479966Y2760442D1*
X1442630Y2723106D2*
X1438491Y2718968D1*
X1189025Y2469501D2*
X827867Y2108343D1*
X599654Y1880130D2*
X415701Y1696177D1*
X2759451Y4011643D2*
X2628545Y3880737D1*
X2487146Y3739338D2*
X2241045Y3493237D1*
X2099646Y3351838D2*
X1863917Y3116109D1*
X1706801Y2958993D2*
X1494108Y2746300D1*
X1456772Y2708964D2*
X1451861Y2704053D1*
X1203954Y2456146D2*
X847271Y2099463D1*
X608534Y1860726D2*
X415701Y1667893D1*
X2759396Y3983303D2*
X2628545Y3852453D1*
X2487146Y3711053D2*
X2241045Y3464952D1*
X2099646Y3323553D2*
X1892201Y3116109D1*
X1735085Y2958993D2*
X1508250Y2732158D1*
X1470914Y2694822D2*
X1463573Y2687480D1*
X1220527Y2444434D2*
X864824Y2088732D1*
X619265Y1843173D2*
X415701Y1639609D1*
X2759340Y3954964D2*
X2628545Y3824168D1*
X2487146Y3682769D2*
X2241045Y3436668D1*
X2099646Y3295269D2*
X1920485Y3116109D1*
X1754185Y2949809D2*
X1522392Y2718016D1*
X1485057Y2680680D2*
X1473530Y2669154D1*
X1238854Y2434477D2*
X880679Y2076303D1*
X631695Y1827318D2*
X415701Y1611325D1*
X2759285Y3926624D2*
X2628545Y3795884D1*
X2487146Y3654485D2*
X2241045Y3408384D1*
X2099646Y3266985D2*
X1948769Y3116109D1*
X1754185Y2921524D2*
X1536534Y2703874D1*
X1499199Y2666538D2*
X1481540Y2648879D1*
X1259128Y2426467D2*
X894904Y2062243D1*
X645754Y1813093D2*
X500499Y1667838D1*
X446991Y1614330D2*
X415701Y1583040D1*
X2759230Y3898285D2*
X2628545Y3767600D1*
X2487146Y3626200D2*
X2241045Y3380100D1*
X2099646Y3238700D2*
X1977054Y3116109D1*
X1819952Y2959007D2*
X1806395Y2945450D1*
X1754185Y2893240D2*
X1549558Y2688613D1*
X1499668Y2638723D2*
X1487244Y2626299D1*
X1266641Y2405695D2*
X907499Y2046554D1*
X661443Y1800498D2*
X551101Y1690156D1*
X424659Y1563714D2*
X415701Y1554756D1*
X2759175Y3869945D2*
X2628545Y3739315D1*
X2487146Y3597916D2*
X2241045Y3351815D1*
X2099646Y3210416D2*
X2005338Y3116109D1*
X1848236Y2959007D2*
X1806395Y2917166D1*
X1754185Y2864956D2*
X1551878Y2662649D1*
X1499668Y2610439D2*
X1490006Y2600777D1*
X1266641Y2377411D2*
X1211832Y2322602D1*
X1154981Y2265752D2*
X918424Y2029194D1*
X678803Y1789573D2*
X584813Y1695584D1*
X419231Y1530002D2*
X415701Y1526472D1*
X2759119Y3841606D2*
X2628545Y3711031D1*
X2487146Y3569632D2*
X2241045Y3323531D1*
X2099646Y3182132D2*
X2033622Y3116109D1*
X1876520Y2959007D2*
X1806395Y2888881D1*
X1754185Y2836672D2*
X1551878Y2634364D1*
X1499668Y2582155D2*
X1488501Y2570987D1*
X1266641Y2349127D2*
X1240116Y2322602D1*
X1157081Y2239567D2*
X927511Y2009997D1*
X698014Y1780500D2*
X612628Y1695114D1*
X419715Y1502201D2*
X415701Y1498187D1*
X2759050Y3813252D2*
X2628545Y3682747D1*
X2487146Y3541348D2*
X2241045Y3295247D1*
X2099646Y3153848D2*
X2061906Y3116109D1*
X1904818Y2959020D2*
X1806395Y2860597D1*
X1619559Y2673761D2*
X1551878Y2606080D1*
X1499668Y2553870D2*
X1478958Y2533160D1*
X1374847Y2429049D2*
X1355104Y2409306D1*
X1166651Y2220853D2*
X934499Y1988701D1*
X719296Y1773498D2*
X636838Y1691040D1*
X423789Y1477991D2*
X415701Y1469903D1*
X2758995Y3784913D2*
X2628545Y3654463D1*
X2487146Y3513063D2*
X2241045Y3266963D1*
X2108402Y3134319D2*
X2090191Y3116109D1*
X1933103Y2959020D2*
X1806395Y2832313D1*
X1619545Y2645463D2*
X1551878Y2577796D1*
X1499668Y2525586D2*
X1355104Y2381021D1*
X1181083Y2207001D2*
X938946Y1964864D1*
X743133Y1769051D2*
X658410Y1684328D1*
X430487Y1456405D2*
X415701Y1441619D1*
X2758940Y3756573D2*
X2628545Y3626178D1*
X2487146Y3484779D2*
X2241045Y3238678D1*
X2133247Y3130880D2*
X2118475Y3116109D1*
X1961387Y2959020D2*
X1805718Y2803352D1*
X1619545Y2617178D2*
X1551878Y2549512D1*
X1499668Y2497302D2*
X1355104Y2352737D1*
X1199010Y2196643D2*
X939968Y1937602D1*
X770409Y1768043D2*
X677855Y1675489D1*
X439326Y1436959D2*
X415701Y1413335D1*
X2758885Y3728234D2*
X2628545Y3597894D1*
X2487146Y3456495D2*
X2241045Y3210394D1*
X2161531Y3130880D2*
X2146759Y3116109D1*
X1989685Y2959034D2*
X1777600Y2746949D1*
X1711054Y2680404D2*
X1671769Y2641118D1*
X1619545Y2588894D2*
X1551878Y2521227D1*
X1499668Y2469017D2*
X1355104Y2324453D1*
X1227294Y2196643D2*
X935521Y1904871D1*
X803127Y1772476D2*
X695450Y1664800D1*
X450015Y1419364D2*
X415701Y1385050D1*
X2758829Y3699894D2*
X2628545Y3569610D1*
X2487146Y3428211D2*
X2241045Y3182110D1*
X2189815Y3130880D2*
X2175044Y3116109D1*
X2017969Y2959034D2*
X1824335Y2765400D1*
X1692603Y2633668D2*
X1671769Y2612834D1*
X1619545Y2560610D2*
X1551878Y2492943D1*
X1499668Y2440733D2*
X1381537Y2322602D1*
X1255578Y2196643D2*
X917498Y1858563D1*
X849448Y1790513D2*
X711346Y1652411D1*
X462403Y1403468D2*
X415701Y1356766D1*
X2758774Y3671555D2*
X2628545Y3541326D1*
X2487146Y3399926D2*
X2241045Y3153826D1*
X2218100Y3130880D2*
X2203328Y3116109D1*
X2046253Y2959034D2*
X1857163Y2769944D1*
X1688060Y2600840D2*
X1671769Y2584549D1*
X1619545Y2532326D2*
X1551878Y2464659D1*
X1499668Y2412449D2*
X1409821Y2322602D1*
X1266641Y2179421D2*
X725613Y1638393D1*
X476435Y1389216D2*
X415701Y1328482D1*
X2758719Y3643215D2*
X2628545Y3513041D1*
X2487146Y3371642D2*
X2231612Y3116109D1*
X2074552Y2959048D2*
X1884495Y2768991D1*
X1689013Y2573509D2*
X1671769Y2556265D1*
X1619545Y2504041D2*
X1551878Y2436375D1*
X1499668Y2384165D2*
X1432319Y2316815D1*
X1266641Y2151137D2*
X738250Y1622746D1*
X492082Y1376579D2*
X467077Y1351573D1*
X444477Y1328974D2*
X415701Y1300198D1*
X2758664Y3614876D2*
X2628545Y3484757D1*
X2487146Y3343358D2*
X2259896Y3116109D1*
X2102836Y2959048D2*
X1908373Y2764585D1*
X1693418Y2549630D2*
X1671769Y2527981D1*
X1619545Y2475757D2*
X1551878Y2408090D1*
X1499668Y2355880D2*
X1448864Y2305076D1*
X1266641Y2122853D2*
X1252490Y2108702D1*
X1149305Y2005517D2*
X749201Y1605414D1*
X509401Y1365613D2*
X503896Y1360108D1*
X435859Y1292071D2*
X415701Y1271913D1*
X2758608Y3586536D2*
X2628545Y3456473D1*
X2487146Y3315073D2*
X2288181Y3116109D1*
X2131120Y2959048D2*
X1929697Y2757625D1*
X1700379Y2528307D2*
X1671769Y2499696D1*
X1619545Y2447473D2*
X1551878Y2379806D1*
X1499668Y2327596D2*
X1460603Y2288531D1*
X1368715Y2196643D2*
X1355104Y2183031D1*
X1139569Y1967496D2*
X758330Y1586258D1*
X441715Y1269643D2*
X415701Y1243629D1*
X2758553Y3558197D2*
X2628545Y3428188D1*
X2487146Y3286789D2*
X2316465Y3116109D1*
X2153093Y2952736D2*
X1948921Y2748565D1*
X1709439Y2509082D2*
X1671769Y2471412D1*
X1619545Y2419189D2*
X1551878Y2351522D1*
X1499668Y2299312D2*
X1466860Y2266503D1*
X1397000Y2196643D2*
X1355104Y2154747D1*
X1137980Y1937624D2*
X765374Y1565017D1*
X453109Y1252752D2*
X415701Y1215345D1*
X2758498Y3529857D2*
X2628545Y3399904D1*
X2487146Y3258505D2*
X2344749Y3116109D1*
X2153093Y2924452D2*
X1966323Y2737682D1*
X1720321Y2491681D2*
X1671769Y2443128D1*
X1619545Y2390904D2*
X1551878Y2323237D1*
X1499668Y2271028D2*
X1460438Y2231797D1*
X1431292Y2202651D2*
X1355104Y2126463D1*
X1140701Y1912060D2*
X897652Y1669012D1*
X838993Y1610352D2*
X769876Y1541235D1*
X469322Y1240682D2*
X415701Y1187060D1*
X2758443Y3501518D2*
X2628545Y3371620D1*
X2487146Y3230221D2*
X2373033Y3116109D1*
X2215987Y2959062D2*
X2205317Y2948392D1*
X2153093Y2896168D2*
X1982026Y2725101D1*
X1732903Y2475978D2*
X1671769Y2414844D1*
X1619545Y2362620D2*
X1551878Y2294953D1*
X1499668Y2242743D2*
X1368555Y2111630D1*
X1146363Y1889438D2*
X946667Y1689742D1*
X818249Y1561324D2*
X770995Y1514070D1*
X491074Y1234149D2*
X415701Y1158776D1*
X2758387Y3473178D2*
X2628545Y3343336D1*
X2487146Y3201936D2*
X2401318Y3116109D1*
X2244271Y2959062D2*
X2205317Y2920107D1*
X2153093Y2867884D2*
X1996099Y2710889D1*
X1747100Y2461891D2*
X1671769Y2386559D1*
X1619545Y2334336D2*
X1551878Y2266669D1*
X1499668Y2214459D2*
X1388871Y2103661D1*
X1154346Y1869137D2*
X980047Y1694838D1*
X813153Y1527944D2*
X766713Y1481504D1*
X519359Y1234149D2*
X415701Y1130492D1*
X2758332Y3444839D2*
X2628545Y3315051D1*
X2487146Y3173652D2*
X2429602Y3116109D1*
X2272569Y2959076D2*
X2205317Y2891823D1*
X2153093Y2839599D2*
X2008556Y2695062D1*
X1762941Y2449448D2*
X1671769Y2358275D1*
X1619545Y2306051D2*
X1551878Y2238385D1*
X1499668Y2186175D2*
X1407225Y2093732D1*
X1164276Y1850782D2*
X1007682Y1694189D1*
X813816Y1500323D2*
X749284Y1435791D1*
X679038Y1365544D2*
X673602Y1360108D1*
X547643Y1234149D2*
X512735Y1199242D1*
X439754Y1126260D2*
X415701Y1102208D1*
X2758277Y3416499D2*
X2628545Y3286767D1*
X2487753Y3145976D2*
X2457886Y3116109D1*
X2300853Y2959076D2*
X2205317Y2863539D1*
X2153093Y2811315D2*
X2019314Y2677537D1*
X1780467Y2438689D2*
X1671769Y2329991D1*
X1619545Y2277767D2*
X1551878Y2210100D1*
X1499668Y2157890D2*
X1423812Y2082034D1*
X1175960Y1834182D2*
X1031768Y1689990D1*
X818015Y1476237D2*
X701886Y1360108D1*
X575927Y1234149D2*
X557716Y1215939D1*
X423057Y1081279D2*
X415701Y1073923D1*
X2758222Y3388160D2*
X2628545Y3258483D1*
X2501688Y3131626D2*
X2486171Y3116109D1*
X2329138Y2959076D2*
X2205317Y2835255D1*
X2153093Y2783031D2*
X2028222Y2658160D1*
X1799830Y2429768D2*
X1671769Y2301707D1*
X1619545Y2249483D2*
X1551878Y2181816D1*
X1499668Y2129606D2*
X1438769Y2068707D1*
X1189301Y1819239D2*
X1053257Y1683195D1*
X824809Y1454747D2*
X730170Y1360108D1*
X604211Y1234149D2*
X590075Y1220013D1*
X418983Y1048921D2*
X415701Y1045639D1*
X2758166Y3359820D2*
X2628545Y3230199D1*
X2529227Y3130880D2*
X2514455Y3116109D1*
X2357436Y2959089D2*
X2205317Y2806970D1*
X2112130Y2713784D2*
X2035017Y2636671D1*
X1816637Y2418291D2*
X1671769Y2273422D1*
X1619545Y2221199D2*
X1551878Y2153532D1*
X1499668Y2101322D2*
X1452096Y2053750D1*
X1204258Y1805911D2*
X1072620Y1674274D1*
X833731Y1435385D2*
X758455Y1360108D1*
X632496Y1234149D2*
X617144Y1218797D1*
X420212Y1021865D2*
X415701Y1017355D1*
X2758097Y3331467D2*
X2628545Y3201914D1*
X2557511Y3130880D2*
X2542739Y3116109D1*
X2385720Y2959089D2*
X2205317Y2778686D1*
X2112130Y2685500D2*
X2039202Y2612571D1*
X1816637Y2390007D2*
X1739054Y2312424D1*
X1720819Y2294188D2*
X1671769Y2245138D1*
X1619545Y2192914D2*
X1551878Y2125248D1*
X1499668Y2073038D2*
X1463780Y2037149D1*
X1220858Y1794228D2*
X1090132Y1663501D1*
X844490Y1417859D2*
X786739Y1360108D1*
X660780Y1234149D2*
X640829Y1214198D1*
X424797Y998166D2*
X415701Y989071D1*
X2758042Y3303127D2*
X2628545Y3173630D1*
X2585795Y3130880D2*
X2571023Y3116109D1*
X2414004Y2959089D2*
X2164340Y2709425D1*
X2112130Y2657216D2*
X2039837Y2584922D1*
X1816637Y2361722D2*
X1777517Y2322602D1*
X1710695Y2255781D2*
X1671769Y2216854D1*
X1619545Y2164630D2*
X1551878Y2096963D1*
X1499668Y2044753D2*
X1473696Y2018781D1*
X1239213Y1784298D2*
X1105959Y1651044D1*
X856947Y1402032D2*
X815023Y1360108D1*
X689064Y1234149D2*
X662015Y1207100D1*
X431909Y976995D2*
X415701Y960786D1*
X2757987Y3274788D2*
X2626321Y3143122D1*
X2616303Y3133104D2*
X2599308Y3116109D1*
X2442289Y2959089D2*
X2164340Y2681141D1*
X2112130Y2628931D2*
X2034699Y2551500D1*
X1816637Y2333438D2*
X1805801Y2322602D1*
X1716275Y2233076D2*
X1671769Y2188570D1*
X1619545Y2136346D2*
X1551878Y2068679D1*
X1499668Y2016469D2*
X1481665Y1998466D1*
X1259528Y1776329D2*
X1120156Y1636957D1*
X871048Y1387848D2*
X843307Y1360108D1*
X717348Y1234149D2*
X681115Y1197916D1*
X441093Y957894D2*
X415701Y932502D1*
X2757932Y3246448D2*
X2627592Y3116109D1*
X2470587Y2959103D2*
X2164340Y2652857D1*
X2112130Y2600647D2*
X2013804Y2502321D1*
X1955683Y2444200D2*
X1905114Y2393630D1*
X1727448Y2215964D2*
X1671769Y2160285D1*
X1619545Y2108062D2*
X1551878Y2040395D1*
X1499668Y1988185D2*
X1487327Y1975844D1*
X1282164Y1770680D2*
X1132724Y1621241D1*
X886750Y1375267D2*
X871592Y1360108D1*
X745633Y1234149D2*
X698392Y1186909D1*
X452087Y940603D2*
X415701Y904218D1*
X2757876Y3218109D2*
X2655876Y3116109D1*
X2498871Y2959103D2*
X2164340Y2624573D1*
X2112130Y2572363D2*
X1905114Y2365346D1*
X1743427Y2203659D2*
X1671769Y2132001D1*
X1619545Y2079777D2*
X1551878Y2012110D1*
X1499668Y1959901D2*
X1490020Y1950252D1*
X1307755Y1767987D2*
X1143607Y1603839D1*
X904152Y1364384D2*
X899876Y1360108D1*
X773917Y1234149D2*
X713984Y1174217D1*
X464779Y925011D2*
X415701Y875933D1*
X2757821Y3189769D2*
X2684160Y3116109D1*
X2527155Y2959103D2*
X2164340Y2596288D1*
X2112130Y2544078D2*
X1905114Y2337062D1*
X1764695Y2196643D2*
X1671769Y2103717D1*
X1619545Y2051493D2*
X1551878Y1983826D1*
X1499668Y1931616D2*
X1488404Y1920352D1*
X1337641Y1769589D2*
X1152653Y1584601D1*
X802201Y1234149D2*
X727961Y1159909D1*
X479087Y911035D2*
X415701Y847649D1*
X2757766Y3161430D2*
X2712445Y3116109D1*
X2535801Y2939464D2*
X2356502Y2760166D1*
X2247834Y2651498D2*
X2164340Y2568004D1*
X2112130Y2515794D2*
X1918938Y2322602D1*
X1792979Y2196643D2*
X1671769Y2075432D1*
X1619545Y2023209D2*
X1551878Y1955542D1*
X1499668Y1903332D2*
X1478626Y1882290D1*
X1375717Y1779381D2*
X1159613Y1563277D1*
X830486Y1234149D2*
X740307Y1143971D1*
X495024Y898688D2*
X415701Y819365D1*
X2757711Y3133090D2*
X2740729Y3116109D1*
X2535801Y2911180D2*
X2393432Y2768811D1*
X2239189Y2614568D2*
X2164340Y2539720D1*
X2112130Y2487510D2*
X1947223Y2322602D1*
X1816637Y2192017D2*
X1671769Y2047148D1*
X1619545Y1994924D2*
X1551878Y1927258D1*
X1499668Y1875048D2*
X1285180Y1660560D1*
X1247444Y1622823D2*
X1164005Y1539385D1*
X858770Y1234149D2*
X750955Y1126335D1*
X512660Y888040D2*
X415701Y791081D1*
X2612022Y2959117D2*
X2588024Y2935120D1*
X2535801Y2882896D2*
X2422821Y2769916D1*
X2238084Y2585179D2*
X2164340Y2511436D1*
X2112130Y2459226D2*
X1967552Y2314647D1*
X1816637Y2163732D2*
X1671769Y2018864D1*
X1619545Y1966640D2*
X1551878Y1898973D1*
X1499668Y1846763D2*
X1341155Y1688250D1*
X1219740Y1566835D2*
X1164944Y1512040D1*
X887054Y1234149D2*
X759739Y1106834D1*
X532175Y879270D2*
X415701Y762796D1*
X2640320Y2959131D2*
X2588024Y2906835D1*
X2535801Y2854612D2*
X2448095Y2766906D1*
X2241095Y2559906D2*
X2164340Y2483151D1*
X2112130Y2430941D2*
X1983089Y2301900D1*
X1816637Y2135448D2*
X1778843Y2097654D1*
X1710350Y2029161D2*
X1671769Y1990580D1*
X1619545Y1938356D2*
X1551878Y1870689D1*
X1499668Y1818479D2*
X1375737Y1694548D1*
X1213456Y1532267D2*
X1160359Y1479170D1*
X915338Y1234149D2*
X766368Y1085179D1*
X553816Y872627D2*
X415701Y734512D1*
X2668604Y2959131D2*
X2588024Y2878551D1*
X2535801Y2826327D2*
X2470482Y2761008D1*
X2246992Y2537518D2*
X2164340Y2454867D1*
X2112130Y2402657D2*
X1993834Y2284360D1*
X1692438Y1982964D2*
X1671769Y1962295D1*
X1619545Y1910072D2*
X1551878Y1842405D1*
X1499668Y1790195D2*
X1403993Y1694520D1*
X1213470Y1503996D2*
X1141784Y1432311D1*
X1075694Y1366221D2*
X1069582Y1360108D1*
X943623Y1234149D2*
X910855Y1201382D1*
X831618Y1122145D2*
X770359Y1060886D1*
X556772Y847298D2*
X415701Y706228D1*
X2696888Y2959131D2*
X2588024Y2850267D1*
X2536077Y2798319D2*
X2490604Y2752846D1*
X2255154Y2517396D2*
X2164340Y2426583D1*
X2112130Y2374373D2*
X1998833Y2261076D1*
X1934401Y2196643D2*
X1905114Y2167356D1*
X1688032Y1950275D2*
X1671769Y1934011D1*
X1619545Y1881787D2*
X1551878Y1814121D1*
X1499668Y1761911D2*
X1428521Y1690764D1*
X1217240Y1479482D2*
X1093046Y1355288D1*
X971907Y1234149D2*
X954249Y1216491D1*
X816509Y1078752D2*
X770718Y1032961D1*
X548389Y810631D2*
X415701Y677944D1*
X2725173Y2959131D2*
X2588024Y2821983D1*
X2546683Y2780642D2*
X2508779Y2742737D1*
X2265263Y2499221D2*
X2164340Y2398298D1*
X2112130Y2346089D2*
X1905114Y2139072D1*
X1689068Y1923026D2*
X1671769Y1905727D1*
X1619545Y1853503D2*
X1551878Y1785836D1*
X1499668Y1733626D2*
X1450342Y1684300D1*
X1223703Y1457661D2*
X1110047Y1344005D1*
X1000191Y1234149D2*
X986110Y1220068D1*
X812932Y1046890D2*
X765042Y999000D1*
X554286Y788244D2*
X426142Y660100D1*
X2753471Y2959145D2*
X2598161Y2803835D1*
X2560826Y2766499D2*
X2525227Y2730901D1*
X2277099Y2482773D2*
X2164340Y2370014D1*
X2112130Y2317804D2*
X1908801Y2114475D1*
X1693529Y1899203D2*
X1671769Y1877443D1*
X1619545Y1825219D2*
X1551878Y1757552D1*
X1499668Y1705342D2*
X1469981Y1675655D1*
X1232349Y1438023D2*
X1122214Y1327888D1*
X1028475Y1234149D2*
X1012889Y1218563D1*
X814438Y1020111D2*
X741467Y947141D1*
X691854Y897528D2*
X673187Y878861D1*
X565721Y771395D2*
X454426Y660100D1*
X2757324Y2934714D2*
X2612303Y2789693D1*
X2574968Y2752357D2*
X2540032Y2717422D1*
X2290578Y2467968D2*
X2164340Y2341730D1*
X2112130Y2289520D2*
X1930084Y2107473D1*
X1700531Y1877920D2*
X1671769Y1849158D1*
X1619545Y1796935D2*
X1551878Y1729268D1*
X1499668Y1677058D2*
X1487755Y1665145D1*
X1242859Y1420248D2*
X1129009Y1306399D1*
X1056760Y1234149D2*
X1036394Y1213784D1*
X819216Y996606D2*
X701472Y878861D1*
X581962Y759352D2*
X482711Y660100D1*
X2757269Y2906374D2*
X2626446Y2775551D1*
X2589110Y2738215D2*
X2553221Y2702327D1*
X2305673Y2454779D2*
X2164340Y2313446D1*
X2112130Y2261236D2*
X1949267Y2098372D1*
X1709618Y1858724D2*
X1671769Y1820874D1*
X1619545Y1768650D2*
X1551878Y1700983D1*
X1255081Y1404186D2*
X1211003Y1360108D1*
X1162467Y1311572D2*
X1125432Y1274537D1*
X1088220Y1237326D2*
X1057414Y1206520D1*
X826480Y975586D2*
X729756Y878861D1*
X603783Y752889D2*
X510995Y660100D1*
X2757213Y2878035D2*
X2640588Y2761409D1*
X2603252Y2724073D2*
X2564740Y2685561D1*
X2322439Y2443261D2*
X2164340Y2285161D1*
X2112130Y2232952D2*
X1966627Y2087448D1*
X1720542Y1841364D2*
X1671769Y1792590D1*
X1619545Y1740366D2*
X1551878Y1672699D1*
X1268947Y1389768D2*
X1239287Y1360108D1*
X1162204Y1283025D2*
X1076376Y1197198D1*
X835803Y956624D2*
X758040Y878861D1*
X632068Y752889D2*
X539279Y660100D1*
X2757144Y2849681D2*
X2654730Y2747267D1*
X2617394Y2709931D2*
X2574504Y2667041D1*
X2340960Y2433496D2*
X2164340Y2256877D1*
X2112130Y2204667D2*
X1982302Y2074839D1*
X1733152Y1825688D2*
X1671769Y1764305D1*
X1619545Y1712082D2*
X1531038Y1623575D1*
X1284415Y1376952D2*
X1267571Y1360108D1*
X1170076Y1262613D2*
X1093543Y1186080D1*
X846920Y939457D2*
X786325Y878861D1*
X660352Y752889D2*
X567563Y660100D1*
X2757089Y2821342D2*
X2668623Y2732876D1*
X2621123Y2685376D2*
X2582279Y2646532D1*
X2361468Y2425721D2*
X2164340Y2228593D1*
X2112130Y2176383D2*
X1996361Y2060614D1*
X1747390Y1811643D2*
X1671769Y1736021D1*
X1619545Y1683797D2*
X1542169Y1606422D1*
X1301582Y1365834D2*
X1295856Y1360108D1*
X1183141Y1247394D2*
X1109025Y1173277D1*
X859723Y923975D2*
X814609Y878861D1*
X688636Y752889D2*
X595848Y660100D1*
X2757034Y2793002D2*
X2673347Y2709315D1*
X2621123Y2657091D2*
X2587693Y2623661D1*
X2366647Y2402616D2*
X2164340Y2200309D1*
X2112130Y2148099D2*
X2008777Y2044745D1*
X1763245Y1799213D2*
X1671769Y1707737D1*
X1619586Y1655555D2*
X1551491Y1587460D1*
X1201233Y1237202D2*
X1122891Y1158859D1*
X874141Y910109D2*
X842893Y878861D1*
X716920Y752889D2*
X624132Y660100D1*
X2756979Y2764663D2*
X2673347Y2681031D1*
X2621123Y2628807D2*
X2590082Y2597766D1*
X2366647Y2374331D2*
X2314918Y2322602D1*
X2269172Y2276856D2*
X2164340Y2172024D1*
X2112130Y2119814D2*
X2019508Y2027192D1*
X1780812Y1788496D2*
X1671769Y1679453D1*
X1629185Y1636869D2*
X1558770Y1566454D1*
X1226452Y1234136D2*
X1135113Y1142797D1*
X890203Y897887D2*
X871177Y878861D1*
X745205Y752889D2*
X652416Y660100D1*
X2756923Y2736323D2*
X2673347Y2652746D1*
X2621123Y2600523D2*
X2587969Y2567369D1*
X2366647Y2346047D2*
X2343202Y2322602D1*
X2268150Y2247549D2*
X2164340Y2143740D1*
X2112130Y2091530D2*
X2028374Y2007774D1*
X1800230Y1779630D2*
X1680663Y1660062D1*
X1643327Y1622727D2*
X1563562Y1542962D1*
X1254736Y1234136D2*
X1145637Y1125037D1*
X907963Y887363D2*
X899462Y878861D1*
X773489Y752889D2*
X680700Y660100D1*
X2756868Y2707984D2*
X2673347Y2624462D1*
X2621123Y2572238D2*
X2576962Y2528077D1*
X2479923Y2431038D2*
X2455110Y2406226D1*
X2275566Y2226681D2*
X2164340Y2115456D1*
X2112130Y2063246D2*
X2035114Y1986229D1*
X1821761Y1772876D2*
X1735353Y1686468D1*
X1621520Y1572635D2*
X1565067Y1516183D1*
X1283020Y1234136D2*
X1154269Y1105384D1*
X801773Y752889D2*
X708985Y660100D1*
X2756813Y2679644D2*
X2673347Y2596178D1*
X2621123Y2543954D2*
X2455110Y2377942D1*
X2288258Y2211089D2*
X2164340Y2087172D1*
X2112130Y2034962D2*
X2039243Y1962074D1*
X1845930Y1768761D2*
X1771302Y1694133D1*
X1613855Y1536686D2*
X1561504Y1484335D1*
X1311304Y1234136D2*
X1160746Y1083577D1*
X830057Y752889D2*
X737269Y660100D1*
X2756758Y2651305D2*
X2673347Y2567894D1*
X2621123Y2515670D2*
X2455110Y2349657D1*
X2305811Y2200358D2*
X2164340Y2058887D1*
X2112130Y2006677D2*
X2039796Y1934343D1*
X1873648Y1768195D2*
X1800249Y1694796D1*
X1613206Y1507753D2*
X1546464Y1441011D1*
X1339589Y1234136D2*
X1287694Y1182241D1*
X1241768Y1136315D2*
X1164516Y1059063D1*
X858342Y752889D2*
X765553Y660100D1*
X2756702Y2622965D2*
X2673347Y2539609D1*
X2621123Y2487386D2*
X2456339Y2322602D1*
X2330381Y2196643D2*
X2164340Y2030603D1*
X2112130Y1978393D2*
X2034520Y1900783D1*
X1907221Y1773484D2*
X1825219Y1691482D1*
X1616520Y1482783D2*
X1493846Y1360108D1*
X1367873Y1234136D2*
X1341983Y1208246D1*
X1215748Y1082011D2*
X1164558Y1030820D1*
X886626Y752889D2*
X793838Y660100D1*
X2756647Y2594626D2*
X2673347Y2511325D1*
X2621123Y2459101D2*
X2484624Y2322602D1*
X2358665Y2196643D2*
X2164340Y2002319D1*
X2112130Y1950109D2*
X2012906Y1850885D1*
X1957119Y1795098D2*
X1847371Y1685350D1*
X1622639Y1460617D2*
X1522130Y1360108D1*
X1396157Y1234136D2*
X1376759Y1214737D1*
X1209271Y1047249D2*
X1158288Y996266D1*
X1036734Y874713D2*
X1017156Y855135D1*
X914910Y752889D2*
X822122Y660100D1*
X2756592Y2566286D2*
X2673347Y2483041D1*
X2621123Y2430817D2*
X2511555Y2321249D1*
X2366647Y2176342D2*
X2164340Y1974034D1*
X2112130Y1921825D2*
X1867314Y1677008D1*
X1630994Y1440688D2*
X1550414Y1360108D1*
X1424441Y1234136D2*
X1405305Y1214999D1*
X1209009Y1018703D2*
X1130763Y940457D1*
X1092543Y902237D2*
X1026934Y836628D1*
X943195Y752889D2*
X850406Y660100D1*
X2756537Y2537947D2*
X2673347Y2454757D1*
X2621123Y2402533D2*
X2532105Y2313515D1*
X2366647Y2148057D2*
X2164340Y1945750D1*
X2112130Y1893540D2*
X1885337Y1666747D1*
X1641255Y1422665D2*
X1578698Y1360108D1*
X1452726Y1234136D2*
X1430151Y1211561D1*
X1212448Y993857D2*
X1029420Y810830D1*
X971479Y752889D2*
X878690Y660100D1*
X2756481Y2509607D2*
X2673347Y2426472D1*
X2621123Y2374249D2*
X2547131Y2300256D1*
X2366647Y2119773D2*
X2357331Y2110456D1*
X2247544Y2000670D2*
X2164340Y1917466D1*
X2112130Y1865256D2*
X1901634Y1654759D1*
X1653243Y1406369D2*
X1606983Y1360108D1*
X1481010Y1234136D2*
X1452303Y1205429D1*
X1218566Y971691D2*
X906975Y660100D1*
X2756426Y2481268D2*
X2673347Y2398188D1*
X2621123Y2345964D2*
X2557365Y2282206D1*
X2471802Y2196643D2*
X2455110Y2179952D1*
X2239120Y1963961D2*
X2164340Y1889182D1*
X2112130Y1836972D2*
X1916287Y1641128D1*
X1666874Y1391715D2*
X1635267Y1360108D1*
X1509294Y1234136D2*
X1472329Y1197170D1*
X1226824Y951666D2*
X935259Y660100D1*
X2756371Y2452928D2*
X2673347Y2369904D1*
X2621123Y2317680D2*
X2561135Y2257692D1*
X2500086Y2196643D2*
X2455110Y2151667D1*
X2238111Y1934668D2*
X2164340Y1860897D1*
X2112130Y1808687D2*
X1929324Y1625881D1*
X1682121Y1378678D2*
X1663551Y1360108D1*
X1537579Y1234136D2*
X1490503Y1187060D1*
X1236948Y933505D2*
X963543Y660100D1*
X2756316Y2424589D2*
X2673347Y2341619D1*
X2621123Y2289396D2*
X2455110Y2123383D1*
X2241191Y1909464D2*
X2164340Y1832613D1*
X2112130Y1780403D2*
X1940690Y1608963D1*
X1699025Y1367298D2*
X1691836Y1360108D1*
X1565863Y1234136D2*
X1506993Y1175266D1*
X1248728Y917001D2*
X991827Y660100D1*
X2756260Y2396249D2*
X2673347Y2313335D1*
X2621123Y2261111D2*
X2470882Y2110871D1*
X2247130Y1887118D2*
X2164340Y1804329D1*
X2112130Y1752119D2*
X1950289Y1590277D1*
X1594147Y1234136D2*
X1521923Y1161911D1*
X1262097Y902085D2*
X1020112Y660100D1*
X2756191Y2367896D2*
X2673347Y2285051D1*
X2621123Y2232827D2*
X2490963Y2102667D1*
X2255333Y1867038D2*
X2164340Y1776045D1*
X2112130Y1723835D2*
X1957871Y1569575D1*
X1622431Y1234136D2*
X1535278Y1146982D1*
X1277012Y888717D2*
X1048396Y660100D1*
X2756136Y2339556D2*
X2673347Y2256767D1*
X2621123Y2204543D2*
X2509110Y2092530D1*
X2265470Y1848890D2*
X2164340Y1747760D1*
X2112462Y1695882D2*
X1963050Y1546470D1*
X1650716Y1234136D2*
X1547072Y1130492D1*
X1293516Y876936D2*
X1076680Y660100D1*
X2756081Y2311217D2*
X2673347Y2228482D1*
X2621123Y2176259D2*
X2525531Y2080667D1*
X2277334Y1832469D2*
X2164340Y1719476D1*
X2023659Y1578795D2*
X1965107Y1520243D1*
X1679000Y1234136D2*
X1557181Y1112317D1*
X1311691Y866827D2*
X1104965Y660100D1*
X2756026Y2282877D2*
X2673347Y2200198D1*
X2621123Y2147974D2*
X2540295Y2067146D1*
X2290854Y1817706D2*
X2174712Y1701564D1*
X2014406Y1541257D2*
X1962456Y1489307D1*
X1707284Y1234136D2*
X1565440Y1092292D1*
X1331703Y858554D2*
X1133249Y660100D1*
X2755970Y2254538D2*
X2673347Y2171914D1*
X2621123Y2119690D2*
X2553456Y2052023D1*
X2305977Y1804544D2*
X2196409Y1694976D1*
X2013025Y1511592D2*
X1950054Y1448621D1*
X1735568Y1234136D2*
X1691407Y1189975D1*
X1643023Y1141590D2*
X1571558Y1070125D1*
X1353869Y852436D2*
X1161533Y660100D1*
X2755915Y2226198D2*
X2673347Y2143630D1*
X2621123Y2091406D2*
X2564947Y2035230D1*
X2322771Y1793054D2*
X2221848Y1692131D1*
X2015870Y1486153D2*
X1889825Y1360108D1*
X1763853Y1234136D2*
X1743681Y1213964D1*
X1619034Y1089317D2*
X1574997Y1045280D1*
X1378714Y848997D2*
X1189817Y660100D1*
X2755860Y2197859D2*
X2673347Y2115345D1*
X2621123Y2063122D2*
X2574669Y2016668D1*
X2341332Y1783331D2*
X2244373Y1686372D1*
X2021629Y1463628D2*
X1918110Y1360108D1*
X1792137Y1234136D2*
X1777697Y1219695D1*
X1613302Y1055301D2*
X1574735Y1016733D1*
X1407275Y849273D2*
X1218102Y660100D1*
X2755805Y2169519D2*
X2673347Y2087061D1*
X2621123Y2034837D2*
X2582403Y1996118D1*
X2361883Y1775597D2*
X2264606Y1678320D1*
X2029681Y1443395D2*
X1946394Y1360108D1*
X1820421Y1234136D2*
X1805663Y1219377D1*
X1613620Y1027334D2*
X1568244Y981958D1*
X1430131Y843846D2*
X1246386Y660100D1*
X2755749Y2141180D2*
X2673347Y2058777D1*
X2621123Y2006553D2*
X2587776Y1973206D1*
X2384795Y1770225D2*
X2282877Y1668307D1*
X2039693Y1425123D2*
X1974678Y1360108D1*
X1848706Y1234136D2*
X1829984Y1215414D1*
X1617584Y1003014D2*
X1542183Y927613D1*
X1496395Y881825D2*
X1493440Y878870D1*
X1423627Y809057D2*
X1274670Y660100D1*
X2755694Y2112840D2*
X2673347Y2030492D1*
X2621123Y1978269D2*
X2590082Y1947228D1*
X2410759Y1767905D2*
X2299423Y1656568D1*
X2051432Y1408578D2*
X2002963Y1360108D1*
X1876990Y1234136D2*
X1851653Y1208798D1*
X1624199Y981345D2*
X1521716Y878861D1*
X1429883Y787029D2*
X1302954Y660100D1*
X2755639Y2084501D2*
X2673347Y2002208D1*
X2621123Y1949985D2*
X2587859Y1916720D1*
X2441280Y1770142D2*
X2314297Y1643158D1*
X2064843Y1393704D2*
X2031247Y1360108D1*
X1905274Y1234136D2*
X1871181Y1200043D1*
X1632955Y961817D2*
X1550000Y878861D1*
X1441594Y770456D2*
X1331239Y660100D1*
X2755584Y2056161D2*
X2673347Y1973924D1*
X2621123Y1921700D2*
X2576575Y1877153D1*
X2480848Y1781425D2*
X2327569Y1628146D1*
X2079855Y1380432D2*
X2059531Y1360108D1*
X1933558Y1234136D2*
X1888831Y1189408D1*
X1643589Y944167D2*
X1578284Y878861D1*
X1458140Y758717D2*
X1359523Y660100D1*
X2755529Y2027821D2*
X2673347Y1945640D1*
X2621123Y1893416D2*
X2339184Y1611476D1*
X2096524Y1368817D2*
X2087815Y1360108D1*
X1961843Y1234136D2*
X1904782Y1177075D1*
X1655922Y928215D2*
X1606568Y878861D1*
X1480596Y752889D2*
X1387807Y660100D1*
X2755473Y1999482D2*
X2673347Y1917355D1*
X2621123Y1865132D2*
X2349044Y1593053D1*
X1990127Y1234136D2*
X1919104Y1163113D1*
X1669885Y913894D2*
X1634853Y878861D1*
X1508880Y752889D2*
X1416092Y660100D1*
X2755418Y1971142D2*
X2673347Y1889071D1*
X2621123Y1836847D2*
X2356930Y1572655D1*
X2018411Y1234136D2*
X1931810Y1147534D1*
X1685463Y901188D2*
X1663137Y878861D1*
X1537164Y752889D2*
X1444376Y660100D1*
X2755363Y1942803D2*
X2673347Y1860787D1*
X2621123Y1808563D2*
X2362482Y1549922D1*
X2046695Y1234136D2*
X1942831Y1130271D1*
X1702740Y890181D2*
X1691421Y878861D1*
X1565448Y752889D2*
X1472660Y660100D1*
X2755308Y1914463D2*
X2673347Y1832503D1*
X2621123Y1780279D2*
X2526291Y1685446D1*
X2416559Y1575715D2*
X2365051Y1524207D1*
X2074980Y1234136D2*
X1952029Y1111185D1*
X1593733Y752889D2*
X1500944Y660100D1*
X2755239Y1886110D2*
X2673347Y1804218D1*
X2621123Y1751995D2*
X2563013Y1693885D1*
X2408121Y1538993D2*
X2363228Y1494100D1*
X2103264Y1234136D2*
X1959155Y1090027D1*
X1622017Y752889D2*
X1529229Y660100D1*
X2755183Y1857771D2*
X2673347Y1775934D1*
X2621123Y1723710D2*
X2592306Y1694893D1*
X2407099Y1509686D2*
X2352939Y1455526D1*
X2131548Y1234136D2*
X2073507Y1176095D1*
X2056902Y1159489D2*
X1963768Y1066355D1*
X1650301Y752889D2*
X1557513Y660100D1*
X2755128Y1829431D2*
X2673347Y1747650D1*
X2410179Y1484482D2*
X2285805Y1360108D1*
X2159832Y1234136D2*
X2138017Y1212320D1*
X2020690Y1094993D2*
X1965025Y1039328D1*
X1793670Y867973D2*
X1786687Y860990D1*
X1678586Y752889D2*
X1585797Y660100D1*
X2755073Y1801092D2*
X2673347Y1719365D1*
X2416117Y1462136D2*
X2314089Y1360108D1*
X2188117Y1234136D2*
X2173317Y1219336D1*
X2013660Y1059679D2*
X1961019Y1007038D1*
X1825973Y871992D2*
X1798316Y844335D1*
X1706870Y752889D2*
X1614081Y660100D1*
X2755018Y1772752D2*
X2673098Y1690833D1*
X2424321Y1442055D2*
X2342374Y1360108D1*
X2216401Y1234136D2*
X2201947Y1219681D1*
X2013315Y1031050D2*
X1944516Y962250D1*
X1870747Y888482D2*
X1804448Y822182D1*
X1735154Y752889D2*
X1642366Y660100D1*
X2754962Y1744413D2*
X2678098Y1667548D1*
X2434458Y1423908D2*
X2370658Y1360108D1*
X2244685Y1234136D2*
X2226709Y1216160D1*
X2016837Y1006287D2*
X1797335Y786786D1*
X1770233Y759683D2*
X1670650Y660100D1*
X2754907Y1716073D2*
X2694505Y1655671D1*
X2446321Y1407487D2*
X2398942Y1360108D1*
X2272970Y1234136D2*
X2248724Y1209890D1*
X2023121Y984287D2*
X1698934Y660100D1*
X2754852Y1687734D2*
X2709282Y1642164D1*
X2459842Y1392724D2*
X2427227Y1360108D1*
X2301254Y1234136D2*
X2268514Y1201396D1*
X2031600Y964482D2*
X1727218Y660100D1*
X2754797Y1659394D2*
X2722444Y1627041D1*
X2474965Y1379562D2*
X2455511Y1360108D1*
X2329538Y1234136D2*
X2286427Y1191024D1*
X2041972Y946570D2*
X1755503Y660100D1*
X2754741Y1631054D2*
X2733934Y1610247D1*
X2491758Y1368072D2*
X2483795Y1360108D1*
X2357822Y1234136D2*
X2302613Y1178926D1*
X2054070Y930383D2*
X1783787Y660100D1*
X2754686Y1602715D2*
X2743657Y1591686D1*
X2386107Y1234136D2*
X2317169Y1165198D1*
X2067798Y915827D2*
X1812071Y660100D1*
X2754631Y1574375D2*
X2751403Y1571148D1*
X2414391Y1234136D2*
X2330096Y1149841D1*
X2083156Y902900D2*
X1840356Y660100D1*
X2442675Y1234136D2*
X2341366Y1132826D1*
X2100170Y891631D2*
X1868640Y660100D1*
X2470959Y1234136D2*
X2350840Y1114016D1*
X2118994Y882170D2*
X1896924Y660100D1*
X2499244Y1234136D2*
X2358284Y1093175D1*
X2129145Y864037D2*
X1925208Y660100D1*
X2754410Y1461017D2*
X2745604Y1452212D1*
X2527528Y1234136D2*
X2479017Y1185624D1*
X2441128Y1147736D2*
X2363283Y1069891D1*
X2129145Y835753D2*
X1953493Y660100D1*
X2754355Y1432678D2*
X2681785Y1360108D1*
X2555812Y1234136D2*
X2534936Y1213259D1*
X2413493Y1091817D2*
X2365106Y1043429D1*
X2129145Y807468D2*
X1981777Y660100D1*
X2754286Y1404325D2*
X2710069Y1360108D1*
X2584097Y1234136D2*
X2569518Y1219557D1*
X2407196Y1057235D2*
X2362040Y1012079D1*
X2129145Y779184D2*
X2010061Y660100D1*
X2754230Y1375985D2*
X2738354Y1360108D1*
X2612381Y1234136D2*
X2597761Y1219516D1*
X2407223Y1028978D2*
X2348547Y970302D1*
X2262708Y884463D2*
X2257107Y878861D1*
X2131134Y752889D2*
X2038345Y660100D1*
X2640665Y1234136D2*
X2622289Y1215759D1*
X2410994Y1004464D2*
X2285391Y878861D1*
X2159418Y752889D2*
X2066630Y660100D1*
X2668949Y1234136D2*
X2644109Y1209296D1*
X2417457Y982643D2*
X2313675Y878861D1*
X2187702Y752889D2*
X2094914Y660100D1*
X2697234Y1234136D2*
X2663748Y1200650D1*
X2426102Y963004D2*
X2341959Y878861D1*
X2215987Y752889D2*
X2123198Y660100D1*
X2725518Y1234136D2*
X2681523Y1190140D1*
X2436612Y945230D2*
X2370244Y878861D1*
X2244271Y752889D2*
X2151483Y660100D1*
X2753802Y1234136D2*
X2697571Y1177904D1*
X2448849Y929182D2*
X2398528Y878861D1*
X2272555Y752889D2*
X2179767Y660100D1*
X2753899Y1205948D2*
X2712003Y1164052D1*
X2462701Y914750D2*
X2426812Y878861D1*
X2300840Y752889D2*
X2208051Y660100D1*
X2753844Y1177608D2*
X2724805Y1148570D1*
X2478182Y901947D2*
X2455097Y878861D1*
X2329124Y752889D2*
X2236335Y660100D1*
X2753788Y1149269D2*
X2735923Y1131403D1*
X2495335Y890816D2*
X2483381Y878861D1*
X2357408Y752889D2*
X2264620Y660100D1*
X2753733Y1120929D2*
X2745245Y1112441D1*
X2514311Y881507D2*
X2511660Y878856D1*
X2385692Y752889D2*
X2292904Y660100D1*
X2413977Y752889D2*
X2321188Y660100D1*
X2442261Y752889D2*
X2349472Y660100D1*
X2470545Y752889D2*
X2377757Y660100D1*
X2498829Y752889D2*
X2406041Y660100D1*
X2753457Y979232D2*
X2740190Y965965D1*
X2660787Y886562D2*
X2617607Y843382D1*
X2527114Y752889D2*
X2434325Y660100D1*
X2753402Y950892D2*
X2617607Y815097D1*
X2555398Y752889D2*
X2462610Y660100D1*
X2753333Y922539D2*
X2617607Y786813D1*
X2583682Y752889D2*
X2490894Y660100D1*
X2753277Y894200D2*
X2617607Y758529D1*
X2611968Y752890D2*
X2519178Y660100D1*
X2753222Y865860D2*
X2547462Y660100D1*
X2753167Y837520D2*
X2575747Y660100D1*
X2753112Y809181D2*
X2604031Y660100D1*
X2753056Y780841D2*
X2632315Y660100D1*
X2753001Y752502D2*
X2660599Y660100D1*
X2752946Y724162D2*
X2688884Y660100D1*
X2752891Y695823D2*
X2717168Y660100D1*
X2752835Y667483D2*
X2745452Y660100D1*
X2756556Y5209138D2*
X2761799Y5203896D1*
X2728272Y5209138D2*
X2761743Y5175667D1*
X2699987Y5209138D2*
X2761688Y5147438D1*
X2671703Y5209138D2*
X2761633Y5119209D1*
X2643419Y5209138D2*
X2761578Y5090979D1*
X2615135Y5209138D2*
X2761522Y5062750D1*
X2586850Y5209138D2*
X2761467Y5034521D1*
X2558566Y5209138D2*
X2761412Y5006292D1*
X2530282Y5209138D2*
X2545344Y5194076D1*
X2595330Y5144090D2*
X2761357Y4978063D1*
X2501998Y5209138D2*
X2514615Y5196521D1*
X2597775Y5113361D2*
X2761301Y4949834D1*
X2473713Y5209138D2*
X2492366Y5190485D1*
X2518529Y5164322D2*
X2565576Y5117275D1*
X2591739Y5091112D2*
X2761246Y4921605D1*
X2445429Y5209138D2*
X2474840Y5179727D1*
X2498034Y5156533D2*
X2557773Y5096794D1*
X2580967Y5073600D2*
X2761191Y4893376D1*
X2417145Y5209138D2*
X2461140Y5165143D1*
X2485439Y5140844D2*
X2542084Y5084198D1*
X2566397Y5059886D2*
X2761136Y4865147D1*
X2388861Y5209138D2*
X2451680Y5146319D1*
X2481005Y5116993D2*
X2518247Y5079751D1*
X2547573Y5050426D2*
X2761080Y4836918D1*
X2360576Y5209138D2*
X2447923Y5121791D1*
X2523031Y5046683D2*
X2761025Y4808689D1*
X2332292Y5209138D2*
X2461430Y5080000D1*
X2481240Y5060190D2*
X2760970Y4780460D1*
X2304008Y5209138D2*
X2459552Y5053594D1*
X2498586Y5014559D2*
X2760915Y4752231D1*
X2275723Y5209138D2*
X2412250Y5072611D1*
X2517617Y4967244D2*
X2760859Y4724002D1*
X2247439Y5209138D2*
X2381894Y5074683D1*
X2519675Y4936902D2*
X2760804Y4695773D1*
X2219155Y5209138D2*
X2357215Y5071078D1*
X2516071Y4912222D2*
X2760749Y4667544D1*
X2190871Y5209138D2*
X2336098Y5063911D1*
X2508917Y4891092D2*
X2760694Y4639315D1*
X2162586Y5209138D2*
X2317702Y5054022D1*
X2499028Y4872696D2*
X2760638Y4611086D1*
X2134302Y5209138D2*
X2301641Y5041800D1*
X2486792Y4856648D2*
X2760569Y4582871D1*
X2106018Y5209138D2*
X2287788Y5027368D1*
X2472374Y4842782D2*
X2552525Y4762631D1*
X2613035Y4702120D2*
X2760514Y4554642D1*
X2077734Y5209138D2*
X2276146Y5010726D1*
X2455718Y4831154D2*
X2530760Y4756112D1*
X2606503Y4680369D2*
X2617864Y4669008D1*
X2625421Y4661451D2*
X2760459Y4526413D1*
X2049449Y5209138D2*
X2266934Y4991653D1*
X2436659Y4821928D2*
X2515195Y4743392D1*
X2628545Y4630043D2*
X2760404Y4498184D1*
X2021165Y5209138D2*
X2260581Y4969722D1*
X2414714Y4815589D2*
X2505044Y4725259D1*
X2628545Y4601758D2*
X2760348Y4469955D1*
X1992881Y5209138D2*
X2258165Y4943854D1*
X2388861Y4813158D2*
X2503014Y4699005D1*
X2628545Y4573474D2*
X2760293Y4441726D1*
X1964596Y5209138D2*
X2262556Y4911178D1*
X2356184Y4817550D2*
X2502213Y4671522D1*
X2628545Y4545190D2*
X2760238Y4413497D1*
X1936312Y5209138D2*
X2487891Y4657559D1*
X2628545Y4516905D2*
X2760183Y4385268D1*
X1908028Y5209138D2*
X2092961Y5024205D1*
X2119193Y4997973D2*
X2487146Y4630020D1*
X2628545Y4488621D2*
X2760127Y4357039D1*
X1879744Y5209138D2*
X2047966Y5040916D1*
X2134855Y4954027D2*
X2487146Y4601736D1*
X2628545Y4460337D2*
X2760072Y4328810D1*
X1851459Y5209138D2*
X2019682Y5040916D1*
X2133915Y4926682D2*
X2487146Y4573452D1*
X2628545Y4432053D2*
X2760017Y4300581D1*
X1823175Y5209138D2*
X1991397Y5040916D1*
X2127466Y4904847D2*
X2487146Y4545168D1*
X2628545Y4403768D2*
X2759962Y4272351D1*
X1794891Y5209138D2*
X1963113Y5040916D1*
X2117743Y4886286D2*
X2487146Y4516883D1*
X2628545Y4375484D2*
X2759907Y4244122D1*
X1766607Y5209138D2*
X1934829Y5040916D1*
X2103711Y4872033D2*
X2487146Y4488599D1*
X2628545Y4347200D2*
X2759851Y4215893D1*
X1738322Y5209138D2*
X1906545Y5040916D1*
X2087277Y4860184D2*
X2487146Y4460315D1*
X2628545Y4318916D2*
X2759796Y4187664D1*
X1710038Y5209138D2*
X1878260Y5040916D1*
X2068190Y4850986D2*
X2487146Y4432031D1*
X2628545Y4290631D2*
X2759741Y4159435D1*
X1681754Y5209138D2*
X1849976Y5040916D1*
X2044671Y4846221D2*
X2218763Y4672129D1*
X2241045Y4649847D2*
X2487146Y4403746D1*
X2628545Y4262347D2*
X2759686Y4131206D1*
X1653469Y5209138D2*
X1821692Y5040916D1*
X2016386Y4846221D2*
X2190478Y4672129D1*
X2241045Y4621563D2*
X2487146Y4375462D1*
X2628545Y4234063D2*
X2759630Y4102977D1*
X1625185Y5209138D2*
X1793408Y5040916D1*
X1988102Y4846221D2*
X2162194Y4672129D1*
X2241045Y4593279D2*
X2487146Y4347178D1*
X2628545Y4205778D2*
X2759575Y4074748D1*
X1596901Y5209138D2*
X1765123Y5040916D1*
X1959818Y4846221D2*
X2133910Y4672129D1*
X2241045Y4564994D2*
X2487146Y4318893D1*
X2628545Y4177494D2*
X2759520Y4046519D1*
X1568617Y5209138D2*
X1736839Y5040916D1*
X1931534Y4846221D2*
X2108816Y4668939D1*
X2241045Y4536710D2*
X2487146Y4290609D1*
X2628545Y4149210D2*
X2759465Y4018290D1*
X1540332Y5209138D2*
X1708555Y5040916D1*
X1903249Y4846221D2*
X2099646Y4649825D1*
X2241045Y4508426D2*
X2487146Y4262325D1*
X2628545Y4120926D2*
X2759409Y3990061D1*
X1512048Y5209138D2*
X1680270Y5040916D1*
X1874965Y4846221D2*
X2099646Y4621541D1*
X2241045Y4480141D2*
X2487146Y4234041D1*
X2628545Y4092641D2*
X2759354Y3961832D1*
X1483764Y5209138D2*
X1651986Y5040916D1*
X1846681Y4846221D2*
X2099646Y4593256D1*
X2241045Y4451857D2*
X2487146Y4205756D1*
X2628545Y4064357D2*
X2759299Y3933603D1*
X1455480Y5209138D2*
X1623702Y5040916D1*
X1818397Y4846221D2*
X2099646Y4564972D1*
X2241045Y4423573D2*
X2487146Y4177472D1*
X2628545Y4036073D2*
X2759230Y3905388D1*
X1427195Y5209138D2*
X1595418Y5040916D1*
X1790112Y4846221D2*
X2099646Y4536688D1*
X2241045Y4395289D2*
X2487146Y4149188D1*
X2628545Y4007789D2*
X2759175Y3877159D1*
X1398911Y5209138D2*
X1567133Y5040916D1*
X1761828Y4846221D2*
X2099646Y4508404D1*
X2241045Y4367004D2*
X2487146Y4120904D1*
X2628545Y3979504D2*
X2759119Y3848930D1*
X1370627Y5209138D2*
X1538849Y5040916D1*
X1733544Y4846221D2*
X2099646Y4480119D1*
X2241045Y4338720D2*
X2487146Y4092619D1*
X2628545Y3951220D2*
X2759064Y3820701D1*
X1342342Y5209138D2*
X1510565Y5040916D1*
X1705260Y4846221D2*
X2099646Y4451835D1*
X2241045Y4310436D2*
X2487146Y4064335D1*
X2628545Y3922936D2*
X2759009Y3792472D1*
X1314058Y5209138D2*
X1482281Y5040916D1*
X1676975Y4846221D2*
X2099646Y4423551D1*
X2241045Y4282152D2*
X2487146Y4036051D1*
X2628545Y3894651D2*
X2758954Y3764243D1*
X1285774Y5209138D2*
X1453996Y5040916D1*
X1648691Y4846221D2*
X1823239Y4671673D1*
X1852799Y4642113D2*
X2099646Y4395267D1*
X2241045Y4253867D2*
X2487146Y4007766D1*
X2628545Y3866367D2*
X2758898Y3736014D1*
X1257490Y5209138D2*
X1425712Y5040916D1*
X1620407Y4846221D2*
X1794954Y4671673D1*
X1852799Y4613829D2*
X2099646Y4366982D1*
X2241045Y4225583D2*
X2487146Y3979482D1*
X2628545Y3838083D2*
X2758843Y3707785D1*
X1229205Y5209138D2*
X1397428Y5040916D1*
X1592122Y4846221D2*
X1766670Y4671673D1*
X1852799Y4585545D2*
X2099646Y4338698D1*
X2241045Y4197299D2*
X2487146Y3951198D1*
X2628545Y3809799D2*
X2758788Y3679556D1*
X1200921Y5209138D2*
X1369143Y5040916D1*
X1563838Y4846221D2*
X1738386Y4671673D1*
X1852799Y4557260D2*
X2099646Y4310414D1*
X2241045Y4169014D2*
X2487146Y3922914D1*
X2628545Y3781514D2*
X2758733Y3651327D1*
X1172637Y5209138D2*
X1340859Y5040916D1*
X1535554Y4846221D2*
X1716620Y4665155D1*
X1852799Y4528976D2*
X2099646Y4282129D1*
X2241045Y4140730D2*
X2451183Y3930592D1*
X2480688Y3901087D2*
X2487146Y3894629D1*
X2628545Y3753230D2*
X2758677Y3623098D1*
X1144353Y5209138D2*
X1312575Y5040916D1*
X1507270Y4846221D2*
X1711400Y4642091D1*
X1852799Y4500692D2*
X2099646Y4253845D1*
X2241045Y4112446D2*
X2422898Y3930592D1*
X2480688Y3872803D2*
X2487146Y3866345D1*
X2628545Y3724946D2*
X2758622Y3594869D1*
X1116068Y5209138D2*
X1284291Y5040916D1*
X1478985Y4846221D2*
X1711400Y4613807D1*
X1852799Y4472407D2*
X2099646Y4225561D1*
X2241045Y4084162D2*
X2394614Y3930592D1*
X2457030Y3868176D2*
X2487146Y3838061D1*
X2628545Y3696662D2*
X2758567Y3566640D1*
X1087784Y5209138D2*
X1256006Y5040916D1*
X1450701Y4846221D2*
X1711400Y4585522D1*
X1852799Y4444123D2*
X2099646Y4197277D1*
X2241045Y4055877D2*
X2366330Y3930592D1*
X2428746Y3868176D2*
X2487146Y3809777D1*
X2628545Y3668377D2*
X2758512Y3538411D1*
X1059500Y5209138D2*
X1227722Y5040916D1*
X1422417Y4846221D2*
X1711400Y4557238D1*
X1852799Y4415839D2*
X2099646Y4168992D1*
X2241045Y4027593D2*
X2338046Y3930592D1*
X2400461Y3868176D2*
X2487146Y3781492D1*
X2628545Y3640093D2*
X2758456Y3510182D1*
X1031215Y5209138D2*
X1199438Y5040916D1*
X1394133Y4846221D2*
X1711400Y4528954D1*
X1852799Y4387555D2*
X2099646Y4140708D1*
X2241045Y3999309D2*
X2309761Y3930592D1*
X2372177Y3868176D2*
X2487146Y3753208D1*
X2628545Y3611809D2*
X2758401Y3481952D1*
X1002931Y5209138D2*
X1171154Y5040916D1*
X1365848Y4846221D2*
X1711400Y4500670D1*
X1852799Y4359270D2*
X2099646Y4112424D1*
X2241045Y3971025D2*
X2281477Y3930592D1*
X2343893Y3868176D2*
X2487146Y3724924D1*
X2628545Y3583525D2*
X2758346Y3453723D1*
X974647Y5209138D2*
X1142869Y5040916D1*
X1337564Y4846221D2*
X1711400Y4472385D1*
X1852799Y4330986D2*
X2099646Y4084140D1*
X2241045Y3942740D2*
X2253193Y3930592D1*
X2315609Y3868176D2*
X2487146Y3696640D1*
X2628545Y3555240D2*
X2758291Y3425494D1*
X946363Y5209138D2*
X1116643Y5038858D1*
X1309280Y4846221D2*
X1392705Y4762796D1*
X1450701Y4704800D2*
X1711400Y4444101D1*
X1852799Y4302702D2*
X2099646Y4055855D1*
X2287324Y3868176D2*
X2487146Y3668355D1*
X2628545Y3526956D2*
X2758235Y3397265D1*
X918078Y5209138D2*
X1095844Y5031373D1*
X1280995Y4846221D2*
X1370138Y4757079D1*
X1444997Y4682219D2*
X1711400Y4415817D1*
X1852799Y4274418D2*
X2099646Y4027571D1*
X2259040Y3868176D2*
X2487146Y3640071D1*
X2628545Y3498672D2*
X2758180Y3369036D1*
X889794Y5209138D2*
X1077987Y5020946D1*
X1252711Y4846221D2*
X1354035Y4744898D1*
X1466045Y4632888D2*
X1711400Y4387533D1*
X1852799Y4246133D2*
X2099646Y3999287D1*
X2241045Y3857887D2*
X2487146Y3611787D1*
X2628545Y3470387D2*
X2758125Y3340807D1*
X861510Y5209138D2*
X1064121Y5006527D1*
X1224427Y4846221D2*
X1343290Y4727358D1*
X1466045Y4604603D2*
X1711400Y4359248D1*
X1852799Y4217849D2*
X2099646Y3971002D1*
X2241045Y3829603D2*
X2487146Y3583502D1*
X2628545Y3442103D2*
X2758070Y3312578D1*
X833226Y5209138D2*
X1053197Y4989167D1*
X1196143Y4846221D2*
X1340086Y4702278D1*
X1466045Y4576319D2*
X1711400Y4330964D1*
X1852799Y4189565D2*
X2099646Y3942718D1*
X2241045Y3801319D2*
X2487146Y3555218D1*
X2628545Y3413819D2*
X2758014Y3284349D1*
X804941Y5209138D2*
X1045159Y4968921D1*
X1167858Y4846221D2*
X1342116Y4671963D1*
X1466045Y4548035D2*
X1711400Y4302680D1*
X1852799Y4161280D2*
X2083349Y3930731D1*
X2094928Y3919152D2*
X2099646Y3914434D1*
X2241045Y3773035D2*
X2487146Y3526934D1*
X2628545Y3385535D2*
X2757945Y3256134D1*
X776657Y5209138D2*
X1041651Y4944144D1*
X1139574Y4846221D2*
X1326123Y4659672D1*
X1466045Y4519750D2*
X1711400Y4274395D1*
X1852799Y4132996D2*
X2055065Y3930731D1*
X2094928Y3890867D2*
X2099646Y3886150D1*
X2241045Y3744750D2*
X2487146Y3498650D1*
X2628545Y3357250D2*
X2757890Y3227905D1*
X748373Y5209138D2*
X1049288Y4908223D1*
X1104951Y4852560D2*
X1324645Y4632865D1*
X1466045Y4491466D2*
X1711400Y4246111D1*
X1852799Y4104712D2*
X2026780Y3930731D1*
X2089196Y3868315D2*
X2099646Y3857865D1*
X2241045Y3716466D2*
X2487146Y3470365D1*
X2628545Y3328966D2*
X2757835Y3199676D1*
X720089Y5209138D2*
X1324645Y4604581D1*
X1466045Y4463182D2*
X1711400Y4217827D1*
X1852799Y4076428D2*
X1998496Y3930731D1*
X2060912Y3868315D2*
X2099646Y3829581D1*
X2241045Y3688182D2*
X2487146Y3442081D1*
X2628545Y3300682D2*
X2757780Y3171447D1*
X691804Y5209138D2*
X834629Y5066314D1*
X911311Y4989631D2*
X1324645Y4576297D1*
X1466045Y4434898D2*
X1711400Y4189543D1*
X1852799Y4048143D2*
X1970212Y3930731D1*
X2032628Y3868315D2*
X2099646Y3801297D1*
X2241045Y3659898D2*
X2487146Y3413797D1*
X2628545Y3272398D2*
X2757724Y3143218D1*
X663520Y5209138D2*
X693801Y5178857D1*
X754891Y5117767D2*
X798196Y5074462D1*
X919459Y4953199D2*
X1324645Y4548013D1*
X1466045Y4406613D2*
X1711400Y4161258D1*
X1852799Y4019859D2*
X1941928Y3930731D1*
X2004344Y3868315D2*
X2099646Y3773013D1*
X2241045Y3631613D2*
X2487146Y3385513D1*
X2628545Y3244113D2*
X2756537Y3116121D1*
X635236Y5209138D2*
X665517Y5178857D1*
X751093Y5093280D2*
X770727Y5073647D1*
X918645Y4925729D2*
X1324645Y4519728D1*
X1466045Y4378329D2*
X1711400Y4132974D1*
X1852799Y3991575D2*
X1913643Y3930731D1*
X1976059Y3868315D2*
X2099646Y3744728D1*
X2241045Y3603329D2*
X2487146Y3357228D1*
X2628545Y3215829D2*
X2728252Y3116121D1*
X606950Y5209139D2*
X637232Y5178858D1*
X740859Y5075231D2*
X747731Y5068359D1*
X913354Y4902735D2*
X1324645Y4491445D1*
X1466044Y4350046D2*
X1711399Y4104691D1*
X1852798Y3963292D2*
X1885358Y3930731D1*
X1947774Y3868315D2*
X2099645Y3716445D1*
X2241044Y3575046D2*
X2487145Y3328945D1*
X2628544Y3187546D2*
X2699981Y3116109D1*
X578666Y5209139D2*
X608947Y5178858D1*
X904957Y4882848D2*
X1324645Y4463161D1*
X1466044Y4321762D2*
X1711399Y4076407D1*
X1852798Y3935007D2*
X1857074Y3930731D1*
X1919490Y3868315D2*
X2099645Y3688161D1*
X2241044Y3546761D2*
X2487145Y3300661D1*
X2628544Y3159261D2*
X2671697Y3116109D1*
X550382Y5209139D2*
X580663Y5178858D1*
X706636Y5052885D2*
X710509Y5049012D1*
X894019Y4865502D2*
X1324645Y4434877D1*
X1466044Y4293477D2*
X1711399Y4048122D1*
X1852798Y3906723D2*
X1855386Y3904135D1*
X1891206Y3868315D2*
X2099645Y3659876D1*
X2241044Y3518477D2*
X2487145Y3272376D1*
X2622743Y3136778D2*
X2643412Y3116109D1*
X522098Y5209139D2*
X552379Y5178858D1*
X678352Y5052885D2*
X695402Y5035834D1*
X880844Y4850393D2*
X1324645Y4406592D1*
X1466044Y4265193D2*
X1711399Y4019838D1*
X1852798Y3878439D2*
X1855386Y3875851D1*
X1862921Y3868315D2*
X2099645Y3631592D1*
X2241044Y3490193D2*
X2487145Y3244092D1*
X2600356Y3130880D2*
X2615128Y3116109D1*
X493813Y5209139D2*
X524095Y5178858D1*
X650067Y5052885D2*
X682489Y5020463D1*
X865459Y4837494D2*
X1324645Y4378308D1*
X1466044Y4236909D2*
X1711399Y3991554D1*
X1852798Y3850154D2*
X2099645Y3603308D1*
X2241044Y3461909D2*
X2487145Y3215808D1*
X2572072Y3130880D2*
X2586844Y3116109D1*
X2743808Y2959145D2*
X2757337Y2945616D1*
X465529Y5209139D2*
X495810Y5178858D1*
X621783Y5052885D2*
X671855Y5002813D1*
X847809Y4826859D2*
X1324645Y4350024D1*
X1466044Y4208624D2*
X1711399Y3963269D1*
X1852798Y3821870D2*
X2099645Y3575024D1*
X2241044Y3433624D2*
X2487145Y3187524D1*
X2543788Y3130880D2*
X2558560Y3116109D1*
X2715537Y2959131D2*
X2757282Y2917387D1*
X437245Y5209139D2*
X472387Y5173996D1*
X593499Y5052885D2*
X663804Y4982580D1*
X827590Y4818794D2*
X1324645Y4321739D1*
X1466044Y4180340D2*
X1711399Y3934985D1*
X1852798Y3793586D2*
X2099645Y3546739D1*
X2241044Y3405340D2*
X2487145Y3159239D1*
X2515503Y3130880D2*
X2530275Y3116109D1*
X2687253Y2959131D2*
X2757226Y2889158D1*
X415707Y5202393D2*
X455400Y5162699D1*
X565215Y5052885D2*
X658970Y4959130D1*
X804139Y4813960D2*
X1324645Y4293455D1*
X1466044Y4152056D2*
X1686802Y3931298D1*
X1706336Y3911764D2*
X1711388Y3906711D1*
X1852798Y3765302D2*
X2099645Y3518455D1*
X2241044Y3377056D2*
X2501991Y3116109D1*
X2658969Y2959131D2*
X2757171Y2860929D1*
X415707Y5174108D2*
X443247Y5146568D1*
X536930Y5052885D2*
X658901Y4930915D1*
X775924Y4813891D2*
X961175Y4628640D1*
X1042332Y4547483D2*
X1324645Y4265171D1*
X1466044Y4123772D2*
X1658518Y3931298D1*
X1706336Y3883480D2*
X1711388Y3878427D1*
X1852798Y3737017D2*
X2099645Y3490171D1*
X2241044Y3348772D2*
X2473707Y3116109D1*
X2630698Y2959117D2*
X2757116Y2832700D1*
X415707Y5145824D2*
X436480Y5125051D1*
X508646Y5052885D2*
X669148Y4892383D1*
X737392Y4824139D2*
X903198Y4658333D1*
X1071735Y4489796D2*
X1324645Y4236887D1*
X1466044Y4095487D2*
X1630233Y3931298D1*
X1692649Y3868882D2*
X1711399Y3850132D1*
X1852798Y3708733D2*
X2099645Y3461887D1*
X2241044Y3320487D2*
X2445423Y3116109D1*
X2602414Y2959117D2*
X2757061Y2804471D1*
X415707Y5117540D2*
X440167Y5093080D1*
X477116Y5056131D2*
X861282Y4671964D1*
X1085656Y4447591D2*
X1324645Y4208602D1*
X1466044Y4067203D2*
X1601949Y3931298D1*
X1664365Y3868882D2*
X1711399Y3821848D1*
X1852798Y3680449D2*
X2099645Y3433602D1*
X2241044Y3292203D2*
X2417138Y3116109D1*
X2588023Y2945223D2*
X2757005Y2776242D1*
X415707Y5089255D2*
X827667Y4677295D1*
X1090960Y4414003D2*
X1324645Y4180318D1*
X1466044Y4038919D2*
X1573665Y3931298D1*
X1636081Y3868882D2*
X1711399Y3793564D1*
X1852798Y3652165D2*
X2099645Y3405318D1*
X2241044Y3263919D2*
X2388854Y3116109D1*
X2588023Y2916939D2*
X2756950Y2748013D1*
X415707Y5060971D2*
X794314Y4682364D1*
X1096056Y4380623D2*
X1324645Y4152034D1*
X1466044Y4010635D2*
X1545381Y3931298D1*
X1607797Y3868882D2*
X1711399Y3765280D1*
X1852798Y3623880D2*
X2099645Y3377034D1*
X2241044Y3235634D2*
X2360570Y3116109D1*
X2517575Y2959103D2*
X2535800Y2940879D1*
X2588023Y2888655D2*
X2756895Y2719783D1*
X415707Y5032687D2*
X768060Y4680334D1*
X1094177Y4354217D2*
X1324645Y4123750D1*
X1466044Y3982350D2*
X1517096Y3931298D1*
X1579512Y3868882D2*
X1711399Y3736995D1*
X1852798Y3595596D2*
X2099645Y3348749D1*
X2241044Y3207350D2*
X2332285Y3116109D1*
X2489291Y2959103D2*
X2535800Y2912594D1*
X2588023Y2860371D2*
X2756840Y2691554D1*
X415707Y5004403D2*
X743643Y4676467D1*
X1090324Y4329786D2*
X1324645Y4095465D1*
X1466044Y3954066D2*
X1488812Y3931298D1*
X1551228Y3868882D2*
X1711399Y3708711D1*
X1852798Y3567312D2*
X2099645Y3320465D1*
X2241044Y3179066D2*
X2304001Y3116109D1*
X2461007Y2959103D2*
X2535800Y2884310D1*
X2588023Y2832086D2*
X2756784Y2663325D1*
X415707Y4976118D2*
X719240Y4672586D1*
X1086471Y4305354D2*
X1324645Y4067181D1*
X1522944Y3868882D2*
X1711399Y3680427D1*
X1852798Y3539027D2*
X2099645Y3292181D1*
X2241044Y3150782D2*
X2275717Y3116109D1*
X2432736Y2959089D2*
X2535800Y2856026D1*
X2673277Y2718549D2*
X2756729Y2635096D1*
X415707Y4947834D2*
X695402Y4668139D1*
X1082107Y4281434D2*
X1324645Y4038897D1*
X1494660Y3868882D2*
X1711399Y3652142D1*
X1852798Y3510743D2*
X2099645Y3263897D1*
X2230368Y3133173D2*
X2247433Y3116109D1*
X2404452Y2959089D2*
X2535800Y2827742D1*
X2673346Y2690195D2*
X2756674Y2606867D1*
X415707Y4919550D2*
X675736Y4659521D1*
X1073600Y4261657D2*
X1324645Y4010612D1*
X1466044Y3869213D2*
X1711399Y3623858D1*
X1852798Y3482459D2*
X2099645Y3235612D1*
X2204377Y3130880D2*
X2219148Y3116109D1*
X2376168Y2959089D2*
X2536186Y2799071D1*
X2673346Y2661911D2*
X2756619Y2578638D1*
X415707Y4891266D2*
X657009Y4649964D1*
X1064070Y4242903D2*
X1324645Y3982328D1*
X1466044Y3840929D2*
X1711399Y3595574D1*
X1852798Y3454175D2*
X2099645Y3207328D1*
X2176092Y3130880D2*
X2190864Y3116109D1*
X2347897Y2959076D2*
X2621122Y2685851D1*
X2673346Y2633627D2*
X2756550Y2550423D1*
X415707Y4862981D2*
X638295Y4640393D1*
X1054541Y4224148D2*
X1324645Y3954044D1*
X1466044Y3812645D2*
X1711399Y3567290D1*
X1852798Y3425890D2*
X2099645Y3179044D1*
X2147808Y3130880D2*
X2162580Y3116109D1*
X2319613Y2959076D2*
X2621122Y2657566D1*
X2673346Y2605343D2*
X2756494Y2522194D1*
X415707Y4834697D2*
X619568Y4630836D1*
X1045011Y4205393D2*
X1324645Y3925760D1*
X1466044Y3784360D2*
X1711399Y3539005D1*
X1852798Y3397606D2*
X2099700Y3150704D1*
X2119468Y3130936D2*
X2134296Y3116109D1*
X2291329Y2959076D2*
X2508178Y2742226D1*
X2562225Y2688179D2*
X2621122Y2629282D1*
X2673346Y2577058D2*
X2756439Y2493965D1*
X415707Y4806413D2*
X602581Y4619539D1*
X1033839Y4188281D2*
X1324645Y3897475D1*
X1466044Y3756076D2*
X1711399Y3510721D1*
X1852798Y3369322D2*
X2106011Y3116109D1*
X2263044Y2959076D2*
X2457742Y2764378D1*
X2584377Y2637743D2*
X2621122Y2600998D1*
X2673346Y2548774D2*
X2756384Y2465736D1*
X415707Y4778129D2*
X588342Y4605494D1*
X1019848Y4173987D2*
X1324645Y3869191D1*
X1466044Y3727792D2*
X1711399Y3482437D1*
X1852798Y3341038D2*
X2077727Y3116109D1*
X2234774Y2959062D2*
X2424057Y2769778D1*
X2589777Y2604058D2*
X2621122Y2572714D1*
X2673346Y2520490D2*
X2756329Y2437507D1*
X415707Y4749844D2*
X574214Y4591338D1*
X1005734Y4159817D2*
X1324645Y3840907D1*
X1466044Y3699508D2*
X1711399Y3454153D1*
X1852798Y3312753D2*
X2049443Y3116109D1*
X2206490Y2959062D2*
X2396270Y2769281D1*
X2589280Y2576271D2*
X2621122Y2544429D1*
X2673346Y2492206D2*
X2756273Y2409278D1*
X415707Y4721560D2*
X560099Y4577168D1*
X991606Y4145662D2*
X1324645Y3812623D1*
X1466044Y3671223D2*
X1711399Y3425868D1*
X1852798Y3284469D2*
X2021159Y3116109D1*
X2205316Y2931951D2*
X2372074Y2765193D1*
X2585192Y2552075D2*
X2621122Y2516145D1*
X2673346Y2463921D2*
X2756218Y2381049D1*
X415707Y4693276D2*
X546012Y4562971D1*
X977463Y4131519D2*
X1324645Y3784338D1*
X1466044Y3642939D2*
X1711399Y3397584D1*
X1852798Y3256185D2*
X1992874Y3116109D1*
X2149935Y2959048D2*
X2153088Y2955895D1*
X2205316Y2903667D2*
X2350502Y2758481D1*
X2578480Y2530503D2*
X2621122Y2487861D1*
X2673346Y2435637D2*
X2756163Y2352820D1*
X415707Y4664991D2*
X534301Y4546398D1*
X961001Y4119697D2*
X1324645Y3756054D1*
X1466044Y3614655D2*
X1711399Y3369300D1*
X1852798Y3227900D2*
X1964590Y3116109D1*
X2121651Y2959048D2*
X2153092Y2927607D1*
X2205316Y2875383D2*
X2331056Y2749642D1*
X2569641Y2511057D2*
X2621122Y2459576D1*
X2673346Y2407353D2*
X2756108Y2324591D1*
X415707Y4636707D2*
X524771Y4527643D1*
X948861Y4103553D2*
X1324645Y3727770D1*
X1466044Y3586370D2*
X1711399Y3341015D1*
X1852798Y3199616D2*
X1936306Y3116109D1*
X2093366Y2959048D2*
X2153092Y2899322D1*
X2205316Y2847099D2*
X2313475Y2738939D1*
X2558938Y2493476D2*
X2621122Y2431292D1*
X2673346Y2379069D2*
X2756052Y2296362D1*
X415707Y4608423D2*
X515242Y4508888D1*
X948861Y4075269D2*
X1324645Y3699485D1*
X1466044Y3558086D2*
X1711399Y3312731D1*
X1852798Y3171332D2*
X1908021Y3116109D1*
X2065096Y2959034D2*
X2153092Y2871038D1*
X2205316Y2818814D2*
X2297593Y2726537D1*
X2546536Y2477594D2*
X2621122Y2403008D1*
X2673346Y2350784D2*
X2755997Y2268133D1*
X415707Y4580139D2*
X505713Y4490133D1*
X948861Y4046984D2*
X1324645Y3671201D1*
X1466044Y3529802D2*
X1711399Y3284447D1*
X1851762Y3144083D2*
X1879737Y3116109D1*
X2036812Y2959034D2*
X2153092Y2842754D1*
X2205316Y2790530D2*
X2283340Y2712505D1*
X2532504Y2463341D2*
X2621122Y2374724D1*
X2673346Y2322500D2*
X2755942Y2239904D1*
X415707Y4551854D2*
X496805Y4470757D1*
X944263Y4023299D2*
X1324645Y3642917D1*
X1466044Y3501518D2*
X1711399Y3256163D1*
X1836750Y3130811D2*
X1851453Y3116109D1*
X2008527Y2959034D2*
X2153092Y2814470D1*
X2205136Y2762425D2*
X2270704Y2696858D1*
X2516857Y2450704D2*
X2621122Y2346439D1*
X2673346Y2294216D2*
X2755887Y2211675D1*
X415707Y4523570D2*
X492068Y4447209D1*
X933739Y4005538D2*
X1324645Y3614633D1*
X1466044Y3473233D2*
X1711399Y3227878D1*
X1808852Y3130425D2*
X1823169Y3116109D1*
X1980243Y2959034D2*
X2153092Y2786185D1*
X2194833Y2744444D2*
X2259766Y2679512D1*
X2499511Y2439766D2*
X2621122Y2318155D1*
X2673346Y2265931D2*
X2755831Y2183446D1*
X415707Y4495286D2*
X488201Y4422792D1*
X918409Y3992584D2*
X1324645Y3586348D1*
X1466044Y3444949D2*
X1711399Y3199594D1*
X1780568Y3130425D2*
X1794884Y3116109D1*
X1951973Y2959020D2*
X2143355Y2767637D1*
X2180691Y2730302D2*
X2250637Y2660356D1*
X2480355Y2430638D2*
X2621122Y2289871D1*
X2673346Y2237647D2*
X2755776Y2155217D1*
X415707Y4467002D2*
X484348Y4398361D1*
X898563Y3984146D2*
X1324645Y3558064D1*
X1466044Y3416665D2*
X1711399Y3171310D1*
X1752284Y3130425D2*
X1766600Y3116109D1*
X1923688Y2959020D2*
X2129213Y2753495D1*
X2166549Y2716160D2*
X2243607Y2639101D1*
X2459101Y2423608D2*
X2621122Y2261587D1*
X2673346Y2209363D2*
X2755721Y2126988D1*
X415707Y4438717D2*
X481682Y4372742D1*
X870279Y3984146D2*
X1324645Y3529780D1*
X1466044Y3388381D2*
X1738316Y3116109D1*
X1895404Y2959020D2*
X2115651Y2738773D1*
X2164339Y2690085D2*
X2239105Y2615320D1*
X2455109Y2399315D2*
X2621122Y2233302D1*
X2673346Y2181079D2*
X2755666Y2098759D1*
X415707Y4410433D2*
X486309Y4339831D1*
X841994Y3984146D2*
X1324645Y3501496D1*
X1466044Y3360096D2*
X1710032Y3116109D1*
X1867134Y2959007D2*
X2112129Y2714011D1*
X2164339Y2661801D2*
X2238014Y2588126D1*
X2455109Y2371031D2*
X2503538Y2322602D1*
X2560540Y2265600D2*
X2621122Y2205018D1*
X2673346Y2152794D2*
X2755610Y2070530D1*
X415707Y4382149D2*
X491612Y4306244D1*
X813710Y3984146D2*
X938940Y3858916D1*
X1053919Y3743937D2*
X1324645Y3473211D1*
X1466044Y3331812D2*
X1681747Y3116109D1*
X1838849Y2959007D2*
X2112129Y2685726D1*
X2164339Y2633516D2*
X2242323Y2555533D1*
X2455109Y2342746D2*
X2475254Y2322602D1*
X2558399Y2239456D2*
X2621122Y2176734D1*
X2673346Y2124510D2*
X2755555Y2042301D1*
X415707Y4353864D2*
X502232Y4267339D1*
X785426Y3984146D2*
X883310Y3886261D1*
X1081264Y3688307D2*
X1324645Y3444927D1*
X1466044Y3303528D2*
X1653463Y3116109D1*
X1810565Y2959007D2*
X2112129Y2657442D1*
X2164339Y2605232D2*
X2259862Y2509709D1*
X2329708Y2439863D2*
X2366646Y2402925D1*
X2548787Y2220784D2*
X2621122Y2148449D1*
X2673346Y2096226D2*
X2755500Y2014072D1*
X415707Y4325580D2*
X531442Y4209845D1*
X624946Y4116341D2*
X629144Y4112143D1*
X757142Y3984146D2*
X848535Y3892752D1*
X1087755Y3653532D2*
X1324645Y3416643D1*
X1466044Y3275243D2*
X1625179Y3116109D1*
X1806408Y2934879D2*
X2112129Y2629158D1*
X2164339Y2576948D2*
X2366646Y2374641D1*
X2534341Y2206946D2*
X2621122Y2120165D1*
X2673346Y2067942D2*
X2755445Y1985843D1*
X415707Y4297296D2*
X629139Y4083864D1*
X728857Y3984146D2*
X814920Y3898083D1*
X1093073Y3619930D2*
X1324645Y3388358D1*
X1466044Y3246959D2*
X1596894Y3116109D1*
X1806408Y2906595D2*
X2112129Y2600874D1*
X2164339Y2548664D2*
X2366646Y2346357D1*
X2514495Y2198508D2*
X2621122Y2091881D1*
X2673346Y2039657D2*
X2755389Y1957614D1*
X415707Y4269012D2*
X629139Y4055580D1*
X700573Y3984146D2*
X783514Y3901204D1*
X1096208Y3588511D2*
X1324645Y3360074D1*
X1466044Y3218675D2*
X1568610Y3116109D1*
X1725726Y2958993D2*
X1754184Y2930534D1*
X1806408Y2878311D2*
X1926334Y2758384D1*
X2028387Y2656332D2*
X2112129Y2572589D1*
X2164339Y2520379D2*
X2362117Y2322602D1*
X2488075Y2196643D2*
X2621122Y2063597D1*
X2673346Y2011373D2*
X2755334Y1929384D1*
X415707Y4240727D2*
X635561Y4020874D1*
X672289Y3984146D2*
X758807Y3897627D1*
X1092631Y3563804D2*
X1324645Y3331790D1*
X1466044Y3190391D2*
X1540326Y3116109D1*
X1697442Y2958993D2*
X1754184Y2902250D1*
X1806408Y2850026D2*
X1888093Y2768342D1*
X2038345Y2618090D2*
X2112129Y2544305D1*
X2164339Y2492095D2*
X2333832Y2322602D1*
X2459791Y2196643D2*
X2621122Y2035312D1*
X2673346Y1983089D2*
X2755279Y1901155D1*
X415707Y4212443D2*
X734390Y3893760D1*
X1088764Y3539387D2*
X1324645Y3303506D1*
X1466044Y3162106D2*
X1512042Y3116109D1*
X1669171Y2958979D2*
X1754184Y2873966D1*
X1806408Y2821742D2*
X1858123Y2770027D1*
X2040029Y2588121D2*
X2112129Y2516021D1*
X2164339Y2463811D2*
X2308352Y2319799D1*
X2455109Y2173041D2*
X2621122Y2007028D1*
X2673346Y1954804D2*
X2755210Y1872940D1*
X415707Y4184159D2*
X709973Y3889893D1*
X1084897Y3514969D2*
X1324645Y3275221D1*
X1461583Y3138283D2*
X1483757Y3116109D1*
X1640887Y2958979D2*
X1754184Y2845682D1*
X1803618Y2796248D2*
X1832491Y2767375D1*
X2037378Y2562488D2*
X2112129Y2487736D1*
X2164339Y2435527D2*
X2289983Y2309883D1*
X2455109Y2144757D2*
X2506701Y2093165D1*
X2563164Y2036702D2*
X2621122Y1978744D1*
X2673346Y1926520D2*
X2755155Y1844711D1*
X415707Y4155875D2*
X687489Y3884093D1*
X1079096Y3492485D2*
X1324645Y3246937D1*
X1440701Y3130880D2*
X1455473Y3116109D1*
X1612603Y2958979D2*
X1753010Y2818571D1*
X1790346Y2781235D2*
X1809827Y2761754D1*
X2031757Y2539825D2*
X2112129Y2459452D1*
X2164339Y2407242D2*
X2276684Y2294898D1*
X2584571Y1987011D2*
X2621122Y1950460D1*
X2673346Y1898236D2*
X2755099Y1816482D1*
X415707Y4127590D2*
X668610Y3874688D1*
X1069691Y3473606D2*
X1324645Y3218653D1*
X1412417Y3130880D2*
X1427189Y3116109D1*
X1584332Y2958965D2*
X1738868Y2804429D1*
X1776204Y2767093D2*
X1789484Y2753813D1*
X2023816Y2519482D2*
X2112129Y2431168D1*
X2164339Y2378958D2*
X2268604Y2274693D1*
X2346654Y2196643D2*
X2366646Y2176651D1*
X2589805Y1953492D2*
X2621122Y1922175D1*
X2673346Y1869952D2*
X2755044Y1788253D1*
X415707Y4099306D2*
X649869Y3865145D1*
X1060148Y3454865D2*
X1324645Y3190369D1*
X1384133Y3130880D2*
X1398905Y3116109D1*
X1556048Y2958965D2*
X1724726Y2790287D1*
X1762062Y2752951D2*
X1771089Y2743925D1*
X2013913Y2501100D2*
X2112129Y2402884D1*
X2164339Y2350674D2*
X2268522Y2246492D1*
X2318370Y2196643D2*
X2366646Y2148367D1*
X2589225Y1925788D2*
X2621122Y1893891D1*
X2673346Y1841667D2*
X2754989Y1760024D1*
X415707Y4071022D2*
X631127Y3855601D1*
X1050591Y3436138D2*
X1324645Y3162084D1*
X1355848Y3130880D2*
X1370620Y3116109D1*
X1527764Y2958965D2*
X1710584Y2776145D1*
X1747920Y2738809D2*
X1754460Y2732268D1*
X2002257Y2484472D2*
X2112129Y2374599D1*
X2164339Y2322389D2*
X2366646Y2120082D1*
X2585096Y1901633D2*
X2621122Y1865607D1*
X2673346Y1813383D2*
X2754934Y1731795D1*
X415707Y4042737D2*
X612594Y3845851D1*
X1040854Y3417590D2*
X1342336Y3116109D1*
X1499493Y2958951D2*
X1696442Y2762003D1*
X1733778Y2724667D2*
X1739490Y2718955D1*
X1988958Y2469487D2*
X2112129Y2346315D1*
X2164339Y2294105D2*
X2350115Y2108329D1*
X2578328Y1880116D2*
X2621122Y1837323D1*
X2673346Y1785099D2*
X2754878Y1703566D1*
X415707Y4014453D2*
X597057Y3833104D1*
X1028107Y3402053D2*
X1314052Y3116109D1*
X1471209Y2958951D2*
X1682300Y2747861D1*
X1719635Y2710525D2*
X1726135Y2704026D1*
X1974028Y2456132D2*
X2112129Y2318031D1*
X2164339Y2265821D2*
X2330711Y2099449D1*
X2569448Y1860712D2*
X2621122Y1809038D1*
X2673346Y1756815D2*
X2754823Y1675337D1*
X415707Y3986169D2*
X582914Y3818962D1*
X1013965Y3387911D2*
X1285767Y3116109D1*
X1442925Y2958951D2*
X1668158Y2733718D1*
X1705493Y2696383D2*
X1714423Y2687453D1*
X1957455Y2444421D2*
X2112129Y2289747D1*
X2164339Y2237537D2*
X2313158Y2088718D1*
X2558717Y1843159D2*
X2621122Y1780754D1*
X2673346Y1728530D2*
X2754768Y1647108D1*
X415707Y3957885D2*
X568772Y3804820D1*
X999823Y3373769D2*
X1257483Y3116109D1*
X1423673Y2949919D2*
X1654015Y2719576D1*
X1691351Y2682241D2*
X1704466Y2669126D1*
X1939129Y2434463D2*
X2112129Y2261462D1*
X2164339Y2209252D2*
X2297303Y2076289D1*
X2546287Y1827304D2*
X2621122Y1752470D1*
X2673346Y1700246D2*
X2754713Y1618879D1*
X415707Y3929600D2*
X554630Y3790677D1*
X986357Y3358950D2*
X1229199Y3116109D1*
X1423673Y2921635D2*
X1639873Y2705434D1*
X1677209Y2668098D2*
X1696456Y2648852D1*
X1918855Y2426453D2*
X2112129Y2233178D1*
X2164339Y2180968D2*
X2283078Y2062229D1*
X2532228Y1813079D2*
X2621122Y1724185D1*
X2667987Y1677320D2*
X2679804Y1665504D1*
X2729500Y1615807D2*
X2754658Y1590650D1*
X415707Y3901316D2*
X540999Y3776024D1*
X986357Y3330666D2*
X1200666Y3116357D1*
X1358086Y2958937D2*
X1371463Y2945560D1*
X1423673Y2893351D2*
X1625786Y2691237D1*
X1671768Y2645256D2*
X1690752Y2626271D1*
X1905113Y2411910D2*
X2112129Y2204894D1*
X2164339Y2152684D2*
X2270483Y2046540D1*
X2516539Y1800484D2*
X2616647Y1700376D1*
X415707Y3873032D2*
X530600Y3758139D1*
X986357Y3302381D2*
X1178320Y3110419D1*
X1329801Y2958937D2*
X1371463Y2917276D1*
X1423673Y2865066D2*
X1619544Y2669195D1*
X1671768Y2616971D2*
X1688003Y2600735D1*
X1905113Y2383626D2*
X2112129Y2176609D1*
X2164339Y2124400D2*
X2259572Y2029167D1*
X2499165Y1789573D2*
X2594025Y1694713D1*
X415707Y3844748D2*
X521056Y3739398D1*
X986357Y3274097D2*
X1162521Y3097934D1*
X1301531Y2958924D2*
X1371463Y2888992D1*
X1423673Y2836782D2*
X1619544Y2640911D1*
X1671768Y2588687D2*
X1689509Y2570946D1*
X1905113Y2355342D2*
X1937852Y2322602D1*
X1998584Y2261871D2*
X2112129Y2148325D1*
X2164339Y2096115D2*
X2250485Y2009970D1*
X2479969Y1780486D2*
X2566100Y1694354D1*
X415707Y3816463D2*
X511499Y3720671D1*
X986357Y3245813D2*
X1151141Y3081029D1*
X1273247Y2958924D2*
X1371463Y2860708D1*
X1551560Y2680611D2*
X1619544Y2612626D1*
X1671768Y2560403D2*
X1699066Y2533105D1*
X1803107Y2429063D2*
X1816650Y2415520D1*
X1905113Y2327057D2*
X1909572Y2322598D1*
X1994938Y2237233D2*
X2112129Y2120041D1*
X2164339Y2067831D2*
X2243497Y1988674D1*
X2458673Y1773498D2*
X2541807Y1690363D1*
X415707Y3788179D2*
X501956Y3701930D1*
X981386Y3222500D2*
X1143932Y3059954D1*
X1244962Y2958924D2*
X1371463Y2832423D1*
X1551877Y2652009D2*
X1619544Y2584342D1*
X1671768Y2532118D2*
X1816650Y2387236D1*
X1984745Y2219141D2*
X2112129Y2091757D1*
X2164339Y2039547D2*
X2239050Y1964837D1*
X2434835Y1769051D2*
X2520152Y1683734D1*
X2747730Y1456156D2*
X2754381Y1449505D1*
X415707Y3759895D2*
X494457Y3681145D1*
X970669Y3204933D2*
X1142095Y3033507D1*
X1216692Y2958910D2*
X1371546Y2804056D1*
X1551877Y2623725D2*
X1619544Y2556058D1*
X1671768Y2503834D2*
X1816650Y2358952D1*
X1969774Y2205827D2*
X2112129Y2063472D1*
X2164339Y2011262D2*
X2238041Y1937560D1*
X2407559Y1768043D2*
X2500651Y1674950D1*
X2738946Y1436655D2*
X2754326Y1421276D1*
X415707Y3731610D2*
X490535Y3656783D1*
X955145Y3192172D2*
X1150961Y2996356D1*
X1184555Y2962763D2*
X1400327Y2746991D1*
X1466997Y2680321D2*
X1499667Y2647650D1*
X1551877Y2595440D2*
X1619544Y2527774D1*
X1671768Y2475550D2*
X1816650Y2330668D1*
X1950674Y2196643D2*
X2112129Y2035188D1*
X2164339Y1982978D2*
X2242488Y1904829D1*
X2374828Y1772490D2*
X2483015Y1664302D1*
X2728298Y1419019D2*
X2754271Y1393047D1*
X415707Y3703326D2*
X486668Y3632366D1*
X934885Y3184148D2*
X1353633Y2765400D1*
X1485406Y2633627D2*
X1499667Y2619366D1*
X1551877Y2567156D2*
X1619544Y2499489D1*
X1671768Y2447266D2*
X1796431Y2322602D1*
X1922390Y2196643D2*
X2112129Y2006904D1*
X2164339Y1954694D2*
X2260553Y1858480D1*
X2328479Y1790554D2*
X2467078Y1651956D1*
X2715952Y1403082D2*
X2754216Y1364818D1*
X415707Y3675042D2*
X482801Y3607948D1*
X906601Y3184148D2*
X1320805Y2769944D1*
X1489950Y2600799D2*
X1499667Y2591082D1*
X1551877Y2538872D2*
X1619544Y2471205D1*
X1671768Y2418981D2*
X1768147Y2322602D1*
X1905113Y2185636D2*
X2112129Y1978620D1*
X2164339Y1926410D2*
X2452770Y1637979D1*
X2701975Y1388774D2*
X2730641Y1360108D1*
X415707Y3646758D2*
X483132Y3579333D1*
X878317Y3184148D2*
X1293474Y2768991D1*
X1488983Y2573481D2*
X1499667Y2562797D1*
X1551877Y2510588D2*
X1619544Y2442921D1*
X1671768Y2390697D2*
X1745663Y2316802D1*
X1905113Y2157352D2*
X2112129Y1950335D1*
X2164339Y1898125D2*
X2440078Y1622387D1*
X2686383Y1376082D2*
X2702356Y1360108D1*
X415707Y3618473D2*
X488463Y3545717D1*
X850032Y3184148D2*
X1269595Y2764585D1*
X1484578Y2549603D2*
X1499667Y2534513D1*
X1551877Y2482303D2*
X1619544Y2414637D1*
X1671768Y2362413D2*
X1729118Y2305063D1*
X1905113Y2129068D2*
X1925464Y2108716D1*
X2028718Y2005462D2*
X2112129Y1922051D1*
X2164339Y1869841D2*
X2429085Y1605096D1*
X2669092Y1365088D2*
X2674072Y1360108D1*
X415707Y3590189D2*
X493780Y3512116D1*
X821748Y3184148D2*
X1248285Y2757611D1*
X1477617Y2528279D2*
X1499667Y2506229D1*
X1551877Y2454019D2*
X1619544Y2386352D1*
X1671768Y2334129D2*
X1717393Y2288504D1*
X1809253Y2196643D2*
X1816650Y2189246D1*
X2038427Y1967469D2*
X2112129Y1893767D1*
X2164339Y1841557D2*
X2419900Y1585996D1*
X415707Y3561905D2*
X514248Y3463364D1*
X793464Y3184148D2*
X1229061Y2748551D1*
X1468557Y2509055D2*
X1499667Y2477945D1*
X1551877Y2425735D2*
X1619544Y2358068D1*
X1671768Y2305844D2*
X1711136Y2266476D1*
X1780969Y2196643D2*
X1816650Y2160962D1*
X2040016Y1937596D2*
X2112129Y1865482D1*
X2164339Y1813273D2*
X2412788Y1564824D1*
X2743476Y1234136D2*
X2753926Y1223686D1*
X415707Y3533621D2*
X579144Y3370184D1*
X765179Y3184148D2*
X1211659Y2737668D1*
X1457661Y2491667D2*
X1499667Y2449660D1*
X1551877Y2397451D2*
X1619544Y2329784D1*
X1671768Y2277560D2*
X1717586Y2231742D1*
X1746649Y2202679D2*
X1816650Y2132678D1*
X2037295Y1912033D2*
X2112129Y1837198D1*
X2164339Y1784988D2*
X2280274Y1669053D1*
X2339058Y1610269D2*
X2408203Y1541125D1*
X2715192Y1234136D2*
X2753870Y1195457D1*
X415707Y3505336D2*
X579144Y3341899D1*
X736895Y3184148D2*
X1195957Y2725087D1*
X1445079Y2475964D2*
X1499667Y2421376D1*
X1551877Y2369166D2*
X1619544Y2301499D1*
X1671768Y2249276D2*
X1809413Y2111630D1*
X2031633Y1889411D2*
X2112129Y1808914D1*
X2164339Y1756704D2*
X2231288Y1689755D1*
X2359760Y1561283D2*
X2406987Y1514056D1*
X2686908Y1234136D2*
X2753815Y1167228D1*
X415707Y3477052D2*
X579144Y3313615D1*
X708611Y3184148D2*
X1181884Y2710876D1*
X1430882Y2461877D2*
X1499667Y2393092D1*
X1551877Y2340882D2*
X1619544Y2273215D1*
X1671768Y2220991D2*
X1789111Y2103648D1*
X2023650Y1869109D2*
X2112129Y1780630D1*
X2164339Y1728420D2*
X2197921Y1694838D1*
X2364843Y1527916D2*
X2411062Y1481698D1*
X2658624Y1234136D2*
X2753760Y1138999D1*
X415707Y3448768D2*
X579144Y3285331D1*
X680327Y3184148D2*
X1169426Y2695049D1*
X1415041Y2449434D2*
X1499667Y2364808D1*
X1551877Y2312598D2*
X1619544Y2244931D1*
X1671768Y2192707D2*
X1770757Y2093718D1*
X2013720Y1850755D2*
X2112129Y1752345D1*
X2364180Y1500295D2*
X2427786Y1436689D1*
X2500698Y1363776D2*
X2504367Y1360108D1*
X2630339Y1234136D2*
X2665482Y1198993D1*
X2737731Y1126744D2*
X2753705Y1110770D1*
X415707Y3420483D2*
X579144Y3257047D1*
X652042Y3184148D2*
X1158668Y2677523D1*
X1397515Y2438675D2*
X1499667Y2336523D1*
X1551877Y2284313D2*
X1619544Y2216647D1*
X1671768Y2164423D2*
X1754170Y2082020D1*
X2002022Y1834168D2*
X2112129Y1724061D1*
X2359981Y1476209D2*
X2476082Y1360108D1*
X2602055Y1234136D2*
X2620307Y1215883D1*
X415707Y3392199D2*
X584226Y3223680D1*
X623758Y3184148D2*
X1149760Y2658146D1*
X1378139Y2429768D2*
X1499667Y2308239D1*
X1551877Y2256029D2*
X1619544Y2188362D1*
X1671768Y2136139D2*
X1739213Y2068693D1*
X1988681Y1819225D2*
X2112958Y1694948D1*
X2353187Y1454720D2*
X2447798Y1360108D1*
X2573771Y1234136D2*
X2587894Y1220013D1*
X415707Y3363915D2*
X1142979Y2636643D1*
X1356636Y2422986D2*
X1499667Y2279955D1*
X1551877Y2227745D2*
X1619544Y2160078D1*
X1671768Y2107854D2*
X1725886Y2053736D1*
X1973724Y1805898D2*
X2105362Y1674260D1*
X2344265Y1435357D2*
X2419514Y1360108D1*
X2545486Y1234136D2*
X2560811Y1218811D1*
X415707Y3335631D2*
X1138808Y2612530D1*
X1355103Y2396235D2*
X1438873Y2312465D1*
X1457219Y2294119D2*
X1499667Y2251671D1*
X1551877Y2199461D2*
X1619544Y2131794D1*
X1671768Y2079570D2*
X1714216Y2037122D1*
X1957124Y1794214D2*
X2087836Y1663501D1*
X2333493Y1417845D2*
X2391229Y1360108D1*
X2517202Y1234136D2*
X2537084Y1214254D1*
X415707Y3307346D2*
X1138173Y2584881D1*
X1355103Y2367951D2*
X1400451Y2322602D1*
X1467301Y2255753D2*
X1499667Y2223386D1*
X1551877Y2171176D2*
X1619544Y2103510D1*
X1671768Y2051286D2*
X1704286Y2018767D1*
X1938756Y1784298D2*
X2072023Y1651030D1*
X2321035Y1402018D2*
X2362945Y1360108D1*
X2488918Y1234136D2*
X2515898Y1207155D1*
X2745907Y977146D2*
X2753428Y969625D1*
X415707Y3279062D2*
X1143310Y2551459D1*
X1355103Y2339667D2*
X1372167Y2322602D1*
X1461707Y2233062D2*
X1499667Y2195102D1*
X1551877Y2142892D2*
X1619544Y2075225D1*
X1671768Y2023002D2*
X1696331Y1998438D1*
X1918440Y1776329D2*
X2057826Y1636943D1*
X2306948Y1387821D2*
X2334661Y1360108D1*
X2460634Y1234136D2*
X2496784Y1197985D1*
X2736737Y958032D2*
X2753373Y941396D1*
X415707Y3250778D2*
X1164247Y2502238D1*
X1222244Y2444241D2*
X1266640Y2399845D1*
X1450534Y2215951D2*
X1499667Y2166818D1*
X1551877Y2114608D2*
X1619544Y2046941D1*
X1671768Y1994717D2*
X1690669Y1975816D1*
X1895818Y1770667D2*
X2045258Y1621227D1*
X2291232Y1375253D2*
X2306377Y1360108D1*
X2432349Y1234136D2*
X2479480Y1187005D1*
X2725743Y940741D2*
X2753318Y913167D1*
X415707Y3222494D2*
X1266640Y2371561D1*
X1434542Y2203659D2*
X1499667Y2138533D1*
X1551877Y2086324D2*
X1619544Y2018657D1*
X1671768Y1966433D2*
X1687976Y1950225D1*
X1870227Y1767974D2*
X2034375Y1603825D1*
X2273817Y1364384D2*
X2278092Y1360108D1*
X2404065Y1234136D2*
X2463874Y1174327D1*
X2713079Y925122D2*
X2753263Y884938D1*
X415707Y3194209D2*
X1266640Y2343277D1*
X1413273Y2196643D2*
X1499667Y2110249D1*
X1551877Y2058039D2*
X1619544Y1990372D1*
X1671768Y1938149D2*
X1689592Y1920325D1*
X1840313Y1769603D2*
X2025329Y1584587D1*
X2375781Y1234136D2*
X2449883Y1160033D1*
X2698785Y911131D2*
X2753207Y856709D1*
X415707Y3165925D2*
X821452Y2760180D1*
X930189Y2651443D2*
X1259030Y2322602D1*
X1384989Y2196643D2*
X1499667Y2081965D1*
X1551877Y2029755D2*
X1619544Y1962088D1*
X1671768Y1909864D2*
X1699397Y1882235D1*
X1802237Y1779395D2*
X2018383Y1563250D1*
X2347497Y1234136D2*
X2437523Y1144109D1*
X2682861Y898771D2*
X2753152Y828480D1*
X415707Y3137641D2*
X784536Y2768811D1*
X938821Y2614527D2*
X1230746Y2322602D1*
X1356705Y2196643D2*
X1499667Y2053681D1*
X1551877Y2001471D2*
X1619544Y1933804D1*
X1671768Y1881580D2*
X1892705Y1660642D1*
X1930649Y1622699D2*
X2013991Y1539357D1*
X2319212Y1234136D2*
X2426875Y1126473D1*
X2665225Y888123D2*
X2753097Y800251D1*
X415707Y3109357D2*
X755147Y2769916D1*
X939912Y2585151D2*
X1202461Y2322602D1*
X1355103Y2169961D2*
X1499667Y2025396D1*
X1551877Y1973186D2*
X1619544Y1905520D1*
X1671768Y1853296D2*
X1836800Y1688264D1*
X1958270Y1566793D2*
X2013065Y1511998D1*
X2290928Y1234136D2*
X2418077Y1106986D1*
X2645738Y879325D2*
X2753042Y772022D1*
X415707Y3081072D2*
X729888Y2766892D1*
X936901Y2559878D2*
X1183306Y2313473D1*
X1355103Y2141677D2*
X1399084Y2097695D1*
X1467687Y2029092D2*
X1499667Y1997112D1*
X1551877Y1944902D2*
X1619544Y1877235D1*
X1671768Y1825012D2*
X1802232Y1694548D1*
X1964554Y1532225D2*
X2017651Y1479129D1*
X2262644Y1234136D2*
X2411421Y1085359D1*
X2624111Y872669D2*
X2752986Y743793D1*
X415707Y3052788D2*
X707501Y2760995D1*
X930990Y2537505D2*
X1168308Y2300187D1*
X1485572Y1982923D2*
X1499667Y1968828D1*
X1551877Y1916618D2*
X1619544Y1848951D1*
X1671768Y1796727D2*
X1773975Y1694520D1*
X1964526Y1503969D2*
X2036267Y1432228D1*
X2102233Y1366262D2*
X2108387Y1360108D1*
X2234359Y1234136D2*
X2267071Y1201424D1*
X2346419Y1122076D2*
X2407416Y1061079D1*
X2617606Y850889D2*
X2752931Y715564D1*
X415707Y3024504D2*
X687378Y2752832D1*
X922828Y2517382D2*
X1158102Y2282109D1*
X1243568Y2196643D2*
X1266640Y2173571D1*
X1489964Y1950247D2*
X1499667Y1940544D1*
X1551877Y1888334D2*
X1619544Y1820667D1*
X1671768Y1768443D2*
X1749461Y1690750D1*
X1960756Y1479455D2*
X2080102Y1360108D1*
X2206075Y1234136D2*
X2223720Y1216491D1*
X2361487Y1078724D2*
X2407029Y1033182D1*
X2617606Y822605D2*
X2752876Y687335D1*
X415707Y2996219D2*
X669190Y2742737D1*
X912733Y2499194D2*
X1154386Y2257540D1*
X1215283Y2196643D2*
X1266640Y2145287D1*
X1488928Y1922998D2*
X1499667Y1912259D1*
X1551877Y1860049D2*
X1619544Y1792383D1*
X1671768Y1740159D2*
X1727640Y1684286D1*
X1954293Y1457634D2*
X2051818Y1360108D1*
X2177791Y1234136D2*
X2191859Y1220068D1*
X2365078Y1046849D2*
X2412622Y999304D1*
X2617606Y794321D2*
X2751826Y660100D1*
X415707Y2967935D2*
X652755Y2730887D1*
X900897Y2482745D2*
X1266640Y2117003D1*
X1484467Y1899175D2*
X1499667Y1883975D1*
X1551877Y1831765D2*
X1619544Y1764098D1*
X1671768Y1711875D2*
X1708001Y1675641D1*
X1945647Y1437995D2*
X2023534Y1360108D1*
X2149507Y1234136D2*
X2165080Y1218563D1*
X2363558Y1020084D2*
X2435852Y947790D1*
X2486542Y897100D2*
X2504781Y878861D1*
X2617606Y766036D2*
X2723542Y660100D1*
X415707Y2939651D2*
X637950Y2717408D1*
X887404Y2467954D2*
X1247899Y2107459D1*
X1477465Y1877893D2*
X1499667Y1855691D1*
X1551877Y1803481D2*
X1619544Y1735814D1*
X1671768Y1683590D2*
X1690227Y1665131D1*
X1935137Y1420221D2*
X1995250Y1360108D1*
X2121222Y1234136D2*
X2141588Y1213770D1*
X2358780Y996578D2*
X2476497Y878861D1*
X2602469Y752889D2*
X2695258Y660100D1*
X415707Y2911367D2*
X624775Y2702299D1*
X872309Y2454765D2*
X1228716Y2098358D1*
X1468364Y1858710D2*
X1499667Y1827406D1*
X1551877Y1775197D2*
X1619544Y1707530D1*
X1922901Y1404173D2*
X1966965Y1360108D1*
X2092938Y1234136D2*
X2120568Y1206506D1*
X2351502Y975572D2*
X2448212Y878861D1*
X2574185Y752889D2*
X2666973Y660100D1*
X415707Y2883082D2*
X613243Y2685547D1*
X855543Y2443247D2*
X1211356Y2087434D1*
X1457440Y1841350D2*
X1499667Y1799122D1*
X1551877Y1746912D2*
X1619544Y1679245D1*
X1909049Y1389740D2*
X1938681Y1360108D1*
X2064654Y1234136D2*
X2101606Y1197184D1*
X2342193Y956596D2*
X2419928Y878861D1*
X2545901Y752889D2*
X2638689Y660100D1*
X415707Y2854798D2*
X603492Y2667013D1*
X837009Y2433496D2*
X1195680Y2074825D1*
X1444831Y1825675D2*
X1499667Y1770838D1*
X1551877Y1718628D2*
X1621270Y1649235D1*
X1893567Y1376938D2*
X1910397Y1360108D1*
X2036370Y1234136D2*
X2084439Y1186066D1*
X2331062Y939443D2*
X2391644Y878861D1*
X2517617Y752889D2*
X2610405Y660100D1*
X415707Y2826514D2*
X595717Y2646504D1*
X816500Y2425721D2*
X1181621Y2060600D1*
X1430592Y1811629D2*
X1499667Y1742554D1*
X1551877Y1690344D2*
X1635813Y1606408D1*
X1876400Y1365820D2*
X1882113Y1360108D1*
X2008085Y1234136D2*
X2068957Y1173264D1*
X2318259Y923962D2*
X2363360Y878861D1*
X2489332Y752889D2*
X2582121Y660100D1*
X415707Y2798230D2*
X590289Y2623647D1*
X805106Y2408831D2*
X1169205Y2044731D1*
X1414723Y1799213D2*
X1499667Y1714269D1*
X1551877Y1662059D2*
X1626505Y1587432D1*
X1979801Y1234136D2*
X2055105Y1158831D1*
X2303841Y910096D2*
X2335075Y878861D1*
X2461048Y752889D2*
X2553836Y660100D1*
X415707Y2769945D2*
X587914Y2597739D1*
X805106Y2380546D2*
X863050Y2322602D1*
X916227Y2269426D2*
X1158488Y2027164D1*
X1397170Y1788482D2*
X1499667Y1685985D1*
X1546381Y1639272D2*
X1619226Y1566426D1*
X1951517Y1234136D2*
X2042869Y1142783D1*
X2287779Y897873D2*
X2306791Y878861D1*
X2432764Y752889D2*
X2525552Y660100D1*
X415707Y2741661D2*
X590041Y2567327D1*
X805106Y2352262D2*
X834766Y2322602D1*
X915288Y2242080D2*
X1149622Y2007746D1*
X1377752Y1779616D2*
X1495013Y1662355D1*
X1532349Y1625019D2*
X1614434Y1542934D1*
X1923233Y1234136D2*
X2032359Y1125009D1*
X2270019Y887349D2*
X2278507Y878861D1*
X2404479Y752889D2*
X2497268Y660100D1*
X415707Y2713377D2*
X601062Y2528022D1*
X698018Y2431066D2*
X716643Y2412441D1*
X906504Y2222580D2*
X1142868Y1986215D1*
X1356207Y1772876D2*
X1442588Y1686496D1*
X1556490Y1572594D2*
X1612929Y1516155D1*
X1894948Y1234136D2*
X2023713Y1105370D1*
X2376195Y752889D2*
X2468984Y660100D1*
X415707Y2685092D2*
X716643Y2384156D1*
X892652Y2208148D2*
X1138753Y1962047D1*
X1332053Y1768747D2*
X1406652Y1694147D1*
X1564141Y1536658D2*
X1616506Y1484294D1*
X1866664Y1234136D2*
X2017250Y1083549D1*
X2347911Y752889D2*
X2440699Y660100D1*
X415707Y2656808D2*
X716643Y2355872D1*
X873538Y2198977D2*
X1138200Y1934315D1*
X1304321Y1768195D2*
X1377733Y1694782D1*
X1564790Y1507725D2*
X1631573Y1440942D1*
X1838380Y1234136D2*
X1875787Y1196728D1*
X1941725Y1130790D2*
X2013480Y1059035D1*
X2319627Y752889D2*
X2412415Y660100D1*
X415707Y2628524D2*
X716643Y2327588D1*
X847588Y2196643D2*
X1143490Y1900741D1*
X1270733Y1773498D2*
X1352763Y1691468D1*
X1561476Y1482755D2*
X1684123Y1360108D1*
X1810095Y1234136D2*
X1828886Y1215345D1*
X1960342Y1083889D2*
X2013452Y1030779D1*
X2291342Y752889D2*
X2384131Y660100D1*
X415707Y2600240D2*
X693345Y2322602D1*
X819303Y2196643D2*
X1165159Y1850788D1*
X1220794Y1795153D2*
X1330597Y1685350D1*
X1555344Y1460603D2*
X1655838Y1360108D1*
X1781811Y1234136D2*
X1796003Y1219944D1*
X1964941Y1051006D2*
X2019722Y996225D1*
X2263058Y752889D2*
X2355847Y660100D1*
X415707Y2571955D2*
X665060Y2322602D1*
X805106Y2182556D2*
X1310668Y1676994D1*
X1546988Y1440674D2*
X1627554Y1360108D1*
X1753527Y1234136D2*
X1768658Y1219005D1*
X1964002Y1023661D2*
X2047316Y940347D1*
X2085342Y902320D2*
X2129144Y858518D1*
X2234774Y752889D2*
X2327562Y660100D1*
X415707Y2543671D2*
X643668Y2315711D1*
X805106Y2154272D2*
X1292645Y1666733D1*
X1536727Y1422651D2*
X1599270Y1360108D1*
X1725243Y1234136D2*
X1744765Y1214613D1*
X1959624Y999755D2*
X2129144Y830234D1*
X2206490Y752889D2*
X2299278Y660100D1*
X415707Y2515387D2*
X627633Y2303461D1*
X805106Y2125988D2*
X820624Y2110470D1*
X930479Y2000614D2*
X1276349Y1654745D1*
X1524739Y1406355D2*
X1570986Y1360108D1*
X1696958Y1234136D2*
X1723428Y1207666D1*
X1952677Y978417D2*
X2129144Y801950D1*
X2178205Y752889D2*
X2270994Y660100D1*
X415707Y2487103D2*
X616391Y2286418D1*
X706166Y2196643D2*
X716643Y2186166D1*
X938890Y1963919D2*
X1261695Y1641114D1*
X1511108Y1391702D2*
X1542701Y1360108D1*
X1668674Y1234136D2*
X1704190Y1198620D1*
X1943631Y959179D2*
X2129144Y773665D1*
X2149921Y752889D2*
X2242709Y660100D1*
X415707Y2458818D2*
X610743Y2263782D1*
X677882Y2196643D2*
X716643Y2157882D1*
X939898Y1934627D2*
X1248658Y1625867D1*
X1495861Y1378664D2*
X1514417Y1360108D1*
X1640390Y1234136D2*
X1686774Y1187751D1*
X1932748Y941777D2*
X2214425Y660100D1*
X415707Y2430534D2*
X620397Y2225845D1*
X639848Y2206394D2*
X716643Y2129598D1*
X936805Y1909436D2*
X1237292Y1608949D1*
X1478943Y1367298D2*
X1486133Y1360108D1*
X1612106Y1234136D2*
X1671058Y1175183D1*
X1920180Y926061D2*
X2186141Y660100D1*
X415707Y2402250D2*
X707100Y2110857D1*
X930866Y1887091D2*
X1227707Y1590249D1*
X1583821Y1234136D2*
X1656971Y1160986D1*
X1905983Y911974D2*
X2157857Y660100D1*
X415707Y2373965D2*
X687019Y2102653D1*
X922649Y1867024D2*
X1220125Y1569547D1*
X1555537Y1234136D2*
X1644514Y1145159D1*
X1890170Y899503D2*
X2129572Y660100D1*
X415707Y2345681D2*
X668872Y2092516D1*
X912526Y1848863D2*
X1214946Y1546442D1*
X1527253Y1234136D2*
X1633741Y1127647D1*
X1872644Y888744D2*
X2101288Y660100D1*
X415707Y2317397D2*
X652451Y2080653D1*
X900648Y1832456D2*
X1048749Y1684355D1*
X1154364Y1578740D2*
X1212889Y1520216D1*
X1498968Y1234136D2*
X1624820Y1108284D1*
X1853281Y879823D2*
X2073004Y660100D1*
X415707Y2289113D2*
X637688Y2067132D1*
X887128Y1817692D2*
X1011211Y1693609D1*
X1163604Y1541216D2*
X1215554Y1489266D1*
X1470684Y1234136D2*
X1618025Y1086795D1*
X1831806Y873014D2*
X2044720Y660100D1*
X415707Y2260828D2*
X624540Y2051996D1*
X872005Y1804530D2*
X981560Y1694976D1*
X1164971Y1511564D2*
X1227970Y1448566D1*
X1442400Y1234136D2*
X1490166Y1186370D1*
X1546367Y1130169D2*
X1613826Y1062709D1*
X1807720Y868815D2*
X2016435Y660100D1*
X415707Y2232544D2*
X613049Y2035202D1*
X855211Y1793040D2*
X956120Y1692131D1*
X1162126Y1486125D2*
X1288143Y1360108D1*
X1414116Y1234136D2*
X1439218Y1209033D1*
X1569030Y1079221D2*
X1613150Y1035102D1*
X1780099Y868153D2*
X1988151Y660100D1*
X415707Y2204260D2*
X603327Y2016640D1*
X836650Y1783317D2*
X933609Y1686358D1*
X1156367Y1463600D2*
X1259859Y1360108D1*
X1385831Y1234136D2*
X1405050Y1214917D1*
X1574913Y1045054D2*
X1618246Y1001721D1*
X1805110Y814857D2*
X1959867Y660100D1*
X415707Y2175976D2*
X595593Y1996090D1*
X816099Y1775583D2*
X913376Y1678306D1*
X1148301Y1443381D2*
X1231574Y1360108D1*
X1357547Y1234136D2*
X1376821Y1214861D1*
X1574858Y1016825D2*
X1638934Y952748D1*
X1697759Y893923D2*
X1712821Y878861D1*
X1800235Y791448D2*
X1931582Y660100D1*
X415707Y2147691D2*
X590220Y1973178D1*
X793174Y1770225D2*
X895105Y1668294D1*
X1138303Y1425096D2*
X1204146Y1359252D1*
X1329263Y1234136D2*
X1352197Y1211202D1*
X1571198Y992200D2*
X1684537Y878861D1*
X1789559Y773839D2*
X1903298Y660100D1*
X415707Y2119407D2*
X587914Y1947200D1*
X767210Y1767905D2*
X878573Y1656541D1*
X1126550Y1408564D2*
X1186054Y1349060D1*
X1300979Y1234136D2*
X1330196Y1204918D1*
X1564914Y970200D2*
X1656253Y878861D1*
X1774091Y761023D2*
X1875014Y660100D1*
X415707Y2091123D2*
X590151Y1916679D1*
X736688Y1770142D2*
X863685Y1643144D1*
X1113153Y1393677D2*
X1171995Y1334835D1*
X1272694Y1234136D2*
X1310323Y1196507D1*
X1556504Y950326D2*
X1627968Y878861D1*
X1753941Y752889D2*
X1846730Y660100D1*
X415707Y2062838D2*
X601448Y1877097D1*
X697093Y1781453D2*
X850413Y1628132D1*
X1098127Y1380418D2*
X1162894Y1315652D1*
X1244410Y1234136D2*
X1292272Y1186273D1*
X1546270Y932276D2*
X1599684Y878861D1*
X1725657Y752889D2*
X1818445Y660100D1*
X415707Y2034554D2*
X838799Y1611463D1*
X1081458Y1368803D2*
X1099006Y1351256D1*
X1120791Y1329471D2*
X1161582Y1288679D1*
X1216126Y1234136D2*
X1275893Y1174368D1*
X1534379Y915882D2*
X1571400Y878861D1*
X1697373Y752889D2*
X1790161Y660100D1*
X415707Y2006270D2*
X828952Y1593025D1*
X1129671Y1292306D2*
X1261074Y1160903D1*
X1520900Y901077D2*
X1543116Y878861D1*
X1669088Y752889D2*
X1761877Y660100D1*
X415707Y1977986D2*
X821066Y1572627D1*
X1123870Y1269822D2*
X1247830Y1145863D1*
X1505860Y887833D2*
X1514831Y878861D1*
X1640804Y752889D2*
X1733593Y660100D1*
X415707Y1949701D2*
X815514Y1549895D1*
X1112518Y1252890D2*
X1236159Y1129249D1*
X1612520Y752889D2*
X1705308Y660100D1*
X415707Y1921417D2*
X650421Y1686703D1*
X761879Y1575246D2*
X812945Y1524179D1*
X1096346Y1240779D2*
X1226174Y1110950D1*
X1584236Y752889D2*
X1677024Y660100D1*
X415707Y1893133D2*
X614030Y1694810D1*
X769999Y1538841D2*
X814782Y1494058D1*
X1074691Y1234149D2*
X1218054Y1090786D1*
X1555951Y752889D2*
X1648740Y660100D1*
X415707Y1864849D2*
X584889Y1695666D1*
X770856Y1509700D2*
X825071Y1455485D1*
X1046406Y1234149D2*
X1104226Y1176330D1*
X1121329Y1159226D2*
X1212101Y1068454D1*
X1428451Y852105D2*
X1431787Y848769D1*
X1527667Y752889D2*
X1620455Y660100D1*
X415707Y1836564D2*
X559781Y1692490D1*
X767679Y1484592D2*
X892163Y1360108D1*
X1018122Y1234149D2*
X1039937Y1212334D1*
X1157334Y1094938D2*
X1208883Y1043388D1*
X1403385Y848887D2*
X1424399Y827872D1*
X1499383Y752889D2*
X1592171Y660100D1*
X415707Y1808280D2*
X537505Y1686482D1*
X761658Y1462329D2*
X863879Y1360108D1*
X989838Y1234149D2*
X1004637Y1219350D1*
X1164349Y1059638D2*
X1209477Y1014510D1*
X1374507Y849481D2*
X1425449Y798538D1*
X1471098Y752889D2*
X1563887Y660100D1*
X415707Y1779996D2*
X517493Y1678210D1*
X753399Y1442304D2*
X835595Y1360108D1*
X961553Y1234149D2*
X976022Y1219681D1*
X1164681Y1031022D2*
X1216617Y979085D1*
X1339082Y856621D2*
X1535603Y660100D1*
X415707Y1751711D2*
X499387Y1668031D1*
X743207Y1424212D2*
X807310Y1360108D1*
X933269Y1234149D2*
X951259Y1216160D1*
X1161159Y1006259D2*
X1247664Y919755D1*
X1279752Y887667D2*
X1507318Y660100D1*
X415707Y1723427D2*
X483022Y1656113D1*
X731288Y1407846D2*
X779026Y1360108D1*
X904985Y1234149D2*
X929259Y1209876D1*
X1154875Y984259D2*
X1479034Y660100D1*
X415707Y1695143D2*
X468300Y1642550D1*
X717740Y1393110D2*
X750742Y1360108D1*
X876701Y1234149D2*
X909454Y1201396D1*
X1146396Y964454D2*
X1450750Y660100D1*
X415707Y1666859D2*
X455193Y1627373D1*
X702562Y1380004D2*
X722457Y1360108D1*
X848416Y1234149D2*
X891555Y1191010D1*
X1136010Y946556D2*
X1422466Y660100D1*
X415707Y1638574D2*
X443744Y1610537D1*
X685713Y1368569D2*
X694173Y1360108D1*
X820132Y1234149D2*
X875369Y1178912D1*
X1123912Y930370D2*
X1394181Y660100D1*
X415707Y1610290D2*
X434077Y1591921D1*
X791848Y1234149D2*
X860813Y1165184D1*
X1110184Y915813D2*
X1365897Y660100D1*
X415707Y1582006D2*
X426412Y1571301D1*
X763564Y1234149D2*
X847886Y1149827D1*
X1094827Y902886D2*
X1337613Y660100D1*
X415707Y1553722D2*
X421108Y1548320D1*
X735279Y1234149D2*
X836617Y1132812D1*
X1077812Y891617D2*
X1309328Y660100D1*
X415707Y1525437D2*
X418899Y1522246D1*
X706995Y1234149D2*
X827156Y1113988D1*
X1058988Y882157D2*
X1281044Y660100D1*
X415707Y1497153D2*
X421302Y1491558D1*
X678711Y1234149D2*
X819712Y1093148D1*
X1038148Y874713D2*
X1252760Y660100D1*
X415707Y1468869D2*
X433027Y1451549D1*
X650426Y1234149D2*
X699601Y1184975D1*
X735984Y1148592D2*
X814713Y1069863D1*
X1014863Y869713D2*
X1224476Y660100D1*
X415707Y1440585D2*
X496183Y1360108D1*
X622142Y1234149D2*
X643115Y1213176D1*
X764171Y1092120D2*
X812904Y1043388D1*
X1028397Y827894D2*
X1196191Y660100D1*
X415707Y1412300D2*
X472636Y1355371D1*
X593858Y1234149D2*
X608478Y1219529D1*
X770538Y1057469D2*
X815956Y1012052D1*
X1028024Y799983D2*
X1167907Y660100D1*
X415707Y1384016D2*
X455580Y1344143D1*
X565574Y1234149D2*
X580180Y1219543D1*
X770538Y1029185D2*
X829490Y970233D1*
X915232Y884491D2*
X920862Y878861D1*
X1019738Y779985D2*
X1139623Y660100D1*
X415707Y1355732D2*
X443371Y1328068D1*
X537289Y1234149D2*
X555638Y1215801D1*
X766795Y1004644D2*
X892577Y878861D1*
X1006259Y765180D2*
X1111339Y660100D1*
X415707Y1327447D2*
X436521Y1306633D1*
X509005Y1234149D2*
X533804Y1209351D1*
X760346Y982809D2*
X864293Y878861D1*
X987642Y755513D2*
X1083054Y660100D1*
X415707Y1299163D2*
X439836Y1275035D1*
X477683Y1237188D2*
X514151Y1200719D1*
X751728Y963142D2*
X836009Y878861D1*
X961982Y752889D2*
X1054770Y660100D1*
X415707Y1270879D2*
X496363Y1190223D1*
X741218Y945368D2*
X807725Y878861D1*
X933697Y752889D2*
X1026486Y660100D1*
X415707Y1242595D2*
X480287Y1178014D1*
X729009Y929292D2*
X779440Y878861D1*
X905413Y752889D2*
X998201Y660100D1*
X415707Y1214310D2*
X465855Y1164162D1*
X715157Y914860D2*
X751156Y878861D1*
X877129Y752889D2*
X969917Y660100D1*
X415707Y1186026D2*
X453039Y1148694D1*
X699689Y902044D2*
X722872Y878861D1*
X848845Y752889D2*
X941633Y660100D1*
X415707Y1157742D2*
X441894Y1131555D1*
X682550Y890899D2*
X694588Y878861D1*
X820560Y752889D2*
X913349Y660100D1*
X415707Y1129458D2*
X432571Y1112593D1*
X663602Y881563D2*
X666313Y878851D1*
X792276Y752889D2*
X885064Y660100D1*
X415707Y1101173D2*
X425279Y1091601D1*
X763992Y752889D2*
X856780Y660100D1*
X415707Y1072889D2*
X420459Y1068137D1*
X735707Y752889D2*
X828496Y660100D1*
X415707Y1044605D2*
X418926Y1041385D1*
X707423Y752889D2*
X800212Y660100D1*
X415707Y1016320D2*
X422448Y1009579D1*
X560588Y871440D2*
X568593Y863435D1*
X679139Y752889D2*
X771927Y660100D1*
X415707Y988036D2*
X437350Y966393D1*
X517402Y886341D2*
X556205Y847539D1*
X650855Y752889D2*
X743643Y660100D1*
X415707Y959752D2*
X549161Y826298D1*
X622570Y752889D2*
X715359Y660100D1*
X415707Y931468D2*
X551385Y795790D1*
X591634Y755540D2*
X687075Y660100D1*
X415707Y903183D2*
X658790Y660100D1*
X415707Y874899D2*
X630506Y660100D1*
X415707Y846615D2*
X602222Y660100D1*
X415707Y818331D2*
X573937Y660100D1*
X415707Y790046D2*
X545653Y660100D1*
X415707Y761762D2*
X517369Y660100D1*
X415707Y733478D2*
X489085Y660100D1*
X415707Y705193D2*
X460800Y660100D1*
X415707Y676909D2*
X432516Y660100D1*
X919035Y4939001D2*
X918268Y4929033D1*
X916737Y4919153D1*
X914453Y4909420D1*
X911428Y4899892D1*
X907680Y4890623D1*
X903232Y4881669D1*
X898110Y4873084D1*
X892344Y4864917D1*
X885968Y4857216D1*
X879019Y4850028D1*
X871539Y4843395D1*
X863572Y4837355D1*
X855165Y4831945D1*
X846367Y4827196D1*
X837231Y4823137D1*
X827810Y4819791D1*
X818160Y4817178D1*
X808338Y4815314D1*
X798401Y4814209D1*
X788410Y4813870D1*
X778421Y4814299D1*
X768495Y4815494D1*
X758691Y4817448D1*
X749065Y4820148D1*
X739674Y4823579D1*
X730575Y4827721D1*
X721821Y4832550D1*
X713463Y4838036D1*
X705551Y4844148D1*
X698132Y4850849D1*
X691249Y4858100D1*
X684943Y4865857D1*
X679251Y4874077D1*
X674207Y4882708D1*
X669840Y4891702D1*
X666177Y4901004D1*
X663239Y4910560D1*
X661043Y4920313D1*
X659602Y4930207D1*
X658925Y4940181D1*
X659016Y4950178D1*
X659873Y4960139D1*
X661493Y4970004D1*
X663866Y4979716D1*
X666977Y4989217D1*
X670809Y4998452D1*
X675338Y5007364D1*
X680538Y5015903D1*
X686378Y5024018D1*
X692824Y5031660D1*
X699837Y5038785D1*
X707377Y5045350D1*
X715398Y5051317D1*
X723854Y5056651D1*
X732695Y5061319D1*
X741868Y5065296D1*
X751319Y5068556D1*
X760992Y5071081D1*
X770831Y5072857D1*
X780776Y5073871D1*
X790771Y5074119D1*
X800755Y5073599D1*
X810670Y5072314D1*
X820456Y5070272D1*
X830057Y5067485D1*
X839416Y5063968D1*
X848477Y5059744D1*
X857187Y5054836D1*
X865495Y5049274D1*
X873351Y5043091D1*
X880709Y5036323D1*
X887526Y5029010D1*
X893762Y5021195D1*
X899379Y5012925D1*
X904345Y5004248D1*
X908629Y4995215D1*
X912208Y4985880D1*
X915060Y4976298D1*
X917167Y4966525D1*
X918518Y4956619D1*
X919104Y4946638D1*
X919035Y4939001D1*
X1449861Y4703049D2*
X1449356Y4698779D1*
X1448517Y4694561D1*
X1447349Y4690422D1*
X1445861Y4686387D1*
X1444060Y4682481D1*
X1441959Y4678729D1*
X1439570Y4675153D1*
X1436577Y4671418D1*
X1446906Y4671362D1*
X1450006Y4670871D1*
X1452991Y4669902D1*
X1455787Y4668477D1*
X1458326Y4666632D1*
X1460545Y4664413D1*
X1462390Y4661874D1*
X1463815Y4659078D1*
X1464785Y4656093D1*
X1465276Y4652993D1*
X1465337Y4626424D1*
X1465276Y3150012D1*
X1464785Y3146912D1*
X1463815Y3143928D1*
X1462390Y3141131D1*
X1460545Y3138592D1*
X1458326Y3136373D1*
X1455787Y3134529D1*
X1452991Y3133104D1*
X1450006Y3132134D1*
X1446906Y3131643D1*
X1420337Y3131581D1*
X1343779Y3131643D1*
X1340679Y3132134D1*
X1337694Y3133104D1*
X1334898Y3134529D1*
X1332359Y3136373D1*
X1330140Y3138592D1*
X1328295Y3141131D1*
X1326870Y3143928D1*
X1325900Y3146912D1*
X1325409Y3150012D1*
X1325348Y3176581D1*
X1325409Y4652993D1*
X1325900Y4656093D1*
X1326870Y4659078D1*
X1328295Y4661874D1*
X1330140Y4664413D1*
X1332359Y4666632D1*
X1334898Y4668477D1*
X1337694Y4669902D1*
X1340679Y4670871D1*
X1343779Y4671362D1*
X1353922Y4671424D1*
X1350950Y4675153D1*
X1348561Y4678729D1*
X1346459Y4682481D1*
X1344659Y4686387D1*
X1343170Y4690422D1*
X1342003Y4694561D1*
X1341164Y4698779D1*
X1340659Y4703049D1*
X1340490Y4707346D1*
X1340659Y4711644D1*
X1341164Y4715914D1*
X1342003Y4720132D1*
X1343170Y4724271D1*
X1344659Y4728306D1*
X1346459Y4732212D1*
X1348561Y4735964D1*
X1350950Y4739540D1*
X1353612Y4742917D1*
X1356532Y4746075D1*
X1359690Y4748994D1*
X1363067Y4751656D1*
X1366643Y4754046D1*
X1370395Y4756147D1*
X1374300Y4757947D1*
X1378335Y4759436D1*
X1382474Y4760603D1*
X1386692Y4761442D1*
X1390963Y4761948D1*
X1395260Y4762117D1*
X1399557Y4761948D1*
X1403828Y4761442D1*
X1408046Y4760603D1*
X1412185Y4759436D1*
X1416219Y4757947D1*
X1420125Y4756147D1*
X1423877Y4754046D1*
X1427453Y4751656D1*
X1430830Y4748994D1*
X1433988Y4746075D1*
X1436907Y4742917D1*
X1439570Y4739540D1*
X1441959Y4735964D1*
X1444060Y4732212D1*
X1445861Y4728306D1*
X1447349Y4724271D1*
X1448517Y4720132D1*
X1449356Y4715914D1*
X1449861Y4711644D1*
X1450030Y4707346D1*
X1449861Y4703049D1*
X2612341D2*
X2611836Y4698779D1*
X2610997Y4694561D1*
X2609830Y4690422D1*
X2608341Y4686387D1*
X2606541Y4682481D1*
X2604439Y4678729D1*
X2602050Y4675153D1*
X2599057Y4671418D1*
X2609406Y4671362D1*
X2612506Y4670871D1*
X2615491Y4669902D1*
X2618287Y4668477D1*
X2620826Y4666632D1*
X2623045Y4664413D1*
X2624890Y4661874D1*
X2626315Y4659078D1*
X2627285Y4656093D1*
X2627776Y4652993D1*
X2627837Y4626424D1*
X2627776Y3150012D1*
X2627285Y3146912D1*
X2626315Y3143928D1*
X2624890Y3141131D1*
X2623046Y3138592D1*
X2620826Y3136373D1*
X2618287Y3134528D1*
X2615491Y3133104D1*
X2612506Y3132134D1*
X2609406Y3131643D1*
X2582837Y3131581D1*
X2506279Y3131643D1*
X2503179Y3132134D1*
X2500194Y3133104D1*
X2497398Y3134528D1*
X2494859Y3136373D1*
X2492640Y3138592D1*
X2490795Y3141131D1*
X2489370Y3143928D1*
X2488400Y3146912D1*
X2487909Y3150012D1*
X2487848Y3176581D1*
X2487909Y4652993D1*
X2488400Y4656093D1*
X2489370Y4659078D1*
X2490795Y4661874D1*
X2492640Y4664413D1*
X2494859Y4666632D1*
X2497398Y4668477D1*
X2500194Y4669902D1*
X2503179Y4670871D1*
X2506279Y4671362D1*
X2516383Y4671424D1*
X2513430Y4675153D1*
X2511041Y4678729D1*
X2508940Y4682481D1*
X2507139Y4686387D1*
X2505651Y4690422D1*
X2504483Y4694561D1*
X2503644Y4698779D1*
X2503139Y4703049D1*
X2502970Y4707346D1*
X2503139Y4711644D1*
X2503644Y4715914D1*
X2504483Y4720132D1*
X2505651Y4724271D1*
X2507139Y4728306D1*
X2508940Y4732212D1*
X2511041Y4735964D1*
X2513430Y4739540D1*
X2516093Y4742917D1*
X2519012Y4746075D1*
X2522170Y4748994D1*
X2525547Y4751656D1*
X2529123Y4754046D1*
X2532875Y4756147D1*
X2536781Y4757947D1*
X2540815Y4759436D1*
X2544954Y4760603D1*
X2549172Y4761442D1*
X2553443Y4761948D1*
X2557740Y4762117D1*
X2562037Y4761948D1*
X2566308Y4761442D1*
X2570526Y4760603D1*
X2574665Y4759436D1*
X2578700Y4757947D1*
X2582605Y4756147D1*
X2586357Y4754046D1*
X2589933Y4751656D1*
X2593310Y4748994D1*
X2596468Y4746075D1*
X2599388Y4742917D1*
X2602050Y4739540D1*
X2604439Y4735964D1*
X2606541Y4732212D1*
X2608341Y4728306D1*
X2609830Y4724271D1*
X2610997Y4720132D1*
X2611836Y4715914D1*
X2612341Y4711644D1*
X2612510Y4707346D1*
X2612341Y4703049D1*
X2519035Y4939001D2*
X2518268Y4929033D1*
X2516737Y4919153D1*
X2514453Y4909420D1*
X2511428Y4899892D1*
X2507680Y4890623D1*
X2503232Y4881669D1*
X2498110Y4873084D1*
X2492344Y4864917D1*
X2485968Y4857216D1*
X2479019Y4850028D1*
X2471539Y4843395D1*
X2463572Y4837355D1*
X2455165Y4831945D1*
X2446367Y4827196D1*
X2437231Y4823137D1*
X2427810Y4819791D1*
X2418160Y4817178D1*
X2408338Y4815314D1*
X2398401Y4814209D1*
X2388410Y4813870D1*
X2378421Y4814299D1*
X2368495Y4815494D1*
X2358691Y4817448D1*
X2349065Y4820148D1*
X2339674Y4823579D1*
X2330575Y4827721D1*
X2321821Y4832550D1*
X2313463Y4838036D1*
X2305551Y4844148D1*
X2298132Y4850849D1*
X2291249Y4858100D1*
X2284943Y4865857D1*
X2279251Y4874077D1*
X2274207Y4882708D1*
X2269840Y4891702D1*
X2266177Y4901004D1*
X2263239Y4910560D1*
X2261043Y4920313D1*
X2259602Y4930207D1*
X2258925Y4940181D1*
X2259016Y4950178D1*
X2259873Y4960139D1*
X2261493Y4970004D1*
X2263866Y4979716D1*
X2266977Y4989217D1*
X2270809Y4998452D1*
X2275338Y5007364D1*
X2280538Y5015903D1*
X2286378Y5024018D1*
X2292824Y5031660D1*
X2299837Y5038785D1*
X2307377Y5045350D1*
X2315398Y5051317D1*
X2323854Y5056651D1*
X2332695Y5061319D1*
X2341868Y5065296D1*
X2351319Y5068556D1*
X2360992Y5071081D1*
X2370831Y5072857D1*
X2380776Y5073871D1*
X2390771Y5074119D1*
X2400755Y5073599D1*
X2410670Y5072314D1*
X2420456Y5070272D1*
X2430057Y5067485D1*
X2439416Y5063968D1*
X2448477Y5059744D1*
X2457187Y5054836D1*
X2465495Y5049274D1*
X2473351Y5043091D1*
X2480709Y5036323D1*
X2487526Y5029010D1*
X2493762Y5021195D1*
X2499379Y5012925D1*
X2504345Y5004248D1*
X2508629Y4995215D1*
X2512208Y4985880D1*
X2515060Y4976298D1*
X2517167Y4966525D1*
X2518518Y4956619D1*
X2519104Y4946638D1*
X2519035Y4939001D1*
X2364329Y1039001D2*
X2363759Y1029018D1*
X2362621Y1019085D1*
X2360920Y1009232D1*
X2358659Y999492D1*
X2355847Y989897D1*
X2352493Y980478D1*
X2348608Y971265D1*
X2344204Y962288D1*
X2339296Y953577D1*
X2333899Y945160D1*
X2328032Y937064D1*
X2321712Y929315D1*
X2314962Y921940D1*
X2307802Y914960D1*
X2300256Y908400D1*
X2292349Y902281D1*
X2284105Y896622D1*
X2275553Y891443D1*
X2266719Y886759D1*
X2257633Y882586D1*
X2248324Y878937D1*
X2246015Y878144D1*
X2525651Y878150D1*
X2515071Y882183D1*
X2505961Y886303D1*
X2497100Y890934D1*
X2488517Y896064D1*
X2480240Y901674D1*
X2472297Y907746D1*
X2464712Y914261D1*
X2457511Y921198D1*
X2450717Y928534D1*
X2444353Y936245D1*
X2438437Y944306D1*
X2432991Y952691D1*
X2428032Y961373D1*
X2423575Y970324D1*
X2419635Y979514D1*
X2416226Y988913D1*
X2413357Y998491D1*
X2411039Y1008218D1*
X2409279Y1018060D1*
X2408083Y1027987D1*
X2407454Y1037966D1*
X2407395Y1047964D1*
X2407906Y1057950D1*
X2408985Y1067890D1*
X2410629Y1077753D1*
X2412832Y1087506D1*
X2415587Y1097117D1*
X2418885Y1106556D1*
X2422716Y1115792D1*
X2427067Y1124794D1*
X2431924Y1133534D1*
X2437271Y1141983D1*
X2443090Y1150114D1*
X2449364Y1157899D1*
X2456070Y1165315D1*
X2463189Y1172336D1*
X2470696Y1178940D1*
X2478567Y1185106D1*
X2486777Y1190814D1*
X2495299Y1196044D1*
X2504104Y1200780D1*
X2513166Y1205007D1*
X2522453Y1208710D1*
X2531937Y1211878D1*
X2541585Y1214501D1*
X2551368Y1216570D1*
X2561252Y1218077D1*
X2571206Y1219020D1*
X2581198Y1219393D1*
X2591194Y1219197D1*
X2601164Y1218431D1*
X2611073Y1217098D1*
X2620890Y1215203D1*
X2630584Y1212752D1*
X2640122Y1209752D1*
X2649474Y1206213D1*
X2658608Y1202148D1*
X2667497Y1197568D1*
X2676110Y1192490D1*
X2684419Y1186929D1*
X2692398Y1180904D1*
X2700021Y1174433D1*
X2707263Y1167539D1*
X2714100Y1160243D1*
X2720510Y1152570D1*
X2726473Y1144544D1*
X2731969Y1136191D1*
X2736979Y1127538D1*
X2741489Y1118615D1*
X2745483Y1109448D1*
X2748948Y1100069D1*
X2751872Y1090508D1*
X2754359Y1080240D1*
X2754663Y1234832D1*
X1204850Y1234849D1*
Y1237251D1*
X1201556Y1238038D1*
X1199351Y1239026D1*
X1186039Y1246355D1*
X1184134Y1247842D1*
X1172875Y1259894D1*
X1171509Y1261887D1*
X1164352Y1276893D1*
X1163629Y1279199D1*
X1161134Y1296075D1*
X1161160Y1298496D1*
X1163573Y1314795D1*
X1164257Y1317112D1*
X1171454Y1332267D1*
X1172807Y1334270D1*
X1183339Y1345623D1*
X1185131Y1347244D1*
X1187154Y1348565D1*
X1200680Y1355868D1*
X1202970Y1356640D1*
X1204866Y1357010D1*
X1204850Y1359400D1*
X1316237D1*
X1307747Y1363555D1*
X1299021Y1368438D1*
X1290588Y1373810D1*
X1282475Y1379653D1*
X1274708Y1385950D1*
X1267312Y1392678D1*
X1260312Y1399818D1*
X1253729Y1407344D1*
X1247587Y1415234D1*
X1241904Y1423460D1*
X1236699Y1431997D1*
X1231989Y1440817D1*
X1227789Y1449891D1*
X1224113Y1459189D1*
X1220973Y1468682D1*
X1218378Y1478338D1*
X1216339Y1488126D1*
X1214860Y1498015D1*
X1213947Y1507972D1*
X1213603Y1517965D1*
X1213829Y1527961D1*
X1214624Y1537928D1*
X1215986Y1547833D1*
X1217910Y1557645D1*
X1220390Y1567331D1*
X1223418Y1576860D1*
X1226984Y1586201D1*
X1231077Y1595324D1*
X1235682Y1604199D1*
X1240786Y1612797D1*
X1246372Y1621090D1*
X1252421Y1629051D1*
X1258914Y1636655D1*
X1265829Y1643876D1*
X1273145Y1650692D1*
X1280837Y1657079D1*
X1288881Y1663018D1*
X1297250Y1668489D1*
X1305917Y1673475D1*
X1314854Y1677958D1*
X1324032Y1681924D1*
X1333422Y1685362D1*
X1342992Y1688258D1*
X1352711Y1690605D1*
X1362548Y1692394D1*
X1372472Y1693619D1*
X1382448Y1694278D1*
X1392447Y1694366D1*
X1402434Y1693885D1*
X1412377Y1692835D1*
X1422245Y1691221D1*
X1432004Y1689047D1*
X1441624Y1686320D1*
X1451072Y1683049D1*
X1460319Y1679246D1*
X1469335Y1674922D1*
X1478089Y1670091D1*
X1486553Y1664769D1*
X1493740Y1659677D1*
X1500376Y1666298D1*
X1500374Y2666770D1*
X1378253Y2789000D1*
X1375910Y2792225D1*
X1374100Y2795776D1*
X1372869Y2799567D1*
X1372245Y2803503D1*
X1372167Y2820496D1*
X1372245Y2956333D1*
X1372746Y2959650D1*
X1200332Y2959668D1*
X1197946Y2960046D1*
X1188348Y2962436D1*
X1183209Y2963667D1*
X1180977Y2964594D1*
X1178918Y2965858D1*
X1165579Y2975654D1*
X1163900Y2977392D1*
X1153209Y2992597D1*
X1152051Y2994718D1*
X1145391Y3013250D1*
X1144765Y3015544D1*
X1142367Y3037032D1*
X1142444Y3039447D1*
X1144755Y3059904D1*
X1145386Y3062237D1*
X1152263Y3081236D1*
X1153489Y3083318D1*
X1163900Y3098108D1*
X1165579Y3099846D1*
X1179093Y3109767D1*
X1181170Y3111003D1*
X1183414Y3111898D1*
X1198892Y3115428D1*
X1201299Y3115649D1*
X1206541Y3115408D1*
X2757617D1*
X2758391Y3120005D1*
X2762525Y5209864D1*
X414997Y5209849D1*
X415000Y659410D1*
X2753511Y659400D1*
X2754212Y1007020D1*
X2752410Y999492D1*
X2749598Y989897D1*
X2746244Y980478D1*
X2742359Y971265D1*
X2737955Y962288D1*
X2733047Y953577D1*
X2727650Y945160D1*
X2721782Y937064D1*
X2715463Y929315D1*
X2708713Y921940D1*
X2701553Y914960D1*
X2694007Y908400D1*
X2686099Y902281D1*
X2677856Y896622D1*
X2669304Y891443D1*
X2660470Y886759D1*
X2651384Y882586D1*
X2642075Y878937D1*
X2632573Y875825D1*
X2622909Y873259D1*
X2616894Y871968D1*
X2616901Y753599D1*
X2129850D1*
Y878150D1*
X2131901D1*
X2121321Y882183D1*
X2112210Y886303D1*
X2103349Y890934D1*
X2094766Y896064D1*
X2086490Y901674D1*
X2078546Y907746D1*
X2070962Y914261D1*
X2063761Y921198D1*
X2056967Y928534D1*
X2050602Y936245D1*
X2044687Y944306D1*
X2039240Y952691D1*
X2034281Y961373D1*
X2029824Y970324D1*
X2025885Y979514D1*
X2022475Y988913D1*
X2019607Y998491D1*
X2017289Y1008218D1*
X2015529Y1018060D1*
X2014332Y1027987D1*
X2013704Y1037966D1*
X2013645Y1047964D1*
X2014156Y1057950D1*
X2015235Y1067890D1*
X2016878Y1077753D1*
X2019081Y1087506D1*
X2021836Y1097117D1*
X2025135Y1106556D1*
X2028965Y1115792D1*
X2033316Y1124794D1*
X2038173Y1133534D1*
X2043520Y1141983D1*
X2049339Y1150114D1*
X2055613Y1157899D1*
X2062320Y1165315D1*
X2069438Y1172336D1*
X2076945Y1178940D1*
X2084817Y1185106D1*
X2093026Y1190814D1*
X2101548Y1196044D1*
X2110354Y1200780D1*
X2119415Y1205007D1*
X2128703Y1208710D1*
X2138186Y1211878D1*
X2147835Y1214501D1*
X2157617Y1216570D1*
X2167501Y1218077D1*
X2177455Y1219020D1*
X2187447Y1219393D1*
X2197444Y1219197D1*
X2207413Y1218431D1*
X2217322Y1217098D1*
X2227140Y1215203D1*
X2236833Y1212752D1*
X2246371Y1209752D1*
X2255723Y1206213D1*
X2264858Y1202148D1*
X2273746Y1197568D1*
X2282359Y1192490D1*
X2290668Y1186929D1*
X2298648Y1180904D1*
X2306270Y1174433D1*
X2313512Y1167539D1*
X2320349Y1160243D1*
X2326760Y1152570D1*
X2332722Y1144544D1*
X2338218Y1136191D1*
X2343229Y1127538D1*
X2347738Y1118615D1*
X2351732Y1109448D1*
X2355197Y1100069D1*
X2358122Y1090508D1*
X2360497Y1080795D1*
X2362315Y1070963D1*
X2363570Y1061044D1*
X2364258Y1051069D1*
X2364400Y1044000D1*
X2364329Y1039001D1*
X1164329D2*
X1163759Y1029018D1*
X1162621Y1019085D1*
X1160920Y1009232D1*
X1158659Y999492D1*
X1155847Y989897D1*
X1152493Y980478D1*
X1148608Y971265D1*
X1144204Y962288D1*
X1139296Y953577D1*
X1133899Y945160D1*
X1128032Y937064D1*
X1121712Y929315D1*
X1114962Y921940D1*
X1107802Y914960D1*
X1100256Y908400D1*
X1092349Y902281D1*
X1084105Y896622D1*
X1075553Y891443D1*
X1066719Y886759D1*
X1057633Y882586D1*
X1048324Y878937D1*
X1038822Y875825D1*
X1029158Y873259D1*
X1019364Y871248D1*
X1009471Y869799D1*
X1000310Y868975D1*
X1004460Y866643D1*
X1006365Y865156D1*
X1017625Y853105D1*
X1018991Y851112D1*
X1026148Y836106D1*
X1026871Y833800D1*
X1029341Y817241D1*
X1029366Y814825D1*
X1026927Y798205D1*
X1026244Y795887D1*
X1019046Y780733D1*
X1017693Y778730D1*
X1007161Y767376D1*
X1005369Y765755D1*
X1003345Y764435D1*
X989820Y757132D1*
X987530Y756359D1*
X985634Y755990D1*
X985650Y753599D1*
X592350D1*
Y756002D1*
X589057Y756789D1*
X586851Y757777D1*
X573540Y765106D1*
X571635Y766593D1*
X560376Y778644D1*
X559009Y780637D1*
X551853Y795643D1*
X551130Y797949D1*
X548660Y814508D1*
X548635Y816925D1*
X551073Y833544D1*
X551757Y835862D1*
X559009Y851112D1*
X560379Y853109D1*
X571703Y865218D1*
X573617Y866694D1*
X578443Y869383D1*
X570597Y870306D1*
X560739Y871979D1*
X550993Y874210D1*
X541390Y876994D1*
X531960Y880320D1*
X522736Y884178D1*
X513747Y888555D1*
X505021Y893438D1*
X496588Y898810D1*
X488475Y904653D1*
X480708Y910950D1*
X473312Y917678D1*
X466312Y924818D1*
X459729Y932344D1*
X453587Y940234D1*
X447904Y948460D1*
X442699Y956997D1*
X437989Y965817D1*
X433789Y974891D1*
X430113Y984189D1*
X426973Y993682D1*
X424378Y1003338D1*
X422339Y1013126D1*
X420860Y1023015D1*
X419947Y1032972D1*
X419603Y1042965D1*
X419829Y1052961D1*
X420624Y1062928D1*
X421986Y1072833D1*
X423910Y1082645D1*
X426390Y1092331D1*
X429418Y1101860D1*
X432984Y1111201D1*
X437077Y1120324D1*
X441682Y1129199D1*
X446786Y1137797D1*
X452372Y1146090D1*
X458421Y1154051D1*
X464914Y1161655D1*
X471829Y1168876D1*
X479145Y1175692D1*
X486837Y1182079D1*
X494881Y1188018D1*
X503250Y1193489D1*
X511917Y1198475D1*
X520854Y1202958D1*
X530032Y1206924D1*
X539422Y1210362D1*
X548992Y1213258D1*
X558711Y1215605D1*
X568548Y1217394D1*
X578472Y1218619D1*
X588448Y1219278D1*
X598447Y1219366D1*
X608434Y1218885D1*
X618377Y1217835D1*
X628245Y1216221D1*
X638004Y1214047D1*
X647624Y1211320D1*
X657072Y1208049D1*
X666319Y1204246D1*
X675335Y1199922D1*
X684089Y1195091D1*
X692553Y1189769D1*
X700701Y1183973D1*
X708505Y1177723D1*
X715940Y1171038D1*
X722983Y1163940D1*
X729609Y1156452D1*
X735798Y1148599D1*
X741530Y1140407D1*
X746785Y1131900D1*
X751547Y1123109D1*
X755800Y1114060D1*
X759531Y1104783D1*
X762728Y1095309D1*
X765379Y1085668D1*
X767476Y1075892D1*
X769013Y1066013D1*
X769985Y1056061D1*
X770388Y1046071D1*
X770329Y1039001D1*
X769759Y1029018D1*
X768621Y1019085D1*
X766920Y1009232D1*
X764659Y999492D1*
X761847Y989897D1*
X758493Y980478D1*
X754608Y971265D1*
X750204Y962288D1*
X745296Y953577D1*
X739899Y945160D1*
X734032Y937064D1*
X727712Y929315D1*
X720962Y921940D1*
X713802Y914960D1*
X706256Y908400D1*
X698349Y902281D1*
X690105Y896622D1*
X681553Y891443D1*
X672719Y886759D1*
X663633Y882586D1*
X654324Y878937D1*
X652350Y878150D1*
X931901D1*
X921321Y882183D1*
X912210Y886303D1*
X903349Y890934D1*
X894766Y896064D1*
X886490Y901674D1*
X878546Y907746D1*
X870962Y914261D1*
X863761Y921198D1*
X856967Y928534D1*
X850602Y936245D1*
X844687Y944306D1*
X839240Y952691D1*
X834281Y961373D1*
X829824Y970324D1*
X825885Y979514D1*
X822475Y988913D1*
X819607Y998491D1*
X817289Y1008218D1*
X815529Y1018060D1*
X814332Y1027987D1*
X813704Y1037966D1*
X813645Y1047964D1*
X814156Y1057950D1*
X815235Y1067890D1*
X816878Y1077753D1*
X819081Y1087506D1*
X821836Y1097117D1*
X825135Y1106556D1*
X828965Y1115792D1*
X833316Y1124794D1*
X838173Y1133534D1*
X843520Y1141983D1*
X849339Y1150114D1*
X855613Y1157899D1*
X862320Y1165315D1*
X869438Y1172336D1*
X876945Y1178940D1*
X884817Y1185106D1*
X893026Y1190814D1*
X901548Y1196044D1*
X910354Y1200780D1*
X919415Y1205007D1*
X928703Y1208710D1*
X938186Y1211878D1*
X947835Y1214501D1*
X957617Y1216570D1*
X967501Y1218077D1*
X977455Y1219020D1*
X987447Y1219393D1*
X997444Y1219197D1*
X1007413Y1218431D1*
X1017322Y1217098D1*
X1027140Y1215203D1*
X1036833Y1212752D1*
X1046371Y1209752D1*
X1055723Y1206213D1*
X1064858Y1202148D1*
X1073746Y1197568D1*
X1082359Y1192490D1*
X1090668Y1186929D1*
X1098648Y1180904D1*
X1106270Y1174433D1*
X1113512Y1167539D1*
X1120349Y1160243D1*
X1126760Y1152570D1*
X1132722Y1144544D1*
X1138218Y1136191D1*
X1143229Y1127538D1*
X1147738Y1118615D1*
X1151732Y1109448D1*
X1155197Y1100069D1*
X1158122Y1090508D1*
X1160497Y1080795D1*
X1162315Y1070963D1*
X1163570Y1061044D1*
X1164258Y1051069D1*
X1164400Y1044000D1*
X1164329Y1039001D1*
X770329Y1514818D2*
X769759Y1504836D1*
X768621Y1494902D1*
X766920Y1485049D1*
X764659Y1475310D1*
X761847Y1465714D1*
X758493Y1456295D1*
X754608Y1447082D1*
X750204Y1438106D1*
X745296Y1429395D1*
X739899Y1420977D1*
X734032Y1412881D1*
X727712Y1405133D1*
X720962Y1397757D1*
X713802Y1390778D1*
X706256Y1384218D1*
X698349Y1378099D1*
X690105Y1372440D1*
X681553Y1367260D1*
X672719Y1362576D1*
X665902Y1359406D1*
X916237Y1359400D1*
X907747Y1363555D1*
X899021Y1368438D1*
X890588Y1373810D1*
X882475Y1379653D1*
X874708Y1385950D1*
X867312Y1392678D1*
X860312Y1399818D1*
X853729Y1407344D1*
X847587Y1415234D1*
X841904Y1423460D1*
X836699Y1431997D1*
X831989Y1440817D1*
X827789Y1449891D1*
X824113Y1459189D1*
X820973Y1468682D1*
X818378Y1478338D1*
X816339Y1488126D1*
X814860Y1498015D1*
X813947Y1507972D1*
X813603Y1517965D1*
X813829Y1527961D1*
X814624Y1537928D1*
X815986Y1547833D1*
X817910Y1557645D1*
X820390Y1567331D1*
X823418Y1576860D1*
X826984Y1586201D1*
X831077Y1595324D1*
X835682Y1604199D1*
X840786Y1612797D1*
X846372Y1621090D1*
X852421Y1629051D1*
X858914Y1636655D1*
X865829Y1643876D1*
X873145Y1650692D1*
X880837Y1657079D1*
X888881Y1663018D1*
X897250Y1668489D1*
X905917Y1673475D1*
X914854Y1677958D1*
X924032Y1681924D1*
X933422Y1685362D1*
X942992Y1688258D1*
X952711Y1690605D1*
X962548Y1692394D1*
X972472Y1693619D1*
X982448Y1694278D1*
X992447Y1694366D1*
X1002434Y1693885D1*
X1012377Y1692835D1*
X1022245Y1691221D1*
X1032004Y1689047D1*
X1041624Y1686320D1*
X1051072Y1683049D1*
X1060319Y1679246D1*
X1069335Y1674922D1*
X1078089Y1670091D1*
X1086553Y1664769D1*
X1094701Y1658973D1*
X1102505Y1652723D1*
X1109940Y1646038D1*
X1116983Y1638940D1*
X1123609Y1631452D1*
X1129798Y1623599D1*
X1135530Y1615407D1*
X1140785Y1606900D1*
X1145547Y1598109D1*
X1149800Y1589060D1*
X1153531Y1579783D1*
X1156728Y1570309D1*
X1159379Y1560668D1*
X1161476Y1550892D1*
X1163013Y1541013D1*
X1163985Y1531061D1*
X1164388Y1521071D1*
X1164329Y1514001D1*
X1163759Y1504018D1*
X1162621Y1494085D1*
X1160920Y1484232D1*
X1158659Y1474492D1*
X1155847Y1464897D1*
X1152493Y1455478D1*
X1148608Y1446265D1*
X1144204Y1437288D1*
X1139296Y1428577D1*
X1133899Y1420160D1*
X1128032Y1412064D1*
X1121712Y1404315D1*
X1114962Y1396940D1*
X1107802Y1389960D1*
X1100256Y1383400D1*
X1092349Y1377281D1*
X1084105Y1371622D1*
X1075553Y1366443D1*
X1066719Y1361759D1*
X1061724Y1359394D1*
X1085651Y1359400D1*
Y1356998D1*
X1088944Y1356211D1*
X1091149Y1355223D1*
X1104461Y1347894D1*
X1106365Y1346407D1*
X1117625Y1334355D1*
X1118991Y1332362D1*
X1126148Y1317356D1*
X1126871Y1315051D1*
X1129341Y1298491D1*
X1129366Y1296075D1*
X1126927Y1279455D1*
X1126244Y1277137D1*
X1119046Y1261982D1*
X1117694Y1259980D1*
X1107161Y1248626D1*
X1105369Y1247005D1*
X1103346Y1245684D1*
X1089820Y1238381D1*
X1087530Y1237609D1*
X1085634Y1237239D1*
X1085651Y1234850D1*
X479850D1*
Y1237252D1*
X476556Y1238038D1*
X474351Y1239026D1*
X461039Y1246355D1*
X459134Y1247842D1*
X447875Y1259894D1*
X446509Y1261887D1*
X439352Y1276893D1*
X438629Y1279199D1*
X436134Y1296075D1*
X436160Y1298496D1*
X438573Y1314795D1*
X439257Y1317112D1*
X446454Y1332267D1*
X447807Y1334270D1*
X458339Y1345623D1*
X460131Y1347244D1*
X462154Y1348565D1*
X475680Y1355868D1*
X477970Y1356640D1*
X479866Y1357010D1*
X479850Y1359400D1*
X524049D1*
X513747Y1364373D1*
X505021Y1369255D1*
X496588Y1374627D1*
X488475Y1380471D1*
X480708Y1386767D1*
X473312Y1393496D1*
X466312Y1400635D1*
X459729Y1408162D1*
X453587Y1416051D1*
X447904Y1424278D1*
X442699Y1432815D1*
X437989Y1441634D1*
X433789Y1450708D1*
X430113Y1460007D1*
X426973Y1469499D1*
X424378Y1479156D1*
X422339Y1488944D1*
X420860Y1498833D1*
X419947Y1508790D1*
X419603Y1518782D1*
X419829Y1528778D1*
X420624Y1538745D1*
X421986Y1548651D1*
X423910Y1558463D1*
X426390Y1568149D1*
X429418Y1577678D1*
X432984Y1587019D1*
X437077Y1596142D1*
X441682Y1605016D1*
X446786Y1613614D1*
X452372Y1621907D1*
X458421Y1629869D1*
X464914Y1637472D1*
X471829Y1644694D1*
X479145Y1651509D1*
X486837Y1657897D1*
X494881Y1663836D1*
X503250Y1669307D1*
X511917Y1674292D1*
X520854Y1678775D1*
X530032Y1682742D1*
X539422Y1686179D1*
X548992Y1689076D1*
X558711Y1691423D1*
X568548Y1693212D1*
X578472Y1694437D1*
X588448Y1695095D1*
X598447Y1695184D1*
X608434Y1694702D1*
X618377Y1693653D1*
X628245Y1692038D1*
X638004Y1689864D1*
X647624Y1687137D1*
X657072Y1683867D1*
X666319Y1680063D1*
X675335Y1675739D1*
X684089Y1670908D1*
X692553Y1665586D1*
X700701Y1659791D1*
X708505Y1653540D1*
X715940Y1646855D1*
X722983Y1639757D1*
X729609Y1632270D1*
X735798Y1624417D1*
X741530Y1616224D1*
X746785Y1607718D1*
X751547Y1598926D1*
X755800Y1589877D1*
X759531Y1580601D1*
X762728Y1571127D1*
X765379Y1561486D1*
X767476Y1551710D1*
X769013Y1541830D1*
X769985Y1531879D1*
X770388Y1521888D1*
X770329Y1514818D1*
X1964329Y1039001D2*
X1963759Y1029018D1*
X1962621Y1019085D1*
X1960920Y1009232D1*
X1958659Y999492D1*
X1955847Y989897D1*
X1952493Y980478D1*
X1948608Y971265D1*
X1944204Y962288D1*
X1939296Y953577D1*
X1933899Y945160D1*
X1928032Y937064D1*
X1921712Y929315D1*
X1914962Y921940D1*
X1907802Y914960D1*
X1900256Y908400D1*
X1892349Y902281D1*
X1884105Y896622D1*
X1875553Y891443D1*
X1866719Y886759D1*
X1857633Y882586D1*
X1848324Y878937D1*
X1838822Y875825D1*
X1829158Y873259D1*
X1819364Y871248D1*
X1809471Y869799D1*
X1799511Y868915D1*
X1789518Y868601D1*
X1779522Y868856D1*
X1774943Y869170D1*
X1779461Y866644D1*
X1781365Y865157D1*
X1792625Y853105D1*
X1793991Y851112D1*
X1801148Y836106D1*
X1801871Y833801D1*
X1804341Y817241D1*
X1804366Y814825D1*
X1801927Y798205D1*
X1801244Y795887D1*
X1794046Y780732D1*
X1792694Y778730D1*
X1782161Y767376D1*
X1780369Y765755D1*
X1778346Y764434D1*
X1764820Y757131D1*
X1762530Y756359D1*
X1760634Y755989D1*
X1760650Y753600D1*
X1467350D1*
Y756002D1*
X1464056Y756788D1*
X1461851Y757776D1*
X1448539Y765105D1*
X1446634Y766592D1*
X1435375Y778644D1*
X1434009Y780637D1*
X1426852Y795643D1*
X1426129Y797949D1*
X1423634Y814825D1*
X1423660Y817246D1*
X1426073Y833545D1*
X1426757Y835862D1*
X1433954Y851017D1*
X1435307Y853020D1*
X1436989Y854892D1*
X1428768Y853015D1*
X1418922Y851271D1*
X1408996Y850069D1*
X1399019Y849412D1*
X1389020Y849301D1*
X1379031Y849738D1*
X1369081Y850720D1*
X1359199Y852245D1*
X1349416Y854309D1*
X1339760Y856904D1*
X1330260Y860024D1*
X1320945Y863659D1*
X1311843Y867797D1*
X1302981Y872428D1*
X1294386Y877536D1*
X1286083Y883107D1*
X1278097Y889123D1*
X1270452Y895568D1*
X1263171Y902421D1*
X1256276Y909662D1*
X1249787Y917269D1*
X1243724Y925220D1*
X1238105Y933491D1*
X1232947Y942056D1*
X1228266Y950891D1*
X1224074Y959969D1*
X1220385Y969262D1*
X1217210Y978744D1*
X1214559Y988384D1*
X1212439Y998156D1*
X1210856Y1008029D1*
X1209816Y1017973D1*
X1209322Y1027960D1*
X1209374Y1037958D1*
X1209974Y1047939D1*
X1211118Y1057872D1*
X1212804Y1067728D1*
X1215027Y1077476D1*
X1217779Y1087089D1*
X1221053Y1096536D1*
X1224840Y1105790D1*
X1229126Y1114824D1*
X1233900Y1123609D1*
X1239148Y1132120D1*
X1244854Y1140331D1*
X1251000Y1148218D1*
X1257568Y1155756D1*
X1264539Y1162925D1*
X1271891Y1169701D1*
X1279603Y1176065D1*
X1287652Y1181997D1*
X1296013Y1187480D1*
X1304662Y1192498D1*
X1313572Y1197035D1*
X1322717Y1201078D1*
X1332069Y1204615D1*
X1341601Y1207635D1*
X1351284Y1210129D1*
X1361088Y1212089D1*
X1370986Y1213510D1*
X1380946Y1214388D1*
X1390939Y1214720D1*
X1400935Y1214504D1*
X1410905Y1213742D1*
X1420818Y1212436D1*
X1430645Y1210589D1*
X1440356Y1208208D1*
X1449922Y1205299D1*
X1459315Y1201871D1*
X1468506Y1197935D1*
X1477468Y1193502D1*
X1486175Y1188585D1*
X1494599Y1183199D1*
X1502716Y1177360D1*
X1510501Y1171086D1*
X1517932Y1164396D1*
X1524986Y1157309D1*
X1531641Y1149847D1*
X1537878Y1142033D1*
X1543679Y1133888D1*
X1549025Y1125439D1*
X1553901Y1116710D1*
X1558292Y1107727D1*
X1562186Y1098517D1*
X1565569Y1089108D1*
X1568433Y1079528D1*
X1570769Y1069806D1*
X1572569Y1059971D1*
X1573829Y1050052D1*
X1574544Y1040079D1*
X1574723Y1032000D1*
X1574449Y1022005D1*
X1573629Y1012040D1*
X1572266Y1002135D1*
X1570362Y992319D1*
X1567924Y982622D1*
X1564960Y973072D1*
X1561478Y963700D1*
X1557488Y954531D1*
X1553003Y945595D1*
X1548035Y936918D1*
X1542601Y928525D1*
X1536715Y920442D1*
X1530396Y912693D1*
X1523663Y905301D1*
X1516535Y898289D1*
X1509035Y891677D1*
X1501184Y885485D1*
X1493006Y879732D1*
X1490559Y878157D1*
X1731901Y878150D1*
X1721321Y882183D1*
X1712210Y886303D1*
X1703349Y890934D1*
X1694766Y896064D1*
X1686490Y901674D1*
X1678546Y907746D1*
X1670962Y914261D1*
X1663761Y921198D1*
X1656967Y928534D1*
X1650602Y936245D1*
X1644687Y944306D1*
X1639240Y952691D1*
X1634281Y961373D1*
X1629824Y970324D1*
X1625885Y979514D1*
X1622475Y988913D1*
X1619607Y998491D1*
X1617289Y1008218D1*
X1615529Y1018060D1*
X1614332Y1027987D1*
X1613704Y1037966D1*
X1613645Y1047964D1*
X1614156Y1057950D1*
X1615235Y1067890D1*
X1616878Y1077753D1*
X1619081Y1087506D1*
X1621836Y1097117D1*
X1625135Y1106556D1*
X1628965Y1115792D1*
X1633316Y1124794D1*
X1638173Y1133534D1*
X1643520Y1141983D1*
X1649339Y1150114D1*
X1655613Y1157899D1*
X1662320Y1165315D1*
X1669438Y1172336D1*
X1676945Y1178940D1*
X1684817Y1185106D1*
X1693026Y1190814D1*
X1701548Y1196044D1*
X1710354Y1200780D1*
X1719415Y1205007D1*
X1728703Y1208710D1*
X1738186Y1211878D1*
X1747835Y1214501D1*
X1757617Y1216570D1*
X1767501Y1218077D1*
X1777455Y1219020D1*
X1787447Y1219393D1*
X1797444Y1219197D1*
X1807413Y1218431D1*
X1817322Y1217098D1*
X1827140Y1215203D1*
X1836833Y1212752D1*
X1846371Y1209752D1*
X1855723Y1206213D1*
X1864858Y1202148D1*
X1873746Y1197568D1*
X1882359Y1192490D1*
X1890668Y1186929D1*
X1898648Y1180904D1*
X1906270Y1174433D1*
X1913512Y1167539D1*
X1920349Y1160243D1*
X1926760Y1152570D1*
X1932722Y1144544D1*
X1938218Y1136191D1*
X1943229Y1127538D1*
X1947738Y1118615D1*
X1951732Y1109448D1*
X1955197Y1100069D1*
X1958122Y1090508D1*
X1960497Y1080795D1*
X1962315Y1070963D1*
X1963570Y1061044D1*
X1964258Y1051069D1*
X1964400Y1044000D1*
X1964329Y1039001D1*
X1564329Y1514001D2*
X1563759Y1504018D1*
X1562621Y1494085D1*
X1560920Y1484232D1*
X1558659Y1474492D1*
X1555847Y1464897D1*
X1552493Y1455478D1*
X1548608Y1446265D1*
X1544204Y1437288D1*
X1539296Y1428577D1*
X1533899Y1420160D1*
X1528032Y1412064D1*
X1521712Y1404315D1*
X1514962Y1396940D1*
X1507802Y1389960D1*
X1500256Y1383400D1*
X1492349Y1377281D1*
X1484105Y1371622D1*
X1475553Y1366443D1*
X1466719Y1361759D1*
X1461724Y1359394D1*
X1716237Y1359400D1*
X1707747Y1363555D1*
X1699021Y1368438D1*
X1690588Y1373810D1*
X1682475Y1379653D1*
X1674708Y1385950D1*
X1667312Y1392678D1*
X1660312Y1399818D1*
X1653729Y1407344D1*
X1647587Y1415234D1*
X1641904Y1423460D1*
X1636699Y1431997D1*
X1631989Y1440817D1*
X1627789Y1449891D1*
X1624113Y1459189D1*
X1620973Y1468682D1*
X1618378Y1478338D1*
X1616339Y1488126D1*
X1614860Y1498015D1*
X1613947Y1507972D1*
X1613603Y1517965D1*
X1613829Y1527961D1*
X1614624Y1537928D1*
X1615986Y1547833D1*
X1617910Y1557645D1*
X1620390Y1567331D1*
X1623418Y1576860D1*
X1626984Y1586201D1*
X1631077Y1595324D1*
X1635682Y1604199D1*
X1640786Y1612797D1*
X1646383Y1621106D1*
X1626342Y1641231D1*
X1623999Y1644456D1*
X1622190Y1648007D1*
X1620958Y1651798D1*
X1620334Y1655734D1*
X1620256Y1672727D1*
X1620334Y2675863D1*
X1620958Y2679800D1*
X1622190Y2683590D1*
X1623999Y2687142D1*
X1626342Y2690366D1*
X1638302Y2702437D1*
X1754906Y2819041D1*
X1754972Y2957211D1*
X1755308Y2959703D1*
X1422421Y2959653D1*
X1422889Y2956333D1*
X1422967Y2939340D1*
Y2816000D1*
X1545089Y2693785D1*
X1547431Y2690560D1*
X1549241Y2687009D1*
X1550472Y2683218D1*
X1551096Y2679282D1*
X1551174Y2662289D1*
X1551096Y1653781D1*
X1550472Y1649845D1*
X1549241Y1646054D1*
X1547431Y1642503D1*
X1545089Y1639278D1*
X1533128Y1627207D1*
X1529689Y1623768D1*
X1535530Y1615407D1*
X1540785Y1606900D1*
X1545547Y1598109D1*
X1549800Y1589060D1*
X1553531Y1579783D1*
X1556728Y1570309D1*
X1559379Y1560668D1*
X1561476Y1550892D1*
X1563013Y1541013D1*
X1563985Y1531061D1*
X1564388Y1521071D1*
X1564329Y1514001D1*
X1964329D2*
X1963759Y1504018D1*
X1962621Y1494085D1*
X1960920Y1484232D1*
X1958659Y1474492D1*
X1955847Y1464897D1*
X1952493Y1455478D1*
X1948608Y1446265D1*
X1944204Y1437288D1*
X1939296Y1428577D1*
X1933899Y1420160D1*
X1928032Y1412064D1*
X1921712Y1404315D1*
X1914962Y1396940D1*
X1907802Y1389960D1*
X1900256Y1383400D1*
X1892349Y1377281D1*
X1884105Y1371622D1*
X1875553Y1366443D1*
X1866719Y1361759D1*
X1861724Y1359394D1*
X2116237Y1359400D1*
X2107747Y1363555D1*
X2099021Y1368438D1*
X2090588Y1373810D1*
X2082475Y1379653D1*
X2074708Y1385950D1*
X2067312Y1392678D1*
X2060312Y1399818D1*
X2053729Y1407344D1*
X2047587Y1415234D1*
X2041904Y1423460D1*
X2036699Y1431997D1*
X2031989Y1440817D1*
X2027789Y1449891D1*
X2024113Y1459189D1*
X2020973Y1468682D1*
X2018378Y1478338D1*
X2016339Y1488126D1*
X2014860Y1498015D1*
X2013947Y1507972D1*
X2013603Y1517965D1*
X2013829Y1527961D1*
X2014624Y1537928D1*
X2015986Y1547833D1*
X2017910Y1557645D1*
X2020390Y1567331D1*
X2023418Y1576860D1*
X2026984Y1586201D1*
X2031077Y1595324D1*
X2035682Y1604199D1*
X2040786Y1612797D1*
X2046372Y1621090D1*
X2052421Y1629051D1*
X2058914Y1636655D1*
X2065829Y1643876D1*
X2073145Y1650692D1*
X2080837Y1657079D1*
X2088881Y1663018D1*
X2097250Y1668489D1*
X2105917Y1673475D1*
X2114854Y1677958D1*
X2121958Y1681063D1*
X2118922Y1684197D1*
X2116579Y1687421D1*
X2114770Y1690973D1*
X2113538Y1694763D1*
X2112914Y1698700D1*
X2112836Y1715693D1*
X2112914Y2727163D1*
X2113538Y2731100D1*
X2114770Y2734891D1*
X2116579Y2738442D1*
X2118922Y2741667D1*
X2130882Y2753738D1*
X2153794Y2776650D1*
X2153882Y2957417D1*
X2154187Y2959756D1*
X1805312Y2959710D1*
X1805694Y2955218D1*
X1805616Y2806515D1*
X1804992Y2802578D1*
X1803761Y2798788D1*
X1801951Y2795236D1*
X1799608Y2792012D1*
X1787648Y2779941D1*
X1671044Y2663337D1*
X1671056Y1668265D1*
X1681612Y1657692D1*
X1688881Y1663018D1*
X1697250Y1668489D1*
X1705917Y1673475D1*
X1714854Y1677958D1*
X1724032Y1681924D1*
X1733422Y1685362D1*
X1742992Y1688258D1*
X1752711Y1690605D1*
X1762548Y1692394D1*
X1772472Y1693619D1*
X1782448Y1694278D1*
X1792447Y1694366D1*
X1802434Y1693885D1*
X1812377Y1692835D1*
X1822245Y1691221D1*
X1832004Y1689047D1*
X1841624Y1686320D1*
X1851072Y1683049D1*
X1860319Y1679246D1*
X1869335Y1674922D1*
X1878089Y1670091D1*
X1886553Y1664769D1*
X1894701Y1658973D1*
X1902505Y1652723D1*
X1909940Y1646038D1*
X1916983Y1638940D1*
X1923609Y1631452D1*
X1929798Y1623599D1*
X1935530Y1615407D1*
X1940785Y1606900D1*
X1945547Y1598109D1*
X1949800Y1589060D1*
X1953531Y1579783D1*
X1956728Y1570309D1*
X1959379Y1560668D1*
X1961476Y1550892D1*
X1963013Y1541013D1*
X1963985Y1531061D1*
X1964388Y1521071D1*
X1964329Y1514001D1*
X2364329D2*
X2363759Y1504018D1*
X2362621Y1494085D1*
X2360920Y1484232D1*
X2358659Y1474492D1*
X2355847Y1464897D1*
X2352493Y1455478D1*
X2348608Y1446265D1*
X2344204Y1437288D1*
X2339296Y1428577D1*
X2333899Y1420160D1*
X2328032Y1412064D1*
X2321712Y1404315D1*
X2314962Y1396940D1*
X2307802Y1389960D1*
X2300256Y1383400D1*
X2292349Y1377281D1*
X2284105Y1371622D1*
X2275553Y1366443D1*
X2266719Y1361759D1*
X2261724Y1359394D1*
X2510260Y1359400D1*
X2501747Y1363555D1*
X2493021Y1368438D1*
X2484588Y1373810D1*
X2476475Y1379653D1*
X2468708Y1385950D1*
X2461312Y1392678D1*
X2454312Y1399818D1*
X2447729Y1407344D1*
X2441587Y1415234D1*
X2435904Y1423460D1*
X2430699Y1431997D1*
X2425989Y1440817D1*
X2421789Y1449891D1*
X2418113Y1459189D1*
X2414973Y1468682D1*
X2412378Y1478338D1*
X2410339Y1488126D1*
X2408860Y1498015D1*
X2407947Y1507972D1*
X2407603Y1517965D1*
X2407829Y1527961D1*
X2408624Y1537928D1*
X2409986Y1547833D1*
X2411910Y1557645D1*
X2414390Y1567331D1*
X2417418Y1576860D1*
X2420984Y1586201D1*
X2425077Y1595324D1*
X2429682Y1604199D1*
X2434786Y1612797D1*
X2440372Y1621090D1*
X2446421Y1629051D1*
X2452914Y1636655D1*
X2459829Y1643876D1*
X2467145Y1650692D1*
X2474837Y1657079D1*
X2482881Y1663018D1*
X2491250Y1668489D1*
X2499917Y1673475D1*
X2508854Y1677958D1*
X2518032Y1681924D1*
X2527422Y1685362D1*
X2536992Y1688258D1*
X2546711Y1690605D1*
X2556548Y1692394D1*
X2566472Y1693619D1*
X2576448Y1694278D1*
X2586447Y1694366D1*
X2596434Y1693885D1*
X2606377Y1692835D1*
X2609990Y1692297D1*
X2621843Y1704143D1*
X2621833Y2706914D1*
X2542599Y2786255D1*
X2540256Y2789479D1*
X2538447Y2793030D1*
X2537215Y2796821D1*
X2536592Y2800758D1*
X2536513Y2817751D1*
X2536592Y2955404D1*
X2537215Y2959340D1*
X2537348Y2959813D1*
X2204218Y2959768D1*
X2204604Y2955424D1*
X2204525Y2764145D1*
X2203902Y2760208D1*
X2202670Y2756418D1*
X2200861Y2752866D1*
X2198518Y2749642D1*
X2186557Y2737571D1*
X2163645Y2714659D1*
X2163636Y1711206D1*
X2180656Y1694195D1*
X2187447Y1694393D1*
X2197444Y1694197D1*
X2207413Y1693431D1*
X2217322Y1692098D1*
X2227140Y1690203D1*
X2236833Y1687752D1*
X2246371Y1684752D1*
X2255723Y1681213D1*
X2264858Y1677148D1*
X2273746Y1672568D1*
X2282359Y1667490D1*
X2290668Y1661929D1*
X2298648Y1655904D1*
X2306270Y1649433D1*
X2313512Y1642539D1*
X2320349Y1635243D1*
X2326760Y1627570D1*
X2332722Y1619544D1*
X2338218Y1611191D1*
X2343229Y1602538D1*
X2347738Y1593615D1*
X2351732Y1584448D1*
X2355197Y1575069D1*
X2358122Y1565508D1*
X2360497Y1555795D1*
X2362315Y1545963D1*
X2363570Y1536044D1*
X2364258Y1526069D1*
X2364400Y1519000D1*
X2364329Y1514001D1*
X2755161Y1485518D2*
X2753859Y1479346D1*
X2751322Y1469674D1*
X2748237Y1460163D1*
X2744616Y1450843D1*
X2740470Y1441745D1*
X2735812Y1432898D1*
X2730658Y1424330D1*
X2725023Y1416070D1*
X2718927Y1408145D1*
X2712390Y1400579D1*
X2705432Y1393399D1*
X2698076Y1386627D1*
X2690346Y1380284D1*
X2682267Y1374393D1*
X2673866Y1368972D1*
X2665170Y1364038D1*
X2655724Y1359394D1*
X2754909Y1359400D1*
X2755158Y1485418D1*
X2664075Y1674526D2*
X2672089Y1670091D1*
X2680553Y1664769D1*
X2688701Y1658973D1*
X2696505Y1652723D1*
X2703940Y1646038D1*
X2710983Y1638940D1*
X2717609Y1631452D1*
X2723798Y1623599D1*
X2729530Y1615407D1*
X2734785Y1606900D1*
X2739547Y1598109D1*
X2743800Y1589060D1*
X2747531Y1579783D1*
X2750728Y1570309D1*
X2753379Y1560668D1*
X2755289Y1551831D1*
X2758075Y2959868D1*
X2586483Y2959824D1*
X2587001Y2957384D1*
X2587314Y2953411D1*
Y2813274D1*
X2666548Y2733925D1*
X2668891Y2730701D1*
X2670700Y2727149D1*
X2671932Y2723358D1*
X2672555Y2719422D1*
X2672634Y2702429D1*
X2672555Y1691620D1*
X2671932Y1687683D1*
X2670700Y1683893D1*
X2668891Y1680341D1*
X2666548Y1677117D1*
X2665188Y1675647D1*
X939329Y1939001D2*
X938759Y1929018D1*
X937621Y1919085D1*
X935920Y1909232D1*
X933659Y1899492D1*
X930847Y1889897D1*
X927493Y1880478D1*
X923608Y1871265D1*
X919204Y1862288D1*
X914296Y1853577D1*
X908899Y1845160D1*
X903032Y1837064D1*
X896712Y1829315D1*
X889962Y1821940D1*
X882802Y1814960D1*
X875256Y1808400D1*
X867349Y1802281D1*
X859105Y1796622D1*
X850553Y1791443D1*
X841719Y1786759D1*
X832633Y1782586D1*
X823324Y1778937D1*
X813822Y1775825D1*
X804158Y1773259D1*
X794364Y1771248D1*
X784471Y1769799D1*
X774511Y1768915D1*
X764518Y1768601D1*
X754522Y1768856D1*
X744558Y1769681D1*
X734656Y1771072D1*
X724850Y1773025D1*
X715171Y1775534D1*
X705651Y1778590D1*
X696321Y1782183D1*
X687210Y1786303D1*
X678349Y1790934D1*
X669766Y1796064D1*
X661490Y1801674D1*
X653546Y1807746D1*
X645962Y1814261D1*
X638761Y1821198D1*
X631967Y1828534D1*
X625602Y1836245D1*
X619687Y1844306D1*
X614240Y1852691D1*
X609281Y1861373D1*
X604824Y1870324D1*
X600885Y1879514D1*
X597475Y1888913D1*
X594607Y1898491D1*
X592289Y1908218D1*
X590529Y1918060D1*
X589332Y1927987D1*
X588704Y1937966D1*
X588645Y1947964D1*
X589156Y1957950D1*
X590235Y1967890D1*
X591878Y1977753D1*
X594081Y1987506D1*
X596836Y1997117D1*
X600135Y2006556D1*
X603965Y2015792D1*
X608316Y2024794D1*
X613173Y2033534D1*
X618520Y2041983D1*
X624339Y2050114D1*
X630613Y2057899D1*
X637320Y2065315D1*
X644438Y2072336D1*
X651945Y2078940D1*
X659817Y2085106D1*
X668026Y2090814D1*
X676548Y2096044D1*
X685354Y2100780D1*
X694415Y2105007D1*
X703703Y2108710D1*
X713186Y2111878D1*
X717335Y2113070D1*
X717351Y2197330D1*
X654850Y2197349D1*
Y2199751D1*
X651557Y2200539D1*
X649351Y2201527D1*
X636040Y2208856D1*
X634135Y2210343D1*
X622876Y2222394D1*
X621510Y2224387D1*
X614353Y2239393D1*
X613630Y2241699D1*
X611161Y2258258D1*
X611136Y2260674D1*
X613574Y2277294D1*
X614258Y2279612D1*
X621455Y2294767D1*
X622807Y2296769D1*
X634135Y2308906D1*
X636040Y2310393D1*
X649588Y2317849D1*
X651811Y2318799D1*
X654866Y2319510D1*
X654850Y2321900D1*
X717370D1*
X717351Y2424908D1*
X710390Y2426994D1*
X700960Y2430320D1*
X691736Y2434178D1*
X682747Y2438555D1*
X674021Y2443438D1*
X665588Y2448810D1*
X657475Y2454653D1*
X649708Y2460950D1*
X642312Y2467678D1*
X635312Y2474818D1*
X628729Y2482344D1*
X622587Y2490234D1*
X616904Y2498460D1*
X611699Y2506997D1*
X606989Y2515817D1*
X602789Y2524891D1*
X599113Y2534189D1*
X595973Y2543682D1*
X593378Y2553338D1*
X591339Y2563126D1*
X589860Y2573015D1*
X588947Y2582972D1*
X588603Y2592965D1*
X588829Y2602961D1*
X589624Y2612928D1*
X590986Y2622833D1*
X592910Y2632645D1*
X595390Y2642331D1*
X598418Y2651860D1*
X601984Y2661201D1*
X606077Y2670324D1*
X610682Y2679199D1*
X615786Y2687797D1*
X621372Y2696090D1*
X627421Y2704051D1*
X633914Y2711655D1*
X640829Y2718876D1*
X648145Y2725692D1*
X655837Y2732079D1*
X663881Y2738018D1*
X672250Y2743489D1*
X680917Y2748475D1*
X689854Y2752958D1*
X699032Y2756924D1*
X708422Y2760362D1*
X717992Y2763258D1*
X727711Y2765605D1*
X737548Y2767394D1*
X747472Y2768619D1*
X757448Y2769278D1*
X767447Y2769366D1*
X777434Y2768885D1*
X787377Y2767835D1*
X797245Y2766221D1*
X807004Y2764047D1*
X816624Y2761320D1*
X826072Y2758049D1*
X835319Y2754246D1*
X844335Y2749922D1*
X853089Y2745091D1*
X861553Y2739769D1*
X869701Y2733973D1*
X877505Y2727723D1*
X884940Y2721038D1*
X891983Y2713940D1*
X898609Y2706452D1*
X904798Y2698599D1*
X910530Y2690407D1*
X915785Y2681900D1*
X920547Y2673109D1*
X924800Y2664060D1*
X928531Y2654783D1*
X931728Y2645309D1*
X934379Y2635668D1*
X936476Y2625892D1*
X938013Y2616013D1*
X938985Y2606061D1*
X939388Y2596071D1*
X939329Y2589001D1*
X938759Y2579018D1*
X937621Y2569085D1*
X935920Y2559232D1*
X933659Y2549492D1*
X930847Y2539897D1*
X927493Y2530478D1*
X923608Y2521265D1*
X919204Y2512288D1*
X914296Y2503577D1*
X908899Y2495160D1*
X903032Y2487064D1*
X896712Y2479315D1*
X889962Y2471940D1*
X882802Y2464960D1*
X875256Y2458400D1*
X867349Y2452281D1*
X859105Y2446622D1*
X850553Y2441443D1*
X841719Y2436759D1*
X832633Y2432586D1*
X823324Y2428937D1*
X813822Y2425825D1*
X804405Y2423321D1*
X804400Y2321880D1*
X866900Y2321900D1*
Y2320552D1*
X875289Y2319072D1*
X877565Y2318260D1*
X890926Y2311020D1*
X892942Y2309687D1*
X894724Y2308055D1*
X905124Y2296855D1*
X906490Y2294862D1*
X913647Y2279856D1*
X914370Y2277551D1*
X916839Y2260992D1*
X916864Y2258575D1*
X914426Y2241955D1*
X913742Y2239638D1*
X906545Y2224483D1*
X905193Y2222481D1*
X894661Y2211127D1*
X892868Y2209506D1*
X890845Y2208185D1*
X877319Y2200882D1*
X875029Y2200110D1*
X866895Y2198682D1*
X866900Y2197349D1*
X804381D1*
X804400Y2114693D1*
X811833Y2112752D1*
X821371Y2109752D1*
X830723Y2106213D1*
X839858Y2102148D1*
X848746Y2097568D1*
X857359Y2092490D1*
X865668Y2086929D1*
X873648Y2080904D1*
X881270Y2074433D1*
X888512Y2067539D1*
X895349Y2060243D1*
X901760Y2052570D1*
X907722Y2044544D1*
X913218Y2036191D1*
X918229Y2027538D1*
X922738Y2018615D1*
X926732Y2009448D1*
X930197Y2000069D1*
X933122Y1990508D1*
X935497Y1980795D1*
X937315Y1970963D1*
X938570Y1961044D1*
X939258Y1951069D1*
X939400Y1944000D1*
X939329Y1939001D1*
X1489329D2*
X1488759Y1929018D1*
X1487621Y1919085D1*
X1485920Y1909232D1*
X1483659Y1899492D1*
X1480847Y1889897D1*
X1477493Y1880478D1*
X1473608Y1871265D1*
X1469204Y1862288D1*
X1464296Y1853577D1*
X1458899Y1845160D1*
X1453032Y1837064D1*
X1446712Y1829315D1*
X1439962Y1821940D1*
X1432802Y1814960D1*
X1425256Y1808400D1*
X1417349Y1802281D1*
X1409105Y1796622D1*
X1400553Y1791443D1*
X1391719Y1786759D1*
X1382633Y1782586D1*
X1373324Y1778937D1*
X1363822Y1775825D1*
X1354158Y1773259D1*
X1344364Y1771248D1*
X1334471Y1769799D1*
X1324511Y1768915D1*
X1314518Y1768601D1*
X1304522Y1768856D1*
X1294558Y1769681D1*
X1284656Y1771072D1*
X1274850Y1773025D1*
X1265171Y1775534D1*
X1255651Y1778590D1*
X1246321Y1782183D1*
X1237210Y1786303D1*
X1228349Y1790934D1*
X1219766Y1796064D1*
X1211490Y1801674D1*
X1203546Y1807746D1*
X1195962Y1814261D1*
X1188761Y1821198D1*
X1181967Y1828534D1*
X1175602Y1836245D1*
X1169687Y1844306D1*
X1164240Y1852691D1*
X1159281Y1861373D1*
X1154824Y1870324D1*
X1150885Y1879514D1*
X1147475Y1888913D1*
X1144607Y1898491D1*
X1142289Y1908218D1*
X1140529Y1918060D1*
X1139332Y1927987D1*
X1138704Y1937966D1*
X1138645Y1947964D1*
X1139156Y1957950D1*
X1140235Y1967890D1*
X1141878Y1977753D1*
X1144081Y1987506D1*
X1146836Y1997117D1*
X1150135Y2006556D1*
X1153965Y2015792D1*
X1158316Y2024794D1*
X1163173Y2033534D1*
X1168520Y2041983D1*
X1174339Y2050114D1*
X1180613Y2057899D1*
X1187320Y2065315D1*
X1194438Y2072336D1*
X1201945Y2078940D1*
X1209817Y2085106D1*
X1218026Y2090814D1*
X1226548Y2096044D1*
X1235354Y2100780D1*
X1244415Y2105007D1*
X1253703Y2108710D1*
X1263186Y2111878D1*
X1267335Y2113070D1*
X1267351Y2197330D1*
X1198600Y2197349D1*
Y2199751D1*
X1195307Y2200539D1*
X1193101Y2201527D1*
X1179790Y2208856D1*
X1177885Y2210343D1*
X1166626Y2222394D1*
X1165260Y2224387D1*
X1158103Y2239393D1*
X1157380Y2241699D1*
X1154911Y2258258D1*
X1154886Y2260674D1*
X1157324Y2277294D1*
X1158008Y2279612D1*
X1165205Y2294767D1*
X1166557Y2296769D1*
X1177885Y2308906D1*
X1179790Y2310393D1*
X1193338Y2317849D1*
X1195561Y2318799D1*
X1198616Y2319510D1*
X1198600Y2321900D1*
X1267370D1*
X1267351Y2424908D1*
X1260390Y2426994D1*
X1250960Y2430320D1*
X1241736Y2434178D1*
X1232747Y2438555D1*
X1224021Y2443438D1*
X1215588Y2448810D1*
X1207475Y2454653D1*
X1199708Y2460950D1*
X1192312Y2467678D1*
X1185312Y2474818D1*
X1178729Y2482344D1*
X1172587Y2490234D1*
X1166904Y2498460D1*
X1161699Y2506997D1*
X1156989Y2515817D1*
X1152789Y2524891D1*
X1149113Y2534189D1*
X1145973Y2543682D1*
X1143378Y2553338D1*
X1141339Y2563126D1*
X1139860Y2573015D1*
X1138947Y2582972D1*
X1138603Y2592965D1*
X1138829Y2602961D1*
X1139624Y2612928D1*
X1140986Y2622833D1*
X1142910Y2632645D1*
X1145390Y2642331D1*
X1148418Y2651860D1*
X1151984Y2661201D1*
X1156077Y2670324D1*
X1160682Y2679199D1*
X1165786Y2687797D1*
X1171372Y2696090D1*
X1177421Y2704051D1*
X1183914Y2711655D1*
X1190829Y2718876D1*
X1198145Y2725692D1*
X1205837Y2732079D1*
X1213881Y2738018D1*
X1222250Y2743489D1*
X1230917Y2748475D1*
X1239854Y2752958D1*
X1249032Y2756924D1*
X1258422Y2760362D1*
X1267992Y2763258D1*
X1277711Y2765605D1*
X1287548Y2767394D1*
X1297472Y2768619D1*
X1307448Y2769278D1*
X1317447Y2769366D1*
X1327434Y2768885D1*
X1337377Y2767835D1*
X1347245Y2766221D1*
X1357004Y2764047D1*
X1366624Y2761320D1*
X1376072Y2758049D1*
X1385319Y2754246D1*
X1394335Y2749922D1*
X1403089Y2745091D1*
X1411553Y2739769D1*
X1419701Y2733973D1*
X1427505Y2727723D1*
X1434940Y2721038D1*
X1441983Y2713940D1*
X1448609Y2706452D1*
X1454798Y2698599D1*
X1460530Y2690407D1*
X1465785Y2681900D1*
X1470547Y2673109D1*
X1474800Y2664060D1*
X1478531Y2654783D1*
X1481728Y2645309D1*
X1484379Y2635668D1*
X1486476Y2625892D1*
X1488013Y2616013D1*
X1488985Y2606061D1*
X1489388Y2596071D1*
X1489329Y2589001D1*
X1488759Y2579018D1*
X1487621Y2569085D1*
X1485920Y2559232D1*
X1483659Y2549492D1*
X1480847Y2539897D1*
X1477493Y2530478D1*
X1473608Y2521265D1*
X1469204Y2512288D1*
X1464296Y2503577D1*
X1458899Y2495160D1*
X1453032Y2487064D1*
X1446712Y2479315D1*
X1439962Y2471940D1*
X1432802Y2464960D1*
X1425256Y2458400D1*
X1417349Y2452281D1*
X1409105Y2446622D1*
X1400553Y2441443D1*
X1391719Y2436759D1*
X1382633Y2432586D1*
X1373324Y2428937D1*
X1363822Y2425825D1*
X1354405Y2423321D1*
X1354400Y2321880D1*
X1423150Y2321900D1*
Y2319497D1*
X1426443Y2318711D1*
X1428649Y2317723D1*
X1441960Y2310393D1*
X1443865Y2308906D1*
X1455124Y2296855D1*
X1456491Y2294862D1*
X1463647Y2279856D1*
X1464370Y2277550D1*
X1466840Y2260991D1*
X1466865Y2258575D1*
X1464427Y2241955D1*
X1463743Y2239637D1*
X1456545Y2224483D1*
X1455193Y2222480D1*
X1444661Y2211127D1*
X1442869Y2209505D1*
X1440845Y2208185D1*
X1427319Y2200882D1*
X1425030Y2200110D1*
X1423134Y2199740D1*
X1423150Y2197349D1*
X1354381D1*
X1354400Y2114693D1*
X1361833Y2112752D1*
X1371371Y2109752D1*
X1380723Y2106213D1*
X1389858Y2102148D1*
X1398746Y2097568D1*
X1407359Y2092490D1*
X1415668Y2086929D1*
X1423648Y2080904D1*
X1431270Y2074433D1*
X1438512Y2067539D1*
X1445349Y2060243D1*
X1451760Y2052570D1*
X1457722Y2044544D1*
X1463218Y2036191D1*
X1468229Y2027538D1*
X1472738Y2018615D1*
X1476732Y2009448D1*
X1480197Y2000069D1*
X1483122Y1990508D1*
X1485497Y1980795D1*
X1487315Y1970963D1*
X1488570Y1961044D1*
X1489258Y1951069D1*
X1489400Y1944000D1*
X1489329Y1939001D1*
X2039329D2*
X2038759Y1929018D1*
X2037621Y1919085D1*
X2035920Y1909232D1*
X2033659Y1899492D1*
X2030847Y1889897D1*
X2027493Y1880478D1*
X2023608Y1871265D1*
X2019204Y1862288D1*
X2014296Y1853577D1*
X2008899Y1845160D1*
X2003032Y1837064D1*
X1996712Y1829315D1*
X1989962Y1821940D1*
X1982802Y1814960D1*
X1975256Y1808400D1*
X1967349Y1802281D1*
X1959105Y1796622D1*
X1950553Y1791443D1*
X1941719Y1786759D1*
X1932633Y1782586D1*
X1923324Y1778937D1*
X1913822Y1775825D1*
X1904158Y1773259D1*
X1894364Y1771248D1*
X1884471Y1769799D1*
X1874511Y1768915D1*
X1864518Y1768601D1*
X1854522Y1768856D1*
X1844558Y1769681D1*
X1834656Y1771072D1*
X1824850Y1773025D1*
X1815171Y1775534D1*
X1805651Y1778590D1*
X1796321Y1782183D1*
X1787210Y1786303D1*
X1778349Y1790934D1*
X1769766Y1796064D1*
X1761490Y1801674D1*
X1753546Y1807746D1*
X1745962Y1814261D1*
X1738761Y1821198D1*
X1731967Y1828534D1*
X1725602Y1836245D1*
X1719687Y1844306D1*
X1714240Y1852691D1*
X1709281Y1861373D1*
X1704824Y1870324D1*
X1700885Y1879514D1*
X1697475Y1888913D1*
X1694607Y1898491D1*
X1692289Y1908218D1*
X1690529Y1918060D1*
X1689332Y1927987D1*
X1688704Y1937966D1*
X1688645Y1947964D1*
X1689156Y1957950D1*
X1690235Y1967890D1*
X1691878Y1977753D1*
X1694081Y1987506D1*
X1696836Y1997117D1*
X1700135Y2006556D1*
X1703965Y2015792D1*
X1708316Y2024794D1*
X1713173Y2033534D1*
X1718520Y2041983D1*
X1724339Y2050114D1*
X1730613Y2057899D1*
X1737320Y2065315D1*
X1744438Y2072336D1*
X1751945Y2078940D1*
X1759817Y2085106D1*
X1768026Y2090814D1*
X1776548Y2096044D1*
X1785354Y2100780D1*
X1794415Y2105007D1*
X1803703Y2108710D1*
X1813186Y2111878D1*
X1817335Y2113070D1*
X1817351Y2197330D1*
X1754850Y2197350D1*
Y2199752D1*
X1751557Y2200539D1*
X1749351Y2201527D1*
X1736040Y2208856D1*
X1734135Y2210343D1*
X1722876Y2222394D1*
X1721509Y2224387D1*
X1714353Y2239393D1*
X1713630Y2241699D1*
X1711160Y2258258D1*
X1711135Y2260675D1*
X1713573Y2277294D1*
X1714257Y2279612D1*
X1721455Y2294767D1*
X1722807Y2296769D1*
X1734135Y2308906D1*
X1736040Y2310393D1*
X1749588Y2317849D1*
X1751810Y2318799D1*
X1754866Y2319510D1*
X1754850Y2321900D1*
X1817370D1*
X1817351Y2424908D1*
X1810390Y2426994D1*
X1800960Y2430320D1*
X1791736Y2434178D1*
X1782747Y2438555D1*
X1774021Y2443438D1*
X1765588Y2448810D1*
X1757475Y2454653D1*
X1749708Y2460950D1*
X1742312Y2467678D1*
X1735312Y2474818D1*
X1728729Y2482344D1*
X1722587Y2490234D1*
X1716904Y2498460D1*
X1711699Y2506997D1*
X1706989Y2515817D1*
X1702789Y2524891D1*
X1699113Y2534189D1*
X1695973Y2543682D1*
X1693378Y2553338D1*
X1691339Y2563126D1*
X1689860Y2573015D1*
X1688947Y2582972D1*
X1688603Y2592965D1*
X1688829Y2602961D1*
X1689624Y2612928D1*
X1690986Y2622833D1*
X1692910Y2632645D1*
X1695390Y2642331D1*
X1698418Y2651860D1*
X1701984Y2661201D1*
X1706077Y2670324D1*
X1710682Y2679199D1*
X1715786Y2687797D1*
X1721372Y2696090D1*
X1727421Y2704051D1*
X1733914Y2711655D1*
X1740829Y2718876D1*
X1748145Y2725692D1*
X1755837Y2732079D1*
X1763881Y2738018D1*
X1772250Y2743489D1*
X1780917Y2748475D1*
X1789854Y2752958D1*
X1799032Y2756924D1*
X1808422Y2760362D1*
X1817992Y2763258D1*
X1827711Y2765605D1*
X1837548Y2767394D1*
X1847472Y2768619D1*
X1857448Y2769278D1*
X1867447Y2769366D1*
X1877434Y2768885D1*
X1887377Y2767835D1*
X1897245Y2766221D1*
X1907004Y2764047D1*
X1916624Y2761320D1*
X1926072Y2758049D1*
X1935319Y2754246D1*
X1944335Y2749922D1*
X1953089Y2745091D1*
X1961553Y2739769D1*
X1969701Y2733973D1*
X1977505Y2727723D1*
X1984940Y2721038D1*
X1991983Y2713940D1*
X1998609Y2706452D1*
X2004798Y2698599D1*
X2010530Y2690407D1*
X2015785Y2681900D1*
X2020547Y2673109D1*
X2024800Y2664060D1*
X2028531Y2654783D1*
X2031728Y2645309D1*
X2034379Y2635668D1*
X2036476Y2625892D1*
X2038013Y2616013D1*
X2038985Y2606061D1*
X2039388Y2596071D1*
X2039329Y2589001D1*
X2038759Y2579018D1*
X2037621Y2569085D1*
X2035920Y2559232D1*
X2033659Y2549492D1*
X2030847Y2539897D1*
X2027493Y2530478D1*
X2023608Y2521265D1*
X2019204Y2512288D1*
X2014296Y2503577D1*
X2008899Y2495160D1*
X2003032Y2487064D1*
X1996712Y2479315D1*
X1989962Y2471940D1*
X1982802Y2464960D1*
X1975256Y2458400D1*
X1967349Y2452281D1*
X1959105Y2446622D1*
X1950553Y2441443D1*
X1941719Y2436759D1*
X1932633Y2432586D1*
X1923324Y2428937D1*
X1913822Y2425825D1*
X1904405Y2423321D1*
X1904400Y2321880D1*
X1954400Y2321900D1*
Y2319497D1*
X1957693Y2318711D1*
X1959899Y2317723D1*
X1973210Y2310393D1*
X1975115Y2308906D1*
X1986374Y2296855D1*
X1987741Y2294862D1*
X1994897Y2279856D1*
X1995620Y2277550D1*
X1998090Y2260991D1*
X1998115Y2258575D1*
X1995677Y2241955D1*
X1994993Y2239637D1*
X1987795Y2224483D1*
X1986443Y2222480D1*
X1975911Y2211127D1*
X1974119Y2209505D1*
X1972095Y2208185D1*
X1958569Y2200882D1*
X1956280Y2200110D1*
X1954384Y2199740D1*
X1954400Y2197350D1*
X1904381D1*
X1904400Y2114693D1*
X1911833Y2112752D1*
X1921371Y2109752D1*
X1930723Y2106213D1*
X1939858Y2102148D1*
X1948746Y2097568D1*
X1957359Y2092490D1*
X1965668Y2086929D1*
X1973648Y2080904D1*
X1981270Y2074433D1*
X1988512Y2067539D1*
X1995349Y2060243D1*
X2001760Y2052570D1*
X2007722Y2044544D1*
X2013218Y2036191D1*
X2018229Y2027538D1*
X2022738Y2018615D1*
X2026732Y2009448D1*
X2030197Y2000069D1*
X2033122Y1990508D1*
X2035497Y1980795D1*
X2037315Y1970963D1*
X2038570Y1961044D1*
X2039258Y1951069D1*
X2039400Y1944000D1*
X2039329Y1939001D1*
X2589329D2*
X2588759Y1929018D1*
X2587621Y1919085D1*
X2585920Y1909232D1*
X2583659Y1899492D1*
X2580847Y1889897D1*
X2577493Y1880478D1*
X2573608Y1871265D1*
X2569204Y1862288D1*
X2564296Y1853577D1*
X2558899Y1845160D1*
X2553032Y1837064D1*
X2546712Y1829315D1*
X2539962Y1821940D1*
X2532802Y1814960D1*
X2525256Y1808400D1*
X2517349Y1802281D1*
X2509105Y1796622D1*
X2500553Y1791443D1*
X2491719Y1786759D1*
X2482633Y1782586D1*
X2473324Y1778937D1*
X2463822Y1775825D1*
X2454158Y1773259D1*
X2444364Y1771248D1*
X2434471Y1769799D1*
X2424511Y1768915D1*
X2414518Y1768601D1*
X2404522Y1768856D1*
X2394558Y1769681D1*
X2384656Y1771072D1*
X2374850Y1773025D1*
X2365171Y1775534D1*
X2355651Y1778590D1*
X2346321Y1782183D1*
X2337210Y1786303D1*
X2328349Y1790934D1*
X2319766Y1796064D1*
X2311490Y1801674D1*
X2303546Y1807746D1*
X2295962Y1814261D1*
X2288761Y1821198D1*
X2281967Y1828534D1*
X2275602Y1836245D1*
X2269687Y1844306D1*
X2264240Y1852691D1*
X2259281Y1861373D1*
X2254824Y1870324D1*
X2250885Y1879514D1*
X2247475Y1888913D1*
X2244607Y1898491D1*
X2242289Y1908218D1*
X2240529Y1918060D1*
X2239332Y1927987D1*
X2238704Y1937966D1*
X2238645Y1947964D1*
X2239156Y1957950D1*
X2240235Y1967890D1*
X2241878Y1977753D1*
X2244081Y1987506D1*
X2246836Y1997117D1*
X2250135Y2006556D1*
X2253965Y2015792D1*
X2258316Y2024794D1*
X2263173Y2033534D1*
X2268520Y2041983D1*
X2274339Y2050114D1*
X2280613Y2057899D1*
X2287320Y2065315D1*
X2294438Y2072336D1*
X2301945Y2078940D1*
X2309817Y2085106D1*
X2318026Y2090814D1*
X2326548Y2096044D1*
X2335354Y2100780D1*
X2344415Y2105007D1*
X2353703Y2108710D1*
X2363186Y2111878D1*
X2367335Y2113070D1*
X2367351Y2197330D1*
X2311100Y2197349D1*
Y2199751D1*
X2307807Y2200539D1*
X2305601Y2201527D1*
X2292290Y2208856D1*
X2290385Y2210343D1*
X2279126Y2222394D1*
X2277759Y2224387D1*
X2270603Y2239393D1*
X2269880Y2241699D1*
X2267410Y2258258D1*
X2267385Y2260675D1*
X2269823Y2277294D1*
X2270507Y2279612D1*
X2277705Y2294767D1*
X2279057Y2296769D1*
X2290385Y2308906D1*
X2292290Y2310393D1*
X2305838Y2317849D1*
X2308060Y2318799D1*
X2311116Y2319510D1*
X2311100Y2321900D1*
X2367370D1*
X2367351Y2424908D1*
X2360390Y2426994D1*
X2350960Y2430320D1*
X2341736Y2434178D1*
X2332747Y2438555D1*
X2324021Y2443438D1*
X2315588Y2448810D1*
X2307475Y2454653D1*
X2299708Y2460950D1*
X2292312Y2467678D1*
X2285312Y2474818D1*
X2278729Y2482344D1*
X2272587Y2490234D1*
X2266904Y2498460D1*
X2261699Y2506997D1*
X2256989Y2515817D1*
X2252789Y2524891D1*
X2249113Y2534189D1*
X2245973Y2543682D1*
X2243378Y2553338D1*
X2241339Y2563126D1*
X2239860Y2573015D1*
X2238947Y2582972D1*
X2238603Y2592965D1*
X2238829Y2602961D1*
X2239624Y2612928D1*
X2240986Y2622833D1*
X2242910Y2632645D1*
X2245390Y2642331D1*
X2248418Y2651860D1*
X2251984Y2661201D1*
X2256077Y2670324D1*
X2260682Y2679199D1*
X2265786Y2687797D1*
X2271372Y2696090D1*
X2277421Y2704051D1*
X2283914Y2711655D1*
X2290829Y2718876D1*
X2298145Y2725692D1*
X2305837Y2732079D1*
X2313881Y2738018D1*
X2322250Y2743489D1*
X2330917Y2748475D1*
X2339854Y2752958D1*
X2349032Y2756924D1*
X2358422Y2760362D1*
X2367992Y2763258D1*
X2377711Y2765605D1*
X2387548Y2767394D1*
X2397472Y2768619D1*
X2407448Y2769278D1*
X2417447Y2769366D1*
X2427434Y2768885D1*
X2437377Y2767835D1*
X2447245Y2766221D1*
X2457004Y2764047D1*
X2466624Y2761320D1*
X2476072Y2758049D1*
X2485319Y2754246D1*
X2494335Y2749922D1*
X2503089Y2745091D1*
X2511553Y2739769D1*
X2519701Y2733973D1*
X2527505Y2727723D1*
X2534940Y2721038D1*
X2541983Y2713940D1*
X2548609Y2706452D1*
X2554798Y2698599D1*
X2560530Y2690407D1*
X2565785Y2681900D1*
X2570547Y2673109D1*
X2574800Y2664060D1*
X2578531Y2654783D1*
X2581728Y2645309D1*
X2584379Y2635668D1*
X2586476Y2625892D1*
X2588013Y2616013D1*
X2588985Y2606061D1*
X2589388Y2596071D1*
X2589329Y2589001D1*
X2588759Y2579018D1*
X2587621Y2569085D1*
X2585920Y2559232D1*
X2583659Y2549492D1*
X2580847Y2539897D1*
X2577493Y2530478D1*
X2573608Y2521265D1*
X2569204Y2512288D1*
X2564296Y2503577D1*
X2558899Y2495160D1*
X2553032Y2487064D1*
X2546712Y2479315D1*
X2539962Y2471940D1*
X2532802Y2464960D1*
X2525256Y2458400D1*
X2517349Y2452281D1*
X2509105Y2446622D1*
X2500553Y2441443D1*
X2491719Y2436759D1*
X2482633Y2432586D1*
X2473324Y2428937D1*
X2463822Y2425825D1*
X2454405Y2423321D1*
X2454400Y2321880D1*
X2510650Y2321900D1*
Y2320552D1*
X2519039Y2319072D1*
X2521316Y2318260D1*
X2534676Y2311020D1*
X2536692Y2309687D1*
X2538474Y2308055D1*
X2548874Y2296855D1*
X2550241Y2294862D1*
X2557397Y2279856D1*
X2558120Y2277550D1*
X2560590Y2260991D1*
X2560615Y2258575D1*
X2558177Y2241955D1*
X2557493Y2239637D1*
X2550295Y2224483D1*
X2548943Y2222480D1*
X2538411Y2211127D1*
X2536619Y2209505D1*
X2534595Y2208185D1*
X2521069Y2200882D1*
X2518780Y2200110D1*
X2510645Y2198681D1*
X2510650Y2197349D1*
X2454381D1*
X2454400Y2114693D1*
X2461833Y2112752D1*
X2471371Y2109752D1*
X2480723Y2106213D1*
X2489858Y2102148D1*
X2498746Y2097568D1*
X2507359Y2092490D1*
X2515668Y2086929D1*
X2523648Y2080904D1*
X2531270Y2074433D1*
X2538512Y2067539D1*
X2545349Y2060243D1*
X2551760Y2052570D1*
X2557722Y2044544D1*
X2563218Y2036191D1*
X2568229Y2027538D1*
X2572738Y2018615D1*
X2576732Y2009448D1*
X2580197Y2000069D1*
X2583122Y1990508D1*
X2585497Y1980795D1*
X2587315Y1970963D1*
X2588570Y1961044D1*
X2589258Y1951069D1*
X2589400Y1944000D1*
X2589329Y1939001D1*
X491100Y5178151D2*
X710650D1*
Y5175748D1*
X713943Y5174961D1*
X716149Y5173973D1*
X729460Y5166643D1*
X731365Y5165156D1*
X742624Y5153105D1*
X743990Y5151112D1*
X751147Y5136106D1*
X751870Y5133800D1*
X754339Y5117241D1*
X754364Y5114825D1*
X751926Y5098205D1*
X751242Y5095887D1*
X744045Y5080733D1*
X742693Y5078730D1*
X732161Y5067377D1*
X730369Y5065755D1*
X728345Y5064435D1*
X714819Y5057131D1*
X712529Y5056359D1*
X710634Y5055990D1*
X710650Y5053599D1*
X486100D1*
Y5054946D1*
X477971Y5056359D1*
X475681Y5057131D1*
X462074Y5064479D1*
X460058Y5065812D1*
X458276Y5067444D1*
X447876Y5078644D1*
X446510Y5080637D1*
X439353Y5095643D1*
X438630Y5097949D1*
X436161Y5114508D1*
X436136Y5116924D1*
X438574Y5133544D1*
X439258Y5135862D1*
X446455Y5151016D1*
X447807Y5153019D1*
X458339Y5164373D1*
X460131Y5165994D1*
X462155Y5167315D1*
X475681Y5174618D1*
X477971Y5175390D1*
X486105Y5176818D1*
X486100Y5178151D1*
X491100D1*
X1122350Y5040206D2*
X1131901D1*
X1134762Y5040610D1*
X1137178Y5040595D1*
X1139823Y5040207D1*
X2034987Y5040206D1*
X2039000Y5040650D1*
X2043010Y5040207D1*
X2054400Y5040206D1*
Y5038389D1*
X2067703Y5036248D1*
X2070001Y5035501D1*
X2093749Y5023454D1*
X2095809Y5022192D1*
X2097647Y5020622D1*
X2116443Y5001759D1*
X2117863Y4999804D1*
X2129995Y4976099D1*
X2130920Y4973867D1*
X2131484Y4971517D1*
X2135603Y4945208D1*
Y4942792D1*
X2131484Y4916483D1*
X2130920Y4914133D1*
X2129995Y4911901D1*
X2117863Y4888196D1*
X2116443Y4886241D1*
X2097647Y4867378D1*
X2095809Y4865808D1*
X2093749Y4864546D1*
X2070001Y4852499D1*
X2067703Y4851752D1*
X2054383Y4849594D1*
X2054400Y4846923D1*
X1117350D1*
Y4850185D1*
X1107898Y4851812D1*
X1105612Y4852595D1*
X1082695Y4864685D1*
X1080660Y4865988D1*
X1078853Y4867593D1*
X1060805Y4886426D1*
X1059415Y4888403D1*
X1047751Y4912104D1*
X1046899Y4914221D1*
X1046349Y4916574D1*
X1042405Y4942700D1*
X1042390Y4945117D1*
X1046347Y4971412D1*
X1046854Y4973636D1*
X1047744Y4975883D1*
X1059385Y4999545D1*
X1060766Y5001528D1*
X1078853Y5020407D1*
X1080660Y5022012D1*
X1082699Y5023317D1*
X1105752Y5035464D1*
X1108046Y5036225D1*
X1117343Y5037805D1*
X1117350Y5040206D1*
X1122350D1*
X1472499Y3930594D2*
X1705632D1*
Y3869593D1*
X1467499D1*
Y3930594D1*
X1472499D1*
X1861090Y3930029D2*
X2094223D1*
Y3869028D1*
X1856090D1*
Y3930029D1*
X1861090D1*
X2246848Y3929891D2*
X2479981D1*
Y3868890D1*
X2241848D1*
Y3929891D1*
X2246848D1*
X1076922Y4478855D2*
X1078940Y4474260D1*
X1080642Y4469560D1*
X1082028Y4464757D1*
X1083409Y4458023D1*
X1094979Y4384634D1*
X1095480Y4379660D1*
X1095650Y4374664D1*
X1095489Y4369667D1*
X1094727Y4362836D1*
X1083114Y4289441D1*
X1082057Y4284555D1*
X1080678Y4279750D1*
X1078984Y4275047D1*
X1076153Y4268783D1*
X1042476Y4202549D1*
X1039962Y4198228D1*
X1037166Y4194084D1*
X1034103Y4190133D1*
X1029476Y4185050D1*
X977007Y4132465D1*
X973280Y4129133D1*
X969340Y4126056D1*
X965205Y4123247D1*
X959233Y4119844D1*
X948151Y4114185D1*
Y4034850D1*
X946491D1*
X944992Y4027137D1*
X937795Y4011983D1*
X936443Y4009980D1*
X925911Y3998627D1*
X924119Y3997005D1*
X922095Y3995685D1*
X910650Y3989400D1*
Y3984850D1*
X667351D1*
Y3989440D1*
X654867Y3996305D1*
X652954Y3997781D1*
X641626Y4009894D1*
X640260Y4011888D1*
X633103Y4026893D1*
X632380Y4029199D1*
X631497Y4034851D1*
X629852Y4034850D1*
X629803Y4114205D1*
X617147Y4120697D1*
X612833Y4123223D1*
X608696Y4126030D1*
X604755Y4129105D1*
X599684Y4133746D1*
X547275Y4186333D1*
X543952Y4190068D1*
X540884Y4194014D1*
X538084Y4198156D1*
X534694Y4204136D1*
X501069Y4270359D1*
X499060Y4274937D1*
X497358Y4279637D1*
X495972Y4284440D1*
X494591Y4291174D1*
X483021Y4364563D1*
X482520Y4369537D1*
X482350Y4374533D1*
X482511Y4379530D1*
X483273Y4386362D1*
X494886Y4459756D1*
X495943Y4464642D1*
X497322Y4469447D1*
X499016Y4474151D1*
X501847Y4480415D1*
X535524Y4546648D1*
X538038Y4550969D1*
X540833Y4555114D1*
X543897Y4559064D1*
X548524Y4564148D1*
X599684Y4615452D1*
X603329Y4618873D1*
X607193Y4622044D1*
X611259Y4624953D1*
X615526Y4627595D1*
X632125Y4636179D1*
X684903Y4663121D1*
X689479Y4665134D1*
X694178Y4666839D1*
X698980Y4668230D1*
X705712Y4669617D1*
X779030Y4681238D1*
X784004Y4681734D1*
X789000Y4681900D1*
X793997Y4681734D1*
X800828Y4680967D1*
X874125Y4669301D1*
X879009Y4668233D1*
X883811Y4666843D1*
X888510Y4665138D1*
X894768Y4662293D1*
X960853Y4628501D1*
X965167Y4625974D1*
X969304Y4623167D1*
X973246Y4620093D1*
X978316Y4615452D1*
X1030726Y4562865D1*
X1034048Y4559130D1*
X1037116Y4555183D1*
X1039916Y4551041D1*
X1043306Y4545061D1*
X1076931Y4478838D1*
X1078940Y4474260D1*
X1080642Y4469560D1*
X1082028Y4464757D1*
X1083409Y4458023D1*
X1094719Y4386411D1*
X1076908Y3698085D2*
X1078928Y3693491D1*
X1080632Y3688791D1*
X1082020Y3683989D1*
X1083404Y3677255D1*
X1094984Y3604003D1*
X1095482Y3599029D1*
X1095650Y3594032D1*
X1095486Y3589036D1*
X1094722Y3582205D1*
X1083099Y3508959D1*
X1082036Y3504074D1*
X1080652Y3499271D1*
X1078952Y3494570D1*
X1076114Y3488309D1*
X1042426Y3422240D1*
X1039905Y3417923D1*
X1037104Y3413782D1*
X1034035Y3409836D1*
X1029401Y3404759D1*
X985650Y3361021D1*
Y3234850D1*
X983990D1*
X982492Y3227137D1*
X975295Y3211983D1*
X973943Y3209980D1*
X963411Y3198627D1*
X961619Y3197005D1*
X959595Y3195685D1*
X948150Y3189401D1*
Y3184849D1*
X617350D1*
Y3189439D1*
X604867Y3196305D1*
X602954Y3197781D1*
X591626Y3209894D1*
X590260Y3211888D1*
X583103Y3226893D1*
X582380Y3229199D1*
X581497Y3234851D1*
X579850Y3234850D1*
Y3373502D1*
X547334Y3406055D1*
X544007Y3409786D1*
X540934Y3413729D1*
X538130Y3417867D1*
X534733Y3423844D1*
X501083Y3489932D1*
X499072Y3494509D1*
X497368Y3499209D1*
X495980Y3504011D1*
X494596Y3510745D1*
X483016Y3583997D1*
X482518Y3588971D1*
X482350Y3593967D1*
X482513Y3598964D1*
X483278Y3605795D1*
X494901Y3679041D1*
X495964Y3683925D1*
X497348Y3688729D1*
X499048Y3693430D1*
X501886Y3699691D1*
X535574Y3765760D1*
X538095Y3770077D1*
X540896Y3774218D1*
X543965Y3778164D1*
X548599Y3783241D1*
X599759Y3834401D1*
X603409Y3837817D1*
X607277Y3840983D1*
X611347Y3843886D1*
X615617Y3846523D1*
X632209Y3855077D1*
X684933Y3881917D1*
X689509Y3883928D1*
X694209Y3885631D1*
X699012Y3887020D1*
X705745Y3888404D1*
X778997Y3899984D1*
X783971Y3900482D1*
X788968Y3900650D1*
X793964Y3900486D1*
X800795Y3899722D1*
X874041Y3888099D1*
X878926Y3887036D1*
X883729Y3885651D1*
X888431Y3883952D1*
X894691Y3881114D1*
X960760Y3847425D1*
X965077Y3844905D1*
X969218Y3842104D1*
X973164Y3839035D1*
X978241Y3834401D1*
X1030666Y3781945D1*
X1033994Y3778214D1*
X1037066Y3774271D1*
X1039871Y3770132D1*
X1043267Y3764156D1*
X1076917Y3698067D1*
X1078928Y3693491D1*
X1080631Y3688791D1*
X1082020Y3683988D1*
X1083404Y3677255D1*
X1094715Y3605841D1*
X2129993Y4976103D2*
X2130920Y4973867D1*
X2131484Y4971517D1*
X2135458Y4946424D1*
X913645Y2279861D2*
X914370Y2277551D1*
X916732Y2261895D1*
X1463645Y2279861D2*
X1464370Y2277550D1*
X1466732Y2261895D1*
X1994895Y2279861D2*
X1995620Y2277550D1*
X1997982Y2261895D1*
X2557395Y2279861D2*
X2558120Y2277550D1*
X2560482Y2261895D1*
X1026146Y836111D2*
X1026871Y833800D1*
X1029233Y818145D1*
X1801146Y836111D2*
X1801871Y833801D1*
X1804233Y818145D1*
X1126146Y1317361D2*
X1126871Y1315051D1*
X1129233Y1299395D1*
X945677Y4029460D2*
X944992Y4027137D1*
X983177Y3229460D2*
X982492Y3227137D1*
X751145Y5136111D2*
X751870Y5133800D1*
X754232Y5118145D1*
X2567158Y5122127D2*
X2565016Y5135649D1*
X2558799Y5147855D1*
X2549114Y5157542D1*
X2536910Y5163762D1*
X2523381Y5165907D1*
X2509851Y5163766D1*
X2497645Y5157549D1*
X2487958Y5147864D1*
X2481738Y5135660D1*
X2479593Y5122130D1*
X2481734Y5108601D1*
X2487951Y5096395D1*
X2497636Y5086707D1*
X2509840Y5080487D1*
X2523369Y5078342D1*
X2536899Y5080483D1*
X2549105Y5086701D1*
X2558792Y5096385D1*
X2565012Y5108590D1*
X2567157Y5122119D1*
X2565016Y5135649D1*
X2593563Y5147468D2*
X2594490Y5145232D1*
X2595054Y5142882D1*
X2598103Y5123333D1*
Y5120916D1*
X2595055Y5101368D1*
X2594490Y5099018D1*
X2593566Y5096785D1*
X2584541Y5079178D1*
X2583121Y5077223D1*
X2569164Y5063200D1*
X2567327Y5061630D1*
X2565266Y5060367D1*
X2547616Y5051428D1*
X2545318Y5050681D1*
X2525784Y5047539D1*
X2523375Y5047349D1*
X2520966Y5047539D1*
X2501432Y5050681D1*
X2499134Y5051427D1*
X2481484Y5060368D1*
X2479423Y5061630D1*
X2477586Y5063200D1*
X2463629Y5077223D1*
X2462209Y5079178D1*
X2453184Y5096785D1*
X2452260Y5099018D1*
X2451696Y5101368D1*
X2448647Y5120916D1*
Y5123333D1*
X2451696Y5142882D1*
X2452260Y5145231D1*
X2453184Y5147464D1*
X2462209Y5165071D1*
X2463629Y5167026D1*
X2477586Y5181050D1*
X2479423Y5182619D1*
X2481484Y5183882D1*
X2499134Y5192822D1*
X2501432Y5193569D1*
X2520966Y5196710D1*
X2523375Y5196900D1*
X2525784Y5196710D1*
X2545318Y5193569D1*
X2547616Y5192822D1*
X2565266Y5183882D1*
X2567327Y5182619D1*
X2569164Y5181050D1*
X2583121Y5167026D1*
X2584541Y5165071D1*
X2593566Y5147464D1*
X2594490Y5145232D1*
X2595054Y5142882D1*
X2597958Y5124548D1*
X1732122Y4670973D2*
X1833661Y4670911D1*
X1836761Y4670420D1*
X1839746Y4669450D1*
X1842542Y4668025D1*
X1845081Y4666181D1*
X1847300Y4663961D1*
X1849145Y4661422D1*
X1850570Y4658626D1*
X1851539Y4655641D1*
X1852030Y4652542D1*
X1852092Y4625972D1*
X1852030Y3149561D1*
X1851539Y3146461D1*
X1850570Y3143476D1*
X1849145Y3140680D1*
X1847300Y3138141D1*
X1845081Y3135922D1*
X1842542Y3134077D1*
X1839746Y3132652D1*
X1836761Y3131682D1*
X1833661Y3131191D1*
X1807092Y3131130D1*
X1730533Y3131191D1*
X1727433Y3131682D1*
X1724449Y3132652D1*
X1721652Y3134077D1*
X1719113Y3135922D1*
X1716894Y3138141D1*
X1715049Y3140680D1*
X1713625Y3143476D1*
X1712655Y3146461D1*
X1712164Y3149561D1*
X1712102Y3176130D1*
X1712164Y4652542D1*
X1712655Y4655641D1*
X1713625Y4658626D1*
X1715049Y4661422D1*
X1716894Y4663961D1*
X1719113Y4666181D1*
X1721652Y4668025D1*
X1724449Y4669450D1*
X1727433Y4670420D1*
X1730533Y4670911D1*
X1732108Y4670972D1*
X2120367Y4671424D2*
X2221906Y4671362D1*
X2225006Y4670871D1*
X2227991Y4669902D1*
X2230787Y4668477D1*
X2233326Y4666632D1*
X2235545Y4664413D1*
X2237390Y4661874D1*
X2238815Y4659078D1*
X2239785Y4656093D1*
X2240276Y4652993D1*
X2240337Y4626424D1*
X2240276Y3150012D1*
X2239785Y3146912D1*
X2238815Y3143928D1*
X2237390Y3141131D1*
X2235545Y3138592D1*
X2233326Y3136373D1*
X2230787Y3134528D1*
X2227991Y3133104D1*
X2225006Y3132134D1*
X2221906Y3131643D1*
X2195337Y3131581D1*
X2118779Y3131643D1*
X2115679Y3132134D1*
X2112694Y3133104D1*
X2109898Y3134528D1*
X2107359Y3136373D1*
X2105140Y3138592D1*
X2103295Y3141131D1*
X2101870Y3143928D1*
X2100900Y3146912D1*
X2100409Y3150012D1*
X2100348Y3176581D1*
X2100409Y4652993D1*
X2100900Y4656093D1*
X2101870Y4659078D1*
X2103295Y4661874D1*
X2105140Y4664413D1*
X2107359Y4666632D1*
X2109898Y4668477D1*
X2112694Y4669902D1*
X2115679Y4670871D1*
X2118779Y4671362D1*
X2120354Y4671424D1*
X413760Y5422881D2*
X570530D1*
X807471D2*
X2370530D1*
X2607471D2*
X2764241D1*
X413760Y5413012D2*
X557112D1*
X820889D2*
X2357112D1*
X2620889D2*
X2764241D1*
X413760Y5403143D2*
X547073D1*
X830928D2*
X2347073D1*
X2630928D2*
X2764241D1*
X413760Y5393274D2*
X539280D1*
X838721D2*
X2339280D1*
X2638721D2*
X2764241D1*
X413760Y5383406D2*
X533147D1*
X844854D2*
X2333147D1*
X2644854D2*
X2764241D1*
X413760Y5373537D2*
X528382D1*
X849620D2*
X2328382D1*
X2649620D2*
X2764241D1*
X413760Y5363668D2*
X524788D1*
X853214D2*
X2324788D1*
X2653214D2*
X2764241D1*
X413760Y5353799D2*
X522229D1*
X855753D2*
X2322229D1*
X2655753D2*
X2764241D1*
X413760Y5343930D2*
X520667D1*
X857335D2*
X2320667D1*
X2657335D2*
X2764241D1*
X413760Y5334062D2*
X520022D1*
X857979D2*
X2320022D1*
X2657979D2*
X2764241D1*
X413760Y5324193D2*
X520276D1*
X857725D2*
X2320276D1*
X2657725D2*
X2764241D1*
X413760Y5314324D2*
X521467D1*
X856534D2*
X2321467D1*
X2656534D2*
X2764241D1*
X413760Y5304455D2*
X523596D1*
X854405D2*
X2323596D1*
X2654405D2*
X2764241D1*
X413760Y5294587D2*
X526741D1*
X851260D2*
X2326741D1*
X2651260D2*
X2764241D1*
X413760Y5284718D2*
X531018D1*
X846983D2*
X2331018D1*
X2646983D2*
X2764241D1*
X413760Y5274849D2*
X536546D1*
X841456D2*
X2336546D1*
X2641456D2*
X2764241D1*
X413760Y5264980D2*
X543596D1*
X834405D2*
X2343596D1*
X2634405D2*
X2764241D1*
X413760Y5255112D2*
X552581D1*
X825421D2*
X2352581D1*
X2625421D2*
X2764241D1*
X413760Y5245243D2*
X564378D1*
X813624D2*
X2364378D1*
X2613624D2*
X2764241D1*
X413760Y5235374D2*
X581057D1*
X796944D2*
X2381057D1*
X2596944D2*
X2764241D1*
X594997Y5230254D2*
X587091Y5233138D1*
X578042Y5237386D1*
X569429Y5242459D1*
X561327Y5248315D1*
X553807Y5254901D1*
X546935Y5262160D1*
X540770Y5270029D1*
X535367Y5278439D1*
X530772Y5287317D1*
X527026Y5296585D1*
X524161Y5306162D1*
X522202Y5315965D1*
X521167Y5325907D1*
X521065Y5335903D1*
X521896Y5345865D1*
X523653Y5355706D1*
X526321Y5365339D1*
X529877Y5374682D1*
X534289Y5383652D1*
X539519Y5392171D1*
X545521Y5400165D1*
X552243Y5407563D1*
X559627Y5414302D1*
X567607Y5420322D1*
X576114Y5425571D1*
X585074Y5430004D1*
X592073Y5432747D1*
X412770Y5432749D1*
X412751Y5230269D1*
X594919Y5230249D1*
X856889Y5327002D2*
X855956Y5317049D1*
X854099Y5307227D1*
X851332Y5297621D1*
X847681Y5288315D1*
X843177Y5279391D1*
X837860Y5270926D1*
X831776Y5262994D1*
X824979Y5255665D1*
X817526Y5249002D1*
X809485Y5243064D1*
X800924Y5237902D1*
X791919Y5233562D1*
X783047Y5230253D1*
X2394919Y5230249D1*
X2387091Y5233138D1*
X2378042Y5237386D1*
X2369429Y5242459D1*
X2361327Y5248315D1*
X2353807Y5254901D1*
X2346935Y5262160D1*
X2340770Y5270029D1*
X2335367Y5278439D1*
X2330772Y5287317D1*
X2327026Y5296585D1*
X2324161Y5306162D1*
X2322202Y5315965D1*
X2321167Y5325907D1*
X2321065Y5335903D1*
X2321896Y5345865D1*
X2323653Y5355706D1*
X2326321Y5365339D1*
X2329877Y5374682D1*
X2334289Y5383652D1*
X2339519Y5392171D1*
X2345521Y5400165D1*
X2352243Y5407563D1*
X2359627Y5414302D1*
X2367607Y5420322D1*
X2376114Y5425571D1*
X2385074Y5430004D1*
X2392073Y5432747D1*
X786012Y5432749D1*
X794488Y5429305D1*
X803376Y5424730D1*
X811799Y5419345D1*
X819681Y5413198D1*
X826956Y5406342D1*
X833559Y5398837D1*
X839433Y5390748D1*
X844526Y5382146D1*
X848794Y5373107D1*
X852199Y5363708D1*
X854713Y5354033D1*
X856312Y5344166D1*
X856984Y5334192D1*
X856889Y5327002D1*
X2656889D2*
X2655956Y5317049D1*
X2654099Y5307227D1*
X2651332Y5297621D1*
X2647681Y5288315D1*
X2643177Y5279391D1*
X2637860Y5270926D1*
X2631776Y5262994D1*
X2624979Y5255665D1*
X2617526Y5249002D1*
X2609485Y5243064D1*
X2600924Y5237902D1*
X2591919Y5233562D1*
X2583047Y5230253D1*
X2765231Y5230249D1*
X2765251Y5432730D1*
X2586012Y5432749D1*
X2594488Y5429305D1*
X2603376Y5424730D1*
X2611799Y5419345D1*
X2619681Y5413198D1*
X2626956Y5406342D1*
X2633559Y5398837D1*
X2639433Y5390748D1*
X2644526Y5382146D1*
X2648794Y5373107D1*
X2652199Y5363708D1*
X2654713Y5354033D1*
X2656312Y5344166D1*
X2656984Y5334192D1*
X2656889Y5327002D1*
X413759Y629131D2*
X2752150D1*
X413759Y619262D2*
X2752404D1*
X413759Y609394D2*
X590158D1*
X787841D2*
X2390158D1*
X2587841D2*
X2752658D1*
X413759Y599525D2*
X570607D1*
X807392D2*
X2370607D1*
X2607392D2*
X2752911D1*
X413759Y589656D2*
X557658D1*
X820341D2*
X2357658D1*
X2620341D2*
X2753185D1*
X413759Y579787D2*
X547990D1*
X830009D2*
X2347990D1*
X2630009D2*
X2753439D1*
X413759Y569919D2*
X540509D1*
X837490D2*
X2340509D1*
X2637490D2*
X2753693D1*
X413759Y560050D2*
X534689D1*
X843310D2*
X2334689D1*
X2643310D2*
X2753966D1*
X413759Y550181D2*
X530197D1*
X847802D2*
X2330197D1*
X2647802D2*
X2754220D1*
X413759Y540312D2*
X526876D1*
X851122D2*
X2326876D1*
X2651122D2*
X2754474D1*
X413759Y530444D2*
X524611D1*
X853388D2*
X2324611D1*
X2653388D2*
X2754728D1*
X413759Y520575D2*
X523341D1*
X854658D2*
X2323341D1*
X2654658D2*
X2755001D1*
X413759Y510706D2*
X523009D1*
X854990D2*
X2323009D1*
X2654990D2*
X2755255D1*
X413759Y500837D2*
X523615D1*
X854384D2*
X2323615D1*
X2654384D2*
X2755509D1*
X413759Y490969D2*
X525177D1*
X852822D2*
X2325177D1*
X2652822D2*
X2755783D1*
X413759Y481100D2*
X527736D1*
X850263D2*
X2327736D1*
X2650263D2*
X2756036D1*
X413759Y471231D2*
X531388D1*
X846611D2*
X2331388D1*
X2646611D2*
X2756290D1*
X413759Y461362D2*
X536232D1*
X841767D2*
X2336232D1*
X2641767D2*
X2756564D1*
X413759Y451493D2*
X542521D1*
X835478D2*
X2342521D1*
X2635478D2*
X2756818D1*
X413759Y441625D2*
X550568D1*
X827431D2*
X2350568D1*
X2627431D2*
X2757072D1*
X413759Y431756D2*
X561036D1*
X816982D2*
X2361036D1*
X2616982D2*
X2757326D1*
X413759Y421887D2*
X575353D1*
X802646D2*
X2375353D1*
X2602646D2*
X2757599D1*
X413759Y412018D2*
X598947D1*
X779052D2*
X2398947D1*
X2579052D2*
X2757853D1*
X2401888Y411500D2*
X2396799Y412951D1*
X2387418Y416403D1*
X2378412Y420740D1*
X2369863Y425922D1*
X2361852Y431900D1*
X2354452Y438620D1*
X2347731Y446020D1*
X2341752Y454031D1*
X2336570Y462579D1*
X2332232Y471585D1*
X2328780Y480966D1*
X2326244Y490635D1*
X2324648Y500503D1*
X2324007Y510478D1*
X2324327Y520469D1*
X2325605Y530384D1*
X2327829Y540129D1*
X2330978Y549616D1*
X2335024Y558757D1*
X2339929Y567467D1*
X2345647Y575666D1*
X2352127Y583278D1*
X2359307Y590232D1*
X2367122Y596465D1*
X2375499Y601919D1*
X2384362Y606543D1*
X2393627Y610295D1*
X2403210Y613140D1*
X2413022Y615051D1*
X2422971Y616012D1*
X2437976Y616132D1*
X2555015Y616012D1*
X2564965Y615053D1*
X2574777Y613143D1*
X2584360Y610300D1*
X2593626Y606549D1*
X2602489Y601926D1*
X2610867Y596473D1*
X2618683Y590241D1*
X2625864Y583288D1*
X2632344Y575677D1*
X2638064Y567479D1*
X2642970Y558769D1*
X2647017Y549629D1*
X2650168Y540142D1*
X2652393Y530397D1*
X2653672Y520483D1*
X2654006Y512150D1*
X2653526Y502165D1*
X2652089Y492273D1*
X2649709Y482564D1*
X2646407Y473129D1*
X2642215Y464054D1*
X2637171Y455424D1*
X2631321Y447318D1*
X2624720Y439811D1*
X2617429Y432973D1*
X2609515Y426867D1*
X2601051Y421548D1*
X2592116Y417067D1*
X2582791Y413465D1*
X2576022Y411500D1*
X2758863D1*
X2752880Y639003D1*
X412731Y639000D1*
X412749Y411520D1*
X601870Y411500D1*
X596799Y412951D1*
X587418Y416403D1*
X578412Y420740D1*
X569863Y425922D1*
X561852Y431900D1*
X554452Y438620D1*
X547731Y446020D1*
X541752Y454031D1*
X536570Y462579D1*
X532232Y471585D1*
X528780Y480966D1*
X526244Y490635D1*
X524648Y500503D1*
X524007Y510478D1*
X524327Y520469D1*
X525605Y530384D1*
X527829Y540129D1*
X530978Y549616D1*
X535024Y558757D1*
X539929Y567467D1*
X545647Y575666D1*
X552127Y583278D1*
X559307Y590232D1*
X567122Y596465D1*
X575499Y601919D1*
X584362Y606543D1*
X593627Y610295D1*
X603210Y613140D1*
X613022Y615051D1*
X622971Y616012D1*
X637976Y616132D1*
X755015Y616012D1*
X764965Y615053D1*
X774777Y613143D1*
X784360Y610300D1*
X793626Y606549D1*
X802489Y601926D1*
X810867Y596473D1*
X818683Y590241D1*
X825864Y583288D1*
X832344Y575677D1*
X838064Y567479D1*
X842970Y558769D1*
X847017Y549629D1*
X850168Y540142D1*
X852393Y530397D1*
X853672Y520483D1*
X854006Y512150D1*
X853526Y502165D1*
X852089Y492273D1*
X849709Y482564D1*
X846407Y473129D1*
X842215Y464054D1*
X837171Y455424D1*
X831321Y447318D1*
X824720Y439811D1*
X817429Y432973D1*
X809515Y426867D1*
X801051Y421548D1*
X792116Y417067D1*
X782791Y413465D1*
X776022Y411500D1*
X2401870D1*
X1207550Y3085139D2*
X2751644D1*
X1207550Y3075270D2*
X2751644D1*
X1207550Y3065402D2*
X2751664D1*
X1207550Y3055533D2*
X2751664D1*
X1207550Y3045664D2*
X2751683D1*
X1207550Y3035795D2*
X2751683D1*
X1207550Y3025927D2*
X2751703D1*
X1207550Y3016058D2*
X2751703D1*
X1207550Y3006189D2*
X2751722D1*
X1207550Y2996320D2*
X2751722D1*
X1207550Y2986451D2*
X2751742D1*
X1775320Y2980106D2*
X1778301Y2980540D1*
X1782287D1*
X1785268Y2980106D1*
X2173434Y2980164D1*
X2177211Y2980746D1*
X2181196D1*
X2184911Y2980166D1*
X2752731Y2980249D1*
X2752627Y3095008D1*
X1206553D1*
X1206541Y2980027D1*
X1775231Y2980105D1*
D29*
X2189000Y1044000D3*
X989000D3*
X595000D3*
Y1519818D3*
X989000Y1519000D3*
X1789000Y1044000D3*
X1389000Y1519000D3*
X1789000D3*
X2189000D3*
D30*
X2489000Y512150D3*
X689000D3*
D31*
X1392000Y1032000D3*
D30*
X689000Y5332000D3*
X2489000D3*
D29*
X2583000Y1519000D3*
X2582751Y1044000D3*
X764000Y1944000D3*
X1314000D3*
X1864000D3*
X2414000D3*
X764000Y2594000D3*
X1314000D3*
X1864000D3*
X2414000D3*
X787866Y4375249D3*
X789000Y3594000D3*
G36*
X732751Y2419000D2*
X789000D1*
Y2119000D1*
X732751D1*
Y2419000D1*
G37*
G36*
X1282751D2*
X1339000D1*
Y2119000D1*
X1282751D1*
Y2419000D1*
G37*
G36*
X1832751D2*
X1889000D1*
Y2119000D1*
X1832751D1*
Y2419000D1*
G37*
G36*
X2382751D2*
X2439000D1*
Y2119000D1*
X2382751D1*
Y2419000D1*
G37*
G36*
X670250Y2306500D2*
X851500D1*
Y2212749D1*
X670250D1*
Y2306500D1*
G37*
G36*
X1214000D2*
X1407750D1*
Y2212749D1*
X1214000D1*
Y2306500D1*
G37*
G36*
X1770250D2*
X1939000D1*
Y2212750D1*
X1770250D1*
Y2306500D1*
G37*
G36*
X2326500D2*
X2495250D1*
Y2212749D1*
X2326500D1*
Y2306500D1*
G37*
G36*
X501500Y5162751D2*
X695250D1*
Y5068999D1*
X501500D1*
Y5162751D1*
G37*
G36*
X1132750Y5024806D2*
X2039000D1*
Y4862323D1*
X1132750D1*
Y5024806D1*
G37*
G36*
X645252Y4162750D2*
X932751D1*
Y4050250D1*
X645252D1*
Y4162750D1*
G37*
G36*
X595250Y3469000D2*
X970250D1*
Y3250250D1*
X595250D1*
Y3469000D1*
G37*
G36*
X1482899Y3915194D2*
X1690232D1*
Y3884993D1*
X1482899D1*
Y3915194D1*
G37*
G36*
X1871490Y3914629D2*
X2078823D1*
Y3884428D1*
X1871490D1*
Y3914629D1*
G37*
G36*
X2257248Y3914491D2*
X2464581D1*
Y3884290D1*
X2257248D1*
Y3914491D1*
G37*
X557750Y4374599D2*
D20*
X558313Y4390775D1*
X560001Y4406873D1*
X562803Y4422814D1*
X566708Y4438519D1*
X571696Y4453914D1*
X577743Y4468921D1*
X584818Y4483470D1*
X592889Y4497488D1*
X601915Y4510907D1*
X611852Y4523662D1*
X622653Y4535691D1*
X634264Y4546935D1*
X646628Y4557339D1*
X659687Y4566854D1*
X673375Y4575431D1*
X687627Y4583030D1*
X702372Y4589614D1*
X717540Y4595150D1*
X733056Y4599612D1*
X748844Y4602977D1*
X764828Y4605230D1*
X780929Y4606359D1*
X797071D1*
X813172Y4605230D1*
X829156Y4602977D1*
X844944Y4599612D1*
X860460Y4595150D1*
X875628Y4589614D1*
X890373Y4583030D1*
X904625Y4575431D1*
X918313Y4566854D1*
X931372Y4557339D1*
X943736Y4546935D1*
X955347Y4535691D1*
X966148Y4523662D1*
X976085Y4510907D1*
X985111Y4497488D1*
X993182Y4483470D1*
X1000257Y4468921D1*
X1006304Y4453914D1*
X1011292Y4438519D1*
X1015197Y4422814D1*
X1017999Y4406873D1*
X1019687Y4390775D1*
X1020250Y4374599D1*
X1019687Y4358422D1*
X1017999Y4342324D1*
X1015197Y4326384D1*
X1011292Y4310678D1*
X1006304Y4295284D1*
X1000257Y4280276D1*
X993182Y4265728D1*
X985111Y4251710D1*
X976085Y4238291D1*
X966148Y4225536D1*
X955347Y4213507D1*
X943736Y4202263D1*
X931372Y4191858D1*
X918313Y4182344D1*
X904625Y4173766D1*
X890373Y4166167D1*
X875628Y4159584D1*
X860460Y4154048D1*
X844944Y4149586D1*
X829156Y4146221D1*
X813172Y4143968D1*
X797071Y4142839D1*
X780929D1*
X764828Y4143968D1*
X748844Y4146221D1*
X733056Y4149586D1*
X717540Y4154048D1*
X702372Y4159584D1*
X687627Y4166167D1*
X673375Y4173766D1*
X659687Y4182344D1*
X646628Y4191858D1*
X634264Y4202263D1*
X622653Y4213507D1*
X611852Y4225536D1*
X601915Y4238291D1*
X592889Y4251710D1*
X584818Y4265728D1*
X577743Y4280276D1*
X571696Y4295284D1*
X566708Y4310678D1*
X562803Y4326384D1*
X560001Y4342324D1*
X558313Y4358422D1*
X557750Y4374599D1*
Y3594000D2*
G02X557750Y3594000I231250J0D01*
G01*
D21*
X1135875Y4944000D3*
D22*
X2039000D3*
D23*
X857750Y2259625D3*
X670250D3*
X1214000D3*
D24*
X1407750D3*
X1770250D3*
X1939000D3*
X2326500D3*
X2501500D3*
D25*
X1201500Y3037750D3*
G36*
X607750Y862750D2*
X970250D1*
Y768999D1*
X607750D1*
Y862750D1*
G37*
D24*
Y815875D3*
D26*
X970250D3*
G36*
X1482750Y862750D2*
X1745250D1*
Y769000D1*
X1482750D1*
Y862750D1*
G37*
G36*
X2145250D2*
X2601501D1*
Y768999D1*
X2145250D1*
Y862750D1*
G37*
D27*
X1482750Y815875D3*
X1745250D3*
X495250Y1297125D3*
X1070250D3*
X1220250D3*
G36*
Y1344001D2*
X2757750D1*
Y1250249D1*
X1220250D1*
Y1344001D1*
G37*
G36*
X495250D2*
X1070251D1*
Y1250250D1*
X495250D1*
Y1344001D1*
G37*
G36*
X682751Y4094001D2*
X895250D1*
Y4000250D1*
X682751D1*
Y4094001D1*
G37*
D23*
X689000Y4047125D3*
X889000D3*
X639000Y3247125D3*
X926500D3*
G36*
X632750Y3294001D2*
X932750D1*
Y3200249D1*
X632750D1*
Y3294001D1*
G37*
D23*
X495250Y5115875D3*
X695250D3*
D28*
X2523375Y5122125D3*
M02*
