G04 DipTrace 3.3.0.0*
G04 monsooon_panel.GBL*
%MOIN*%
G04 #@! TF.FileFunction,Copper,L2,Bot*
G04 #@! TF.Part,Single*
G04 #@! TA.AperFunction,Conductor*
%ADD14C,0.007*%
G04 #@! TA.AperFunction,CopperBalancing*
%ADD16C,0.009*%
G04 #@! TA.AperFunction,ComponentPad*
%ADD29C,0.32*%
%ADD30O,0.299213X0.177165*%
%ADD31C,0.334646*%
%FSLAX26Y26*%
G04*
G70*
G90*
G75*
G01*
G04 Bottom*
%LPD*%
X482751Y2937749D2*
D14*
Y2806500D1*
X507751Y2781500D1*
X415409Y5420631D2*
D16*
X575697D1*
X802303D2*
X2375697D1*
X2602303D2*
X2762538D1*
X415409Y5411762D2*
X562794D1*
X815206D2*
X2362794D1*
X2615206D2*
X2762521D1*
X415409Y5402894D2*
X553126D1*
X824874D2*
X2353126D1*
X2624874D2*
X2762503D1*
X415409Y5394025D2*
X545550D1*
X832450D2*
X2345550D1*
X2632450D2*
X2762486D1*
X415409Y5385156D2*
X539503D1*
X838497D2*
X2339503D1*
X2638497D2*
X2762468D1*
X415409Y5376287D2*
X534704D1*
X843295D2*
X2334704D1*
X2643295D2*
X2762451D1*
X415409Y5367419D2*
X530943D1*
X847057D2*
X2330943D1*
X2647057D2*
X2762433D1*
X415409Y5358550D2*
X528130D1*
X849870D2*
X2328130D1*
X2649870D2*
X2762415D1*
X415409Y5349681D2*
X526179D1*
X851821D2*
X2326179D1*
X2651821D2*
X2762398D1*
X415409Y5340812D2*
X525019D1*
X852981D2*
X2325019D1*
X2652981D2*
X2762380D1*
X415409Y5331944D2*
X524632D1*
X853368D2*
X2324632D1*
X2653368D2*
X2762363D1*
X415409Y5323075D2*
X525019D1*
X852981D2*
X2325019D1*
X2652981D2*
X2762345D1*
X415409Y5314206D2*
X526197D1*
X851803D2*
X2326197D1*
X2651803D2*
X2762328D1*
X415409Y5305337D2*
X528165D1*
X849835D2*
X2328165D1*
X2649835D2*
X2762310D1*
X415409Y5296469D2*
X530995D1*
X847004D2*
X2330995D1*
X2647004D2*
X2762292D1*
X415409Y5287600D2*
X534757D1*
X843243D2*
X2334757D1*
X2643243D2*
X2762275D1*
X415409Y5278731D2*
X539574D1*
X838426D2*
X2339574D1*
X2638426D2*
X2762257D1*
X415409Y5269862D2*
X545638D1*
X832362D2*
X2345638D1*
X2632362D2*
X2762240D1*
X415409Y5260993D2*
X553232D1*
X824768D2*
X2353232D1*
X2624768D2*
X2762222D1*
X415409Y5252125D2*
X562935D1*
X815065D2*
X2362935D1*
X2615065D2*
X2762204D1*
X415409Y5243256D2*
X575908D1*
X802092D2*
X2375908D1*
X2602092D2*
X2762187D1*
X415409Y5234387D2*
X595999D1*
X782001D2*
X2395999D1*
X2582001D2*
X2762169D1*
X415409Y5225518D2*
X2762152D1*
X415409Y5216650D2*
X2762134D1*
X415409Y5207781D2*
X2762117D1*
X415409Y5198912D2*
X2762099D1*
X415409Y5190043D2*
X2762081D1*
X415409Y5181175D2*
X2762064D1*
X415409Y5172306D2*
X2762046D1*
X415409Y5163437D2*
X2762029D1*
X415409Y5154568D2*
X2762011D1*
X415409Y5145699D2*
X2761994D1*
X415409Y5136831D2*
X2761976D1*
X415409Y5127962D2*
X2761958D1*
X415409Y5119093D2*
X2761941D1*
X415409Y5110224D2*
X2761923D1*
X415409Y5101356D2*
X2761906D1*
X415409Y5092487D2*
X2761888D1*
X415409Y5083618D2*
X2761870D1*
X415409Y5074749D2*
X2761853D1*
X415409Y5065881D2*
X743954D1*
X834049D2*
X2343951D1*
X2434045D2*
X2761835D1*
X415409Y5057012D2*
X724601D1*
X853403D2*
X2324597D1*
X2453399D2*
X2761818D1*
X415409Y5048143D2*
X710908D1*
X867096D2*
X2310904D1*
X2467092D2*
X2761800D1*
X415409Y5039274D2*
X700203D1*
X877801D2*
X2300199D1*
X2477797D2*
X2761783D1*
X415409Y5030406D2*
X691466D1*
X886538D2*
X2291462D1*
X2486534D2*
X2761765D1*
X415409Y5021537D2*
X684206D1*
X893780D2*
X2284220D1*
X2493794D2*
X2761747D1*
X415409Y5012668D2*
X678142D1*
X899844D2*
X1110792D1*
X1167208D2*
X1410798D1*
X1467213D2*
X1710787D1*
X1767202D2*
X2010792D1*
X2067208D2*
X2278156D1*
X2499858D2*
X2761730D1*
X415409Y5003799D2*
X673079D1*
X904907D2*
X1094673D1*
X1183327D2*
X1394679D1*
X1483315D2*
X1694685D1*
X1783321D2*
X1994673D1*
X2083327D2*
X2273093D1*
X2504920D2*
X2761712D1*
X415409Y4994930D2*
X668896D1*
X909108D2*
X1084548D1*
X1193452D2*
X1384554D1*
X1493440D2*
X1684560D1*
X1793446D2*
X1984548D1*
X2093452D2*
X2268892D1*
X2509104D2*
X2761695D1*
X415409Y4986062D2*
X665486D1*
X912518D2*
X1077341D1*
X1200659D2*
X1377347D1*
X1500665D2*
X1677335D1*
X1800653D2*
X1977341D1*
X2100659D2*
X2265482D1*
X2512514D2*
X2761677D1*
X415409Y4977193D2*
X662796D1*
X915208D2*
X1072068D1*
X1205932D2*
X1372074D1*
X1505920D2*
X1672079D1*
X1805926D2*
X1972068D1*
X2105932D2*
X2262792D1*
X2515204D2*
X2761660D1*
X415409Y4968324D2*
X660775D1*
X917229D2*
X1068324D1*
X1209676D2*
X1368312D1*
X1509682D2*
X1668318D1*
X1809688D2*
X1968324D1*
X2109676D2*
X2260771D1*
X2517225D2*
X2761642D1*
X415409Y4959455D2*
X659386D1*
X918600D2*
X1065828D1*
X1212172D2*
X1365833D1*
X1512161D2*
X1665839D1*
X1812167D2*
X1965828D1*
X2112172D2*
X2259400D1*
X2518614D2*
X2761624D1*
X415409Y4950587D2*
X658630D1*
X919356D2*
X1064492D1*
X1213508D2*
X1364497D1*
X1513497D2*
X1664503D1*
X1813503D2*
X1964492D1*
X2113508D2*
X2258644D1*
X2519370D2*
X2761607D1*
X415409Y4941718D2*
X658490D1*
X919514D2*
X1064228D1*
X1213772D2*
X1364234D1*
X1513760D2*
X1664240D1*
X1813766D2*
X1964228D1*
X2113772D2*
X2258486D1*
X2519510D2*
X2761589D1*
X415409Y4932849D2*
X658947D1*
X919057D2*
X1065054D1*
X1212946D2*
X1365042D1*
X1512952D2*
X1665048D1*
X1812958D2*
X1965054D1*
X2112946D2*
X2258943D1*
X2519053D2*
X2761572D1*
X415409Y4923980D2*
X660019D1*
X917967D2*
X1066970D1*
X1211030D2*
X1366958D1*
X1511036D2*
X1666964D1*
X1811042D2*
X1966970D1*
X2111030D2*
X2260033D1*
X2517981D2*
X2761554D1*
X415409Y4915112D2*
X661724D1*
X916280D2*
X1070081D1*
X1207919D2*
X1370087D1*
X1507924D2*
X1670076D1*
X1807913D2*
X1970081D1*
X2107919D2*
X2261720D1*
X2516276D2*
X2761537D1*
X415409Y4906243D2*
X664097D1*
X913907D2*
X1074581D1*
X1203419D2*
X1374570D1*
X1503424D2*
X1674576D1*
X1803430D2*
X1974581D1*
X2103419D2*
X2264093D1*
X2513903D2*
X2761519D1*
X415409Y4897374D2*
X667138D1*
X910848D2*
X1080769D1*
X1197231D2*
X1380775D1*
X1497237D2*
X1680763D1*
X1797225D2*
X1980769D1*
X2097231D2*
X2267152D1*
X2510862D2*
X2761501D1*
X415409Y4888505D2*
X670953D1*
X907051D2*
X1089294D1*
X1188706D2*
X1389300D1*
X1488694D2*
X1689306D1*
X1788700D2*
X1989294D1*
X2088706D2*
X2270949D1*
X2507047D2*
X2761484D1*
X415409Y4879636D2*
X675576D1*
X902428D2*
X1101792D1*
X1176208D2*
X1401798D1*
X1476213D2*
X1701787D1*
X1776219D2*
X2001792D1*
X2076208D2*
X2275572D1*
X2502424D2*
X2761466D1*
X415409Y4870768D2*
X681130D1*
X896856D2*
X1128195D1*
X1149805D2*
X1428201D1*
X1449811D2*
X1728189D1*
X1749799D2*
X2028195D1*
X2049805D2*
X2281144D1*
X2496870D2*
X2761449D1*
X415409Y4861899D2*
X687775D1*
X890212D2*
X2287788D1*
X2490225D2*
X2761431D1*
X415409Y4853030D2*
X695755D1*
X882249D2*
X2295751D1*
X2482245D2*
X2761413D1*
X415409Y4844161D2*
X705423D1*
X872581D2*
X2305419D1*
X2472577D2*
X2761396D1*
X415409Y4835293D2*
X717482D1*
X860522D2*
X2317478D1*
X2460518D2*
X2761378D1*
X415409Y4826424D2*
X733513D1*
X844491D2*
X2333509D1*
X2444487D2*
X2761361D1*
X415409Y4817555D2*
X759529D1*
X818458D2*
X2359542D1*
X2418471D2*
X2761343D1*
X415409Y4808686D2*
X2761326D1*
X415409Y4799818D2*
X2761308D1*
X415409Y4790949D2*
X2761290D1*
X415409Y4782080D2*
X2761273D1*
X415409Y4773211D2*
X2761255D1*
X415409Y4764343D2*
X2761238D1*
X415409Y4755474D2*
X1371617D1*
X1418909D2*
X2534093D1*
X2581385D2*
X2761220D1*
X415409Y4746605D2*
X1358415D1*
X1432110D2*
X2520892D1*
X2594587D2*
X2761203D1*
X415409Y4737736D2*
X1350663D1*
X1439862D2*
X2513140D1*
X2602338D2*
X2761185D1*
X415409Y4728867D2*
X1345671D1*
X1444854D2*
X2508148D1*
X2607331D2*
X2761167D1*
X415409Y4719999D2*
X1342648D1*
X1447860D2*
X2505142D1*
X2610337D2*
X2761150D1*
X415409Y4711130D2*
X1341259D1*
X1449249D2*
X2503753D1*
X2611743D2*
X2761132D1*
X415409Y4702261D2*
X1341365D1*
X1449143D2*
X2503859D1*
X2611620D2*
X2761115D1*
X415409Y4693392D2*
X1342999D1*
X1447526D2*
X2505476D1*
X2610003D2*
X2761097D1*
X415409Y4684524D2*
X1346269D1*
X1444256D2*
X2508745D1*
X2606733D2*
X2761079D1*
X415409Y4675655D2*
X1351595D1*
X1438930D2*
X2514072D1*
X2601407D2*
X2761062D1*
X415409Y4666786D2*
X1332435D1*
X1458249D2*
X1719787D1*
X1844405D2*
X2107437D1*
X2233251D2*
X2494929D1*
X2620743D2*
X2761044D1*
X415409Y4657917D2*
X1326054D1*
X1464629D2*
X1712984D1*
X1851208D2*
X2101056D1*
X2239631D2*
X2488566D1*
X2627124D2*
X2761027D1*
X415409Y4649049D2*
X1324947D1*
X1465737D2*
X1711701D1*
X1852491D2*
X2099949D1*
X2240739D2*
X2487441D1*
X2628231D2*
X2761009D1*
X415409Y4640180D2*
X1324947D1*
X1465737D2*
X1711701D1*
X1852491D2*
X2099949D1*
X2240739D2*
X2487441D1*
X2628231D2*
X2760992D1*
X415409Y4631311D2*
X1324947D1*
X1465737D2*
X1711701D1*
X1852491D2*
X2099949D1*
X2240739D2*
X2487441D1*
X2628231D2*
X2760974D1*
X415409Y4622442D2*
X1324947D1*
X1465737D2*
X1711701D1*
X1852491D2*
X2099949D1*
X2240739D2*
X2487441D1*
X2628231D2*
X2760956D1*
X415409Y4613574D2*
X1324947D1*
X1465737D2*
X1711701D1*
X1852491D2*
X2099949D1*
X2240739D2*
X2487441D1*
X2628231D2*
X2760939D1*
X415409Y4604705D2*
X1324947D1*
X1465737D2*
X1711701D1*
X1852491D2*
X2099949D1*
X2240739D2*
X2487441D1*
X2628231D2*
X2760921D1*
X415409Y4595836D2*
X1324947D1*
X1465737D2*
X1711701D1*
X1852491D2*
X2099949D1*
X2240739D2*
X2487441D1*
X2628231D2*
X2760904D1*
X415409Y4586967D2*
X1324947D1*
X1465737D2*
X1711701D1*
X1852491D2*
X2099949D1*
X2240739D2*
X2487441D1*
X2628231D2*
X2760886D1*
X415409Y4578098D2*
X1324947D1*
X1465737D2*
X1711701D1*
X1852491D2*
X2099949D1*
X2240739D2*
X2487441D1*
X2628231D2*
X2760869D1*
X415409Y4569230D2*
X1324947D1*
X1465737D2*
X1711701D1*
X1852491D2*
X2099949D1*
X2240739D2*
X2487441D1*
X2628231D2*
X2760851D1*
X415409Y4560361D2*
X1324947D1*
X1465737D2*
X1711701D1*
X1852491D2*
X2099949D1*
X2240739D2*
X2487441D1*
X2628231D2*
X2760833D1*
X415409Y4551492D2*
X1324947D1*
X1465737D2*
X1711701D1*
X1852491D2*
X2099949D1*
X2240739D2*
X2487441D1*
X2628231D2*
X2760816D1*
X415409Y4542623D2*
X739929D1*
X835807D2*
X1324947D1*
X1465737D2*
X1711701D1*
X1852491D2*
X2099949D1*
X2240739D2*
X2487441D1*
X2628231D2*
X2760798D1*
X415409Y4533755D2*
X715531D1*
X860206D2*
X1324947D1*
X1465737D2*
X1711701D1*
X1852491D2*
X2099949D1*
X2240739D2*
X2487441D1*
X2628231D2*
X2760781D1*
X415409Y4524886D2*
X698445D1*
X877292D2*
X1324947D1*
X1465737D2*
X1711701D1*
X1852491D2*
X2099949D1*
X2240739D2*
X2487441D1*
X2628231D2*
X2760763D1*
X415409Y4516017D2*
X684927D1*
X890809D2*
X1324947D1*
X1465737D2*
X1711701D1*
X1852491D2*
X2099949D1*
X2240739D2*
X2487441D1*
X2628231D2*
X2760745D1*
X415409Y4507148D2*
X673695D1*
X902042D2*
X1324947D1*
X1465737D2*
X1711701D1*
X1852491D2*
X2099949D1*
X2240739D2*
X2487441D1*
X2628231D2*
X2760728D1*
X415409Y4498280D2*
X664115D1*
X911604D2*
X1324947D1*
X1465737D2*
X1711701D1*
X1852491D2*
X2099949D1*
X2240739D2*
X2487441D1*
X2628231D2*
X2760710D1*
X415409Y4489411D2*
X655835D1*
X919901D2*
X1324947D1*
X1465737D2*
X1711701D1*
X1852491D2*
X2099949D1*
X2240739D2*
X2487441D1*
X2628231D2*
X2760693D1*
X415409Y4480542D2*
X648611D1*
X927108D2*
X1324947D1*
X1465737D2*
X1711701D1*
X1852491D2*
X2099949D1*
X2240739D2*
X2487441D1*
X2628231D2*
X2760675D1*
X415409Y4471673D2*
X642300D1*
X933436D2*
X1324947D1*
X1465737D2*
X1711701D1*
X1852491D2*
X2099949D1*
X2240739D2*
X2487441D1*
X2628231D2*
X2760658D1*
X415409Y4462804D2*
X636763D1*
X938973D2*
X1324947D1*
X1465737D2*
X1711701D1*
X1852491D2*
X2099949D1*
X2240739D2*
X2487441D1*
X2628231D2*
X2760640D1*
X415409Y4453936D2*
X631929D1*
X943807D2*
X1324947D1*
X1465737D2*
X1711701D1*
X1852491D2*
X2099949D1*
X2240739D2*
X2487441D1*
X2628231D2*
X2760622D1*
X415409Y4445067D2*
X627745D1*
X947991D2*
X1324947D1*
X1465737D2*
X1711701D1*
X1852491D2*
X2099949D1*
X2240739D2*
X2487441D1*
X2628231D2*
X2760605D1*
X415409Y4436198D2*
X624142D1*
X951594D2*
X1324947D1*
X1465737D2*
X1711701D1*
X1852491D2*
X2099949D1*
X2240739D2*
X2487441D1*
X2628231D2*
X2760587D1*
X415409Y4427329D2*
X621083D1*
X954635D2*
X1324947D1*
X1465737D2*
X1711701D1*
X1852491D2*
X2099949D1*
X2240739D2*
X2487441D1*
X2628231D2*
X2760570D1*
X415409Y4418461D2*
X618570D1*
X957167D2*
X1324947D1*
X1465737D2*
X1711701D1*
X1852491D2*
X2099949D1*
X2240739D2*
X2487441D1*
X2628231D2*
X2760552D1*
X415409Y4409592D2*
X616531D1*
X959206D2*
X1324947D1*
X1465737D2*
X1711701D1*
X1852491D2*
X2099949D1*
X2240739D2*
X2487441D1*
X2628231D2*
X2760535D1*
X415409Y4400723D2*
X614984D1*
X960753D2*
X1324947D1*
X1465737D2*
X1711701D1*
X1852491D2*
X2099949D1*
X2240739D2*
X2487441D1*
X2628231D2*
X2760517D1*
X415409Y4391854D2*
X613894D1*
X961825D2*
X1324947D1*
X1465737D2*
X1711701D1*
X1852491D2*
X2099949D1*
X2240739D2*
X2487441D1*
X2628231D2*
X2760499D1*
X415409Y4382986D2*
X613279D1*
X962458D2*
X1324947D1*
X1465737D2*
X1711701D1*
X1852491D2*
X2099949D1*
X2240739D2*
X2487441D1*
X2628231D2*
X2760482D1*
X415409Y4374117D2*
X613103D1*
X962616D2*
X1324947D1*
X1465737D2*
X1711701D1*
X1852491D2*
X2099949D1*
X2240739D2*
X2487441D1*
X2628231D2*
X2760464D1*
X415409Y4365248D2*
X613402D1*
X962335D2*
X1324947D1*
X1465737D2*
X1711701D1*
X1852491D2*
X2099949D1*
X2240739D2*
X2487441D1*
X2628231D2*
X2760447D1*
X415409Y4356379D2*
X614140D1*
X961596D2*
X1324947D1*
X1465737D2*
X1711701D1*
X1852491D2*
X2099949D1*
X2240739D2*
X2487441D1*
X2628231D2*
X2760429D1*
X415409Y4347511D2*
X615335D1*
X960401D2*
X1324947D1*
X1465737D2*
X1711701D1*
X1852491D2*
X2099949D1*
X2240739D2*
X2487441D1*
X2628231D2*
X2760412D1*
X415409Y4338642D2*
X617005D1*
X958731D2*
X1324947D1*
X1465737D2*
X1711701D1*
X1852491D2*
X2099949D1*
X2240739D2*
X2487441D1*
X2628231D2*
X2760394D1*
X415409Y4329773D2*
X619167D1*
X956569D2*
X1324947D1*
X1465737D2*
X1711701D1*
X1852491D2*
X2099949D1*
X2240739D2*
X2487441D1*
X2628231D2*
X2760376D1*
X415409Y4320904D2*
X621822D1*
X953915D2*
X1324947D1*
X1465737D2*
X1711701D1*
X1852491D2*
X2099949D1*
X2240739D2*
X2487441D1*
X2628231D2*
X2760359D1*
X415409Y4312035D2*
X625003D1*
X950733D2*
X1324947D1*
X1465737D2*
X1711701D1*
X1852491D2*
X2099949D1*
X2240739D2*
X2487441D1*
X2628231D2*
X2760341D1*
X415409Y4303167D2*
X628747D1*
X946971D2*
X1324947D1*
X1465737D2*
X1711701D1*
X1852491D2*
X2099949D1*
X2240739D2*
X2487441D1*
X2628231D2*
X2760324D1*
X415409Y4294298D2*
X633107D1*
X942629D2*
X1324947D1*
X1465737D2*
X1711701D1*
X1852491D2*
X2099949D1*
X2240739D2*
X2487441D1*
X2628231D2*
X2760306D1*
X415409Y4285429D2*
X638099D1*
X937620D2*
X1324947D1*
X1465737D2*
X1711701D1*
X1852491D2*
X2099949D1*
X2240739D2*
X2487441D1*
X2628231D2*
X2760288D1*
X415409Y4276560D2*
X643829D1*
X931907D2*
X1324947D1*
X1465737D2*
X1711701D1*
X1852491D2*
X2099949D1*
X2240739D2*
X2487441D1*
X2628231D2*
X2760271D1*
X415409Y4267692D2*
X650369D1*
X925368D2*
X1324947D1*
X1465737D2*
X1711701D1*
X1852491D2*
X2099949D1*
X2240739D2*
X2487441D1*
X2628231D2*
X2760253D1*
X415409Y4258823D2*
X657839D1*
X917879D2*
X1324947D1*
X1465737D2*
X1711701D1*
X1852491D2*
X2099949D1*
X2240739D2*
X2487441D1*
X2628231D2*
X2760236D1*
X415409Y4249954D2*
X666435D1*
X909301D2*
X1324947D1*
X1465737D2*
X1711701D1*
X1852491D2*
X2099949D1*
X2240739D2*
X2487441D1*
X2628231D2*
X2760218D1*
X415409Y4241085D2*
X676384D1*
X899335D2*
X1324947D1*
X1465737D2*
X1711701D1*
X1852491D2*
X2099949D1*
X2240739D2*
X2487441D1*
X2628231D2*
X2760201D1*
X415409Y4232217D2*
X688126D1*
X887610D2*
X1324947D1*
X1465737D2*
X1711701D1*
X1852491D2*
X2099949D1*
X2240739D2*
X2487441D1*
X2628231D2*
X2760183D1*
X415409Y4223348D2*
X702382D1*
X873337D2*
X1324947D1*
X1465737D2*
X1711701D1*
X1852491D2*
X2099949D1*
X2240739D2*
X2487441D1*
X2628231D2*
X2760165D1*
X415409Y4214479D2*
X720787D1*
X854950D2*
X1324947D1*
X1465737D2*
X1711701D1*
X1852491D2*
X2099949D1*
X2240739D2*
X2487441D1*
X2628231D2*
X2760148D1*
X415409Y4205610D2*
X748894D1*
X826842D2*
X1324947D1*
X1465737D2*
X1711701D1*
X1852491D2*
X2099949D1*
X2240739D2*
X2487441D1*
X2628231D2*
X2760130D1*
X415409Y4196741D2*
X1324947D1*
X1465737D2*
X1711701D1*
X1852491D2*
X2099949D1*
X2240739D2*
X2487441D1*
X2628231D2*
X2760113D1*
X415409Y4187873D2*
X1324947D1*
X1465737D2*
X1711701D1*
X1852491D2*
X2099949D1*
X2240739D2*
X2487441D1*
X2628231D2*
X2760095D1*
X415409Y4179004D2*
X1324947D1*
X1465737D2*
X1711701D1*
X1852491D2*
X2099949D1*
X2240739D2*
X2487441D1*
X2628231D2*
X2760078D1*
X415409Y4170135D2*
X1324947D1*
X1465737D2*
X1711701D1*
X1852491D2*
X2099949D1*
X2240739D2*
X2487441D1*
X2628231D2*
X2760060D1*
X415409Y4161266D2*
X1324947D1*
X1465737D2*
X1711701D1*
X1852491D2*
X2099949D1*
X2240739D2*
X2487441D1*
X2628231D2*
X2760042D1*
X415409Y4152398D2*
X1324947D1*
X1465737D2*
X1711701D1*
X1852491D2*
X2099949D1*
X2240739D2*
X2487441D1*
X2628231D2*
X2760025D1*
X415409Y4143529D2*
X1324947D1*
X1465737D2*
X1711701D1*
X1852491D2*
X2099949D1*
X2240739D2*
X2487441D1*
X2628231D2*
X2760007D1*
X415409Y4134660D2*
X1324947D1*
X1465737D2*
X1711701D1*
X1852491D2*
X2099949D1*
X2240739D2*
X2487441D1*
X2628231D2*
X2759990D1*
X415409Y4125791D2*
X1324947D1*
X1465737D2*
X1711701D1*
X1852491D2*
X2099949D1*
X2240739D2*
X2487441D1*
X2628231D2*
X2759972D1*
X415409Y4116923D2*
X1324947D1*
X1465737D2*
X1711701D1*
X1852491D2*
X2099949D1*
X2240739D2*
X2487441D1*
X2628231D2*
X2759972D1*
X415409Y4108054D2*
X1324947D1*
X1465737D2*
X1711701D1*
X1852491D2*
X2099949D1*
X2240739D2*
X2487441D1*
X2628231D2*
X2759954D1*
X415409Y4099185D2*
X1324947D1*
X1465737D2*
X1711701D1*
X1852491D2*
X2099949D1*
X2240739D2*
X2487441D1*
X2628231D2*
X2759937D1*
X415409Y4090316D2*
X1324947D1*
X1465737D2*
X1711701D1*
X1852491D2*
X2099949D1*
X2240739D2*
X2487441D1*
X2628231D2*
X2759919D1*
X415409Y4081448D2*
X1324947D1*
X1465737D2*
X1711701D1*
X1852491D2*
X2099949D1*
X2240739D2*
X2487441D1*
X2628231D2*
X2759902D1*
X415409Y4072579D2*
X1324947D1*
X1465737D2*
X1711701D1*
X1852491D2*
X2099949D1*
X2240739D2*
X2487441D1*
X2628231D2*
X2759884D1*
X415409Y4063710D2*
X1324947D1*
X1465737D2*
X1711701D1*
X1852491D2*
X2099949D1*
X2240739D2*
X2487441D1*
X2628231D2*
X2759867D1*
X415409Y4054841D2*
X1324947D1*
X1465737D2*
X1711701D1*
X1852491D2*
X2099949D1*
X2240739D2*
X2487441D1*
X2628231D2*
X2759849D1*
X415409Y4045972D2*
X1324947D1*
X1465737D2*
X1711701D1*
X1852491D2*
X2099949D1*
X2240739D2*
X2487441D1*
X2628231D2*
X2759831D1*
X415409Y4037104D2*
X1324947D1*
X1465737D2*
X1711701D1*
X1852491D2*
X2099949D1*
X2240739D2*
X2487441D1*
X2628231D2*
X2759814D1*
X415409Y4028235D2*
X1324947D1*
X1465737D2*
X1711701D1*
X1852491D2*
X2099949D1*
X2240739D2*
X2487441D1*
X2628231D2*
X2759796D1*
X415409Y4019366D2*
X1324947D1*
X1465737D2*
X1711701D1*
X1852491D2*
X2099949D1*
X2240739D2*
X2487441D1*
X2628231D2*
X2759779D1*
X415409Y4010497D2*
X1324947D1*
X1465737D2*
X1711701D1*
X1852491D2*
X2099949D1*
X2240739D2*
X2487441D1*
X2628231D2*
X2759761D1*
X415409Y4001629D2*
X1324947D1*
X1465737D2*
X1711701D1*
X1852491D2*
X2099949D1*
X2240739D2*
X2487441D1*
X2628231D2*
X2759744D1*
X415409Y3992760D2*
X1324947D1*
X1465737D2*
X1711701D1*
X1852491D2*
X2099949D1*
X2240739D2*
X2487441D1*
X2628231D2*
X2759726D1*
X415409Y3983891D2*
X1324947D1*
X1465737D2*
X1711701D1*
X1852491D2*
X2099949D1*
X2240739D2*
X2487441D1*
X2628231D2*
X2759708D1*
X415409Y3975022D2*
X1324947D1*
X1465737D2*
X1711701D1*
X1852491D2*
X2099949D1*
X2240739D2*
X2487441D1*
X2628231D2*
X2759691D1*
X415409Y3966154D2*
X1324947D1*
X1465737D2*
X1711701D1*
X1852491D2*
X2099949D1*
X2240739D2*
X2487441D1*
X2628231D2*
X2759673D1*
X415409Y3957285D2*
X1324947D1*
X1465737D2*
X1711701D1*
X1852491D2*
X2099949D1*
X2240739D2*
X2487441D1*
X2628231D2*
X2759656D1*
X415409Y3948416D2*
X1324947D1*
X1465737D2*
X1711701D1*
X1852491D2*
X2099949D1*
X2240739D2*
X2487441D1*
X2628231D2*
X2759638D1*
X415409Y3939547D2*
X1324947D1*
X1465737D2*
X1711701D1*
X1852491D2*
X2099949D1*
X2240739D2*
X2487441D1*
X2628231D2*
X2759620D1*
X415409Y3930678D2*
X1324947D1*
X1465737D2*
X1711701D1*
X1852491D2*
X2099949D1*
X2240739D2*
X2487441D1*
X2628231D2*
X2759603D1*
X415409Y3921810D2*
X1324947D1*
X1465737D2*
X1711701D1*
X1852491D2*
X2099949D1*
X2240739D2*
X2487441D1*
X2628231D2*
X2759585D1*
X415409Y3912941D2*
X1324947D1*
X1465737D2*
X1711701D1*
X1852491D2*
X2099949D1*
X2240739D2*
X2487441D1*
X2628231D2*
X2759568D1*
X415409Y3904072D2*
X1324947D1*
X1465737D2*
X1711701D1*
X1852491D2*
X2099949D1*
X2240739D2*
X2487441D1*
X2628231D2*
X2759550D1*
X415409Y3895203D2*
X1324947D1*
X1465737D2*
X1711701D1*
X1852491D2*
X2099949D1*
X2240739D2*
X2487441D1*
X2628231D2*
X2759533D1*
X415409Y3886335D2*
X1324947D1*
X1465737D2*
X1711701D1*
X1852491D2*
X2099949D1*
X2240739D2*
X2487441D1*
X2628231D2*
X2759515D1*
X415409Y3877466D2*
X1324947D1*
X1465737D2*
X1711701D1*
X1852491D2*
X2099949D1*
X2240739D2*
X2487441D1*
X2628231D2*
X2759497D1*
X415409Y3868597D2*
X1324947D1*
X1465737D2*
X1711701D1*
X1852491D2*
X2099949D1*
X2240739D2*
X2487441D1*
X2628231D2*
X2759480D1*
X415409Y3859728D2*
X1324947D1*
X1465737D2*
X1711701D1*
X1852491D2*
X2099949D1*
X2240739D2*
X2487441D1*
X2628231D2*
X2759462D1*
X415409Y3850860D2*
X1324947D1*
X1465737D2*
X1711701D1*
X1852491D2*
X2099949D1*
X2240739D2*
X2487441D1*
X2628231D2*
X2759445D1*
X415409Y3841991D2*
X1324947D1*
X1465737D2*
X1711701D1*
X1852491D2*
X2099949D1*
X2240739D2*
X2487441D1*
X2628231D2*
X2759427D1*
X415409Y3833122D2*
X1324947D1*
X1465737D2*
X1711701D1*
X1852491D2*
X2099949D1*
X2240739D2*
X2487441D1*
X2628231D2*
X2759410D1*
X415409Y3824253D2*
X1324947D1*
X1465737D2*
X1711701D1*
X1852491D2*
X2099949D1*
X2240739D2*
X2487441D1*
X2628231D2*
X2759392D1*
X415409Y3815385D2*
X1324947D1*
X1465737D2*
X1711701D1*
X1852491D2*
X2099949D1*
X2240739D2*
X2487441D1*
X2628231D2*
X2759374D1*
X415409Y3806516D2*
X1324947D1*
X1465737D2*
X1711701D1*
X1852491D2*
X2099949D1*
X2240739D2*
X2487441D1*
X2628231D2*
X2759357D1*
X415409Y3797647D2*
X1324947D1*
X1465737D2*
X1711701D1*
X1852491D2*
X2099949D1*
X2240739D2*
X2487441D1*
X2628231D2*
X2759339D1*
X415409Y3788778D2*
X1324947D1*
X1465737D2*
X1711701D1*
X1852491D2*
X2099949D1*
X2240739D2*
X2487441D1*
X2628231D2*
X2759322D1*
X415409Y3779909D2*
X1324947D1*
X1465737D2*
X1711701D1*
X1852491D2*
X2099949D1*
X2240739D2*
X2487441D1*
X2628231D2*
X2759304D1*
X415409Y3771041D2*
X1324947D1*
X1465737D2*
X1711701D1*
X1852491D2*
X2099949D1*
X2240739D2*
X2487441D1*
X2628231D2*
X2759287D1*
X415409Y3762172D2*
X743990D1*
X834014D2*
X1324947D1*
X1465737D2*
X1711701D1*
X1852491D2*
X2099949D1*
X2240739D2*
X2487441D1*
X2628231D2*
X2759269D1*
X415409Y3753303D2*
X718466D1*
X859538D2*
X1324947D1*
X1465737D2*
X1711701D1*
X1852491D2*
X2099949D1*
X2240739D2*
X2487441D1*
X2628231D2*
X2759251D1*
X415409Y3744434D2*
X700941D1*
X877063D2*
X1324947D1*
X1465737D2*
X1711701D1*
X1852491D2*
X2099949D1*
X2240739D2*
X2487441D1*
X2628231D2*
X2759234D1*
X415409Y3735566D2*
X687177D1*
X890827D2*
X1324947D1*
X1465737D2*
X1711701D1*
X1852491D2*
X2099949D1*
X2240739D2*
X2487441D1*
X2628231D2*
X2759216D1*
X415409Y3726697D2*
X675769D1*
X902235D2*
X1324947D1*
X1465737D2*
X1711701D1*
X1852491D2*
X2099949D1*
X2240739D2*
X2487441D1*
X2628231D2*
X2759199D1*
X415409Y3717828D2*
X666066D1*
X911938D2*
X1324947D1*
X1465737D2*
X1711701D1*
X1852491D2*
X2099949D1*
X2240739D2*
X2487441D1*
X2628231D2*
X2759181D1*
X415409Y3708959D2*
X657663D1*
X920323D2*
X1324947D1*
X1465737D2*
X1711701D1*
X1852491D2*
X2099949D1*
X2240739D2*
X2487441D1*
X2628231D2*
X2759163D1*
X415409Y3700091D2*
X650369D1*
X927635D2*
X1324947D1*
X1465737D2*
X1711701D1*
X1852491D2*
X2099949D1*
X2240739D2*
X2487441D1*
X2628231D2*
X2759146D1*
X415409Y3691222D2*
X643970D1*
X934034D2*
X1324947D1*
X1465737D2*
X1711701D1*
X1852491D2*
X2099949D1*
X2240739D2*
X2487441D1*
X2628231D2*
X2759128D1*
X415409Y3682353D2*
X638363D1*
X939641D2*
X1324947D1*
X1465737D2*
X1711701D1*
X1852491D2*
X2099949D1*
X2240739D2*
X2487441D1*
X2628231D2*
X2759111D1*
X415409Y3673484D2*
X633476D1*
X944528D2*
X1324947D1*
X1465737D2*
X1711701D1*
X1852491D2*
X2099949D1*
X2240739D2*
X2487441D1*
X2628231D2*
X2759093D1*
X415409Y3664616D2*
X629222D1*
X948782D2*
X1324947D1*
X1465737D2*
X1711701D1*
X1852491D2*
X2099949D1*
X2240739D2*
X2487441D1*
X2628231D2*
X2759076D1*
X415409Y3655747D2*
X625566D1*
X952420D2*
X1324947D1*
X1465737D2*
X1711701D1*
X1852491D2*
X2099949D1*
X2240739D2*
X2487441D1*
X2628231D2*
X2759058D1*
X415409Y3646878D2*
X622472D1*
X955532D2*
X1324947D1*
X1465737D2*
X1711701D1*
X1852491D2*
X2099949D1*
X2240739D2*
X2487441D1*
X2628231D2*
X2759040D1*
X415409Y3638009D2*
X619906D1*
X958098D2*
X1324947D1*
X1465737D2*
X1711701D1*
X1852491D2*
X2099949D1*
X2240739D2*
X2487441D1*
X2628231D2*
X2759023D1*
X415409Y3629140D2*
X617831D1*
X960172D2*
X1324947D1*
X1465737D2*
X1711701D1*
X1852491D2*
X2099949D1*
X2240739D2*
X2487441D1*
X2628231D2*
X2759005D1*
X415409Y3620272D2*
X616232D1*
X961772D2*
X1324947D1*
X1465737D2*
X1711701D1*
X1852491D2*
X2099949D1*
X2240739D2*
X2487441D1*
X2628231D2*
X2758988D1*
X415409Y3611403D2*
X615107D1*
X962879D2*
X1324947D1*
X1465737D2*
X1711701D1*
X1852491D2*
X2099949D1*
X2240739D2*
X2487441D1*
X2628231D2*
X2758970D1*
X415409Y3602534D2*
X614456D1*
X963547D2*
X1324947D1*
X1465737D2*
X1711701D1*
X1852491D2*
X2099949D1*
X2240739D2*
X2487441D1*
X2628231D2*
X2758953D1*
X415409Y3593665D2*
X614245D1*
X963758D2*
X1324947D1*
X1465737D2*
X1711701D1*
X1852491D2*
X2099949D1*
X2240739D2*
X2487441D1*
X2628231D2*
X2758935D1*
X415409Y3584797D2*
X614492D1*
X963512D2*
X1324947D1*
X1465737D2*
X1711701D1*
X1852491D2*
X2099949D1*
X2240739D2*
X2487441D1*
X2628231D2*
X2758917D1*
X415409Y3575928D2*
X615177D1*
X962827D2*
X1324947D1*
X1465737D2*
X1711701D1*
X1852491D2*
X2099949D1*
X2240739D2*
X2487441D1*
X2628231D2*
X2758900D1*
X415409Y3567059D2*
X616337D1*
X961667D2*
X1324947D1*
X1465737D2*
X1711701D1*
X1852491D2*
X2099949D1*
X2240739D2*
X2487441D1*
X2628231D2*
X2758882D1*
X415409Y3558190D2*
X617972D1*
X960032D2*
X1324947D1*
X1465737D2*
X1711701D1*
X1852491D2*
X2099949D1*
X2240739D2*
X2487441D1*
X2628231D2*
X2758865D1*
X415409Y3549322D2*
X620081D1*
X957922D2*
X1324947D1*
X1465737D2*
X1711701D1*
X1852491D2*
X2099949D1*
X2240739D2*
X2487441D1*
X2628231D2*
X2758847D1*
X415409Y3540453D2*
X622683D1*
X955303D2*
X1324947D1*
X1465737D2*
X1711701D1*
X1852491D2*
X2099949D1*
X2240739D2*
X2487441D1*
X2628231D2*
X2758829D1*
X415409Y3531584D2*
X625829D1*
X952174D2*
X1324947D1*
X1465737D2*
X1711701D1*
X1852491D2*
X2099949D1*
X2240739D2*
X2487441D1*
X2628231D2*
X2758812D1*
X415409Y3522715D2*
X629521D1*
X948483D2*
X1324947D1*
X1465737D2*
X1711701D1*
X1852491D2*
X2099949D1*
X2240739D2*
X2487441D1*
X2628231D2*
X2758794D1*
X415409Y3513846D2*
X633810D1*
X944176D2*
X1324947D1*
X1465737D2*
X1711701D1*
X1852491D2*
X2099949D1*
X2240739D2*
X2487441D1*
X2628231D2*
X2758777D1*
X415409Y3504978D2*
X638767D1*
X939237D2*
X1324947D1*
X1465737D2*
X1711701D1*
X1852491D2*
X2099949D1*
X2240739D2*
X2487441D1*
X2628231D2*
X2758759D1*
X415409Y3496109D2*
X644410D1*
X933577D2*
X1324947D1*
X1465737D2*
X1711701D1*
X1852491D2*
X2099949D1*
X2240739D2*
X2487441D1*
X2628231D2*
X2758742D1*
X415409Y3487240D2*
X650878D1*
X927126D2*
X1324947D1*
X1465737D2*
X1711701D1*
X1852491D2*
X2099949D1*
X2240739D2*
X2487441D1*
X2628231D2*
X2758724D1*
X415409Y3478371D2*
X658261D1*
X919743D2*
X1324947D1*
X1465737D2*
X1711701D1*
X1852491D2*
X2099949D1*
X2240739D2*
X2487441D1*
X2628231D2*
X2758706D1*
X415409Y3469503D2*
X666734D1*
X911253D2*
X1324947D1*
X1465737D2*
X1711701D1*
X1852491D2*
X2099949D1*
X2240739D2*
X2487441D1*
X2628231D2*
X2758689D1*
X415409Y3460634D2*
X676560D1*
X901444D2*
X1324947D1*
X1465737D2*
X1711701D1*
X1852491D2*
X2099949D1*
X2240739D2*
X2487441D1*
X2628231D2*
X2758671D1*
X415409Y3451765D2*
X688109D1*
X889878D2*
X1324947D1*
X1465737D2*
X1711701D1*
X1852491D2*
X2099949D1*
X2240739D2*
X2487441D1*
X2628231D2*
X2758654D1*
X415409Y3442896D2*
X702101D1*
X875885D2*
X1324947D1*
X1465737D2*
X1711701D1*
X1852491D2*
X2099949D1*
X2240739D2*
X2487441D1*
X2628231D2*
X2758636D1*
X415409Y3434028D2*
X720013D1*
X857991D2*
X1324947D1*
X1465737D2*
X1711701D1*
X1852491D2*
X2099949D1*
X2240739D2*
X2487441D1*
X2628231D2*
X2758619D1*
X415409Y3425159D2*
X746626D1*
X831378D2*
X1324947D1*
X1465737D2*
X1711701D1*
X1852491D2*
X2099949D1*
X2240739D2*
X2487441D1*
X2628231D2*
X2758601D1*
X415409Y3416290D2*
X1324947D1*
X1465737D2*
X1711701D1*
X1852491D2*
X2099949D1*
X2240739D2*
X2487441D1*
X2628231D2*
X2758583D1*
X415409Y3407421D2*
X1324947D1*
X1465737D2*
X1711701D1*
X1852491D2*
X2099949D1*
X2240739D2*
X2487441D1*
X2628231D2*
X2758566D1*
X415409Y3398553D2*
X1324947D1*
X1465737D2*
X1711701D1*
X1852491D2*
X2099949D1*
X2240739D2*
X2487441D1*
X2628231D2*
X2758548D1*
X415409Y3389684D2*
X1324947D1*
X1465737D2*
X1711701D1*
X1852491D2*
X2099949D1*
X2240739D2*
X2487441D1*
X2628231D2*
X2758531D1*
X415409Y3380815D2*
X1324947D1*
X1465737D2*
X1711701D1*
X1852491D2*
X2099949D1*
X2240739D2*
X2487441D1*
X2628231D2*
X2758513D1*
X415409Y3371946D2*
X1324947D1*
X1465737D2*
X1711701D1*
X1852491D2*
X2099949D1*
X2240739D2*
X2487441D1*
X2628231D2*
X2758495D1*
X415409Y3363077D2*
X1324947D1*
X1465737D2*
X1711701D1*
X1852491D2*
X2099949D1*
X2240739D2*
X2487441D1*
X2628231D2*
X2758478D1*
X415409Y3354209D2*
X1324947D1*
X1465737D2*
X1711701D1*
X1852491D2*
X2099949D1*
X2240739D2*
X2487441D1*
X2628231D2*
X2758460D1*
X415409Y3345340D2*
X1324947D1*
X1465737D2*
X1711701D1*
X1852491D2*
X2099949D1*
X2240739D2*
X2487441D1*
X2628231D2*
X2758443D1*
X415409Y3336471D2*
X1324947D1*
X1465737D2*
X1711701D1*
X1852491D2*
X2099949D1*
X2240739D2*
X2487441D1*
X2628231D2*
X2758425D1*
X415409Y3327602D2*
X1324947D1*
X1465737D2*
X1711701D1*
X1852491D2*
X2099949D1*
X2240739D2*
X2487441D1*
X2628231D2*
X2758408D1*
X415409Y3318734D2*
X1324947D1*
X1465737D2*
X1711701D1*
X1852491D2*
X2099949D1*
X2240739D2*
X2487441D1*
X2628231D2*
X2758390D1*
X415409Y3309865D2*
X1324947D1*
X1465737D2*
X1711701D1*
X1852491D2*
X2099949D1*
X2240739D2*
X2487441D1*
X2628231D2*
X2758372D1*
X415409Y3300996D2*
X1324947D1*
X1465737D2*
X1711701D1*
X1852491D2*
X2099949D1*
X2240739D2*
X2487441D1*
X2628231D2*
X2758355D1*
X415409Y3292127D2*
X1324947D1*
X1465737D2*
X1711701D1*
X1852491D2*
X2099949D1*
X2240739D2*
X2487441D1*
X2628231D2*
X2758337D1*
X415409Y3283259D2*
X1324947D1*
X1465737D2*
X1711701D1*
X1852491D2*
X2099949D1*
X2240739D2*
X2487441D1*
X2628231D2*
X2758320D1*
X415409Y3274390D2*
X1324947D1*
X1465737D2*
X1711701D1*
X1852491D2*
X2099949D1*
X2240739D2*
X2487441D1*
X2628231D2*
X2758302D1*
X415409Y3265521D2*
X1324947D1*
X1465737D2*
X1711701D1*
X1852491D2*
X2099949D1*
X2240739D2*
X2487441D1*
X2628231D2*
X2758285D1*
X415409Y3256652D2*
X1324947D1*
X1465737D2*
X1711701D1*
X1852491D2*
X2099949D1*
X2240739D2*
X2487441D1*
X2628231D2*
X2758267D1*
X415409Y3247783D2*
X1324947D1*
X1465737D2*
X1711701D1*
X1852491D2*
X2099949D1*
X2240739D2*
X2487441D1*
X2628231D2*
X2758249D1*
X415409Y3238915D2*
X1324947D1*
X1465737D2*
X1711701D1*
X1852491D2*
X2099949D1*
X2240739D2*
X2487441D1*
X2628231D2*
X2758232D1*
X415409Y3230046D2*
X1324947D1*
X1465737D2*
X1711701D1*
X1852491D2*
X2099949D1*
X2240739D2*
X2487441D1*
X2628231D2*
X2758214D1*
X415409Y3221177D2*
X1324947D1*
X1465737D2*
X1711701D1*
X1852491D2*
X2099949D1*
X2240739D2*
X2487441D1*
X2628231D2*
X2758197D1*
X415409Y3212308D2*
X1324947D1*
X1465737D2*
X1711701D1*
X1852491D2*
X2099949D1*
X2240739D2*
X2487441D1*
X2628231D2*
X2758179D1*
X415409Y3203440D2*
X1324947D1*
X1465737D2*
X1711701D1*
X1852491D2*
X2099949D1*
X2240739D2*
X2487441D1*
X2628231D2*
X2758162D1*
X415409Y3194571D2*
X1324947D1*
X1465737D2*
X1711701D1*
X1852491D2*
X2099949D1*
X2240739D2*
X2487441D1*
X2628231D2*
X2758144D1*
X415409Y3185702D2*
X1324947D1*
X1465737D2*
X1711701D1*
X1852491D2*
X2099949D1*
X2240739D2*
X2487441D1*
X2628231D2*
X2758126D1*
X415409Y3176833D2*
X1324947D1*
X1465737D2*
X1711701D1*
X1852491D2*
X2099949D1*
X2240739D2*
X2487441D1*
X2628231D2*
X2758109D1*
X415409Y3167965D2*
X1324947D1*
X1465737D2*
X1711701D1*
X1852491D2*
X2099949D1*
X2240739D2*
X2487441D1*
X2628231D2*
X2758091D1*
X415409Y3159096D2*
X1324947D1*
X1465737D2*
X1711701D1*
X1852491D2*
X2099949D1*
X2240739D2*
X2487441D1*
X2628231D2*
X2758074D1*
X415409Y3150227D2*
X1324999D1*
X1465684D2*
X1711718D1*
X1852473D2*
X2100001D1*
X2240686D2*
X2487494D1*
X2628196D2*
X2758056D1*
X415409Y3141358D2*
X1327847D1*
X1462837D2*
X1714320D1*
X1849872D2*
X2102849D1*
X2237838D2*
X2490341D1*
X2625348D2*
X2758038D1*
X415409Y3132490D2*
X1340486D1*
X1450215D2*
X1725482D1*
X1838710D2*
X2115470D1*
X2225200D2*
X2502980D1*
X2612710D2*
X2758021D1*
X415409Y3123621D2*
X2758003D1*
X415409Y3114752D2*
X2757986D1*
X415409Y3105883D2*
X2757968D1*
X415409Y3097014D2*
X2757951D1*
X415409Y3088146D2*
X2757933D1*
X415409Y3079277D2*
X2757915D1*
X415409Y3070408D2*
X2757898D1*
X415409Y3061539D2*
X2757880D1*
X415409Y3052671D2*
X2757863D1*
X415409Y3043802D2*
X2757845D1*
X415409Y3034933D2*
X2757828D1*
X415409Y3026064D2*
X2757810D1*
X415409Y3017196D2*
X2757792D1*
X415409Y3008327D2*
X2757775D1*
X415409Y2999458D2*
X2757757D1*
X415409Y2990589D2*
X2757740D1*
X415409Y2981720D2*
X2757722D1*
X415409Y2972852D2*
X2757704D1*
X415409Y2963983D2*
X2757687D1*
X415409Y2955114D2*
X2757669D1*
X415409Y2946245D2*
X466712D1*
X498782D2*
X2757652D1*
X415409Y2937377D2*
X464497D1*
X501014D2*
X2757634D1*
X415409Y2928508D2*
X464497D1*
X501014D2*
X2757617D1*
X415409Y2919639D2*
X464497D1*
X501014D2*
X2757599D1*
X415409Y2910770D2*
X464497D1*
X501014D2*
X2757581D1*
X415409Y2901902D2*
X464497D1*
X501014D2*
X2757564D1*
X415409Y2893033D2*
X464497D1*
X501014D2*
X2757546D1*
X415409Y2884164D2*
X464497D1*
X501014D2*
X2757529D1*
X415409Y2875295D2*
X464497D1*
X501014D2*
X2757511D1*
X415409Y2866427D2*
X464497D1*
X501014D2*
X2757494D1*
X415409Y2857558D2*
X464497D1*
X501014D2*
X2757476D1*
X415409Y2848689D2*
X464497D1*
X501014D2*
X2757458D1*
X415409Y2839820D2*
X464497D1*
X501014D2*
X2757441D1*
X415409Y2830951D2*
X464497D1*
X501014D2*
X2757423D1*
X415409Y2822083D2*
X464497D1*
X501014D2*
X2757406D1*
X415409Y2813214D2*
X464497D1*
X501489D2*
X2757388D1*
X415409Y2804345D2*
X464620D1*
X510348D2*
X2757370D1*
X415409Y2795476D2*
X468435D1*
X519225D2*
X2757353D1*
X415409Y2786608D2*
X477189D1*
X525237D2*
X2757335D1*
X415409Y2777739D2*
X486066D1*
X525606D2*
X2757318D1*
X415409Y2768870D2*
X494943D1*
X520561D2*
X2757300D1*
X415409Y2760001D2*
X711417D1*
X816577D2*
X1261419D1*
X1366579D2*
X1811421D1*
X1916581D2*
X2361423D1*
X2466583D2*
X2757283D1*
X415409Y2751133D2*
X688689D1*
X839305D2*
X1238691D1*
X1389307D2*
X1788693D1*
X1939309D2*
X2338695D1*
X2489311D2*
X2757265D1*
X415409Y2742264D2*
X672288D1*
X855706D2*
X1222290D1*
X1405708D2*
X1772292D1*
X1955710D2*
X2322294D1*
X2505712D2*
X2757247D1*
X415409Y2733395D2*
X659193D1*
X868801D2*
X1209195D1*
X1418803D2*
X1759197D1*
X1968805D2*
X2309199D1*
X2518807D2*
X2757230D1*
X415409Y2724526D2*
X648259D1*
X879753D2*
X1198244D1*
X1429754D2*
X1748245D1*
X1979756D2*
X2298247D1*
X2529741D2*
X2757212D1*
X415409Y2715657D2*
X638890D1*
X889104D2*
X1188892D1*
X1439106D2*
X1738894D1*
X1989108D2*
X2288896D1*
X2539110D2*
X2757195D1*
X415409Y2706789D2*
X630787D1*
X897208D2*
X1180788D1*
X1447210D2*
X1730790D1*
X1997212D2*
X2280792D1*
X2547213D2*
X2757177D1*
X415409Y2697920D2*
X623720D1*
X904292D2*
X1173722D1*
X1454276D2*
X1723724D1*
X2004278D2*
X2273708D1*
X2554280D2*
X2757160D1*
X415409Y2689051D2*
X617515D1*
X910479D2*
X1167517D1*
X1460481D2*
X1717519D1*
X2010483D2*
X2267521D1*
X2560485D2*
X2757142D1*
X415409Y2680182D2*
X612101D1*
X915893D2*
X1162103D1*
X1465895D2*
X1712105D1*
X2015897D2*
X2262107D1*
X2565899D2*
X2757124D1*
X415409Y2671314D2*
X607372D1*
X920622D2*
X1157374D1*
X1470624D2*
X1707376D1*
X2020626D2*
X2257378D1*
X2570628D2*
X2757107D1*
X415409Y2662445D2*
X603277D1*
X924717D2*
X1153279D1*
X1474719D2*
X1703281D1*
X2024721D2*
X2253283D1*
X2574723D2*
X2757089D1*
X415409Y2653576D2*
X599761D1*
X928233D2*
X1149763D1*
X1478235D2*
X1699765D1*
X2028237D2*
X2249767D1*
X2578239D2*
X2757072D1*
X415409Y2644707D2*
X596790D1*
X931204D2*
X1146792D1*
X1481206D2*
X1696794D1*
X2031208D2*
X2246796D1*
X2581210D2*
X2757054D1*
X415409Y2635839D2*
X594347D1*
X933647D2*
X1144349D1*
X1483649D2*
X1694351D1*
X2033651D2*
X2244353D1*
X2583653D2*
X2757037D1*
X415409Y2626970D2*
X592396D1*
X935598D2*
X1142398D1*
X1485600D2*
X1692400D1*
X2035602D2*
X2242402D1*
X2585604D2*
X2757019D1*
X415409Y2618101D2*
X590919D1*
X937075D2*
X1140921D1*
X1487077D2*
X1690923D1*
X2037079D2*
X2240925D1*
X2587081D2*
X2757001D1*
X415409Y2609232D2*
X589900D1*
X938094D2*
X1139902D1*
X1488096D2*
X1689904D1*
X2038098D2*
X2239906D1*
X2588100D2*
X2756984D1*
X415409Y2600364D2*
X589355D1*
X938639D2*
X1139357D1*
X1488641D2*
X1689359D1*
X2038643D2*
X2239361D1*
X2588645D2*
X2756966D1*
X415409Y2591495D2*
X589249D1*
X938745D2*
X1139251D1*
X1488747D2*
X1689253D1*
X2038749D2*
X2239255D1*
X2588751D2*
X2756949D1*
X415409Y2582626D2*
X589619D1*
X938393D2*
X1139620D1*
X1488395D2*
X1689605D1*
X2038379D2*
X2239607D1*
X2588381D2*
X2756931D1*
X415409Y2573757D2*
X590427D1*
X937585D2*
X1140429D1*
X1487569D2*
X1690431D1*
X2037571D2*
X2240415D1*
X2587573D2*
X2756913D1*
X415409Y2564888D2*
X591693D1*
X936301D2*
X1141695D1*
X1486303D2*
X1691697D1*
X2036305D2*
X2241699D1*
X2586307D2*
X2756896D1*
X415409Y2556020D2*
X593433D1*
X934561D2*
X1143435D1*
X1484563D2*
X1693437D1*
X2034565D2*
X2243439D1*
X2584567D2*
X2756878D1*
X415409Y2547151D2*
X595665D1*
X932329D2*
X1145667D1*
X1482331D2*
X1695669D1*
X2032333D2*
X2245671D1*
X2582335D2*
X2756861D1*
X415409Y2538282D2*
X598408D1*
X929587D2*
X1148410D1*
X1479588D2*
X1698412D1*
X2029590D2*
X2248413D1*
X2579592D2*
X2756843D1*
X415409Y2529413D2*
X601677D1*
X926317D2*
X1151679D1*
X1476319D2*
X1701681D1*
X2026321D2*
X2251683D1*
X2576323D2*
X2756826D1*
X415409Y2520545D2*
X605527D1*
X922485D2*
X1155511D1*
X1472487D2*
X1705513D1*
X2022489D2*
X2255515D1*
X2572473D2*
X2756808D1*
X415409Y2511676D2*
X609974D1*
X918038D2*
X1159958D1*
X1468040D2*
X1709960D1*
X2018042D2*
X2259962D1*
X2568026D2*
X2756790D1*
X415409Y2502807D2*
X615072D1*
X912922D2*
X1165074D1*
X1462924D2*
X1715076D1*
X2012926D2*
X2265078D1*
X2562928D2*
X2756773D1*
X415409Y2493938D2*
X620925D1*
X907087D2*
X1170927D1*
X1457071D2*
X1720929D1*
X2007073D2*
X2270913D1*
X2557075D2*
X2756755D1*
X415409Y2485070D2*
X627587D1*
X900407D2*
X1177589D1*
X1450409D2*
X1727591D1*
X2000411D2*
X2277593D1*
X2550413D2*
X2756738D1*
X415409Y2476201D2*
X635234D1*
X892778D2*
X1185236D1*
X1442762D2*
X1735238D1*
X1992764D2*
X2285222D1*
X2542766D2*
X2756720D1*
X415409Y2467332D2*
X644005D1*
X883989D2*
X1194007D1*
X1433991D2*
X1744009D1*
X1983993D2*
X2294011D1*
X2533995D2*
X2756703D1*
X415409Y2458463D2*
X654218D1*
X873794D2*
X1204203D1*
X1423795D2*
X1754204D1*
X1973797D2*
X2304206D1*
X2523782D2*
X2756685D1*
X415409Y2449595D2*
X666277D1*
X861717D2*
X1216279D1*
X1411719D2*
X1766281D1*
X1961721D2*
X2316283D1*
X2511723D2*
X2756667D1*
X415409Y2440726D2*
X681042D1*
X846969D2*
X1231044D1*
X1396971D2*
X1781029D1*
X1946956D2*
X2331031D1*
X2496958D2*
X2756650D1*
X415409Y2431857D2*
X700361D1*
X827651D2*
X1250363D1*
X1377653D2*
X1800347D1*
X1927637D2*
X2350349D1*
X2477639D2*
X2756632D1*
X415409Y2422988D2*
X731755D1*
X796239D2*
X1281757D1*
X1346241D2*
X1831759D1*
X1896243D2*
X2381761D1*
X2446245D2*
X2756615D1*
X415409Y2414119D2*
X2756597D1*
X415409Y2405251D2*
X2756579D1*
X415409Y2396382D2*
X2756562D1*
X415409Y2387513D2*
X2756544D1*
X415409Y2378644D2*
X2756527D1*
X415409Y2369776D2*
X2756509D1*
X415409Y2360907D2*
X2756492D1*
X415409Y2352038D2*
X2756474D1*
X415409Y2343169D2*
X2756456D1*
X415409Y2334301D2*
X2756439D1*
X415409Y2325432D2*
X2756421D1*
X415409Y2316563D2*
X2756404D1*
X415409Y2307694D2*
X2756386D1*
X415409Y2298825D2*
X2756369D1*
X415409Y2289957D2*
X2756351D1*
X415409Y2281088D2*
X2756333D1*
X415409Y2272219D2*
X2756316D1*
X415409Y2263350D2*
X2756298D1*
X415409Y2254482D2*
X2756281D1*
X415409Y2245613D2*
X2756263D1*
X415409Y2236744D2*
X2756245D1*
X415409Y2227875D2*
X2756228D1*
X415409Y2219007D2*
X2756210D1*
X415409Y2210138D2*
X2756193D1*
X415409Y2201269D2*
X2756175D1*
X415409Y2192400D2*
X2756158D1*
X415409Y2183532D2*
X2756140D1*
X415409Y2174663D2*
X2756122D1*
X415409Y2165794D2*
X2756105D1*
X415409Y2156925D2*
X2756087D1*
X415409Y2148056D2*
X2756070D1*
X415409Y2139188D2*
X2756052D1*
X415409Y2130319D2*
X2756035D1*
X415409Y2121450D2*
X2756017D1*
X415409Y2112581D2*
X720576D1*
X807419D2*
X1270578D1*
X1357420D2*
X1820579D1*
X1907422D2*
X2370581D1*
X2457424D2*
X2755999D1*
X415409Y2103713D2*
X694402D1*
X833592D2*
X1244404D1*
X1383594D2*
X1794406D1*
X1933596D2*
X2344408D1*
X2483598D2*
X2755982D1*
X415409Y2094844D2*
X676648D1*
X851346D2*
X1226650D1*
X1401348D2*
X1776652D1*
X1951350D2*
X2326654D1*
X2501352D2*
X2755964D1*
X415409Y2085975D2*
X662744D1*
X865251D2*
X1212745D1*
X1415253D2*
X1762747D1*
X1965254D2*
X2312749D1*
X2515256D2*
X2755947D1*
X415409Y2077106D2*
X651247D1*
X876747D2*
X1201249D1*
X1426749D2*
X1751251D1*
X1976751D2*
X2301253D1*
X2526753D2*
X2755929D1*
X415409Y2068238D2*
X641474D1*
X886520D2*
X1191476D1*
X1436522D2*
X1741478D1*
X1986524D2*
X2291480D1*
X2536526D2*
X2755912D1*
X415409Y2059369D2*
X633037D1*
X894975D2*
X1183038D1*
X1444960D2*
X1733040D1*
X1994962D2*
X2283025D1*
X2544963D2*
X2755894D1*
X415409Y2050500D2*
X625671D1*
X902323D2*
X1175673D1*
X1452325D2*
X1725675D1*
X2002327D2*
X2275677D1*
X2552329D2*
X2755876D1*
X415409Y2041631D2*
X619238D1*
X908756D2*
X1169240D1*
X1458758D2*
X1719242D1*
X2008760D2*
X2269244D1*
X2558762D2*
X2755859D1*
X415409Y2032762D2*
X613613D1*
X914399D2*
X1163597D1*
X1464401D2*
X1713599D1*
X2014403D2*
X2263601D1*
X2564387D2*
X2755841D1*
X415409Y2023894D2*
X608691D1*
X919321D2*
X1158693D1*
X1469323D2*
X1708677D1*
X2019307D2*
X2258679D1*
X2569309D2*
X2755824D1*
X415409Y2015025D2*
X604402D1*
X923592D2*
X1154404D1*
X1473594D2*
X1704406D1*
X2023596D2*
X2254408D1*
X2573598D2*
X2755806D1*
X415409Y2006156D2*
X600728D1*
X927266D2*
X1150730D1*
X1477268D2*
X1700732D1*
X2027270D2*
X2250734D1*
X2577272D2*
X2755788D1*
X415409Y1997287D2*
X597599D1*
X930395D2*
X1147601D1*
X1480397D2*
X1697603D1*
X2030399D2*
X2247605D1*
X2580401D2*
X2755771D1*
X415409Y1988419D2*
X595015D1*
X932997D2*
X1145017D1*
X1482999D2*
X1695001D1*
X2032983D2*
X2245003D1*
X2582985D2*
X2755753D1*
X415409Y1979550D2*
X592906D1*
X935088D2*
X1142908D1*
X1485090D2*
X1692910D1*
X2035092D2*
X2242912D1*
X2585094D2*
X2755736D1*
X415409Y1970681D2*
X591306D1*
X936706D2*
X1141308D1*
X1486708D2*
X1691292D1*
X2036692D2*
X2241294D1*
X2586694D2*
X2755718D1*
X415409Y1961812D2*
X590163D1*
X937848D2*
X1140148D1*
X1487850D2*
X1690150D1*
X2037852D2*
X2240152D1*
X2587837D2*
X2755701D1*
X415409Y1952944D2*
X589478D1*
X938534D2*
X1139462D1*
X1488536D2*
X1689464D1*
X2038538D2*
X2239466D1*
X2588522D2*
X2755683D1*
X415409Y1944075D2*
X589232D1*
X938762D2*
X1139234D1*
X1488764D2*
X1689236D1*
X2038766D2*
X2239238D1*
X2588768D2*
X2755665D1*
X415409Y1935206D2*
X589460D1*
X938534D2*
X1139462D1*
X1488536D2*
X1689464D1*
X2038538D2*
X2239466D1*
X2588540D2*
X2755648D1*
X415409Y1926337D2*
X590146D1*
X937866D2*
X1140148D1*
X1487868D2*
X1690132D1*
X2037852D2*
X2240134D1*
X2587854D2*
X2755630D1*
X415409Y1917469D2*
X591271D1*
X936723D2*
X1141273D1*
X1486725D2*
X1691275D1*
X2036727D2*
X2241277D1*
X2586729D2*
X2755613D1*
X415409Y1908600D2*
X592888D1*
X935124D2*
X1142890D1*
X1485126D2*
X1692874D1*
X2035110D2*
X2242876D1*
X2585112D2*
X2755595D1*
X415409Y1899731D2*
X594962D1*
X933032D2*
X1144964D1*
X1483034D2*
X1694966D1*
X2033036D2*
X2244968D1*
X2583038D2*
X2755578D1*
X415409Y1890862D2*
X597564D1*
X930448D2*
X1147566D1*
X1480432D2*
X1697568D1*
X2030434D2*
X2247552D1*
X2580436D2*
X2755560D1*
X415409Y1881993D2*
X600675D1*
X927319D2*
X1150677D1*
X1477321D2*
X1700679D1*
X2027323D2*
X2250681D1*
X2577325D2*
X2755542D1*
X415409Y1873125D2*
X604349D1*
X923663D2*
X1154351D1*
X1473665D2*
X1704335D1*
X2023649D2*
X2254337D1*
X2573651D2*
X2755525D1*
X415409Y1864256D2*
X608603D1*
X919391D2*
X1158605D1*
X1469393D2*
X1708607D1*
X2019395D2*
X2258609D1*
X2569397D2*
X2755507D1*
X415409Y1855387D2*
X613525D1*
X914487D2*
X1163509D1*
X1464489D2*
X1713511D1*
X2014491D2*
X2263513D1*
X2564475D2*
X2755490D1*
X415409Y1846518D2*
X619132D1*
X908862D2*
X1169134D1*
X1458864D2*
X1719136D1*
X2008866D2*
X2269138D1*
X2558868D2*
X2755472D1*
X415409Y1837650D2*
X625566D1*
X902446D2*
X1175568D1*
X1452430D2*
X1725570D1*
X2002432D2*
X2275554D1*
X2552434D2*
X2755454D1*
X415409Y1828781D2*
X632896D1*
X895098D2*
X1182898D1*
X1445100D2*
X1732900D1*
X1995102D2*
X2282902D1*
X2545104D2*
X2755437D1*
X415409Y1819912D2*
X641316D1*
X886678D2*
X1191318D1*
X1436680D2*
X1741320D1*
X1986682D2*
X2291322D1*
X2536684D2*
X2755419D1*
X415409Y1811043D2*
X651072D1*
X876922D2*
X1201074D1*
X1426924D2*
X1751076D1*
X1976926D2*
X2301078D1*
X2526928D2*
X2755402D1*
X415409Y1802175D2*
X662533D1*
X865462D2*
X1212535D1*
X1415463D2*
X1762537D1*
X1965465D2*
X2312538D1*
X2515467D2*
X2755384D1*
X415409Y1793306D2*
X676384D1*
X851610D2*
X1226386D1*
X1401612D2*
X1776388D1*
X1951614D2*
X2326390D1*
X2501616D2*
X2755367D1*
X415409Y1784437D2*
X694050D1*
X833944D2*
X1244052D1*
X1383946D2*
X1794054D1*
X1933948D2*
X2344056D1*
X2483950D2*
X2755349D1*
X415409Y1775568D2*
X719995D1*
X807999D2*
X1269997D1*
X1358001D2*
X1819999D1*
X1908003D2*
X2370001D1*
X2458004D2*
X2755331D1*
X415409Y1766699D2*
X2755314D1*
X415409Y1757831D2*
X2755296D1*
X415409Y1748962D2*
X2755279D1*
X415409Y1740093D2*
X2755261D1*
X415409Y1731224D2*
X2755244D1*
X415409Y1722356D2*
X2755226D1*
X415409Y1713487D2*
X2755208D1*
X415409Y1704618D2*
X2755191D1*
X415409Y1695749D2*
X2755173D1*
X415409Y1686881D2*
X545954D1*
X644030D2*
X942904D1*
X1035108D2*
X1342894D1*
X1435098D2*
X1742902D1*
X1835106D2*
X2142892D1*
X2235096D2*
X2536888D1*
X2629110D2*
X2755156D1*
X415409Y1678012D2*
X521978D1*
X668024D2*
X917802D1*
X1060210D2*
X1317792D1*
X1460200D2*
X1717800D1*
X1860208D2*
X2117790D1*
X2260198D2*
X2511804D1*
X2654212D2*
X2755138D1*
X415409Y1669143D2*
X505050D1*
X684952D2*
X900435D1*
X1077559D2*
X1300443D1*
X1477567D2*
X1700433D1*
X1877557D2*
X2100441D1*
X2277565D2*
X2494437D1*
X2671561D2*
X2755120D1*
X415409Y1660274D2*
X491638D1*
X698364D2*
X886759D1*
X1091235D2*
X1286767D1*
X1491243D2*
X1686757D1*
X1891233D2*
X2086765D1*
X2291241D2*
X2480761D1*
X2685237D2*
X2755103D1*
X415409Y1651406D2*
X480476D1*
X709526D2*
X875421D1*
X1102573D2*
X1275429D1*
X1502581D2*
X1675419D1*
X1902571D2*
X2075427D1*
X2302579D2*
X2469423D1*
X2696575D2*
X2755085D1*
X415409Y1642537D2*
X470949D1*
X719053D2*
X865771D1*
X1112241D2*
X1265761D1*
X1512231D2*
X1665769D1*
X1912239D2*
X2065759D1*
X2312229D2*
X2459773D1*
X2706243D2*
X2755068D1*
X415409Y1633668D2*
X462704D1*
X727297D2*
X857421D1*
X1120590D2*
X1257412D1*
X1520581D2*
X1657419D1*
X1920588D2*
X2057410D1*
X2320579D2*
X2451423D1*
X2714592D2*
X2755050D1*
X415409Y1624799D2*
X455515D1*
X734487D2*
X850144D1*
X1127868D2*
X1250134D1*
X1527858D2*
X1650142D1*
X1927866D2*
X2050132D1*
X2327856D2*
X2444128D1*
X2721870D2*
X2755033D1*
X415409Y1615930D2*
X449222D1*
X740780D2*
X843763D1*
X1134231D2*
X1243771D1*
X1534239D2*
X1643761D1*
X1934229D2*
X2043769D1*
X2334237D2*
X2437765D1*
X2728233D2*
X2755015D1*
X415409Y1607062D2*
X443720D1*
X746282D2*
X838191D1*
X1139803D2*
X1238199D1*
X1539811D2*
X1638189D1*
X1939801D2*
X2038197D1*
X2339809D2*
X2432193D1*
X2733805D2*
X2754997D1*
X415409Y1598193D2*
X438904D1*
X751098D2*
X833322D1*
X1144672D2*
X1233329D1*
X1544680D2*
X1633320D1*
X1944670D2*
X2033328D1*
X2344678D2*
X2427324D1*
X2738674D2*
X2754980D1*
X415409Y1589324D2*
X434738D1*
X755264D2*
X829103D1*
X1148909D2*
X1229093D1*
X1548899D2*
X1629101D1*
X1948907D2*
X2029091D1*
X2348897D2*
X2423105D1*
X2742911D2*
X2754962D1*
X415409Y1580455D2*
X431152D1*
X758850D2*
X825464D1*
X1152530D2*
X1225472D1*
X1552538D2*
X1625462D1*
X1952528D2*
X2025470D1*
X2352536D2*
X2419466D1*
X2746532D2*
X2754945D1*
X415409Y1571587D2*
X428128D1*
X761874D2*
X822388D1*
X1155624D2*
X1222378D1*
X1555614D2*
X1622386D1*
X1955622D2*
X2022376D1*
X2355612D2*
X2416390D1*
X2749608D2*
X2754927D1*
X415409Y1562718D2*
X425615D1*
X764387D2*
X819822D1*
X1158172D2*
X1219829D1*
X1558180D2*
X1619820D1*
X1958170D2*
X2019828D1*
X2358178D2*
X2413824D1*
X2752174D2*
X2754916D1*
X415409Y1553849D2*
X423611D1*
X766391D2*
X817765D1*
X1160229D2*
X1217773D1*
X1560237D2*
X1617763D1*
X1960227D2*
X2017771D1*
X2360235D2*
X2411767D1*
X415409Y1544980D2*
X422056D1*
X767938D2*
X816201D1*
X1161811D2*
X1216191D1*
X1561801D2*
X1616199D1*
X1961809D2*
X2016189D1*
X2361799D2*
X2410185D1*
X415409Y1536112D2*
X421002D1*
X768993D2*
X815076D1*
X1162919D2*
X1215083D1*
X1562909D2*
X1615091D1*
X1962917D2*
X2015081D1*
X2362924D2*
X2409078D1*
X415409Y1527243D2*
X420405D1*
X769608D2*
X814443D1*
X1163569D2*
X1214433D1*
X1563559D2*
X1614441D1*
X1963567D2*
X2014431D1*
X2363557D2*
X2408427D1*
X415409Y1518374D2*
X420229D1*
X769749D2*
X814249D1*
X1163762D2*
X1214240D1*
X1563753D2*
X1614247D1*
X1963760D2*
X2014238D1*
X2363751D2*
X2408234D1*
X415409Y1509505D2*
X420545D1*
X769450D2*
X814495D1*
X1163499D2*
X1214503D1*
X1563506D2*
X1614494D1*
X1963497D2*
X2014501D1*
X2363504D2*
X2408497D1*
X415409Y1500636D2*
X421318D1*
X768694D2*
X815216D1*
X1162795D2*
X1215206D1*
X1562786D2*
X1615214D1*
X1962794D2*
X2015204D1*
X2362784D2*
X2409218D1*
X415409Y1491768D2*
X422512D1*
X767481D2*
X816394D1*
X1161618D2*
X1216384D1*
X1561608D2*
X1616392D1*
X1961616D2*
X2016382D1*
X2361606D2*
X2410378D1*
X415409Y1482899D2*
X424208D1*
X765794D2*
X818029D1*
X1159965D2*
X1218037D1*
X1559973D2*
X1618027D1*
X1959963D2*
X2018035D1*
X2359971D2*
X2412031D1*
X415409Y1474030D2*
X426370D1*
X763614D2*
X820156D1*
X1157838D2*
X1220163D1*
X1557846D2*
X1620154D1*
X1957837D2*
X2020162D1*
X2357844D2*
X2414158D1*
X2751840D2*
X2754747D1*
X415409Y1465161D2*
X429060D1*
X760942D2*
X822792D1*
X1155219D2*
X1222783D1*
X1555210D2*
X1622790D1*
X1955217D2*
X2022781D1*
X2355208D2*
X2416794D1*
X2749221D2*
X2754716D1*
X415409Y1456293D2*
X432259D1*
X757743D2*
X825939D1*
X1152055D2*
X1225947D1*
X1552063D2*
X1625937D1*
X1952053D2*
X2025945D1*
X2352061D2*
X2419941D1*
X2746057D2*
X2754699D1*
X415409Y1447424D2*
X436021D1*
X753963D2*
X829665D1*
X1148346D2*
X1229656D1*
X1548337D2*
X1629663D1*
X1948344D2*
X2029654D1*
X2348335D2*
X2423650D1*
X2742348D2*
X2754681D1*
X415409Y1438555D2*
X440398D1*
X749604D2*
X833972D1*
X1144022D2*
X1233962D1*
X1544030D2*
X1633970D1*
X1944038D2*
X2033978D1*
X2344028D2*
X2427974D1*
X2738024D2*
X2754663D1*
X415409Y1429686D2*
X445425D1*
X744577D2*
X838929D1*
X1139065D2*
X1238937D1*
X1539073D2*
X1638927D1*
X1939063D2*
X2038935D1*
X2339071D2*
X2432931D1*
X2733067D2*
X2754646D1*
X415409Y1420818D2*
X451173D1*
X738829D2*
X844624D1*
X1133387D2*
X1244615D1*
X1533378D2*
X1644622D1*
X1933385D2*
X2044613D1*
X2333376D2*
X2438609D1*
X2727389D2*
X2754628D1*
X415409Y1411949D2*
X457747D1*
X732254D2*
X851111D1*
X1126901D2*
X1251101D1*
X1526891D2*
X1651109D1*
X1926899D2*
X2051099D1*
X2326889D2*
X2445113D1*
X2720885D2*
X2754611D1*
X415409Y1403080D2*
X465253D1*
X724731D2*
X858529D1*
X1119483D2*
X1258519D1*
X1519473D2*
X1658527D1*
X1919481D2*
X2058517D1*
X2319471D2*
X2452531D1*
X2713467D2*
X2754593D1*
X415409Y1394211D2*
X473884D1*
X716118D2*
X867037D1*
X1110958D2*
X1267044D1*
X1510965D2*
X1667035D1*
X1910956D2*
X2067042D1*
X2310963D2*
X2461038D1*
X2704960D2*
X2754576D1*
X415409Y1385343D2*
X483904D1*
X706098D2*
X876915D1*
X1101096D2*
X1276906D1*
X1501087D2*
X1676913D1*
X1901094D2*
X2076904D1*
X2301085D2*
X2470917D1*
X2695081D2*
X2754558D1*
X415409Y1376474D2*
X495716D1*
X694286D2*
X888535D1*
X1089460D2*
X1288525D1*
X1489467D2*
X1688533D1*
X1889475D2*
X2088540D1*
X2289465D2*
X2482537D1*
X2683462D2*
X2754540D1*
X415409Y1367605D2*
X510078D1*
X679924D2*
X902615D1*
X1075379D2*
X1302622D1*
X1475387D2*
X1702613D1*
X1875378D2*
X2102620D1*
X2275385D2*
X2496617D1*
X2669381D2*
X2754523D1*
X415409Y1358736D2*
X528675D1*
X661327D2*
X920703D1*
X1057309D2*
X1320693D1*
X1457299D2*
X1720701D1*
X1857307D2*
X2120691D1*
X2257297D2*
X2514704D1*
X2651294D2*
X2754505D1*
X415409Y1349867D2*
X557433D1*
X632569D2*
X947826D1*
X1030169D2*
X1347833D1*
X1430176D2*
X1747824D1*
X1830167D2*
X2147831D1*
X2230174D2*
X2541828D1*
X2624170D2*
X2754488D1*
X415409Y1340999D2*
X2754470D1*
X415409Y1332130D2*
X2754453D1*
X415409Y1323261D2*
X2754435D1*
X415409Y1314392D2*
X2754417D1*
X415409Y1305524D2*
X2754400D1*
X415409Y1296655D2*
X2754382D1*
X415409Y1287786D2*
X2754365D1*
X415409Y1278917D2*
X2754347D1*
X415409Y1270049D2*
X2754329D1*
X415409Y1261180D2*
X2754312D1*
X415409Y1252311D2*
X2754294D1*
X415409Y1243442D2*
X2754277D1*
X415409Y1234574D2*
X2754259D1*
X415409Y1225705D2*
X2754242D1*
X415409Y1216836D2*
X575257D1*
X614745D2*
X969253D1*
X1008741D2*
X1769251D1*
X1808739D2*
X2169259D1*
X2208747D2*
X2563009D1*
X2602497D2*
X2754224D1*
X415409Y1207967D2*
X536287D1*
X653715D2*
X930283D1*
X1047712D2*
X1347939D1*
X1436065D2*
X1730298D1*
X1847710D2*
X2130288D1*
X2247717D2*
X2524038D1*
X2641467D2*
X2754206D1*
X415409Y1199098D2*
X515544D1*
X674458D2*
X909540D1*
X1068454D2*
X1321062D1*
X1462942D2*
X1709538D1*
X1868469D2*
X2109546D1*
X2268460D2*
X2503296D1*
X2662210D2*
X2754189D1*
X415409Y1190230D2*
X500058D1*
X689944D2*
X894054D1*
X1083940D2*
X1302833D1*
X1481170D2*
X1694052D1*
X1883938D2*
X2094060D1*
X2283946D2*
X2487810D1*
X2677696D2*
X2754171D1*
X415409Y1181361D2*
X487525D1*
X702477D2*
X881521D1*
X1096473D2*
X1288542D1*
X1495462D2*
X1681519D1*
X1896471D2*
X2081527D1*
X2296479D2*
X2475277D1*
X2690229D2*
X2754154D1*
X415409Y1172492D2*
X476978D1*
X713024D2*
X870974D1*
X1107020D2*
X1276695D1*
X1507309D2*
X1670972D1*
X1907018D2*
X2070980D1*
X2307026D2*
X2464730D1*
X2700776D2*
X2754136D1*
X415409Y1163623D2*
X467943D1*
X722059D2*
X861939D1*
X1116073D2*
X1266587D1*
X1517417D2*
X1661937D1*
X1916071D2*
X2061927D1*
X2316061D2*
X2455677D1*
X2709811D2*
X2754119D1*
X415409Y1154755D2*
X460085D1*
X729917D2*
X854081D1*
X1123913D2*
X1257833D1*
X1526153D2*
X1654079D1*
X1923911D2*
X2054087D1*
X2323919D2*
X2447837D1*
X2717669D2*
X2754101D1*
X415409Y1145886D2*
X453230D1*
X736772D2*
X847226D1*
X1130786D2*
X1250187D1*
X1533817D2*
X1647224D1*
X1930784D2*
X2047214D1*
X2330774D2*
X2440964D1*
X2724524D2*
X2754083D1*
X415409Y1137017D2*
X447218D1*
X742784D2*
X841214D1*
X1136780D2*
X1243454D1*
X1540549D2*
X1641212D1*
X1936778D2*
X2041220D1*
X2336786D2*
X2434970D1*
X2730536D2*
X2754066D1*
X415409Y1128148D2*
X441962D1*
X748040D2*
X835958D1*
X1142036D2*
X1237531D1*
X1546473D2*
X1635956D1*
X1942034D2*
X2035964D1*
X2342042D2*
X2429714D1*
X2735792D2*
X2754048D1*
X415409Y1119280D2*
X437374D1*
X752610D2*
X831388D1*
X1146624D2*
X1232328D1*
X1551676D2*
X1631386D1*
X1946622D2*
X2031376D1*
X2346612D2*
X2425126D1*
X2740362D2*
X2754031D1*
X415409Y1110411D2*
X433419D1*
X756583D2*
X827415D1*
X1150579D2*
X1227757D1*
X1556229D2*
X1627431D1*
X1950577D2*
X2027421D1*
X2350585D2*
X2421171D1*
X2744335D2*
X2754013D1*
X415409Y1101542D2*
X430044D1*
X759958D2*
X824040D1*
X1153954D2*
X1223802D1*
X1560202D2*
X1624038D1*
X1953969D2*
X2024046D1*
X2353960D2*
X2417796D1*
X2747710D2*
X2753995D1*
X415409Y1092673D2*
X427197D1*
X762805D2*
X821193D1*
X1156801D2*
X1220374D1*
X1563629D2*
X1621191D1*
X1956799D2*
X2021199D1*
X2356807D2*
X2414949D1*
X2750557D2*
X2753978D1*
X415409Y1083804D2*
X424859D1*
X765143D2*
X818855D1*
X1159139D2*
X1217474D1*
X1566512D2*
X1618853D1*
X1959137D2*
X2018861D1*
X2359145D2*
X2412611D1*
X415409Y1074936D2*
X423013D1*
X766989D2*
X817009D1*
X1160985D2*
X1215083D1*
X1568920D2*
X1617007D1*
X1960983D2*
X2017015D1*
X2360991D2*
X2410765D1*
X415409Y1066067D2*
X421634D1*
X768360D2*
X815638D1*
X1162356D2*
X1213150D1*
X1570854D2*
X1615654D1*
X1962354D2*
X2015644D1*
X2362362D2*
X2409394D1*
X415409Y1057198D2*
X420756D1*
X769256D2*
X814742D1*
X1163253D2*
X1211673D1*
X1572331D2*
X1614740D1*
X1963251D2*
X2014747D1*
X2363258D2*
X2408497D1*
X415409Y1048329D2*
X420299D1*
X769713D2*
X814302D1*
X1163710D2*
X1210654D1*
X1573350D2*
X1614300D1*
X1963708D2*
X2014290D1*
X2363698D2*
X2408040D1*
X415409Y1039461D2*
X420299D1*
X769696D2*
X814302D1*
X1163692D2*
X1210074D1*
X1573930D2*
X1614300D1*
X1963708D2*
X2014308D1*
X2363698D2*
X2408058D1*
X415409Y1030592D2*
X420756D1*
X769239D2*
X814759D1*
X1163235D2*
X1209915D1*
X1574071D2*
X1614757D1*
X1963251D2*
X2014765D1*
X2363241D2*
X2408515D1*
X415409Y1021723D2*
X421669D1*
X768325D2*
X815673D1*
X1162321D2*
X1210214D1*
X1573790D2*
X1615671D1*
X1962319D2*
X2015679D1*
X2362327D2*
X2409429D1*
X415409Y1012854D2*
X423048D1*
X766954D2*
X817044D1*
X1160950D2*
X1210935D1*
X1573069D2*
X1617060D1*
X1960948D2*
X2017050D1*
X2360956D2*
X2410800D1*
X415409Y1003986D2*
X424912D1*
X765090D2*
X818908D1*
X1159087D2*
X1212095D1*
X1571909D2*
X1618906D1*
X1959085D2*
X2018913D1*
X2359092D2*
X2412663D1*
X415409Y995117D2*
X427249D1*
X762753D2*
X821245D1*
X1156749D2*
X1213712D1*
X1570292D2*
X1621261D1*
X1956747D2*
X2021251D1*
X2356754D2*
X2415001D1*
X2750504D2*
X2753785D1*
X415409Y986248D2*
X430115D1*
X759887D2*
X824111D1*
X1153883D2*
X1215787D1*
X1568217D2*
X1624109D1*
X1953881D2*
X2024117D1*
X2353889D2*
X2417867D1*
X2747639D2*
X2753767D1*
X415409Y977379D2*
X433507D1*
X756495D2*
X827503D1*
X1150491D2*
X1218353D1*
X1565651D2*
X1627519D1*
X1950489D2*
X2027509D1*
X2350497D2*
X2421259D1*
X2744247D2*
X2753749D1*
X415409Y968511D2*
X437480D1*
X752522D2*
X831476D1*
X1146518D2*
X1221412D1*
X1562592D2*
X1631492D1*
X1946516D2*
X2031482D1*
X2346524D2*
X2425232D1*
X2740274D2*
X2753732D1*
X415409Y959642D2*
X442085D1*
X747917D2*
X836081D1*
X1141930D2*
X1224997D1*
X1559006D2*
X1636079D1*
X1941928D2*
X2036070D1*
X2341919D2*
X2429820D1*
X2735669D2*
X2753714D1*
X415409Y950773D2*
X447341D1*
X742643D2*
X841355D1*
X1136657D2*
X1229146D1*
X1554858D2*
X1641353D1*
X1936655D2*
X2041343D1*
X2336645D2*
X2435093D1*
X2730395D2*
X2753697D1*
X415409Y941904D2*
X453370D1*
X736631D2*
X847367D1*
X1130628D2*
X1233910D1*
X1550094D2*
X1647382D1*
X1930626D2*
X2047372D1*
X2330633D2*
X2441122D1*
X2724383D2*
X2753679D1*
X415409Y933035D2*
X460261D1*
X729741D2*
X854257D1*
X1123737D2*
X1239341D1*
X1544663D2*
X1654255D1*
X1923753D2*
X2054263D1*
X2323743D2*
X2448013D1*
X2717493D2*
X2753662D1*
X415409Y924167D2*
X468136D1*
X721866D2*
X862132D1*
X1115862D2*
X1245494D1*
X1538493D2*
X1662130D1*
X1915860D2*
X2062138D1*
X2315868D2*
X2455888D1*
X2709618D2*
X2753644D1*
X415409Y915298D2*
X477206D1*
X712795D2*
X871203D1*
X1106792D2*
X1252507D1*
X1531497D2*
X1671218D1*
X1906790D2*
X2071208D1*
X2306797D2*
X2464958D1*
X2700547D2*
X2753626D1*
X415409Y906429D2*
X487788D1*
X702213D2*
X881785D1*
X1096210D2*
X1260488D1*
X1523516D2*
X1681783D1*
X1896208D2*
X2081790D1*
X2296215D2*
X2475540D1*
X2689965D2*
X2753609D1*
X415409Y897560D2*
X500392D1*
X689610D2*
X894388D1*
X1083624D2*
X1269646D1*
X1514358D2*
X1694386D1*
X1883622D2*
X2094376D1*
X2283612D2*
X2488126D1*
X2677362D2*
X2753591D1*
X415409Y888692D2*
X515949D1*
X674053D2*
X909962D1*
X1068049D2*
X1280245D1*
X1503758D2*
X1709960D1*
X1868047D2*
X2109951D1*
X2268038D2*
X2503701D1*
X2661788D2*
X2753574D1*
X415409Y879823D2*
X536884D1*
X653118D2*
X930880D1*
X1047114D2*
X1292761D1*
X1491225D2*
X1730896D1*
X1847112D2*
X2130886D1*
X2247120D2*
X2524636D1*
X2640870D2*
X2753556D1*
X415409Y870954D2*
X577296D1*
X612706D2*
X971292D1*
X1006702D2*
X1308089D1*
X1475915D2*
X1771290D1*
X1806700D2*
X2171298D1*
X2206708D2*
X2565048D1*
X2600458D2*
X2753538D1*
X415409Y862085D2*
X1328199D1*
X1455805D2*
X2753521D1*
X415409Y853217D2*
X1361703D1*
X1422284D2*
X2753503D1*
X415409Y844348D2*
X2753486D1*
X415409Y835479D2*
X2753468D1*
X415409Y826610D2*
X2753451D1*
X415409Y817741D2*
X2753433D1*
X415409Y808873D2*
X2753415D1*
X415409Y800004D2*
X2753398D1*
X415409Y791135D2*
X2753380D1*
X415409Y782266D2*
X2753363D1*
X415409Y773398D2*
X2753345D1*
X415409Y764529D2*
X2753328D1*
X415409Y755660D2*
X2753310D1*
X415409Y746791D2*
X2753292D1*
X415409Y737923D2*
X2753275D1*
X415409Y729054D2*
X2753257D1*
X415409Y720185D2*
X2753240D1*
X415409Y711316D2*
X2753222D1*
X415409Y702448D2*
X2753204D1*
X415409Y693579D2*
X2753187D1*
X415409Y684710D2*
X2753169D1*
X415409Y675841D2*
X2753152D1*
X415409Y666972D2*
X2753134D1*
X415409Y658104D2*
X2753117D1*
X415409Y649235D2*
X2753099D1*
X415409Y640366D2*
X2753081D1*
X415409Y631497D2*
X2753064D1*
X415409Y622629D2*
X2753046D1*
X415409Y613760D2*
X614052D1*
X763948D2*
X2414052D1*
X2563948D2*
X2753029D1*
X415409Y604891D2*
X583554D1*
X794446D2*
X2383554D1*
X2594446D2*
X2753011D1*
X415409Y596022D2*
X568261D1*
X809739D2*
X2368261D1*
X2609739D2*
X2752994D1*
X415409Y587154D2*
X557292D1*
X820708D2*
X2357292D1*
X2620708D2*
X2752976D1*
X415409Y578285D2*
X548837D1*
X829163D2*
X2348837D1*
X2629163D2*
X2752958D1*
X415409Y569416D2*
X542140D1*
X835860D2*
X2342140D1*
X2635860D2*
X2752941D1*
X415409Y560547D2*
X536779D1*
X841221D2*
X2336779D1*
X2641221D2*
X2752923D1*
X415409Y551678D2*
X532560D1*
X845440D2*
X2332560D1*
X2645440D2*
X2752906D1*
X415409Y542810D2*
X529326D1*
X848674D2*
X2329326D1*
X2648674D2*
X2752888D1*
X415409Y533941D2*
X526970D1*
X851030D2*
X2326970D1*
X2651030D2*
X2752870D1*
X415409Y525072D2*
X525458D1*
X852542D2*
X2325458D1*
X2652542D2*
X2752853D1*
X415409Y516203D2*
X524720D1*
X853280D2*
X2324720D1*
X2653280D2*
X2752835D1*
X415409Y507335D2*
X524755D1*
X853245D2*
X2324755D1*
X2653245D2*
X2752818D1*
X415409Y498466D2*
X525546D1*
X852454D2*
X2325546D1*
X2652454D2*
X2752800D1*
X415409Y489597D2*
X527146D1*
X850854D2*
X2327146D1*
X2650854D2*
X2752783D1*
X415409Y480728D2*
X529572D1*
X848428D2*
X2329572D1*
X2648428D2*
X2752765D1*
X415409Y471860D2*
X532894D1*
X845106D2*
X2332894D1*
X2645106D2*
X2752747D1*
X415409Y462991D2*
X537201D1*
X840799D2*
X2337201D1*
X2640799D2*
X2752730D1*
X415409Y454122D2*
X542650D1*
X835350D2*
X2342650D1*
X2635350D2*
X2752712D1*
X415409Y445253D2*
X549488D1*
X828512D2*
X2349488D1*
X2628512D2*
X2752695D1*
X415409Y436385D2*
X558119D1*
X819881D2*
X2358119D1*
X2619881D2*
X2752677D1*
X415409Y427516D2*
X569351D1*
X808649D2*
X2369351D1*
X2608649D2*
X2752660D1*
X415409Y418647D2*
X585224D1*
X792776D2*
X2385224D1*
X2592776D2*
X2752642D1*
X1812762Y4939503D2*
X1812352Y4935022D1*
X1811670Y4930575D1*
X1810718Y4926177D1*
X1809500Y4921846D1*
X1808022Y4917597D1*
X1806287Y4913445D1*
X1804303Y4909407D1*
X1802077Y4905497D1*
X1799616Y4901730D1*
X1796932Y4898119D1*
X1794032Y4894679D1*
X1790929Y4891421D1*
X1787633Y4888359D1*
X1784157Y4885502D1*
X1780513Y4882862D1*
X1776715Y4880449D1*
X1772778Y4878272D1*
X1768715Y4876338D1*
X1764543Y4874655D1*
X1760275Y4873229D1*
X1755929Y4872066D1*
X1751520Y4871169D1*
X1747065Y4870542D1*
X1742579Y4870187D1*
X1738081Y4870106D1*
X1733586Y4870299D1*
X1729111Y4870765D1*
X1724672Y4871503D1*
X1720287Y4872509D1*
X1715971Y4873781D1*
X1711740Y4875312D1*
X1707611Y4877098D1*
X1703598Y4879133D1*
X1699716Y4881407D1*
X1695979Y4883914D1*
X1692402Y4886643D1*
X1688998Y4889585D1*
X1685780Y4892729D1*
X1682758Y4896063D1*
X1679945Y4899575D1*
X1677351Y4903251D1*
X1674985Y4907078D1*
X1672857Y4911042D1*
X1670974Y4915128D1*
X1669343Y4919322D1*
X1667970Y4923606D1*
X1666861Y4927967D1*
X1666019Y4932387D1*
X1665447Y4936849D1*
X1665149Y4941339D1*
X1665123Y4945838D1*
X1665372Y4950331D1*
X1665894Y4954799D1*
X1666687Y4959228D1*
X1667747Y4963601D1*
X1669072Y4967901D1*
X1670656Y4972112D1*
X1672494Y4976219D1*
X1674578Y4980206D1*
X1676901Y4984060D1*
X1679454Y4987765D1*
X1682227Y4991307D1*
X1685212Y4994675D1*
X1688395Y4997854D1*
X1691766Y5000834D1*
X1695312Y5003603D1*
X1699021Y5006151D1*
X1702877Y5008469D1*
X1706867Y5010548D1*
X1710977Y5012380D1*
X1715190Y5013959D1*
X1719491Y5015278D1*
X1723865Y5016333D1*
X1728295Y5017120D1*
X1732765Y5017636D1*
X1737258Y5017879D1*
X1741757Y5017848D1*
X1746246Y5017543D1*
X1750708Y5016966D1*
X1755127Y5016118D1*
X1759486Y5015003D1*
X1763769Y5013625D1*
X1767960Y5011989D1*
X1772044Y5010100D1*
X1776005Y5007967D1*
X1779829Y5005596D1*
X1783502Y5002997D1*
X1787010Y5000180D1*
X1790340Y4997154D1*
X1793479Y4993931D1*
X1796417Y4990523D1*
X1799142Y4986943D1*
X1801644Y4983203D1*
X1803913Y4979318D1*
X1805942Y4975303D1*
X1807723Y4971171D1*
X1809249Y4966938D1*
X1810515Y4962621D1*
X1811516Y4958234D1*
X1812247Y4953795D1*
X1812708Y4949319D1*
X1812899Y4944000D1*
X1812762Y4939503D1*
X1512762D2*
X1512352Y4935022D1*
X1511670Y4930575D1*
X1510718Y4926177D1*
X1509500Y4921846D1*
X1508022Y4917597D1*
X1506287Y4913445D1*
X1504303Y4909407D1*
X1502077Y4905497D1*
X1499616Y4901730D1*
X1496932Y4898119D1*
X1494032Y4894679D1*
X1490929Y4891421D1*
X1487633Y4888359D1*
X1484157Y4885502D1*
X1480513Y4882862D1*
X1476715Y4880449D1*
X1472778Y4878272D1*
X1468715Y4876338D1*
X1464543Y4874655D1*
X1460275Y4873229D1*
X1455929Y4872066D1*
X1451520Y4871169D1*
X1447065Y4870542D1*
X1442579Y4870187D1*
X1438081Y4870106D1*
X1433586Y4870299D1*
X1429111Y4870765D1*
X1424672Y4871503D1*
X1420287Y4872509D1*
X1415971Y4873781D1*
X1411740Y4875312D1*
X1407611Y4877098D1*
X1403598Y4879133D1*
X1399716Y4881407D1*
X1395979Y4883914D1*
X1392402Y4886643D1*
X1388998Y4889585D1*
X1385780Y4892729D1*
X1382758Y4896063D1*
X1379945Y4899575D1*
X1377351Y4903251D1*
X1374985Y4907078D1*
X1372857Y4911042D1*
X1370974Y4915128D1*
X1369343Y4919322D1*
X1367970Y4923606D1*
X1366861Y4927967D1*
X1366019Y4932387D1*
X1365447Y4936849D1*
X1365149Y4941339D1*
X1365123Y4945838D1*
X1365372Y4950331D1*
X1365894Y4954799D1*
X1366687Y4959228D1*
X1367747Y4963601D1*
X1369072Y4967901D1*
X1370656Y4972112D1*
X1372494Y4976219D1*
X1374578Y4980206D1*
X1376901Y4984060D1*
X1379454Y4987765D1*
X1382227Y4991307D1*
X1385212Y4994675D1*
X1388395Y4997854D1*
X1391766Y5000834D1*
X1395312Y5003603D1*
X1399021Y5006151D1*
X1402877Y5008469D1*
X1406867Y5010548D1*
X1410977Y5012380D1*
X1415190Y5013959D1*
X1419491Y5015278D1*
X1423865Y5016333D1*
X1428295Y5017120D1*
X1432765Y5017636D1*
X1437258Y5017879D1*
X1441757Y5017848D1*
X1446246Y5017543D1*
X1450708Y5016966D1*
X1455127Y5016118D1*
X1459486Y5015003D1*
X1463769Y5013625D1*
X1467960Y5011989D1*
X1472044Y5010100D1*
X1476005Y5007967D1*
X1479829Y5005596D1*
X1483502Y5002997D1*
X1487010Y5000180D1*
X1490340Y4997154D1*
X1493479Y4993931D1*
X1496417Y4990523D1*
X1499142Y4986943D1*
X1501644Y4983203D1*
X1503913Y4979318D1*
X1505942Y4975303D1*
X1507723Y4971171D1*
X1509249Y4966938D1*
X1510515Y4962621D1*
X1511516Y4958234D1*
X1512247Y4953795D1*
X1512708Y4949319D1*
X1512899Y4944000D1*
X1512762Y4939503D1*
X1212762D2*
X1212352Y4935022D1*
X1211670Y4930575D1*
X1210718Y4926177D1*
X1209500Y4921846D1*
X1208022Y4917597D1*
X1206287Y4913445D1*
X1204303Y4909407D1*
X1202077Y4905497D1*
X1199616Y4901730D1*
X1196932Y4898119D1*
X1194032Y4894679D1*
X1190929Y4891421D1*
X1187633Y4888359D1*
X1184157Y4885502D1*
X1180513Y4882862D1*
X1176715Y4880449D1*
X1172778Y4878272D1*
X1168715Y4876338D1*
X1164543Y4874655D1*
X1160275Y4873229D1*
X1155929Y4872066D1*
X1151520Y4871169D1*
X1147065Y4870542D1*
X1142579Y4870187D1*
X1138081Y4870106D1*
X1133586Y4870299D1*
X1129111Y4870765D1*
X1124672Y4871503D1*
X1120287Y4872509D1*
X1115971Y4873781D1*
X1111740Y4875312D1*
X1107611Y4877098D1*
X1103598Y4879133D1*
X1099716Y4881407D1*
X1095979Y4883914D1*
X1092402Y4886643D1*
X1088998Y4889585D1*
X1085780Y4892729D1*
X1082758Y4896063D1*
X1079945Y4899575D1*
X1077351Y4903251D1*
X1074985Y4907078D1*
X1072857Y4911042D1*
X1070974Y4915128D1*
X1069343Y4919322D1*
X1067970Y4923606D1*
X1066861Y4927967D1*
X1066019Y4932387D1*
X1065447Y4936849D1*
X1065149Y4941339D1*
X1065123Y4945838D1*
X1065372Y4950331D1*
X1065894Y4954799D1*
X1066687Y4959228D1*
X1067747Y4963601D1*
X1069072Y4967901D1*
X1070656Y4972112D1*
X1072494Y4976219D1*
X1074578Y4980206D1*
X1076901Y4984060D1*
X1079454Y4987765D1*
X1082227Y4991307D1*
X1085212Y4994675D1*
X1088395Y4997854D1*
X1091766Y5000834D1*
X1095312Y5003603D1*
X1099021Y5006151D1*
X1102877Y5008469D1*
X1106867Y5010548D1*
X1110977Y5012380D1*
X1115190Y5013959D1*
X1119491Y5015278D1*
X1123865Y5016333D1*
X1128295Y5017120D1*
X1132765Y5017636D1*
X1137258Y5017879D1*
X1141757Y5017848D1*
X1146246Y5017543D1*
X1150708Y5016966D1*
X1155127Y5016118D1*
X1159486Y5015003D1*
X1163769Y5013625D1*
X1167960Y5011989D1*
X1172044Y5010100D1*
X1176005Y5007967D1*
X1179829Y5005596D1*
X1183502Y5002997D1*
X1187010Y5000180D1*
X1190340Y4997154D1*
X1193479Y4993931D1*
X1196417Y4990523D1*
X1199142Y4986943D1*
X1201644Y4983203D1*
X1203913Y4979318D1*
X1205942Y4975303D1*
X1207723Y4971171D1*
X1209249Y4966938D1*
X1210515Y4962621D1*
X1211516Y4958234D1*
X1212247Y4953795D1*
X1212708Y4949319D1*
X1212899Y4944000D1*
X1212762Y4939503D1*
X918553Y4939501D2*
X917929Y4930524D1*
X916683Y4921613D1*
X914823Y4912809D1*
X912356Y4904156D1*
X909295Y4895694D1*
X905654Y4887466D1*
X901451Y4879509D1*
X896706Y4871864D1*
X891442Y4864566D1*
X885685Y4857650D1*
X879462Y4851151D1*
X872803Y4845099D1*
X865740Y4839524D1*
X858307Y4834452D1*
X850541Y4829908D1*
X842478Y4825914D1*
X834157Y4822488D1*
X825619Y4819648D1*
X816904Y4817408D1*
X808055Y4815777D1*
X799114Y4814764D1*
X790124Y4814374D1*
X781129Y4814608D1*
X772172Y4815466D1*
X763296Y4816943D1*
X754543Y4819032D1*
X745957Y4821723D1*
X737578Y4825004D1*
X729447Y4828858D1*
X721603Y4833266D1*
X714084Y4838209D1*
X706925Y4843661D1*
X700162Y4849596D1*
X693827Y4855986D1*
X687951Y4862801D1*
X682561Y4870006D1*
X677685Y4877568D1*
X673344Y4885451D1*
X669561Y4893615D1*
X666354Y4902022D1*
X663737Y4910631D1*
X661724Y4919402D1*
X660324Y4928290D1*
X659544Y4937255D1*
X659388Y4946251D1*
X659857Y4955237D1*
X660947Y4964169D1*
X662655Y4973004D1*
X664972Y4981699D1*
X667886Y4990212D1*
X671383Y4998503D1*
X675447Y5006531D1*
X680059Y5014257D1*
X685195Y5021646D1*
X690832Y5028660D1*
X696941Y5035266D1*
X703494Y5041432D1*
X710459Y5047129D1*
X717803Y5052329D1*
X725489Y5057007D1*
X733482Y5061141D1*
X741742Y5064710D1*
X750230Y5067698D1*
X758904Y5070089D1*
X767724Y5071873D1*
X776646Y5073041D1*
X785628Y5073587D1*
X794625Y5073509D1*
X803596Y5072807D1*
X812497Y5071484D1*
X821284Y5069547D1*
X829915Y5067005D1*
X838350Y5063870D1*
X846547Y5060158D1*
X854466Y5055886D1*
X862070Y5051075D1*
X869322Y5045748D1*
X876187Y5039931D1*
X882632Y5033651D1*
X888626Y5026940D1*
X894139Y5019829D1*
X899146Y5012352D1*
X903623Y5004547D1*
X907547Y4996449D1*
X910900Y4988099D1*
X913665Y4979536D1*
X915830Y4970802D1*
X917384Y4961939D1*
X918319Y4952990D1*
X918631Y4944000D1*
X918553Y4939501D1*
X1448326Y4703170D2*
X1447835Y4699019D1*
X1447019Y4694920D1*
X1445885Y4690897D1*
X1444438Y4686976D1*
X1442688Y4683181D1*
X1440646Y4679534D1*
X1438324Y4676059D1*
X1435736Y4672776D1*
X1434019Y4670918D1*
X1446867Y4670864D1*
X1449889Y4670385D1*
X1452800Y4669440D1*
X1455526Y4668050D1*
X1458002Y4666252D1*
X1460165Y4664088D1*
X1461964Y4661613D1*
X1463353Y4658886D1*
X1464299Y4655976D1*
X1464777Y4652954D1*
X1464837Y4633424D1*
X1464777Y3150051D1*
X1464299Y3147029D1*
X1463353Y3144119D1*
X1461964Y3141393D1*
X1460165Y3138917D1*
X1458002Y3136753D1*
X1455526Y3134955D1*
X1452800Y3133566D1*
X1449889Y3132620D1*
X1446867Y3132141D1*
X1427337Y3132081D1*
X1343818Y3132141D1*
X1340796Y3132620D1*
X1337885Y3133566D1*
X1335159Y3134955D1*
X1332683Y3136753D1*
X1330520Y3138917D1*
X1328721Y3141393D1*
X1327332Y3144119D1*
X1326386Y3147029D1*
X1325908Y3150051D1*
X1325848Y3169581D1*
X1325908Y4652954D1*
X1326386Y4655976D1*
X1327332Y4658886D1*
X1328721Y4661613D1*
X1330520Y4664088D1*
X1332683Y4666252D1*
X1335159Y4668050D1*
X1337885Y4669440D1*
X1340796Y4670385D1*
X1343818Y4670864D1*
X1356440Y4670924D1*
X1352196Y4676059D1*
X1349874Y4679534D1*
X1347831Y4683181D1*
X1346082Y4686976D1*
X1344635Y4690897D1*
X1343501Y4694920D1*
X1342685Y4699019D1*
X1342194Y4703170D1*
X1342030Y4707346D1*
X1342194Y4711523D1*
X1342685Y4715673D1*
X1343501Y4719773D1*
X1344635Y4723795D1*
X1346082Y4727717D1*
X1347831Y4731512D1*
X1349874Y4735159D1*
X1352196Y4738634D1*
X1354783Y4741917D1*
X1357620Y4744986D1*
X1360690Y4747823D1*
X1363972Y4750410D1*
X1367447Y4752733D1*
X1371094Y4754775D1*
X1374890Y4756525D1*
X1378811Y4757971D1*
X1382834Y4759106D1*
X1386933Y4759921D1*
X1391083Y4760412D1*
X1395260Y4760577D1*
X1399436Y4760412D1*
X1403587Y4759921D1*
X1407686Y4759106D1*
X1411709Y4757971D1*
X1415630Y4756525D1*
X1419426Y4754775D1*
X1423072Y4752733D1*
X1426548Y4750410D1*
X1429830Y4747823D1*
X1432899Y4744986D1*
X1435736Y4741917D1*
X1438324Y4738634D1*
X1440646Y4735159D1*
X1442688Y4731512D1*
X1444438Y4727717D1*
X1445885Y4723795D1*
X1447019Y4719773D1*
X1447835Y4715673D1*
X1448326Y4711523D1*
X1448490Y4707346D1*
X1448326Y4703170D1*
X2610806D2*
X2610315Y4699019D1*
X2609499Y4694920D1*
X2608365Y4690897D1*
X2606918Y4686976D1*
X2605169Y4683181D1*
X2603126Y4679534D1*
X2600804Y4676059D1*
X2598217Y4672776D1*
X2596499Y4670918D1*
X2609367Y4670864D1*
X2612389Y4670385D1*
X2615300Y4669440D1*
X2618026Y4668050D1*
X2620502Y4666252D1*
X2622665Y4664088D1*
X2624464Y4661613D1*
X2625853Y4658886D1*
X2626799Y4655976D1*
X2627277Y4652954D1*
X2627337Y4633424D1*
X2627277Y3150051D1*
X2626799Y3147029D1*
X2625853Y3144119D1*
X2624464Y3141393D1*
X2622665Y3138917D1*
X2620502Y3136753D1*
X2618026Y3134955D1*
X2615300Y3133566D1*
X2612389Y3132620D1*
X2609367Y3132141D1*
X2589837Y3132081D1*
X2506318Y3132141D1*
X2503296Y3132620D1*
X2500385Y3133566D1*
X2497659Y3134955D1*
X2495183Y3136753D1*
X2493020Y3138917D1*
X2491221Y3141393D1*
X2489832Y3144119D1*
X2488887Y3147029D1*
X2488408Y3150051D1*
X2488348Y3169581D1*
X2488408Y4652954D1*
X2488887Y4655976D1*
X2489832Y4658886D1*
X2491221Y4661613D1*
X2493020Y4664088D1*
X2495183Y4666252D1*
X2497659Y4668050D1*
X2500385Y4669440D1*
X2503296Y4670385D1*
X2506318Y4670864D1*
X2518940Y4670924D1*
X2514676Y4676059D1*
X2512354Y4679534D1*
X2510312Y4683181D1*
X2508562Y4686976D1*
X2507115Y4690897D1*
X2505981Y4694920D1*
X2505165Y4699019D1*
X2504674Y4703170D1*
X2504510Y4707346D1*
X2504674Y4711523D1*
X2505165Y4715673D1*
X2505981Y4719773D1*
X2507115Y4723795D1*
X2508562Y4727717D1*
X2510312Y4731512D1*
X2512354Y4735159D1*
X2514676Y4738634D1*
X2517264Y4741917D1*
X2520101Y4744986D1*
X2523170Y4747823D1*
X2526452Y4750410D1*
X2529928Y4752733D1*
X2533574Y4754775D1*
X2537370Y4756525D1*
X2541291Y4757971D1*
X2545314Y4759106D1*
X2549413Y4759921D1*
X2553564Y4760412D1*
X2557740Y4760577D1*
X2561917Y4760412D1*
X2566067Y4759921D1*
X2570166Y4759106D1*
X2574189Y4757971D1*
X2578110Y4756525D1*
X2581906Y4754775D1*
X2585553Y4752733D1*
X2589028Y4750410D1*
X2592310Y4747823D1*
X2595380Y4744986D1*
X2598217Y4741917D1*
X2600804Y4738634D1*
X2603126Y4735159D1*
X2605169Y4731512D1*
X2606918Y4727717D1*
X2608365Y4723795D1*
X2609499Y4719773D1*
X2610315Y4715673D1*
X2610806Y4711523D1*
X2610970Y4707346D1*
X2610806Y4703170D1*
X2112762Y4939503D2*
X2112352Y4935022D1*
X2111670Y4930575D1*
X2110718Y4926177D1*
X2109500Y4921846D1*
X2108022Y4917597D1*
X2106287Y4913445D1*
X2104303Y4909407D1*
X2102077Y4905497D1*
X2099616Y4901730D1*
X2096932Y4898119D1*
X2094032Y4894679D1*
X2090929Y4891421D1*
X2087633Y4888359D1*
X2084157Y4885502D1*
X2080513Y4882862D1*
X2076715Y4880449D1*
X2072778Y4878272D1*
X2068715Y4876338D1*
X2064543Y4874655D1*
X2060275Y4873229D1*
X2055929Y4872066D1*
X2051520Y4871169D1*
X2047065Y4870542D1*
X2042579Y4870187D1*
X2038081Y4870106D1*
X2033586Y4870299D1*
X2029111Y4870765D1*
X2024672Y4871503D1*
X2020287Y4872509D1*
X2015971Y4873781D1*
X2011740Y4875312D1*
X2007611Y4877098D1*
X2003598Y4879133D1*
X1999716Y4881407D1*
X1995979Y4883914D1*
X1992402Y4886643D1*
X1988998Y4889585D1*
X1985780Y4892729D1*
X1982758Y4896063D1*
X1979945Y4899575D1*
X1977351Y4903251D1*
X1974985Y4907078D1*
X1972857Y4911042D1*
X1970974Y4915128D1*
X1969343Y4919322D1*
X1967970Y4923606D1*
X1966861Y4927967D1*
X1966019Y4932387D1*
X1965447Y4936849D1*
X1965149Y4941339D1*
X1965123Y4945838D1*
X1965372Y4950331D1*
X1965894Y4954799D1*
X1966687Y4959228D1*
X1967747Y4963601D1*
X1969072Y4967901D1*
X1970656Y4972112D1*
X1972494Y4976219D1*
X1974578Y4980206D1*
X1976901Y4984060D1*
X1979454Y4987765D1*
X1982227Y4991307D1*
X1985212Y4994675D1*
X1988395Y4997854D1*
X1991766Y5000834D1*
X1995312Y5003603D1*
X1999021Y5006151D1*
X2002877Y5008469D1*
X2006867Y5010548D1*
X2010977Y5012380D1*
X2015190Y5013959D1*
X2019491Y5015278D1*
X2023865Y5016333D1*
X2028295Y5017120D1*
X2032765Y5017636D1*
X2037258Y5017879D1*
X2041757Y5017848D1*
X2046246Y5017543D1*
X2050708Y5016966D1*
X2055127Y5016118D1*
X2059486Y5015003D1*
X2063769Y5013625D1*
X2067960Y5011989D1*
X2072044Y5010100D1*
X2076005Y5007967D1*
X2079829Y5005596D1*
X2083502Y5002997D1*
X2087010Y5000180D1*
X2090340Y4997154D1*
X2093479Y4993931D1*
X2096417Y4990523D1*
X2099142Y4986943D1*
X2101644Y4983203D1*
X2103913Y4979318D1*
X2105942Y4975303D1*
X2107723Y4971171D1*
X2109249Y4966938D1*
X2110515Y4962621D1*
X2111516Y4958234D1*
X2112247Y4953795D1*
X2112708Y4949319D1*
X2112899Y4944000D1*
X2112762Y4939503D1*
X2518553Y4939501D2*
X2517929Y4930524D1*
X2516683Y4921613D1*
X2514823Y4912809D1*
X2512356Y4904156D1*
X2509295Y4895694D1*
X2505654Y4887466D1*
X2501451Y4879509D1*
X2496706Y4871864D1*
X2491442Y4864566D1*
X2485685Y4857650D1*
X2479462Y4851151D1*
X2472803Y4845099D1*
X2465740Y4839524D1*
X2458307Y4834452D1*
X2450541Y4829908D1*
X2442478Y4825914D1*
X2434157Y4822488D1*
X2425619Y4819648D1*
X2416904Y4817408D1*
X2408055Y4815777D1*
X2399114Y4814764D1*
X2390124Y4814374D1*
X2381129Y4814608D1*
X2372172Y4815466D1*
X2363296Y4816943D1*
X2354543Y4819032D1*
X2345957Y4821723D1*
X2337578Y4825004D1*
X2329447Y4828858D1*
X2321603Y4833266D1*
X2314084Y4838209D1*
X2306925Y4843661D1*
X2300162Y4849596D1*
X2293827Y4855986D1*
X2287951Y4862801D1*
X2282561Y4870006D1*
X2277685Y4877568D1*
X2273344Y4885451D1*
X2269561Y4893615D1*
X2266354Y4902022D1*
X2263737Y4910631D1*
X2261724Y4919402D1*
X2260324Y4928290D1*
X2259544Y4937255D1*
X2259388Y4946251D1*
X2259857Y4955237D1*
X2260947Y4964169D1*
X2262655Y4973004D1*
X2264972Y4981699D1*
X2267886Y4990212D1*
X2271383Y4998503D1*
X2275447Y5006531D1*
X2280059Y5014257D1*
X2285195Y5021646D1*
X2290832Y5028660D1*
X2296941Y5035266D1*
X2303494Y5041432D1*
X2310459Y5047129D1*
X2317803Y5052329D1*
X2325489Y5057007D1*
X2333482Y5061141D1*
X2341742Y5064710D1*
X2350230Y5067698D1*
X2358904Y5070089D1*
X2367724Y5071873D1*
X2376646Y5073041D1*
X2385628Y5073587D1*
X2394625Y5073509D1*
X2403596Y5072807D1*
X2412497Y5071484D1*
X2421284Y5069547D1*
X2429915Y5067005D1*
X2438350Y5063870D1*
X2446547Y5060158D1*
X2454466Y5055886D1*
X2462070Y5051075D1*
X2469322Y5045748D1*
X2476187Y5039931D1*
X2482632Y5033651D1*
X2488626Y5026940D1*
X2494139Y5019829D1*
X2499146Y5012352D1*
X2503623Y5004547D1*
X2507547Y4996449D1*
X2510900Y4988099D1*
X2513665Y4979536D1*
X2515830Y4970802D1*
X2517384Y4961939D1*
X2518319Y4952990D1*
X2518631Y4944000D1*
X2518553Y4939501D1*
X2362802Y1039501D2*
X2362336Y1030514D1*
X2361406Y1021563D1*
X2360014Y1012672D1*
X2358164Y1003865D1*
X2355861Y995166D1*
X2353111Y986598D1*
X2349921Y978183D1*
X2346299Y969945D1*
X2342257Y961905D1*
X2337804Y954085D1*
X2332952Y946506D1*
X2327715Y939188D1*
X2322106Y932151D1*
X2316140Y925413D1*
X2309834Y918994D1*
X2303204Y912909D1*
X2296268Y907175D1*
X2289044Y901808D1*
X2281553Y896822D1*
X2273813Y892231D1*
X2265847Y888045D1*
X2257674Y884278D1*
X2249318Y880939D1*
X2240800Y878036D1*
X2232143Y875578D1*
X2223371Y873571D1*
X2214506Y872021D1*
X2205573Y870932D1*
X2196596Y870306D1*
X2187599Y870146D1*
X2178605Y870451D1*
X2169639Y871221D1*
X2160725Y872455D1*
X2151886Y874147D1*
X2143148Y876295D1*
X2134531Y878893D1*
X2126061Y881932D1*
X2117760Y885406D1*
X2109649Y889304D1*
X2101751Y893617D1*
X2094087Y898333D1*
X2086677Y903440D1*
X2079541Y908922D1*
X2072698Y914767D1*
X2066167Y920958D1*
X2059965Y927478D1*
X2054109Y934311D1*
X2048614Y941438D1*
X2043495Y948839D1*
X2038766Y956495D1*
X2034440Y964386D1*
X2030527Y972490D1*
X2027039Y980786D1*
X2023985Y989251D1*
X2021374Y997862D1*
X2019211Y1006597D1*
X2017503Y1015433D1*
X2016255Y1024345D1*
X2015469Y1033309D1*
X2015148Y1042303D1*
X2015293Y1051301D1*
X2015904Y1060279D1*
X2016978Y1069213D1*
X2018513Y1078081D1*
X2020505Y1086856D1*
X2022948Y1095517D1*
X2025836Y1104040D1*
X2029161Y1112402D1*
X2032915Y1120581D1*
X2037086Y1128555D1*
X2041665Y1136302D1*
X2046638Y1143802D1*
X2051993Y1151034D1*
X2057715Y1157980D1*
X2063788Y1164621D1*
X2070197Y1170938D1*
X2076924Y1176915D1*
X2083952Y1182536D1*
X2091261Y1187786D1*
X2098832Y1192651D1*
X2106644Y1197117D1*
X2114677Y1201173D1*
X2122909Y1204808D1*
X2131318Y1208013D1*
X2139882Y1210777D1*
X2148577Y1213096D1*
X2157381Y1214961D1*
X2166269Y1216368D1*
X2175219Y1217313D1*
X2184205Y1217794D1*
X2193204Y1217809D1*
X2202191Y1217359D1*
X2211144Y1216444D1*
X2220037Y1215067D1*
X2228847Y1213232D1*
X2237550Y1210944D1*
X2246123Y1208208D1*
X2254543Y1205032D1*
X2262787Y1201425D1*
X2270834Y1197396D1*
X2278662Y1192957D1*
X2286249Y1188118D1*
X2293576Y1182893D1*
X2300622Y1177296D1*
X2307370Y1171342D1*
X2313800Y1165046D1*
X2319896Y1158427D1*
X2325642Y1151500D1*
X2331021Y1144286D1*
X2336020Y1136803D1*
X2340625Y1129072D1*
X2344824Y1121112D1*
X2348605Y1112946D1*
X2351959Y1104595D1*
X2354876Y1096082D1*
X2357348Y1087430D1*
X2359370Y1078661D1*
X2360935Y1069799D1*
X2362040Y1060868D1*
X2362681Y1051892D1*
X2362860Y1044000D1*
X2362802Y1039501D1*
X1162802D2*
X1162336Y1030514D1*
X1161406Y1021563D1*
X1160014Y1012672D1*
X1158164Y1003865D1*
X1155861Y995166D1*
X1153111Y986598D1*
X1149921Y978183D1*
X1146299Y969945D1*
X1142257Y961905D1*
X1137804Y954085D1*
X1132952Y946506D1*
X1127715Y939188D1*
X1122106Y932151D1*
X1116140Y925413D1*
X1109834Y918994D1*
X1103204Y912909D1*
X1096268Y907175D1*
X1089044Y901808D1*
X1081553Y896822D1*
X1073813Y892231D1*
X1065847Y888045D1*
X1057674Y884278D1*
X1049318Y880939D1*
X1040800Y878036D1*
X1032143Y875578D1*
X1023371Y873571D1*
X1014506Y872021D1*
X1005573Y870932D1*
X996596Y870306D1*
X987599Y870146D1*
X978605Y870451D1*
X969639Y871221D1*
X960725Y872455D1*
X951886Y874147D1*
X943148Y876295D1*
X934531Y878893D1*
X926061Y881932D1*
X917760Y885406D1*
X909649Y889304D1*
X901751Y893617D1*
X894087Y898333D1*
X886677Y903440D1*
X879541Y908922D1*
X872698Y914767D1*
X866167Y920958D1*
X859965Y927478D1*
X854109Y934311D1*
X848614Y941438D1*
X843495Y948839D1*
X838766Y956495D1*
X834440Y964386D1*
X830527Y972490D1*
X827039Y980786D1*
X823985Y989251D1*
X821374Y997862D1*
X819211Y1006597D1*
X817503Y1015433D1*
X816255Y1024345D1*
X815469Y1033309D1*
X815148Y1042303D1*
X815293Y1051301D1*
X815904Y1060279D1*
X816978Y1069213D1*
X818513Y1078081D1*
X820505Y1086856D1*
X822948Y1095517D1*
X825836Y1104040D1*
X829161Y1112402D1*
X832915Y1120581D1*
X837086Y1128555D1*
X841665Y1136302D1*
X846638Y1143802D1*
X851993Y1151034D1*
X857715Y1157980D1*
X863788Y1164621D1*
X870197Y1170938D1*
X876924Y1176915D1*
X883952Y1182536D1*
X891261Y1187786D1*
X898832Y1192651D1*
X906644Y1197117D1*
X914677Y1201173D1*
X922909Y1204808D1*
X931318Y1208013D1*
X939882Y1210777D1*
X948577Y1213096D1*
X957381Y1214961D1*
X966269Y1216368D1*
X975219Y1217313D1*
X984205Y1217794D1*
X993204Y1217809D1*
X1002191Y1217359D1*
X1011144Y1216444D1*
X1020037Y1215067D1*
X1028847Y1213232D1*
X1037550Y1210944D1*
X1046123Y1208208D1*
X1054543Y1205032D1*
X1062787Y1201425D1*
X1070834Y1197396D1*
X1078662Y1192957D1*
X1086249Y1188118D1*
X1093576Y1182893D1*
X1100622Y1177296D1*
X1107370Y1171342D1*
X1113800Y1165046D1*
X1119896Y1158427D1*
X1125642Y1151500D1*
X1131021Y1144286D1*
X1136020Y1136803D1*
X1140625Y1129072D1*
X1144824Y1121112D1*
X1148605Y1112946D1*
X1151959Y1104595D1*
X1154876Y1096082D1*
X1157348Y1087430D1*
X1159370Y1078661D1*
X1160935Y1069799D1*
X1162040Y1060868D1*
X1162681Y1051892D1*
X1162860Y1044000D1*
X1162802Y1039501D1*
X768802D2*
X768336Y1030514D1*
X767406Y1021563D1*
X766014Y1012672D1*
X764164Y1003865D1*
X761861Y995166D1*
X759111Y986598D1*
X755921Y978183D1*
X752299Y969945D1*
X748257Y961905D1*
X743804Y954085D1*
X738952Y946506D1*
X733715Y939188D1*
X728106Y932151D1*
X722140Y925413D1*
X715834Y918994D1*
X709204Y912909D1*
X702268Y907175D1*
X695044Y901808D1*
X687553Y896822D1*
X679813Y892231D1*
X671847Y888045D1*
X663674Y884278D1*
X655318Y880939D1*
X646800Y878036D1*
X638143Y875578D1*
X629371Y873571D1*
X620506Y872021D1*
X611573Y870932D1*
X602596Y870306D1*
X593599Y870146D1*
X584605Y870451D1*
X575639Y871221D1*
X566725Y872455D1*
X557886Y874147D1*
X549148Y876295D1*
X540531Y878893D1*
X532061Y881932D1*
X523760Y885406D1*
X515649Y889304D1*
X507751Y893617D1*
X500087Y898333D1*
X492677Y903440D1*
X485541Y908922D1*
X478698Y914767D1*
X472167Y920958D1*
X465965Y927478D1*
X460109Y934311D1*
X454614Y941438D1*
X449495Y948839D1*
X444766Y956495D1*
X440440Y964386D1*
X436527Y972490D1*
X433039Y980786D1*
X429985Y989251D1*
X427374Y997862D1*
X425211Y1006597D1*
X423503Y1015433D1*
X422255Y1024345D1*
X421469Y1033309D1*
X421148Y1042303D1*
X421293Y1051301D1*
X421904Y1060279D1*
X422978Y1069213D1*
X424513Y1078081D1*
X426505Y1086856D1*
X428948Y1095517D1*
X431836Y1104040D1*
X435161Y1112402D1*
X438915Y1120581D1*
X443086Y1128555D1*
X447665Y1136302D1*
X452638Y1143802D1*
X457993Y1151034D1*
X463715Y1157980D1*
X469788Y1164621D1*
X476197Y1170938D1*
X482924Y1176915D1*
X489952Y1182536D1*
X497261Y1187786D1*
X504832Y1192651D1*
X512644Y1197117D1*
X520677Y1201173D1*
X528909Y1204808D1*
X537318Y1208013D1*
X545882Y1210777D1*
X554577Y1213096D1*
X563381Y1214961D1*
X572269Y1216368D1*
X581219Y1217313D1*
X590205Y1217794D1*
X599204Y1217809D1*
X608191Y1217359D1*
X617144Y1216444D1*
X626037Y1215067D1*
X634847Y1213232D1*
X643550Y1210944D1*
X652123Y1208208D1*
X660543Y1205032D1*
X668787Y1201425D1*
X676834Y1197396D1*
X684662Y1192957D1*
X692249Y1188118D1*
X699576Y1182893D1*
X706622Y1177296D1*
X713370Y1171342D1*
X719800Y1165046D1*
X725896Y1158427D1*
X731642Y1151500D1*
X737021Y1144286D1*
X742020Y1136803D1*
X746625Y1129072D1*
X750824Y1121112D1*
X754605Y1112946D1*
X757959Y1104595D1*
X760876Y1096082D1*
X763348Y1087430D1*
X765370Y1078661D1*
X766935Y1069799D1*
X768040Y1060868D1*
X768681Y1051892D1*
X768860Y1044000D1*
X768802Y1039501D1*
Y1515318D2*
X768336Y1506331D1*
X767406Y1497380D1*
X766014Y1488490D1*
X764164Y1479683D1*
X761861Y1470984D1*
X759111Y1462415D1*
X755921Y1454001D1*
X752299Y1445762D1*
X748257Y1437722D1*
X743804Y1429902D1*
X738952Y1422323D1*
X733715Y1415006D1*
X728106Y1407968D1*
X722140Y1401231D1*
X715834Y1394811D1*
X709204Y1388727D1*
X702268Y1382993D1*
X695044Y1377626D1*
X687553Y1372640D1*
X679813Y1368048D1*
X671847Y1363863D1*
X663674Y1360096D1*
X655318Y1356756D1*
X646800Y1353854D1*
X638143Y1351396D1*
X629371Y1349389D1*
X620506Y1347839D1*
X611573Y1346749D1*
X602596Y1346124D1*
X593599Y1345963D1*
X584605Y1346269D1*
X575639Y1347039D1*
X566725Y1348272D1*
X557886Y1349965D1*
X549148Y1352113D1*
X540531Y1354710D1*
X532061Y1357750D1*
X523760Y1361223D1*
X515649Y1365122D1*
X507751Y1369435D1*
X500087Y1374151D1*
X492677Y1379257D1*
X485541Y1384740D1*
X478698Y1390585D1*
X472167Y1396775D1*
X465965Y1403296D1*
X460109Y1410129D1*
X454614Y1417255D1*
X449495Y1424657D1*
X444766Y1432313D1*
X440440Y1440204D1*
X436527Y1448308D1*
X433039Y1456603D1*
X429985Y1465068D1*
X427374Y1473680D1*
X425211Y1482415D1*
X423503Y1491250D1*
X422255Y1500162D1*
X421469Y1509127D1*
X421148Y1518120D1*
X421293Y1527118D1*
X421904Y1536096D1*
X422978Y1545031D1*
X424513Y1553898D1*
X426505Y1562674D1*
X428948Y1571335D1*
X431836Y1579858D1*
X435161Y1588220D1*
X438915Y1596399D1*
X443086Y1604373D1*
X447665Y1612120D1*
X452638Y1619620D1*
X457993Y1626852D1*
X463715Y1633798D1*
X469788Y1640438D1*
X476197Y1646755D1*
X482924Y1652733D1*
X489952Y1658354D1*
X497261Y1663603D1*
X504832Y1668468D1*
X512644Y1672935D1*
X520677Y1676991D1*
X528909Y1680626D1*
X537318Y1683830D1*
X545882Y1686595D1*
X554577Y1688913D1*
X563381Y1690778D1*
X572269Y1692185D1*
X581219Y1693131D1*
X590205Y1693611D1*
X599204Y1693627D1*
X608191Y1693176D1*
X617144Y1692262D1*
X626037Y1690885D1*
X634847Y1689050D1*
X643550Y1686761D1*
X652123Y1684026D1*
X660543Y1680850D1*
X668787Y1677243D1*
X676834Y1673214D1*
X684662Y1668774D1*
X692249Y1663935D1*
X699576Y1658710D1*
X706622Y1653113D1*
X713370Y1647159D1*
X719800Y1640864D1*
X725896Y1634244D1*
X731642Y1627318D1*
X737021Y1620104D1*
X742020Y1612621D1*
X746625Y1604889D1*
X750824Y1596930D1*
X754605Y1588764D1*
X757959Y1580413D1*
X760876Y1571900D1*
X763348Y1563247D1*
X765370Y1554478D1*
X766935Y1545617D1*
X768040Y1536686D1*
X768681Y1527709D1*
X768860Y1519818D1*
X768802Y1515318D1*
X1162802Y1514501D2*
X1162336Y1505514D1*
X1161406Y1496563D1*
X1160014Y1487672D1*
X1158164Y1478865D1*
X1155861Y1470166D1*
X1153111Y1461598D1*
X1149921Y1453183D1*
X1146299Y1444945D1*
X1142257Y1436905D1*
X1137804Y1429085D1*
X1132952Y1421506D1*
X1127715Y1414188D1*
X1122106Y1407151D1*
X1116140Y1400413D1*
X1109834Y1393994D1*
X1103204Y1387909D1*
X1096268Y1382175D1*
X1089044Y1376808D1*
X1081553Y1371822D1*
X1073813Y1367231D1*
X1065847Y1363045D1*
X1057674Y1359278D1*
X1049318Y1355939D1*
X1040800Y1353036D1*
X1032143Y1350578D1*
X1023371Y1348571D1*
X1014506Y1347021D1*
X1005573Y1345932D1*
X996596Y1345306D1*
X987599Y1345146D1*
X978605Y1345451D1*
X969639Y1346221D1*
X960725Y1347455D1*
X951886Y1349147D1*
X943148Y1351295D1*
X934531Y1353893D1*
X926061Y1356932D1*
X917760Y1360406D1*
X909649Y1364304D1*
X901751Y1368617D1*
X894087Y1373333D1*
X886677Y1378440D1*
X879541Y1383922D1*
X872698Y1389767D1*
X866167Y1395958D1*
X859965Y1402478D1*
X854109Y1409311D1*
X848614Y1416438D1*
X843495Y1423839D1*
X838766Y1431495D1*
X834440Y1439386D1*
X830527Y1447490D1*
X827039Y1455786D1*
X823985Y1464251D1*
X821374Y1472862D1*
X819211Y1481597D1*
X817503Y1490433D1*
X816255Y1499345D1*
X815469Y1508309D1*
X815148Y1517303D1*
X815293Y1526301D1*
X815904Y1535279D1*
X816978Y1544213D1*
X818513Y1553081D1*
X820505Y1561856D1*
X822948Y1570517D1*
X825836Y1579040D1*
X829161Y1587402D1*
X832915Y1595581D1*
X837086Y1603555D1*
X841665Y1611302D1*
X846638Y1618802D1*
X851993Y1626034D1*
X857715Y1632980D1*
X863788Y1639621D1*
X870197Y1645938D1*
X876924Y1651915D1*
X883952Y1657536D1*
X891261Y1662786D1*
X898832Y1667651D1*
X906644Y1672117D1*
X914677Y1676173D1*
X922909Y1679808D1*
X931318Y1683013D1*
X939882Y1685777D1*
X948577Y1688096D1*
X957381Y1689961D1*
X966269Y1691368D1*
X975219Y1692313D1*
X984205Y1692794D1*
X993204Y1692809D1*
X1002191Y1692359D1*
X1011144Y1691444D1*
X1020037Y1690067D1*
X1028847Y1688232D1*
X1037550Y1685944D1*
X1046123Y1683208D1*
X1054543Y1680032D1*
X1062787Y1676425D1*
X1070834Y1672396D1*
X1078662Y1667957D1*
X1086249Y1663118D1*
X1093576Y1657893D1*
X1100622Y1652296D1*
X1107370Y1646342D1*
X1113800Y1640046D1*
X1119896Y1633427D1*
X1125642Y1626500D1*
X1131021Y1619286D1*
X1136020Y1611803D1*
X1140625Y1604072D1*
X1144824Y1596112D1*
X1148605Y1587946D1*
X1151959Y1579595D1*
X1154876Y1571082D1*
X1157348Y1562430D1*
X1159370Y1553661D1*
X1160935Y1544799D1*
X1162040Y1535868D1*
X1162681Y1526892D1*
X1162860Y1519000D1*
X1162802Y1514501D1*
X1962802Y1039501D2*
X1962336Y1030514D1*
X1961406Y1021563D1*
X1960014Y1012672D1*
X1958164Y1003865D1*
X1955861Y995166D1*
X1953111Y986598D1*
X1949921Y978183D1*
X1946299Y969945D1*
X1942257Y961905D1*
X1937804Y954085D1*
X1932952Y946506D1*
X1927715Y939188D1*
X1922106Y932151D1*
X1916140Y925413D1*
X1909834Y918994D1*
X1903204Y912909D1*
X1896268Y907175D1*
X1889044Y901808D1*
X1881553Y896822D1*
X1873813Y892231D1*
X1865847Y888045D1*
X1857674Y884278D1*
X1849318Y880939D1*
X1840800Y878036D1*
X1832143Y875578D1*
X1823371Y873571D1*
X1814506Y872021D1*
X1805573Y870932D1*
X1796596Y870306D1*
X1787599Y870146D1*
X1778605Y870451D1*
X1769639Y871221D1*
X1760725Y872455D1*
X1751886Y874147D1*
X1743148Y876295D1*
X1734531Y878893D1*
X1726061Y881932D1*
X1717760Y885406D1*
X1709649Y889304D1*
X1701751Y893617D1*
X1694087Y898333D1*
X1686677Y903440D1*
X1679541Y908922D1*
X1672698Y914767D1*
X1666167Y920958D1*
X1659965Y927478D1*
X1654109Y934311D1*
X1648614Y941438D1*
X1643495Y948839D1*
X1638766Y956495D1*
X1634440Y964386D1*
X1630527Y972490D1*
X1627039Y980786D1*
X1623985Y989251D1*
X1621374Y997862D1*
X1619211Y1006597D1*
X1617503Y1015433D1*
X1616255Y1024345D1*
X1615469Y1033309D1*
X1615148Y1042303D1*
X1615293Y1051301D1*
X1615904Y1060279D1*
X1616978Y1069213D1*
X1618513Y1078081D1*
X1620505Y1086856D1*
X1622948Y1095517D1*
X1625836Y1104040D1*
X1629161Y1112402D1*
X1632915Y1120581D1*
X1637086Y1128555D1*
X1641665Y1136302D1*
X1646638Y1143802D1*
X1651993Y1151034D1*
X1657715Y1157980D1*
X1663788Y1164621D1*
X1670197Y1170938D1*
X1676924Y1176915D1*
X1683952Y1182536D1*
X1691261Y1187786D1*
X1698832Y1192651D1*
X1706644Y1197117D1*
X1714677Y1201173D1*
X1722909Y1204808D1*
X1731318Y1208013D1*
X1739882Y1210777D1*
X1748577Y1213096D1*
X1757381Y1214961D1*
X1766269Y1216368D1*
X1775219Y1217313D1*
X1784205Y1217794D1*
X1793204Y1217809D1*
X1802191Y1217359D1*
X1811144Y1216444D1*
X1820037Y1215067D1*
X1828847Y1213232D1*
X1837550Y1210944D1*
X1846123Y1208208D1*
X1854543Y1205032D1*
X1862787Y1201425D1*
X1870834Y1197396D1*
X1878662Y1192957D1*
X1886249Y1188118D1*
X1893576Y1182893D1*
X1900622Y1177296D1*
X1907370Y1171342D1*
X1913800Y1165046D1*
X1919896Y1158427D1*
X1925642Y1151500D1*
X1931021Y1144286D1*
X1936020Y1136803D1*
X1940625Y1129072D1*
X1944824Y1121112D1*
X1948605Y1112946D1*
X1951959Y1104595D1*
X1954876Y1096082D1*
X1957348Y1087430D1*
X1959370Y1078661D1*
X1960935Y1069799D1*
X1962040Y1060868D1*
X1962681Y1051892D1*
X1962860Y1044000D1*
X1962802Y1039501D1*
X1562802Y1514501D2*
X1562336Y1505514D1*
X1561406Y1496563D1*
X1560014Y1487672D1*
X1558164Y1478865D1*
X1555861Y1470166D1*
X1553111Y1461598D1*
X1549921Y1453183D1*
X1546299Y1444945D1*
X1542257Y1436905D1*
X1537804Y1429085D1*
X1532952Y1421506D1*
X1527715Y1414188D1*
X1522106Y1407151D1*
X1516140Y1400413D1*
X1509834Y1393994D1*
X1503204Y1387909D1*
X1496268Y1382175D1*
X1489044Y1376808D1*
X1481553Y1371822D1*
X1473813Y1367231D1*
X1465847Y1363045D1*
X1457674Y1359278D1*
X1449318Y1355939D1*
X1440800Y1353036D1*
X1432143Y1350578D1*
X1423371Y1348571D1*
X1414506Y1347021D1*
X1405573Y1345932D1*
X1396596Y1345306D1*
X1387599Y1345146D1*
X1378605Y1345451D1*
X1369639Y1346221D1*
X1360725Y1347455D1*
X1351886Y1349147D1*
X1343148Y1351295D1*
X1334531Y1353893D1*
X1326061Y1356932D1*
X1317760Y1360406D1*
X1309649Y1364304D1*
X1301751Y1368617D1*
X1294087Y1373333D1*
X1286677Y1378440D1*
X1279541Y1383922D1*
X1272698Y1389767D1*
X1266167Y1395958D1*
X1259965Y1402478D1*
X1254109Y1409311D1*
X1248614Y1416438D1*
X1243495Y1423839D1*
X1238766Y1431495D1*
X1234440Y1439386D1*
X1230527Y1447490D1*
X1227039Y1455786D1*
X1223985Y1464251D1*
X1221374Y1472862D1*
X1219211Y1481597D1*
X1217503Y1490433D1*
X1216255Y1499345D1*
X1215469Y1508309D1*
X1215148Y1517303D1*
X1215293Y1526301D1*
X1215904Y1535279D1*
X1216978Y1544213D1*
X1218513Y1553081D1*
X1220505Y1561856D1*
X1222948Y1570517D1*
X1225836Y1579040D1*
X1229161Y1587402D1*
X1232915Y1595581D1*
X1237086Y1603555D1*
X1241665Y1611302D1*
X1246638Y1618802D1*
X1251993Y1626034D1*
X1257715Y1632980D1*
X1263788Y1639621D1*
X1270197Y1645938D1*
X1276924Y1651915D1*
X1283952Y1657536D1*
X1291261Y1662786D1*
X1298832Y1667651D1*
X1306644Y1672117D1*
X1314677Y1676173D1*
X1322909Y1679808D1*
X1331318Y1683013D1*
X1339882Y1685777D1*
X1348577Y1688096D1*
X1357381Y1689961D1*
X1366269Y1691368D1*
X1375219Y1692313D1*
X1384205Y1692794D1*
X1393204Y1692809D1*
X1402191Y1692359D1*
X1411144Y1691444D1*
X1420037Y1690067D1*
X1428847Y1688232D1*
X1437550Y1685944D1*
X1446123Y1683208D1*
X1454543Y1680032D1*
X1462787Y1676425D1*
X1470834Y1672396D1*
X1478662Y1667957D1*
X1486249Y1663118D1*
X1493576Y1657893D1*
X1500622Y1652296D1*
X1507370Y1646342D1*
X1513800Y1640046D1*
X1519896Y1633427D1*
X1525642Y1626500D1*
X1531021Y1619286D1*
X1536020Y1611803D1*
X1540625Y1604072D1*
X1544824Y1596112D1*
X1548605Y1587946D1*
X1551959Y1579595D1*
X1554876Y1571082D1*
X1557348Y1562430D1*
X1559370Y1553661D1*
X1560935Y1544799D1*
X1562040Y1535868D1*
X1562681Y1526892D1*
X1562860Y1519000D1*
X1562802Y1514501D1*
X1962802D2*
X1962336Y1505514D1*
X1961406Y1496563D1*
X1960014Y1487672D1*
X1958164Y1478865D1*
X1955861Y1470166D1*
X1953111Y1461598D1*
X1949921Y1453183D1*
X1946299Y1444945D1*
X1942257Y1436905D1*
X1937804Y1429085D1*
X1932952Y1421506D1*
X1927715Y1414188D1*
X1922106Y1407151D1*
X1916140Y1400413D1*
X1909834Y1393994D1*
X1903204Y1387909D1*
X1896268Y1382175D1*
X1889044Y1376808D1*
X1881553Y1371822D1*
X1873813Y1367231D1*
X1865847Y1363045D1*
X1857674Y1359278D1*
X1849318Y1355939D1*
X1840800Y1353036D1*
X1832143Y1350578D1*
X1823371Y1348571D1*
X1814506Y1347021D1*
X1805573Y1345932D1*
X1796596Y1345306D1*
X1787599Y1345146D1*
X1778605Y1345451D1*
X1769639Y1346221D1*
X1760725Y1347455D1*
X1751886Y1349147D1*
X1743148Y1351295D1*
X1734531Y1353893D1*
X1726061Y1356932D1*
X1717760Y1360406D1*
X1709649Y1364304D1*
X1701751Y1368617D1*
X1694087Y1373333D1*
X1686677Y1378440D1*
X1679541Y1383922D1*
X1672698Y1389767D1*
X1666167Y1395958D1*
X1659965Y1402478D1*
X1654109Y1409311D1*
X1648614Y1416438D1*
X1643495Y1423839D1*
X1638766Y1431495D1*
X1634440Y1439386D1*
X1630527Y1447490D1*
X1627039Y1455786D1*
X1623985Y1464251D1*
X1621374Y1472862D1*
X1619211Y1481597D1*
X1617503Y1490433D1*
X1616255Y1499345D1*
X1615469Y1508309D1*
X1615148Y1517303D1*
X1615293Y1526301D1*
X1615904Y1535279D1*
X1616978Y1544213D1*
X1618513Y1553081D1*
X1620505Y1561856D1*
X1622948Y1570517D1*
X1625836Y1579040D1*
X1629161Y1587402D1*
X1632915Y1595581D1*
X1637086Y1603555D1*
X1641665Y1611302D1*
X1646638Y1618802D1*
X1651993Y1626034D1*
X1657715Y1632980D1*
X1663788Y1639621D1*
X1670197Y1645938D1*
X1676924Y1651915D1*
X1683952Y1657536D1*
X1691261Y1662786D1*
X1698832Y1667651D1*
X1706644Y1672117D1*
X1714677Y1676173D1*
X1722909Y1679808D1*
X1731318Y1683013D1*
X1739882Y1685777D1*
X1748577Y1688096D1*
X1757381Y1689961D1*
X1766269Y1691368D1*
X1775219Y1692313D1*
X1784205Y1692794D1*
X1793204Y1692809D1*
X1802191Y1692359D1*
X1811144Y1691444D1*
X1820037Y1690067D1*
X1828847Y1688232D1*
X1837550Y1685944D1*
X1846123Y1683208D1*
X1854543Y1680032D1*
X1862787Y1676425D1*
X1870834Y1672396D1*
X1878662Y1667957D1*
X1886249Y1663118D1*
X1893576Y1657893D1*
X1900622Y1652296D1*
X1907370Y1646342D1*
X1913800Y1640046D1*
X1919896Y1633427D1*
X1925642Y1626500D1*
X1931021Y1619286D1*
X1936020Y1611803D1*
X1940625Y1604072D1*
X1944824Y1596112D1*
X1948605Y1587946D1*
X1951959Y1579595D1*
X1954876Y1571082D1*
X1957348Y1562430D1*
X1959370Y1553661D1*
X1960935Y1544799D1*
X1962040Y1535868D1*
X1962681Y1526892D1*
X1962860Y1519000D1*
X1962802Y1514501D1*
X2362802D2*
X2362336Y1505514D1*
X2361406Y1496563D1*
X2360014Y1487672D1*
X2358164Y1478865D1*
X2355861Y1470166D1*
X2353111Y1461598D1*
X2349921Y1453183D1*
X2346299Y1444945D1*
X2342257Y1436905D1*
X2337804Y1429085D1*
X2332952Y1421506D1*
X2327715Y1414188D1*
X2322106Y1407151D1*
X2316140Y1400413D1*
X2309834Y1393994D1*
X2303204Y1387909D1*
X2296268Y1382175D1*
X2289044Y1376808D1*
X2281553Y1371822D1*
X2273813Y1367231D1*
X2265847Y1363045D1*
X2257674Y1359278D1*
X2249318Y1355939D1*
X2240800Y1353036D1*
X2232143Y1350578D1*
X2223371Y1348571D1*
X2214506Y1347021D1*
X2205573Y1345932D1*
X2196596Y1345306D1*
X2187599Y1345146D1*
X2178605Y1345451D1*
X2169639Y1346221D1*
X2160725Y1347455D1*
X2151886Y1349147D1*
X2143148Y1351295D1*
X2134531Y1353893D1*
X2126061Y1356932D1*
X2117760Y1360406D1*
X2109649Y1364304D1*
X2101751Y1368617D1*
X2094087Y1373333D1*
X2086677Y1378440D1*
X2079541Y1383922D1*
X2072698Y1389767D1*
X2066167Y1395958D1*
X2059965Y1402478D1*
X2054109Y1409311D1*
X2048614Y1416438D1*
X2043495Y1423839D1*
X2038766Y1431495D1*
X2034440Y1439386D1*
X2030527Y1447490D1*
X2027039Y1455786D1*
X2023985Y1464251D1*
X2021374Y1472862D1*
X2019211Y1481597D1*
X2017503Y1490433D1*
X2016255Y1499345D1*
X2015469Y1508309D1*
X2015148Y1517303D1*
X2015293Y1526301D1*
X2015904Y1535279D1*
X2016978Y1544213D1*
X2018513Y1553081D1*
X2020505Y1561856D1*
X2022948Y1570517D1*
X2025836Y1579040D1*
X2029161Y1587402D1*
X2032915Y1595581D1*
X2037086Y1603555D1*
X2041665Y1611302D1*
X2046638Y1618802D1*
X2051993Y1626034D1*
X2057715Y1632980D1*
X2063788Y1639621D1*
X2070197Y1645938D1*
X2076924Y1651915D1*
X2083952Y1657536D1*
X2091261Y1662786D1*
X2098832Y1667651D1*
X2106644Y1672117D1*
X2114677Y1676173D1*
X2122909Y1679808D1*
X2131318Y1683013D1*
X2139882Y1685777D1*
X2148577Y1688096D1*
X2157381Y1689961D1*
X2166269Y1691368D1*
X2175219Y1692313D1*
X2184205Y1692794D1*
X2193204Y1692809D1*
X2202191Y1692359D1*
X2211144Y1691444D1*
X2220037Y1690067D1*
X2228847Y1688232D1*
X2237550Y1685944D1*
X2246123Y1683208D1*
X2254543Y1680032D1*
X2262787Y1676425D1*
X2270834Y1672396D1*
X2278662Y1667957D1*
X2286249Y1663118D1*
X2293576Y1657893D1*
X2300622Y1652296D1*
X2307370Y1646342D1*
X2313800Y1640046D1*
X2319896Y1633427D1*
X2325642Y1626500D1*
X2331021Y1619286D1*
X2336020Y1611803D1*
X2340625Y1604072D1*
X2344824Y1596112D1*
X2348605Y1587946D1*
X2351959Y1579595D1*
X2354876Y1571082D1*
X2357348Y1562430D1*
X2359370Y1553661D1*
X2360935Y1544799D1*
X2362040Y1535868D1*
X2362681Y1526892D1*
X2362860Y1519000D1*
X2362802Y1514501D1*
X2397066Y414502D2*
X2391698Y416346D1*
X2383432Y419899D1*
X2375509Y424163D1*
X2367991Y429106D1*
X2360936Y434689D1*
X2354398Y440870D1*
X2348428Y447601D1*
X2343071Y454829D1*
X2338369Y462500D1*
X2334359Y470554D1*
X2331070Y478928D1*
X2328529Y487559D1*
X2326755Y496379D1*
X2325762Y505322D1*
X2325557Y514316D1*
X2326142Y523294D1*
X2327512Y532186D1*
X2329658Y540924D1*
X2332562Y549440D1*
X2336202Y557668D1*
X2340549Y565544D1*
X2345571Y573009D1*
X2351229Y580005D1*
X2357479Y586477D1*
X2364272Y592376D1*
X2371557Y597656D1*
X2379277Y602277D1*
X2387373Y606202D1*
X2395782Y609402D1*
X2404439Y611852D1*
X2413278Y613532D1*
X2422230Y614431D1*
X2432476Y614592D1*
X2553273Y614541D1*
X2562245Y613861D1*
X2571122Y612396D1*
X2579836Y610158D1*
X2588321Y607165D1*
X2596510Y603438D1*
X2604340Y599007D1*
X2611752Y593906D1*
X2618687Y588175D1*
X2625093Y581857D1*
X2630919Y575002D1*
X2636122Y567661D1*
X2640661Y559893D1*
X2644500Y551756D1*
X2647611Y543314D1*
X2649969Y534631D1*
X2651556Y525775D1*
X2652360Y516814D1*
X2652367Y507651D1*
X2651578Y498689D1*
X2650005Y489830D1*
X2647661Y481144D1*
X2644564Y472696D1*
X2640738Y464553D1*
X2636212Y456778D1*
X2631021Y449429D1*
X2625206Y442564D1*
X2618810Y436236D1*
X2611884Y430493D1*
X2604481Y425380D1*
X2596658Y420937D1*
X2588475Y417197D1*
X2580947Y414503D1*
X2753540Y414509D1*
X2754735Y1018545D1*
X2752897Y1008257D1*
X2750819Y999501D1*
X2748292Y990864D1*
X2745321Y982370D1*
X2741914Y974040D1*
X2738081Y965899D1*
X2733832Y957966D1*
X2729178Y950264D1*
X2724131Y942813D1*
X2718706Y935633D1*
X2712917Y928744D1*
X2706779Y922163D1*
X2700309Y915908D1*
X2693523Y909997D1*
X2686441Y904445D1*
X2679081Y899267D1*
X2671463Y894476D1*
X2663608Y890086D1*
X2655536Y886109D1*
X2647268Y882554D1*
X2638828Y879432D1*
X2630238Y876751D1*
X2621521Y874518D1*
X2612699Y872739D1*
X2603798Y871419D1*
X2594840Y870561D1*
X2585849Y870168D1*
X2576850Y870240D1*
X2567868Y870778D1*
X2558925Y871780D1*
X2550045Y873244D1*
X2541254Y875165D1*
X2532573Y877538D1*
X2524027Y880357D1*
X2515639Y883615D1*
X2507430Y887303D1*
X2499423Y891410D1*
X2491639Y895926D1*
X2484099Y900838D1*
X2476824Y906135D1*
X2469832Y911800D1*
X2463143Y917820D1*
X2456775Y924178D1*
X2450743Y930857D1*
X2445066Y937839D1*
X2439757Y945105D1*
X2434832Y952636D1*
X2430302Y960413D1*
X2426182Y968413D1*
X2422480Y976615D1*
X2419208Y984998D1*
X2416374Y993539D1*
X2413986Y1002216D1*
X2412050Y1011004D1*
X2410572Y1019881D1*
X2409554Y1028822D1*
X2409001Y1037804D1*
X2408913Y1046803D1*
X2409291Y1055794D1*
X2410134Y1064753D1*
X2411439Y1073657D1*
X2413203Y1082481D1*
X2415421Y1091203D1*
X2418088Y1099798D1*
X2421195Y1108243D1*
X2424736Y1116516D1*
X2428700Y1124595D1*
X2433076Y1132458D1*
X2437854Y1140084D1*
X2443019Y1147453D1*
X2448560Y1154544D1*
X2454459Y1161340D1*
X2460703Y1167821D1*
X2467273Y1173970D1*
X2474153Y1179771D1*
X2481323Y1185208D1*
X2488765Y1190267D1*
X2496460Y1194934D1*
X2504385Y1199197D1*
X2512520Y1203044D1*
X2520844Y1206465D1*
X2529333Y1209450D1*
X2537965Y1211993D1*
X2546718Y1214085D1*
X2555567Y1215722D1*
X2564488Y1216898D1*
X2573459Y1217612D1*
X2582455Y1217860D1*
X2591451Y1217642D1*
X2600424Y1216959D1*
X2609350Y1215813D1*
X2618204Y1214207D1*
X2626964Y1212144D1*
X2635605Y1209631D1*
X2644104Y1206675D1*
X2652439Y1203282D1*
X2660588Y1199463D1*
X2668527Y1195227D1*
X2676237Y1190586D1*
X2683697Y1185553D1*
X2690886Y1180140D1*
X2697785Y1174362D1*
X2704377Y1168235D1*
X2710642Y1161776D1*
X2716565Y1155001D1*
X2722129Y1147928D1*
X2727320Y1140577D1*
X2732123Y1132967D1*
X2736526Y1125119D1*
X2740518Y1117054D1*
X2744086Y1108793D1*
X2747223Y1100358D1*
X2749919Y1091772D1*
X2752167Y1083058D1*
X2753961Y1074240D1*
X2754836Y1068702D1*
X2755685Y1498813D1*
X2754768Y1492108D1*
X2753146Y1483257D1*
X2751069Y1474501D1*
X2748541Y1465864D1*
X2745570Y1457370D1*
X2742163Y1449040D1*
X2738330Y1440899D1*
X2734081Y1432966D1*
X2729427Y1425264D1*
X2724381Y1417813D1*
X2718956Y1410633D1*
X2713166Y1403744D1*
X2707028Y1397163D1*
X2700558Y1390908D1*
X2693773Y1384997D1*
X2686691Y1379445D1*
X2679331Y1374267D1*
X2671713Y1369476D1*
X2663857Y1365086D1*
X2655785Y1361109D1*
X2647518Y1357554D1*
X2639078Y1354432D1*
X2630487Y1351751D1*
X2621770Y1349518D1*
X2612949Y1347739D1*
X2604047Y1346419D1*
X2595089Y1345561D1*
X2586098Y1345168D1*
X2577100Y1345240D1*
X2568117Y1345778D1*
X2559174Y1346780D1*
X2550295Y1348244D1*
X2541503Y1350165D1*
X2532823Y1352538D1*
X2524277Y1355357D1*
X2515888Y1358615D1*
X2507679Y1362303D1*
X2499672Y1366410D1*
X2491888Y1370926D1*
X2484349Y1375838D1*
X2477073Y1381135D1*
X2470082Y1386800D1*
X2463393Y1392820D1*
X2457024Y1399178D1*
X2450993Y1405857D1*
X2445315Y1412839D1*
X2440007Y1420105D1*
X2435081Y1427636D1*
X2430552Y1435413D1*
X2426431Y1443413D1*
X2422730Y1451615D1*
X2419458Y1459998D1*
X2416624Y1468539D1*
X2414236Y1477216D1*
X2412300Y1486004D1*
X2410821Y1494881D1*
X2409804Y1503822D1*
X2409250Y1512804D1*
X2409163Y1521803D1*
X2409540Y1530794D1*
X2410383Y1539753D1*
X2411688Y1548657D1*
X2413452Y1557481D1*
X2415670Y1566203D1*
X2418337Y1574798D1*
X2421445Y1583243D1*
X2424985Y1591516D1*
X2428949Y1599595D1*
X2433326Y1607458D1*
X2438103Y1615084D1*
X2443269Y1622453D1*
X2448809Y1629544D1*
X2454709Y1636340D1*
X2460952Y1642821D1*
X2467522Y1648970D1*
X2474402Y1654771D1*
X2481572Y1660208D1*
X2489015Y1665267D1*
X2496709Y1669934D1*
X2504634Y1674197D1*
X2512770Y1678044D1*
X2521093Y1681465D1*
X2529582Y1684450D1*
X2538215Y1686993D1*
X2546967Y1689085D1*
X2555816Y1690722D1*
X2564738Y1691898D1*
X2573708Y1692612D1*
X2582704Y1692860D1*
X2591700Y1692642D1*
X2600673Y1691959D1*
X2609599Y1690813D1*
X2618454Y1689207D1*
X2627213Y1687144D1*
X2635854Y1684631D1*
X2644353Y1681675D1*
X2652689Y1678282D1*
X2660837Y1674463D1*
X2668777Y1670227D1*
X2676487Y1665586D1*
X2683946Y1660553D1*
X2691135Y1655140D1*
X2698035Y1649362D1*
X2704626Y1643235D1*
X2710891Y1636776D1*
X2716814Y1630001D1*
X2722378Y1622928D1*
X2727569Y1615577D1*
X2732372Y1607967D1*
X2736776Y1600119D1*
X2740767Y1592054D1*
X2744336Y1583793D1*
X2747472Y1575358D1*
X2750168Y1566772D1*
X2752416Y1558058D1*
X2754210Y1549240D1*
X2755545Y1540341D1*
X2755764Y1538366D1*
X2763459Y5429485D1*
X2581447Y5429500D1*
X2588321Y5427015D1*
X2596510Y5423288D1*
X2604340Y5418858D1*
X2611752Y5413757D1*
X2618687Y5408025D1*
X2625093Y5401708D1*
X2630919Y5394852D1*
X2636122Y5387512D1*
X2640661Y5379743D1*
X2644500Y5371607D1*
X2647611Y5363164D1*
X2649969Y5354482D1*
X2651556Y5345626D1*
X2652360Y5336665D1*
X2652367Y5327501D1*
X2651578Y5318539D1*
X2650005Y5309680D1*
X2647661Y5300994D1*
X2644564Y5292547D1*
X2640738Y5284404D1*
X2636212Y5276628D1*
X2631021Y5269279D1*
X2625206Y5262414D1*
X2618810Y5256086D1*
X2611884Y5250344D1*
X2604481Y5245231D1*
X2596658Y5240787D1*
X2588475Y5237047D1*
X2579995Y5234040D1*
X2571285Y5231788D1*
X2562410Y5230309D1*
X2553440Y5229614D1*
X2527524Y5229557D1*
X2426893Y5229563D1*
X2417909Y5230053D1*
X2409003Y5231330D1*
X2400243Y5233383D1*
X2391698Y5236196D1*
X2383432Y5239749D1*
X2375509Y5244013D1*
X2367991Y5248956D1*
X2360936Y5254539D1*
X2354398Y5260720D1*
X2348428Y5267451D1*
X2343071Y5274680D1*
X2338369Y5282350D1*
X2334359Y5290404D1*
X2331070Y5298779D1*
X2328529Y5307409D1*
X2326755Y5316230D1*
X2325762Y5325172D1*
X2325557Y5334167D1*
X2326142Y5343145D1*
X2327512Y5352037D1*
X2329658Y5360774D1*
X2332562Y5369290D1*
X2336202Y5377518D1*
X2340549Y5385395D1*
X2345571Y5392860D1*
X2351229Y5399855D1*
X2357479Y5406328D1*
X2364272Y5412226D1*
X2371557Y5417507D1*
X2379277Y5422127D1*
X2387373Y5426052D1*
X2395782Y5429252D1*
X2396605Y5429505D1*
X781447Y5429500D1*
X788321Y5427015D1*
X796510Y5423288D1*
X804340Y5418858D1*
X811752Y5413757D1*
X818687Y5408025D1*
X825093Y5401708D1*
X830919Y5394852D1*
X836122Y5387512D1*
X840661Y5379743D1*
X844500Y5371607D1*
X847611Y5363164D1*
X849969Y5354482D1*
X851556Y5345626D1*
X852360Y5336665D1*
X852367Y5327501D1*
X851578Y5318539D1*
X850005Y5309680D1*
X847661Y5300994D1*
X844564Y5292547D1*
X840738Y5284404D1*
X836212Y5276628D1*
X831021Y5269279D1*
X825206Y5262414D1*
X818810Y5256086D1*
X811884Y5250344D1*
X804481Y5245231D1*
X796658Y5240787D1*
X788475Y5237047D1*
X779995Y5234040D1*
X771285Y5231788D1*
X762410Y5230309D1*
X753440Y5229614D1*
X727524Y5229557D1*
X626893Y5229563D1*
X617909Y5230053D1*
X609003Y5231330D1*
X600243Y5233383D1*
X591698Y5236196D1*
X583432Y5239749D1*
X575509Y5244013D1*
X567991Y5248956D1*
X560936Y5254539D1*
X554398Y5260720D1*
X548428Y5267451D1*
X543071Y5274680D1*
X538369Y5282350D1*
X534359Y5290404D1*
X531070Y5298779D1*
X528529Y5307409D1*
X526755Y5316230D1*
X525762Y5325172D1*
X525557Y5334167D1*
X526142Y5343145D1*
X527512Y5352037D1*
X529658Y5360774D1*
X532562Y5369290D1*
X536202Y5377518D1*
X540549Y5385395D1*
X545571Y5392860D1*
X551229Y5399855D1*
X557479Y5406328D1*
X564272Y5412226D1*
X571557Y5417507D1*
X579277Y5422127D1*
X587373Y5426052D1*
X595782Y5429252D1*
X596605Y5429505D1*
X414486Y5429500D1*
X414500Y414514D1*
X597014Y414500D1*
X591698Y416346D1*
X583432Y419899D1*
X575509Y424163D1*
X567991Y429106D1*
X560936Y434689D1*
X554398Y440870D1*
X548428Y447601D1*
X543071Y454829D1*
X538369Y462500D1*
X534359Y470554D1*
X531070Y478928D1*
X528529Y487559D1*
X526755Y496379D1*
X525762Y505322D1*
X525557Y514316D1*
X526142Y523294D1*
X527512Y532186D1*
X529658Y540924D1*
X532562Y549440D1*
X536202Y557668D1*
X540549Y565544D1*
X545571Y573009D1*
X551229Y580005D1*
X557479Y586477D1*
X564272Y592376D1*
X571557Y597656D1*
X579277Y602277D1*
X587373Y606202D1*
X595782Y609402D1*
X604439Y611852D1*
X613278Y613532D1*
X622230Y614431D1*
X632476Y614592D1*
X753273Y614541D1*
X762245Y613861D1*
X771122Y612396D1*
X779836Y610158D1*
X788321Y607165D1*
X796510Y603438D1*
X804340Y599007D1*
X811752Y593906D1*
X818687Y588175D1*
X825093Y581857D1*
X830919Y575002D1*
X836122Y567661D1*
X840661Y559893D1*
X844500Y551756D1*
X847611Y543314D1*
X849969Y534631D1*
X851556Y525775D1*
X852360Y516814D1*
X852367Y507651D1*
X851578Y498689D1*
X850005Y489830D1*
X847661Y481144D1*
X844564Y472696D1*
X840738Y464553D1*
X836212Y456778D1*
X831021Y449429D1*
X825206Y442564D1*
X818810Y436236D1*
X811884Y430493D1*
X804481Y425380D1*
X796658Y420937D1*
X788475Y417197D1*
X780947Y414503D1*
X2397014Y414500D1*
X1573127Y1027500D2*
X1572680Y1018512D1*
X1571788Y1009558D1*
X1570451Y1000658D1*
X1568675Y991836D1*
X1566463Y983113D1*
X1563820Y974511D1*
X1560754Y966051D1*
X1557271Y957753D1*
X1553381Y949638D1*
X1549092Y941727D1*
X1544416Y934038D1*
X1539364Y926591D1*
X1533948Y919404D1*
X1528182Y912494D1*
X1522081Y905880D1*
X1515658Y899577D1*
X1508930Y893600D1*
X1501914Y887965D1*
X1494627Y882685D1*
X1487086Y877773D1*
X1479311Y873242D1*
X1471320Y869103D1*
X1463134Y865365D1*
X1454772Y862039D1*
X1446256Y859131D1*
X1437605Y856651D1*
X1428843Y854603D1*
X1419989Y852992D1*
X1411066Y851823D1*
X1402096Y851099D1*
X1393101Y850821D1*
X1384104Y850989D1*
X1375126Y851605D1*
X1366189Y852665D1*
X1357317Y854168D1*
X1348530Y856109D1*
X1339850Y858485D1*
X1331298Y861288D1*
X1322897Y864513D1*
X1314666Y868151D1*
X1306626Y872193D1*
X1298796Y876629D1*
X1291196Y881448D1*
X1283845Y886639D1*
X1276761Y892189D1*
X1269961Y898083D1*
X1263462Y904308D1*
X1257280Y910848D1*
X1251431Y917686D1*
X1245928Y924807D1*
X1240786Y932192D1*
X1236017Y939824D1*
X1231632Y947682D1*
X1227644Y955749D1*
X1224060Y964004D1*
X1220891Y972427D1*
X1218144Y980996D1*
X1215826Y989692D1*
X1213943Y998491D1*
X1212499Y1007374D1*
X1211497Y1016317D1*
X1210941Y1025299D1*
X1210832Y1034297D1*
X1211169Y1043290D1*
X1211953Y1052255D1*
X1213181Y1061170D1*
X1214850Y1070013D1*
X1216956Y1078762D1*
X1219493Y1087396D1*
X1222457Y1095893D1*
X1225838Y1104233D1*
X1229630Y1112394D1*
X1233822Y1120357D1*
X1238404Y1128102D1*
X1243366Y1135610D1*
X1248693Y1142862D1*
X1254375Y1149841D1*
X1260396Y1156529D1*
X1266741Y1162910D1*
X1273396Y1168968D1*
X1280343Y1174688D1*
X1287566Y1180057D1*
X1295046Y1185059D1*
X1302766Y1189685D1*
X1310705Y1193921D1*
X1318845Y1197758D1*
X1327166Y1201186D1*
X1335647Y1204196D1*
X1344266Y1206782D1*
X1353004Y1208936D1*
X1361837Y1210654D1*
X1370745Y1211932D1*
X1379705Y1212765D1*
X1388696Y1213153D1*
X1397695Y1213093D1*
X1406680Y1212587D1*
X1415629Y1211636D1*
X1424519Y1210241D1*
X1433329Y1208406D1*
X1442037Y1206136D1*
X1450622Y1203437D1*
X1459062Y1200315D1*
X1467337Y1196778D1*
X1475425Y1192834D1*
X1483308Y1188493D1*
X1490966Y1183766D1*
X1498380Y1178665D1*
X1505531Y1173202D1*
X1512402Y1167391D1*
X1518976Y1161245D1*
X1525237Y1154781D1*
X1531169Y1148014D1*
X1536758Y1140961D1*
X1541989Y1133639D1*
X1546851Y1126066D1*
X1551331Y1118261D1*
X1555417Y1110243D1*
X1559101Y1102033D1*
X1562372Y1093649D1*
X1565223Y1085114D1*
X1567646Y1076447D1*
X1569637Y1067671D1*
X1571189Y1058807D1*
X1572299Y1049876D1*
X1572964Y1040902D1*
X1573183Y1032000D1*
X1573127Y1027500D1*
X937802Y1939501D2*
X937336Y1930514D1*
X936406Y1921563D1*
X935014Y1912672D1*
X933164Y1903865D1*
X930861Y1895166D1*
X928111Y1886598D1*
X924921Y1878183D1*
X921299Y1869945D1*
X917257Y1861905D1*
X912804Y1854085D1*
X907952Y1846506D1*
X902715Y1839188D1*
X897106Y1832151D1*
X891140Y1825413D1*
X884834Y1818994D1*
X878204Y1812909D1*
X871268Y1807175D1*
X864044Y1801808D1*
X856553Y1796822D1*
X848813Y1792231D1*
X840847Y1788045D1*
X832674Y1784278D1*
X824318Y1780939D1*
X815800Y1778036D1*
X807143Y1775578D1*
X798371Y1773571D1*
X789506Y1772021D1*
X780573Y1770932D1*
X771596Y1770306D1*
X762599Y1770146D1*
X753605Y1770451D1*
X744639Y1771221D1*
X735725Y1772455D1*
X726886Y1774147D1*
X718148Y1776295D1*
X709531Y1778893D1*
X701061Y1781932D1*
X692760Y1785406D1*
X684649Y1789304D1*
X676751Y1793617D1*
X669087Y1798333D1*
X661677Y1803440D1*
X654541Y1808922D1*
X647698Y1814767D1*
X641167Y1820958D1*
X634965Y1827478D1*
X629109Y1834311D1*
X623614Y1841438D1*
X618495Y1848839D1*
X613766Y1856495D1*
X609440Y1864386D1*
X605527Y1872490D1*
X602039Y1880786D1*
X598985Y1889251D1*
X596374Y1897862D1*
X594211Y1906597D1*
X592503Y1915433D1*
X591255Y1924345D1*
X590469Y1933309D1*
X590148Y1942303D1*
X590293Y1951301D1*
X590904Y1960279D1*
X591978Y1969213D1*
X593513Y1978081D1*
X595505Y1986856D1*
X597948Y1995517D1*
X600836Y2004040D1*
X604161Y2012402D1*
X607915Y2020581D1*
X612086Y2028555D1*
X616665Y2036302D1*
X621638Y2043802D1*
X626993Y2051034D1*
X632715Y2057980D1*
X638788Y2064621D1*
X645197Y2070938D1*
X651924Y2076915D1*
X658952Y2082536D1*
X666261Y2087786D1*
X673832Y2092651D1*
X681644Y2097117D1*
X689677Y2101173D1*
X697909Y2104808D1*
X706318Y2108013D1*
X714882Y2110777D1*
X723577Y2113096D1*
X732381Y2114961D1*
X741269Y2116368D1*
X750219Y2117313D1*
X759205Y2117794D1*
X768204Y2117809D1*
X777191Y2117359D1*
X786144Y2116444D1*
X795037Y2115067D1*
X803847Y2113232D1*
X812550Y2110944D1*
X821123Y2108208D1*
X829543Y2105032D1*
X837787Y2101425D1*
X845834Y2097396D1*
X853662Y2092957D1*
X861249Y2088118D1*
X868576Y2082893D1*
X875622Y2077296D1*
X882370Y2071342D1*
X888800Y2065046D1*
X894896Y2058427D1*
X900642Y2051500D1*
X906021Y2044286D1*
X911020Y2036803D1*
X915625Y2029072D1*
X919824Y2021112D1*
X923605Y2012946D1*
X926959Y2004595D1*
X929876Y1996082D1*
X932348Y1987430D1*
X934370Y1978661D1*
X935935Y1969799D1*
X937040Y1960868D1*
X937681Y1951892D1*
X937860Y1944000D1*
X937802Y1939501D1*
X1487802D2*
X1487336Y1930514D1*
X1486406Y1921563D1*
X1485014Y1912672D1*
X1483164Y1903865D1*
X1480861Y1895166D1*
X1478111Y1886598D1*
X1474921Y1878183D1*
X1471299Y1869945D1*
X1467257Y1861905D1*
X1462804Y1854085D1*
X1457952Y1846506D1*
X1452715Y1839188D1*
X1447106Y1832151D1*
X1441140Y1825413D1*
X1434834Y1818994D1*
X1428204Y1812909D1*
X1421268Y1807175D1*
X1414044Y1801808D1*
X1406553Y1796822D1*
X1398813Y1792231D1*
X1390847Y1788045D1*
X1382674Y1784278D1*
X1374318Y1780939D1*
X1365800Y1778036D1*
X1357143Y1775578D1*
X1348371Y1773571D1*
X1339506Y1772021D1*
X1330573Y1770932D1*
X1321596Y1770306D1*
X1312599Y1770146D1*
X1303605Y1770451D1*
X1294639Y1771221D1*
X1285725Y1772455D1*
X1276886Y1774147D1*
X1268148Y1776295D1*
X1259531Y1778893D1*
X1251061Y1781932D1*
X1242760Y1785406D1*
X1234649Y1789304D1*
X1226751Y1793617D1*
X1219087Y1798333D1*
X1211677Y1803440D1*
X1204541Y1808922D1*
X1197698Y1814767D1*
X1191167Y1820958D1*
X1184965Y1827478D1*
X1179109Y1834311D1*
X1173614Y1841438D1*
X1168495Y1848839D1*
X1163766Y1856495D1*
X1159440Y1864386D1*
X1155527Y1872490D1*
X1152039Y1880786D1*
X1148985Y1889251D1*
X1146374Y1897862D1*
X1144211Y1906597D1*
X1142503Y1915433D1*
X1141255Y1924345D1*
X1140469Y1933309D1*
X1140148Y1942303D1*
X1140293Y1951301D1*
X1140904Y1960279D1*
X1141978Y1969213D1*
X1143513Y1978081D1*
X1145505Y1986856D1*
X1147948Y1995517D1*
X1150836Y2004040D1*
X1154161Y2012402D1*
X1157915Y2020581D1*
X1162086Y2028555D1*
X1166665Y2036302D1*
X1171638Y2043802D1*
X1176993Y2051034D1*
X1182715Y2057980D1*
X1188788Y2064621D1*
X1195197Y2070938D1*
X1201924Y2076915D1*
X1208952Y2082536D1*
X1216261Y2087786D1*
X1223832Y2092651D1*
X1231644Y2097117D1*
X1239677Y2101173D1*
X1247909Y2104808D1*
X1256318Y2108013D1*
X1264882Y2110777D1*
X1273577Y2113096D1*
X1282381Y2114961D1*
X1291269Y2116368D1*
X1300219Y2117313D1*
X1309205Y2117794D1*
X1318204Y2117809D1*
X1327191Y2117359D1*
X1336144Y2116444D1*
X1345037Y2115067D1*
X1353847Y2113232D1*
X1362550Y2110944D1*
X1371123Y2108208D1*
X1379543Y2105032D1*
X1387787Y2101425D1*
X1395834Y2097396D1*
X1403662Y2092957D1*
X1411249Y2088118D1*
X1418576Y2082893D1*
X1425622Y2077296D1*
X1432370Y2071342D1*
X1438800Y2065046D1*
X1444896Y2058427D1*
X1450642Y2051500D1*
X1456021Y2044286D1*
X1461020Y2036803D1*
X1465625Y2029072D1*
X1469824Y2021112D1*
X1473605Y2012946D1*
X1476959Y2004595D1*
X1479876Y1996082D1*
X1482348Y1987430D1*
X1484370Y1978661D1*
X1485935Y1969799D1*
X1487040Y1960868D1*
X1487681Y1951892D1*
X1487860Y1944000D1*
X1487802Y1939501D1*
X2037802D2*
X2037336Y1930514D1*
X2036406Y1921563D1*
X2035014Y1912672D1*
X2033164Y1903865D1*
X2030861Y1895166D1*
X2028111Y1886598D1*
X2024921Y1878183D1*
X2021299Y1869945D1*
X2017257Y1861905D1*
X2012804Y1854085D1*
X2007952Y1846506D1*
X2002715Y1839188D1*
X1997106Y1832151D1*
X1991140Y1825413D1*
X1984834Y1818994D1*
X1978204Y1812909D1*
X1971268Y1807175D1*
X1964044Y1801808D1*
X1956553Y1796822D1*
X1948813Y1792231D1*
X1940847Y1788045D1*
X1932674Y1784278D1*
X1924318Y1780939D1*
X1915800Y1778036D1*
X1907143Y1775578D1*
X1898371Y1773571D1*
X1889506Y1772021D1*
X1880573Y1770932D1*
X1871596Y1770306D1*
X1862599Y1770146D1*
X1853605Y1770451D1*
X1844639Y1771221D1*
X1835725Y1772455D1*
X1826886Y1774147D1*
X1818148Y1776295D1*
X1809531Y1778893D1*
X1801061Y1781932D1*
X1792760Y1785406D1*
X1784649Y1789304D1*
X1776751Y1793617D1*
X1769087Y1798333D1*
X1761677Y1803440D1*
X1754541Y1808922D1*
X1747698Y1814767D1*
X1741167Y1820958D1*
X1734965Y1827478D1*
X1729109Y1834311D1*
X1723614Y1841438D1*
X1718495Y1848839D1*
X1713766Y1856495D1*
X1709440Y1864386D1*
X1705527Y1872490D1*
X1702039Y1880786D1*
X1698985Y1889251D1*
X1696374Y1897862D1*
X1694211Y1906597D1*
X1692503Y1915433D1*
X1691255Y1924345D1*
X1690469Y1933309D1*
X1690148Y1942303D1*
X1690293Y1951301D1*
X1690904Y1960279D1*
X1691978Y1969213D1*
X1693513Y1978081D1*
X1695505Y1986856D1*
X1697948Y1995517D1*
X1700836Y2004040D1*
X1704161Y2012402D1*
X1707915Y2020581D1*
X1712086Y2028555D1*
X1716665Y2036302D1*
X1721638Y2043802D1*
X1726993Y2051034D1*
X1732715Y2057980D1*
X1738788Y2064621D1*
X1745197Y2070938D1*
X1751924Y2076915D1*
X1758952Y2082536D1*
X1766261Y2087786D1*
X1773832Y2092651D1*
X1781644Y2097117D1*
X1789677Y2101173D1*
X1797909Y2104808D1*
X1806318Y2108013D1*
X1814882Y2110777D1*
X1823577Y2113096D1*
X1832381Y2114961D1*
X1841269Y2116368D1*
X1850219Y2117313D1*
X1859205Y2117794D1*
X1868204Y2117809D1*
X1877191Y2117359D1*
X1886144Y2116444D1*
X1895037Y2115067D1*
X1903847Y2113232D1*
X1912550Y2110944D1*
X1921123Y2108208D1*
X1929543Y2105032D1*
X1937787Y2101425D1*
X1945834Y2097396D1*
X1953662Y2092957D1*
X1961249Y2088118D1*
X1968576Y2082893D1*
X1975622Y2077296D1*
X1982370Y2071342D1*
X1988800Y2065046D1*
X1994896Y2058427D1*
X2000642Y2051500D1*
X2006021Y2044286D1*
X2011020Y2036803D1*
X2015625Y2029072D1*
X2019824Y2021112D1*
X2023605Y2012946D1*
X2026959Y2004595D1*
X2029876Y1996082D1*
X2032348Y1987430D1*
X2034370Y1978661D1*
X2035935Y1969799D1*
X2037040Y1960868D1*
X2037681Y1951892D1*
X2037860Y1944000D1*
X2037802Y1939501D1*
X2587802D2*
X2587336Y1930514D1*
X2586406Y1921563D1*
X2585014Y1912672D1*
X2583164Y1903865D1*
X2580861Y1895166D1*
X2578111Y1886598D1*
X2574921Y1878183D1*
X2571299Y1869945D1*
X2567257Y1861905D1*
X2562804Y1854085D1*
X2557952Y1846506D1*
X2552715Y1839188D1*
X2547106Y1832151D1*
X2541140Y1825413D1*
X2534834Y1818994D1*
X2528204Y1812909D1*
X2521268Y1807175D1*
X2514044Y1801808D1*
X2506553Y1796822D1*
X2498813Y1792231D1*
X2490847Y1788045D1*
X2482674Y1784278D1*
X2474318Y1780939D1*
X2465800Y1778036D1*
X2457143Y1775578D1*
X2448371Y1773571D1*
X2439506Y1772021D1*
X2430573Y1770932D1*
X2421596Y1770306D1*
X2412599Y1770146D1*
X2403605Y1770451D1*
X2394639Y1771221D1*
X2385725Y1772455D1*
X2376886Y1774147D1*
X2368148Y1776295D1*
X2359531Y1778893D1*
X2351061Y1781932D1*
X2342760Y1785406D1*
X2334649Y1789304D1*
X2326751Y1793617D1*
X2319087Y1798333D1*
X2311677Y1803440D1*
X2304541Y1808922D1*
X2297698Y1814767D1*
X2291167Y1820958D1*
X2284965Y1827478D1*
X2279109Y1834311D1*
X2273614Y1841438D1*
X2268495Y1848839D1*
X2263766Y1856495D1*
X2259440Y1864386D1*
X2255527Y1872490D1*
X2252039Y1880786D1*
X2248985Y1889251D1*
X2246374Y1897862D1*
X2244211Y1906597D1*
X2242503Y1915433D1*
X2241255Y1924345D1*
X2240469Y1933309D1*
X2240148Y1942303D1*
X2240293Y1951301D1*
X2240904Y1960279D1*
X2241978Y1969213D1*
X2243513Y1978081D1*
X2245505Y1986856D1*
X2247948Y1995517D1*
X2250836Y2004040D1*
X2254161Y2012402D1*
X2257915Y2020581D1*
X2262086Y2028555D1*
X2266665Y2036302D1*
X2271638Y2043802D1*
X2276993Y2051034D1*
X2282715Y2057980D1*
X2288788Y2064621D1*
X2295197Y2070938D1*
X2301924Y2076915D1*
X2308952Y2082536D1*
X2316261Y2087786D1*
X2323832Y2092651D1*
X2331644Y2097117D1*
X2339677Y2101173D1*
X2347909Y2104808D1*
X2356318Y2108013D1*
X2364882Y2110777D1*
X2373577Y2113096D1*
X2382381Y2114961D1*
X2391269Y2116368D1*
X2400219Y2117313D1*
X2409205Y2117794D1*
X2418204Y2117809D1*
X2427191Y2117359D1*
X2436144Y2116444D1*
X2445037Y2115067D1*
X2453847Y2113232D1*
X2462550Y2110944D1*
X2471123Y2108208D1*
X2479543Y2105032D1*
X2487787Y2101425D1*
X2495834Y2097396D1*
X2503662Y2092957D1*
X2511249Y2088118D1*
X2518576Y2082893D1*
X2525622Y2077296D1*
X2532370Y2071342D1*
X2538800Y2065046D1*
X2544896Y2058427D1*
X2550642Y2051500D1*
X2556021Y2044286D1*
X2561020Y2036803D1*
X2565625Y2029072D1*
X2569824Y2021112D1*
X2573605Y2012946D1*
X2576959Y2004595D1*
X2579876Y1996082D1*
X2582348Y1987430D1*
X2584370Y1978661D1*
X2585935Y1969799D1*
X2587040Y1960868D1*
X2587681Y1951892D1*
X2587860Y1944000D1*
X2587802Y1939501D1*
X937802Y2589501D2*
X937336Y2580514D1*
X936406Y2571563D1*
X935014Y2562672D1*
X933164Y2553865D1*
X930861Y2545166D1*
X928111Y2536598D1*
X924921Y2528183D1*
X921299Y2519945D1*
X917257Y2511905D1*
X912804Y2504085D1*
X907952Y2496506D1*
X902715Y2489188D1*
X897106Y2482151D1*
X891140Y2475413D1*
X884834Y2468994D1*
X878204Y2462909D1*
X871268Y2457175D1*
X864044Y2451808D1*
X856553Y2446822D1*
X848813Y2442231D1*
X840847Y2438045D1*
X832674Y2434278D1*
X824318Y2430939D1*
X815800Y2428036D1*
X807143Y2425578D1*
X798371Y2423571D1*
X789506Y2422021D1*
X780573Y2420932D1*
X771596Y2420306D1*
X762599Y2420146D1*
X753605Y2420451D1*
X744639Y2421221D1*
X735725Y2422455D1*
X726886Y2424147D1*
X718148Y2426295D1*
X709531Y2428893D1*
X701061Y2431932D1*
X692760Y2435406D1*
X684649Y2439304D1*
X676751Y2443617D1*
X669087Y2448333D1*
X661677Y2453440D1*
X654541Y2458922D1*
X647698Y2464767D1*
X641167Y2470958D1*
X634965Y2477478D1*
X629109Y2484311D1*
X623614Y2491438D1*
X618495Y2498839D1*
X613766Y2506495D1*
X609440Y2514386D1*
X605527Y2522490D1*
X602039Y2530786D1*
X598985Y2539251D1*
X596374Y2547862D1*
X594211Y2556597D1*
X592503Y2565433D1*
X591255Y2574345D1*
X590469Y2583309D1*
X590148Y2592303D1*
X590293Y2601301D1*
X590904Y2610279D1*
X591978Y2619213D1*
X593513Y2628081D1*
X595505Y2636856D1*
X597948Y2645517D1*
X600836Y2654040D1*
X604161Y2662402D1*
X607915Y2670581D1*
X612086Y2678555D1*
X616665Y2686302D1*
X621638Y2693802D1*
X626993Y2701034D1*
X632715Y2707980D1*
X638788Y2714621D1*
X645197Y2720938D1*
X651924Y2726915D1*
X658952Y2732536D1*
X666261Y2737786D1*
X673832Y2742651D1*
X681644Y2747117D1*
X689677Y2751173D1*
X697909Y2754808D1*
X706318Y2758013D1*
X714882Y2760777D1*
X723577Y2763096D1*
X732381Y2764961D1*
X741269Y2766368D1*
X750219Y2767313D1*
X759205Y2767794D1*
X768204Y2767809D1*
X777191Y2767359D1*
X786144Y2766444D1*
X795037Y2765067D1*
X803847Y2763232D1*
X812550Y2760944D1*
X821123Y2758208D1*
X829543Y2755032D1*
X837787Y2751425D1*
X845834Y2747396D1*
X853662Y2742957D1*
X861249Y2738118D1*
X868576Y2732893D1*
X875622Y2727296D1*
X882370Y2721342D1*
X888800Y2715046D1*
X894896Y2708427D1*
X900642Y2701500D1*
X906021Y2694286D1*
X911020Y2686803D1*
X915625Y2679072D1*
X919824Y2671112D1*
X923605Y2662946D1*
X926959Y2654595D1*
X929876Y2646082D1*
X932348Y2637430D1*
X934370Y2628661D1*
X935935Y2619799D1*
X937040Y2610868D1*
X937681Y2601892D1*
X937860Y2594000D1*
X937802Y2589501D1*
X1487802D2*
X1487336Y2580514D1*
X1486406Y2571563D1*
X1485014Y2562672D1*
X1483164Y2553865D1*
X1480861Y2545166D1*
X1478111Y2536598D1*
X1474921Y2528183D1*
X1471299Y2519945D1*
X1467257Y2511905D1*
X1462804Y2504085D1*
X1457952Y2496506D1*
X1452715Y2489188D1*
X1447106Y2482151D1*
X1441140Y2475413D1*
X1434834Y2468994D1*
X1428204Y2462909D1*
X1421268Y2457175D1*
X1414044Y2451808D1*
X1406553Y2446822D1*
X1398813Y2442231D1*
X1390847Y2438045D1*
X1382674Y2434278D1*
X1374318Y2430939D1*
X1365800Y2428036D1*
X1357143Y2425578D1*
X1348371Y2423571D1*
X1339506Y2422021D1*
X1330573Y2420932D1*
X1321596Y2420306D1*
X1312599Y2420146D1*
X1303605Y2420451D1*
X1294639Y2421221D1*
X1285725Y2422455D1*
X1276886Y2424147D1*
X1268148Y2426295D1*
X1259531Y2428893D1*
X1251061Y2431932D1*
X1242760Y2435406D1*
X1234649Y2439304D1*
X1226751Y2443617D1*
X1219087Y2448333D1*
X1211677Y2453440D1*
X1204541Y2458922D1*
X1197698Y2464767D1*
X1191167Y2470958D1*
X1184965Y2477478D1*
X1179109Y2484311D1*
X1173614Y2491438D1*
X1168495Y2498839D1*
X1163766Y2506495D1*
X1159440Y2514386D1*
X1155527Y2522490D1*
X1152039Y2530786D1*
X1148985Y2539251D1*
X1146374Y2547862D1*
X1144211Y2556597D1*
X1142503Y2565433D1*
X1141255Y2574345D1*
X1140469Y2583309D1*
X1140148Y2592303D1*
X1140293Y2601301D1*
X1140904Y2610279D1*
X1141978Y2619213D1*
X1143513Y2628081D1*
X1145505Y2636856D1*
X1147948Y2645517D1*
X1150836Y2654040D1*
X1154161Y2662402D1*
X1157915Y2670581D1*
X1162086Y2678555D1*
X1166665Y2686302D1*
X1171638Y2693802D1*
X1176993Y2701034D1*
X1182715Y2707980D1*
X1188788Y2714621D1*
X1195197Y2720938D1*
X1201924Y2726915D1*
X1208952Y2732536D1*
X1216261Y2737786D1*
X1223832Y2742651D1*
X1231644Y2747117D1*
X1239677Y2751173D1*
X1247909Y2754808D1*
X1256318Y2758013D1*
X1264882Y2760777D1*
X1273577Y2763096D1*
X1282381Y2764961D1*
X1291269Y2766368D1*
X1300219Y2767313D1*
X1309205Y2767794D1*
X1318204Y2767809D1*
X1327191Y2767359D1*
X1336144Y2766444D1*
X1345037Y2765067D1*
X1353847Y2763232D1*
X1362550Y2760944D1*
X1371123Y2758208D1*
X1379543Y2755032D1*
X1387787Y2751425D1*
X1395834Y2747396D1*
X1403662Y2742957D1*
X1411249Y2738118D1*
X1418576Y2732893D1*
X1425622Y2727296D1*
X1432370Y2721342D1*
X1438800Y2715046D1*
X1444896Y2708427D1*
X1450642Y2701500D1*
X1456021Y2694286D1*
X1461020Y2686803D1*
X1465625Y2679072D1*
X1469824Y2671112D1*
X1473605Y2662946D1*
X1476959Y2654595D1*
X1479876Y2646082D1*
X1482348Y2637430D1*
X1484370Y2628661D1*
X1485935Y2619799D1*
X1487040Y2610868D1*
X1487681Y2601892D1*
X1487860Y2594000D1*
X1487802Y2589501D1*
X2037802D2*
X2037336Y2580514D1*
X2036406Y2571563D1*
X2035014Y2562672D1*
X2033164Y2553865D1*
X2030861Y2545166D1*
X2028111Y2536598D1*
X2024921Y2528183D1*
X2021299Y2519945D1*
X2017257Y2511905D1*
X2012804Y2504085D1*
X2007952Y2496506D1*
X2002715Y2489188D1*
X1997106Y2482151D1*
X1991140Y2475413D1*
X1984834Y2468994D1*
X1978204Y2462909D1*
X1971268Y2457175D1*
X1964044Y2451808D1*
X1956553Y2446822D1*
X1948813Y2442231D1*
X1940847Y2438045D1*
X1932674Y2434278D1*
X1924318Y2430939D1*
X1915800Y2428036D1*
X1907143Y2425578D1*
X1898371Y2423571D1*
X1889506Y2422021D1*
X1880573Y2420932D1*
X1871596Y2420306D1*
X1862599Y2420146D1*
X1853605Y2420451D1*
X1844639Y2421221D1*
X1835725Y2422455D1*
X1826886Y2424147D1*
X1818148Y2426295D1*
X1809531Y2428893D1*
X1801061Y2431932D1*
X1792760Y2435406D1*
X1784649Y2439304D1*
X1776751Y2443617D1*
X1769087Y2448333D1*
X1761677Y2453440D1*
X1754541Y2458922D1*
X1747698Y2464767D1*
X1741167Y2470958D1*
X1734965Y2477478D1*
X1729109Y2484311D1*
X1723614Y2491438D1*
X1718495Y2498839D1*
X1713766Y2506495D1*
X1709440Y2514386D1*
X1705527Y2522490D1*
X1702039Y2530786D1*
X1698985Y2539251D1*
X1696374Y2547862D1*
X1694211Y2556597D1*
X1692503Y2565433D1*
X1691255Y2574345D1*
X1690469Y2583309D1*
X1690148Y2592303D1*
X1690293Y2601301D1*
X1690904Y2610279D1*
X1691978Y2619213D1*
X1693513Y2628081D1*
X1695505Y2636856D1*
X1697948Y2645517D1*
X1700836Y2654040D1*
X1704161Y2662402D1*
X1707915Y2670581D1*
X1712086Y2678555D1*
X1716665Y2686302D1*
X1721638Y2693802D1*
X1726993Y2701034D1*
X1732715Y2707980D1*
X1738788Y2714621D1*
X1745197Y2720938D1*
X1751924Y2726915D1*
X1758952Y2732536D1*
X1766261Y2737786D1*
X1773832Y2742651D1*
X1781644Y2747117D1*
X1789677Y2751173D1*
X1797909Y2754808D1*
X1806318Y2758013D1*
X1814882Y2760777D1*
X1823577Y2763096D1*
X1832381Y2764961D1*
X1841269Y2766368D1*
X1850219Y2767313D1*
X1859205Y2767794D1*
X1868204Y2767809D1*
X1877191Y2767359D1*
X1886144Y2766444D1*
X1895037Y2765067D1*
X1903847Y2763232D1*
X1912550Y2760944D1*
X1921123Y2758208D1*
X1929543Y2755032D1*
X1937787Y2751425D1*
X1945834Y2747396D1*
X1953662Y2742957D1*
X1961249Y2738118D1*
X1968576Y2732893D1*
X1975622Y2727296D1*
X1982370Y2721342D1*
X1988800Y2715046D1*
X1994896Y2708427D1*
X2000642Y2701500D1*
X2006021Y2694286D1*
X2011020Y2686803D1*
X2015625Y2679072D1*
X2019824Y2671112D1*
X2023605Y2662946D1*
X2026959Y2654595D1*
X2029876Y2646082D1*
X2032348Y2637430D1*
X2034370Y2628661D1*
X2035935Y2619799D1*
X2037040Y2610868D1*
X2037681Y2601892D1*
X2037860Y2594000D1*
X2037802Y2589501D1*
X2587802D2*
X2587336Y2580514D1*
X2586406Y2571563D1*
X2585014Y2562672D1*
X2583164Y2553865D1*
X2580861Y2545166D1*
X2578111Y2536598D1*
X2574921Y2528183D1*
X2571299Y2519945D1*
X2567257Y2511905D1*
X2562804Y2504085D1*
X2557952Y2496506D1*
X2552715Y2489188D1*
X2547106Y2482151D1*
X2541140Y2475413D1*
X2534834Y2468994D1*
X2528204Y2462909D1*
X2521268Y2457175D1*
X2514044Y2451808D1*
X2506553Y2446822D1*
X2498813Y2442231D1*
X2490847Y2438045D1*
X2482674Y2434278D1*
X2474318Y2430939D1*
X2465800Y2428036D1*
X2457143Y2425578D1*
X2448371Y2423571D1*
X2439506Y2422021D1*
X2430573Y2420932D1*
X2421596Y2420306D1*
X2412599Y2420146D1*
X2403605Y2420451D1*
X2394639Y2421221D1*
X2385725Y2422455D1*
X2376886Y2424147D1*
X2368148Y2426295D1*
X2359531Y2428893D1*
X2351061Y2431932D1*
X2342760Y2435406D1*
X2334649Y2439304D1*
X2326751Y2443617D1*
X2319087Y2448333D1*
X2311677Y2453440D1*
X2304541Y2458922D1*
X2297698Y2464767D1*
X2291167Y2470958D1*
X2284965Y2477478D1*
X2279109Y2484311D1*
X2273614Y2491438D1*
X2268495Y2498839D1*
X2263766Y2506495D1*
X2259440Y2514386D1*
X2255527Y2522490D1*
X2252039Y2530786D1*
X2248985Y2539251D1*
X2246374Y2547862D1*
X2244211Y2556597D1*
X2242503Y2565433D1*
X2241255Y2574345D1*
X2240469Y2583309D1*
X2240148Y2592303D1*
X2240293Y2601301D1*
X2240904Y2610279D1*
X2241978Y2619213D1*
X2243513Y2628081D1*
X2245505Y2636856D1*
X2247948Y2645517D1*
X2250836Y2654040D1*
X2254161Y2662402D1*
X2257915Y2670581D1*
X2262086Y2678555D1*
X2266665Y2686302D1*
X2271638Y2693802D1*
X2276993Y2701034D1*
X2282715Y2707980D1*
X2288788Y2714621D1*
X2295197Y2720938D1*
X2301924Y2726915D1*
X2308952Y2732536D1*
X2316261Y2737786D1*
X2323832Y2742651D1*
X2331644Y2747117D1*
X2339677Y2751173D1*
X2347909Y2754808D1*
X2356318Y2758013D1*
X2364882Y2760777D1*
X2373577Y2763096D1*
X2382381Y2764961D1*
X2391269Y2766368D1*
X2400219Y2767313D1*
X2409205Y2767794D1*
X2418204Y2767809D1*
X2427191Y2767359D1*
X2436144Y2766444D1*
X2445037Y2765067D1*
X2453847Y2763232D1*
X2462550Y2760944D1*
X2471123Y2758208D1*
X2479543Y2755032D1*
X2487787Y2751425D1*
X2495834Y2747396D1*
X2503662Y2742957D1*
X2511249Y2738118D1*
X2518576Y2732893D1*
X2525622Y2727296D1*
X2532370Y2721342D1*
X2538800Y2715046D1*
X2544896Y2708427D1*
X2550642Y2701500D1*
X2556021Y2694286D1*
X2561020Y2686803D1*
X2565625Y2679072D1*
X2569824Y2671112D1*
X2573605Y2662946D1*
X2576959Y2654595D1*
X2579876Y2646082D1*
X2582348Y2637430D1*
X2584370Y2628661D1*
X2585935Y2619799D1*
X2587040Y2610868D1*
X2587681Y2601892D1*
X2587860Y2594000D1*
X2587802Y2589501D1*
X961668Y4370750D2*
X961202Y4361763D1*
X960272Y4352812D1*
X958880Y4343921D1*
X957030Y4335115D1*
X954727Y4326415D1*
X951977Y4317847D1*
X948787Y4309432D1*
X945166Y4301194D1*
X941123Y4293154D1*
X936670Y4285334D1*
X931818Y4277755D1*
X926581Y4270437D1*
X920972Y4263400D1*
X915006Y4256663D1*
X908700Y4250243D1*
X902070Y4244158D1*
X895134Y4238425D1*
X887910Y4233058D1*
X880419Y4228072D1*
X872680Y4223480D1*
X864713Y4219295D1*
X856541Y4215527D1*
X848184Y4212188D1*
X839666Y4209285D1*
X831009Y4206827D1*
X822237Y4204821D1*
X813372Y4203270D1*
X804440Y4202181D1*
X795462Y4201555D1*
X786465Y4201395D1*
X777471Y4201700D1*
X768505Y4202471D1*
X759591Y4203704D1*
X750753Y4205397D1*
X742014Y4207545D1*
X733398Y4210142D1*
X724927Y4213181D1*
X716626Y4216655D1*
X708515Y4220554D1*
X700617Y4224867D1*
X692953Y4229583D1*
X685543Y4234689D1*
X678407Y4240172D1*
X671564Y4246016D1*
X665033Y4252207D1*
X658831Y4258728D1*
X652975Y4265560D1*
X647480Y4272687D1*
X642361Y4280088D1*
X637632Y4287745D1*
X633306Y4295635D1*
X629393Y4303739D1*
X625906Y4312035D1*
X622852Y4320500D1*
X620240Y4329111D1*
X618077Y4337847D1*
X616369Y4346682D1*
X615121Y4355594D1*
X614335Y4364559D1*
X614014Y4373552D1*
X614159Y4382550D1*
X614770Y4391528D1*
X615844Y4400463D1*
X617379Y4409330D1*
X619371Y4418106D1*
X621814Y4426767D1*
X624702Y4435290D1*
X628027Y4443652D1*
X631781Y4451831D1*
X635952Y4459804D1*
X640531Y4467551D1*
X645504Y4475051D1*
X650859Y4482284D1*
X656581Y4489230D1*
X662654Y4495870D1*
X669063Y4502187D1*
X675791Y4508164D1*
X682818Y4513785D1*
X690127Y4519035D1*
X697698Y4523900D1*
X705510Y4528366D1*
X713543Y4532423D1*
X721775Y4536058D1*
X730185Y4539262D1*
X738748Y4542027D1*
X747444Y4544345D1*
X756247Y4546210D1*
X765135Y4547617D1*
X774085Y4548562D1*
X783071Y4549043D1*
X792070Y4549059D1*
X801058Y4548608D1*
X810010Y4547693D1*
X818903Y4546317D1*
X827713Y4544482D1*
X836416Y4542193D1*
X844989Y4539457D1*
X853409Y4536282D1*
X861654Y4532675D1*
X869700Y4528646D1*
X877528Y4524206D1*
X885115Y4519367D1*
X892442Y4514142D1*
X899489Y4508545D1*
X906236Y4502591D1*
X912666Y4496295D1*
X918763Y4489676D1*
X924508Y4482750D1*
X929887Y4475535D1*
X934886Y4468053D1*
X939491Y4460321D1*
X943690Y4452362D1*
X947471Y4444196D1*
X950825Y4435845D1*
X953742Y4427332D1*
X956214Y4418679D1*
X958236Y4409910D1*
X959801Y4401048D1*
X960906Y4392117D1*
X961547Y4383141D1*
X961726Y4375249D1*
X961668Y4370750D1*
X962802Y3589501D2*
X962336Y3580514D1*
X961406Y3571563D1*
X960014Y3562672D1*
X958164Y3553865D1*
X955861Y3545166D1*
X953111Y3536598D1*
X949921Y3528183D1*
X946299Y3519945D1*
X942257Y3511905D1*
X937804Y3504085D1*
X932952Y3496506D1*
X927715Y3489188D1*
X922106Y3482151D1*
X916140Y3475413D1*
X909834Y3468994D1*
X903204Y3462909D1*
X896268Y3457175D1*
X889044Y3451808D1*
X881553Y3446822D1*
X873813Y3442231D1*
X865847Y3438045D1*
X857674Y3434278D1*
X849318Y3430939D1*
X840800Y3428036D1*
X832143Y3425578D1*
X823371Y3423571D1*
X814506Y3422021D1*
X805573Y3420932D1*
X796596Y3420306D1*
X787599Y3420146D1*
X778605Y3420451D1*
X769639Y3421221D1*
X760725Y3422455D1*
X751886Y3424147D1*
X743148Y3426295D1*
X734531Y3428893D1*
X726061Y3431932D1*
X717760Y3435406D1*
X709649Y3439304D1*
X701751Y3443617D1*
X694087Y3448333D1*
X686677Y3453440D1*
X679541Y3458922D1*
X672698Y3464767D1*
X666167Y3470958D1*
X659965Y3477478D1*
X654109Y3484311D1*
X648614Y3491438D1*
X643495Y3498839D1*
X638766Y3506495D1*
X634440Y3514386D1*
X630527Y3522490D1*
X627039Y3530786D1*
X623985Y3539251D1*
X621374Y3547862D1*
X619211Y3556597D1*
X617503Y3565433D1*
X616255Y3574345D1*
X615469Y3583309D1*
X615148Y3592303D1*
X615293Y3601301D1*
X615904Y3610279D1*
X616978Y3619213D1*
X618513Y3628081D1*
X620505Y3636856D1*
X622948Y3645517D1*
X625836Y3654040D1*
X629161Y3662402D1*
X632915Y3670581D1*
X637086Y3678555D1*
X641665Y3686302D1*
X646638Y3693802D1*
X651993Y3701034D1*
X657715Y3707980D1*
X663788Y3714621D1*
X670197Y3720938D1*
X676924Y3726915D1*
X683952Y3732536D1*
X691261Y3737786D1*
X698832Y3742651D1*
X706644Y3747117D1*
X714677Y3751173D1*
X722909Y3754808D1*
X731318Y3758013D1*
X739882Y3760777D1*
X748577Y3763096D1*
X757381Y3764961D1*
X766269Y3766368D1*
X775219Y3767313D1*
X784205Y3767794D1*
X793204Y3767809D1*
X802191Y3767359D1*
X811144Y3766444D1*
X820037Y3765067D1*
X828847Y3763232D1*
X837550Y3760944D1*
X846123Y3758208D1*
X854543Y3755032D1*
X862787Y3751425D1*
X870834Y3747396D1*
X878662Y3742957D1*
X886249Y3738118D1*
X893576Y3732893D1*
X900622Y3727296D1*
X907370Y3721342D1*
X913800Y3715046D1*
X919896Y3708427D1*
X925642Y3701500D1*
X931021Y3694286D1*
X936020Y3686803D1*
X940625Y3679072D1*
X944824Y3671112D1*
X948605Y3662946D1*
X951959Y3654595D1*
X954876Y3646082D1*
X957348Y3637430D1*
X959370Y3628661D1*
X960935Y3619799D1*
X962040Y3610868D1*
X962681Y3601892D1*
X962860Y3594000D1*
X962802Y3589501D1*
X1732120Y4670473D2*
X1833622Y4670412D1*
X1836644Y4669934D1*
X1839554Y4668988D1*
X1842281Y4667599D1*
X1844756Y4665800D1*
X1846920Y4663637D1*
X1848718Y4661161D1*
X1850108Y4658435D1*
X1851053Y4655525D1*
X1851532Y4652502D1*
X1851592Y4632972D1*
X1851532Y3149600D1*
X1851053Y3146578D1*
X1850108Y3143668D1*
X1848718Y3140941D1*
X1846920Y3138466D1*
X1844756Y3136302D1*
X1842281Y3134503D1*
X1839554Y3133114D1*
X1836644Y3132169D1*
X1833622Y3131690D1*
X1814092Y3131630D1*
X1730572Y3131690D1*
X1727550Y3132169D1*
X1724640Y3133114D1*
X1721914Y3134503D1*
X1719438Y3136302D1*
X1717274Y3138466D1*
X1715476Y3140941D1*
X1714087Y3143668D1*
X1713141Y3146578D1*
X1712662Y3149600D1*
X1712602Y3169130D1*
X1712662Y4652502D1*
X1713141Y4655525D1*
X1714087Y4658435D1*
X1715476Y4661161D1*
X1717274Y4663637D1*
X1719438Y4665800D1*
X1721914Y4667599D1*
X1724640Y4668988D1*
X1727550Y4669934D1*
X1730572Y4670412D1*
X1732108Y4670472D1*
X2120365Y4670924D2*
X2221867Y4670864D1*
X2224889Y4670385D1*
X2227800Y4669440D1*
X2230526Y4668050D1*
X2233002Y4666252D1*
X2235165Y4664088D1*
X2236964Y4661613D1*
X2238353Y4658886D1*
X2239298Y4655976D1*
X2239777Y4652954D1*
X2239837Y4633424D1*
X2239777Y3150051D1*
X2239298Y3147029D1*
X2238353Y3144119D1*
X2236964Y3141393D1*
X2235165Y3138917D1*
X2233002Y3136753D1*
X2230526Y3134955D1*
X2227800Y3133566D1*
X2224889Y3132620D1*
X2221867Y3132141D1*
X2202337Y3132081D1*
X2118818Y3132141D1*
X2115796Y3132620D1*
X2112885Y3133566D1*
X2110159Y3134955D1*
X2107684Y3136753D1*
X2105520Y3138917D1*
X2103721Y3141393D1*
X2102332Y3144119D1*
X2101387Y3147029D1*
X2100908Y3150051D1*
X2100848Y3169581D1*
X2100908Y4652954D1*
X2101387Y4655976D1*
X2102332Y4658886D1*
X2103721Y4661613D1*
X2105520Y4664088D1*
X2107684Y4666252D1*
X2110159Y4668050D1*
X2112885Y4669440D1*
X2115796Y4670385D1*
X2118818Y4670864D1*
X2120354Y4670924D1*
X500111Y2933249D2*
Y2813701D1*
X520951Y2792774D1*
X522553Y2790571D1*
X523789Y2788143D1*
X524631Y2785553D1*
X525057Y2782862D1*
Y2780138D1*
X524631Y2777447D1*
X523789Y2774857D1*
X522553Y2772429D1*
X520951Y2770226D1*
X519025Y2768299D1*
X516821Y2766698D1*
X514394Y2765461D1*
X511803Y2764620D1*
X509113Y2764193D1*
X506389D1*
X503698Y2764620D1*
X501107Y2765461D1*
X498680Y2766698D1*
X496476Y2768299D1*
X476383Y2788316D1*
X469550Y2795226D1*
X467949Y2797429D1*
X466712Y2799857D1*
X465870Y2802447D1*
X465444Y2805138D1*
X465391Y2833500D1*
X465444Y2939111D1*
X465870Y2941802D1*
X466712Y2944393D1*
X467949Y2946820D1*
X469550Y2949024D1*
X471476Y2950950D1*
X473680Y2952551D1*
X476107Y2953788D1*
X478698Y2954630D1*
X481389Y2955056D1*
X484113D1*
X486803Y2954630D1*
X489394Y2953788D1*
X491821Y2952551D1*
X494025Y2950950D1*
X495951Y2949024D1*
X497553Y2946820D1*
X498789Y2944393D1*
X499631Y2941802D1*
X500057Y2939111D1*
X500111Y2933249D1*
D29*
X2189000Y1044000D3*
X989000D3*
X595000D3*
Y1519818D3*
X989000Y1519000D3*
X1789000Y1044000D3*
X1389000Y1519000D3*
X1789000D3*
X2189000D3*
D30*
X2489000Y512150D3*
X689000D3*
D31*
X1392000Y1032000D3*
D30*
X689000Y5332000D3*
X2489000D3*
D29*
X2583000Y1519000D3*
X2582751Y1044000D3*
X764000Y1944000D3*
X1314000D3*
X1864000D3*
X2414000D3*
X764000Y2594000D3*
X1314000D3*
X1864000D3*
X2414000D3*
X787866Y4375249D3*
X789000Y3594000D3*
M02*
