G04 DipTrace 3.3.0.0*
G04 monsooon_01.GBS*
%MOIN*%
G04 #@! TF.FileFunction,Soldermask,Bot*
G04 #@! TF.Part,Single*
%AMOUTLINE14*
4,1,8,
-0.008419,-0.020325,
-0.020325,-0.008419,
-0.020325,0.008419,
-0.008419,0.020325,
0.008419,0.020325,
0.020325,0.008419,
0.020325,-0.008419,
0.008419,-0.020325,
-0.008419,-0.020325,
0*%
%AMOUTLINE15*
4,1,8,
0.014159,0.034184,
0.034184,0.014159,
0.034184,-0.014159,
0.014159,-0.034184,
-0.014159,-0.034184,
-0.034184,-0.014159,
-0.034184,0.014159,
-0.014159,0.034184,
0.014159,0.034184,
0*%
%AMOUTLINE18*
4,1,8,
0.02197,0.0091,
0.0091,0.02197,
-0.0091,0.02197,
-0.02197,0.0091,
-0.02197,-0.0091,
-0.0091,-0.02197,
0.0091,-0.02197,
0.02197,-0.0091,
0.02197,0.0091,
0*%
%ADD47C,0.047559*%
%ADD52O,0.054X0.074*%
%ADD53O,0.092388X0.072*%
%ADD54C,0.055433*%
%ADD55C,0.074*%
%ADD73O,0.110394X0.071024*%
%ADD75O,0.063543X0.073031*%
%ADD87O,0.063031X0.098031*%
%ADD93O,0.083031X0.093031*%
%ADD95C,0.073031*%
%ADD97O,0.093031X0.083031*%
%ADD140OUTLINE14*%
%ADD141OUTLINE15*%
%ADD144OUTLINE18*%
%FSLAX26Y26*%
G04*
G70*
G90*
G75*
G01*
G04 BotMask*
%LPD*%
D97*
X1381699Y781199D3*
Y456199D3*
D95*
Y881199D3*
D97*
X2181699Y982199D3*
Y1307199D3*
D95*
Y882199D3*
D97*
X1781699Y982199D3*
Y1307199D3*
D95*
Y882199D3*
D97*
X981699Y982199D3*
Y1307199D3*
D95*
Y882199D3*
D97*
X2575450Y982199D3*
Y1307199D3*
D95*
Y882199D3*
D93*
X2543699Y1544199D3*
X2218699D3*
D95*
X2643699D3*
D97*
X2575450Y781199D3*
Y456199D3*
D95*
Y881199D3*
D97*
X2181699Y781199D3*
Y456199D3*
D95*
Y881199D3*
D97*
X1381699Y982199D3*
Y1307199D3*
D95*
Y882199D3*
D97*
X587950Y982199D3*
Y1307199D3*
D95*
Y882199D3*
D97*
X981699Y781199D3*
Y456199D3*
D95*
Y881199D3*
D97*
X587950Y781199D3*
Y456199D3*
D95*
Y881199D3*
D93*
X1993699Y1544199D3*
X1668699D3*
D95*
X2093699D3*
D93*
X1169699D3*
X1494699D3*
D95*
X1069699D3*
D93*
X619699D3*
X944699D3*
D95*
X519699D3*
D140*
X494201Y4637950D3*
X544199D3*
X494201Y4587950D3*
X544199D3*
X494201Y4537950D3*
X544199D3*
X494201Y4487950D3*
X544199D3*
X494201Y4437950D3*
X544199D3*
D141*
X2681699Y2462950D3*
X2581699D3*
X2681699Y2562950D3*
X2581699D3*
X2681699Y2662950D3*
X2581699D3*
X2681699Y2762950D3*
X2581699D3*
X2681699Y2862950D3*
X2581699D3*
D47*
X2110440Y4544199D3*
X2031699D3*
X1952959D3*
X1810440D3*
X1731699D3*
X1652959D3*
X1510440D3*
X1431699D3*
X1352959D3*
X1210440D3*
X1131699D3*
X1052959D3*
D87*
X1825450Y2713047D3*
X1925450D3*
X1825450Y4287850D3*
X1725450Y2713047D3*
X1625450Y4287850D3*
Y2713047D3*
X1050450Y2713058D3*
X1150450D3*
X1050450Y4287861D3*
X950450Y2713058D3*
X850450Y4287861D3*
Y2713058D3*
D52*
X2283274Y3699860D3*
X2381699D3*
X2480125D3*
D53*
X2196660Y3975450D3*
X2566739D3*
D52*
X1758274Y1918609D3*
X1856699D3*
X1955125D3*
D53*
X1671660Y2194199D3*
X2041739D3*
D87*
X1437949Y2713047D3*
X1537949D3*
X1437949Y4287850D3*
X1337949Y2713047D3*
X1237949Y4287850D3*
Y2713047D3*
X662959D3*
X762959D3*
X662959Y4287850D3*
X562959Y2713047D3*
X462959Y4287850D3*
Y2713047D3*
D52*
X2308274Y1918609D3*
X2406699D3*
X2505125D3*
D53*
X2221660Y2194199D3*
X2591739D3*
D52*
X1208274Y1918609D3*
X1306699D3*
X1405125D3*
D53*
X1121660Y2194199D3*
X1491739D3*
D52*
X658274Y1918609D3*
X756699D3*
X855125D3*
D53*
X571660Y2194199D3*
X941739D3*
D144*
X1975400Y631699D3*
X1581699D3*
D54*
X1876975Y533274D3*
X1778550D3*
X1680125D3*
X1876975Y730125D3*
X1778550D3*
X1680125D3*
D55*
X2253699Y4455199D3*
X2509699D3*
X2253699Y4633199D3*
X2509699D3*
X653699Y4455199D3*
X909699D3*
X653699Y4633199D3*
X909699D3*
D75*
X2479692Y2899199D3*
X2381699Y2898924D3*
X2283699Y2899199D3*
D73*
X2194692Y3194199D3*
X2568707D3*
D75*
X2479692Y2799199D3*
X2381699Y2798924D3*
X2283707Y2799199D3*
G36*
X1983858Y4364359D2*
Y4275111D1*
X2163868Y4272086D1*
X2200172Y4229731D1*
X2564729Y4225193D1*
X2575318Y4347720D1*
X2702383Y4358309D1*
X2703801Y4550197D1*
X2660819Y4606010D1*
X2583374Y4649794D1*
X2577940Y4406829D1*
X2569401Y4399067D1*
X2286848Y4399843D1*
X2251917Y4360254D1*
D1*
X1983858Y4364359D1*
G37*
G36*
X2071521Y3425217D2*
X2069814Y3553297D1*
X2110799Y3597699D1*
X2682893D1*
X2685454Y3362884D1*
X2626537Y3362030D1*
X2587259Y3424363D1*
D1*
X2071521Y3425217D1*
G37*
M02*
