M48
INCH
T01C0.015
T02C0.024
T03C0.0276
T04C0.0354
T05C0.0394
T06C0.04
T07C0.043
T08C0.0433
T09C0.052
T10C0.0591
%
T01
X+008371Y+025694
X+007046Y+025644
X+006535Y+025170
X+006441Y+024385
X+006441Y+023649
X+007721Y+023132
X+008685Y+022893
X+009782Y+022608
X+010204Y+023132
X+010727Y+023214
X+011250Y+023487
X+012132Y+023185
X+012459Y+022355
X+012449Y+020864
X+010647Y+020151
X+009195Y+020923
X+009923Y+023816
X+009897Y+024402
X+010801Y+024630
X+010687Y+025358
X+010127Y+025469
X+011553Y+025836
X+012475Y+025223
X+013004Y+025755
X+012941Y+024420
X+012941Y+023816
X+013911Y+023848
X+013997Y+023487
X+014670Y+022696
X+015802Y+023200
X+016129Y+022817
X+016109Y+023798
X+016443Y+024223
X+016669Y+023669
X+016977Y+024667
X+017550Y+024342
X+017550Y+025260
X+018152Y+025528
X+018593Y+025543
X+019228Y+025930
X+020886Y+025526
X+021007Y+026186
X+020872Y+027246
X+020844Y+028167
X+020779Y+028984
X+020417Y+030032
X+021192Y+030879
X+021742Y+030400
X+023629Y+030629
X+023817Y+031317
X+024754Y+032254
X+025817Y+030629
X+025483Y+030092
X+023334Y+028989
X+022508Y+026875
X+024041Y+026660
X+024821Y+026196
X+023475Y+024683
X+022799Y+025190
X+022880Y+024067
X+024547Y+024172
X+024265Y+022780
X+026231Y+022695
X+027013Y+021056
X+026170Y+019817
X+024067Y+020129
X+022751Y+017562
X+020968Y+016942
X+020245Y+018471
X+019681Y+018077
X+018994Y+017562
X+018482Y+016200
X+017367Y+016025
X+017423Y+016902
X+017036Y+017523
X+016103Y+016848
X+016195Y+015940
X+015372Y+015940
X+014431Y+015949
X+013897Y+015455
X+013279Y+014867
X+012570Y+014780
X+011992Y+013850
X+012024Y+012790
X+012495Y+012784
X+014194Y+014539
X+015646Y+014966
X+016540Y+014535
X+015912Y+013857
X+015879Y+012789
X+016571Y+012758
X+017999Y+014475
X+019338Y+014973
X+019920Y+013890
X+019979Y+012831
X+020893Y+012840
X+020841Y+014555
X+021550Y+014880
X+022596Y+014832
X+024103Y+013899
X+024777Y+014540
X+025652Y+014507
X+024700Y+012781
X+024162Y+012764
X+023471Y+010918
X+021116Y+009073
X+020048Y+009467
X+019516Y+009664
X+019458Y+008652
X+019251Y+008023
X+017785Y+006186
X+016232Y+006886
X+015378Y+008067
X+015606Y+008742
X+015420Y+009527
X+015975Y+009643
X+017057Y+009162
X+012817Y+009080
X+012016Y+009634
X+011505Y+009616
X+011518Y+008517
X+011304Y+007920
X+011574Y+006993
X+013121Y+006515
X+008858Y+006993
X+007613Y+008046
X+008335Y+008674
X+008120Y+009605
X+007641Y+009567
X+006982Y+009072
X+006112Y+011727
X+004565Y+013110
X+008124Y+012757
X+008805Y+012705
X+008103Y+013857
X+008836Y+014523
X+010204Y+014483
X+008150Y+015923
X+007560Y+015075
X+006695Y+016051
X+005403Y+017541
X+009696Y+017804
X+010862Y+017355
X+013318Y+016211
X+014791Y+017138
X+015150Y+017283
X+015232Y+018471
X+014722Y+018401
X+014879Y+019817
X+016129Y+020129
X+016116Y+019120
X+016361Y+018718
X+016944Y+019474
X+015227Y+021198
X+013911Y+024693
X+015800Y+025192
X+016530Y+025829
X+016756Y+028570
X+016640Y+029587
X+015864Y+029933
X+014988Y+031240
X+013549Y+031752
X+013442Y+032192
X+012887Y+032564
X+013141Y+032850
X+012872Y+033348
X+012374Y+032875
X+011434Y+032651
X+010981Y+034485
X+009936Y+034025
X+009685Y+033621
X+009403Y+033958
X+008917Y+032968
X+008760Y+032618
X+008254Y+033522
X+008173Y+033883
X+007926Y+034117
X+007721Y+035584
X+007384Y+035505
X+006947Y+035266
X+007568Y+036017
X+007972Y+036601
X+008229Y+036891
X+007942Y+037692
X+008583Y+038485
X+008984Y+038488
X+009464Y+038710
X+009177Y+039668
X+009206Y+040221
X+008572Y+040602
X+008193Y+040337
X+008444Y+039889
X+008193Y+038834
X+007161Y+038673
X+006333Y+039067
X+005575Y+039557
X+004626Y+039242
X+006333Y+040572
X+006241Y+041160
X+005977Y+042219
X+006442Y+043754
X+008897Y+042054
X+010048Y+039961
X+010362Y+039721
X+010492Y+038768
X+010942Y+038687
X+011550Y+038823
X+011002Y+037987
X+009798Y+037325
X+009833Y+036911
X+009844Y+036491
X+009051Y+036633
X+009336Y+037319
X+010018Y+035405
X+009819Y+035122
X+010981Y+036086
X+012374Y+036395
X+012872Y+035879
X+012636Y+035587
X+013311Y+036118
X+014167Y+035986
X+014703Y+036028
X+015010Y+035421
X+015495Y+035714
X+015961Y+035155
X+016379Y+034879
X+015055Y+034717
X+014173Y+035151
X+014195Y+037071
X+014569Y+038059
X+015308Y+038224
X+015734Y+038202
X+016195Y+038034
X+016774Y+038129
X+016253Y+039455
X+016800Y+039944
X+016798Y+041780
X+017217Y+041750
X+017660Y+042138
X+016312Y+041805
X+015731Y+041720
X+015740Y+042164
X+015245Y+041891
X+014808Y+041860
X+013764Y+040449
X+012774Y+039698
X+011427Y+040717
X+010712Y+043655
X+010989Y+043917
X+010801Y+044349
X+011515Y+044471
X+011468Y+046128
X+012112Y+046120
X+012774Y+045736
X+013176Y+046120
X+013777Y+046129
X+014558Y+046147
X+015289Y+046108
X+016103Y+046126
X+016788Y+046126
X+017660Y+046134
X+018338Y+046114
X+019099Y+046114
X+020696Y+046137
X+021670Y+046343
X+022120Y+045335
X+020752Y+044584
X+019099Y+044289
X+017255Y+043900
X+016116Y+045169
X+015125Y+044323
X+014808Y+044584
X+014690Y+045177
X+013764Y+044471
X+013161Y+043937
X+013255Y+043244
X+009698Y+044832
X+009971Y+045953
X+010530Y+046137
X+012973Y+037104
X+015961Y+033521
X+016379Y+033317
X+016026Y+032502
X+014988Y+032786
X+013299Y+031348
X+012250Y+029922
X+012660Y+029605
X+013192Y+029254
X+014031Y+028760
X+013754Y+028389
X+011498Y+029387
X+011072Y+028942
X+010938Y+030461
X+010136Y+030560
X+010136Y+031253
X+008582Y+031091
X+008611Y+029922
X+008342Y+029673
X+008343Y+029176
X+008954Y+028398
X+008482Y+027738
X+007046Y+027864
X+006636Y+028137
X+006947Y+028728
X+007227Y+029087
X+005677Y+029537
X+005702Y+028230
X+004579Y+030377
X+004989Y+032050
X+005051Y+032618
X+004999Y+033300
X+005677Y+033274
X+006653Y+033314
X+006352Y+031655
X+009315Y+029425
X+010075Y+027738
X+007486Y+024651
X+004424Y+024379
X+017567Y+029629
X+018000Y+029275
X+017755Y+031067
X+017968Y+032280
X+020185Y+036489
X+022930Y+035668
X+022904Y+035073
X+023833Y+034941
X+023828Y+034455
X+024911Y+035081
X+024871Y+035651
X+026155Y+035668
X+026146Y+034726
X+026755Y+042442
X+027067Y+042817
X+026755Y+043129
X+024258Y+043293
X+024245Y+043768
X+023927Y+042921
X+023463Y+042426
X+023182Y+042924
X+022690Y+043302
X+022670Y+043751
X+021678Y+043048
X+020505Y+041942
X+020505Y+041317
X+019380Y+041317
X+019380Y+041942
X+021270Y+024645
X+020363Y+023665
X+021270Y+021302
X+024315Y+007142
X+022928Y+006560
X+022643Y+005402
X+019949Y+005273
X+026781Y+005272
X+007125Y+005768
X+005003Y+006058
X+004782Y+005449
X+004493Y+005107
X+004285Y+005729
T02
X+004942Y+046380
X+005442Y+046380
X+005442Y+045880
X+004942Y+045880
X+004942Y+045380
X+005442Y+045380
X+005442Y+044880
X+004942Y+044880
X+004942Y+044380
X+005442Y+044380
T03
X+021104Y+045442
X+020317Y+045442
X+019530Y+045442
X+018104Y+045442
X+017317Y+045442
X+016530Y+045442
X+015104Y+045442
X+014317Y+045442
X+013530Y+045442
X+012104Y+045442
X+011317Y+045442
X+010530Y+045442
X+015817Y+006317
X+019754Y+006317
T04
X+018770Y+005333
X+017785Y+005333
X+016801Y+005333
X+016801Y+007301
X+017785Y+007301
X+018770Y+007301
T05
X+022833Y+036999
X+023817Y+036999
X+024801Y+036999
X+024797Y+028992
X+023817Y+028989
X+022837Y+028992
X+022837Y+027992
X+023817Y+027989
X+024797Y+027992
X+025051Y+019186
X+024067Y+019186
X+023083Y+019186
X+019551Y+019186
X+018567Y+019186
X+017583Y+019186
X+014051Y+019186
X+013067Y+019186
X+012083Y+019186
X+008551Y+019186
X+007567Y+019186
X+006583Y+019186
T06
X+013817Y+008812
X+013817Y+008822
X+017817Y+008822
X+021817Y+008822
X+021817Y+008812
X+025755Y+008812
X+025755Y+008822
X+026437Y+015442
X+020937Y+015442
X+010697Y+015442
X+005197Y+015442
X+005880Y+008822
X+005880Y+008812
X+009817Y+008812
X+009817Y+008822
X+025817Y+024630
X+026817Y+024630
X+026817Y+025630
X+025817Y+025630
X+025817Y+026630
X+026817Y+026630
X+026817Y+027630
X+025817Y+027630
X+025817Y+028630
X+026817Y+028630
X+025097Y+044552
X+025097Y+046332
X+022537Y+046332
X+022537Y+044552
X+009097Y+044552
X+009097Y+046332
X+006537Y+046332
X+006537Y+044552
T07
X+018255Y+027130
X+019255Y+027130
X+017255Y+027130
X+016255Y+027130
X+015379Y+027130
X+014379Y+027130
X+013379Y+027130
X+012379Y+027130
X+011505Y+027131
X+010505Y+027131
X+009505Y+027131
X+008505Y+027131
X+007630Y+027130
X+006630Y+027130
X+005630Y+027130
X+004630Y+027130
X+004630Y+042879
X+006630Y+042879
X+008505Y+042879
X+010505Y+042879
X+012379Y+042879
X+014379Y+042879
X+016255Y+042879
X+018255Y+042879
T08
X+022095Y+031942G85X+021799Y+031942
X+025835Y+031942G85X+025539Y+031942
T09
X+013817Y+007812
X+013817Y+009822
X+013817Y+013072
X+014947Y+015442
X+016687Y+015442
X+017817Y+013072
X+019937Y+015442
X+022187Y+015442
X+021817Y+013072
X+021817Y+009822
X+021817Y+007812
X+021817Y+004562
X+025755Y+004562
X+025755Y+007812
X+025755Y+009822
X+025755Y+013072
X+025437Y+015442
X+017817Y+009822
X+013817Y+004562
X+009817Y+004562
X+009817Y+007812
X+009817Y+009822
X+009817Y+013072
X+009447Y+015442
X+011697Y+015442
X+006197Y+015442
X+005880Y+013072
X+005880Y+009822
X+005880Y+007812
X+005880Y+004562
T10
X+021967Y+039755
X+025667Y+039755
X+025917Y+021942
X+022217Y+021942
X+020417Y+021942
X+016717Y+021942
X+014917Y+021942
X+011217Y+021942
X+009417Y+021942
X+005717Y+021942
T00
M30
